<svg fill="none" height="40" viewBox="0 0 40 40" width="40" xmlns="http://www.w3.org/2000/svg" xmlns:xlink="http://www.w3.org/1999/xlink"><filter id="a" color-interpolation-filters="sRGB" filterUnits="userSpaceOnUse" height="24.5" width="24" x="8" y="8"><feFlood flood-opacity="0" result="BackgroundImageFix"/><feBlend in="SourceGraphic" in2="BackgroundImageFix" mode="normal" result="shape"/><feColorMatrix in="SourceAlpha" result="hardAlpha" type="matrix" values="0 0 0 0 0 0 0 0 0 0 0 0 0 0 0 0 0 0 127 0"/><feOffset dy=".5"/><feGaussianBlur stdDeviation="1.25"/><feComposite in2="hardAlpha" k2="-1" k3="1" operator="arithmetic"/><feColorMatrix type="matrix" values="0 0 0 0 0 0 0 0 0 0 0 0 0 0 0 0 0 0 0.1 0"/><feBlend in2="shape" mode="normal" result="effect1_innerShadow_3755_17580"/></filter><linearGradient id="b" gradientUnits="userSpaceOnUse" x1="3.52308" x2="36.8568" y1="2.98107" y2="39.0249"><stop offset="0" stop-color="#08c"/><stop offset="1" stop-color="#0083c5"/></linearGradient><path d="m0 0h40v40h-40z" fill="url(#b)"/><g filter="url(#a)"><path d="m10.908 18.9684s9.4352-4.1844 12.7075-5.6578c1.2545-.5893 5.5085-2.4753 5.5085-2.4753s1.9634-.8251 1.7997 1.1787c-.0545.8251-.4908 3.7129-.9271 6.8366-.6545 4.4202-1.3635 9.2529-1.3635 9.2529s-.1091 1.3556-1.0362 1.5913c-.9272.2358-2.4543-.825-2.7269-1.0608-.2183-.1768-4.0905-2.829-5.5085-4.1256-.3818-.3536-.8181-1.0608.0545-1.8859 1.9634-1.9449 4.3086-4.3612 5.7266-5.8936.6545-.7072 1.3089-2.3574-1.418-.3537-3.8722 2.8879-7.6899 5.599-7.6899 5.599s-.8727.5893-2.5088.0589c-1.6363-.5304-3.54511-1.2376-3.54511-1.2376s-1.30886-.8841.92721-1.8271z" fill="#fff"/></g></svg>