<svg fill="none" height="176" viewBox="0 0 341 176" width="341" xmlns="http://www.w3.org/2000/svg" xmlns:xlink="http://www.w3.org/1999/xlink"><mask id="a" height="176" maskUnits="userSpaceOnUse" width="341" x="0" y="0"><path d="m340.5 176h340v176h-340z" fill="#d9d9d9" transform="matrix(-1 0 0 -1 681 352)"/></mask><g mask="url(#a)" stroke="#e1e8f7" stroke-opacity=".4" stroke-width="2"><circle cx="241.094" cy="102.093" r="61.6169" transform="matrix(-1 0 0 -1 482.188 204.186)"/><circle cx="241.094" cy="102.092" r="76.6449" transform="matrix(-1 0 0 -1 482.188 204.184)"/><circle cx="241.094" cy="102.094" r="91.673" transform="matrix(-1 0 0 -1 482.188 204.188)"/><circle cx="241.094" cy="102.093" r="106.701" transform="matrix(-1 0 0 -1 482.188 204.186)"/><circle cx="241.094" cy="102.094" r="121.729" transform="matrix(-1 0 0 -1 482.188 204.188)"/><circle cx="241.094" cy="102.093" r="136.757" transform="matrix(-1 0 0 -1 482.188 204.186)"/><circle cx="241.094" cy="102.095" r="151.785" transform="matrix(-1 0 0 -1 482.188 204.19)"/><circle cx="241.094" cy="102.093" r="166.813" transform="matrix(-1 0 0 -1 482.188 204.186)"/><circle cx="241.095" cy="102.094" r="181.841" transform="matrix(-1 0 0 -1 482.19 204.188)"/><circle cx="241.094" cy="102.093" r="196.869" transform="matrix(-1 0 0 -1 482.188 204.186)"/><circle cx="241.094" cy="102.094" r="211.897" transform="matrix(-1 0 0 -1 482.188 204.188)"/><circle cx="241.094" cy="102.094" r="226.925" transform="matrix(-1 0 0 -1 482.188 204.188)"/><circle cx="241.094" cy="102.095" r="241.954" transform="matrix(-1 0 0 -1 482.188 204.19)"/><circle cx="241.094" cy="102.094" r="256.982" transform="matrix(-1 0 0 -1 482.188 204.188)"/><circle cx="241.094" cy="102.095" r="272.01" transform="matrix(-1 0 0 -1 482.188 204.19)"/><circle cx="241.094" cy="102.093" r="287.038" transform="matrix(-1 0 0 -1 482.188 204.186)"/><circle cx="241.094" cy="102.094" r="302.066" transform="matrix(-1 0 0 -1 482.188 204.188)"/><circle cx="241.094" cy="102.094" r="317.094" transform="matrix(-1 0 0 -1 482.188 204.188)"/></g></svg>