<svg fill="none" height="77" viewBox="0 0 77 77" width="77" xmlns="http://www.w3.org/2000/svg" xmlns:xlink="http://www.w3.org/1999/xlink"><clipPath id="a"><path d="m0 0h57v57h-57z" transform="matrix(.89858354 .43880249 -.43880249 .89858354 25.0117 0)"/></clipPath><g clip-path="url(#a)"><path d="m22.9854 14.9745s2.1905-4.2692 6.4161-2.2058c4.2256 2.0635 34.1035 16.6537 34.1035 16.6537s4.2469 2.0739 2.1731 6.3208l-12.4955 25.5883s-2.0791 4.2576-6.3367 2.1785c0 0-34.1303-16.68-34.1355-16.6693s-4.26504-2.0801-2.1828-6.3441z" fill="#ffb74d"/><path d="m65.6781 35.7432-26.5204.2382-16.1093-21.0818c.3236-.6085 2.4903-4.0172 6.3531-2.1309 2.0915 1.0213 34.1035 16.6537 34.1035 16.6537s4.2469 2.0739 2.1731 6.3208zm-28.6047 4.5065-16.1306-21.0923-10.4216 21.3414c-2.08428 4.2683 2.184 6.3526 2.184 6.3526.0104-.0214 34.1462 16.6745 34.1462 16.6745 4.2469 2.0739 6.3312-2.1944 6.3312-2.1944l10.4111-21.32z" fill="#fff" opacity=".4"/></g></svg>