<svg fill="none" height="176" viewBox="0 0 343 176" width="343" xmlns="http://www.w3.org/2000/svg" xmlns:xlink="http://www.w3.org/1999/xlink"><mask id="a" height="176" maskUnits="userSpaceOnUse" width="343" x="0" y="0"><path d="m0 0h343v176h-343z" fill="#d9d9d9"/></mask><g mask="url(#a)" stroke="#e1e8f7" stroke-opacity=".4" stroke-width="2"><path d="m125.07 94.0944c0 34.0216-27.8264 61.6166-62.1699 61.6166s-62.169387-27.595-62.169387-61.6166c0-34.0218 27.825887-61.6169 62.169387-61.6169s62.1699 27.5951 62.1699 61.6169z"/><path d="m140.231 94.0951c0 42.3219-34.614 76.6449-77.3304 76.6449-42.7165 0-77.33-34.323-77.33-76.6449 0-42.3215 34.6135-76.6449 77.33-76.6449 42.7164 0 77.3304 34.3234 77.3304 76.6449z"/><path d="m155.391 94.0939c0 50.6211-41.401 91.6731-92.4909 91.6731-51.0895 0-92.4907-41.052-92.4907-91.6731 0-50.6213 41.4012-91.673 92.4907-91.673 51.0899 0 92.4909 41.0517 92.4909 91.673z"/><path d="m170.552 94.0946c0 58.9214-48.189 106.7014-107.6519 106.7014-59.46246 0-107.6513-47.78-107.6513-106.7014 0-58.9211 48.18884-106.701 107.6513-106.701 59.4629 0 107.6519 47.7799 107.6519 106.701z"/><path d="m185.712 94.0934c0 67.2206-54.976 121.7296-122.8116 121.7296-67.8355 0-122.812-54.509-122.812-121.7296 0-67.2209 54.9765-121.7291 122.812-121.7291 67.8356 0 122.8116 54.5082 122.8116 121.7291z"/><path d="m200.873 94.0941c0 75.5209-61.765 136.7569-137.9731 136.7569-76.2085 0-137.9727-61.236-137.9727-136.7569 0-75.5207 61.7642-136.7572 137.9727-136.7572 76.2081 0 137.9731 61.2365 137.9731 136.7572z"/><path d="m216.033 94.0928c0 83.8202-68.552 151.7852-153.1331 151.7852-84.5815 0-153.1333-67.965-153.1333-151.7852 0-83.8204 68.5518-151.7852 153.1333-151.7852 84.5811 0 153.1331 67.9648 153.1331 151.7852z"/><path d="m231.194 94.0945c0 92.1205-75.339 166.8135-168.2938 166.8135-92.9545 0-168.2942-74.693-168.2942-166.8135 0-92.12014 75.3397-166.8133 168.2942-166.8133 92.9548 0 168.2938 74.69316 168.2938 166.8133z"/><path d="m246.354 94.0938c0 100.4202-82.127 181.8412-183.4548 181.8412-101.3275 0-183.4542-81.421-183.4542-181.8412 0-100.41996 82.1267-181.8414 183.4542-181.8414 101.3278 0 183.4548 81.42144 183.4548 181.8414z"/><path d="m261.516 94.094c0 108.72-88.915 196.869-198.6153 196.869-109.7005 0-198.6157-88.149-198.6157-196.869 0-108.7197 88.9152-196.869 198.6157-196.869 109.7003 0 198.6153 88.1493 198.6153 196.869z"/><path d="m276.676 94.0932c0 117.0198-95.702 211.8978-213.7756 211.8978-118.0734 0-213.7754-94.878-213.7754-211.8978 0-117.0194 95.702-211.8972 213.7754-211.8972 118.0736 0 213.7756 94.8778 213.7756 211.8972z"/><path d="m291.837 94.0939c0 125.3191-102.491 226.9251-228.937 226.9251-126.4465 0-228.937-101.606-228.937-226.9251 0-125.3192 102.4905-226.9259 228.937-226.9259 126.446 0 228.937 101.6067 228.937 226.9259z"/><path d="m306.998 94.0927c0 133.6193-109.278 241.9533-244.0973 241.9533-134.8195 0-244.0977-108.334-244.0977-241.9533 0-133.619 109.2782-241.9537 244.0977-241.9537 134.8193 0 244.0973 108.3347 244.0973 241.9537z"/><path d="m322.158 94.0934c0 141.9186-116.065 256.9816-259.2578 256.9816-143.1925 0-259.2582-115.063-259.2582-256.9816 0-141.9187 116.0657-256.9814 259.2582-256.9814 143.1928 0 259.2578 115.0627 259.2578 256.9814z"/><path d="m337.319 94.0922c0 150.2188-122.853 272.0098-274.4185 272.0098s-274.4185-121.791-274.4185-272.0098c0-150.2185 122.853-272.0092 274.4185-272.0092s274.4185 121.7907 274.4185 272.0092z"/><path d="m352.48 94.0943c0 158.5187-129.641 287.0377-289.5795 287.0377s-289.5795-128.519-289.5795-287.0377c0-158.5183 129.641-287.0373 289.5795-287.0373s289.5795 128.519 289.5795 287.0373z"/><path d="m367.64 94.0931c0 166.8179-136.428 302.0659-304.7397 302.0659-168.3113 0-304.7403-135.248-304.7403-302.0659 0-166.818 136.429-302.0661 304.7403-302.0661 168.3117 0 304.7397 135.2481 304.7397 302.0661z"/><path d="m382.801 94.0938c0 175.1182-143.216 317.0942-319.9005 317.0942s-319.9005-141.976-319.9005-317.0942c0-175.1178 143.216-317.0938 319.9005-317.0938s319.9005 141.976 319.9005 317.0938z"/></g></svg>