<svg fill="none" height="87" viewBox="0 0 87 87" width="87" xmlns="http://www.w3.org/2000/svg" xmlns:xlink="http://www.w3.org/1999/xlink"><clipPath id="a"><path d="m0 0h72v72h-72z" transform="matrix(.97365895 -.22800931 .22800931 .97365895 0 16.4165)"/></clipPath><g clip-path="url(#a)"><path d="m73.8378 42.2617 5.4722 23.3678-49.6566 11.6285c-4.8313 1.1313-9.6837-1.8796-10.815-6.7109l-4.1042-17.5259c-1.1314-4.8313 1.8796-9.6836 6.7109-10.815l46.7356-10.9444 2.7361 11.6839z" fill="#6d4c41"/><path d="m22.8133 48.0479 14.6049-3.4201 32.1308-7.5243 1.368 5.8419-46.7356 10.9445c-1.6095.3769-3.2281-.6275-3.605-2.237-.3769-1.6094.6275-3.2281 2.2369-3.605z" fill="#000" opacity=".2"/><path d="m54.3524 31.419c-5.6375 1.3201-11.2973-2.1919-12.6175-7.8294s2.1919-11.2973 7.8293-12.6175c5.6375-1.32015 11.2974 2.1919 12.6176 7.8293 1.3201 5.6375-2.1919 11.2974-7.8294 12.6176z" fill="#fbc02d"/><path d="m22.9622 48.0133c-.1829-.4656-.374-.9261-.491-1.4256-1.3201-5.6375 2.1919-11.2974 7.8294-12.6175 5.6375-1.3202 11.2973 2.1918 12.6175 7.8293.117.4995.1503.997.193 1.4954z" fill="#fbc02d"/><path d="m52.9842 25.5767c-2.4185.5664-4.8411-.9369-5.4075-3.3554-.5664-2.4186.9369-4.8412 3.3554-5.4075 2.4186-.5664 4.8412.9368 5.4076 3.3554.5663 2.4186-.9369 4.8411-3.3555 5.4075zm-15.8349 19.114c.0562-.4969.0471-1.0093-.0733-1.5234-.5664-2.4186-2.9889-3.9218-5.4075-3.3555-2.4186.5664-3.9218 2.989-3.3554 5.4075.1203.5141.3397.9773.6107 1.3976z" fill="#000" opacity=".2"/></g></svg>