<svg fill="none" height="24" viewBox="0 0 24 24" width="24" xmlns="http://www.w3.org/2000/svg"><path d="m15.0682 12.7841c0 .8473-.6868 1.5341-1.5341 1.5341h-3.0682c-.84732 0-1.53408-.6868-1.53408-1.5341v-3.06819c0-.84733.68676-1.53409 1.53408-1.53409h3.0682c.8473 0 1.5341.68676 1.5341 1.53409zm8.1818-3.06819c0-.84733-.6868-1.53409-1.5341-1.53409h-3.0682c-.8468 0-1.5341.68676-1.5341 1.53409v3.06819c0 .8473.6873 1.5341 1.5341 1.5341h3.0682c.8473 0 1.5341-.6868 1.5341-1.5341zm-16.36364 0c0-.84733-.68676-1.53409-1.53409-1.53409h-3.06818c-.84682 0-1.53409.68676-1.53409 1.53409v3.06819c0 .8473.68727 1.5341 1.53409 1.5341h3.06818c.84733 0 1.53409-.6868 1.53409-1.5341zm8.18184-8.18182c0-.847329-.6868-1.53409-1.5341-1.53409h-3.0682c-.84732 0-1.53408.686761-1.53408 1.53409v3.06818c0 .84733.68676 1.53409 1.53408 1.53409h3.0682c.8473 0 1.5341-.68676 1.5341-1.53409zm8.1818 0c0-.847329-.6868-1.53409-1.5341-1.53409h-3.0682c-.8468 0-1.5341.686761-1.5341 1.53409v3.06818c0 .84733.6873 1.53409 1.5341 1.53409h3.0682c.8473 0 1.5341-.68676 1.5341-1.53409zm-16.36364 0c0-.847329-.68676-1.53409-1.53409-1.53409h-3.06818c-.84682 0-1.53409.686761-1.53409 1.53409v3.06818c0 .84733.68727 1.53409 1.53409 1.53409h3.06818c.84733 0 1.53409-.68676 1.53409-1.53409zm8.18184 16.36361c0-.8468-.6868-1.5341-1.5341-1.5341h-3.0682c-.84732 0-1.53408.6873-1.53408 1.5341v3.0682c0 .8473.68676 1.5341 1.53408 1.5341h3.0682c.8473 0 1.5341-.6868 1.5341-1.5341zm8.1818 0c0-.8468-.6868-1.5341-1.5341-1.5341h-3.0682c-.8468 0-1.5341.6873-1.5341 1.5341v3.0682c0 .8473.6873 1.5341 1.5341 1.5341h3.0682c.8473 0 1.5341-.6868 1.5341-1.5341zm-16.36364 0c0-.8468-.68676-1.5341-1.53409-1.5341h-3.06818c-.84682 0-1.53409.6873-1.53409 1.5341v3.0682c0 .8473.68727 1.5341 1.53409 1.5341h3.06818c.84733 0 1.53409-.6868 1.53409-1.5341z" fill="#fff"/></svg>