<svg xmlns="http://www.w3.org/2000/svg" width="374" height="374" fill="none" viewBox="0 0 374 374"><path fill="#F5F5F5" d="M293.403 200.793L239.001 180.223C238.107 179.885 237.289 179.374 236.593 178.72C235.896 178.066 235.336 177.28 234.944 176.409C234.551 175.538 234.334 174.598 234.305 173.643C234.276 172.688 234.436 171.737 234.775 170.843L263.244 95.5495C263.926 93.7444 265.298 92.2844 267.057 91.4904C268.816 90.6965 270.818 90.6337 272.624 91.3158L307.129 104.361L323.42 141.985L302.783 196.589C302.094 198.389 300.72 199.842 298.962 200.63C297.204 201.418 295.204 201.477 293.403 200.793Z"/><path fill="#EBEBEB" d="M307.129 104.361L299.11 125.552C298.795 126.383 298.647 127.269 298.674 128.157C298.702 129.046 298.904 129.921 299.269 130.731C299.635 131.542 300.156 132.273 300.804 132.882C301.452 133.491 302.213 133.966 303.045 134.281L323.42 141.985L307.129 104.361Z"/><path fill="#E0E0E0" d="M298.684 127.519C298.684 127.519 296.477 132.561 301.676 136.495C301.872 136.642 302.077 136.777 302.289 136.899C304.773 138.395 321.109 148.119 321.259 147.723L323.413 142.023L303.037 134.318C303.037 134.318 298.026 132.187 298.684 127.519Z"/><path fill="#E0E0E0" d="M294.877 122.964C294.772 123.24 289.057 121.326 282.108 118.7C275.159 116.075 269.609 113.718 269.714 113.464C269.819 113.21 275.533 115.102 282.482 117.728C289.431 120.353 294.981 122.672 294.877 122.964Z"/><path fill="#E0E0E0" d="M306.598 141.095C306.493 141.365 297.143 138.103 285.706 133.757C274.269 129.411 265.076 125.701 265.181 125.425C265.286 125.148 274.636 128.417 286.08 132.77C297.524 137.123 306.68 140.818 306.598 141.095Z"/><path fill="#E0E0E0" d="M306.545 152.51C306.441 152.779 296.253 149.181 283.784 144.461C271.315 139.741 261.291 135.702 261.396 135.433C261.501 135.164 271.689 138.761 284.158 143.481C296.627 148.201 306.68 152.233 306.545 152.51Z"/><path fill="#E0E0E0" d="M302.977 161.949C302.873 162.219 292.685 158.621 280.216 153.901C267.747 149.181 257.723 145.112 257.828 144.873C257.933 144.633 268.121 148.201 280.59 152.914C293.059 157.626 303.082 161.673 302.977 161.949Z"/><path fill="#E0E0E0" d="M299.409 171.389C299.305 171.659 289.109 168.061 276.648 163.341C264.186 158.621 254.155 154.582 254.253 154.312C254.35 154.043 264.545 157.641 277.022 162.353C289.498 167.066 299.507 171.112 299.409 171.389Z"/><path fill="#E0E0E0" d="M295.834 180.829C295.737 181.098 285.542 177.493 273.08 172.781C260.618 168.068 250.58 164.021 250.685 163.752C250.789 163.483 260.977 167.081 273.446 171.793C285.916 176.506 295.939 180.552 295.834 180.829Z"/><path fill="#EBEBEB" d="M112.025 122.625L40.3065 147.741C37.8267 148.609 36.5205 151.323 37.3889 153.803L73.3724 256.556C74.2408 259.035 76.955 260.342 79.4347 259.473L151.154 234.358C153.633 233.489 154.939 230.775 154.071 228.295L118.088 125.543C117.219 123.063 114.505 121.757 112.025 122.625Z"/><path fill="#E0E0E0" d="M112.945 129.012L43.5698 153.307L79.2344 255.149L148.609 230.854L112.945 129.012Z"/><path fill="#FAFAFA" d="M111.703 128.533L42.3282 152.827L77.313 252.728L146.688 228.433L111.703 128.533Z"/><path fill="#E0E0E0" d="M146.675 228.432L111.602 128.566L111.729 128.626L42.3667 152.929L42.434 152.794C55.5091 190.314 67.679 224.968 77.3956 252.697L77.2834 252.644L146.683 228.432L77.3357 252.824H77.2534V252.742C67.5294 225.013 55.3969 190.359 42.247 152.846V152.742H42.3443L111.714 128.462H111.811V128.551L146.675 228.432Z"/><path fill="#E0E0E0" d="M122.074 237.049C122.074 237.049 137.52 224.019 140.198 210.45C138.648 212.601 136.678 214.415 134.408 215.784C132.138 217.154 129.614 218.049 126.988 218.416C126.988 218.416 126.681 232.628 122.074 237.049Z"/><path fill="#EBEBEB" d="M66.0367 175.088L62.3869 176.366C61.0535 176.833 60.3511 178.292 60.818 179.626L62.0962 183.276C62.5631 184.609 64.0227 185.311 65.3561 184.844L69.0059 183.566C70.3393 183.099 71.0418 181.64 70.5748 180.306L69.2966 176.657C68.8297 175.323 67.3702 174.621 66.0367 175.088Z"/><path fill="#fff" d="M65.5921 181.375C65.5667 181.388 65.5385 181.395 65.5098 181.395C65.4812 181.395 65.453 181.388 65.4276 181.375L63.752 180.403C63.7115 180.372 63.6836 180.327 63.6737 180.277C63.6638 180.227 63.6725 180.175 63.6982 180.131C63.724 180.087 63.7649 180.053 63.8134 180.037C63.8619 180.021 63.9145 180.024 63.9615 180.044L65.4575 180.896L67.2228 177.156C67.2485 177.106 67.2919 177.068 67.3445 177.049C67.3971 177.029 67.4551 177.03 67.507 177.052C67.5323 177.064 67.555 177.08 67.5737 177.101C67.5923 177.122 67.6066 177.147 67.6157 177.173C67.6247 177.2 67.6284 177.228 67.6264 177.256C67.6245 177.284 67.6169 177.311 67.6042 177.336L65.7417 181.315C65.7225 181.335 65.6992 181.351 65.6734 181.361C65.6476 181.372 65.6199 181.376 65.5921 181.375Z"/><path fill="#E0E0E0" d="M113.494 159.623C113.494 159.683 104.518 162.892 93.3803 166.789C82.2426 170.686 73.1843 173.798 73.1843 173.745C73.1843 173.693 82.1603 170.477 93.3055 166.58C104.451 162.683 113.479 159.571 113.494 159.623Z"/><path fill="#E0E0E0" d="M92.3406 174C92.3406 174 92.1087 174.104 91.6898 174.269L89.8797 174.942C88.3837 175.496 86.2294 176.251 83.8957 177.074C81.5619 177.897 79.4077 178.63 77.9117 179.146L76.0791 179.752C75.8573 179.833 75.6298 179.898 75.3984 179.946C75.6076 179.837 75.8252 179.744 76.0492 179.67L77.8593 179.004C79.3553 178.443 81.5096 177.687 83.8433 176.865C86.1771 176.042 88.3313 175.316 89.8273 174.793L91.6599 174.187C91.881 174.105 92.1088 174.042 92.3406 174Z"/><path fill="#E0E0E0" d="M114.444 162.376C114.444 162.428 105.468 165.637 94.3228 169.534C83.1776 173.431 74.1268 176.55 74.1268 176.491C74.1268 176.431 83.1028 173.229 94.2555 169.332C105.408 165.435 114.444 162.316 114.444 162.376Z"/><path fill="#EBEBEB" d="M71.247 189.971L67.5971 191.249C66.2637 191.716 65.5613 193.176 66.0282 194.509L67.3064 198.159C67.7734 199.493 69.2329 200.195 70.5663 199.728L74.2161 198.45C75.5496 197.983 76.252 196.523 75.785 195.19L74.5069 191.54C74.0399 190.207 72.5804 189.504 71.247 189.971Z"/><path fill="#fff" d="M70.8057 196.26C70.7789 196.273 70.7495 196.28 70.7197 196.28C70.6898 196.28 70.6604 196.273 70.6336 196.26L68.9656 195.288C68.9414 195.275 68.9202 195.257 68.9032 195.235C68.8862 195.213 68.8739 195.188 68.8669 195.162C68.8599 195.135 68.8584 195.107 68.8625 195.08C68.8666 195.053 68.8762 195.027 68.8908 195.004C68.904 194.979 68.9219 194.958 68.9436 194.941C68.9653 194.924 68.9902 194.912 69.0168 194.905C69.0434 194.898 69.0712 194.896 69.0984 194.9C69.1256 194.905 69.1517 194.914 69.175 194.929L70.671 195.782L72.4363 192.004C72.4606 191.955 72.5027 191.917 72.5541 191.897C72.6054 191.878 72.6623 191.879 72.7131 191.899C72.7636 191.922 72.8031 191.964 72.8227 192.016C72.8423 192.068 72.8406 192.126 72.8178 192.176L70.9553 196.163C70.9387 196.189 70.9167 196.211 70.8909 196.228C70.8652 196.244 70.8361 196.256 70.8057 196.26Z"/><path fill="#E0E0E0" d="M118.708 174.508C118.708 174.568 109.732 177.77 98.5864 181.674C87.4412 185.579 78.3904 188.683 78.3904 188.631C78.3904 188.578 87.3664 185.362 98.5116 181.465C109.657 177.568 118.693 174.456 118.708 174.508Z"/><path fill="#E0E0E0" d="M97.5542 188.885C97.5542 188.885 97.3223 188.99 96.8959 189.154L95.0932 189.827C93.5972 190.381 91.443 191.136 89.1092 191.959C86.7755 192.782 84.6212 193.515 83.1252 194.031L81.2926 194.637C81.0708 194.718 80.8433 194.783 80.612 194.832C80.8202 194.72 81.038 194.628 81.2627 194.555L83.0729 193.889C84.5689 193.328 86.7231 192.573 89.0569 191.75C91.3906 190.927 93.5449 190.201 95.0409 189.678L96.8735 189.072C97.0946 188.99 97.3223 188.928 97.5542 188.885Z"/><path fill="#E0E0E0" d="M119.68 177.276C119.68 177.328 110.704 180.537 99.5588 184.434C88.4136 188.331 79.3628 191.451 79.3628 191.391C79.3628 191.331 88.3388 188.129 99.484 184.232C110.629 180.335 119.68 177.201 119.68 177.276Z"/><path fill="#EBEBEB" d="M76.4647 204.855L72.8148 206.133C71.4814 206.6 70.779 208.06 71.2459 209.393L72.5241 213.043C72.9911 214.376 74.4506 215.079 75.784 214.612L79.4338 213.334C80.7673 212.867 81.4697 211.407 81.0027 210.074L79.7246 206.424C79.2576 205.09 77.7981 204.388 76.4647 204.855Z"/><path fill="#fff" d="M76.0192 211.145C75.9925 211.159 75.963 211.166 75.9332 211.166C75.9034 211.166 75.874 211.159 75.8472 211.145L74.1717 210.188C74.1444 210.176 74.1199 210.159 74.0998 210.137C74.0797 210.115 74.0645 210.089 74.0552 210.061C74.0458 210.033 74.0426 210.003 74.0457 209.974C74.0488 209.944 74.0581 209.916 74.0731 209.89C74.0881 209.864 74.1083 209.842 74.1325 209.825C74.1567 209.808 74.1842 209.796 74.2134 209.79C74.2425 209.784 74.2725 209.785 74.3014 209.791C74.3304 209.798 74.3575 209.811 74.3811 209.829L75.8771 210.682L77.6424 206.904C77.6529 206.878 77.6686 206.854 77.6885 206.834C77.7085 206.814 77.7323 206.798 77.7585 206.788C77.7847 206.777 77.8128 206.772 77.8411 206.773C77.8694 206.773 77.8972 206.779 77.923 206.791C77.9488 206.803 77.9719 206.819 77.9911 206.84C78.0102 206.861 78.0249 206.885 78.0344 206.912C78.0438 206.939 78.0477 206.967 78.0459 206.995C78.0441 207.024 78.0366 207.051 78.0239 207.076L76.1614 211.063C76.1248 211.106 76.0746 211.135 76.0192 211.145Z"/><path fill="#E0E0E0" d="M123.921 189.394C123.921 189.453 114.945 192.655 103.8 196.559C92.6548 200.464 83.604 203.568 83.604 203.508C83.604 203.449 92.58 200.247 103.733 196.35C114.885 192.453 123.899 189.341 123.921 189.394Z"/><path fill="#E0E0E0" d="M102.768 203.763C102.555 203.871 102.335 203.964 102.109 204.039L100.299 204.713C98.8033 205.266 96.6566 206.022 94.3153 206.844C91.9741 207.667 89.8273 208.393 88.3313 208.916L86.4987 209.522C86.2765 209.603 86.0491 209.668 85.818 209.717C86.0263 209.605 86.2441 209.513 86.4688 209.44L88.279 208.767C89.775 208.213 91.9292 207.458 94.263 206.635C96.5967 205.812 98.751 205.087 100.247 204.563L102.072 203.957C102.3 203.879 102.532 203.814 102.768 203.763Z"/><path fill="#E0E0E0" d="M124.916 192.146C124.916 192.199 115.94 195.408 104.795 199.305C93.6496 203.202 84.5988 206.321 84.5988 206.261C84.5988 206.201 93.5748 203 104.72 199.095C115.865 195.191 124.864 192.086 124.916 192.146Z"/><path fill="#EBEBEB" d="M81.6749 219.739L78.025 221.017C76.6916 221.484 75.9892 222.943 76.4562 224.277L77.7343 227.927C78.2013 229.26 79.6608 229.962 80.9942 229.495L84.644 228.217C85.9775 227.75 86.6799 226.291 86.2129 224.957L84.9348 221.308C84.4678 219.974 83.0083 219.272 81.6749 219.739Z"/><path fill="#fff" d="M81.2253 226.031C81.1993 226.042 81.1713 226.047 81.143 226.047C81.1148 226.047 81.0868 226.042 81.0608 226.031L79.3852 225.058C79.3376 225.029 79.3034 224.983 79.2901 224.929C79.2767 224.875 79.2854 224.818 79.3142 224.77C79.343 224.723 79.3895 224.688 79.4435 224.675C79.4975 224.662 79.5546 224.67 79.6022 224.699L81.0982 225.552L82.8634 221.812C82.8863 221.761 82.9283 221.722 82.9802 221.702C83.0321 221.683 83.0896 221.684 83.1402 221.707C83.1895 221.731 83.2276 221.774 83.2471 221.825C83.2665 221.876 83.2657 221.933 83.2449 221.984L81.3749 225.971C81.3346 226.009 81.281 226.031 81.2253 226.031Z"/><path fill="#E0E0E0" d="M129.135 204.279C129.135 204.339 120.159 207.54 109.014 211.437C97.8683 215.334 88.8175 218.453 88.8175 218.394C88.8175 218.334 97.7935 215.132 108.939 211.235C120.084 207.338 129.112 204.204 129.135 204.279Z"/><path fill="#E0E0E0" d="M107.974 218.648C107.766 218.759 107.548 218.852 107.323 218.925L105.513 219.598C104.017 220.151 101.863 220.907 99.5289 221.73C97.1951 222.552 95.0409 223.278 93.5449 223.802L91.7123 224.407C91.2784 224.542 91.0316 224.609 91.0316 224.602C91.2399 224.491 91.4577 224.398 91.6824 224.325L93.4925 223.652C94.9885 223.098 97.1428 222.343 99.4765 221.52C101.81 220.697 103.965 219.972 105.461 219.448L107.293 218.842C107.515 218.762 107.743 218.697 107.974 218.648Z"/><path fill="#E0E0E0" d="M130.1 207.031C130.1 207.084 121.124 210.293 109.978 214.19C98.8332 218.087 89.7824 221.199 89.7824 221.146C89.7824 221.094 98.7584 217.885 109.904 213.98C121.049 210.076 130.077 206.972 130.1 207.031Z"/><path fill="#E0E0E0" d="M50.1833 143.092L52.0084 148.328C52.5189 149.786 53.5872 150.981 54.9785 151.652C56.3699 152.322 57.9705 152.413 59.4286 151.904L97.801 138.44C98.5224 138.188 99.1871 137.796 99.7569 137.287C100.327 136.778 100.791 136.162 101.122 135.473C101.454 134.785 101.646 134.038 101.688 133.275C101.731 132.512 101.622 131.748 101.369 131.027L99.5438 125.791L50.1833 143.092Z"/><path fill="#E0E0E0" d="M75.376 136.001C74.3566 136.36 73.2538 136.408 72.207 136.14C71.1603 135.871 70.2168 135.298 69.4959 134.493C68.775 133.688 68.3092 132.687 68.1574 131.617C68.0056 130.548 68.1747 129.457 68.6432 128.483C69.1117 127.509 69.8587 126.696 70.7894 126.147C71.7202 125.598 72.7929 125.338 73.8718 125.399C74.9506 125.46 75.9872 125.839 76.8501 126.49C77.7131 127.14 78.3637 128.032 78.7195 129.052C79.1955 130.417 79.1109 131.915 78.4841 133.218C77.8573 134.521 76.7396 135.522 75.376 136.001ZM72.4588 127.676C71.8301 127.896 71.2806 128.297 70.8799 128.829C70.4792 129.36 70.2452 129.999 70.2076 130.664C70.17 131.329 70.3305 131.99 70.6687 132.564C71.0069 133.137 71.5076 133.598 72.1076 133.887C72.7075 134.176 73.3797 134.28 74.039 134.187C74.6984 134.094 75.3153 133.807 75.8118 133.363C76.3082 132.919 76.6618 132.338 76.8279 131.694C76.994 131.049 76.9651 130.369 76.7448 129.741C76.4497 128.899 75.8326 128.209 75.029 127.821C74.2253 127.434 73.3009 127.382 72.4588 127.676Z"/><path fill="#E0E0E0" d="M106.044 149.6C106.044 149.697 95.9609 153.34 83.4469 157.716C70.9328 162.092 60.76 165.57 60.7226 165.473C60.6852 165.375 70.8057 161.733 83.3197 157.357C95.8338 152.981 106.007 149.473 106.044 149.6Z"/><path fill="#E0E0E0" d="M93.0811 151.433C93.0811 151.53 88.6679 153.183 83.1402 155.12C77.6125 157.058 73.102 158.576 73.0646 158.441C73.0272 158.307 77.4853 156.691 83.013 154.754C88.5408 152.816 93.0512 151.335 93.0811 151.433Z"/><path fill="#FFCF55" d="M292.468 303C295.222 301.707 298.319 301.332 301.302 301.93C302.903 302.192 304.578 302.678 305.663 303.875C306.747 305.072 306.964 307.196 305.708 308.228C304.896 308.78 303.916 309.026 302.94 308.924C300.599 308.924 298.011 308.483 296.148 309.889C295.079 310.689 294.375 312.021 293.104 312.417C292.464 312.566 291.793 312.501 291.194 312.23C290.595 311.96 290.102 311.5 289.79 310.921C289.186 309.751 289.052 308.394 289.416 307.129C289.573 306.252 289.93 305.424 290.459 304.708C290.989 303.991 291.676 303.407 292.468 303Z"/><path fill="#FFCF55" d="M286.275 291.122C287.92 293.463 291.114 292.692 292.595 291.256C294.076 289.82 294.697 287.748 295.266 285.773C296.567 281.248 297.884 276.506 296.919 271.898C296.678 270.513 296.066 269.22 295.146 268.158C294.677 267.631 294.078 267.236 293.408 267.013C292.739 266.79 292.023 266.746 291.331 266.886C289.715 267.313 288.721 268.891 287.995 270.387C285.862 274.822 284.745 279.678 284.726 284.599C284.726 286.888 284.988 289.282 286.275 291.174"/><path fill="#FFCF55" d="M281.764 294.488C282.609 293.385 283.172 292.092 283.404 290.722C283.636 289.352 283.53 287.946 283.096 286.626C282.191 283.998 280.582 281.669 278.443 279.894C276.011 277.73 273.181 276.061 270.11 274.98C268.924 274.5 267.648 274.283 266.37 274.344C265.731 274.38 265.111 274.572 264.563 274.903C264.016 275.235 263.557 275.695 263.229 276.244C262.346 277.919 263.229 279.946 264.096 281.6C265.698 284.518 267.528 287.304 269.572 289.932C271.21 292.049 273.087 294.136 275.593 295.093C278.099 296.051 280.687 295.931 282.011 294.203"/><path fill="#263238" d="M286.17 326.509C286.252 326.161 286.3 325.805 286.312 325.447C286.394 324.699 286.484 323.697 286.596 322.538C286.74 321.103 286.96 319.678 287.254 318.266C287.634 316.55 288.152 314.866 288.803 313.232C289.442 311.6 290.308 310.067 291.376 308.677C292.246 307.544 293.358 306.619 294.63 305.969C295.491 305.541 296.415 305.254 297.367 305.117C297.726 305.104 298.082 305.054 298.43 304.967C298.069 304.928 297.705 304.928 297.345 304.967C296.358 305.047 295.394 305.3 294.495 305.715C293.155 306.345 291.98 307.277 291.062 308.438C289.95 309.849 289.053 311.417 288.399 313.09C287.735 314.747 287.22 316.459 286.858 318.207C286.583 319.635 286.393 321.079 286.29 322.53C286.192 323.764 286.162 324.774 286.147 325.455C286.113 325.806 286.121 326.16 286.17 326.509Z"/><path fill="#263238" d="M286.364 324.273C286.387 324.109 286.387 323.943 286.364 323.779V322.388C286.364 321.161 286.364 319.396 286.424 317.152C286.536 312.761 286.91 308.041 287.643 301.384C288.332 295.123 289.259 287.838 290.239 283.103C290.448 282.026 290.658 281.054 290.86 280.208C291.062 279.363 291.211 278.623 291.368 278.032C291.526 277.441 291.608 277.014 291.698 276.655C291.739 276.493 291.768 276.328 291.787 276.162C291.712 276.309 291.655 276.465 291.615 276.625C291.503 276.984 291.368 277.433 291.204 277.987C291.039 278.54 290.83 279.303 290.62 280.148C290.411 280.994 290.164 281.959 289.932 283.036C288.733 288.644 287.832 294.312 287.232 300.015C286.484 306.687 286.17 312.731 286.147 317.16C286.147 319.359 286.147 321.139 286.222 322.396C286.222 322.971 286.282 323.443 286.304 323.809C286.311 323.965 286.331 324.12 286.364 324.273Z"/><path fill="#263238" d="M286.394 312.559C286.436 312.061 286.436 311.561 286.394 311.063C286.309 309.723 286.157 308.387 285.938 307.062C285.617 305.093 285.183 303.145 284.636 301.227C284.004 298.866 283.188 296.558 282.198 294.323C280.505 290.204 278.08 286.425 275.04 283.17C274.51 282.614 273.945 282.092 273.349 281.607C273.095 281.383 272.863 281.166 272.601 280.994L271.95 280.545C271.558 280.244 271.14 279.979 270.701 279.752C272.137 280.874 273.499 282.088 274.778 283.387C277.727 286.664 280.09 290.424 281.764 294.503C282.734 296.724 283.554 299.008 284.218 301.339C284.78 303.238 285.242 305.166 285.601 307.114C285.908 308.782 286.088 310.106 286.192 311.078C286.223 311.576 286.291 312.071 286.394 312.559Z"/><path fill="#263238" d="M275.07 333.227L276.244 349.309H296.911L298.078 333.227H275.07Z"/><path fill="#263238" d="M300.554 326.883H273.08V333.227H300.554V326.883Z"/><path fill="#455A64" d="M273.08 348.695V350.446H274.366H300.09V348.695H273.08Z"/><path fill="#455A64" d="M275.631 353.542L274.366 350.445H299.11L297.629 353.542H275.631Z"/><path fill="#E0E0E0" d="M297.704 338.478C297.704 338.478 297.704 338.537 297.607 338.627L297.3 339.039L296.096 340.579L296.043 340.647L295.991 340.572L293.036 336.488H293.216L290.299 340.609L290.209 340.736L290.104 340.617L286.656 336.503H286.851L286.664 336.742L283.574 340.609L283.477 340.744L283.38 340.609C282.333 339.113 281.353 337.737 280.463 336.488H280.635L277.052 340.572L276.984 340.647L276.932 340.564C276.461 339.772 276.087 339.136 275.81 338.679L275.526 338.178C275.488 338.123 275.458 338.062 275.436 337.999C275.436 337.999 275.481 338.044 275.556 338.156L275.877 338.642L277.052 340.49H276.94L280.47 336.353L280.56 336.248L280.642 336.361L283.582 340.467H283.38L286.484 336.6L286.678 336.361L286.776 336.234L286.873 336.353L290.321 340.475H290.127L293.066 336.368L293.149 336.248L293.238 336.368C294.398 338.036 295.393 339.45 296.133 340.505H296.021L297.278 339.009L297.614 338.62L297.704 338.478Z"/><path fill="#455A64" d="M298.37 333.114C298.37 333.189 293.194 333.249 286.806 333.249C280.418 333.249 275.242 333.189 275.242 333.114C275.242 333.04 280.418 332.987 286.806 332.987C293.194 332.987 298.37 333.047 298.37 333.114Z"/><path fill="#263238" d="M299.417 350.625C299.417 350.692 293.784 350.752 286.851 350.752C279.917 350.752 274.284 350.692 274.284 350.625C274.284 350.558 279.909 350.49 286.851 350.49C293.792 350.49 299.417 350.55 299.417 350.625Z"/><path fill="#263238" d="M95.5944 299.312C95.5346 299.379 95.0633 299.095 94.5397 298.676C94.0161 298.257 93.6347 297.861 93.6945 297.786C93.7543 297.711 94.2181 298.003 94.7417 298.422C95.2653 298.841 95.6468 299.237 95.5944 299.312Z"/><path fill="#455A64" d="M109.956 277.889C110.16 275.894 109.995 273.879 109.47 271.943C108.841 270.035 107.375 268.293 105.416 267.881C103.172 267.417 100.883 268.831 99.6261 270.746C98.3695 272.661 97.9431 274.98 97.5691 277.231C95.0171 292.789 94.0772 308.568 94.7641 324.318L103.92 325.604C107.906 309.171 109.208 294.802 109.956 277.889Z"/><path fill="#263238" d="M104.107 267.784L104.062 267.934L103.912 268.345L103.299 269.931C103.172 270.275 103 270.679 102.865 271.075L102.424 272.459L101.908 274.052L101.436 275.87C100.668 278.872 100.076 281.917 99.6635 284.988C99.1698 288.429 98.8482 292.244 98.5864 296.253C98.1226 304.279 98.0478 311.564 97.8384 316.83C97.7412 319.471 97.6514 321.603 97.5542 323.069C97.5018 323.817 97.4644 324.348 97.4345 324.767C97.4345 324.939 97.4345 325.088 97.4345 325.2C97.4345 325.313 97.4345 325.35 97.4345 325.35C97.4345 325.35 97.4345 325.305 97.4345 325.2C97.4345 325.096 97.4345 324.939 97.4345 324.759C97.4345 324.348 97.4345 323.779 97.4868 323.061C97.5467 321.565 97.599 319.463 97.6664 316.823C97.816 311.587 97.8534 304.271 98.3246 296.238C98.5789 292.221 98.9155 288.399 99.4242 284.943C99.8532 281.881 100.47 278.849 101.272 275.862L101.765 274.045C101.96 273.486 102.139 272.955 102.304 272.452L102.783 271.068C102.925 270.649 103.104 270.275 103.239 269.931L103.912 268.375C103.982 268.21 104.042 268.076 104.092 267.971C104.086 267.908 104.091 267.845 104.107 267.784Z"/><path fill="#263238" d="M104.952 267.821C105.429 268.385 105.808 269.025 106.074 269.714C106.774 271.606 107.057 273.627 106.904 275.638C106.665 280.702 106.209 287.673 105.61 295.378C105.012 303.082 104.331 310.039 103.792 315.073C103.516 317.586 103.284 319.62 103.112 321.057C103.022 321.737 102.955 322.276 102.902 322.672L102.843 323.091C102.846 323.138 102.846 323.186 102.843 323.233C102.843 323.233 102.843 323.188 102.843 323.091C102.843 322.994 102.843 322.837 102.843 322.665C102.843 322.268 102.925 321.73 102.985 321.042C103.127 319.605 103.321 317.578 103.561 315.058C104.039 310.016 104.675 303.09 105.281 295.355C105.887 287.621 106.373 280.687 106.672 275.638C106.835 273.65 106.58 271.65 105.924 269.766C105.658 269.09 105.333 268.44 104.952 267.821Z"/><path fill="#263238" d="M111.302 291.526C110.702 291.482 110.114 291.33 109.567 291.077C108.986 290.925 108.436 290.672 107.944 290.329C108.545 290.368 109.134 290.52 109.679 290.778C110.261 290.927 110.811 291.181 111.302 291.526Z"/><path fill="#263238" d="M112.409 282.19C111.913 282.587 111.355 282.898 110.756 283.111C110.2 283.418 109.596 283.628 108.969 283.731C110.018 283.022 111.182 282.501 112.409 282.19Z"/><path fill="#263238" d="M111.833 274.568C110.929 274.732 109.999 274.667 109.126 274.381C109.568 274.254 110.034 274.231 110.487 274.314C110.95 274.294 111.41 274.381 111.833 274.568Z"/><path fill="#263238" d="M102.379 269.691C102.304 269.736 101.9 269.235 101.489 268.577C101.189 268.196 100.977 267.755 100.868 267.283C100.943 267.238 101.347 267.732 101.765 268.397C102.184 269.063 102.476 269.639 102.379 269.691Z"/><path fill="#263238" d="M99.2596 274.299C98.8431 274.449 98.3964 274.495 97.9581 274.434C97.5173 274.476 97.0729 274.409 96.664 274.239C97.0805 274.09 97.5272 274.043 97.9656 274.105C98.4063 274.062 98.8507 274.129 99.2596 274.299Z"/><path fill="#263238" d="M97.0156 283.492C96.5368 283.473 96.0687 283.345 95.6468 283.118C95.185 282.987 94.7583 282.754 94.3976 282.437C94.8763 282.456 95.3445 282.584 95.7664 282.811C96.2282 282.943 96.6549 283.175 97.0156 283.492Z"/><path fill="#263238" d="M96.7763 291.264C96.7763 291.354 96.2751 291.541 95.6094 291.675C94.9436 291.81 94.3976 291.862 94.3752 291.772C94.3527 291.683 94.8838 291.496 95.5421 291.361C95.939 291.227 96.3632 291.193 96.7763 291.264Z"/><path fill="#263238" d="M95.744 303.95C95.744 304.04 95.2054 304.212 94.5023 304.339C94.0823 304.464 93.6381 304.484 93.2083 304.399C93.5856 304.174 94.0115 304.043 94.45 304.017C94.869 303.888 95.3138 303.864 95.744 303.95Z"/><path fill="#263238" d="M94.996 310.951C95.0409 311.026 94.5771 311.355 93.9638 311.699C93.3504 312.043 92.8193 312.223 92.7819 312.14C92.7445 312.058 93.2008 311.736 93.8142 311.392C94.4275 311.048 94.996 310.869 94.996 310.951Z"/><path fill="#263238" d="M100.733 318.895C100.658 318.94 100.254 318.386 99.8356 317.653C99.5326 317.234 99.3234 316.754 99.2222 316.247C99.297 316.202 99.7009 316.756 100.12 317.489C100.423 317.908 100.632 318.388 100.733 318.895Z"/><path fill="#263238" d="M102.386 305.693C102.446 305.752 101.997 306.298 101.384 306.904C100.771 307.51 100.217 307.944 100.15 307.877C100.082 307.809 100.539 307.271 101.152 306.665C101.765 306.059 102.319 305.625 102.386 305.693Z"/><path fill="#263238" d="M102.02 298.759C101.952 298.826 101.541 298.482 101.092 298.011C100.643 297.539 100.344 297.083 100.404 297.023C100.464 296.963 100.883 297.3 101.332 297.771C101.78 298.243 102.087 298.699 102.02 298.759Z"/><path fill="#263238" d="M103.157 289.91C103.224 289.97 102.85 290.501 102.319 291.084C101.788 291.668 101.309 292.109 101.242 292.049C101.174 291.989 101.548 291.458 102.072 290.867C102.596 290.276 103.089 289.85 103.157 289.91Z"/><path fill="#263238" d="M103.792 283.492C103.725 283.559 103.209 283.148 102.626 282.579C102.042 282.011 101.631 281.495 101.691 281.428C101.75 281.36 102.274 281.772 102.857 282.348C103.441 282.924 103.852 283.425 103.792 283.492Z"/><path fill="#263238" d="M105.049 274.8C104.95 275.272 104.748 275.717 104.458 276.102C104.062 276.775 103.673 277.284 103.598 277.239C103.523 277.194 103.778 276.61 104.181 275.937C104.585 275.264 104.967 274.755 105.049 274.8Z"/><path fill="#263238" d="M107.405 266.752C107.488 266.797 107.256 267.38 106.889 268.053C106.523 268.726 106.141 269.243 106.081 269.205C106.153 268.738 106.329 268.293 106.597 267.904C106.964 267.223 107.323 266.714 107.405 266.752Z"/><path fill="#263238" d="M110.083 270.409C110.121 270.492 109.754 270.746 109.26 270.985C108.767 271.225 108.34 271.344 108.303 271.262C108.266 271.18 108.632 270.926 109.126 270.686C109.619 270.447 110.046 270.327 110.083 270.409Z"/><path fill="#263238" d="M110.143 299.312C108.901 299.221 107.724 298.719 106.799 297.883C107.382 298.06 107.946 298.293 108.482 298.579C109.06 298.766 109.616 299.012 110.143 299.312Z"/><path fill="#263238" d="M109.051 305.431C109.051 305.521 108.52 305.7 107.817 305.835C107.399 305.969 106.954 305.997 106.523 305.917C106.897 305.688 107.32 305.549 107.757 305.513C108.46 305.378 109.036 305.341 109.051 305.431Z"/><path fill="#263238" d="M107.712 315.925C107.66 316 106.964 315.514 106.321 314.706C105.892 314.245 105.591 313.68 105.446 313.068C105.864 313.512 106.242 313.993 106.575 314.504C106.997 314.942 107.377 315.418 107.712 315.925Z"/><path fill="#263238" d="M92.9839 320.727C92.924 320.66 93.2981 320.241 93.8142 319.8C94.3303 319.359 94.8015 319.052 94.8614 319.127C94.9212 319.202 94.5472 319.605 94.0311 320.054C93.515 320.503 93.0437 320.795 92.9839 320.727Z"/><path fill="#455A64" d="M88.7502 297.824C88.1518 295.961 87.0373 293.792 85.085 293.762C84.5033 293.794 83.9408 293.981 83.4565 294.305C82.9721 294.628 82.5839 295.077 82.3324 295.602C81.795 296.64 81.5372 297.8 81.5844 298.968C81.8254 307.259 83.2382 315.473 85.7806 323.368H92.939C92.8523 314.689 91.4397 306.075 88.7502 297.824Z"/><path fill="#455A64" d="M75.8173 286.103C75.4632 284.358 74.5334 282.783 73.177 281.63C71.8206 280.477 70.1162 279.813 68.3373 279.745C65.1732 280.298 63.9465 283.41 63.5725 286.596C63.1985 289.783 64.1859 292.954 65.1658 296.014C68.2974 305.827 71.434 315.644 74.5756 325.462L83.4768 324.49C80.6942 311.34 79.0786 299.148 75.8173 286.103Z"/><path fill="#263238" d="M85.085 293.762C84.8537 294.08 84.6509 294.418 84.4791 294.772C84.1102 295.783 83.9946 296.87 84.1425 297.936C84.2772 299.297 84.4342 300.928 84.6661 302.723C84.898 304.518 85.2196 306.463 85.6236 308.542C86.4314 312.656 87.344 316.337 87.9199 319.014C88.2116 320.353 88.436 321.445 88.5707 322.201C88.6305 322.553 88.6829 322.837 88.7203 323.076C88.7577 323.316 88.7652 323.383 88.7203 323.383C88.6814 323.289 88.6514 323.191 88.6305 323.091L88.4211 322.231C88.2266 321.431 87.9723 320.361 87.6731 319.067C87.0373 316.389 86.0873 312.716 85.2795 308.595C84.8756 306.53 84.5315 304.556 84.3445 302.745C84.2248 301.848 84.15 300.98 84.0752 300.18C84.0004 299.379 83.9256 298.624 83.8882 297.936C83.7603 296.838 83.9148 295.726 84.337 294.704C84.515 294.34 84.7703 294.018 85.085 293.762Z"/><path fill="#263238" d="M68.5018 279.49C68.1052 279.942 67.745 280.425 67.4247 280.934C66.6055 282.356 66.1411 283.954 66.0708 285.594C66.0336 288.025 66.4053 290.445 67.1704 292.752C67.9184 295.4 68.8085 298.31 69.7136 301.354C71.4864 307.458 73.0871 312.978 74.2614 317.01L75.6078 321.767C75.7574 322.306 75.8696 322.732 75.9594 323.061C76.0083 323.209 76.0409 323.362 76.0566 323.517C75.988 323.378 75.9329 323.233 75.8921 323.084C75.7948 322.754 75.6527 322.336 75.4882 321.797C75.1366 320.653 74.6429 319.044 74.0445 317.077L69.3994 301.444C68.5018 298.385 67.6566 295.46 66.8787 292.827C66.1167 290.486 65.7649 288.032 65.839 285.571C65.9354 283.9 66.4497 282.28 67.335 280.859C67.6457 280.341 68.04 279.879 68.5018 279.49Z"/><path fill="#263238" d="M81.5694 323.54C81.4941 323.402 81.4267 323.259 81.3674 323.114C81.2552 322.822 81.0682 322.41 80.8663 321.857C80.4399 320.765 79.8939 319.157 79.3703 317.137C78.8467 315.117 78.2483 312.649 77.7097 309.956C77.1712 307.263 76.6326 304.249 76.0342 301.107C75.4358 297.966 74.7327 295.011 73.9323 292.371C73.2379 290.023 72.3704 287.731 71.3368 285.512C70.6341 284.018 69.8319 282.574 68.9357 281.188C68.629 280.694 68.3522 280.328 68.1877 280.074C68.094 279.946 68.0114 279.811 67.9408 279.67C68.0505 279.781 68.1506 279.901 68.24 280.029C68.427 280.283 68.7188 280.627 69.0404 281.121C69.9864 282.484 70.8242 283.92 71.5462 285.414C72.6191 287.628 73.5121 289.924 74.2166 292.281C75.0613 295.165 75.7554 298.091 76.296 301.048C76.8869 304.182 77.4404 307.174 77.9491 309.904C78.4577 312.634 78.9963 315.05 79.5348 317.077C80.0734 319.104 80.5746 320.712 80.9635 321.812C81.143 322.373 81.3151 322.792 81.4123 323.084C81.4817 323.229 81.5344 323.382 81.5694 323.54Z"/><path fill="#263238" d="M65.3602 294.547C65.3602 294.63 64.8965 294.824 64.2756 294.974C63.6548 295.123 63.1387 295.176 63.1237 295.086C63.1088 294.996 63.58 294.809 64.2009 294.66C64.8217 294.51 65.3378 294.458 65.3602 294.547Z"/><path fill="#263238" d="M64.4178 288.474C63.9315 288.61 63.4261 288.666 62.9218 288.638C62.4242 288.708 61.9183 288.693 61.4258 288.593C61.8916 288.371 62.4069 288.273 62.9218 288.309C63.4263 288.236 63.9413 288.292 64.4178 288.474Z"/><path fill="#263238" d="M65.4201 282.924C65.3602 282.998 64.874 282.684 64.343 282.228C63.8119 281.772 63.4154 281.345 63.4753 281.278C63.5351 281.211 64.0138 281.517 64.5524 281.974C65.091 282.43 65.4799 282.856 65.4201 282.924Z"/><path fill="#263238" d="M68.1353 277.792C68.2251 277.792 68.1952 278.248 68.1877 278.765C68.1802 279.281 68.1877 279.722 68.0755 279.737C67.9633 279.752 67.8436 279.318 67.8586 278.757C67.8735 278.196 68.068 277.77 68.1353 277.792Z"/><path fill="#263238" d="M73.678 280.208C73.7528 280.261 73.5359 280.702 73.1918 281.188C72.8477 281.674 72.5111 282.033 72.4438 281.981C72.3765 281.929 72.5859 281.495 72.9225 281.001C73.2591 280.508 73.6032 280.156 73.678 280.208Z"/><path fill="#263238" d="M77.2759 286.484C77.2759 286.574 76.8495 286.836 76.2511 287.082C75.6527 287.329 75.1291 287.456 75.0992 287.374C75.0693 287.292 75.5256 287.023 76.124 286.783C76.7224 286.544 77.246 286.379 77.2759 286.484Z"/><path fill="#263238" d="M79.46 292.894C79.0642 293.238 78.5742 293.454 78.0538 293.515C77.5552 293.677 77.0213 293.695 76.5129 293.568C76.9928 293.377 77.4959 293.251 78.0089 293.194C78.4787 293.035 78.966 292.935 79.46 292.894Z"/><path fill="#263238" d="M69.4369 291.069C69.3546 291.069 69.4369 290.598 69.579 290.074C69.7211 289.551 69.9455 289.154 70.0278 289.184C70.1101 289.214 70.0278 289.656 69.8857 290.179C69.7435 290.703 69.564 291.099 69.4369 291.069Z"/><path fill="#263238" d="M70.8356 299.148C70.8659 298.676 71.0041 298.218 71.2395 297.809C71.5462 297.106 71.8604 296.567 71.9426 296.604C71.9124 297.076 71.7742 297.534 71.5387 297.943C71.232 298.646 70.9179 299.2 70.8356 299.148Z"/><path fill="#263238" d="M67.3799 301.362C66.9391 301.351 66.5046 301.255 66.1008 301.078C65.4201 300.861 64.8666 300.666 64.889 300.576C65.3342 300.519 65.7866 300.584 66.198 300.763C66.8937 300.98 67.4173 301.279 67.3799 301.362Z"/><path fill="#263238" d="M69.3695 307.944C69.4219 308.019 69.0404 308.378 68.5243 308.752C68.0082 309.126 67.5294 309.365 67.4771 309.298C67.4247 309.231 67.8062 308.857 68.3298 308.483C68.8534 308.109 69.3172 307.869 69.3695 307.944Z"/><path fill="#263238" d="M70.9702 314.512C70.9702 314.594 70.5214 314.788 69.9156 314.93C69.3097 315.073 68.8085 315.125 68.7861 315.043C68.7636 314.96 69.2349 314.766 69.8408 314.616C70.4466 314.467 70.9478 314.422 70.9702 314.512Z"/><path fill="#263238" d="M79.6396 298.385C79.6845 298.459 79.2805 298.781 78.6971 298.998C78.1136 299.215 77.59 299.245 77.5751 299.163C77.5601 299.08 78.0239 298.908 78.5774 298.691C79.1309 298.474 79.5947 298.302 79.6396 298.385Z"/><path fill="#263238" d="M80.8738 308.595C80.8364 308.677 80.3576 308.535 79.8041 308.273C79.2506 308.011 78.8317 307.735 78.8691 307.652C78.9065 307.57 79.3927 307.72 79.9462 307.974C80.4998 308.228 80.9186 308.513 80.8738 308.595Z"/><path fill="#263238" d="M83.0654 315.91C82.57 315.885 82.0856 315.755 81.6442 315.529C80.8962 315.237 80.3202 314.93 80.3502 314.841C80.8431 314.866 81.325 314.996 81.7639 315.222C82.5119 315.514 83.0953 315.821 83.0654 315.91Z"/><path fill="#263238" d="M71.3218 321.64C71.2769 321.558 71.8604 321.169 72.5336 320.638C73.2068 320.107 73.7304 319.628 73.7977 319.695C73.865 319.763 73.4386 320.338 72.7355 320.892C72.3444 321.27 71.8542 321.529 71.3218 321.64Z"/><path fill="#263238" d="M77.0964 317.9C77.0066 317.9 76.8794 317.421 76.655 316.853C76.4306 316.284 76.2062 315.828 76.281 315.776C76.3558 315.723 76.7298 316.112 76.9617 316.733C77.1936 317.354 77.1861 317.9 77.0964 317.9Z"/><path fill="#263238" d="M75.548 309.126C75.4956 309.201 75.1216 309.021 74.7102 308.73C74.2988 308.438 74.0146 308.139 74.067 308.064C74.1193 307.989 74.4933 308.169 74.9047 308.46C75.3161 308.752 75.6228 309.051 75.548 309.126Z"/><path fill="#263238" d="M89.012 295.348C89.0644 295.423 88.6979 295.782 88.1967 296.148C87.6955 296.515 87.2467 296.762 87.1944 296.687C87.142 296.612 87.5011 296.26 88.0022 295.886C88.5034 295.512 89.012 295.273 89.012 295.348Z"/><path fill="#263238" d="M91.069 300.898C91.069 300.988 90.508 301.107 89.8049 301.033C89.1018 300.958 88.5707 300.718 88.5931 300.636C88.6156 300.554 89.1691 300.636 89.8423 300.703C90.5155 300.771 91.0615 300.808 91.069 300.898Z"/><path fill="#263238" d="M82.3399 302.147C82.3399 302.229 81.8387 302.416 81.1505 302.461C80.4624 302.506 79.9238 302.394 79.9313 302.304C79.9388 302.214 80.4773 302.185 81.1356 302.14C81.7938 302.095 82.3249 302.057 82.3399 302.147Z"/><path fill="#263238" d="M83.0953 296.896C83.0953 296.986 82.5568 297.001 81.9733 296.724C81.3899 296.447 81.0533 296.051 81.1131 295.976C81.173 295.901 81.5769 296.186 82.108 296.425C82.639 296.664 83.1028 296.806 83.0953 296.896Z"/><path fill="#263238" d="M91.817 306.859C91.7721 306.934 91.2261 306.68 90.5978 306.284C89.9694 305.887 89.5057 305.536 89.558 305.431C89.6104 305.326 90.149 305.618 90.7773 306.007C91.4056 306.396 91.8694 306.785 91.817 306.859Z"/><path fill="#FFCF55" d="M113.113 322.433H66.5496V330.683H113.113V322.433Z"/><path fill="#FFCF55" d="M70.0278 329.053L75.6901 353.714H103.441L109.634 329.053H70.0278Z"/><path fill="#263238" d="M113.09 330.698C113.09 330.788 102.618 330.863 89.6328 330.863C76.6476 330.863 66.1756 330.788 66.1756 330.698C66.1756 330.609 76.6476 330.534 89.6328 330.534C102.618 330.534 113.09 330.616 113.09 330.698Z"/><path fill="#263238" d="M87.1944 302.327C87.1196 302.372 86.7979 302.005 86.4838 301.496C86.1696 300.988 85.9751 300.539 86.0499 300.494C86.1247 300.449 86.4464 300.816 86.7605 301.324C87.0747 301.833 87.2692 302.274 87.1944 302.327Z"/><path fill="#263238" d="M87.2093 308.961C87.1869 308.531 87.2717 308.102 87.4562 307.712C87.6731 307.047 87.9274 306.53 88.0097 306.56C88.0327 306.993 87.9479 307.425 87.7628 307.817C87.516 308.475 87.2991 308.991 87.2093 308.961Z"/><path fill="#263238" d="M89.4833 315.933C89.401 315.978 89.0569 315.417 88.7353 314.691C88.4772 314.27 88.3138 313.798 88.2565 313.307C88.3388 313.262 88.6829 313.823 89.0045 314.549C89.2626 314.97 89.426 315.442 89.4833 315.933Z"/><path fill="#263238" d="M84.5689 321.543C84.5016 321.483 84.7783 321.057 85.1897 320.578C85.6011 320.099 85.9826 319.77 86.0574 319.83C86.1322 319.89 85.848 320.324 85.4366 320.795C85.0252 321.266 84.6362 321.64 84.5689 321.543Z"/><path fill="#263238" d="M83.5366 311.362C83.5366 311.452 83.0729 311.445 82.5343 311.362C81.9958 311.28 81.5769 311.123 81.5918 311.033C81.6068 310.944 82.0556 310.951 82.5867 311.033C83.1178 311.116 83.5516 311.273 83.5366 311.362Z"/><path fill="#E0E0E0" d="M245.531 265.719H135.111V353.774H245.531V265.719Z"/><g opacity=".3"><path fill="#000" d="M143.152 265.899C156.152 270.537 170.492 271.531 184.442 271.793C187.337 271.846 190.261 271.838 193.059 272.541C195.856 273.244 198.557 274.838 199.993 277.343C201.556 280.074 201.392 283.492 200.501 286.506C199.611 289.521 198.078 292.311 196.971 295.251C195.011 300.452 194.411 306.067 195.228 311.564C195.48 313.906 196.268 316.159 197.532 318.147C198.172 319.134 199.035 319.959 200.05 320.553C201.066 321.148 202.207 321.497 203.381 321.573C207.577 321.632 210.45 317.511 212.529 313.861C221.064 298.901 230.294 281.921 235.755 265.592L143.152 265.899Z"/></g><path fill="#455A64" d="M172.736 353.303C172.623 353.303 172.541 333.787 172.541 309.717C172.541 285.646 172.623 266.123 172.736 266.123C172.848 266.123 172.93 285.639 172.93 309.717C172.93 333.795 172.84 353.303 172.736 353.303Z"/><path fill="#FFCF55" d="M217.982 200.644C217.653 198.444 211.086 191.189 211.086 191.189C211.086 191.189 207.809 178.017 206.822 174.134C206.493 173.012 206.013 171.94 205.393 170.948C203.071 167.079 199.768 163.893 195.819 161.71L186.731 156.601L184.562 151.769L162.735 140.549L156.818 151.021C156.818 151.021 142.449 155.584 140.549 158.823C138.649 162.062 141.492 205.797 141.492 205.797C141.492 205.797 135.508 231.02 134.214 236.241C132.92 241.462 134.618 247.685 134.618 247.685L145.321 234.259C148.65 230.085 155.951 228.162 161.194 228.237L206.007 228.439L204.204 215.888L240.46 222.904C240.46 222.904 246.69 210.742 247.192 210.502C247.693 210.263 217.982 200.644 217.982 200.644Z"/><path fill="#fff" d="M161.807 155.098C161.493 154.776 164.336 164.388 167.911 174.179C169.835 179.47 170.814 185.058 170.806 190.688V226.143L192.288 224.684L189.079 201.332C189.079 201.332 186.461 186.267 185.728 180.537C185.055 175.301 182.736 161.089 182.736 161.089C182.736 161.089 170.806 164.261 161.807 155.098Z"/><path fill="#263238" d="M209.485 209.44C209.451 209.26 209.451 209.074 209.485 208.894C209.534 208.405 209.629 207.922 209.769 207.45C210.223 205.877 211.067 204.444 212.223 203.284C213.384 202.127 214.816 201.279 216.389 200.816C216.86 200.676 217.343 200.581 217.833 200.531C218.01 200.497 218.193 200.497 218.371 200.531C218.371 200.599 217.623 200.681 216.471 201.077C214.976 201.59 213.618 202.439 212.502 203.558C211.386 204.677 210.54 206.036 210.031 207.533C209.634 208.692 209.552 209.44 209.485 209.44Z"/><path fill="#263238" d="M210.592 200.943C211.59 200.357 212.719 200.03 213.876 199.993C215.021 199.834 216.188 199.973 217.264 200.397C217.264 200.516 215.768 200.225 213.906 200.397C212.043 200.569 210.637 201.055 210.592 200.943Z"/><g opacity=".3"><path fill="#000" d="M139.33 220.293L137.46 222.403C139.41 224.81 142.052 226.559 145.03 227.414C148.03 228.051 151.097 228.327 154.163 228.237C155.405 228.297 156.649 228.179 157.858 227.886C159.077 227.534 160.207 226.846 161.471 226.771C162.319 226.775 163.162 226.896 163.977 227.13C164.797 227.363 165.663 227.376 166.49 227.168C166.899 227.057 167.262 226.818 167.525 226.485C167.787 226.152 167.936 225.744 167.948 225.32C158.623 222.595 149.026 220.909 139.33 220.293Z"/></g><path fill="#FFBE9D" d="M200.666 223.001L195.43 217.406L184.547 214.676C184.547 214.676 174.613 217.668 174.374 217.668C174.134 217.668 165.727 215.364 165.727 215.364L162.787 226.15L177.934 227.19L195.228 226.494C195.228 226.494 196.133 225.657 195.595 225.081C195.056 224.505 198.489 226.053 198.893 226.068C199.297 226.083 200.075 226.397 200.614 225.754C200.98 225.275 201.474 223.861 200.666 223.001Z"/><path fill="#EB996E" d="M195.595 225.043C195.007 224.932 194.431 224.767 193.874 224.55C192.827 224.221 191.368 223.802 189.745 223.353C188.122 222.904 186.626 222.605 185.541 222.418C184.948 222.34 184.364 222.202 183.799 222.006C184.398 221.98 184.998 222.025 185.586 222.141C187.017 222.341 188.435 222.62 189.835 222.979C191.236 223.334 192.615 223.774 193.964 224.295C194.537 224.474 195.085 224.726 195.595 225.043Z"/><path fill="#EB996E" d="M200.666 223.001C199.85 222.795 199.046 222.545 198.257 222.253C196.761 221.76 194.719 221.146 192.423 220.51C190.127 219.875 188.092 219.149 186.544 219.059C185.71 219.016 184.874 219.049 184.045 219.157C184.248 219.045 184.468 218.969 184.696 218.932C185.308 218.8 185.934 218.75 186.559 218.783C188.159 218.783 190.299 219.463 192.543 220.136C194.787 220.81 196.896 221.43 198.362 221.999C199.11 222.276 199.671 222.53 200.075 222.71C200.285 222.777 200.484 222.875 200.666 223.001Z"/><path fill="#FFCF55" d="M140.549 158.823C140.549 158.823 132.733 164.261 130.825 172.085C128.918 179.909 120.682 211.886 122.373 216.666C124.063 221.445 156.93 226.143 156.93 226.143L160.827 209.687L144.132 205.117C144.132 205.117 144.349 189.895 144.558 183.589C144.768 177.283 140.549 158.823 140.549 158.823Z"/><path fill="#fff" d="M160.618 212.163L165.996 213.487L162.757 225.889L157.476 225.043L160.618 212.163Z"/><path fill="#263238" d="M122.253 214.975C122.253 214.975 122.253 215.252 122.335 215.723C122.517 216.447 122.917 217.097 123.48 217.586C124.909 218.917 127.639 220.024 131.094 220.645C132.673 221.169 134.475 221.58 136.398 222.014C138.32 222.448 140.4 222.889 142.584 223.33C146.96 224.228 151.799 225.17 156.93 226.128L156.706 226.27C157.073 224.774 157.454 223.136 157.865 221.498C158.785 217.758 159.683 214.078 160.528 210.614L160.663 210.839L145.86 206.642C143.816 205.782 141.605 205.393 139.39 205.506C137.707 205.599 136.053 205.989 134.505 206.657C133.522 207.083 132.582 207.604 131.7 208.213L131.02 208.707C130.945 208.767 130.865 208.82 130.78 208.864C130.78 208.864 130.848 208.789 130.99 208.67C131.132 208.55 131.349 208.363 131.648 208.138C132.517 207.494 133.452 206.945 134.438 206.5C135.996 205.794 137.668 205.376 139.375 205.266C141.628 205.122 143.885 205.496 145.972 206.358L160.82 210.517L161 210.562L160.955 210.742C160.109 214.205 159.219 217.855 158.307 221.632C157.903 223.263 157.514 224.879 157.14 226.397L157.095 226.577H156.915C151.784 225.612 146.952 224.654 142.576 223.742C140.392 223.285 138.32 222.829 136.39 222.38C134.46 221.932 132.65 221.505 131.065 220.959C127.564 220.293 124.834 219.142 123.39 217.743C122.818 217.228 122.425 216.544 122.268 215.791C122.214 215.522 122.209 215.246 122.253 214.975Z"/><path fill="#263238" d="M145.045 206.231C145 206.283 144.439 205.767 143.436 205.102C140.811 203.344 137.709 202.438 134.55 202.506C133.338 202.506 132.598 202.671 132.583 202.603C133.21 202.376 133.869 202.253 134.535 202.237C137.781 202.002 141.003 202.938 143.616 204.877C144.164 205.247 144.646 205.704 145.045 206.231Z"/><path fill="#263238" d="M147.236 179.453C147.264 179.786 147.264 180.121 147.236 180.455C147.236 181.106 147.169 182.033 147.079 183.185C146.892 185.482 146.556 188.646 145.95 192.116C145.476 195.086 144.784 198.016 143.878 200.883C143.698 201.429 143.504 201.923 143.347 202.379L142.868 203.456C142.728 203.763 142.555 204.054 142.352 204.324C142.446 204.003 142.571 203.692 142.726 203.396C142.853 203.075 142.988 202.708 143.145 202.304C143.302 201.9 143.451 201.377 143.616 200.808C144.434 197.931 145.085 195.009 145.568 192.057C146.167 188.601 146.548 185.452 146.802 183.163C146.915 182.078 147.012 181.173 147.087 180.455C147.096 180.116 147.147 179.78 147.236 179.453Z"/><path fill="#263238" d="M166.295 170.978C166.295 170.978 166.221 170.776 166.041 170.424C165.775 169.926 165.386 169.504 164.912 169.198C164.56 168.957 164.159 168.799 163.738 168.737C163.316 168.675 162.886 168.709 162.481 168.839C161.966 169.015 161.507 169.322 161.147 169.73C160.788 170.138 160.541 170.632 160.431 171.165L160.326 171.696L160.094 171.202C159.22 169.325 158.458 167.396 157.813 165.428C156.67 162.148 156.098 158.698 156.123 155.225C156.123 154.559 156.212 153.961 156.25 153.43C156.287 152.899 156.407 152.457 156.489 152.098C156.568 151.721 156.678 151.351 156.818 150.991C156.563 152.389 156.42 153.805 156.392 155.225C156.453 158.659 157.057 162.062 158.18 165.308C158.825 167.261 159.574 169.179 160.424 171.053L160.087 171.098C160.216 170.509 160.497 169.965 160.903 169.52C161.309 169.075 161.824 168.745 162.398 168.562C162.844 168.427 163.314 168.399 163.772 168.478C164.231 168.557 164.664 168.742 165.039 169.018C165.525 169.36 165.908 169.828 166.146 170.372C166.211 170.515 166.259 170.666 166.288 170.821C166.303 170.918 166.31 170.978 166.295 170.978Z"/><path fill="#263238" d="M184.532 172.661C184.451 172.369 184.394 172.071 184.36 171.771C184.196 170.946 184.143 170.103 184.202 169.265C184.371 167.975 185.013 166.793 186.005 165.951C186.619 165.447 187.387 165.169 188.182 165.166C188.615 165.161 189.044 165.25 189.439 165.427C189.834 165.604 190.186 165.864 190.471 166.191L190.142 166.385L189.431 164.597C188.032 161.074 186.791 157.865 185.908 155.554L184.883 152.794C184.741 152.464 184.633 152.121 184.562 151.769C184.746 152.078 184.901 152.404 185.025 152.742C185.324 153.49 185.706 154.365 186.17 155.457C187.12 157.753 188.414 160.932 189.798 164.433L190.501 166.228L190.957 167.38L190.209 166.415C189.962 166.129 189.655 165.9 189.31 165.745C188.965 165.59 188.59 165.512 188.212 165.517C187.5 165.513 186.808 165.753 186.252 166.198C185.317 166.98 184.694 168.07 184.494 169.272C184.414 170.092 184.429 170.918 184.539 171.733C184.575 172.042 184.572 172.353 184.532 172.661Z"/><path fill="#263238" d="M198.407 174.516C198.512 174.516 200.202 185.871 202.184 199.91C204.167 213.95 205.678 225.342 205.573 225.342C205.468 225.342 203.778 213.988 201.795 199.91C199.813 185.833 198.302 174.531 198.407 174.516Z"/><g opacity=".3"><path fill="#000" d="M158.037 165.547C158.128 168.456 158.76 171.322 159.9 174C160.715 172.99 161.62 171.928 162.892 171.629C164.433 171.262 165.996 172.212 167.111 173.379C166.918 172.212 166.457 171.106 165.764 170.148C165.419 169.676 164.969 169.291 164.45 169.023C163.931 168.754 163.357 168.609 162.772 168.599C162.19 168.613 161.629 168.82 161.178 169.189C160.726 169.557 160.411 170.066 160.281 170.634L158.135 165.6"/></g><path fill="#263238" d="M145.404 173.768C145.336 173.768 145.359 172.982 145.134 171.763C144.827 170.175 144.209 168.662 143.317 167.313C142.814 166.582 142.24 165.903 141.604 165.286C141.076 164.786 140.503 164.338 139.891 163.947C138.836 163.281 138.096 163.027 138.126 162.959C138.309 162.973 138.489 163.018 138.657 163.094C138.866 163.15 139.069 163.228 139.263 163.326C139.521 163.437 139.771 163.567 140.011 163.715C140.661 164.083 141.271 164.519 141.828 165.016C142.499 165.641 143.099 166.339 143.616 167.096C144.543 168.485 145.146 170.065 145.381 171.718C145.456 172.213 145.481 172.714 145.456 173.214C145.456 173.573 145.434 173.768 145.404 173.768Z"/><path fill="#FFBE9D" d="M188.825 120.428C188.398 116.423 186.478 112.725 183.449 110.071C180.419 107.417 176.501 106 172.474 106.104H171.644C162.705 106.852 158.352 114.863 159.354 123.772L161.807 155.113L162.847 156.384C165.181 159.252 168.399 161.267 171.997 162.115C175.596 162.964 179.375 162.598 182.744 161.074L182.056 150.991C182.056 150.991 190.628 149.435 190.508 140.833C190.456 136.66 189.648 128.117 188.825 120.428Z"/><path fill="#EB996E" d="M182.123 150.969C178.132 151.08 174.193 150.041 170.776 147.977C170.776 147.977 173.581 154.103 182.145 153.108L182.123 150.969Z"/><path fill="#263238" d="M186.102 127.504C186.111 127.824 185.996 128.134 185.781 128.371C185.567 128.608 185.269 128.753 184.95 128.776C184.795 128.791 184.637 128.775 184.487 128.729C184.338 128.683 184.198 128.608 184.078 128.508C183.958 128.408 183.858 128.285 183.786 128.146C183.714 128.007 183.67 127.855 183.656 127.699C183.646 127.379 183.76 127.067 183.975 126.83C184.19 126.593 184.489 126.448 184.808 126.427C184.964 126.41 185.122 126.425 185.272 126.471C185.423 126.517 185.562 126.592 185.683 126.692C185.803 126.793 185.903 126.916 185.975 127.056C186.047 127.195 186.09 127.348 186.102 127.504Z"/><path fill="#263238" d="M186.648 122.829C186.551 122.979 185.579 123.083 184.404 123.712C183.23 124.34 182.542 125.125 182.385 125.11C182.228 125.096 182.385 124.894 182.677 124.542C183.124 124.046 183.656 123.633 184.247 123.323C184.812 123.007 185.431 122.802 186.072 122.717C186.514 122.672 186.701 122.754 186.648 122.829Z"/><path fill="#263238" d="M173.686 128.155C173.7 128.476 173.587 128.789 173.371 129.028C173.155 129.266 172.854 129.409 172.534 129.426C172.378 129.443 172.22 129.428 172.07 129.382C171.919 129.337 171.78 129.262 171.659 129.161C171.539 129.061 171.439 128.937 171.367 128.798C171.295 128.658 171.252 128.506 171.24 128.349C171.229 128.029 171.344 127.718 171.558 127.481C171.773 127.243 172.072 127.099 172.392 127.078C172.548 127.061 172.705 127.076 172.856 127.122C173.006 127.167 173.145 127.243 173.266 127.343C173.387 127.443 173.486 127.567 173.558 127.706C173.63 127.846 173.673 127.998 173.686 128.155Z"/><path fill="#263238" d="M173.536 124.632C173.364 124.632 172.564 124.131 171.292 123.816C170.02 123.502 168.966 123.57 168.854 123.465C168.741 123.36 168.988 123.315 169.444 123.278C170.111 123.236 170.78 123.299 171.427 123.465C172.053 123.614 172.65 123.866 173.192 124.213C173.491 124.452 173.581 124.617 173.536 124.632Z"/><path fill="#263238" d="M178.682 134.902C179.375 134.67 180.093 134.522 180.822 134.46C181.158 134.46 181.472 134.341 181.525 134.109C181.546 133.762 181.46 133.417 181.278 133.122L180.208 130.571C178.712 126.951 177.65 123.966 177.8 123.914C177.949 123.861 179.296 126.741 180.739 130.361C181.098 131.259 181.442 132.112 181.764 132.927C181.985 133.328 182.059 133.794 181.973 134.244C181.927 134.364 181.854 134.473 181.759 134.561C181.664 134.649 181.551 134.714 181.427 134.752C181.243 134.81 181.052 134.843 180.859 134.849C180.139 134.96 179.407 134.978 178.682 134.902Z"/><path fill="#263238" d="M173.536 119.53C173.386 119.882 172.077 119.65 170.544 119.755C169.011 119.86 167.709 120.234 167.552 119.897C167.462 119.74 167.702 119.411 168.218 119.089C168.912 118.694 169.688 118.463 170.485 118.414C171.282 118.364 172.08 118.498 172.818 118.805C173.312 119.067 173.581 119.358 173.536 119.53Z"/><path fill="#263238" d="M186.619 119.822C186.327 120.129 185.19 119.822 183.828 119.822C182.467 119.822 181.308 120.054 181.038 119.74C180.919 119.59 181.098 119.284 181.599 118.992C182.291 118.63 183.063 118.452 183.843 118.476C184.63 118.47 185.403 118.671 186.087 119.059C186.581 119.366 186.746 119.68 186.619 119.822Z"/><path fill="#263238" d="M191.331 112.783C191.255 112.391 191.038 112.039 190.722 111.796C190.405 111.552 190.009 111.432 189.611 111.459C190.04 111.337 190.442 111.131 190.792 110.854C190.967 110.713 191.098 110.526 191.17 110.314C191.243 110.103 191.255 109.875 191.204 109.657C190.979 108.991 190.127 108.849 189.453 108.662C188.57 108.405 187.786 107.883 187.209 107.166C186.394 106.134 186.08 104.787 185.369 103.673C184.91 102.953 184.296 102.346 183.571 101.895C182.846 101.445 182.03 101.162 181.182 101.069C180.333 100.976 179.475 101.074 178.669 101.356C177.864 101.638 177.132 102.098 176.528 102.7C175.868 102.022 175.056 101.511 174.158 101.21C173.261 100.908 172.305 100.826 171.369 100.968C170.434 101.111 169.545 101.475 168.779 102.03C168.012 102.585 167.389 103.315 166.961 104.159C165.814 103.68 164.559 103.519 163.327 103.692C162.096 103.865 160.934 104.366 159.963 105.142C158.992 105.918 158.247 106.941 157.807 108.104C157.367 109.267 157.248 110.526 157.461 111.751L162.817 115.035C162.861 114.628 162.99 114.234 163.197 113.881C163.404 113.527 163.683 113.221 164.017 112.984C164.351 112.746 164.731 112.582 165.133 112.502C165.534 112.423 165.949 112.429 166.348 112.522C167.963 112.993 168.996 114.863 170.671 114.99C171.98 115.087 173.095 114.077 174.359 113.741C175.892 113.329 177.515 113.943 178.899 114.721C180.283 115.499 181.607 116.471 183.148 116.86C184.988 117.229 186.899 117.001 188.601 116.209C189.356 115.944 190.046 115.518 190.62 114.96C190.904 114.68 191.116 114.337 191.24 113.958C191.363 113.579 191.395 113.177 191.331 112.783Z"/><path fill="#263238" d="M163.722 112.507L188.257 112.372C187.371 110.723 186.085 109.324 184.517 108.303C181.259 105.922 177.332 104.632 173.297 104.615C169.295 104.615 161.291 109.754 158.471 112.589C156.227 114.833 156.287 116.77 156.287 116.77C156.003 119.957 157.88 123.502 158.681 126.621C159.085 128.222 159.93 133.069 159.93 133.069C161.276 133.032 161.748 131.94 161.508 130.608L161.112 125.372C162.436 124.268 163.363 122.762 163.753 121.082C164.143 119.403 163.975 117.642 163.273 116.067C162.937 115.603 162.129 113.442 163.722 112.507Z"/><path fill="#263238" d="M160.76 125.028C159.511 120.69 158.359 116.052 159.691 111.714H158.943L158.643 111.931C157.952 111.698 157.204 111.692 156.509 111.914C155.813 112.135 155.207 112.572 154.776 113.161C154.346 113.751 154.115 114.462 154.116 115.191C154.118 115.921 154.351 116.631 154.784 117.219C154.054 117.213 153.348 117.473 152.797 117.951C152.246 118.429 151.888 119.092 151.792 119.815C151.794 120.822 152.071 121.81 152.592 122.672C153.114 123.537 153.434 124.508 153.527 125.514C153.558 126.015 153.412 126.511 153.114 126.915C152.816 127.319 152.384 127.604 151.896 127.721C152.133 128.231 152.538 128.645 153.043 128.891C153.549 129.138 154.124 129.203 154.671 129.075C154.322 129.928 153.739 130.664 152.988 131.199C154.589 132.291 156.781 131.947 158.516 131.072C159.593 130.639 160.472 129.824 160.985 128.783C161.463 127.579 161.104 126.255 160.76 125.028Z"/><path fill="#FFBE9D" d="M160.356 130.092C160.207 130.032 154.372 128.499 154.739 134.371C155.105 140.243 160.91 138.694 160.91 138.522C160.91 138.35 160.356 130.092 160.356 130.092Z"/><path fill="#EB996E" d="M159.504 136.39C159.504 136.39 159.406 136.465 159.234 136.555C159.002 136.67 158.734 136.692 158.486 136.615C157.85 136.42 157.274 135.47 157.185 134.408C157.139 133.901 157.208 133.389 157.387 132.912C157.434 132.723 157.527 132.549 157.658 132.404C157.788 132.26 157.952 132.149 158.135 132.082C158.251 132.046 158.376 132.05 158.489 132.095C158.602 132.14 158.696 132.223 158.756 132.329C158.845 132.486 158.808 132.605 158.845 132.62C158.883 132.635 158.965 132.508 158.905 132.269C158.857 132.129 158.768 132.007 158.651 131.917C158.568 131.859 158.474 131.819 158.375 131.798C158.276 131.778 158.174 131.778 158.075 131.798C157.837 131.86 157.618 131.982 157.44 132.152C157.262 132.322 157.131 132.535 157.058 132.77C156.842 133.295 156.752 133.864 156.796 134.431C156.908 135.612 157.544 136.675 158.441 136.884C158.601 136.919 158.766 136.918 158.925 136.882C159.084 136.846 159.233 136.775 159.361 136.675C159.504 136.532 159.526 136.398 159.504 136.39Z"/><path fill="#455A64" d="M154.26 125.223C154.26 125.223 154.095 124.998 154.148 124.535C154.21 124.22 154.341 123.923 154.531 123.664C154.721 123.406 154.966 123.192 155.247 123.039C156.09 122.637 157.007 122.416 157.94 122.388C158.462 122.388 158.977 122.265 159.442 122.028C159.908 121.791 160.31 121.448 160.618 121.026C161.107 120.075 161.27 118.99 161.082 117.937C160.94 116.95 160.678 116.06 160.551 115.289C160.314 114.464 160.327 113.587 160.588 112.768C160.593 113.594 160.686 114.416 160.865 115.222C161.029 115.97 161.321 116.845 161.501 117.885C161.727 119.035 161.552 120.228 161.007 121.266C160.683 121.802 160.191 122.217 159.608 122.448C159.086 122.641 158.54 122.762 157.985 122.807C157.1 122.812 156.225 122.984 155.404 123.315C155.148 123.447 154.919 123.629 154.733 123.85C154.547 124.071 154.407 124.326 154.32 124.602C154.286 124.807 154.266 125.015 154.26 125.223Z"/><path fill="#455A64" d="M152.839 122.672C152.839 122.672 152.712 122.507 152.659 122.141C152.599 121.624 152.701 121.101 152.951 120.645C153.123 120.321 153.36 120.036 153.647 119.807C153.982 119.555 154.367 119.377 154.776 119.284C155.173 119.199 155.551 119.041 155.891 118.82C156.041 118.685 156.159 118.519 156.235 118.332C156.312 118.145 156.345 117.944 156.332 117.743C156.332 117.301 156.28 116.83 156.295 116.359C156.301 115.909 156.351 115.46 156.444 115.02C156.595 114.276 156.882 113.566 157.289 112.926C157.419 112.691 157.605 112.492 157.831 112.347C158.057 112.202 158.316 112.115 158.583 112.095C158.972 112.095 159.137 112.275 159.122 112.29C159.107 112.305 158.928 112.222 158.598 112.29C158.374 112.338 158.163 112.437 157.982 112.58C157.802 112.722 157.657 112.905 157.559 113.113C157.221 113.74 156.984 114.416 156.856 115.117C156.783 115.532 156.746 115.953 156.743 116.374C156.743 116.808 156.811 117.271 156.788 117.78C156.799 118.046 156.749 118.312 156.641 118.555C156.534 118.799 156.372 119.015 156.167 119.186C155.781 119.445 155.346 119.621 154.888 119.702C154.548 119.761 154.223 119.891 153.937 120.084C153.651 120.278 153.409 120.53 153.228 120.824C152.92 121.389 152.785 122.031 152.839 122.672Z"/><path fill="#455A64" d="M187.217 107.166C187.254 107.166 186.776 107.488 186.005 107.129C185.571 106.893 185.192 106.57 184.891 106.179C184.52 105.692 184.057 105.283 183.529 104.974C182.842 104.588 182.058 104.41 181.272 104.462C180.486 104.514 179.731 104.793 179.101 105.266C178.353 105.79 177.732 106.53 176.857 107.144C176.412 107.474 175.902 107.706 175.361 107.824C174.801 107.922 174.225 107.868 173.693 107.667C172.631 107.286 171.793 106.635 170.881 106.306C170 105.968 169.064 105.798 168.12 105.805C166.496 105.803 164.916 106.342 163.632 107.338C162.775 108.008 162.062 108.845 161.538 109.799C161.172 110.48 161.037 110.898 161 110.884C160.962 110.869 161 110.771 161.059 110.569C161.144 110.278 161.249 109.993 161.374 109.717C161.857 108.698 162.559 107.799 163.431 107.084C164.743 106.011 166.38 105.412 168.076 105.386C169.074 105.36 170.068 105.53 171 105.887C171.988 106.246 172.84 106.897 173.805 107.233C174.262 107.409 174.759 107.458 175.241 107.375C175.71 107.268 176.15 107.064 176.535 106.777C177.321 106.216 177.979 105.475 178.779 104.922C179.519 104.368 180.421 104.071 181.345 104.077C182.134 104.082 182.907 104.294 183.589 104.69C184.135 105.038 184.61 105.488 184.988 106.014C185.25 106.398 185.589 106.724 185.983 106.971C186.354 107.192 186.796 107.262 187.217 107.166Z"/><path fill="#263238" d="M175.421 136.443C175.608 136.443 175.817 137.654 177.044 138.365C178.271 139.076 179.58 138.717 179.625 138.889C179.67 139.061 179.363 139.188 178.802 139.293C178.069 139.429 177.311 139.302 176.663 138.934C176.041 138.574 175.581 137.991 175.376 137.303C175.241 136.787 175.331 136.45 175.421 136.443Z"/><path fill="#FFCF55" d="M252.824 253.318C250.547 251.361 247.592 250.378 244.596 250.58L239.54 266.64C243.242 266.804 246.937 268.712 250.513 267.732C251.941 267.291 253.213 266.452 254.179 265.312C255.145 264.172 255.765 262.78 255.966 261.299C256.121 259.814 255.917 258.314 255.37 256.924C254.823 255.535 253.95 254.298 252.824 253.318Z"/><path fill="#F5F5F5" d="M244.656 250.213C244.656 250.086 245.202 249.982 246.152 249.989C247.565 250.015 248.964 250.28 250.288 250.774C252.312 251.563 254.063 252.922 255.33 254.686C256.104 255.733 256.674 256.915 257.013 258.172C257.379 259.548 257.42 260.989 257.132 262.383C256.854 263.796 256.224 265.116 255.3 266.221C254.415 267.227 253.295 267.998 252.039 268.465C249.998 269.186 247.797 269.329 245.681 268.876C244.318 268.609 242.989 268.195 241.716 267.642C240.826 267.26 240.355 266.976 240.4 266.849C240.445 266.722 240.983 266.759 241.896 266.916C242.808 267.073 244.192 267.365 245.838 267.515C247.704 267.722 249.592 267.465 251.335 266.767C252.291 266.363 253.137 265.737 253.804 264.942C254.503 264.071 254.98 263.045 255.195 261.95C255.401 260.864 255.385 259.748 255.15 258.669C254.915 257.589 254.465 256.568 253.826 255.666C252.796 254.105 251.378 252.837 249.712 251.986C248.532 251.429 247.296 250.998 246.025 250.7C245.164 250.505 244.641 250.348 244.656 250.213Z"/><path fill="#FFCF55" d="M197.809 310.465L186.813 341.275L225.073 355.15C226.18 351.41 209.044 336.899 209.044 336.899L216.898 317.451L197.809 310.465Z"/><g opacity=".6"><path fill="#fff" d="M197.816 330.953C197.407 330.931 197.005 331.061 196.686 331.317C196.367 331.574 196.154 331.94 196.088 332.344C196.051 332.75 196.172 333.156 196.426 333.476C196.679 333.796 197.045 334.007 197.45 334.064C197.886 334.087 198.314 333.947 198.652 333.67C198.99 333.393 199.212 333 199.275 332.568C199.275 331.753 198.467 330.818 197.659 330.93"/></g><path fill="#fff" d="M186.813 341.275L187.928 338.171L224.265 352.667C224.265 352.667 225.702 354.021 225.073 355.15L186.813 341.275Z"/><path fill="#263238" d="M209.739 336.929C209.664 337.116 208.699 336.862 207.563 337.131C206.426 337.4 205.648 338.006 205.506 337.879C205.363 337.752 206.029 336.765 207.413 336.465C208.797 336.166 209.836 336.772 209.739 336.929Z"/><path fill="#263238" d="M213.18 340.048C213.18 340.243 212.23 340.265 211.31 340.796C210.39 341.327 209.904 342.128 209.717 342.053C209.53 341.978 209.799 340.879 210.958 340.198C212.118 339.517 213.18 339.869 213.18 340.048Z"/><path fill="#263238" d="M213.681 345.673C213.502 345.673 213.576 344.626 214.429 343.773C215.282 342.921 216.299 342.838 216.322 343.025C216.344 343.212 215.611 343.556 214.923 344.267C214.235 344.978 213.876 345.726 213.681 345.673Z"/><path fill="#263238" d="M211.033 332.299C210.891 332.441 210.128 331.873 209.051 331.551C207.974 331.229 207.024 331.274 206.987 331.08C206.949 330.885 207.974 330.504 209.231 330.893C210.487 331.282 211.183 332.187 211.033 332.299Z"/><path fill="#263238" d="M211.766 327.43C211.079 327.369 210.421 327.126 209.859 326.726C209.211 326.355 208.612 325.903 208.079 325.38C207.759 325.075 207.462 324.747 207.189 324.4C207.016 324.203 206.875 323.981 206.77 323.742C206.695 323.565 206.681 323.368 206.731 323.182C206.781 322.996 206.892 322.832 207.046 322.717C207.187 322.621 207.348 322.559 207.517 322.535C207.686 322.512 207.857 322.528 208.019 322.583C208.261 322.67 208.491 322.79 208.699 322.942C209.073 323.191 209.424 323.474 209.747 323.787C210.287 324.311 210.742 324.916 211.093 325.582C211.477 326.165 211.673 326.851 211.654 327.549C211.549 327.549 211.325 326.839 210.674 325.829C210.288 325.248 209.831 324.718 209.313 324.251C209.006 323.976 208.679 323.726 208.333 323.503C207.966 323.248 207.622 323.121 207.458 323.263C207.293 323.405 207.376 323.345 207.42 323.495C207.498 323.671 207.602 323.835 207.727 323.981C207.972 324.313 208.24 324.628 208.527 324.924C209.013 325.435 209.546 325.899 210.121 326.308C211.108 327.018 211.811 327.332 211.766 327.43Z"/><path fill="#263238" d="M211.43 327.624C211.268 326.946 211.325 326.233 211.594 325.589C211.821 324.868 212.167 324.191 212.619 323.585C212.89 323.229 213.193 322.898 213.524 322.597C213.721 322.383 213.969 322.223 214.245 322.131C214.522 322.04 214.816 322.02 215.102 322.074C215.271 322.141 215.418 322.255 215.525 322.402C215.632 322.548 215.696 322.723 215.708 322.904C215.722 323.155 215.702 323.407 215.648 323.652C215.531 324.259 215.293 324.837 214.948 325.351C214.604 325.864 214.161 326.304 213.644 326.644C212.537 327.392 211.677 327.302 211.684 327.235C211.691 327.168 212.432 326.996 213.36 326.248C213.887 325.818 214.316 325.28 214.616 324.669C214.791 324.314 214.914 323.937 214.983 323.547C215.072 323.121 215.035 322.732 214.87 322.725C214.702 322.718 214.534 322.749 214.379 322.815C214.224 322.881 214.085 322.98 213.973 323.106C213.663 323.369 213.377 323.659 213.12 323.974C212.682 324.51 212.324 325.107 212.058 325.747C211.594 326.876 211.542 327.624 211.43 327.624Z"/><path fill="#263238" d="M160.745 228.185C154.941 228.32 149.435 229.135 145.434 233.346C140.13 238.934 133.578 246.885 133.204 252.398C132.65 260.626 137.625 263.094 141.252 265.114C142.857 265.982 144.665 266.403 146.488 266.333L213.569 265.824L215.671 254.462L172.287 243.766L174.09 227.437L160.745 228.185Z"/><path fill="#263238" d="M174.127 227.429L195.228 226.457C195.228 226.457 231.686 228.484 239.457 235.613C247.229 242.741 246.264 250.842 243.668 258.614C241.073 266.385 218.236 316.12 218.236 316.12C218.236 316.12 220.092 319.284 219.052 322.44C218.631 323.823 217.858 325.072 216.809 326.066C215.76 327.06 214.471 327.765 213.068 328.11L192.782 320.63C192.782 320.63 190.029 319.658 191.974 317.062C193.919 314.467 195.213 313.988 195.213 313.988V308.804C195.213 308.804 202.341 295.842 202.985 294.061C203.628 292.281 210.465 265.907 210.465 265.907L215.005 258.105C215.005 258.105 204.032 252.944 194.517 249.204L172.302 243.728L174.127 227.429Z"/><path fill="#455A64" d="M208.355 319.718C207.742 319.361 207.147 318.971 206.575 318.551C203.709 316.694 200.481 315.468 197.105 314.953C196.397 314.884 195.693 314.779 194.996 314.639C195.708 314.556 196.427 314.569 197.135 314.676C200.595 315.046 203.901 316.303 206.732 318.326C207.332 318.717 207.878 319.185 208.355 319.718Z"/><path fill="#455A64" d="M218.491 316.157C218.048 315.795 217.654 315.377 217.316 314.915C216.628 314.115 215.716 312.978 214.766 311.677C213.816 310.375 212.993 309.171 212.432 308.281C212.098 307.815 211.817 307.313 211.594 306.785C211.996 307.191 212.352 307.64 212.656 308.124L215.08 311.445C215.985 312.671 216.815 313.779 217.533 314.743C217.903 315.178 218.224 315.653 218.491 316.157Z"/><path fill="#455A64" d="M225.896 251.014C225.896 251.074 225.148 251.238 223.974 251.627C220.898 252.642 218.112 254.381 215.85 256.699C215.409 257.208 214.942 257.695 214.452 258.157C214.768 257.553 215.171 256.999 215.648 256.512C216.737 255.283 217.996 254.217 219.388 253.348C220.78 252.472 222.292 251.804 223.876 251.365C224.528 251.147 225.209 251.028 225.896 251.014Z"/><path fill="#455A64" d="M205.176 286.23C205.185 286.08 205.213 285.931 205.259 285.788L205.573 284.554L206.785 280.029L210.936 265.136C211.781 262.226 212.499 259.459 213.315 256.945C214.175 254.761 215.477 252.778 217.137 251.119C218.233 249.994 219.447 248.991 220.757 248.127C221.228 247.827 221.595 247.603 221.857 247.468C221.982 247.389 222.115 247.321 222.253 247.266C222.253 247.266 221.745 247.61 220.847 248.246C219.58 249.151 218.403 250.175 217.331 251.306C215.73 252.958 214.478 254.917 213.651 257.065C212.903 259.541 212.155 262.346 211.31 265.241L207.054 280.096C206.5 281.959 206.044 283.477 205.715 284.584C205.558 285.078 205.438 285.482 205.333 285.796C205.301 285.947 205.248 286.093 205.176 286.23Z"/><path fill="#455A64" d="M186.514 248.239C186.402 248.239 185.96 244.304 185.519 239.427C185.078 234.55 184.771 230.586 184.921 230.579C185.07 230.571 185.467 234.513 185.908 239.39C186.349 244.267 186.619 248.231 186.514 248.239Z"/><path fill="#455A64" d="M151.388 258.808C151.328 258.808 151.006 258.202 150.341 257.267C149.481 256.051 148.451 254.965 147.281 254.043C146.103 253.133 144.8 252.395 143.414 251.852C142.344 251.433 141.649 251.276 141.664 251.208C142.293 251.238 142.914 251.367 143.504 251.59C146.429 252.554 148.928 254.506 150.572 257.11C150.936 257.627 151.211 258.201 151.388 258.808Z"/><path fill="#455A64" d="M164.313 244.446C164.313 244.506 163.386 243.938 161.837 243.227C157.775 241.382 153.269 240.738 148.852 241.372C147.169 241.612 146.144 241.911 146.129 241.843C146.347 241.72 146.581 241.63 146.825 241.574C147.475 241.373 148.137 241.213 148.807 241.095C153.274 240.311 157.875 240.972 161.942 242.98C162.552 243.281 163.141 243.621 163.707 243.998C163.929 244.118 164.133 244.269 164.313 244.446Z"/><path fill="#455A64" d="M214.848 254.44C214.668 254.431 214.49 254.401 214.317 254.35L212.821 254.028L207.361 252.824C202.745 251.792 196.357 250.4 189.274 249.002C182.19 247.603 175.758 246.444 171.098 245.643L165.57 244.693L164.074 244.431C163.897 244.411 163.724 244.368 163.558 244.304C163.735 244.309 163.913 244.324 164.089 244.349L165.585 244.544C166.894 244.723 168.786 245.007 171.127 245.374C175.802 246.122 182.25 247.214 189.341 248.62C196.432 250.026 202.805 251.455 207.413 252.555C209.709 253.108 211.572 253.572 212.851 253.909L214.347 254.298C214.518 254.33 214.686 254.377 214.848 254.44Z"/><path fill="#455A64" d="M172.324 245.681C172.249 245.681 172.092 244.798 171.397 243.541C170.99 242.816 170.486 242.149 169.901 241.559C169.162 240.832 168.377 240.152 167.552 239.525C166.031 238.401 164.423 237.4 162.742 236.533C162.031 236.194 161.346 235.804 160.693 235.366C161.446 235.604 162.174 235.912 162.87 236.286C164.605 237.091 166.255 238.071 167.791 239.21C168.628 239.849 169.418 240.546 170.155 241.297C170.756 241.919 171.26 242.628 171.651 243.399C171.92 243.921 172.123 244.473 172.257 245.045C172.319 245.251 172.341 245.466 172.324 245.681Z"/><path fill="#263238" d="M247.042 255.816C247.124 255.906 246.002 257.035 245.127 258.763C244.252 260.491 243.968 262.047 243.855 262.024C243.853 260.815 244.173 259.628 244.783 258.584C245.279 257.478 246.058 256.523 247.042 255.816Z"/><g opacity=".3"><path fill="#000" d="M199.028 179.176L203.83 213L204.069 213.539C205.196 201.845 203.465 190.053 199.028 179.176Z"/></g><path fill="#E0E0E0" d="M224.886 198.609L209.275 225.896L170.806 226.734L170.709 228.477L207.959 228.2L209.141 228.155L248.471 228.237L256.422 214.526L266.58 199.97C266.727 199.754 266.812 199.502 266.826 199.241C266.841 198.981 266.784 198.721 266.661 198.49C266.539 198.259 266.356 198.066 266.132 197.931C265.908 197.797 265.652 197.726 265.39 197.726L226.128 197.876C225.875 197.878 225.626 197.947 225.408 198.075C225.19 198.204 225.01 198.388 224.886 198.609Z"/><path fill="#FFBE9D" d="M256.422 214.549C256.422 214.549 258.441 216.404 258.127 217.975C257.813 219.545 257.91 220.72 256.422 220.825C256.45 221.399 256.256 221.963 255.88 222.399C255.504 222.834 254.975 223.109 254.402 223.166C254.402 223.166 254.859 225.634 251.986 226.061C251.986 226.061 251.104 228.701 249.293 228.058C248.25 227.703 247.247 227.239 246.301 226.674L245.77 225.716C245.77 225.716 243.1 224.714 243.758 223.211C244.162 222.298 245.538 222.059 245.538 222.059C245.38 221.684 245.313 221.277 245.343 220.871C245.373 220.465 245.499 220.072 245.711 219.725C246.346 218.865 248.426 219.575 248.426 219.575C248.383 218.839 248.618 218.113 249.084 217.541C249.832 216.696 253.108 218.977 253.108 218.977L254.911 216.823L256.422 214.549Z"/><path fill="#EB996E" d="M251.986 226.061C250.82 225.564 249.707 224.95 248.665 224.228C247.555 223.615 246.512 222.888 245.553 222.059C246.719 222.56 247.831 223.177 248.875 223.899C249.982 224.513 251.024 225.237 251.986 226.061Z"/><path fill="#EB996E" d="M254.402 223.166C253.317 222.739 252.284 222.192 251.321 221.535C250.291 220.99 249.326 220.333 248.441 219.575C249.527 219.998 250.562 220.545 251.522 221.206C252.552 221.751 253.517 222.409 254.402 223.166Z"/><path fill="#EB996E" d="M251.111 217.75C251.171 217.638 252.405 218.289 253.841 219.201C254.731 219.715 255.588 220.285 256.407 220.907C256.355 221.034 255.068 220.451 253.632 219.53C252.731 219.027 251.886 218.431 251.111 217.75Z"/><path fill="#263238" d="M266.58 198.774C266.518 198.783 266.455 198.783 266.393 198.774H265.839H263.715L255.906 198.833L230.137 198.893H228.26C227.983 198.867 227.704 198.915 227.453 199.034C227.202 199.152 226.987 199.336 226.831 199.566C226.233 200.634 225.649 201.686 225.081 202.723L221.76 208.707L216.127 218.827C214.526 221.685 213.217 224.004 212.297 225.642C211.856 226.39 211.497 227.033 211.243 227.482L210.958 227.953L210.854 228.11C210.854 228.11 210.854 228.043 210.921 227.931L211.175 227.437L212.17 225.567L215.91 218.693L221.475 208.527C222.523 206.62 223.63 204.615 224.767 202.543L226.524 199.364C226.716 199.08 226.98 198.851 227.288 198.701C227.597 198.552 227.94 198.486 228.282 198.512H230.16L255.928 198.564L263.737 198.631L265.862 198.669H266.415C266.475 198.694 266.531 198.73 266.58 198.774Z"/><path fill="#fff" d="M238.904 212.499C238.722 212.762 238.62 213.072 238.61 213.391C238.6 213.71 238.683 214.026 238.847 214.299C239.012 214.573 239.252 214.793 239.539 214.934C239.826 215.075 240.147 215.13 240.464 215.092C240.782 215.055 241.081 214.927 241.328 214.723C241.574 214.52 241.756 214.25 241.853 213.945C241.949 213.641 241.956 213.315 241.872 213.007C241.788 212.699 241.617 212.421 241.38 212.208C241.012 211.921 240.545 211.79 240.082 211.845C239.618 211.899 239.195 212.135 238.904 212.499Z"/><g opacity=".3"><path fill="#000" d="M129.696 201.96C129.367 202.095 128.985 202.319 128.985 202.708C128.997 202.853 129.057 202.989 129.157 203.095C129.256 203.201 129.388 203.27 129.531 203.291C130.08 203.214 130.617 203.071 131.132 202.865C135.179 201.975 138.507 202.828 142.352 204.361L142.479 204.234C140.953 200.92 134.049 200.187 129.696 201.96Z"/></g><path fill="#263238" d="M338.096 353.804C338.096 353.909 270.439 353.998 187 353.998C103.561 353.998 35.904 353.879 35.904 353.804C35.904 353.729 103.546 353.609 187 353.609C270.454 353.609 338.096 353.662 338.096 353.804Z"/><path fill="#455A64" d="M108.774 115.349C108.901 115.476 133.742 106.942 133.742 106.942L124.168 85.0251L102.08 93.5L114.242 100.486L108.774 115.349Z"/><path fill="#455A64" d="M120.428 91.6225V61.7848C120.428 61.7848 154.694 55.5165 179.385 55.8905C204.077 56.2645 229.501 60.3112 229.501 60.3112V88.9596C229.501 88.9596 152.113 82.0481 120.428 91.6225Z"/><path fill="#263238" d="M120.248 91.6524L133.712 107.069V88.9596C133.712 88.9596 122.455 90.306 120.248 91.6524Z"/><path fill="#263238" d="M120.428 61.7773C120.54 61.7773 120.585 68.5093 120.54 76.7373C120.495 84.9653 120.361 91.6973 120.256 91.6973C120.151 91.6973 120.099 85.0102 120.144 76.7373C120.189 68.4644 120.316 61.7773 120.428 61.7773Z"/><path fill="#455A64" d="M241.095 113.06C240.968 113.187 216.127 104.653 216.127 104.653L225.679 82.7288L247.79 91.1887L235.62 98.175L241.095 113.06Z"/><path fill="#263238" d="M229.636 89.3635L216.172 104.78V87.9797C220.686 88.1343 225.185 88.5966 229.636 89.3635Z"/><path fill="#263238" d="M229.486 60.3112C229.591 60.3112 229.711 66.8113 229.748 74.8374C229.786 82.8634 229.748 89.3635 229.621 89.3635C229.494 89.3635 229.397 82.8634 229.359 74.8374C229.322 66.8113 229.374 60.3112 229.486 60.3112Z"/><path fill="#fff" d="M139.749 74.8673C139.678 74.0083 139.862 73.1475 140.278 72.3926C140.694 71.6378 141.324 71.0223 142.088 70.6231C142.852 70.224 143.716 70.059 144.573 70.1486C145.431 70.2383 146.242 70.5787 146.907 71.1273L145.86 72.3839C145.578 72.1267 145.243 71.9349 144.878 71.8224C144.514 71.7099 144.128 71.6794 143.751 71.7332C143.08 71.8264 142.474 72.1822 142.066 72.7223C141.658 73.2623 141.481 73.9424 141.574 74.613C141.667 75.2835 142.023 75.8895 142.563 76.2977C143.103 76.7059 143.783 76.8829 144.454 76.7897C144.834 76.7397 145.198 76.6048 145.519 76.395C145.84 76.1853 146.11 75.906 146.309 75.5779L147.625 76.4979C147.138 77.2075 146.451 77.7574 145.652 78.0788C144.854 78.4002 143.978 78.4787 143.135 78.3047C142.291 78.1306 141.518 77.7116 140.912 77.1001C140.306 76.4887 139.893 75.712 139.726 74.8673H139.749Z"/><path fill="#fff" d="M147.91 73.7453C147.77 72.8817 147.893 71.9962 148.263 71.2035C148.633 70.4107 149.232 69.7472 149.983 69.2989C150.734 68.8506 151.603 68.6381 152.476 68.689C153.349 68.7399 154.187 69.0518 154.881 69.5843C155.575 70.1168 156.093 70.8453 156.369 71.6757C156.644 72.506 156.663 73.3998 156.425 74.2414C156.186 75.083 155.7 75.8335 155.03 76.3959C154.36 76.9583 153.537 77.3065 152.667 77.3956C152.113 77.484 151.546 77.4585 151.002 77.3207C150.458 77.1828 149.948 76.9356 149.503 76.5939C149.058 76.2523 148.687 75.8235 148.413 75.3337C148.139 74.844 147.968 74.3035 147.91 73.7453ZM154.724 73.0422C154.663 72.5569 154.461 72.1002 154.142 71.7291C153.823 71.358 153.402 71.089 152.932 70.9555C152.461 70.822 151.962 70.8301 151.496 70.9786C151.03 71.1271 150.618 71.4096 150.311 71.7907C150.005 72.1719 149.817 72.6348 149.772 73.1219C149.727 73.6089 149.826 74.0985 150.057 74.5295C150.289 74.9605 150.642 75.3138 151.072 75.5455C151.503 75.7772 151.993 75.8769 152.48 75.8322C152.816 75.8101 153.143 75.7186 153.442 75.5633C153.741 75.408 154.004 75.1923 154.215 74.9301C154.426 74.6678 154.58 74.3646 154.667 74.0396C154.755 73.7146 154.774 73.375 154.724 73.0422Z"/><path fill="#fff" d="M165.54 76.2361L165.218 71.4639L163.131 75.548L162.309 75.6003L159.728 71.9202L160.035 76.5877L158.307 76.6999L157.828 68.7487L159.324 68.6514L162.615 73.4012L165.226 68.2774L166.722 68.1802L167.26 76.1239L165.54 76.2361Z"/><path fill="#fff" d="M175.84 70.7907C175.885 72.5709 174.583 73.7079 172.459 73.7827L170.851 73.8276L170.918 76.0267L169.07 76.0791L168.846 68.068L172.294 67.9707C174.426 67.9408 175.78 69.0105 175.84 70.7907ZM173.97 70.8431C173.97 69.9679 173.364 69.4742 172.234 69.5041L170.738 69.549L170.821 72.3166L172.317 72.2717C173.439 72.2418 173.992 71.7107 173.97 70.8431Z"/><path fill="#fff" d="M177.276 67.8959H179.116V74.3587H183.11V75.8547H177.276V67.8959Z"/><path fill="#fff" d="M190.254 74.5905V76.0865L184.083 75.907L184.315 67.9408L190.299 68.1203L190.254 69.6163L186.065 69.4892L186.02 71.2245L189.715 71.3293L189.67 72.7654L185.975 72.6532L185.923 74.5008L190.254 74.5905Z"/><path fill="#fff" d="M193.665 69.7884L191.121 69.6388L191.211 68.1428L198.138 68.5617L198.048 70.0577L195.505 69.9006L195.116 76.3558L193.276 76.2436L193.665 69.7884Z"/><path fill="#fff" d="M204.847 75.6826L204.713 77.1786L198.564 76.6101L199.312 68.6813L205.296 69.2349L205.161 70.7309L200.988 70.312L200.831 72.0399L204.511 72.3765L204.384 73.8051L200.696 73.4685L200.531 75.3011L204.847 75.6826Z"/><path fill="#fff" d="M207.151 69.4069L210.734 69.8856C213.315 70.2297 214.878 72.0174 214.564 74.3736C214.25 76.7298 212.26 78.1136 209.679 77.7396L206.096 77.2609L207.151 69.4069ZM209.792 76.266C210.117 76.3183 210.45 76.3048 210.77 76.2263C211.09 76.1479 211.392 76.006 211.656 75.8092C211.921 75.6123 212.143 75.3645 212.31 75.0803C212.478 74.796 212.586 74.4812 212.63 74.1543C212.673 73.8275 212.651 73.4952 212.564 73.1772C212.476 72.8591 212.327 72.5618 212.123 72.3026C211.919 72.0434 211.665 71.8278 211.376 71.6683C211.088 71.5088 210.77 71.4088 210.442 71.3741L208.774 71.1497L208.124 76.0417L209.792 76.266Z"/><path fill="#455A64" d="M244.813 63.0265L246.773 65.3228L252.293 63.0265L250.677 60.6104L244.813 63.0265Z"/><path fill="#FFCF55" d="M242.285 52.0982C242.285 52.6663 242.116 53.2216 241.801 53.694C241.485 54.1663 241.036 54.5345 240.512 54.7519C239.987 54.9693 239.409 55.0262 238.852 54.9153C238.295 54.8045 237.783 54.5309 237.381 54.1292C236.98 53.7275 236.706 53.2158 236.595 52.6586C236.484 52.1014 236.541 51.5239 236.759 50.999C236.976 50.4742 237.344 50.0256 237.817 49.71C238.289 49.3943 238.844 49.2259 239.412 49.2259C240.174 49.2279 240.903 49.5311 241.441 50.0694C241.979 50.6076 242.283 51.337 242.285 52.0982Z"/><path fill="#FFCF55" d="M177.942 94.9437C177.94 95.2283 177.854 95.5061 177.694 95.7418C177.535 95.9774 177.309 96.1603 177.045 96.2672C176.781 96.374 176.491 96.4 176.212 96.3419C175.934 96.2838 175.679 96.1442 175.479 95.9408C175.28 95.7374 175.146 95.4795 175.094 95.1996C175.042 94.9198 175.074 94.6307 175.186 94.3692C175.298 94.1076 175.486 93.8853 175.725 93.7306C175.964 93.5758 176.243 93.4956 176.528 93.5C176.906 93.5059 177.267 93.6609 177.532 93.9312C177.796 94.2015 177.944 94.5653 177.942 94.9437Z"/><path fill="#FFCF55" d="M111.033 73.3564C111.033 73.573 110.969 73.7847 110.848 73.9646C110.727 74.1445 110.556 74.2845 110.355 74.3667C110.155 74.4489 109.935 74.4696 109.722 74.4262C109.51 74.3829 109.316 74.2774 109.164 74.1231C109.011 73.9689 108.909 73.7729 108.868 73.5601C108.828 73.3473 108.852 73.1273 108.936 72.928C109.021 72.7287 109.164 72.5592 109.345 72.441C109.527 72.3228 109.739 72.2613 109.956 72.2643C110.243 72.2682 110.517 72.385 110.719 72.5894C110.92 72.7938 111.033 73.0693 111.033 73.3564Z"/><path fill="#455A64" d="M106.979 61.336L110.195 61.5305L111.721 55.2024L108.714 55.3296L106.979 61.336Z"/><path fill="#FFCF55" d="M207.51 111.848L208.595 114.885L215.013 113.808L213.719 111.093L207.51 111.848Z"/><path fill="#455A64" d="M142.599 94.3228L140.617 96.866L144.962 101.706L146.563 99.1549L142.599 94.3228Z"/><path fill="#FFCF55" d="M134.917 34.58L142.509 42.3218L153.198 38.2826L153.624 40.938L148.994 50.4152L153.265 57.4913L152.906 59.6081L142.561 57.8653L136.443 64.5749L135.007 63.4902L133.742 54.9556L124.093 49.929L123.667 47.9767L133.383 45.3213L134.917 34.58Z"/><g opacity=".3"><path fill="#000" d="M134.917 34.58L142.509 42.3218L153.198 38.2826L153.624 40.938L148.994 50.4152L153.265 57.4913L152.906 59.6081L142.561 57.8653L136.443 64.5749L135.007 63.4902L133.742 54.9556L124.093 49.929L123.667 47.9767L133.383 45.3213L134.917 34.58Z"/></g><path fill="#FFCF55" d="M134.917 32.4034L142.509 40.1527L153.198 38.2827L148.179 47.9019L153.265 57.4913L142.561 55.6961L135.007 63.4903L133.413 52.7565L123.667 47.9767L133.383 43.1447L134.917 32.4034Z"/><path fill="#FFCF55" d="M213.644 34.58L206.044 42.3218L195.355 38.2826L194.929 40.938L199.559 50.4152L195.288 57.4913L195.647 59.6081L205.992 57.8653L212.11 64.5749L213.547 63.4902L214.811 54.9556L224.46 49.929L224.886 47.9767L215.17 45.3213L213.644 34.58Z"/><g opacity=".3"><path fill="#000" d="M213.644 34.58L206.044 42.3218L195.355 38.2826L194.929 40.938L199.559 50.4152L195.288 57.4913L195.647 59.6081L205.992 57.8653L212.11 64.5749L213.547 63.4902L214.811 54.9556L224.46 49.929L224.886 47.9767L215.17 45.3213L213.644 34.58Z"/></g><path fill="#FFCF55" d="M213.644 32.4034L206.044 40.1527L195.355 38.2827L200.374 47.9019L195.288 57.4913L205.992 55.6961L213.547 63.4903L215.14 52.7565L224.886 47.9767L215.17 43.1447L213.644 32.4034Z"/><path fill="#FFCF55" d="M174.03 20.9889L180.35 33.3384L194.929 32.4782L194.435 35.8741L185.175 45.6804L187.681 55.9355L186.446 58.3814L174.486 52.3151L164.47 58.1795L163.131 56.302L164.837 45.4036L154.978 35.5973L155.203 33.0616L168.068 33.5179L174.03 20.9889Z"/><g opacity=".3"><path fill="#000" d="M174.03 20.9889L180.35 33.3384L194.929 32.4782L194.435 35.8741L185.175 45.6804L187.681 55.9355L186.446 58.3814L174.486 52.3151L164.47 58.1795L163.131 56.302L164.837 45.4036L154.978 35.5973L155.203 33.0616L168.068 33.5179L174.03 20.9889Z"/></g><path fill="#FFCF55" d="M174.852 18.341L181.173 30.683L194.929 32.4782L185.137 42.3069L187.681 55.9355L175.316 49.6672L163.131 56.302L165.278 42.5986L155.203 33.0616L168.898 30.8625L174.852 18.341Z"/><path fill="#FAFAFA" d="M200.038 129.127L210.599 130.294C214.165 125.246 219.49 121.714 225.528 120.392C231.565 119.071 237.879 120.055 243.227 123.152C248.576 126.249 252.573 131.234 254.433 137.128C256.293 143.022 255.881 149.398 253.279 155.004C250.676 160.61 246.071 165.04 240.369 167.423C234.666 169.806 228.278 169.97 222.461 167.883C216.644 165.796 211.817 161.608 208.93 156.144C206.043 150.679 205.305 144.332 206.859 138.35L200.038 129.127Z"/><path fill="#263238" d="M200.038 129.127C200.449 129.681 202.588 132.508 206.957 138.305H206.8C206.805 138.293 206.813 138.282 206.823 138.273C206.833 138.264 206.845 138.258 206.858 138.254C206.871 138.251 206.884 138.25 206.898 138.252C206.911 138.255 206.923 138.26 206.934 138.268C206.952 138.278 206.966 138.294 206.974 138.313C206.982 138.332 206.984 138.353 206.979 138.373C205.908 142.569 205.965 146.974 207.144 151.141C207.49 152.391 207.948 153.608 208.512 154.776C208.812 155.375 209.096 155.988 209.418 156.594L210.532 158.367C214.091 163.526 219.475 167.143 225.597 168.487C228.986 169.232 232.494 169.247 235.889 168.532C239.468 167.753 242.832 166.195 245.74 163.969C248.787 161.656 251.236 158.647 252.884 155.195C254.59 151.685 255.431 147.817 255.337 143.915C255.228 140.183 254.283 136.522 252.57 133.204C250.959 130.058 248.676 127.305 245.883 125.14C240.851 121.251 234.519 119.442 228.192 120.084C225.519 120.405 222.909 121.126 220.451 122.223C216.539 124.031 213.168 126.832 210.674 130.346C210.666 130.361 210.654 130.372 210.639 130.379C210.624 130.386 210.608 130.387 210.592 130.384L200.038 129.127L210.614 130.197L210.525 130.242C213.011 126.679 216.397 123.84 220.338 122.014C222.809 120.875 225.441 120.123 228.14 119.785C234.553 119.106 240.982 120.922 246.092 124.856C248.933 127.047 251.255 129.839 252.891 133.032C254.64 136.398 255.604 140.116 255.711 143.908C255.81 147.871 254.958 151.8 253.228 155.367C251.551 158.873 249.061 161.927 245.965 164.276C243.009 166.533 239.592 168.111 235.957 168.898C232.501 169.625 228.93 169.602 225.485 168.831C219.298 167.467 213.861 163.801 210.278 158.576L209.156 156.781C208.834 156.167 208.55 155.539 208.243 154.933C207.681 153.75 207.225 152.518 206.882 151.253C205.709 147.041 205.678 142.593 206.792 138.365L206.972 138.432C206.958 138.454 206.936 138.47 206.911 138.477C206.887 138.484 206.86 138.481 206.837 138.47L200.038 129.127Z"/><path fill="#263238" d="M221.707 135.717C221.716 135.832 221.716 135.947 221.707 136.061C221.707 136.308 221.707 136.622 221.707 137.019C221.707 137.886 221.707 139.091 221.752 140.617C221.752 143.721 221.804 148.097 221.842 153.333L221.67 153.16H239.27C239.315 153.116 238.904 153.527 239.076 153.347V150.954C239.076 150.168 239.076 149.383 239.076 148.605V144.05C239.076 141.103 239.076 138.313 239.076 135.747L239.24 135.919L226.524 135.829L222.926 135.792H221.969H221.625H221.932H222.859L226.412 135.747L239.225 135.665H239.397V135.829C239.397 138.395 239.397 141.185 239.397 144.132V153.34C239.577 153.168 239.166 153.587 239.203 153.542H221.602H221.43V153.34C221.43 148.059 221.49 143.653 221.513 140.527C221.513 139.031 221.513 137.819 221.558 136.966C221.558 136.585 221.558 136.278 221.558 136.039C221.593 135.925 221.643 135.817 221.707 135.717Z"/><path fill="#FFCF55" d="M237.408 138.627C237.662 138.829 235.298 142.24 232.119 146.249C231.491 147.049 230.87 147.812 230.294 148.493L229.92 148.949L229.501 148.568C226.749 146.092 224.886 144.192 225.051 143.997C225.215 143.803 227.377 145.374 230.227 147.737L229.427 147.812C229.973 147.064 230.571 146.316 231.207 145.523C234.378 141.514 237.161 138.432 237.408 138.627Z"/></svg>