<svg xmlns="http://www.w3.org/2000/svg" width="329" height="329" fill="none" viewBox="0 0 329 329"><path fill="#F5F5F5" d="M164.5 281.335C234.96 281.335 292.08 278 292.08 273.886C292.08 269.772 234.96 266.438 164.5 266.438C94.0398 266.438 36.9204 269.772 36.9204 273.886C36.9204 278 94.0398 281.335 164.5 281.335Z"/><path fill="#407BFF" d="M292.527 52.3833V197.301L275.09 214.738H174.146V52.3833H292.527Z"/><path fill="#fff" d="M292.527 52.3833V197.301L275.09 214.738H174.146V52.3833H292.527Z" opacity=".8"/><path fill="#000" d="M275.09 214.738V197.814H292.527L275.432 214.909" opacity=".2"/><path fill="#000" d="M218.943 66.4579H186.293C185.834 66.4579 185.394 66.2756 185.069 65.951C184.745 65.6265 184.562 65.1863 184.562 64.7274C184.561 64.4995 184.606 64.2738 184.692 64.0631C184.779 63.8524 184.906 63.6608 185.067 63.4994C185.228 63.338 185.419 63.21 185.629 63.1226C185.839 63.0352 186.065 62.9902 186.293 62.9902H218.943C219.402 62.992 219.843 63.1758 220.167 63.5013C220.491 63.8269 220.673 64.2678 220.673 64.7274C220.673 65.1863 220.491 65.6265 220.166 65.951C219.842 66.2756 219.402 66.4579 218.943 66.4579Z" opacity=".1"/><path fill="#000" d="M278.163 80.4996H199.453C199.225 80.4996 198.999 80.4547 198.789 80.3673C198.579 80.2799 198.388 80.1519 198.227 79.9905C198.066 79.8291 197.939 79.6375 197.852 79.4268C197.765 79.2161 197.721 78.9903 197.722 78.7625C197.722 78.3036 197.905 77.8634 198.229 77.5388C198.554 77.2143 198.994 77.032 199.453 77.032H278.163C278.622 77.032 279.062 77.2143 279.386 77.5388C279.711 77.8634 279.893 78.3036 279.893 78.7625C279.893 79.2221 279.711 79.6629 279.387 79.9885C279.062 80.3141 278.622 80.4979 278.163 80.4996Z" opacity=".1"/><path fill="#000" d="M278.163 87.3231H186.293C185.834 87.3231 185.394 87.1408 185.069 86.8163C184.745 86.4917 184.562 86.0516 184.562 85.5926C184.561 85.3648 184.606 85.139 184.692 84.9283C184.779 84.7176 184.906 84.526 185.067 84.3647C185.228 84.2033 185.419 84.0752 185.629 83.9878C185.839 83.9004 186.065 83.8555 186.293 83.8555H278.163C278.622 83.8572 279.063 84.041 279.387 84.3666C279.711 84.6922 279.893 85.133 279.893 85.5926C279.893 86.0516 279.711 86.4917 279.386 86.8163C279.062 87.1408 278.622 87.3231 278.163 87.3231Z" opacity=".1"/><path fill="#000" d="M278.163 95.0348H186.293C186.065 95.0348 185.839 94.9898 185.629 94.9024C185.419 94.8151 185.228 94.687 185.067 94.5256C184.906 94.3642 184.779 94.1727 184.692 93.9619C184.606 93.7512 184.561 93.5255 184.562 93.2977C184.562 92.8387 184.745 92.3985 185.069 92.074C185.394 91.7495 185.834 91.5671 186.293 91.5671H278.163C278.622 91.5671 279.062 91.7495 279.386 92.074C279.711 92.3985 279.893 92.8387 279.893 93.2977C279.893 93.7572 279.711 94.1981 279.387 94.5237C279.063 94.8493 278.622 95.0331 278.163 95.0348Z" opacity=".1"/><path fill="#000" d="M278.163 102.74H186.293C185.834 102.74 185.394 102.558 185.069 102.233C184.745 101.909 184.562 101.469 184.562 101.01C184.562 100.551 184.745 100.11 185.069 99.7859C185.394 99.4614 185.834 99.2791 186.293 99.2791H278.163C278.622 99.2791 279.062 99.4614 279.386 99.7859C279.711 100.11 279.893 100.551 279.893 101.01C279.893 101.469 279.711 101.909 279.386 102.233C279.062 102.558 278.622 102.74 278.163 102.74Z" opacity=".1"/><path fill="#000" d="M278.163 110.452H186.293C185.834 110.452 185.394 110.269 185.069 109.945C184.745 109.62 184.562 109.18 184.562 108.721C184.561 108.494 184.606 108.268 184.692 108.058C184.779 107.848 184.906 107.657 185.067 107.496C185.228 107.335 185.419 107.207 185.63 107.121C185.84 107.034 186.065 106.99 186.293 106.991H278.163C278.622 106.991 279.062 107.173 279.386 107.498C279.711 107.822 279.893 108.262 279.893 108.721C279.893 109.18 279.711 109.62 279.386 109.945C279.062 110.269 278.622 110.452 278.163 110.452Z" opacity=".1"/><path fill="#000" d="M278.163 118.163H186.293C185.834 118.163 185.394 117.981 185.069 117.657C184.745 117.332 184.562 116.892 184.562 116.433C184.561 116.205 184.606 115.979 184.692 115.769C184.779 115.558 184.906 115.366 185.067 115.205C185.228 115.044 185.419 114.916 185.629 114.828C185.839 114.741 186.065 114.696 186.293 114.696H278.163C278.622 114.698 279.063 114.881 279.387 115.207C279.711 115.532 279.893 115.973 279.893 116.433C279.893 116.892 279.711 117.332 279.386 117.657C279.062 117.981 278.622 118.163 278.163 118.163Z" opacity=".1"/><path fill="#000" d="M278.169 122.408H186.293C185.337 122.408 184.562 123.183 184.562 124.138V124.145C184.562 125.101 185.337 125.875 186.293 125.875H278.169C279.125 125.875 279.9 125.101 279.9 124.145V124.138C279.9 123.183 279.125 122.408 278.169 122.408Z" opacity=".1"/><path fill="#000" d="M278.163 133.574H186.293C185.834 133.574 185.394 133.392 185.069 133.067C184.745 132.742 184.562 132.302 184.562 131.843C184.562 131.384 184.745 130.944 185.069 130.62C185.394 130.295 185.834 130.113 186.293 130.113H278.163C278.622 130.113 279.062 130.295 279.386 130.62C279.711 130.944 279.893 131.384 279.893 131.843C279.893 132.302 279.711 132.742 279.386 133.067C279.062 133.392 278.622 133.574 278.163 133.574Z" opacity=".1"/><path fill="#000" d="M278.163 141.292H186.293C185.834 141.292 185.394 141.11 185.069 140.785C184.745 140.461 184.562 140.021 184.562 139.562C184.561 139.334 184.606 139.109 184.692 138.898C184.779 138.688 184.906 138.497 185.067 138.336C185.228 138.175 185.419 138.048 185.63 137.961C185.84 137.874 186.065 137.83 186.293 137.831H278.163C278.622 137.831 279.062 138.013 279.386 138.338C279.711 138.662 279.893 139.103 279.893 139.562C279.893 140.021 279.711 140.461 279.386 140.785C279.062 141.11 278.622 141.292 278.163 141.292Z" opacity=".1"/><path fill="#000" d="M278.163 149.004H186.293C185.834 149.004 185.394 148.822 185.069 148.497C184.745 148.173 184.562 147.732 184.562 147.274C184.561 147.046 184.606 146.82 184.692 146.609C184.779 146.399 184.906 146.207 185.067 146.046C185.228 145.884 185.419 145.756 185.629 145.669C185.839 145.581 186.065 145.536 186.293 145.536H278.163C278.622 145.538 279.063 145.722 279.387 146.047C279.711 146.373 279.893 146.814 279.893 147.274C279.893 147.732 279.711 148.173 279.386 148.497C279.062 148.822 278.622 149.004 278.163 149.004Z" opacity=".1"/><path fill="#000" d="M278.163 156.716H186.293C186.065 156.716 185.839 156.671 185.629 156.583C185.419 156.496 185.228 156.368 185.067 156.207C184.906 156.045 184.779 155.854 184.692 155.643C184.606 155.432 184.561 155.206 184.562 154.979C184.562 154.52 184.745 154.079 185.069 153.755C185.394 153.43 185.834 153.248 186.293 153.248H278.163C278.622 153.248 279.062 153.43 279.386 153.755C279.711 154.079 279.893 154.52 279.893 154.979C279.893 155.438 279.711 155.879 279.387 156.205C279.063 156.53 278.622 156.714 278.163 156.716Z" opacity=".1"/><path fill="#000" d="M225.523 164.421H186.293C185.834 164.421 185.394 164.239 185.069 163.914C184.745 163.59 184.562 163.149 184.562 162.691C184.562 162.232 184.745 161.791 185.069 161.467C185.394 161.142 185.834 160.96 186.293 160.96H225.523C225.982 160.96 226.422 161.142 226.746 161.467C227.071 161.791 227.253 162.232 227.253 162.691C227.253 163.149 227.071 163.59 226.746 163.914C226.422 164.239 225.982 164.421 225.523 164.421Z" opacity=".1"/><path fill="#407BFF" d="M271.096 87.8955L270.971 87.7902C270.616 87.5205 270.412 87.6126 270.247 87.0928C270.129 86.7177 270.247 86.2966 270.109 85.9084C269.795 85.2401 269.437 84.5938 269.036 83.9738L267.418 81.0589C267.056 80.4134 266.454 79.9375 265.742 79.7352C265.031 79.533 264.268 79.6209 263.621 79.9798L248.717 88.2837C248.658 88.7838 248.244 89.126 248.158 89.5997C248.129 89.7397 248.136 89.885 248.18 90.0211C248.224 90.1573 248.302 90.2797 248.408 90.3762C248.241 90.3729 248.079 90.3151 247.947 90.2117C247.059 89.7182 246.822 89.3234 245.908 89.8234C245.513 90.034 245.125 90.2577 244.736 90.4814L240.788 92.6858L228.418 99.575L213.942 107.655L201.881 114.373C200.236 115.288 198.242 116.091 196.775 117.255C197.183 117.466 197.255 117.788 196.893 118.104L196.235 118.703C196.235 118.868 196.472 118.868 196.623 118.802L197.439 118.453C196.872 119.173 196.19 119.793 195.419 120.289C194.125 121.04 192.735 121.611 191.287 121.986L191.985 121.111C192.037 121.039 192.103 120.947 192.057 120.861C192.011 120.776 191.925 120.769 191.846 120.763C191.498 120.723 191.149 120.763 190.892 120.506C188.642 121.822 186.286 123.072 183.996 124.349C183.351 124.71 182.875 125.313 182.673 126.024C182.47 126.736 182.558 127.498 182.917 128.145L197.946 155.123C198.124 155.443 198.363 155.725 198.65 155.953C198.936 156.18 199.265 156.349 199.617 156.449C199.969 156.549 200.338 156.579 200.701 156.537C201.065 156.495 201.416 156.381 201.736 156.202L205.691 153.972C205.691 153.505 206.059 152.985 205.783 152.557C205.744 152.505 205.719 152.444 205.71 152.38C205.71 152.294 205.789 152.228 205.862 152.182C206.267 151.925 206.731 151.775 207.211 151.748C207.375 151.748 207.592 151.82 207.566 151.978C207.566 151.833 208.415 151.531 208.553 151.485C208.619 151.84 208.375 152.222 208.79 152.294C209.204 152.366 209.836 151.636 210.106 151.504L214.054 149.3L226.556 142.345L240.269 134.706L249.382 129.626C249.711 129.435 250.099 129.211 250.415 129.053C250.529 128.45 250.823 127.895 251.257 127.461C251.915 127.007 252.955 127.507 253.501 126.862C253.606 126.737 253.672 126.586 253.764 126.454C253.948 126.24 254.171 126.064 254.422 125.934C254.581 125.81 254.773 125.734 254.975 125.717C255.172 125.717 255.383 125.882 255.356 126.079C256.712 125.763 257.936 124.849 259.133 124.171C259.568 123.928 263.378 122.138 263.364 121.855C263.312 120.98 263.845 120.23 263.818 119.328C263.818 119.157 263.483 118.012 263.634 117.927C260.213 119.966 256.659 121.822 253.172 123.757C253.054 123.829 252.606 123.98 252.514 124.112C252.514 124.112 252.481 124.171 252.468 124.204L252.369 124.421V124.474C252.228 124.922 252.061 125.361 251.869 125.79C251.869 125.849 251.126 126.77 251.066 126.553C250.777 125.494 250.408 125.329 249.599 125.763L248.441 126.421L244.763 128.468L232.373 135.377L217.772 143.51L205.605 150.287L200.506 153.123C199.488 151.281 198.464 149.44 197.433 147.602L195.459 144.056C195.259 143.564 194.964 143.117 194.59 142.74C194.307 142.529 193.827 142.582 193.577 142.391C192.965 141.924 192.524 141.075 191.945 140.529C191.55 140.16 190.951 139.055 191.116 138.443C191.313 138.522 191.511 138.608 191.708 138.667C191.605 138.262 191.628 137.835 191.774 137.443C189.8 134.12 187.984 130.646 186.095 127.25L185.97 127.033L190.576 124.467L193.939 122.592C194.63 122.295 195.291 121.931 195.913 121.506C196.34 121.138 196.775 120.677 197.229 120.282C197.533 120.051 197.865 119.856 198.216 119.703L199.459 119.098C199.523 119.059 199.596 119.037 199.67 119.032C199.744 119.04 199.817 119.058 199.887 119.085C200.545 119.223 202.177 118.006 202.769 117.677L206.599 115.545L218.153 109.103L232.55 101.088L246.96 93.0542L258.554 86.5993L264.476 83.3093L264.753 83.1579L271.155 94.6532C271.551 95.428 272.185 96.0553 272.965 96.4429C273.228 96.5285 273.524 96.7127 273.491 96.9825C273.458 97.2523 273.063 97.476 273.155 97.7523C273.248 98.0287 273.754 97.9234 273.873 98.1735C273.991 98.4235 273.669 98.8315 273.708 99.1736C273.844 99.5833 274.046 99.9678 274.307 100.312L276.169 103.661C277.209 105.517 278.242 107.379 279.288 109.254L267.905 115.597C267.961 115.643 268.008 115.699 268.043 115.762L268.102 115.913C268.328 115.993 268.548 116.09 268.76 116.203C268.851 116.253 268.926 116.328 268.977 116.419C269.028 116.509 269.053 116.612 269.049 116.716C269.048 116.819 269.019 116.919 268.966 117.007C268.913 117.095 268.837 117.167 268.747 117.216L268.049 117.611C268.025 117.763 267.954 117.905 267.847 118.016C267.74 118.128 267.602 118.205 267.451 118.236C267.37 118.243 267.288 118.243 267.207 118.236C267.138 118.287 267.059 118.322 266.974 118.339C266.89 118.356 266.804 118.354 266.72 118.335C266.571 118.289 266.446 118.187 266.37 118.051C266.294 117.915 266.273 117.755 266.312 117.604C266.339 117.537 266.375 117.472 266.417 117.413C266.368 117.318 266.345 117.21 266.352 117.102C266.359 116.994 266.395 116.89 266.457 116.801H266.246C266.128 116.801 266.023 116.736 265.911 116.703C265.319 117.068 264.858 117.612 264.595 118.256C264.566 118.291 264.552 118.335 264.555 118.381C264.555 118.473 264.7 118.479 264.786 118.519C264.983 118.611 264.937 118.9 264.838 119.091C264.74 119.282 264.621 119.526 264.753 119.697C264.803 119.754 264.858 119.807 264.917 119.855C265.2 120.177 264.766 121.111 265.457 120.73C265.408 120.526 265.439 120.312 265.542 120.131C265.659 119.948 265.84 119.814 266.049 119.756C266.56 119.632 267.083 119.557 267.608 119.532L281.328 111.86C281.973 111.498 282.449 110.896 282.651 110.184C282.854 109.473 282.766 108.71 282.407 108.063L282.328 107.925L276.13 96.7983L272.55 90.363C272.201 89.7511 271.892 89.1128 271.51 88.5074C271.405 88.2828 271.266 88.0763 271.096 87.8955Z"/><path fill="#407BFF" d="M207.704 124.25C207.25 123.697 207.388 123.684 207.303 123.092C207.303 123.092 207.303 123.092 207.303 123.053L207.25 122.993L207.171 122.901C206.862 123.039 206.553 123.191 206.243 123.362L200.183 126.737L202.624 131.113C202.282 130.508 203.493 130.685 203.539 130.679C203.667 130.641 203.8 130.619 203.934 130.613C204.065 130.641 204.181 130.719 204.256 130.83C204.509 131.273 204.585 131.795 204.467 132.291C204.394 132.949 204.743 133.607 204.368 134.265C204.69 134.791 207.605 140.095 207.618 140.088L213.679 136.713C214.027 136.515 214.856 136.167 215.06 135.818C215.264 135.469 214.942 134.923 215.304 134.758C215.44 134.708 215.586 134.69 215.731 134.703C215.875 134.717 216.015 134.763 216.14 134.837C217.294 133.695 218.036 132.201 218.249 130.591C218.462 128.98 218.134 127.345 217.317 125.941C215.613 122.882 211.744 121.059 208.355 122.48C208.119 122.579 208.434 123.638 207.869 123.757C207.977 123.544 208.132 123.36 208.323 123.217L207.704 124.25ZM212.099 134.232L209.277 135.805C209.046 135.39 208.823 134.976 208.586 134.574C208.882 135.074 208.066 134.916 207.895 134.804C207.48 134.528 207.368 133.732 207.355 133.284C207.345 132.517 207.117 131.769 206.697 131.126C206.035 129.929 205.377 128.731 204.723 127.534L207.546 125.961C210.178 124.487 212.81 125.099 214.231 127.652C215.653 130.205 214.751 132.778 212.099 134.232Z"/><path fill="#407BFF" d="M227.74 113.044C227.884 113.357 227.926 113.707 227.859 114.044C227.826 114.229 227.53 114.702 227.569 114.821C227.675 115.084 227.78 115.347 227.879 115.61C227.896 115.654 227.921 115.694 227.951 115.729C228.002 115.763 228.061 115.781 228.122 115.782C229.168 115.874 229.122 115.979 229.188 116.861C229.247 117.617 229.899 118.052 230.267 118.71C230.762 119.574 230.977 120.571 230.883 121.562C230.788 122.554 230.389 123.492 229.74 124.248C229.091 125.004 228.224 125.54 227.258 125.783C226.292 126.026 225.275 125.964 224.345 125.606C224.32 125.629 224.294 125.651 224.266 125.671C224.128 125.741 223.969 125.76 223.819 125.724C223.477 125.627 223.167 125.44 222.923 125.181C222.678 124.923 222.508 124.604 222.43 124.257C222.421 124.204 222.421 124.151 222.43 124.099C222.244 123.868 222.079 123.622 221.937 123.362C221.599 122.818 221.376 122.21 221.284 121.577C221.192 120.943 221.231 120.297 221.399 119.68C221.568 119.062 221.862 118.486 222.264 117.987C222.666 117.489 223.166 117.078 223.733 116.782C224.556 116.312 225.499 116.097 226.444 116.163L226.392 116.084C225.826 115.334 227.865 115.031 226.944 114.525C226.556 114.314 226.622 113.36 226.523 112.972C225.028 113.006 223.565 113.41 222.266 114.15C218.055 116.499 216.6 121.151 218.811 125.119C219.742 126.826 221.28 128.12 223.121 128.744C223.554 128.933 224.018 129.04 224.49 129.06C225.029 129.014 224.766 129.06 224.997 128.738C225.227 128.415 225.089 128.277 225.437 127.935C225.786 127.593 226.194 127.389 226.266 126.862C226.266 127.099 226.53 127.27 226.53 127.52C226.53 127.593 226.53 127.665 226.53 127.731C226.544 127.817 226.583 127.897 226.642 127.961C226.865 128.264 227.24 128.619 227.247 128.968C228.21 128.808 229.134 128.469 229.971 127.968C234.162 125.632 235.65 120.986 233.426 117.005C232.274 114.972 230.109 113.176 227.74 113.044Z"/><path fill="#407BFF" d="M241.196 103.885L245.71 111.985L234.564 107.576L232.011 109.004C233.735 112.097 235.564 115.156 237.183 118.308C237.294 117.966 237.558 117.9 237.874 117.854C238.466 117.775 238.446 118.071 238.768 118.657C238.808 118.729 238.854 118.802 238.926 118.815C238.999 118.828 239.143 118.71 239.262 118.723C239.38 118.736 239.426 118.881 239.394 118.993C239.352 119.102 239.297 119.206 239.229 119.302C239.038 119.664 239.354 119.894 239.315 120.223C239.315 120.394 238.742 121.092 238.808 121.21L239.466 122.342L242.519 120.644L241.703 119.183H241.552C240.663 119.302 241.058 118.137 240.861 117.657C240.541 116.976 240.179 116.317 239.775 115.683L237.979 112.518L247.039 116.084C247.016 115.824 247.047 115.562 247.132 115.314C247.204 115.176 247.79 114.92 247.79 114.788C247.823 115.212 248.022 115.607 248.342 115.887C248.691 116.196 248.691 116.15 248.625 116.696L249.165 116.913L251.705 115.499L244.269 102.161L241.196 103.885Z"/><path fill="#407BFF" d="M256.535 109.577L254.811 106.491L261.009 103.036L259.693 100.634L253.501 104.089L251.889 101.187L256.074 98.8577C256.251 98.6298 256.475 98.4434 256.732 98.3116C256.862 98.2448 257.012 98.2284 257.153 98.2655L258.923 97.2851C258.923 97.2851 257.666 95.0413 257.548 94.8044C256.943 95.0808 257.548 95.8441 256.936 96.2126C257.061 96.3442 257.245 96.8113 256.936 96.8706C256.758 96.8706 256.627 96.6468 256.449 96.6666C256.271 96.6863 256.265 96.7719 256.173 96.7455C256.145 96.7377 256.119 96.7235 256.097 96.7041C256.076 96.6847 256.059 96.6606 256.048 96.6337C255.962 96.4352 255.854 96.2475 255.725 96.0744C255.311 95.673 251.527 98.1931 251.001 98.4892L247.48 100.463L254.909 113.801L257.877 112.149L257.936 112.07C258.153 111.794 258.364 111.511 258.594 111.254C258.688 111.166 258.807 111.109 258.935 111.094C259.063 111.078 259.193 111.105 259.305 111.169C259.358 111.197 259.405 111.235 259.443 111.281L265.24 108.05L263.858 105.569L256.535 109.577Z"/><path fill="#407BFF" d="M264.45 251.494C264.45 251.494 260.12 242.058 265.062 232.748C270.004 223.437 271.445 221.246 268.293 219.344C265.141 217.443 263.687 226.786 263.687 226.786C263.687 226.786 261.055 220.351 263.22 213.626C265.384 206.901 266.793 195.926 263.799 194.748C260.805 193.57 263.226 208.428 260.627 213.495C259.302 209.938 258.446 206.224 258.081 202.447C257.725 197.038 258.285 188.405 255.916 186.188C253.547 183.97 252.04 185.53 254.363 197.439C255.759 204.573 256.532 211.814 256.673 219.081C256.673 219.081 251.534 203.421 248.119 202.967C244.704 202.513 244.677 207.573 247.632 211.975C250.586 216.377 256.245 224.246 257.173 228.326C257.173 228.326 251.54 216.548 246.467 220.154C241.394 223.759 250.882 230.886 255.107 233.458C259.331 236.031 262.272 252.146 262.272 252.146L264.45 251.494Z"/><path fill="#000" d="M264.45 251.494C264.45 251.494 260.12 242.058 265.062 232.748C270.004 223.437 271.445 221.246 268.293 219.344C265.141 217.443 263.687 226.786 263.687 226.786C263.687 226.786 261.055 220.351 263.22 213.626C265.384 206.901 266.793 195.926 263.799 194.748C260.805 193.57 263.226 208.428 260.627 213.495C259.302 209.938 258.446 206.224 258.081 202.447C257.725 197.038 258.285 188.405 255.916 186.188C253.547 183.97 252.04 185.53 254.363 197.439C255.759 204.573 256.532 211.814 256.673 219.081C256.673 219.081 251.534 203.421 248.119 202.967C244.704 202.513 244.677 207.573 247.632 211.975C250.586 216.377 256.245 224.246 257.173 228.326C257.173 228.326 251.54 216.548 246.467 220.154C241.394 223.759 250.882 230.886 255.107 233.458C259.331 236.031 262.272 252.146 262.272 252.146L264.45 251.494Z" opacity=".2"/><path fill="#407BFF" d="M261.029 255.37C261.029 255.37 265.246 245.862 260.193 236.63C255.139 227.398 253.672 225.227 256.804 223.272C259.936 221.318 261.489 230.649 261.489 230.649C261.489 230.649 264.069 224.18 261.798 217.489C259.528 210.797 258.015 199.841 260.996 198.624C263.976 197.406 261.733 212.297 264.391 217.318C265.675 213.745 266.484 210.02 266.799 206.237C267.095 200.821 266.431 192.195 268.773 189.945C271.116 187.694 272.649 189.208 270.464 201.177C269.155 208.326 268.47 215.576 268.418 222.845C268.418 222.845 273.366 207.112 276.807 206.605C280.249 206.099 280.301 211.165 277.406 215.607C274.511 220.048 268.918 228.01 268.03 232.057C268.03 232.057 273.524 220.213 278.637 223.733C283.749 227.253 274.353 234.524 270.162 237.156C265.97 239.788 263.2 255.962 263.2 255.962L261.029 255.37Z"/><path fill="#263238" d="M280.466 248.592H245.658L248.474 273.504H277.65L280.466 248.592Z"/><path fill="#407BFF" d="M102.404 91.9556H79.4337C78.5489 91.9556 77.7004 92.307 77.0748 92.9327C76.4491 93.5583 76.0977 94.4069 76.0977 95.2916V117.624C76.0977 118.509 76.4491 119.357 77.0748 119.983C77.7004 120.609 78.5489 120.96 79.4337 120.96H86.7836L81.8354 127.685L90.3894 120.96H102.398C103.283 120.96 104.131 120.609 104.757 119.983C105.382 119.357 105.734 118.509 105.734 117.624V95.2916C105.734 94.408 105.383 93.5604 104.759 92.935C104.135 92.3096 103.288 91.9573 102.404 91.9556Z"/><path fill="#fff" d="M102.404 91.9556H79.4337C78.5489 91.9556 77.7004 92.307 77.0748 92.9327C76.4491 93.5583 76.0977 94.4069 76.0977 95.2916V117.624C76.0977 118.509 76.4491 119.357 77.0748 119.983C77.7004 120.609 78.5489 120.96 79.4337 120.96H86.7836L81.8354 127.685L90.3894 120.96H102.398C103.283 120.96 104.131 120.609 104.757 119.983C105.382 119.357 105.734 118.509 105.734 117.624V95.2916C105.734 94.408 105.383 93.5604 104.759 92.935C104.135 92.3096 103.288 91.9573 102.404 91.9556Z" opacity=".6"/><path fill="#407BFF" d="M90.9225 116.887C96.6824 116.887 101.352 112.218 101.352 106.458C101.352 100.698 96.6824 96.0286 90.9225 96.0286C85.1625 96.0286 80.4932 100.698 80.4932 106.458C80.4932 112.218 85.1625 116.887 90.9225 116.887Z"/><path fill="#000" d="M99.6222 108.505C100.757 103.699 97.7798 98.8825 92.9732 97.748C88.1666 96.6136 83.3504 99.5904 82.216 104.397C81.0815 109.204 84.0584 114.02 88.865 115.154C93.6715 116.289 98.4877 113.312 99.6222 108.505Z" opacity=".2"/><path fill="#fff" d="M89.8103 110.728C89.6891 110.731 89.5686 110.71 89.4557 110.666C89.3428 110.622 89.2397 110.556 89.1523 110.472L85.3556 106.754C85.1811 106.585 85.081 106.353 85.0773 106.11C85.0736 105.867 85.1666 105.632 85.3359 105.458C85.5051 105.283 85.7368 105.183 85.9799 105.179C86.223 105.176 86.4576 105.269 86.6321 105.438L89.7445 108.485L95.1269 102.477C95.2919 102.311 95.5145 102.214 95.7487 102.207C95.9829 102.2 96.2109 102.283 96.3856 102.439C96.5603 102.595 96.6685 102.813 96.6877 103.046C96.7069 103.28 96.6358 103.512 96.489 103.694L90.4683 110.412C90.3852 110.505 90.2839 110.58 90.1707 110.632C90.0575 110.684 89.9348 110.713 89.8103 110.715V110.728Z"/><path fill="#263238" d="M61.1283 258.541L80.0853 256.673V235.294H87.5997V256.666L106.636 258.541C107.548 258.63 108.394 259.055 109.01 259.734C109.626 260.413 109.966 261.297 109.965 262.213V265.062H57.7988V262.213C57.7978 261.297 58.1384 260.413 58.754 259.734C59.3696 259.055 60.2161 258.63 61.1283 258.541Z"/><path fill="#fff" d="M61.1283 258.541L80.0853 256.673V235.294H87.5997V256.666L106.636 258.541C107.548 258.63 108.394 259.055 109.01 259.734C109.626 260.413 109.966 261.297 109.965 262.213V265.062H57.7988V262.213C57.7978 261.297 58.1384 260.413 58.754 259.734C59.3696 259.055 60.2161 258.63 61.1283 258.541Z" opacity=".1"/><path fill="#263238" d="M107.958 273.504C110.673 273.504 112.873 271.304 112.873 268.589C112.873 265.874 110.673 263.674 107.958 263.674C105.244 263.674 103.043 265.874 103.043 268.589C103.043 271.304 105.244 273.504 107.958 273.504Z"/><path fill="#263238" d="M59.8056 273.504C62.5203 273.504 64.7209 271.304 64.7209 268.589C64.7209 265.874 62.5203 263.674 59.8056 263.674C57.091 263.674 54.8904 265.874 54.8904 268.589C54.8904 271.304 57.091 273.504 59.8056 273.504Z"/><path fill="#263238" d="M86.1719 241.019H81.4869C80.7662 241.019 80.075 240.733 79.5653 240.223C79.0557 239.713 78.7694 239.022 78.7694 238.301V217.285H88.8894V238.301C88.8894 239.022 88.6031 239.713 88.0935 240.223C87.5838 240.733 86.8926 241.019 86.1719 241.019Z"/><path fill="#fff" d="M86.1719 241.019H81.4869C80.7662 241.019 80.075 240.733 79.5653 240.223C79.0557 239.713 78.7694 239.022 78.7694 238.301V217.285H88.8894V238.301C88.8894 239.022 88.6031 239.713 88.0935 240.223C87.5838 240.733 86.8926 241.019 86.1719 241.019Z" opacity=".2"/><path fill="#263238" d="M57.6014 176.094C57.6014 176.094 63.2338 211.218 74.354 217.291H63.0496C63.0496 217.291 51.8636 205.316 48.4946 176.094H57.6014Z"/><path fill="#fff" d="M57.6014 176.094C57.6014 176.094 63.2338 211.218 74.354 217.291H63.0496C63.0496 217.291 51.8636 205.316 48.4946 176.094H57.6014Z" opacity=".1"/><path fill="#407BFF" d="M62.5102 212.323H106.544C107.416 212.323 108.253 212.67 108.87 213.287C109.487 213.904 109.834 214.741 109.834 215.613V220.016H59.2202V215.613C59.2202 214.741 59.5668 213.904 60.1838 213.287C60.8008 212.67 61.6377 212.323 62.5102 212.323Z"/><path fill="#263238" d="M110.597 216.166H58.4107C57.6803 216.166 57.0881 216.758 57.0881 217.489V218.686C57.0881 219.417 57.6803 220.009 58.4107 220.009H110.597C111.327 220.009 111.919 219.417 111.919 218.686V217.489C111.919 216.758 111.327 216.166 110.597 216.166Z"/><path fill="#fff" d="M110.597 216.166H58.4107C57.6803 216.166 57.0881 216.758 57.0881 217.489V218.686C57.0881 219.417 57.6803 220.009 58.4107 220.009H110.597C111.327 220.009 111.919 219.417 111.919 218.686V217.489C111.919 216.758 111.327 216.166 110.597 216.166Z" opacity=".6"/><path fill="#407BFF" d="M47.159 183.24H65.2474C70.5509 183.24 73.9922 178.989 72.9394 173.745L71.5313 166.744C70.4785 161.48 65.3264 157.255 60.0294 157.255H41.941C36.6375 157.255 33.1962 161.506 34.249 166.744L35.6571 173.745C36.7099 178.976 41.8555 183.24 47.159 183.24Z"/><path fill="#E4897B" d="M143.142 242.072L138.996 243.697L136.015 238.078L133.304 232.965L137.897 230.215L140.674 236.485L143.142 242.072Z"/><path fill="#000" d="M140.674 236.485L136.015 238.078L133.304 232.965L137.897 230.215L140.674 236.485Z" opacity=".2"/><path fill="#263238" d="M139.812 233.419L134.173 236.446C134.173 236.446 112.86 198.973 109.583 199.288C106.307 199.604 75.2161 219.41 65.7343 212.093C56.2526 204.776 65.4777 182.746 65.4777 182.746C65.4777 182.746 85.0927 177.14 87.1917 181.43C87.7449 182.715 88.2153 184.034 88.5998 185.378C89.0144 186.727 89.3302 187.866 89.3302 187.866C89.929 187.622 109.301 179.68 117.947 183.918C126.77 188.274 139.812 233.419 139.812 233.419Z"/><path fill="#fff" d="M139.812 233.419L134.173 236.446C134.173 236.446 112.86 198.973 109.583 199.288C106.307 199.604 75.2161 219.41 65.7343 212.093C56.2526 204.776 65.4777 182.746 65.4777 182.746C65.4777 182.746 85.0927 177.14 87.1917 181.43C87.7449 182.715 88.2153 184.034 88.5998 185.378C89.0144 186.727 89.3302 187.866 89.3302 187.866C89.929 187.622 109.301 179.68 117.947 183.918C126.77 188.274 139.812 233.419 139.812 233.419Z" opacity=".3"/><path fill="#E4897B" d="M109.175 263.976L104.754 263.47L104.727 257.232L104.721 251.507L110.07 251.257L109.596 257.989L109.175 263.976Z"/><path fill="#000" d="M109.584 258.127L104.714 257.35V251.567L110.064 251.284L109.584 258.127Z" opacity=".2"/><path fill="#407BFF" d="M131.416 234.584L139.667 230.451L140.529 233.952L134.278 237.176L131.416 234.584Z"/><path fill="#263238" d="M80.3813 212.152C80.3813 212.152 81.7368 212.001 102.589 208.139C102.589 208.139 103.063 234.801 104.05 254.679L110.472 254.883C110.472 254.883 119.684 210.797 118.598 204.112C117.512 197.426 109.59 196.551 109.59 196.551C109.59 196.551 95.8312 207.27 80.3813 212.152Z"/><path fill="#fff" d="M80.3813 212.152C80.3813 212.152 81.7368 212.001 102.589 208.139C102.589 208.139 103.063 234.801 104.05 254.679L110.472 254.883C110.472 254.883 119.684 210.797 118.598 204.112C117.512 197.426 109.59 196.551 109.59 196.551C109.59 196.551 95.8312 207.27 80.3813 212.152Z" opacity=".4"/><path fill="#000" d="M80.3813 212.152C80.3813 212.152 81.7368 212.001 102.589 208.139C102.589 208.139 103.063 234.801 104.05 254.679L110.472 254.883C110.472 254.883 119.684 210.797 118.598 204.112C117.512 197.426 109.59 196.551 109.59 196.551C109.59 196.551 95.8312 207.27 80.3813 212.152Z" opacity=".3"/><path fill="#407BFF" d="M102.872 252.902L111.63 252.698L110.432 256.304L103.326 256.37L102.872 252.902Z"/><path fill="#000" d="M89.3566 187.879L77.9929 191.926C77.9929 191.926 83.9676 187.464 88.6262 185.392C89.0407 186.741 89.3566 187.879 89.3566 187.879Z" opacity=".3"/><path fill="#263238" d="M64.1616 181.391L64.5827 184.543L85.8822 180.022L85.3887 176.298L64.1616 181.391Z"/><path fill="#000" d="M64.1616 181.391L64.5827 184.543L85.8822 180.022L85.3887 176.298L64.1616 181.391Z" opacity=".2"/><path fill="#263238" d="M71.219 179.101L70.158 179.298L71.1602 184.7L72.2212 184.503L71.219 179.101Z"/><path fill="#fff" d="M80.5067 177.734L75.8594 178.781L76.6536 182.305L81.3009 181.258L80.5067 177.734Z"/><path fill="#263238" d="M83.495 175.533L82.4375 175.727L83.4265 181.112L84.484 180.917L83.495 175.533Z"/><path fill="#fff" d="M71.219 179.101L70.158 179.298L71.1602 184.7L72.2212 184.503L71.219 179.101Z" opacity=".3"/><path fill="#fff" d="M83.495 175.533L82.4375 175.727L83.4265 181.112L84.484 180.917L83.495 175.533Z" opacity=".3"/><path fill="#263238" d="M151.38 249.428C150.688 249.216 149.963 249.133 149.241 249.185C149.241 249.185 146.563 248.066 143.319 242.743L140.555 243.105C140.09 243.175 139.658 243.386 139.317 243.709C138.975 244.033 138.742 244.454 138.647 244.914C138.627 245.045 138.627 245.178 138.647 245.309C138.766 245.977 138.929 246.636 139.134 247.283C139.843 249.422 140.68 251.516 141.641 253.554L142.089 253.37L140.661 249.382C140.187 248.02 141.839 249.172 142.714 250.488C143.589 251.804 144.832 253.08 147.787 251.962C151.222 250.619 152.584 249.909 151.38 249.428Z"/><path fill="#E4897B" d="M142.628 241.328C142.628 241.328 147.063 248.066 149.241 249.185C149.241 249.185 146.8 251.159 143.543 247.987C139.338 243.914 138.634 245.309 138.634 245.309C138.597 244.511 138.634 243.711 138.746 242.92C139.082 241.374 142.628 241.328 142.628 241.328Z"/><path fill="#263238" d="M115.808 271.82C115.178 271.456 114.486 271.211 113.768 271.096C113.768 271.096 111.432 269.379 109.557 263.443L106.787 263.141C106.317 263.096 105.845 263.199 105.435 263.435C105.026 263.671 104.701 264.028 104.504 264.457C104.445 264.575 104.405 264.701 104.385 264.832C104.339 265.504 104.339 266.179 104.385 266.852C104.564 269.098 104.88 271.33 105.333 273.537L105.813 273.465L105.385 269.24C105.247 267.806 106.583 269.319 107.122 270.806C107.662 272.294 108.563 273.827 111.696 273.438C115.354 272.945 116.841 272.576 115.808 271.82Z"/><path fill="#E4897B" d="M109.228 261.884C109.228 261.884 111.939 269.484 113.788 271.096C113.788 271.096 110.952 272.412 108.524 268.583C105.399 263.628 104.392 264.819 104.392 264.819C104.539 264.037 104.759 263.27 105.05 262.529C105.747 261.081 109.228 261.884 109.228 261.884Z"/><path fill="#E4897B" d="M59.5227 127.652L53.9561 128.771C53.7386 128.954 53.4817 129.084 53.2054 129.151C52.9292 129.219 52.6411 129.221 52.3637 129.159C50.7055 128.501 48.317 126.573 48.0143 125.869C47.5669 124.875 48.0143 121.96 49.1856 121.434C50.3568 120.907 54.3903 125.777 54.3903 125.777L60.3716 124.428L59.5227 127.652Z"/><path fill="#407BFF" d="M77.0783 146.155C77.0783 146.155 76.5716 128.119 74.4858 127.349C72.3999 126.58 56.7198 128.731 56.7198 128.731L56.3381 124.612C56.3381 124.612 74.5845 121.802 78.1179 123.467C81.6514 125.132 82.8161 152.011 82.1712 157.19L77.0783 146.155Z"/><path fill="#fff" d="M77.0783 146.155C77.0783 146.155 76.5716 128.119 74.4858 127.349C72.3999 126.58 56.7198 128.731 56.7198 128.731L56.3381 124.612C56.3381 124.612 74.5845 121.802 78.1179 123.467C81.6514 125.132 82.8161 152.011 82.1712 157.19L77.0783 146.155Z" opacity=".6"/><path fill="#407BFF" d="M56.9895 129.126L55.8972 124.599L57.4633 124.033L58.4568 129.264L56.9895 129.126Z"/><path fill="#fff" d="M56.9895 129.126L55.8972 124.599L57.4633 124.033L58.4568 129.264L56.9895 129.126Z" opacity=".7"/><path fill="#407BFF" d="M76.986 143.905C76.986 143.905 75.5845 149.392 68.8334 151.143C62.0823 152.893 54.614 148.32 54.614 148.32L56.1011 161.414L64.3656 182.042L85.4874 176.535C85.4874 176.535 84.224 152.538 76.986 143.905Z"/><path fill="#fff" d="M76.986 143.905C76.986 143.905 75.5845 149.392 68.8334 151.143C62.0823 152.893 54.614 148.32 54.614 148.32L56.1011 161.414L64.3656 182.042L85.4874 176.535C85.4874 176.535 84.224 152.538 76.986 143.905Z" opacity=".7"/><path fill="#407BFF" d="M80.6569 165.664L83.1293 164.884C83.4031 164.798 83.555 164.506 83.4686 164.232L81.9957 159.564C81.9093 159.29 81.6173 159.138 81.3435 159.224L78.8711 160.004C78.5974 160.091 78.4454 160.383 78.5318 160.656L80.0047 165.325C80.0911 165.599 80.3831 165.751 80.6569 165.664Z" opacity=".6"/><path fill="#000" d="M80.1534 164.241L82.9646 163.354L81.751 159.508L78.9398 160.395L80.1534 164.241Z" opacity=".2"/><path fill="#263238" d="M80.0592 158.117L79.438 158.313L80.1527 160.578L80.7739 160.382L80.0592 158.117Z"/><path fill="#263238" d="M62.6285 123.408C57.4237 123.408 53.9889 128.922 55.2062 137.667C56.4235 146.412 61.2993 148.932 61.2993 148.932L60.99 146.82C66.4029 148.048 71.9834 148.359 77.4993 147.741C77.4993 147.741 74.9857 140.608 75.8016 133.324C75.8016 133.324 77.4532 123.395 62.6285 123.408Z"/><path fill="#000" d="M72.9657 149.366L75.091 157.262L71.3536 154.413C71.3536 154.413 74.9923 162.73 75.9596 167.573C75.9596 167.573 72.8144 159.328 70.1034 154.808L68.5176 159.335L62.1416 152.84C62.1416 152.84 67.7741 148.524 72.9657 149.366Z" opacity=".2"/><path fill="#E4897B" d="M69.8599 151.912L63.3721 152.11C66.2475 148.432 61.0493 142.023 61.0493 142.023L67.4582 143.411C68.9848 149.754 71.6234 149.945 71.6234 149.945L69.8599 151.912Z"/><path fill="#000" d="M69.248 147.964C66.7724 147.757 64.4698 146.611 62.8128 144.76C62.3008 143.809 61.711 142.902 61.0493 142.049L67.4582 143.444C67.7976 145.04 68.4026 146.568 69.248 147.964Z" opacity=".2"/><path fill="#E4897B" d="M67.4517 126.086C73.0382 126.553 74.591 129.692 74.5187 135.489C74.4331 142.727 72.4065 147.708 65.5501 145.589C56.2328 142.714 58.1674 125.31 67.4517 126.086Z"/><path fill="#DE5753" d="M70.9325 134.89C71.3107 135.763 71.7923 136.587 72.3669 137.344C72.1829 137.56 71.9434 137.722 71.6743 137.811C71.4052 137.9 71.1168 137.914 70.8403 137.851L70.9325 134.89Z"/><path fill="#263238" d="M67.1489 133.956L68.3596 133.561C68.3596 133.561 67.7148 134.521 67.1489 133.956Z"/><path fill="#263238" d="M67.5702 133.818C67.345 133.707 67.0874 133.682 66.8452 133.747C66.6031 133.813 66.393 133.964 66.2542 134.173C66.4607 134.079 66.6851 134.03 66.9122 134.03C67.1392 134.03 67.3636 134.079 67.5702 134.173V133.818Z"/><path fill="#263238" d="M65.3198 131.153C65.2576 131.151 65.1985 131.125 65.1553 131.08C65.1324 131.059 65.1142 131.033 65.1017 131.004C65.0892 130.975 65.0828 130.944 65.0828 130.912C65.0828 130.881 65.0892 130.85 65.1017 130.821C65.1142 130.792 65.1324 130.766 65.1553 130.745C65.5222 130.424 65.9587 130.192 66.4304 130.069C66.902 129.946 67.3958 129.934 67.8729 130.034C67.9348 130.047 67.989 130.084 68.0236 130.137C68.0581 130.19 68.0702 130.255 68.0571 130.317C68.044 130.379 68.0068 130.433 67.9538 130.468C67.9007 130.502 67.8361 130.514 67.7742 130.501C67.376 130.42 66.9647 130.429 66.5706 130.528C66.1766 130.627 65.8098 130.814 65.4975 131.074C65.4754 131.099 65.4481 131.119 65.4174 131.133C65.3867 131.146 65.3534 131.153 65.3198 131.153Z"/><path fill="#263238" d="M74.0842 131.251C74.0321 131.253 73.9809 131.237 73.9394 131.205C73.6761 130.964 73.3623 130.784 73.0208 130.68C72.6793 130.575 72.3188 130.548 71.9654 130.6C71.9352 130.608 71.9036 130.61 71.8726 130.606C71.8415 130.602 71.8115 130.592 71.7843 130.577C71.7571 130.561 71.7332 130.54 71.7141 130.516C71.6949 130.491 71.6808 130.462 71.6726 130.432C71.6644 130.402 71.6623 130.37 71.6662 130.339C71.6702 130.308 71.6803 130.278 71.6959 130.251C71.7115 130.224 71.7323 130.2 71.7571 130.181C71.7819 130.162 71.8102 130.148 71.8404 130.139C72.2669 130.064 72.705 130.087 73.1213 130.207C73.5375 130.326 73.9209 130.54 74.2421 130.83C74.2909 130.87 74.3222 130.928 74.3296 130.99C74.3369 131.053 74.3197 131.116 74.2816 131.166C74.2578 131.195 74.2275 131.217 74.1932 131.232C74.1589 131.247 74.1215 131.254 74.0842 131.251Z"/><path fill="#263238" d="M60.5362 134.995C60.5362 134.995 63.5301 130.626 63.4314 127.047C63.4314 127.047 74.8871 123.441 74.4989 134.732C74.4989 134.732 76.4071 124.862 66.8201 123.816C57.233 122.77 56.121 136.864 60.7336 141.47C60.7336 141.47 58.7003 137.733 60.5362 134.995Z"/><path fill="#E4897B" d="M61.3717 136.252C61.3717 135.601 61.1133 134.976 60.6532 134.514C60.1931 134.053 59.5688 133.793 58.9173 133.791C57.167 133.837 56.0484 137.325 60.286 138.542C60.8913 138.713 61.2927 138.141 61.3717 136.252Z"/><path fill="#263238" d="M70.8864 139.496C70.4767 140.047 70.1093 140.627 69.7876 141.233C69.6757 141.194 69.5573 141.161 69.4454 141.115C67.8991 140.569 67.3596 139.799 67.2345 139.141C67.1756 138.807 67.2005 138.463 67.3069 138.141C67.3617 137.955 67.4414 137.778 67.5438 137.614C68.3478 138.378 69.3089 138.958 70.36 139.312C70.6759 139.43 70.8864 139.496 70.8864 139.496Z"/><path fill="#fff" d="M70.36 139.299L70.0244 139.805C68.5637 139.286 67.6096 138.726 67.3069 138.127C67.3617 137.942 67.4414 137.765 67.5438 137.601C68.3478 138.365 69.3089 138.945 70.36 139.299Z"/><path fill="#DE5753" d="M69.4455 141.115C67.8992 140.568 67.3596 139.799 67.2346 139.141C67.8196 139.356 68.3611 139.675 68.8336 140.082C69.1399 140.354 69.3537 140.715 69.4455 141.115Z"/><path fill="#263238" d="M67.3005 126.501C67.3005 126.501 64.2802 135.509 58.503 134.89C52.7258 134.272 62.6287 123.388 62.6287 123.388C62.6287 123.388 72.3736 120.605 76.6177 126.02C80.8618 131.436 74.5187 134.719 74.5187 134.719C74.5187 134.719 75.4662 127.652 67.3005 126.501Z"/><path fill="#263238" d="M62.6943 134.166C62.661 134.165 62.6286 134.154 62.6008 134.136C62.573 134.117 62.5507 134.091 62.5364 134.061C62.5214 134.019 62.5233 133.973 62.5417 133.932C62.5601 133.892 62.5937 133.86 62.6351 133.844C67.2411 132.087 67.1358 125.908 67.1358 125.843C67.1339 125.821 67.1367 125.799 67.1438 125.779C67.151 125.759 67.1625 125.74 67.1774 125.725C67.1924 125.709 67.2105 125.697 67.2306 125.689C67.2506 125.681 67.2722 125.677 67.2938 125.678C67.3365 125.679 67.3774 125.696 67.4088 125.725C67.4402 125.754 67.4601 125.794 67.4648 125.836C67.4648 125.902 67.5701 132.311 62.7536 134.153L62.6943 134.166Z"/><path fill="#263238" d="M72.821 134.502L74.0318 134.114C74.0318 134.114 73.3803 135.068 72.821 134.502Z"/><path fill="#263238" d="M73.242 134.364C73.0164 134.252 72.7578 134.228 72.5152 134.294C72.2726 134.361 72.0629 134.515 71.926 134.726C72.1295 134.624 72.3525 134.568 72.5797 134.562C72.8069 134.555 73.0328 134.597 73.242 134.686V134.364Z"/><path fill="#407BFF" d="M64.2866 149.452L69.1756 151.939L69.0966 156.894L62.1086 152.821L64.2866 149.452Z"/><path fill="#407BFF" d="M69.9192 148.517L70.2087 151.524L73.4 154.9L72.9657 149.346L69.9192 148.517Z"/><path fill="#E4897B" d="M47.3302 114.492L45.2904 109.228C45.3276 108.947 45.2988 108.66 45.2063 108.392C45.1138 108.124 44.9601 107.88 44.7574 107.682C43.3361 106.622 40.4014 105.662 39.6645 105.774C38.5919 105.931 36.3745 107.873 36.5653 109.142C36.7561 110.412 43.0203 111.195 43.0203 111.195L45.0995 116.966L47.3302 114.492Z"/><path fill="#407BFF" d="M56.1144 161.414C56.1144 161.414 60.0624 158.275 58.4898 151.34L54.2457 132.153L46.955 112.334L43.3887 114.137C43.3887 114.137 49.3765 133.502 49.9292 134.811C50.2121 135.469 51.3373 145.517 52.8704 152.248C54.2786 158.446 56.1144 161.414 56.1144 161.414Z"/><path fill="#fff" d="M56.1144 161.414C56.1144 161.414 60.0624 158.275 58.4898 151.34L54.2457 132.153L46.955 112.334L43.3887 114.137C43.3887 114.137 49.3765 133.502 49.9292 134.811C50.2121 135.469 51.3373 145.517 52.8704 152.248C54.2786 158.446 56.1144 161.414 56.1144 161.414Z" opacity=".6"/><path fill="#407BFF" d="M42.7634 113.571L46.9286 111.485L47.8366 112.873L42.9674 115.031L42.7634 113.571Z"/><path fill="#fff" d="M42.7634 113.571L46.9286 111.485L47.8366 112.873L42.9674 115.031L42.7634 113.571Z" opacity=".7"/><path fill="#fff" d="M64.2866 149.452L69.1756 151.939L69.0966 156.894L62.1086 152.821L64.2866 149.452Z" opacity=".6"/><path fill="#fff" d="M69.9192 148.517L70.2087 151.524L73.4 154.9L72.9657 149.346L69.9192 148.517Z" opacity=".6"/><path fill="#fff" d="M208.757 139.108H189.043V154.426H208.757V139.108Z"/><path fill="#000" d="M208.757 139.108H203.704V154.426H208.757V139.108Z" opacity=".1"/><path fill="#407BFF" d="M187.912 167.955H210.198V140.154H203.019L187.912 147.385V167.955Z"/><path fill="#000" d="M210.198 140.154H203.019V167.955H210.198V140.154Z" opacity=".2"/><path fill="#fff" d="M200.644 152.867H190.208V157.867H200.644V152.867Z" opacity=".7"/><path fill="#fff" d="M200.644 159.539H190.208V160.256H200.644V159.539Z" opacity=".7"/><path fill="#fff" d="M209.501 161.638H203.704V165.882H209.501V161.638Z" opacity=".7"/><path fill="#fff" d="M200.381 138.272H180.667V154.426H200.381V138.272Z"/><path fill="#000" d="M200.381 138.272H195.327V154.426H200.381V138.272Z" opacity=".1"/><path fill="#407BFF" d="M179.535 167.955H201.822V140.154H194.643L179.535 147.385V167.955Z"/><path fill="#000" d="M201.822 140.154H194.643V167.955H201.822V140.154Z" opacity=".2"/><path fill="#fff" d="M192.267 152.867H181.832V157.867H192.267V152.867Z" opacity=".7"/><path fill="#fff" d="M192.267 159.539H181.832V160.256H192.267V159.539Z" opacity=".7"/><path fill="#fff" d="M201.124 161.638H195.327V165.882H201.124V161.638Z" opacity=".7"/><path fill="#263238" d="M165.691 273.504H169.724L176.962 172.666H171.613L165.691 273.504Z"/><path fill="#fff" d="M165.691 273.504H169.724L176.607 177.673L176.962 172.83H171.613L171.33 177.673L165.691 273.504Z" opacity=".1"/><path fill="#000" d="M171.33 177.436H176.607L176.963 172.83H171.613L171.33 177.436Z" opacity=".2"/><path fill="#263238" d="M136.107 273.504H140.141L140.799 172.666H135.449L136.107 273.504Z"/><path fill="#fff" d="M135.443 172.83L135.554 189.096L136.101 273.504H140.134L140.687 189.096L140.792 172.83H135.443Z" opacity=".1"/><path fill="#000" d="M135.443 172.83L135.554 189.28H140.687L140.792 172.83H135.443Z" opacity=".2"/><path fill="#263238" d="M93.311 273.504H97.3446L104.583 172.666H99.233L93.311 273.504Z"/><path fill="#fff" d="M93.311 273.504H97.3446L104.234 177.673L104.583 172.83H99.233L98.9501 177.673L93.311 273.504Z" opacity=".1"/><path fill="#000" d="M98.95 177.436H104.234L104.582 172.83H99.2329L98.95 177.436Z" opacity=".2"/><path fill="#263238" d="M211.804 273.504H215.837L209.909 172.666H204.559L211.804 273.504Z"/><path fill="#fff" d="M204.559 172.83L204.921 177.673L211.804 273.504H215.831L210.198 177.673L209.909 172.83H204.559Z" opacity=".1"/><path fill="#000" d="M209.909 172.83H204.559L204.921 177.436H210.198L209.909 172.83Z" opacity=".2"/><path fill="#407BFF" d="M212.732 175.193L96.4235 175.193C96.2368 175.193 96.052 175.156 95.8796 175.084C95.7071 175.013 95.5505 174.908 95.4185 174.776C95.2865 174.644 95.1818 174.488 95.1104 174.315C95.0389 174.143 95.0022 173.958 95.0022 173.771V170.146H214.153V173.771C214.153 173.958 214.116 174.143 214.045 174.315C213.973 174.488 213.869 174.644 213.737 174.776C213.605 174.908 213.448 175.013 213.275 175.084C213.103 175.156 212.918 175.193 212.732 175.193Z"/><path fill="#fff" d="M212.732 175.193L96.4235 175.193C96.2368 175.193 96.052 175.156 95.8796 175.084C95.7071 175.013 95.5505 174.908 95.4185 174.776C95.2865 174.644 95.1818 174.488 95.1104 174.315C95.0389 174.143 95.0022 173.958 95.0022 173.771V170.146H214.153V173.771C214.153 173.958 214.116 174.143 214.045 174.315C213.973 174.488 213.869 174.644 213.737 174.776C213.605 174.908 213.448 175.013 213.275 175.084C213.103 175.156 212.918 175.193 212.732 175.193Z" opacity=".4"/><path fill="#000" d="M95.0022 172.666L214.153 172.666V170.139L95.0022 170.139V172.666Z" opacity=".2"/><path fill="#407BFF" d="M92.5016 170.797H216.646C216.833 170.798 217.019 170.762 217.191 170.691C217.364 170.62 217.521 170.515 217.653 170.383C217.786 170.251 217.89 170.094 217.961 169.921C218.032 169.748 218.069 169.563 218.068 169.376C218.068 168.999 217.918 168.637 217.651 168.371C217.385 168.104 217.023 167.955 216.646 167.955H92.5016C92.124 167.955 91.7618 168.104 91.4943 168.37C91.2267 168.637 91.0755 168.998 91.0737 169.376C91.0737 169.563 91.1107 169.748 91.1825 169.921C91.2544 170.094 91.3597 170.251 91.4923 170.383C91.625 170.515 91.7825 170.62 91.9557 170.691C92.1289 170.762 92.3144 170.798 92.5016 170.797Z"/><path fill="#fff" d="M92.5016 170.797H216.646C216.833 170.798 217.019 170.762 217.191 170.691C217.364 170.62 217.521 170.515 217.653 170.383C217.786 170.251 217.89 170.094 217.961 169.921C218.032 169.748 218.069 169.563 218.068 169.376C218.068 168.999 217.918 168.637 217.651 168.371C217.385 168.104 217.023 167.955 216.646 167.955H92.5016C92.124 167.955 91.7618 168.104 91.4943 168.37C91.2267 168.637 91.0755 168.998 91.0737 169.376C91.0737 169.563 91.1107 169.748 91.1825 169.921C91.2544 170.094 91.3597 170.251 91.4923 170.383C91.625 170.515 91.7825 170.62 91.9557 170.691C92.1289 170.762 92.3144 170.798 92.5016 170.797Z" opacity=".4"/><path fill="#407BFF" d="M189.971 167.941V165.717H191.465L189.971 164.849H191.09L189.596 163.875H188.181V162.756H189.826L188.181 162.105V159.677H189.826V158.091H191.465L189.826 157.538V156.407H190.998L190.037 155.453L189.208 154.617H163.783V155.755H162.105L163.974 156.598V157.538H160.545V159.289H159.025L160.545 160.052V162.006H161.624V162.941H163.783V165.717H162.572L163.566 166.711V167.955L189.971 167.941Z"/><path fill="#fff" d="M189.971 167.941V165.717H191.465L189.971 164.849H191.09L189.596 163.875H188.181V162.756H189.826L188.181 162.105V159.677H189.826V158.091H191.465L189.826 157.538V156.407H190.998L190.037 155.453L189.208 154.617H163.783V155.755H162.105L163.974 156.598V157.538H160.545V159.289H159.025L160.545 160.052V162.006H161.624V162.941H163.783V165.717H162.572L163.566 166.711V167.955L189.971 167.941Z" opacity=".7"/><path fill="#000" d="M189.971 167.941V165.717H191.465L189.971 164.849H191.09L189.596 163.875H188.181V162.756H189.826L188.181 162.105V159.677H189.826V158.091H191.465L189.826 157.538V156.407H190.998L190.037 155.453L189.208 154.617H175.818V155.755H174.14L176.002 156.598V157.538H172.574V159.289H171.054L172.574 160.052V162.006H173.653V162.941H175.818V165.717H174.607L175.594 166.711V167.955L189.971 167.941Z" opacity=".1"/><path fill="#000" d="M163.974 157.539H176.002L163.974 157.104V157.539Z" opacity=".1"/><path fill="#000" d="M163.783 162.941H175.818L175.87 163.783L163.783 162.941Z" opacity=".1"/><path fill="#000" d="M161.625 162.006H173.653L161.625 162.427V162.006Z" opacity=".1"/><path fill="#000" d="M163.783 165.717H175.818L163.783 165.277V165.717Z" opacity=".1"/><path fill="#000" d="M163.566 166.711H175.594V167.172L163.566 166.711Z" opacity=".1"/><path fill="#000" d="M160.545 159.289H172.574L160.545 158.907V159.289Z" opacity=".1"/><path fill="#000" d="M163.783 155.755H175.818L163.783 155.334V155.755Z" opacity=".1"/><path fill="#000" d="M189.826 156.407H177.62L189.826 156.782V156.407Z" opacity=".1"/><path fill="#000" d="M176.002 157.538H189.826L177.291 157.946L176.002 157.538Z" opacity=".1"/><path fill="#000" d="M172.573 159.289L189.826 159.677V159.289H172.573Z" opacity=".1"/><path fill="#000" d="M172.573 160.052H181.108L172.573 160.467V160.052Z" opacity=".1"/><path fill="#000" d="M188.181 162.105L175.818 162.006L188.181 161.73V162.105Z" opacity=".1"/><path fill="#000" d="M188.181 162.756H175.594L188.181 163.177V162.756Z" opacity=".1"/><path fill="#000" d="M189.971 164.849H176.002V165.277L189.971 164.849Z" opacity=".1"/><path fill="#000" d="M189.971 165.717H179.851L189.971 166V165.717Z" opacity=".1"/><path fill="#263238" d="M157.598 165.073V167.185C157.598 167.724 156.94 167.948 156.42 167.948H114.229C113.689 167.948 113.038 167.724 113.038 167.185V165.073H157.598Z"/><path fill="#fff" d="M157.598 165.073V167.185C157.598 167.724 156.94 167.948 156.42 167.948H114.229C113.689 167.948 113.038 167.724 113.038 167.185V165.073H157.598Z" opacity=".4"/><path fill="#000" d="M157.597 165.073V167.185C157.597 167.724 156.939 167.948 156.42 167.948H128.593C128.053 167.948 127.408 167.724 127.408 167.185V165.073H157.597Z" opacity=".2"/><path fill="#263238" d="M164.658 143.148L159.631 165.935C159.544 166.304 159.337 166.635 159.041 166.873C158.745 167.112 158.379 167.244 157.999 167.251H130.567C130.396 167.247 130.229 167.204 130.077 167.124C129.926 167.045 129.795 166.932 129.695 166.793C129.595 166.655 129.529 166.495 129.501 166.327C129.473 166.159 129.484 165.986 129.534 165.823L134.548 143.214C134.651 142.869 134.869 142.569 135.166 142.366C135.463 142.162 135.821 142.067 136.18 142.095H163.618C164.355 142.069 164.816 142.405 164.658 143.148Z"/><path fill="#fff" d="M164.658 143.148L159.631 165.935C159.544 166.304 159.337 166.635 159.041 166.873C158.746 167.112 158.379 167.244 157.999 167.251H131.495C131.324 167.247 131.157 167.204 131.005 167.124C130.854 167.045 130.723 166.932 130.623 166.793C130.523 166.655 130.457 166.495 130.429 166.327C130.401 166.159 130.412 165.986 130.462 165.823L135.482 143.214C135.584 142.868 135.802 142.568 136.099 142.364C136.396 142.16 136.755 142.065 137.114 142.095H163.618C164.355 142.069 164.816 142.404 164.658 143.148Z" opacity=".4"/><path fill="#000" d="M151.129 154.729C151.129 156.703 149.037 158.262 147.504 158.262C145.971 158.262 145.063 156.676 145.53 154.729C145.997 152.781 147.504 151.261 148.991 151.202C148.557 153.176 149.491 154.729 151.017 154.729H151.129Z" opacity=".2"/></svg>