<svg fill="none" height="32" viewBox="0 0 32 32" width="32" xmlns="http://www.w3.org/2000/svg" xmlns:xlink="http://www.w3.org/1999/xlink"><clipPath id="a"><path d="m0 0h32v32h-32z"/></clipPath><g clip-path="url(#a)"><path d="m21.3333 14.6667-5.4 2.84-2.6 9.16-2.6-9.16-5.39997-2.84 5.39997-2.84 2.6-9.15995 2.6 9.14665zm4.6667 13.3334 1.3333 2.6666 1.3334-2.6666-1.3334-2.6667zm-18-21.33335-2-4-2 4 2 3.99995zm12 15.33335 2.6667 4.6666 2.6666-4.6666-2.6666-4.6654z" fill="#9688f2"/><path d="m6 10.6667-2-3.99995 2-4 2 4zm16.6667 6.668 2.6666 4.6654-2.6666 4.6666-2.6667-4.6666z" fill="#fff" opacity=".4"/></g></svg>