<svg
        aria-hidden="true"
        width="32"
        height="32"
        viewBox="0 0 32 32"
        fill="none"
        xmlns="http://www.w3.org/2000/svg"
>
    <rect width="32" height="32" fill="white"/>
    <path
            d="M18.3242 7.63647H13.6516C13.4955 7.63647 13.3704 7.76611 13.367 7.92726C13.2726 12.4568 10.9768 16.7559 7.02532 19.8009C6.89986 19.8976 6.87128 20.0792 6.963 20.21L9.69685 24.112C9.78986 24.2448 9.97107 24.2747 10.0986 24.1772C12.5694 22.2856 14.5567 20.0038 15.9879 17.4746C17.4191 20.0038 19.4065 22.2856 21.8773 24.1772C22.0047 24.2747 22.186 24.2448 22.2791 24.112L25.013 20.21C25.1045 20.0792 25.0759 19.8976 24.9506 19.8009C20.999 16.7559 18.7033 12.4568 18.609 7.92726C18.6056 7.76611 18.4803 7.63647 18.3242 7.63647Z"
            fill="#f36a3d"
    />
</svg>