<svg xmlns="http://www.w3.org/2000/svg" width="16" height="16" fill="none" viewBox="0 0 16 16"><path fill="currentColor" d="m2.78335 13.3337v-1h2.16667l-.25-.2c-.71111-.5667-1.22778-1.1834-1.55-1.85-.32222-.66671-.48333-1.41115-.48333-2.23337 0-1.17778.34722-2.23612 1.04166-3.175.69445-.93889 1.60834-1.58612 2.74167-1.94167v1.03333c-.83333.32222-1.50556.85834-2.01667 1.60834s-.76666 1.575-.76666 2.475c0 .7.13055 1.30833.39166 1.825s.61389.96387 1.05834 1.34167l.5.35v-2.06667h1v3.83337zm6.78334-.25v-1.05c.84441-.3223 1.51671-.8584 2.01671-1.6084.5-.74997.75-1.57497.75-2.47497 0-.53334-.1306-1.075-.3917-1.625s-.6028-1.03612-1.025-1.45834l-.4833-.43333v2.06667h-1.00005v-3.83334h3.83335v1h-2.1833l.25.23334c.6666.62222 1.1666 1.28888 1.5 2 .3333.71111.5 1.39444.5 2.05 0 1.17777-.3445 2.23887-1.0334 3.18337-.6889.9444-1.6 1.5944-2.73331 1.95z"/></svg>