<svg xmlns="http://www.w3.org/2000/svg" width="16" height="16" fill="none" viewBox="0 0 16 16"><g stroke="currentColor" stroke-linecap="round" stroke-linejoin="round" stroke-width="1.143"><path d="m15.12 7.23443c.1895.21.2944.48283.2944.76571s-.1049.55571-.2944.76571c-1.2 1.29145-3.9314 3.80575-7.12 3.80575-3.18857 0-5.92-2.5143-7.12-3.80575-.189531-.21-.294444-.48283-.294444-.76571s.104913-.55571.294444-.76571c1.2-1.29143 3.93143-3.80572 7.12-3.80572 3.1886 0 5.92 2.51429 7.12 3.80572z"/><path d="m8.00001 10.2858c1.26236 0 2.28569-1.02336 2.28569-2.28573s-1.02333-2.28571-2.28569-2.28571c-1.26237 0-2.28572 1.02334-2.28572 2.28571s1.02335 2.28573 2.28572 2.28573z"/></g></svg>