<svg xmlns="http://www.w3.org/2000/svg" width="24" height="24" fill="none" viewBox="0 0 24 24"><path fill="currentColor" d="M12 20.9754L10.975 20.0504C8.25833 17.5671 6.08333 15.4004 4.45 13.5504C2.81667 11.7004 2 9.82539 2 7.92539C2 6.42539 2.50417 5.17122 3.5125 4.16289C4.52083 3.15456 5.76667 2.65039 7.25 2.65039C8.1 2.65039 8.94167 2.85456 9.775 3.26289C10.6083 3.67122 11.35 4.34206 12 5.27539C12.7333 4.34206 13.4917 3.67122 14.275 3.26289C15.0583 2.85456 15.8833 2.65039 16.75 2.65039C18.2333 2.65039 19.4792 3.15456 20.4875 4.16289C21.4958 5.17122 22 6.42539 22 7.92539C22 9.82539 21.1833 11.7004 19.55 13.5504C17.9167 15.4004 15.7417 17.5671 13.025 20.0504L12 20.9754Z"/></svg>