<svg width="24" height="24" viewBox="0 0 24 24" fill="none" xmlns="http://www.w3.org/2000/svg">
<g clip-path="url(#clip0_6055_20493)">
<path fill-rule="evenodd" clip-rule="evenodd" d="M9.52631 1.18154L8.73246 3.23078L6.00016 4.78154L3.82169 4.44922C3.45895 4.39999 3.08976 4.45971 2.76105 4.62079C2.43232 4.78186 2.15891 5.03702 1.97555 5.35385L1.23708 6.64615C1.04785 6.96802 0.960665 7.33971 0.987032 7.71216C1.0134 8.08461 1.15208 8.4403 1.38477 8.73232L2.76938 10.4492V13.5508L1.42169 15.2677C1.189 15.5597 1.05032 15.9154 1.02396 16.2878C0.997589 16.6603 1.08477 17.032 1.274 17.3539L2.01245 18.6461C2.19583 18.9629 2.46924 19.2182 2.79797 19.3791C3.12669 19.5403 3.49588 19.5999 3.85862 19.5507L6.03708 19.2185L8.73246 20.7693L9.52631 22.8185C9.66019 23.1655 9.89573 23.4639 10.2021 23.6746C10.5085 23.8855 10.8713 23.999 11.2432 24H12.794C13.1659 23.999 13.5288 23.8855 13.8351 23.6746C14.1415 23.4639 14.377 23.1655 14.5109 22.8185L15.3048 20.7693L18.0001 19.2185L20.1787 19.5507C20.5414 19.5999 20.9105 19.5403 21.2393 19.3791C21.5679 19.2182 21.8413 18.9629 22.0248 18.6461L22.7633 17.3539C22.9525 17.032 23.0396 16.6603 23.0132 16.2878C22.9868 15.9154 22.8483 15.5597 22.6155 15.2677L21.2309 13.5508V10.4492L22.5787 8.73232C22.8113 8.4403 22.95 8.08461 22.9764 7.71216C23.0028 7.33971 22.9155 6.96802 22.7263 6.64615L21.9879 5.35385C21.8045 5.03702 21.5311 4.78186 21.2024 4.62079C20.8736 4.45971 20.5044 4.39999 20.1416 4.44922L17.9633 4.78154L15.2678 3.23078L14.474 1.18154C14.3401 0.834579 14.1046 0.536143 13.7982 0.325315C13.4919 0.114487 13.129 0.00109857 12.7571 0H11.2432C10.8713 0.00109857 10.5085 0.114487 10.2021 0.325315C9.89573 0.536143 9.66019 0.834579 9.52631 1.18154ZM12.0002 15.8571C14.1304 15.8571 15.8573 14.1302 15.8573 12C15.8573 9.86976 14.1304 8.14286 12.0002 8.14286C9.86992 8.14286 8.14303 9.86976 8.14303 12C8.14303 14.1302 9.86992 15.8571 12.0002 15.8571Z" fill="#464646"/>
</g>
<defs>
<clipPath id="clip0_6055_20493">
<rect width="24" height="24" fill="white"/>
</clipPath>
</defs>
</svg>
