<svg fill="none" height="24" viewBox="0 0 25 24" width="25" xmlns="http://www.w3.org/2000/svg"><path d="m21.5 10.8278v8.6719c-.0006.2707-.0741.5363-.2126.7688-.1386.2326-.3371.4236-.5749.5531-.218.1202-.4635.1816-.7125.1781h-4.5c-.1989 0-.3897-.079-.5303-.2197-.1407-.1406-.2197-.3314-.2197-.5303v-4.5c0-.1989-.079-.3897-.2197-.5303-.1406-.1407-.3314-.2197-.5303-.2197h-3c-.1989 0-.3897.079-.5303.2197-.1407.1406-.2197.3314-.2197.5303v4.5c0 .1989-.079.3897-.2197.5303-.1406.1407-.33137.2197-.53028.2197h-4.5c-.21279.0008-.42328-.0439-.61733-.1313-.19405-.0873-.36715-.2151-.50767-.3749-.24385-.2881-.37683-.6538-.375-1.0313v-8.6344c.00006-.2081.04344-.4139.12737-.6044.08393-.1904.20657-.36132.36013-.50181l7.49998-6.81562c.2765-.25298.6377-.39327 1.0125-.39327s.736.14029 1.0125.39327l7.5 6.81562c.1536.14049.2762.31141.3601.50181.084.1905.1274.3963.1274.6044z" fill="currentColor"/></svg>
