<svg
    aria-hidden="true"
    width="32"
    height="32"
    viewBox="0 0 32 32"
    fill="none"
    xmlns="http://www.w3.org/2000/svg"
>
    <rect width="32" height="32" fill="url(#gradient1)" />

    <path
        d="M26.8543 9.96509C27.5498 19.3857 21.4942 23.8384 16.0655 24.3132C11.0184 24.7546 6.26765 21.6534 5.85087 16.8885C5.50707 12.952 7.94004 11.2761 9.8516 11.109C11.8177 10.9367 13.4698 12.2925 13.6132 13.9342C13.7512 15.5125 12.7664 16.2308 12.0815 16.2906C11.5398 16.3381 10.8584 16.0093 10.7968 15.3032C10.7441 14.6965 10.9744 14.6138 10.9182 13.9693C10.8179 12.8219 9.81731 12.6882 9.26951 12.7357C8.60654 12.7937 7.40368 13.5675 7.5725 15.4949C7.7422 17.439 9.60628 18.9751 12.0498 18.7614C14.6868 18.531 16.5227 16.4779 16.6608 13.5983C16.6595 13.4458 16.6916 13.2948 16.7548 13.156L16.7557 13.1525C16.7841 13.0922 16.8174 13.0342 16.8551 12.9793C16.9113 12.8949 16.9835 12.8016 17.0767 12.6997C17.0775 12.697 17.0775 12.697 17.0793 12.697C17.147 12.6205 17.2288 12.5379 17.3211 12.4491C18.473 11.3623 22.6214 8.79916 26.5448 9.61074C26.6277 9.62851 26.7026 9.67262 26.7584 9.73649C26.8142 9.80035 26.8478 9.88054 26.8543 9.96509"
        fill="white"
    />

    <defs>
        <linearGradient id="gradient1" gradientTransform="rotate(90)">
            <stop offset="0%" stop-color="#11C4D1" />
            <stop offset="100%" stop-color="#0062AD" />
        </linearGradient>
    </defs>
</svg>