<svg width="24" height="24" viewBox="0 0 24 24" fill="none" xmlns="http://www.w3.org/2000/svg">
<path d="M11.5849 21.7196C10.344 23.8684 7.58666 24.6071 5.43753 23.367C3.28841 22.1261 2.54966 19.3687 3.79016 17.2196L5.66516 13.9721C6.90566 11.8234 9.66303 11.0842 11.8122 12.3247C13.9609 13.5656 14.7 16.323 13.4595 18.4721L11.5849 21.7196ZM8.26353 15.4721L6.38853 18.7196C5.97453 19.437 6.22016 20.3542 6.93753 20.7686C7.65491 21.183 8.57216 20.937 8.98653 20.2196L10.8615 16.9717C11.2755 16.2547 11.0299 15.3375 10.3125 14.9231C9.59516 14.5087 8.67791 14.7547 8.26353 15.4721ZM18.3345 10.0282C17.094 12.1774 14.3367 12.9157 12.1875 11.6752C10.0388 10.4344 9.29966 7.677 10.5402 5.52825L12.4155 2.28037C13.656 0.131624 16.4138 -0.607126 18.5625 0.633374C20.7113 1.87425 21.4504 4.63162 20.2099 6.78037L18.3345 10.0282ZM15.0135 3.78075L13.1382 7.02862C12.7242 7.746 12.9702 8.66325 13.6875 9.07762C14.4049 9.492 15.3225 9.246 15.7365 8.52862L17.6119 5.28075C18.0259 4.56337 17.7799 3.64612 17.0625 3.23175C16.3452 2.81737 15.4279 3.063 15.0135 3.78075Z" fill="#A6A69F"/>
<g opacity="0.3">
<path d="M15.0135 3.78075C15.9206 2.2095 17.937 1.6695 19.5079 2.57663C20.0587 2.89463 20.4795 3.35025 20.7592 3.87413C20.5639 2.562 19.7981 1.347 18.5625 0.633751C16.4137 -0.607124 13.656 0.132001 12.4155 2.28075L3.79011 17.2196C2.81286 18.9124 3.06824 20.9797 4.26974 22.389L15.0135 3.78075Z" fill="white"/>
</g>
<path d="M10.8615 16.9717C10.4475 17.6891 9.52987 17.9351 8.8125 17.5211C8.09512 17.1071 7.8495 16.1895 8.26388 15.4721L13.1385 7.02825C13.5525 6.31087 14.4705 6.06487 15.1879 6.47925C15.9052 6.89325 16.1509 7.81087 15.7369 8.52825L10.8615 16.9717Z" fill="#A6A69F"/>
</svg>
