<svg width="24" height="24" viewBox="0 0 24 24" fill="none" xmlns="http://www.w3.org/2000/svg">
<g clip-path="url(#clip0_6168_21086)">
<path d="M18 8.00006H17V6.00006C17 4.27106 15.955 1.00006 12 1.00006C8.045 1.00006 7 4.27106 7 6.00006V8.00006H6C4 8.00006 4 10.0001 4 10.0001V18.0001C4 18.0001 4 20.0001 6 20.0001H18C18 20.0001 20 20.0001 20 18.0001V10.0001C20 10.0001 20 8.00006 18 8.00006ZM9 8.00006V6.00506C9.006 5.50306 9.177 3.00006 12 3.00006C14.823 3.00006 14.994 5.50306 15 6.00006V8.00006H9Z" fill="currentColor"/>
<path opacity="0.5" d="M17 8.00006H15V6.00006C14.994 5.50306 14.823 3.00006 12 3.00006C9.177 3.00006 9.006 5.50306 9 6.00506V8.00006H7V6.00006C7 4.27106 8.045 1.00006 12 1.00006C15.955 1.00006 17 4.27106 17 6.00006V8.00006Z" fill="white"/>
</g>
<defs>
<clipPath id="clip0_6168_21086">
<rect width="24" height="24" fill="white"/>
</clipPath>
</defs>
</svg>
