<svg xmlns="http://www.w3.org/2000/svg" width="25" height="24" fill="none" viewBox="0 0 25 24"><path fill="currentColor" d="M12.5 14.4L13.725 11.725L16.4 10.5L13.725 9.275L12.5 6.6L11.275 9.275L8.6 10.5L11.275 11.725L12.5 14.4ZM4 18C3.6 18 3.25 17.85 2.95 17.55C2.65 17.25 2.5 16.9 2.5 16.5V4.5C2.5 4.1 2.65 3.75 2.95 3.45C3.25 3.15 3.6 3 4 3H21C21.4 3 21.75 3.15 22.05 3.45C22.35 3.75 22.5 4.1 22.5 4.5V16.5C22.5 16.9 22.35 17.25 22.05 17.55C21.75 17.85 21.4 18 21 18H4ZM1.5 21V19.5H23.5V21H1.5Z"/></svg>