<svg width="24" height="24" viewBox="0 0 24 24" fill="none" xmlns="http://www.w3.org/2000/svg">
<path d="M23.5519 18.7914C24.0942 19.7278 24.1467 20.7125 23.6961 21.4908C23.2461 22.2698 22.3656 22.716 21.2803 22.716H19.2351C19.2593 22.3368 19.2755 21.9544 19.2755 21.5692C19.2755 21.1378 19.2553 20.7118 19.2257 20.2871L20.571 20.2858C20.9017 20.2858 21.1692 20.0185 21.1692 19.689C21.1692 19.5858 21.1429 19.49 21.0971 19.4043L12.5228 4.58562C12.421 4.40543 12.2263 4.28352 12.0034 4.28352C11.7865 4.28352 11.5965 4.39873 11.4914 4.57155L10.1299 6.92467C14.2675 10.026 17.0491 14.8307 17.4297 20.2858C17.4593 20.7098 17.4795 21.1358 17.4795 21.5679C17.4795 21.953 17.4634 22.3348 17.4398 22.7146H10.7605C10.7968 22.3368 10.8177 21.955 10.8177 21.5679C10.8177 21.1345 10.7921 20.7071 10.745 20.2858C10.4149 17.2836 8.93687 14.623 6.76028 12.7455L5.82255 14.3652C7.46695 15.887 8.58926 17.9595 8.89443 20.2858C8.94967 20.7058 8.98066 21.1331 8.98066 21.5679C8.98066 21.955 8.95506 22.3382 8.91127 22.7146H2.71968C1.63441 22.7146 0.753939 22.2678 0.303935 21.4888C-0.146743 20.7105 -0.0941973 19.7265 0.448098 18.7894L1.71929 16.6232C2.44819 17.0123 3.10299 17.5194 3.66145 18.1196L2.90358 19.403C2.85845 19.488 2.8315 19.5845 2.8315 19.6876C2.8315 20.0172 3.09895 20.2838 3.42971 20.2838L6.43288 20.2851C6.18093 18.8537 5.51671 17.5623 4.5655 16.5394C4.00502 15.9386 3.35022 15.4302 2.62132 15.041L5.9748 9.24765C6.68887 9.64486 7.36455 10.1003 7.99645 10.6108C10.8864 12.9424 12.838 16.386 13.1917 20.2845H14.989C14.6226 15.7269 12.3193 11.7079 8.90117 9.04737C8.26052 8.54901 7.58215 8.09755 6.86941 7.69967L9.73179 2.75497C10.2734 1.81787 11.102 1.28 12.0034 1.28C12.9041 1.28 13.732 1.81787 14.2743 2.75497L23.5519 18.7914Z" fill="#352E56"/>
</svg>
