<svg width="24" height="24" viewBox="0 0 24 24" fill="none" xmlns="http://www.w3.org/2000/svg">
<g clip-path="url(#clip0_6202_20967)">
<path d="M11.505 10C12.887 10 14 11.294 14 12.675C14 14.054 12.887 15 11.505 15C10.123 15 9 13.881 9 12.5C9 11.119 10.123 10 11.505 10ZM22 12.5C22 12.5 19.345 5.59 12.355 5.052C12.074 5.021 11.79 5 11.5 5C11.21 5 10.926 5.021 10.645 5.052C3.655 5.59 1 12.5 1 12.5C1 12.5 3.655 19.41 10.645 19.947C10.926 19.979 11.21 20 11.5 20C11.79 20 12.074 19.979 12.355 19.947C19.345 19.41 22 12.5 22 12.5ZM7 12.5C7 10.02 9.02 8 11.5 8C13.98 8 16 10.02 16 12.5C16 14.98 13.98 17 11.5 17C9.02 17 7 14.98 7 12.5Z" fill="#808ABF"/>
<path opacity="0.4" d="M11.5 5C7.36 5 4 8.36 4 12.5C4 16.64 7.36 20 11.5 20C15.64 20 19 16.64 19 12.5C19 8.36 15.64 5 11.5 5ZM11.5 17C9.02 17 7 14.98 7 12.5C7 10.02 9.02 8 11.5 8C13.98 8 16 10.02 16 12.5C16 14.98 13.98 17 11.5 17Z" fill="white"/>
</g>
<defs>
<clipPath id="clip0_6202_20967">
<rect width="24" height="24" fill="white"/>
</clipPath>
</defs>
</svg>
