<svg width="24" height="24" viewBox="0 0 24 24" fill="none" xmlns="http://www.w3.org/2000/svg">
<path d="M13.4971 12C14.3157 12 15.0125 11.7135 15.5875 11.1404C16.1625 10.5674 16.45 9.87157 16.45 9.05295C16.45 8.23432 16.1635 7.5375 15.5904 6.9625C15.0174 6.3875 14.3216 6.1 13.5029 6.1C12.6843 6.1 11.9875 6.38652 11.4125 6.95955C10.8375 7.5326 10.55 8.22843 10.55 9.04705C10.55 9.86568 10.8365 10.5625 11.4095 11.1375C11.9826 11.7125 12.6784 12 13.4971 12ZM6.5 17.525C7.35 16.4417 8.38333 15.5833 9.6 14.95C10.8167 14.3167 12.1167 14 13.5 14C14.8833 14 16.1833 14.3167 17.4 14.95C18.6167 15.5833 19.65 16.4417 20.5 17.525V3.5H6.5V17.525ZM6.5 19C6.0875 19 5.73438 18.8531 5.44062 18.5594C5.14688 18.2656 5 17.9125 5 17.5V3.5C5 3.0875 5.14688 2.73438 5.44062 2.44063C5.73438 2.14688 6.0875 2 6.5 2H20.5C20.9125 2 21.2656 2.14688 21.5594 2.44063C21.8531 2.73438 22 3.0875 22 3.5V17.5C22 17.9125 21.8531 18.2656 21.5594 18.5594C21.2656 18.8531 20.9125 19 20.5 19H6.5ZM3.5 22C3.0875 22 2.73438 21.8531 2.44063 21.5594C2.14688 21.2656 2 20.9125 2 20.5V6.25H3.5V20.5H17.75V22H3.5ZM13.5 10.5C13.1 10.5 12.7583 10.3583 12.475 10.075C12.1917 9.79167 12.05 9.45 12.05 9.05C12.05 8.65 12.1917 8.30833 12.475 8.025C12.7583 7.74167 13.1 7.6 13.5 7.6C13.9 7.6 14.2417 7.74167 14.525 8.025C14.8083 8.30833 14.95 8.65 14.95 9.05C14.95 9.45 14.8083 9.79167 14.525 10.075C14.2417 10.3583 13.9 10.5 13.5 10.5ZM8.825 17.5H18.175C17.575 16.85 16.8708 16.3542 16.0625 16.0125C15.2542 15.6708 14.4 15.5 13.5 15.5C12.6 15.5 11.7458 15.6708 10.9375 16.0125C10.1292 16.3542 9.425 16.85 8.825 17.5Z" fill="white"/>
</svg>
