<svg width="24" height="24" viewBox="0 0 24 24" fill="none" xmlns="http://www.w3.org/2000/svg">
<g clip-path="url(#clip0_6169_21094)">
<path d="M22 6C22 4.896 21.104 4 20 4H4C2.896 4 2 4.896 2 6V17C2 18.104 2.896 19 4 19H20C21.104 19 22 18.104 22 17V6Z" fill="#5B89F7"/>
<path opacity="0.4" d="M20 8H14V6H20V8ZM20 12H14V10H20V12ZM4 15.75V17H14V15.75C14 14.09 10.67 13 9 13C7.33 13 4 14.09 4 15.75ZM6 9C6 10.66 7.34 12 9 12C10.66 12 12 10.66 12 9C12 7.34 10.66 6 9 6C7.34 6 6 7.34 6 9Z" fill="white"/>
</g>
<defs>
<clipPath id="clip0_6169_21094">
<rect width="24" height="24" fill="white"/>
</clipPath>
</defs>
</svg>
