<svg width="24" height="24" viewBox="0 0 24 24" fill="none" xmlns="http://www.w3.org/2000/svg">
<g clip-path="url(#clip0_6202_22076)">
<path d="M22 16.0001C22 19.3101 19.31 22.0001 16 22.0001C13.78 22.0001 11.84 20.7901 10.8 18.9901C10.7 19.0001 10.6 19.0001 10.5 19.0001C5.81 19.0001 2 15.1901 2 10.5001C2 5.81006 5.81 2.00006 10.5 2.00006C15.19 2.00006 19 5.81006 19 10.5001C19 10.6001 19 10.7001 18.99 10.8001C20.79 11.8401 22 13.7801 22 16.0001Z" fill="#5B89F7"/>
<path opacity="0.4" d="M19 10.5001C19 10.6001 19 10.7001 18.99 10.8001C18.11 10.2901 17.09 10.0001 16 10.0001C12.69 10.0001 10 12.6901 10 16.0001C10 17.0901 10.29 18.1101 10.8 18.9901C10.7 19.0001 10.6 19.0001 10.5 19.0001C5.81 19.0001 2 15.1901 2 10.5001C2 5.81006 5.81 2.00006 10.5 2.00006C15.19 2.00006 19 5.81006 19 10.5001Z" fill="white"/>
</g>
<defs>
<clipPath id="clip0_6202_22076">
<rect width="24" height="24" fill="white"/>
</clipPath>
</defs>
</svg>
