<svg xmlns="http://www.w3.org/2000/svg" xmlns:xlink="http://www.w3.org/1999/xlink" id="图层_1" x="0" y="0" version="1.1" viewBox="0 0 48 48" xml:space="preserve"><path fill="currentColor" d="M11,46c-0.8,0-1.5-0.3-2.1-0.9C8.3,44.5,8,43.8,8,43V17.5c0-0.8,0.3-1.5,0.9-2.1c0.6-0.6,1.3-0.9,2.1-0.9h8.5v3H11V43h26	V17.5h-8.5v-3H37c0.8,0,1.5,0.3,2.1,0.9c0.6,0.6,0.9,1.3,0.9,2.1V43c0,0.8-0.3,1.5-0.9,2.1C38.5,45.7,37.8,46,37,46H11z M22.5,30.6	V7.8l-4.4,4.4l-2.1-2.1L24,2l8,8.1l-2.1,2.2l-4.4-4.4v22.9L22.5,30.6z"/></svg>