<svg width="16" height="16" viewBox="0 0 16 16" fill="none" xmlns="http://www.w3.org/2000/svg">
<path d="M10.0455 8.52273C10.0455 9.08761 9.58761 9.54545 9.02273 9.54545H6.97727C6.41239 9.54545 5.95455 9.08761 5.95455 8.52273V6.47727C5.95455 5.91239 6.41239 5.45455 6.97727 5.45455H9.02273C9.58761 5.45455 10.0455 5.91239 10.0455 6.47727V8.52273ZM15.5 6.47727C15.5 5.91239 15.0422 5.45455 14.4773 5.45455H12.4318C11.8673 5.45455 11.4091 5.91239 11.4091 6.47727V8.52273C11.4091 9.08761 11.8673 9.54545 12.4318 9.54545H14.4773C15.0422 9.54545 15.5 9.08761 15.5 8.52273V6.47727ZM4.59091 6.47727C4.59091 5.91239 4.13307 5.45455 3.56818 5.45455H1.52273C0.958182 5.45455 0.5 5.91239 0.5 6.47727V8.52273C0.5 9.08761 0.958182 9.54545 1.52273 9.54545H3.56818C4.13307 9.54545 4.59091 9.08761 4.59091 8.52273V6.47727ZM10.0455 1.02273C10.0455 0.457841 9.58761 0 9.02273 0H6.97727C6.41239 0 5.95455 0.457841 5.95455 1.02273V3.06818C5.95455 3.63307 6.41239 4.09091 6.97727 4.09091H9.02273C9.58761 4.09091 10.0455 3.63307 10.0455 3.06818V1.02273ZM15.5 1.02273C15.5 0.457841 15.0422 0 14.4773 0H12.4318C11.8673 0 11.4091 0.457841 11.4091 1.02273V3.06818C11.4091 3.63307 11.8673 4.09091 12.4318 4.09091H14.4773C15.0422 4.09091 15.5 3.63307 15.5 3.06818V1.02273ZM4.59091 1.02273C4.59091 0.457841 4.13307 0 3.56818 0H1.52273C0.958182 0 0.5 0.457841 0.5 1.02273V3.06818C0.5 3.63307 0.958182 4.09091 1.52273 4.09091H3.56818C4.13307 4.09091 4.59091 3.63307 4.59091 3.06818V1.02273ZM10.0455 11.9318C10.0455 11.3673 9.58761 10.9091 9.02273 10.9091H6.97727C6.41239 10.9091 5.95455 11.3673 5.95455 11.9318V13.9773C5.95455 14.5422 6.41239 15 6.97727 15H9.02273C9.58761 15 10.0455 14.5422 10.0455 13.9773V11.9318ZM15.5 11.9318C15.5 11.3673 15.0422 10.9091 14.4773 10.9091H12.4318C11.8673 10.9091 11.4091 11.3673 11.4091 11.9318V13.9773C11.4091 14.5422 11.8673 15 12.4318 15H14.4773C15.0422 15 15.5 14.5422 15.5 13.9773V11.9318ZM4.59091 11.9318C4.59091 11.3673 4.13307 10.9091 3.56818 10.9091H1.52273C0.958182 10.9091 0.5 11.3673 0.5 11.9318V13.9773C0.5 14.5422 0.958182 15 1.52273 15H3.56818C4.13307 15 4.59091 14.5422 4.59091 13.9773V11.9318Z" fill="currentColor"/>
</svg>
