<svg
        aria-hidden="true"
        width="44"
        height="44"
        viewBox="0 0 44 44"
        fill="none"
        xmlns="http://www.w3.org/2000/svg"
>
    <rect
            width="44"
            height="44"
            fill="#fff"
    />
    <path
            fill-rule="evenodd"
            clip-rule="evenodd"
            d="M33.0246 11.8662C33.4096 11.8662 33.774 12.0243 34.0421 12.2925C34.3102 12.5675 34.4615 12.9387 34.4546 13.3168C34.3859 17.4143 34.2277 20.5493 33.9321 23.0312C33.6433 25.5131 33.2102 27.3556 32.5571 28.8475C32.1171 29.8443 31.574 30.6693 30.9346 31.3706C30.0752 32.2987 29.0921 32.9725 28.0196 33.6119C27.561 33.8861 27.0843 34.1568 26.5842 34.4408C25.5172 35.0468 24.3441 35.713 23.0146 36.6025C22.5333 36.9256 21.9077 36.9256 21.4265 36.6025C20.0766 35.7026 18.8879 35.0281 17.8112 34.4173C17.5718 34.2815 17.3379 34.1488 17.109 34.0175C15.8509 33.2887 14.7165 32.5943 13.7265 31.5906C13.0665 30.9306 12.4959 30.1262 12.0421 29.1706C11.4234 27.8918 11.004 26.345 10.6946 24.3443C10.2821 21.67 10.0759 18.1706 10.0002 13.3168C9.99336 12.9387 10.1377 12.5675 10.4059 12.2925C10.674 12.0243 11.0452 11.8662 11.4302 11.8662H12.0215C13.8433 11.8731 17.8652 11.6943 21.344 8.98559C21.8596 8.58683 22.5815 8.58683 23.0971 8.98559C26.5759 11.6943 30.5977 11.8731 32.4265 11.8662H33.0246ZM29.8277 27.9331C30.2746 27.0118 30.6459 25.74 30.9277 23.9112C31.2646 21.725 31.4709 18.755 31.5671 14.7125C29.4221 14.6506 25.7371 14.2381 22.224 11.8731C18.7109 14.2312 15.0259 14.6437 12.8877 14.7125C12.9633 18.0537 13.1146 20.6525 13.3552 22.6943C13.6302 25.0181 14.0221 26.5925 14.5102 27.6993C14.8333 28.435 15.1909 28.9643 15.6171 29.4318C16.1877 30.0575 16.9096 30.5731 17.8927 31.1643C18.3005 31.409 18.7502 31.6635 19.2396 31.9406C20.1116 32.4341 21.1099 32.9991 22.224 33.7081C23.3175 33.0107 24.3014 32.4515 25.1633 31.9616C25.4231 31.8139 25.6717 31.6725 25.909 31.5356C27.119 30.8412 28.0127 30.2637 28.6796 29.59C29.1265 29.1293 29.4909 28.6275 29.8277 27.9331Z"
            fill="#3375BB"
    />
</svg>