<svg xmlns="http://www.w3.org/2000/svg" width="25" height="24" fill="none" viewBox="0 0 25 24"><g clip-path="url(#clip0_2127_8217)"><path fill="#F2F2F2" d="M8.08861 21.75C17.143 21.75 22.0967 14.2467 22.0967 7.74186C22.0967 7.53092 22.092 7.3153 22.0827 7.10436C23.0463 6.40746 23.8779 5.54425 24.5385 4.5553C23.641 4.9546 22.6881 5.21538 21.7124 5.32874C22.7397 4.71291 23.509 3.74547 23.8775 2.60577C22.911 3.17856 21.854 3.58261 20.7519 3.80061C20.0093 3.01156 19.0274 2.48912 17.9581 2.31405C16.8888 2.13899 15.7916 2.32105 14.8362 2.8321C13.8807 3.34314 13.1203 4.15471 12.6723 5.14131C12.2243 6.12792 12.1139 7.23462 12.358 8.2903C10.4009 8.19209 8.48639 7.6837 6.73843 6.7981C4.99048 5.91249 3.44815 4.66944 2.21142 3.14952C1.58285 4.23324 1.39051 5.51565 1.67348 6.73609C1.95646 7.95654 2.69351 9.02345 3.73486 9.71999C2.95308 9.69517 2.18843 9.48468 1.50408 9.10592V9.16686C1.50338 10.3041 1.89655 11.4066 2.61676 12.2868C3.33697 13.167 4.33978 13.7706 5.4547 13.995C4.73051 14.1931 3.97043 14.222 3.2333 14.0794C3.54791 15.0574 4.16003 15.9129 4.98422 16.5263C5.80842 17.1398 6.80357 17.4806 7.8308 17.5012C6.08688 18.8711 3.93263 19.6141 1.71501 19.6106C1.32174 19.61 0.928851 19.5859 0.538452 19.5384C2.79131 20.9837 5.41198 21.7514 8.08861 21.75Z"/></g><defs><clipPath id="clip0_2127_8217"><rect width="24" height="24" fill="currentColor" transform="translate(0.538452)"/></clipPath></defs></svg>