<svg width="24" height="24" viewBox="0 0 24 24" fill="none" xmlns="http://www.w3.org/2000/svg">
<g clip-path="url(#clip0_1_20325)">
<path d="M10.4936 18.7196C10.4936 21.697 8.28759 23.8639 5.30459 23.8639C2.3216 23.8639 0.0615234 21.697 0.0615234 18.7196C0.0615234 15.7422 2.2657 13.6051 5.29342 13.6051C8.32113 13.6051 10.4936 15.772 10.4936 18.7196Z" fill="black"/>
<path d="M22.3585 18.8668V22.4647C21.4511 23.3273 19.9549 23.8807 18.3246 23.8807C14.9094 23.8807 12.735 21.9262 12.735 18.9059C12.735 15.8857 15.1423 13.6256 18.524 13.6256V18.8668H22.3585Z" fill="black"/>
<path d="M22.3027 4.00217L24 7.17522L15.515 11.7159L10.7209 2.75569L15.869 0L18.9656 5.78713L22.3027 4.00217Z" fill="url(#paint0_linear_1_20325)"/>
<path d="M0 11.7587L3.08175 6.11503L0.126698 1.52222H10.4302L7.4752 6.11503L10.5551 11.7587H0Z" fill="black"/>
</g>
<defs>
<linearGradient id="paint0_linear_1_20325" x1="10.7209" y1="5.85793" x2="24" y2="5.85793" gradientUnits="userSpaceOnUse">
<stop stop-color="#FF4D4D"/>
<stop offset="0.99" stop-color="#F9CB28"/>
</linearGradient>
<clipPath id="clip0_1_20325">
<rect width="24" height="24" fill="white"/>
</clipPath>
</defs>
</svg>
