<svg xmlns="http://www.w3.org/2000/svg" xmlns:xlink="http://www.w3.org/1999/xlink" width="550" height="537" fill="none" xmlns:v="https://vecta.io/nano"><style><![CDATA[.B{fill:#f6c549}.C{fill:#fff}.D{opacity:.2}.E{fill:#000}.F{opacity:.1}.G{opacity:.3}]]></style><g opacity=".8"><path d="M481.368 218.019c8.011-23.081-1.089-47.204-20.326-53.88s-41.324 6.622-49.334 29.703 1.09 47.204 20.326 53.88 41.324-6.623 49.334-29.703z" class="B"/><g class="D E"><path d="M481.369 218.018c8.01-23.08-1.09-47.203-20.326-53.879s-41.324 6.622-49.334 29.703 1.089 47.203 20.325 53.88 41.324-6.623 49.335-29.704z"/></g><path d="M474.622 215.686c8.01-23.081-1.09-47.204-20.326-53.88s-41.324 6.623-49.335 29.703 1.09 47.204 20.326 53.88 41.324-6.622 49.335-29.703z" class="B"/><g class="F C"><path d="M467.744 170.931c-3.607-4.181-8.248-7.343-13.46-9.168-19.24-6.686-41.321 6.612-49.335 29.698a50.1 50.1 0 0 0-1.712 27.565 76.67 76.67 0 0 0 31.732-5.124c9.999-3.932 18.335-10.259 23.359-19.922 3.474-6.637 8.448-14.949 9.416-23.049z"/></g><use xlink:href="#B" class="B"/><g class="D E"><use xlink:href="#B"/></g><use xlink:href="#C" class="B"/><g class="D C"><use xlink:href="#C"/></g><g class="C"><path d="M403.994 196.498c.003-.442.07-.88.198-1.303.174-.843.496-2.034.955-3.486a46.95 46.95 0 0 1 12.741-19.848c.878-.823 1.802-1.598 2.766-2.32.334-.292.705-.538 1.104-.732.062.087-1.402 1.241-3.548 3.375-5.621 5.537-9.935 12.258-12.628 19.674-1.03 2.791-1.489 4.64-1.588 4.64zm-.585 14.055c-.36-1.227-.507-2.507-.434-3.784a11.27 11.27 0 0 1 .224-3.796c.352 1.229.495 2.508.421 3.784a11.48 11.48 0 0 1-.211 3.796zm54.398-33.172c-.074.112-1.439-.831-3.858-1.836a26.26 26.26 0 0 0-4.454-1.377c-3.677-.806-7.486-.806-11.164 0-1.502.327-2.972.788-4.392 1.377-2.481 1.018-3.783 1.96-3.845 1.849.267-.281.572-.523.905-.72a9.54 9.54 0 0 1 1.154-.719c.471-.248.98-.571 1.6-.831 1.425-.661 2.913-1.177 4.441-1.539a24.83 24.83 0 0 1 11.45 0c1.531.357 3.023.864 4.454 1.514a15.93 15.93 0 0 1 1.612.831c.399.213.784.449 1.154.707a4.52 4.52 0 0 1 .943.744z"/></g><path d="M300.301 140.269c13.518-7.937 16.754-27.523 7.228-43.746s-28.206-22.941-41.724-15.004-16.753 27.523-7.228 43.746 28.207 22.941 41.724 15.004z" class="B"/><g class="D E"><path d="M300.301 140.269c13.518-7.937 16.754-27.523 7.228-43.746s-28.206-22.941-41.724-15.004-16.753 27.523-7.227 43.746 28.206 22.941 41.723 15.004z"/></g><path d="M295.562 143.043c13.518-7.937 16.754-27.523 7.228-43.747s-28.206-22.941-41.724-15.004-16.754 27.523-7.228 43.747 28.207 22.941 41.724 15.004z" class="B"/><g class="F C"><path d="M273.156 80.968c-4.249.036-8.414 1.182-12.083 3.325-13.522 7.939-16.759 27.527-7.232 43.753 3.612 6.258 8.907 11.376 15.283 14.775a58.62 58.62 0 0 0 12.901-21.164c2.705-7.815 3.151-15.866 0-23.644-2.22-5.359-4.614-12.43-8.869-17.045z"/></g><use xlink:href="#D" class="B"/><g class="D E"><use xlink:href="#D"/></g><use xlink:href="#E" class="B"/><g class="D C"><use xlink:href="#E"/></g><g class="C"><path d="M256.26 131.085s-.285-.248-.694-.757c-.57-.733-1.096-1.499-1.576-2.294a35.66 35.66 0 0 1-5.284-17.368 22.99 22.99 0 0 1 0-2.778c-.012-.346.038-.69.148-1.018.112 0 .075 1.452.261 3.722a41.84 41.84 0 0 0 5.222 17.206l1.923 3.287zm7.976 7.381c-.111.149-1.24-.57-2.481-1.575s-2.183-1.948-2.071-2.084 1.24.571 2.481 1.575 2.183 1.948 2.071 2.084zm7.73-48.454c0 .124-1.241.459-2.978 1.402-4.694 2.471-8.25 6.663-9.924 11.698-.62 1.91-.769 3.175-.881 3.163s0-.322 0-.893c.077-.814.227-1.619.447-2.407.732-2.609 2.018-5.029 3.772-7.095a18.81 18.81 0 0 1 6.388-4.875 11.9 11.9 0 0 1 2.307-.831c.278-.105.572-.16.869-.161zm-2.172 19.885c0 .075-.335 0-.682-.335a3.12 3.12 0 0 1-.695-3.411c.199-.434.422-.62.497-.583s-.298 1.054 0 2.27.992 1.923.88 2.059zm7.171 12.53c0 .086.001.198-.223.235-.113.014-.229.001-.336-.038s-.205-.102-.284-.185c-.084-.077-.148-.175-.185-.283a.68.68 0 0 1-.026-.337c0-.186.149-.261.236-.236s.26.248.434.397.322.273.384.447z"/></g><use xlink:href="#F" class="B"/><g class="D E"><use xlink:href="#F"/></g><path d="M210.834 283.97c12.7-18.269 5.224-45.433-16.697-60.671s-49.988-12.78-62.687 5.49-5.224 45.433 16.697 60.671 49.987 12.78 62.687-5.49z" class="B"/><g class="F C"><path d="M125.858 243.526a34.58 34.58 0 0 1 5.917-16.797c12.604-18.372 40.689-21.002 62.733-5.88 8.514 5.743 15.241 13.765 19.414 23.148a83.7 83.7 0 0 1-31.273 16.127c-11.363 3.039-22.813 2.878-33.494-2.369-7.406-3.635-17.231-7.729-23.297-14.229z"/></g><use xlink:href="#G" class="B"/><g class="D E"><use xlink:href="#G"/></g><use xlink:href="#H" class="B"/><g class="D C"><use xlink:href="#H"/></g><g class="C"><path d="M198.576 224.583c-.074.087-1.65-1.241-4.404-3.064a57.74 57.74 0 0 0-23.904-9.13l-5.322-.658a6.53 6.53 0 0 1 1.439 0 36.39 36.39 0 0 1 3.945.248 52.13 52.13 0 0 1 12.641 3.077 51.56 51.56 0 0 1 11.462 6.202 38.54 38.54 0 0 1 3.101 2.481c.375.247.724.529 1.042.844zm9.676 12.045c-1.041-.933-1.932-2.021-2.642-3.225-.877-1.088-1.587-2.301-2.109-3.597 1.039.939 1.93 2.031 2.642 3.237.886 1.078 1.598 2.287 2.109 3.585zm-69.457 6.116c.065-.427.186-.844.36-1.24.148-.478.335-.942.558-1.39a16.72 16.72 0 0 1 .881-1.761c.835-1.499 1.816-2.911 2.927-4.218 1.382-1.59 2.929-3.029 4.615-4.292a30.25 30.25 0 0 1 5.483-3.114c1.577-.677 3.219-1.192 4.9-1.538.643-.14 1.293-.244 1.948-.31.493-.071.99-.113 1.489-.124.411-.062.829-.062 1.24 0 0 .124-1.799.161-4.602.843a28.01 28.01 0 0 0-4.764 1.638 28.73 28.73 0 0 0-9.924 7.244 27.91 27.91 0 0 0-2.977 4.069l-2.134 4.193zm28.409-1.092a9.61 9.61 0 0 0-2.804-1.637c-1.075-.193-2.175-.193-3.25 0 0-.074.273-.347.893-.558.823-.248 1.7-.257 2.527-.027s1.574.692 2.15 1.329c.422.459.546.856.484.893zm17.031 11.426c-.161-.075-.211-.41-.484-.695s-.57-.397-.62-.571.087-.186.323-.21a1.03 1.03 0 0 1 .43.094c.135.062.254.152.351.265a1.09 1.09 0 0 1 .215.383 1.07 1.07 0 0 1 .046.436c-.05.223-.174.323-.261.298z"/></g><g class="D E"><path d="M185.823 215.924s-18.037 48.145 2.642 85.881l9.242-4.602-4.242-77.259-7.642-4.02z"/></g><use xlink:href="#I" class="B"/><g class="D E"><use xlink:href="#I"/></g><path d="M378.413 203.582c7.454-25.909-4.005-51.947-25.595-58.158s-45.133 9.757-52.587 35.666 4.006 51.947 25.595 58.158 45.134-9.757 52.587-35.666z" class="B"/><g class="F C"><path d="M334.898 145.128c5.913-1.463 12.106-1.352 17.962.322 21.585 6.203 33.035 32.254 25.58 58.156-2.784 9.976-8.316 18.969-15.966 25.952a84.25 84.25 0 0 1-25.356-24.811c-6.525-9.924-10.023-20.915-8.41-32.824 1.116-8.212 1.922-18.843 6.19-26.795z"/></g><path d="M310.768 183.187c-5.731 19.848 2.829 39.858 19.129 44.547s34.152-7.666 39.883-27.515-2.841-39.857-19.129-44.547-34.151 7.605-39.883 27.515z" class="B"/><g class="D E"><path d="M310.769 183.187c-5.731 19.848 2.828 39.858 19.128 44.547s34.152-7.666 39.883-27.515-2.841-39.857-19.129-44.547-34.151 7.605-39.882 27.515z"/></g><path d="M309.093 183.646c-5.594 19.427 2.667 38.865 18.447 43.418s33.109-7.53 38.704-26.956-2.667-38.866-18.459-43.418-33.109 7.554-38.692 26.956z" class="B"/><g class="D C"><path d="M309.093 183.646c-5.595 19.427 2.667 38.865 18.447 43.418s33.109-7.53 38.704-26.956-2.667-38.866-18.459-43.418-33.11 7.554-38.692 26.956z"/></g><path d="M302.804 197.937c.149 0 0 2.915.745 7.517l.322 1.799c.112.62.31 1.241.472 1.923.297 1.34.794 2.717 1.24 4.168a46.68 46.68 0 0 0 10.594 16.821l3.213 2.953 1.526 1.24 1.489 1.067c3.82 2.68 6.525 3.784 6.463 3.92-.653-.197-1.285-.459-1.886-.781-.738-.315-1.451-.684-2.134-1.104a29.48 29.48 0 0 1-2.704-1.65l-1.526-1.055c-.521-.372-1.029-.806-1.563-1.24-1.152-.925-2.253-1.91-3.3-2.953a48.98 48.98 0 0 1-6.326-7.902c-1.775-2.881-3.251-5.936-4.404-9.117-.471-1.489-.955-2.891-1.241-4.255-.148-.67-.334-1.315-.434-1.948l-.297-1.836c-.211-1.154-.236-2.221-.323-3.151-.073-.796-.094-1.596-.062-2.394a10.53 10.53 0 0 1 .136-2.022z" fill="#263238"/><g class="C"><path d="M376.169 208.68c-.112 0 .657-1.96 1.538-5.186a58.31 58.31 0 0 0 1.129-25.778l-1.079-5.297c.22.435.39.892.508 1.365.412 1.261.752 2.545 1.017 3.846a52.1 52.1 0 0 1-1.141 26.05c-.382 1.263-.829 2.505-1.34 3.722a6.36 6.36 0 0 1-.632 1.278zm-5.805 6.822a11.44 11.44 0 0 1 1.104-3.597c.376-1.21.954-2.347 1.712-3.362-.529 2.465-1.482 4.82-2.816 6.959zm-30.605-58.242c.412-.042.828-.042 1.24 0 .502.001 1.004.034 1.501.099.663.056 1.321.152 1.973.286 1.699.32 3.361.81 4.962 1.463 1.957.823 3.823 1.845 5.57 3.052 1.721 1.243 3.305 2.665 4.726 4.243a25.92 25.92 0 0 1 3.027 4.205 17.61 17.61 0 0 1 .918 1.774 9.81 9.81 0 0 1 .595 1.377 5.59 5.59 0 0 1 .373 1.24c-.124 0-.732-1.662-2.271-4.13-.91-1.435-1.944-2.789-3.088-4.045a32.71 32.71 0 0 0-4.652-4.106 30.88 30.88 0 0 0-5.434-3.039 27.75 27.75 0 0 0-4.838-1.563c-2.791-.707-4.602-.719-4.602-.856zm10.085 26.833a9.28 9.28 0 0 0 .67-3.201c-.149-1.086-.48-2.138-.98-3.113 0 0 .409.148.806.669a4.51 4.51 0 0 1 .819 2.481 4.54 4.54 0 0 1-.571 2.481c-.335.497-.682.683-.744.683zm-3.77 21.399c0-.186.174-.397.248-.72s0-.608.162-.744.198 0 .335.136c.078.112.132.241.155.376a.93.93 0 0 1-.019.406.96.96 0 0 1-.188.359c-.088.105-.197.19-.321.249-.211.074-.347.012-.372-.062z"/></g><g class="G E"><path d="M296.08 169.963s37.675 9.416 48.603 28.259 14.378 34.114 14.378 34.114l-8.212 3.722-58.218-58.168 3.449-7.927z"/></g><path d="M388.949 421.951c1.794-17.757-8.75-33.364-23.55-34.859s-28.251 11.688-30.045 29.445 8.75 33.364 23.55 34.859 28.252-11.688 30.045-29.445z" class="B"/><g class="D E"><path d="M388.95 421.951c1.793-17.757-8.75-33.364-23.55-34.859s-28.252 11.688-30.045 29.445 8.75 33.364 23.55 34.859 28.251-11.688 30.045-29.445z"/></g><path d="M386.369 419.644c1.8-17.845-8.798-33.529-23.672-35.029s-28.39 11.75-30.191 29.596 8.799 33.529 23.672 35.03 28.391-11.751 30.191-29.597z" class="B"/><g class="F C"><path d="M373.823 388.877c-3.291-2.358-7.138-3.82-11.164-4.242-14.887-1.501-28.384 11.747-30.195 29.598-.741 6.851.459 13.771 3.461 19.973 7.823-1.441 15.251-4.524 21.796-9.044 6.476-4.503 11.351-10.445 13.299-18.198 1.401-5.359 3.535-12.132 2.803-18.087z"/></g><use xlink:href="#J" class="B"/><g class="D E"><use xlink:href="#J"/></g><use xlink:href="#K" class="B"/><g class="D C"><use xlink:href="#K"/></g><g class="C"><path d="M332.676 417.93c-.098-.312-.136-.641-.112-.967a23.06 23.06 0 0 1 .062-2.655 33.71 33.71 0 0 1 5.744-16.375c.491-.734 1.026-1.438 1.6-2.109.409-.471.658-.719.682-.695a33.88 33.88 0 0 1-1.91 3.052c-1.501 2.46-2.748 5.066-3.722 7.778-.941 2.724-1.594 5.539-1.947 8.398l-.397 3.573zm1.972 10.172c-.173 0-.632-1.116-1.029-2.605-.344-.884-.484-1.833-.41-2.779a6.29 6.29 0 0 1 1.03 2.605c.351.882.491 1.834.409 2.779zm33.221-32.935c0 .111-1.179-.298-3.077-.596-5.003-.738-10.098.489-14.216 3.424-1.563 1.116-2.394 1.997-2.481 1.923s.136-.273.496-.695c.515-.586 1.084-1.122 1.699-1.6 2.03-1.603 4.384-2.745 6.898-3.349a17.86 17.86 0 0 1 7.666-.149c.764.147 1.511.367 2.233.657.534.198.794.347.782.385zm-12.864 14.079c-.074 0-.248-.198-.347-.645a2.99 2.99 0 0 1 .236-1.724c.253-.519.654-.95 1.153-1.241.397-.223.695-.235.72-.161s-.819.658-1.241 1.724-.31 1.998-.521 2.047zm-1.526 13.683c0 .075-.149.124-.31 0-.099-.051-.184-.125-.249-.215a.71.71 0 0 1-.125-.305.7.7 0 0 1 .027-.328c.035-.106.094-.202.173-.281.136-.111.261-.099.323 0 .074.173.116.358.124.546.043.191.056.388.037.583z"/></g><use xlink:href="#L" class="B"/><g class="D E"><path d="M186.209 381.158c4.396-17.954-9.502-36.785-31.043-42.06s-42.567 5.004-46.964 22.958 9.502 36.785 31.043 42.059 42.567-5.003 46.964-22.957z"/></g><use xlink:href="#L" x="-1.539" y="6.305" class="B"/><g class="F C"><path d="M113.774 355.371a28.73 28.73 0 0 0-7.108 12.951c-4.404 17.962 9.502 36.794 31.013 42.066 8.258 2.086 16.936 1.811 25.046-.794-.377-9.827-2.843-19.46-7.233-28.259-4.391-8.684-10.829-15.705-19.997-19.427-6.376-2.555-14.315-6.339-21.721-6.537z"/></g><use xlink:href="#M" class="B"/><g class="D E"><use xlink:href="#M"/></g><use xlink:href="#N" class="B"/><g class="D C"><use xlink:href="#N"/></g><g class="C"><path d="M142.268 410.834c-.411.067-.83.067-1.241 0-1.084-.125-2.161-.311-3.225-.558a41.91 41.91 0 0 1-10.147-3.721 42.67 42.67 0 0 1-8.895-6.128c-.82-.726-1.594-1.5-2.32-2.32a4.67 4.67 0 0 1-.756-.931c.087-.087 1.24 1.142 3.374 2.903 5.493 4.59 11.932 7.911 18.856 9.726 2.692.657 4.366.918 4.354 1.029zm12.803-.682a9.27 9.27 0 0 1-3.387.745 9.48 9.48 0 0 1-3.461.099c2.209-.709 4.532-.995 6.848-.844zm-34.623-46.333c.112 0-.607 1.364-1.24 3.647a23.83 23.83 0 0 0-.856 4.094c-.396 3.397-.062 6.84.98 10.097.425 1.327.964 2.614 1.613 3.846 1.116 2.109 2.084 3.263 1.984 3.337s-.297-.248-.744-.757a16.66 16.66 0 0 1-1.637-2.357 21.15 21.15 0 0 1-1.787-3.882 25.79 25.79 0 0 1-1.104-5.124c-.145-1.744-.108-3.498.112-5.235.193-1.415.53-2.808 1.005-4.155a15.96 15.96 0 0 1 1.166-2.63c.273-.596.471-.906.508-.881zm15.035 18.173c0 .075-.297.236-.843.248-.722.021-1.433-.183-2.035-.583a3.62 3.62 0 0 1-1.389-1.6c-.211-.521-.199-.868-.124-.881s.595 1.154 1.861 1.936 2.505.694 2.53.88zm16.487 4.218c.074 0 .099.186 0 .36a.85.85 0 0 1-.3.232c-.116.054-.242.08-.37.078a.81.81 0 0 1-.373-.074c-.116-.054-.218-.135-.297-.236-.124-.161-.099-.31 0-.347s.409 0 .707 0 .434-.087.633-.013z"/></g><path d="M391.757 334.687c7.664-15.486-3.601-36.689-25.16-47.359s-45.248-6.764-52.912 8.722 3.6 36.689 25.159 47.359 45.249 6.764 52.913-8.722z" class="B"/><g class="D E"><path d="M391.757 334.687c7.663-15.486-3.601-36.689-25.16-47.359s-45.248-6.764-52.912 8.722 3.6 36.689 25.159 47.359 45.249 6.764 52.913-8.722z"/></g><path d="M395.083 327.968c7.664-15.486-3.6-36.689-25.159-47.358s-45.249-6.764-52.912 8.722 3.6 36.689 25.159 47.358 45.249 6.764 52.912-8.722z" class="B"/><g class="F C"><path d="M381.652 292.08a11.63 11.63 0 0 0-3.039 5.135c-1.377 5.831.149 12.095 3.56 17.529 3.374 5.197 7.804 9.627 13.001 13 5.545-11.487.769-26.05-10.842-37.141a9.94 9.94 0 0 0-2.68 1.477z"/></g><path d="M346.533 329.667c-16.561-8.2-25.306-24.326-19.525-35.975s23.904-14.526 40.478-6.327 25.319 24.327 19.525 35.975-23.917 14.577-40.478 6.327z" class="B"/><g class="D E"><path d="M346.534 329.667c-16.561-8.2-25.307-24.326-19.526-35.975s23.905-14.526 40.478-6.327 25.319 24.327 19.526 35.975-23.918 14.577-40.478 6.327z"/></g><path d="M345.292 330.325c-16.127-8.002-24.736-23.657-19.129-34.983s23.247-14.018 39.424-6.016 24.736 23.669 19.128 34.945-23.297 14.067-39.423 6.054z" class="B"/><g class="D C"><path d="M345.293 330.474c-16.127-8.002-24.736-23.67-19.142-34.983s23.26-14.018 39.424-6.017 24.748 23.67 19.141 34.995-23.297 13.993-39.423 6.005z"/></g><g class="C"><path d="M363.576 278.62a7.95 7.95 0 0 1 1.427.471c.918.335 2.196.906 3.721 1.663a57.95 57.95 0 0 1 20.655 17.218 40.67 40.67 0 0 1 2.307 3.399c.289.41.53.851.72 1.315-.099 0-1.241-1.737-3.399-4.441-5.581-7.045-12.558-12.861-20.494-17.082-3.002-1.625-4.986-2.431-4.937-2.543zm-15.891-2.828c1.566-.179 3.148-.137 4.702.124a17.73 17.73 0 0 1 4.627.781c-1.562.171-3.14.125-4.689-.136-1.574-.048-3.135-.307-4.64-.769zm14.514 30.591c1.332-.209 2.695.023 3.884.658a6.21 6.21 0 0 1 2.704 2.865c-.937-.849-1.941-1.621-3.002-2.308a23.72 23.72 0 0 0-3.586-1.215zm-34.522 11.239c.099-.075 1.08 1.24 2.903 3.275a46.43 46.43 0 0 0 7.902 6.897 47.22 47.22 0 0 0 9.267 4.962l4.094 1.526a3.74 3.74 0 0 1-1.167-.199 25.51 25.51 0 0 1-3.088-.905 39.92 39.92 0 0 1-17.368-11.934 28.88 28.88 0 0 1-1.947-2.555c-.247-.327-.448-.686-.596-1.067z"/></g><g class="D E"><path d="M319.824 328.365l3.027 3.436c5.131-3.183 9.869-6.96 14.117-11.252 6.004-6.413 22.937-23.098 21.312-44.261l-7.567-1.241-31.559 52.449.67.869z"/></g><use xlink:href="#O" class="B"/><g class="D E"><use xlink:href="#O"/></g><path d="M28.022 217.313c8.643-1.71 13.721-12.849 11.34-24.879s-11.316-20.397-19.959-18.688-13.721 12.849-11.341 24.879 11.316 20.397 19.959 18.688z" class="B"/><g class="F C"><path d="M38.363 200.74c-1.02-.138-2.059-.01-3.014.372-1.403.691-2.655 1.655-3.681 2.835s-1.808 2.553-2.298 4.038a22.5 22.5 0 0 0-1.241 9.291c6.364-1.315 10.78-7.778 11.648-15.915-.437-.278-.914-.487-1.414-.621z"/></g><use xlink:href="#P" class="B"/><g class="D E"><use xlink:href="#P"/></g><path d="M11.593 197.924c-1.786-9.031 1.886-17.367 8.2-18.607s12.889 5.049 14.7 14.08-1.886 17.367-8.212 18.607-12.877-5.061-14.688-14.08z" class="B"/><g class="D C"><path d="M11.593 197.937c-1.786-9.019 1.886-17.368 8.2-18.608s12.889 5.061 14.626 14.08-1.886 17.367-8.212 18.608-12.877-5.062-14.613-14.08z"/></g><g class="C"><path d="M38.19 189.253a9.43 9.43 0 0 1 .868 2.742 28.28 28.28 0 0 1 .571 6.909 27.9 27.9 0 0 1-1.129 6.836 9.69 9.69 0 0 1-1.067 2.654c.789-3.121 1.308-6.304 1.551-9.514.026-3.227-.24-6.448-.794-9.627zm-3.784-7.294c.161-.099.844.732 1.538 1.848s1.141 2.109.992 2.208-.844-.744-1.538-1.86-1.141-2.109-.992-2.196zm-7.865 15.358c.112-.124.906.545 1.104 1.749s-.322 2.096-.471 2.009 0-.905-.161-1.898-.608-1.736-.471-1.86zm-15.258-10.47a42.28 42.28 0 0 0-.595 7.517 42.68 42.68 0 0 0 1.377 7.443 17.92 17.92 0 0 1-2.01-7.358 17.94 17.94 0 0 1 1.229-7.528v-.074z"/></g><use xlink:href="#Q" class="B"/><g class="D E"><use xlink:href="#Q"/></g><path d="M128.82 184.561c16.625-9.626 24.498-27.109 17.584-39.05s-25.995-13.819-42.621-4.193-24.498 27.109-17.584 39.05 25.996 13.819 42.621 4.193z" class="B"/><g class="F C"><path d="M95.043 151.095a9.34 9.34 0 0 1 2.68 3.92c.638 2.374.797 4.852.467 7.289a18.5 18.5 0 0 1-2.39 6.902c-2.411 4.321-5.709 8.084-9.676 11.041-4.962-8.857-1.972-20.717 6.699-30.157a7.7 7.7 0 0 1 2.221 1.005z"/></g><use xlink:href="#R" class="B"/><g class="D E"><use xlink:href="#R"/></g><path d="M126.006 179.676c12.467-7.22 18.484-20.158 13.423-28.879s-19.266-9.924-31.733-2.742-18.483 20.159-13.422 28.88 19.265 9.961 31.732 2.741z" class="B"/><g class="D C"><path d="M126.067 179.776c12.467-7.22 18.471-20.146 13.422-28.88s-19.265-9.924-31.732-2.729-18.484 20.146-13.422 28.88 19.252 9.948 31.732 2.729z"/></g><g class="C"><path d="M108.738 139.434c0 .099-1.477.868-3.809 2.32-6.085 3.79-11.336 8.779-15.432 14.663-1.575 2.257-2.407 3.721-2.481 3.721a4.74 4.74 0 0 1 .484-1.104c.347-.695.906-1.662 1.65-2.828a45.05 45.05 0 0 1 6.897-8.337 45.53 45.53 0 0 1 8.684-6.475 27.94 27.94 0 0 1 2.915-1.501c.341-.202.708-.357 1.092-.459zm12.517-3.101c-1.154.514-2.387.829-3.647.93a11.15 11.15 0 0 1-3.721.285 11.18 11.18 0 0 1 3.647-.93c1.216-.303 2.474-.4 3.721-.285zm-9.973 25.145c0 .186-1.365.323-2.754 1.241s-2.146 2.034-2.307 1.935.384-1.514 1.96-2.481a3.65 3.65 0 0 1 1.471-.703c.537-.12 1.094-.118 1.63.008zm28.084 7.145a12.55 12.55 0 0 1-1.811 3.015c-3.382 4.611-7.953 8.217-13.224 10.433a12.29 12.29 0 0 1-3.362 1.054c0-.099 1.241-.546 3.176-1.476 2.521-1.207 4.905-2.683 7.108-4.404 2.185-1.742 4.177-3.714 5.942-5.88 1.365-1.675 2.096-2.804 2.171-2.742z"/></g><use xlink:href="#S" class="B"/><g class="D E"><use xlink:href="#S"/></g><path d="M182.98 493.7c13.044-7.552 19.219-21.273 13.791-30.647s-20.401-10.851-33.445-3.299-19.219 21.274-13.791 30.648 20.401 10.851 33.445 3.298z" class="B"/><g class="F C"><path d="M156.472 467.415c.958.83 1.685 1.894 2.109 3.088a14.48 14.48 0 0 1 .361 5.704c-.26 1.906-.897 3.742-1.874 5.399-1.887 3.4-4.475 6.36-7.592 8.684-3.933-6.96-1.551-16.263 5.26-23.669a6.32 6.32 0 0 1 1.736.794z"/></g><use xlink:href="#T" class="B"/><g class="D E"><use xlink:href="#T"/></g><path d="M180.775 489.843c9.787-5.669 14.501-15.817 10.532-22.664s-15.11-7.803-24.897-2.146-14.502 15.816-10.532 22.664 15.109 7.765 24.897 2.146z" class="B"/><g class="D C"><path d="M180.824 489.917c9.776-5.657 14.49-15.804 10.532-22.652s-15.122-7.815-24.897-2.146-14.501 15.804-10.544 22.664 15.122 7.803 24.909 2.134z"/></g><g class="C"><path d="M167.228 458.247c0 .099-1.154.707-2.965 1.861-4.757 2.989-8.87 6.899-12.095 11.499a33.87 33.87 0 0 1-2.01 2.866 13.25 13.25 0 0 1 1.625-3.114c1.538-2.4 3.358-4.608 5.421-6.575a34.85 34.85 0 0 1 6.823-5.061 13.34 13.34 0 0 1 3.201-1.476zm9.812-2.407a7.17 7.17 0 0 1-2.841.794c-.962.26-1.969.311-2.953.149.88-.465 1.848-.736 2.841-.794.961-.267 1.97-.318 2.953-.149zm-7.815 19.774c0 .186-1.067.323-2.134 1.005s-1.674 1.476-1.848 1.476.248-1.24 1.513-2.009 2.494-.695 2.469-.472zm22.044 5.558a8.69 8.69 0 0 1-1.389 2.394 24.21 24.21 0 0 1-10.396 8.2 8.13 8.13 0 0 1-2.654.781 43.35 43.35 0 0 0 8.026-4.664 45.49 45.49 0 0 0 6.413-6.711z"/></g><path d="M270.939 38.861c10.648-6.165 15.691-17.364 11.262-25.012s-16.65-8.851-27.299-2.686-15.691 17.364-11.263 25.012 16.651 8.851 27.3 2.686z" class="B"/><g class="D E"><path d="M270.938 38.861c10.649-6.165 15.691-17.364 11.263-25.012s-16.651-8.851-27.299-2.686-15.692 17.364-11.263 25.012 16.65 8.851 27.299 2.686z"/></g><path d="M269.013 35.528c10.656-6.203 15.693-17.367 11.264-25.009s-16.648-8.857-27.291-2.692-15.693 17.367-11.264 25.009 16.648 8.857 27.291 2.692z" class="B"/><g class="F C"><path d="M247.378 14.142a6.08 6.08 0 0 1 1.725 2.481c.402 1.518.499 3.102.287 4.658s-.732 3.055-1.528 4.41a22.49 22.49 0 0 1-6.202 7.059c-3.213-5.669-1.241-13.261 4.292-19.315a5.66 5.66 0 0 1 1.426.707z"/></g><use xlink:href="#U" class="B"/><g class="D E"><use xlink:href="#U"/></g><path d="M267.201 32.402c7.989-4.627 11.834-12.901 8.597-18.496s-12.381-6.376-20.32-1.749-11.835 12.901-8.597 18.496 12.343 6.364 20.32 1.749z" class="B"/><g class="D C"><path d="M267.239 32.464c7.989-4.627 11.835-12.901 8.597-18.496s-12.331-6.376-20.32-1.749-11.834 12.901-8.597 18.496 12.344 6.376 20.32 1.749z"/></g><g class="C"><path d="M256.148 6.624a54.92 54.92 0 0 0-7.778 5.768 55.47 55.47 0 0 0-6.202 7.443 9.56 9.56 0 0 1 1.402-2.543 28.08 28.08 0 0 1 9.924-9.502 9.13 9.13 0 0 1 2.654-1.166zm8.014-1.985c0 .186-1.005.496-2.32.707s-2.381.248-2.406.074 1.005-.496 2.307-.707 2.394-.248 2.419-.074zm-6.377 16.102c0 .186-.856.335-1.712.881s-1.377 1.241-1.538 1.141.161-1.054 1.24-1.7 2.022-.496 2.01-.323zm18.037 4.566c-1.111 2.381-2.82 4.433-4.962 5.954-1.976 1.693-4.356 2.847-6.91 3.349 2.281-1.09 4.461-2.382 6.513-3.858 1.943-1.654 3.737-3.476 5.359-5.446z"/></g><path d="M327.042 525.675c10.648-6.166 15.691-17.364 11.263-25.012s-16.651-8.851-27.3-2.686-15.691 17.364-11.263 25.012 16.651 8.851 27.3 2.686z" class="B"/><g class="D E"><path d="M327.042 525.675c10.648-6.165 15.691-17.364 11.263-25.012s-16.651-8.851-27.3-2.686-15.691 17.364-11.263 25.012 16.651 8.851 27.3 2.686z"/></g><path d="M325.146 522.332c10.644-6.203 15.68-17.367 11.252-25.009s-16.648-8.857-27.292-2.692-15.692 17.368-11.263 25.009 16.647 8.857 27.303 2.692z" class="B"/><g class="F C"><path d="M303.499 500.896c.774.669 1.367 1.522 1.724 2.481.4 1.519.496 3.102.283 4.658a11.96 11.96 0 0 1-1.523 4.41 22.69 22.69 0 0 1-6.203 7.059c-3.213-5.669-1.24-13.261 4.292-19.315a5.64 5.64 0 0 1 1.427.707z"/></g><path d="M322.677 518.908c8.187-4.739 12.107-13.261 8.77-19.042s-12.69-6.599-20.865-1.86-12.108 13.248-8.771 19.029 12.691 6.6 20.866 1.873z" class="B"/><g class="D E"><path d="M322.676 518.908c8.188-4.739 12.108-13.261 8.771-19.042s-12.691-6.599-20.866-1.86-12.107 13.248-8.77 19.029 12.69 6.6 20.865 1.873z"/></g><path d="M323.335 519.206c7.976-4.627 11.834-12.914 8.597-18.496s-12.405-6.376-20.32-1.749-11.834 12.901-8.597 18.484 12.331 6.376 20.32 1.761z" class="B"/><g class="D C"><path d="M323.371 519.268c7.977-4.627 11.835-12.902 8.597-18.496s-12.343-6.377-20.32-1.749-11.834 12.901-8.596 18.496 12.33 6.376 20.319 1.749z"/></g><g class="C"><path d="M312.27 493.428a55.66 55.66 0 0 0-7.778 5.768c-2.262 2.296-4.317 4.787-6.141 7.444.275-.917.694-1.784 1.241-2.568 2.5-3.942 5.934-7.206 9.998-9.503.827-.521 1.731-.906 2.68-1.141zm8.013-1.985c0 .186-1.005.496-2.308.707s-2.394.248-2.481.075 1.005-.497 2.308-.707 2.456-.248 2.481-.075zm-6.375 16.102c0 .186-.856.323-1.712.868s-1.377 1.241-1.538 1.142.161-1.042 1.24-1.687 2.035-.497 2.01-.323zm17.987 4.578a17.93 17.93 0 0 1-4.868 5.936c-2.032 1.604-4.388 2.749-6.905 3.355a43.52 43.52 0 0 0 6.501-3.858 42.23 42.23 0 0 0 5.272-5.433z"/></g><path d="M451.292 78.68c.348-13.184-7.049-24.074-16.521-24.324s-17.432 10.236-17.78 23.42 7.049 24.074 16.521 24.324 17.432-10.236 17.78-23.42z" class="B"/><g class="D E"><path d="M451.292 78.68c.347-13.184-7.05-24.074-16.521-24.324s-17.433 10.236-17.78 23.42 7.049 24.074 16.521 24.324 17.432-10.236 17.78-23.42z"/></g><path d="M447.177 78.564c.348-13.184-7.049-24.074-16.521-24.324s-17.432 10.236-17.779 23.42 7.049 24.074 16.521 24.324 17.432-10.236 17.779-23.42z" class="B"/><g class="F C"><path d="M415.456 86.303a6.41 6.41 0 0 1 3.262-.161c1.612.483 3.113 1.279 4.415 2.343a12.76 12.76 0 0 1 3.177 3.859c1.654 2.965 2.664 6.245 2.965 9.626-6.984-.248-12.814-6.301-15.221-14.762a5.58 5.58 0 0 1 1.402-.906z"/></g><use xlink:href="#V" class="B"/><g class="D E"><use xlink:href="#V"/></g><path d="M443.292 78.463c.26-9.924-5.136-18.05-12.07-18.223s-12.74 7.679-12.989 17.566 5.136 18.05 12.058 18.236 12.753-7.691 13.001-17.578z" class="B"/><g class="D C"><path d="M443.38 78.475c.261-9.924-5.135-18.05-12.058-18.236s-12.74 7.679-13 17.566 5.136 18.049 12.058 18.236 12.74-7.679 13-17.566z"/></g><g class="C"><path d="M413.519 74.096c-.028 3.469.267 6.932.881 10.346a55.4 55.4 0 0 0 3.399 9.8 10.23 10.23 0 0 1-1.612-2.63c-1.091-2.241-1.904-4.608-2.419-7.046a30.06 30.06 0 0 1-.646-7.443 10.71 10.71 0 0 1 .397-3.027zm2.73-8.423a5.47 5.47 0 0 1-.67 2.481c-.546 1.315-1.104 2.32-1.241 2.258.024-.87.258-1.721.683-2.481.496-1.315 1.067-2.332 1.228-2.258zm11.116 14.861c.161.087-.199.955-.174 2.047s.36 1.948.199 2.047-.856-.744-.856-2.047.707-2.159.831-2.047zm14.279-13.856a6.43 6.43 0 0 1 1.24 2.121 21.26 21.26 0 0 1 1.476 5.657 20.59 20.59 0 0 1-.136 5.855 6.83 6.83 0 0 1-.657 2.332 41.58 41.58 0 0 0 .148-8.113 42.19 42.19 0 0 0-2.071-7.853z"/></g><path d="M492.725 351.034c13.005-13.971 15.414-32.869 5.379-42.21s-28.712-5.588-41.717 8.383-15.414 32.869-5.38 42.21 28.712 5.588 41.718-8.383z" class="B"/><g class="D E"><path d="M492.724 351.034c13.006-13.971 15.414-32.869 5.38-42.21s-28.712-5.588-41.718 8.383-15.414 32.869-5.379 42.21 28.712 5.588 41.717-8.383z"/></g><path d="M488.365 346.996c13.006-13.971 15.414-32.869 5.38-42.21s-28.712-5.587-41.718 8.384-15.413 32.869-5.379 42.21 28.712 5.587 41.717-8.384z" class="B"/><g class="F C"><path d="M446.542 324.966c1.475.647 2.757 1.664 3.722 2.952a18.46 18.46 0 0 1 2.283 14.006 35 35 0 0 1-6.029 13.36c-7.332-6.959-7.878-19.116-2.382-30.604a8.01 8.01 0 0 1 2.406.286z"/></g><use xlink:href="#W" class="B"/><g class="D E"><use xlink:href="#W"/></g><path d="M484.229 343.139c9.763-10.482 11.723-24.512 4.379-31.335s-21.188-3.871-30.938 6.612-11.711 24.5-4.379 31.335 21.212 3.871 30.938-6.612z" class="B"/><g class="D C"><path d="M484.341 343.226c9.763-10.482 11.723-24.513 4.379-31.348s-21.188-3.87-30.938 6.612-11.711 24.513-4.379 31.336 21.188 3.87 30.938-6.6z"/></g><g class="C"><path d="M456.169 309.906c.074.074-1.154 1.24-2.94 3.312a52.57 52.57 0 0 0-10.408 18.422l-1.315 4.23c-.006-.419.044-.836.149-1.241.124-.756.372-1.848.732-3.175 1.97-6.951 5.573-13.331 10.507-18.608.736-.798 1.515-1.556 2.332-2.27a4.06 4.06 0 0 1 .943-.67zm10.99-6.563c-2.012 1.476-4.266 2.589-6.661 3.288 2.012-1.476 4.266-2.588 6.661-3.288zm-2.17 26.771c.075.186-1.24.72-2.27 1.96-.584.798-1.127 1.626-1.625 2.481-.044-.544.036-1.092.234-1.601a3.63 3.63 0 0 1 .907-1.339 3.72 3.72 0 0 1 1.211-1.055c.476-.259 1.003-.411 1.543-.446zm28.768-1.352a12.04 12.04 0 0 1-.843 3.386 31.5 31.5 0 0 1-3.833 7.53 31.95 31.95 0 0 1-5.707 6.203 12.75 12.75 0 0 1-2.865 1.96c-.062-.087 1.004-.881 2.58-2.32 4.118-3.759 7.337-8.398 9.415-13.571.782-1.936 1.154-3.213 1.253-3.188z"/></g><path d="M301.501 409.06c-.707-12.405-8.373-29.524-20.865-46.259s-26.758-28.941-38.456-33.146l-5.334-7.158-10.768 8.038c-11.649 8.684-5.446 36.745 13.881 62.622s44.436 39.796 56.096 31.087l10.756-8.026-5.31-7.158z" class="B"/><g class="G E"><path d="M301.501 409.06c-.707-12.405-8.373-29.524-20.865-46.259s-26.758-28.941-38.456-33.146l-5.335-7.158-10.767 8.038c-11.649 8.684-5.446 36.745 13.881 62.622s44.435 39.796 56.096 31.087l10.756-8.026-5.31-7.158z"/></g><path d="M249.982 385.689c-19.315-25.877-25.542-53.913-13.856-62.658s36.744 5.235 56.071 31.112 25.542 53.913 13.906 62.609-36.793-5.186-56.121-31.063z" class="B"/><g class="F C"><path d="M259.933 343.375c1.352 5.906 3.118 11.709 5.284 17.367 8.386 19.712 25.977 35.218 46.668 39.697-.545-12.654-7.517-29.86-19.724-46.222-11.698-15.655-25.505-26.932-37.215-31.472a436.29 436.29 0 0 0 4.987 20.63z"/></g><use xlink:href="#X" class="B"/><g class="G E"><use xlink:href="#X"/></g><use xlink:href="#Y" class="B"/><g class="D C"><use xlink:href="#Y"/></g><g class="C"><path d="M266.259 331.032c-1.44-.679-2.844-1.432-4.205-2.258-3.294-1.929-6.783-3.505-10.408-4.701-3.633-1.157-7.483-1.459-11.252-.881a33.34 33.34 0 0 0-4.54 1.24 4.19 4.19 0 0 1 1.117-.645c1.066-.492 2.186-.858 3.337-1.091 3.84-.735 7.803-.492 11.524.707a46.4 46.4 0 0 1 10.445 4.962l2.953 1.873a5.28 5.28 0 0 1 1.029.794zm2.121 25.554c-1.089.031-2.179-.006-3.263-.111a23.71 23.71 0 0 1-3.275.062 5.5 5.5 0 0 1 3.275-.707c1.141-.105 2.284.16 3.263.756zm-45.242-15.593a9.47 9.47 0 0 1 1.055-5.52 9.36 9.36 0 0 1 3.56-4.342 34.87 34.87 0 0 0-2.977 4.615c-.67 1.708-1.217 3.461-1.638 5.247z"/></g><g class="G E"><path d="M226.103 330.536l-3.275 3.721s16.747 13.088 38.369 13.968 25.306-1.042 25.306-1.042l-7.17-9.465-53.23-7.182z"/></g><use xlink:href="#Z" class="B"/><g class="G E"><use xlink:href="#Z"/></g><path d="M237.479 169.206c-30.058 6.885-56.952 1.489-60.041-12.033s18.756-30.082 48.827-36.967 56.952-1.501 60.053 12.033-18.769 30.095-48.839 36.967z" class="B"/><g class="F C"><path d="M204.356 144.185c5.675 1.096 11.421 1.793 17.194 2.084 20.443.286 40.788-9.093 52.697-25.43-11.264-4.417-28.979-4.962-47.983-.621-18.199 4.168-33.37 11.872-41.843 20.308 6.612 1.389 13.249 2.63 19.935 3.659z"/></g><use xlink:href="#a" class="B"/><g class="G E"><use xlink:href="#a"/></g><use xlink:href="#b" class="B"/><g class="D C"><use xlink:href="#b"/></g><g class="C"><path d="M196.021 133.901a35.92 35.92 0 0 1-3.585 2.804c-2.955 2.137-5.679 4.577-8.126 7.282a23.74 23.74 0 0 0-5.111 9.465c-.303 1.478-.514 2.974-.632 4.478-.111-.404-.157-.822-.137-1.24-.02-1.125.089-2.249.323-3.35a22.32 22.32 0 0 1 5.074-9.787 44.85 44.85 0 0 1 8.336-7.233c1.166-.806 2.121-1.426 2.779-1.848.332-.238.695-.43 1.079-.571zm23.136 8.014c-.372.972-.82 1.914-1.339 2.816-.344.988-.758 1.95-1.241 2.878a4.97 4.97 0 0 1 .62-3.139c.757-1.637 1.836-2.654 1.96-2.555zm-31.076 33.494c-1.71-.617-3.235-1.659-4.431-3.029a10.7 10.7 0 0 1-2.404-4.799c.856 1.528 1.822 2.992 2.89 4.379 1.232 1.241 2.551 2.394 3.945 3.449z"/></g><use xlink:href="#c" class="B"/><g class="G E"><use xlink:href="#c"/></g><path d="M58.82 347.841c8.225-11.016 10.867-22.937 5.917-26.634s-15.643 2.22-23.867 13.236-10.867 22.937-5.905 26.634 15.631-2.282 23.855-13.236z" class="B"/><g class="F C"><path d="M54.59 329.779c-.575 2.511-1.33 4.978-2.258 7.381a28.74 28.74 0 0 1-7.899 10.827c-3.449 2.937-7.544 5.016-11.949 6.069.223-5.384 3.2-12.703 8.386-19.662 4.962-6.662 10.855-11.463 15.817-13.398-.608 2.953-1.327 5.88-2.097 8.783z"/></g><use xlink:href="#d" class="B"/><g class="G E"><use xlink:href="#d"/></g><use xlink:href="#e" class="B"/><g class="D C"><use xlink:href="#e"/></g><g class="C"><path d="M51.896 324.531c0-.074.571-.558 1.625-1.24a17.74 17.74 0 0 1 4.453-2.159 9.74 9.74 0 0 1 4.962-.26 3.48 3.48 0 0 1 1.873.881c0 .087-.757-.248-1.96-.422a10.79 10.79 0 0 0-4.702.422 26.05 26.05 0 0 0-4.379 1.935c-.582.366-1.213.65-1.873.843zm-.892 10.905c0-.174.558-.509 1.389-.509s1.439.323 1.389.484-.657.149-1.389.161-1.34.012-1.389-.136zm19.241-6.662c-.186 0-.335-1.029-.868-2.158s-1.24-1.898-1.092-2.035 1.092.484 1.675 1.762.447 2.444.285 2.431z"/></g><use xlink:href="#f" class="B"/><g class="G E"><use xlink:href="#f"/></g><path d="M125.162 52.995c5.929 9.267 14.117 14.613 18.297 11.946s2.729-12.405-3.2-21.61-14.13-14.613-18.261-11.934-2.778 12.343 3.164 21.597z" class="B"/><g class="F C"><path d="M139.85 54.905c-1.718-1.124-3.356-2.368-4.9-3.722-2.647-2.489-4.667-5.57-5.896-8.989a23.03 23.03 0 0 1-1.175-10.686c3.97 1.687 8.621 5.979 12.405 11.834 3.585 5.607 5.52 11.351 5.582 15.618-2.071-1.302-4.019-2.642-6.016-4.056z"/></g><use xlink:href="#g" class="B"/><g class="G E"><use xlink:href="#g"/></g><use xlink:href="#h" class="B"/><g class="D C"><use xlink:href="#h"/></g><g class="C"><path d="M144.539 54.359a4.25 4.25 0 0 1 .521 1.563 14.45 14.45 0 0 1 .372 3.97c-.073 1.36-.501 2.677-1.241 3.821-.608.856-1.24 1.24-1.24 1.129s.372-.521.831-1.377c.587-1.122.921-2.358.98-3.622.056-1.285-.006-2.572-.186-3.846a4.46 4.46 0 0 1-.037-1.637zm-7.902-3.734c.174 0 .285.571 0 1.24s-.682.992-.819.881 0-.571.211-1.104.434-1.03.608-1.017zm-.447 16.288c.062-.174.88 0 1.848-.099s1.761-.347 1.848-.186-.657.744-1.798.831-1.973-.385-1.898-.546z"/></g><use xlink:href="#i" class="B"/><g class="G E"><use xlink:href="#i"/></g><path d="M462.469 431.79c10.641-2.801 18.244-8.955 16.983-13.746s-10.91-6.402-21.55-3.601-18.244 8.956-16.983 13.746 10.91 6.403 21.55 3.601z" class="B"/><g class="F C"><path d="M468.823 418.339c-1.614 1.284-3.313 2.457-5.086 3.511a23.05 23.05 0 0 1-10.351 2.837c-3.625.119-7.228-.619-10.514-2.155 2.828-3.25 8.336-6.364 15.06-8.137 6.438-1.688 12.504-1.774 16.585-.509-1.86 1.538-3.771 3.027-5.694 4.453z"/></g><use xlink:href="#j" class="B"/><g class="G E"><use xlink:href="#j"/></g><use xlink:href="#k" class="B"/><g class="D C"><use xlink:href="#k"/></g><g class="C"><path d="M469.753 413.712c.54-.114 1.098-.114 1.638 0a13.69 13.69 0 0 1 3.883.856 7.57 7.57 0 0 1 3.262 2.357c.633.831.769 1.476.707 1.501s-.384-.508-1.054-1.24c-.89-.905-1.965-1.607-3.151-2.06a23.95 23.95 0 0 0-3.722-1.004 4.59 4.59 0 0 1-1.563-.41zm-5.979 6.364c0-.161.62-.087 1.153.323s.745.955.596 1.054-.534-.186-.992-.546-.832-.657-.757-.831zm15.356 5.434c-.148-.112.249-.832.472-1.787s.211-1.786.384-1.823.509.856.236 1.972-.955 1.762-1.092 1.638z"/></g><use xlink:href="#l" class="B"/><g class="G E"><use xlink:href="#l"/></g><path d="M531.37 211.086c2.481 10.706 8.435 18.484 13.249 17.367s6.711-10.718 4.205-21.436-8.436-18.483-13.249-17.367-6.686 10.718-4.205 21.436z" class="B"/><g class="F C"><path d="M544.58 217.785c-1.214-1.642-2.312-3.366-3.287-5.16-1.661-3.227-2.535-6.799-2.552-10.428s.823-7.209 2.453-10.45c3.175 2.915 6.128 8.51 7.703 15.283 1.514 6.488 1.427 12.554 0 16.598-1.501-1.923-2.927-3.871-4.317-5.843z"/></g><use xlink:href="#m" class="B"/><g class="G E"><use xlink:href="#m"/></g><use xlink:href="#n" class="B"/><g class="D C"><use xlink:href="#n"/></g><g class="C"><path d="M549.184 218.827a3.99 3.99 0 0 1 0 1.65 14.2 14.2 0 0 1-.968 3.858c-.523 1.267-1.381 2.369-2.481 3.188-.856.608-1.501.732-1.526.657s.521-.359 1.241-1.017c.923-.866 1.65-1.919 2.133-3.089.479-1.206.852-2.451 1.117-3.721.073-.533.236-1.049.484-1.526zm-6.191-6.141c.161 0 .074.633-.36 1.154s-.968.707-1.067.558.211-.533.571-.98.694-.794.856-.732zm-5.868 15.197c.124-.149.831.273 1.786.521s1.774.26 1.799.446-.868.484-1.972.174-1.725-1.017-1.613-1.141z"/></g><path d="M356.332 271.058c7.958-47.203-23.856-91.92-71.059-99.878s-91.92 23.856-99.879 71.059 23.856 91.92 71.059 99.878 91.92-23.855 99.879-71.059z" class="B"/><g class="F C"><path d="M292.631 172.754c-11.022-2.854-22.499-3.51-33.774-1.928s-22.13 5.367-31.942 11.143-18.391 13.428-25.245 22.519-11.852 19.443-14.706 30.466c0 0 58.304 17.913 78.624-2.146s27.043-60.054 27.043-60.054z"/></g><use xlink:href="#o" class="B"/><g class="D E"><use xlink:href="#o"/></g><use xlink:href="#p" class="B"/><g class="D C"><use xlink:href="#p"/></g><g class="C"><path d="M189.209 277.504c-.09-.248-.164-.5-.223-.757l-.509-2.171-.682-3.486-.632-4.664-.273-2.717c-.1-.943-.087-1.948-.137-2.965-.124-2.047 0-4.242 0-6.55.224-5.005.855-9.983 1.886-14.886 1.105-4.87 2.594-9.644 4.453-14.278.918-2.109 1.762-4.131 2.729-5.942.472-.918.881-1.812 1.352-2.643l1.377-2.369c.844-1.526 1.762-2.816 2.481-3.97.638-.997 1.325-1.962 2.06-2.89l1.377-1.762c.15-.214.32-.414.508-.595-.107.24-.245.465-.409.67l-1.241 1.836a43.05 43.05 0 0 0-1.96 2.94c-.719 1.178-1.612 2.481-2.419 4.007l-1.327 2.369c-.459.819-.868 1.724-1.327 2.642-.943 1.811-1.749 3.834-2.643 5.93-1.823 4.628-3.287 9.389-4.379 14.241-1.014 4.861-1.66 9.792-1.935 14.75 0 2.295-.149 4.466 0 6.513 0 1.017 0 1.997.099 2.94s.162 1.848.224 2.716c.099 1.725.372 3.275.546 4.64s.372 2.543.57 3.498.285 1.625.397 2.196c.039.25.051.504.037.757zm103.411-86.44a14.3 14.3 0 0 1-2.035-.62l-2.357-.732-3.163-.868-3.883-.831-4.503-.708c-6.922-.819-13.929-.577-20.779.72-1.563.335-3.064.62-4.441 1.017l-3.808 1.104c-1.154.372-2.183.745-3.089 1.067a43.74 43.74 0 0 0-2.307.906 15.5 15.5 0 0 1-1.985.756c.594-.382 1.221-.71 1.873-.98a29.25 29.25 0 0 1 2.283-1.017c.905-.36 1.91-.806 3.076-1.166s2.481-.831 3.821-1.24 2.89-.732 4.466-1.08c3.45-.672 6.946-1.086 10.457-1.24a69.23 69.23 0 0 1 10.508.496c1.6.236 3.126.434 4.527.757l3.896.93a71.28 71.28 0 0 1 3.151.955c.918.298 1.711.583 2.344.844.675.253 1.327.564 1.948.93zm-32.155 147.808c-.532.059-1.069.059-1.6 0-1.03 0-2.481-.137-4.355-.36a63.68 63.68 0 0 1-13.968-3.436c-4.508-1.681-8.808-3.874-12.814-6.538-1.526-1.029-2.73-1.91-3.523-2.568-.451-.31-.867-.667-1.241-1.066.479.237.933.524 1.352.856.831.595 2.072 1.426 3.622 2.394 8.099 5.091 17.155 8.468 26.61 9.924 1.798.285 3.275.471 4.292.57a8.03 8.03 0 0 1 1.625.224zm-60.226-66.244l3.126 5.707 5.706 3.126-5.706 3.113-3.126 5.719-3.126-5.719-5.707-3.113 5.707-3.126 3.126-5.707z"/></g><path d="M209.071 215.589l1.588 2.903 2.915 1.588-2.915 1.588-1.588 2.903-1.588-2.903-2.902-1.588 2.902-1.588 1.588-2.903z" fill="#f5f5f5"/><path d="M317.418 206.881l3.076 5.632 5.632 3.076-5.632 3.064-3.076 5.632-3.064-5.632-5.632-3.064 5.632-3.076 3.064-5.632z" class="C"/><g fill="#f5f5f5"><path d="M315.272 321.083l2.233 4.081 4.082 2.233-4.082 2.233-2.233 4.081-2.233-4.081-4.081-2.233 4.081-2.233 2.233-4.081zm40.714-43.815l1.476 2.704 2.704 1.489-2.704 1.476-1.476 2.704-1.477-2.704-2.704-1.476 2.704-1.489 1.477-2.704zm-.002-30.319l.509.931.93.508-.93.509-.509.93-.508-.93-.931-.509.931-.508.508-.931zm-164.579 0l.509.931.93.508-.93.509-.509.93-.509-.93-.93-.509.93-.508.509-.931z"/></g><g class="C"><path d="M134.317 235.499l2.109 3.858 3.871 2.122-3.871 2.109-2.109 3.87-2.121-3.87-3.858-2.109 3.858-2.122 2.121-3.858zm41.534 147.895l1.426 2.605 2.618 1.439-2.618 1.427-1.426 2.617-1.439-2.617-2.605-1.427 2.605-1.439 1.439-2.605zM84.473 157.459l1.439 2.605 2.617 1.439-2.617 1.426-1.439 2.618-1.427-2.618-2.617-1.426 2.617-1.439 1.427-2.605zm148.354-35.479l1.427 2.617 2.617 1.427-2.617 1.439-1.427 2.605-1.426-2.605-2.618-1.439 2.618-1.427 1.426-2.617zm126.236 56.071l1.426 2.618 2.618 1.426-2.618 1.427-1.426 2.618-1.439-2.618-2.606-1.427 2.606-1.426 1.439-2.618zm-169.097-24.785l1.079 1.972 1.985 1.092-1.985 1.079-1.079 1.972-1.079-1.972-1.972-1.079 1.972-1.092 1.079-1.972zm83.376-68.514l1.092 1.985 1.972 1.079-1.972 1.079-1.092 1.985-1.079-1.985-1.973-1.079 1.973-1.079 1.079-1.985zm22.354 315.426l1.08 1.973 1.985 1.079-1.985 1.079-1.08 1.985-1.079-1.985-1.972-1.079 1.972-1.079 1.079-1.973z"/></g></g><defs ><path id="B" d="M465.734 211.719c-6.203 17.739-22.912 28.036-37.426 22.999s-21.3-23.495-15.135-41.235 22.913-27.998 37.427-23.036 21.287 23.57 15.134 41.272z"/><path id="C" d="M466.739 212.947c-6.004 17.367-22.268 27.378-36.335 22.503s-20.605-22.825-14.576-40.193 22.267-27.39 36.335-22.503 20.58 22.875 14.576 40.193z"/><path id="D" d="M296.056 102.516c7.319 12.48 4.962 27.44-5.223 33.432s-24.413.744-31.732-11.723-4.962-27.44 5.222-33.432 24.414-.744 31.733 11.723z"/><path id="E" d="M297.271 102.541c7.145 12.169 4.962 26.733-4.962 32.539s-23.682.645-30.827-11.525-4.962-26.733 4.962-32.538 23.682-.645 30.827 11.524z"/><path id="F" d="M207.179 287.91c12.604-18.373 4.95-45.526-17.095-60.649s-50.133-12.488-62.736 5.884-4.95 45.526 17.095 60.649 50.133 12.488 62.736-5.884z"/><path id="G" d="M154.116 278.136c16.945 11.624 38.381 9.813 47.896-4.056s3.486-34.524-13.447-46.148-38.394-9.812-47.909 4.057-3.486 34.523 13.46 46.147z"/><path id="H" d="M154.016 279.861c16.537 11.35 37.414 9.651 46.619-3.722s3.288-33.494-13.249-44.857-37.401-9.651-46.618 3.721-3.275 33.519 13.248 44.858z"/><path id="I" d="M370.848 201.393c7.454-25.908-4.005-51.946-25.595-58.157s-45.133 9.757-52.587 35.665 4.006 51.947 25.595 58.158 45.134-9.757 52.587-35.666z"/><path id="J" d="M379.369 418.352c-1.389 13.72-11.599 23.917-22.825 22.776s-19.204-13.162-17.814-26.882 11.599-23.905 22.825-22.776 19.203 13.162 17.814 26.882z"/><path id="K" d="M380.287 419.046c-1.352 13.386-11.252 23.347-22.131 22.255s-18.608-12.839-17.231-26.224 11.264-23.347 22.131-22.243 18.583 12.827 17.231 26.212z"/><path id="L" d="M186.209 381.158c4.396-17.954-9.502-36.785-31.043-42.06s-42.567 5.004-46.964 22.958 9.502 36.785 31.043 42.06 42.567-5.004 46.964-22.958z"/><path id="M" d="M150.816 353.721c16.561 4.056 27.291 18.322 23.979 31.869s-19.439 21.25-35.975 17.206-27.291-18.335-23.979-31.882 19.414-21.25 35.975-17.193z"/><path id="N" d="M151.833 352.716c16.127 3.945 26.647 17.789 23.434 30.914s-18.918 20.555-35.07 16.61-26.658-17.801-23.445-30.926 18.893-20.555 35.081-16.598z"/><path id="O" d="M24.268 218.05c8.643-1.709 13.721-12.848 11.341-24.879s-11.316-20.397-19.959-18.687-13.721 12.849-11.341 24.879 11.316 20.397 19.959 18.687z"/><path id="P" d="M12.263 198.21c-1.823-9.242 1.973-17.839 8.498-19.079s13.298 5.16 15.122 14.402-1.96 17.851-8.498 19.092-13.311-5.173-15.122-14.415z"/><path id="Q" d="M131.832 189.746c16.625-9.625 24.498-27.109 17.584-39.05s-25.996-13.818-42.621-4.193-24.498 27.109-17.584 39.051 25.996 13.818 42.621 4.192z"/><path id="R" d="M124.988 179.205c12.777-7.443 18.905-20.704 13.646-29.711s-19.849-10.333-32.589-2.927-18.905 20.704-13.645 29.71 19.811 10.297 32.588 2.928z"/><path id="S" d="M185.336 497.765c13.044-7.552 19.218-21.273 13.791-30.647s-20.401-10.851-33.445-3.299-19.219 21.274-13.792 30.648 20.402 10.851 33.446 3.298z"/><path id="T" d="M179.981 489.471c10.024-5.806 14.824-16.239 10.731-23.31s-15.544-8.1-25.567-2.295-14.887 16.239-10.743 23.322 15.543 8.088 25.579 2.283z"/><path id="U" d="M266.557 32.104c8.187-4.739 12.107-13.261 8.758-19.03s-12.678-6.612-20.866-1.873-12.12 13.249-8.758 19.067 12.678 6.575 20.866 1.836z"/><path id="V" d="M442.66 78.897c.273-10.135-5.309-18.496-12.405-18.682s-13.15 7.865-13.423 18 5.31 18.496 12.406 18.682 13.162-7.865 13.422-18z"/><path id="W" d="M483.162 342.99c9.986-10.73 11.959-25.157 4.379-32.253s-21.821-4.069-31.807 6.674-11.958 25.158-4.391 32.253 21.82 4.069 31.819-6.674z"/><path id="X" d="M259.176 380.181c-14.886-19.848-23.011-38.84-15.184-44.658 8.299-6.203 28.656 3.634 43.505 23.569s20.556 40.739 12.728 46.582c-1.91 1.439-4.007 2.989-9.85 2.245-9.229-1.253-19.997-12.728-31.199-27.738z"/><path id="Y" d="M255.293 381.719c-14.489-19.401-19.848-39.87-12.082-45.713s25.914 5.161 40.416 24.563 19.848 39.882 12.07 45.725-25.914-5.111-40.404-24.575z"/><path id="Z" d="M277.783 133.231c-11.078-4.156-29.016-4.094-48.455.36s-35.615 12.194-43.79 20.766l-8.311 1.911 2.865 12.492c3.101 13.546 29.983 18.942 60.054 12.057s51.928-23.445 48.826-36.979l-2.865-12.505-8.324 1.898z"/><path id="a" d="M236.226 159.071c-23.111 5.285-42.81 5.086-44.894-3.994-2.208-9.651 14.241-23.632 37.352-28.929s43.53-2.208 45.601 6.885c.521 2.22 1.067 4.652-1.848 9.465-4.59 7.604-18.782 12.579-36.211 16.573z"/><path id="b" d="M236.126 163.004c-22.552 5.16-42.525 1.985-44.658-7.108s14.514-20.643 37.066-25.803 42.513-1.985 44.659 7.108-14.576 20.692-37.067 25.803z"/><path id="c" d="M36.898 357.765c.298-5.26 3.56-12.554 8.882-19.675s11.376-12.318 16.35-14.104l2.27-3.04 4.578 3.325c4.962 3.722 2.32 15.631-5.905 26.646s-18.905 16.933-23.867 13.224l-4.578-3.411 2.27-2.965z"/><path id="d" d="M54.911 345.447c6.314-8.461 9.788-16.524 6.463-19.018-3.535-2.629-12.194 1.551-18.521 10.011s-8.746 17.368-5.409 19.849a4.78 4.78 0 0 0 1.983.974c.728.166 1.485.16 2.21-.019 3.92-.534 8.497-5.409 13.273-11.797z"/><path id="e" d="M56.561 346.104c6.203-8.262 8.46-16.97 5.136-19.451s-11.028 2.195-17.193 10.445-8.46 16.945-5.136 19.426 11.028-2.158 17.194-10.42z"/><path id="f" d="M123.884 33.779c3.858 1.699 8.411 6.203 12.244 12.194s6.029 11.996 5.967 16.226l1.637 2.555-3.845 2.481c-4.181 2.68-12.406-2.667-18.31-11.934s-7.357-18.93-3.189-21.61l3.846-2.481 1.65 2.568z"/><path id="g" d="M128.015 50.737c4.565 7.108 9.626 11.983 12.405 10.197s2.295-9.577-2.295-16.697-10.52-11.438-13.323-9.651a3.88 3.88 0 0 0-1.898 2.878c-.707 3.089 1.675 7.89 5.111 13.274z"/><path id="h" d="M127.06 51.779c4.454 6.947 10.334 11.165 13.125 9.341s1.464-8.882-2.99-15.829-10.333-11.165-13.125-9.341-1.463 8.882 2.99 15.829z"/><path id="i" d="M443.801 427.048c2.816-3.151 8.497-6.104 15.37-7.915s13.274-2.047 17.28-.682l2.94-.782 1.167 4.429c1.24 4.788-6.34 10.941-16.983 13.745s-20.283 1.191-21.523-3.647l-1.166-4.429 2.915-.719z"/><path id="j" d="M461.218 428.326c8.175-2.159 14.365-5.484 13.521-8.684-.905-3.411-8.41-5.111-16.598-2.952s-14.117 6.5-13.261 9.713c.122.585.38 1.134.753 1.601a3.82 3.82 0 0 0 1.393 1.091c2.717 1.625 8.014.856 14.192-.769z"/><path id="k" d="M461.9 429.554c7.977-2.097 13.758-6.414 12.914-9.627s-8.001-4.118-15.99-2.022-13.757 6.414-12.914 9.627 8.026 4.118 15.99 2.022z"/><path id="l" d="M536.604 192.528c3.064 2.903 5.856 8.684 7.443 15.593s1.663 13.324.199 17.281l.682 2.965-4.453 1.042c-4.826 1.129-10.756-6.649-13.261-17.368s-.608-20.307 4.217-21.436l4.454-1.042.719 2.965z"/><path id="m" d="M534.83 209.895c1.923 8.238 5.062 14.515 8.312 13.77s5.334-8.274 3.411-16.499-6.103-14.303-9.341-13.546c-.586.109-1.139.353-1.615.712a3.84 3.84 0 0 0-1.126 1.36c-1.712 2.667-1.092 7.988.359 14.203z"/><path id="n" d="M533.577 210.565c1.873 8.039 6.016 13.944 9.254 13.187s4.342-7.89 2.481-15.916-6.016-13.943-9.254-13.187-4.354 7.878-2.481 15.916z"/><path id="o" d="M333.669 271.524a65.89 65.89 0 0 1-19.94 32.64 65.88 65.88 0 0 1-34.712 16.062c-12.904 1.804-26.054-.26-37.786-5.929s-21.519-14.69-28.125-25.922a65.88 65.88 0 0 1 4.199-73.082c7.848-10.401 18.605-18.242 30.909-22.53s25.603-4.832 38.216-1.562c8.376 2.171 16.243 5.971 23.15 11.184a65.88 65.88 0 0 1 17.108 19.192 65.9 65.9 0 0 1 8.459 24.279 65.91 65.91 0 0 1-1.478 25.668z"/><path id="p" d="M334.785 274.65c-3.231 12.445-10.08 23.653-19.681 32.205a65 65 0 0 1-34.257 15.841c-12.734 1.777-25.709-.263-37.284-5.862s-21.229-14.504-27.742-25.59-9.592-23.854-8.848-36.69 5.279-25.163 13.029-35.422 18.37-17.989 30.514-22.212 25.268-4.75 37.712-1.514c16.68 4.338 30.955 15.123 39.685 29.983s11.202 32.579 6.872 49.261z"/></defs></svg>