<svg width="100" height="101" viewBox="0 0 100 101" fill="none" xmlns="http://www.w3.org/2000/svg">
<g clip-path="url(#clip0_6954_24583)">
<path d="M45.8333 58.7061C45.8333 58.7061 37.4999 71.2061 37.4999 83.7061C37.4999 92.0394 49.9999 92.0394 49.9999 92.0394C49.9999 92.0394 62.4999 92.0394 62.4999 83.7061C62.4999 81.7894 62.2916 79.8727 61.9583 77.9977C62.1249 78.2061 62.3333 78.4186 62.5416 78.6227C68.4583 84.4977 77.2916 75.6644 77.2916 75.6644C77.2916 75.6644 84.4583 68.4936 81.5833 62.7894C82.1666 62.8727 82.7499 62.8727 83.3333 62.8727C91.6666 62.8727 91.6666 50.3727 91.6666 50.3727C91.6666 50.3727 91.6666 37.8727 83.3333 37.8727C82.8333 37.8727 82.3749 37.8727 81.8749 37.9144C86.5416 32.0394 78.3749 23.8727 78.3749 23.8727C78.3749 23.8727 69.5458 15.0394 63.6249 20.9144C63.0416 21.4977 62.4624 22.1227 61.9624 22.7477C62.2916 20.8727 62.4999 18.9561 62.4999 17.0394C62.4999 8.70605 49.9999 8.70605 49.9999 8.70605C49.9999 8.70605 37.4999 8.70605 37.4999 17.0394C37.4999 18.4977 37.6249 19.9561 37.8333 21.3727C36.7083 19.7477 35.4583 18.1644 34.0416 16.7477C28.1666 10.8727 19.3333 19.7061 19.3333 19.7061C19.3333 19.7061 10.4999 28.5394 16.3749 34.4144C17.7916 35.8311 19.3749 37.0811 20.9999 38.2061C19.5833 37.9977 18.1249 37.8727 16.6666 37.8727C8.33325 37.8727 8.33325 50.3727 8.33325 50.3727C8.33325 50.3727 8.33325 62.8727 16.6666 62.8727C29.1666 62.8727 41.6666 54.5394 41.6666 54.5394L45.8333 58.7061Z" fill="#F24C64"/>
<path d="M15.2958 65.0894C24.1333 56.2519 38.8667 53.306 38.8667 53.306L44.7583 59.1977C44.7583 59.1977 41.8125 73.931 32.975 82.7685C27.0792 88.6602 18.2417 79.8227 18.2417 79.8227C18.2417 79.8227 9.39998 70.9852 15.2958 65.0894Z" fill="#F68293"/>
<path opacity="0.3" d="M77.2916 75.6644C77.2916 75.6644 68.4583 84.4977 62.5416 78.6227C57.7916 73.8686 54.7499 67.4519 52.9583 62.4977C56.4999 61.6644 59.4166 59.3311 61.0833 56.1602C65.1624 58.4561 73.2499 62.3269 81.5833 62.7894C84.4583 68.4977 77.2916 75.6644 77.2916 75.6644ZM78.3749 23.8727C78.3749 23.8727 69.5458 15.0394 63.6249 20.9144C63.0416 21.4977 62.4624 22.1227 61.9624 22.7477C60.7541 29.6227 57.7083 35.8727 55.8374 39.2894C59.4583 41.2061 62.0416 44.8727 62.4208 49.1227C67.4624 47.5394 75.5833 44.2894 81.2916 38.5811C87.2083 32.7061 78.3749 23.8727 78.3749 23.8727ZM34.0416 16.7477C28.1666 10.8727 19.3333 19.7061 19.3333 19.7061C19.3333 19.7061 10.4999 28.5394 16.3749 34.4144C23.4583 41.4977 34.3333 44.7894 38.3749 45.8311C39.6249 42.5811 42.2083 39.9977 45.4583 38.7477C44.4166 34.7061 41.1249 23.8311 34.0416 16.7477Z" fill="white"/>
<path d="M50 62.8727C56.9036 62.8727 62.5 57.2762 62.5 50.3727C62.5 43.4691 56.9036 37.8727 50 37.8727C43.0964 37.8727 37.5 43.4691 37.5 50.3727C37.5 57.2762 43.0964 62.8727 50 62.8727Z" fill="#F6C549"/>
</g>
<defs>
<clipPath id="clip0_6954_24583">
<rect width="100" height="100" fill="white" transform="translate(0 0.372681)"/>
</clipPath>
</defs>
</svg>
