<svg width="50" height="50" viewBox="0 0 50 50" fill="none" xmlns="http://www.w3.org/2000/svg">
<g clip-path="url(#clip0_6897_24788)">
<path d="M41.6666 29.1667C41.6666 29.25 41.625 45.8333 25 45.8333C8.37496 45.8333 8.35413 29.25 8.35413 29.1667C16.0416 29.1667 20.5625 33.1042 22.9166 36.125V25H27.0833V36.1458C29.4166 33.1042 33.9583 29.1667 41.6666 29.1667Z" fill="white"/>
<path d="M39.5833 16.6667C39.5833 20.8333 37.5 29.1667 25 29.1667C12.5 29.1667 10.4166 20.8333 10.4166 16.6667C10.4166 13.8542 10.9791 10.9792 12.0208 8.41666C14.3541 8.68749 16.5208 9.49999 18.3958 10.7292C19.6458 8.33332 21.8333 6.06249 25 4.16666C28.1666 6.06249 30.3541 8.33332 31.6041 10.7292C33.4791 9.49999 35.6458 8.68749 37.9812 8.41666C39.0208 10.9792 39.5833 13.8542 39.5833 16.6667Z" fill="white"/>
<path opacity="0.2" d="M41.6666 29.1667C41.6666 29.25 41.625 45.8333 25 45.8333C8.37496 45.8333 8.35413 29.25 8.35413 29.1667C20.875 29.1667 25 39.5833 25 39.5833C25 39.5833 29.1458 29.1667 41.6666 29.1667Z" fill="white"/>
</g>
<defs>
<clipPath id="clip0_6897_24788">
<rect width="50" height="50" fill="white"/>
</clipPath>
</defs>
</svg>
