<svg xmlns="http://www.w3.org/2000/svg" width="757" height="316" fill="none" viewBox="0 0 757 316"><mask id="mask0_230_2479" width="274" height="213" x="0" y="0" maskUnits="userSpaceOnUse" style="mask-type:alpha"><rect width="274" height="213" fill="#D9D9D9"/></mask><g mask="url(#mask0_230_2479)"><circle cx="76.346" cy="49.347" r="49.462" stroke="#E1E8F7" stroke-opacity=".6" stroke-width="2"/><circle cx="76.346" cy="49.347" r="61.573" stroke="#E1E8F7" stroke-opacity=".6" stroke-width="2"/><circle cx="76.346" cy="49.346" r="73.683" stroke="#E1E8F7" stroke-opacity=".6" stroke-width="2"/><circle cx="76.346" cy="49.347" r="85.794" stroke="#E1E8F7" stroke-opacity=".6" stroke-width="2"/><circle cx="76.346" cy="49.346" r="97.905" stroke="#E1E8F7" stroke-opacity=".6" stroke-width="2"/><circle cx="76.346" cy="49.346" r="110.016" stroke="#E1E8F7" stroke-opacity=".6" stroke-width="2"/><circle cx="76.346" cy="49.345" r="122.127" stroke="#E1E8F7" stroke-opacity=".6" stroke-width="2"/><circle cx="76.346" cy="49.347" r="134.238" stroke="#E1E8F7" stroke-opacity=".6" stroke-width="2"/><circle cx="76.346" cy="49.346" r="146.349" stroke="#E1E8F7" stroke-opacity=".6" stroke-width="2"/><circle cx="76.347" cy="49.347" r="158.459" stroke="#E1E8F7" stroke-opacity=".6" stroke-width="2"/><circle cx="76.346" cy="49.346" r="170.57" stroke="#E1E8F7" stroke-opacity=".6" stroke-width="2"/><circle cx="76.346" cy="49.346" r="182.681" stroke="#E1E8F7" stroke-opacity=".6" stroke-width="2"/><circle cx="76.346" cy="49.345" r="194.792" stroke="#E1E8F7" stroke-opacity=".6" stroke-width="2"/><circle cx="76.346" cy="49.346" r="206.903" stroke="#E1E8F7" stroke-opacity=".6" stroke-width="2"/><circle cx="76.346" cy="49.345" r="219.014" stroke="#E1E8F7" stroke-opacity=".6" stroke-width="2"/><circle cx="76.346" cy="49.347" r="231.125" stroke="#E1E8F7" stroke-opacity=".6" stroke-width="2"/><circle cx="76.346" cy="49.346" r="243.235" stroke="#E1E8F7" stroke-opacity=".6" stroke-width="2"/><circle cx="76.346" cy="49.346" r="255.346" stroke="#E1E8F7" stroke-opacity=".6" stroke-width="2"/></g><mask id="mask1_230_2479" width="261" height="212" x="270" y="1" maskUnits="userSpaceOnUse" style="mask-type:alpha"><rect width="261" height="212" x="270" y="1" fill="#D9D9D9"/></mask><g mask="url(#mask1_230_2479)"><circle cx="363.649" cy="-21.135" r="52.628" stroke="#E1E8F7" stroke-opacity=".6" stroke-width="2"/><circle cx="363.649" cy="-21.135" r="65.499" stroke="#E1E8F7" stroke-opacity=".6" stroke-width="2"/><circle cx="363.649" cy="-21.136" r="78.37" stroke="#E1E8F7" stroke-opacity=".6" stroke-width="2"/><circle cx="363.649" cy="-21.135" r="91.241" stroke="#E1E8F7" stroke-opacity=".6" stroke-width="2"/><circle cx="363.648" cy="-21.136" r="104.112" stroke="#E1E8F7" stroke-opacity=".6" stroke-width="2"/><circle cx="363.649" cy="-21.136" r="116.983" stroke="#E1E8F7" stroke-opacity=".6" stroke-width="2"/><circle cx="363.649" cy="-21.137" r="129.853" stroke="#E1E8F7" stroke-opacity=".6" stroke-width="2"/><circle cx="363.648" cy="-21.135" r="142.724" stroke="#E1E8F7" stroke-opacity=".6" stroke-width="2"/><circle cx="363.648" cy="-21.136" r="155.595" stroke="#E1E8F7" stroke-opacity=".6" stroke-width="2"/><circle cx="363.649" cy="-21.135" r="168.466" stroke="#E1E8F7" stroke-opacity=".6" stroke-width="2"/><circle cx="363.649" cy="-21.136" r="181.337" stroke="#E1E8F7" stroke-opacity=".6" stroke-width="2"/><circle cx="363.649" cy="-21.136" r="194.207" stroke="#E1E8F7" stroke-opacity=".6" stroke-width="2"/><circle cx="363.649" cy="-21.137" r="207.078" stroke="#E1E8F7" stroke-opacity=".6" stroke-width="2"/><circle cx="363.649" cy="-21.136" r="219.949" stroke="#E1E8F7" stroke-opacity=".6" stroke-width="2"/><circle cx="363.649" cy="-21.137" r="232.82" stroke="#E1E8F7" stroke-opacity=".6" stroke-width="2"/><circle cx="363.649" cy="-21.135" r="245.691" stroke="#E1E8F7" stroke-opacity=".6" stroke-width="2"/><circle cx="363.649" cy="-21.136" r="258.562" stroke="#E1E8F7" stroke-opacity=".6" stroke-width="2"/><circle cx="363.649" cy="-21.136" r="271.432" stroke="#E1E8F7" stroke-opacity=".6" stroke-width="2"/></g><mask id="mask2_230_2479" width="226" height="211" x="531" y="2" maskUnits="userSpaceOnUse" style="mask-type:alpha"><rect width="226" height="211" x="531" y="2" fill="#D9D9D9"/></mask><g mask="url(#mask2_230_2479)"><circle cx="620.784" cy="-19.221" r="50.415" stroke="#E1E8F7" stroke-opacity=".6" stroke-width="2"/><circle cx="620.784" cy="-19.221" r="62.755" stroke="#E1E8F7" stroke-opacity=".6" stroke-width="2"/><circle cx="620.784" cy="-19.221" r="75.094" stroke="#E1E8F7" stroke-opacity=".6" stroke-width="2"/><circle cx="620.784" cy="-19.221" r="87.434" stroke="#E1E8F7" stroke-opacity=".6" stroke-width="2"/><circle cx="620.783" cy="-19.222" r="99.774" stroke="#E1E8F7" stroke-opacity=".6" stroke-width="2"/><circle cx="620.784" cy="-19.221" r="112.113" stroke="#E1E8F7" stroke-opacity=".6" stroke-width="2"/><circle cx="620.784" cy="-19.222" r="124.453" stroke="#E1E8F7" stroke-opacity=".6" stroke-width="2"/><circle cx="620.784" cy="-19.221" r="136.793" stroke="#E1E8F7" stroke-opacity=".6" stroke-width="2"/><circle cx="620.783" cy="-19.222" r="149.132" stroke="#E1E8F7" stroke-opacity=".6" stroke-width="2"/><circle cx="620.784" cy="-19.221" r="161.472" stroke="#E1E8F7" stroke-opacity=".6" stroke-width="2"/><circle cx="620.784" cy="-19.222" r="173.812" stroke="#E1E8F7" stroke-opacity=".6" stroke-width="2"/><circle cx="620.784" cy="-19.221" r="186.151" stroke="#E1E8F7" stroke-opacity=".6" stroke-width="2"/><circle cx="620.784" cy="-19.222" r="198.491" stroke="#E1E8F7" stroke-opacity=".6" stroke-width="2"/><circle cx="620.784" cy="-19.222" r="210.831" stroke="#E1E8F7" stroke-opacity=".6" stroke-width="2"/><circle cx="620.784" cy="-19.223" r="223.17" stroke="#E1E8F7" stroke-opacity=".6" stroke-width="2"/><circle cx="620.784" cy="-19.221" r="235.51" stroke="#E1E8F7" stroke-opacity=".6" stroke-width="2"/><circle cx="620.784" cy="-19.221" r="247.85" stroke="#E1E8F7" stroke-opacity=".6" stroke-width="2"/><circle cx="620.784" cy="-19.221" r="260.189" stroke="#E1E8F7" stroke-opacity=".6" stroke-width="2"/></g></svg>