<svg width="757" height="316" viewBox="0 0 757 316" fill="none" xmlns="http://www.w3.org/2000/svg">
<mask id="mask0_230_2479" style="mask-type:alpha" maskUnits="userSpaceOnUse" x="0" y="0" width="274" height="213">
<rect width="274" height="213" fill="#D9D9D9"/>
</mask>
<g mask="url(#mask0_230_2479)">
<circle cx="76.3461" cy="49.3466" r="49.4618" stroke="#E1E8F7" stroke-opacity="0.6" stroke-width="2"/>
<circle cx="76.3464" cy="49.347" r="61.5727" stroke="#E1E8F7" stroke-opacity="0.6" stroke-width="2"/>
<circle cx="76.3461" cy="49.3463" r="73.6835" stroke="#E1E8F7" stroke-opacity="0.6" stroke-width="2"/>
<circle cx="76.3459" cy="49.3466" r="85.7944" stroke="#E1E8F7" stroke-opacity="0.6" stroke-width="2"/>
<circle cx="76.3459" cy="49.3458" r="97.9052" stroke="#E1E8F7" stroke-opacity="0.6" stroke-width="2"/>
<circle cx="76.3461" cy="49.3461" r="110.016" stroke="#E1E8F7" stroke-opacity="0.6" stroke-width="2"/>
<circle cx="76.3459" cy="49.3454" r="122.127" stroke="#E1E8F7" stroke-opacity="0.6" stroke-width="2"/>
<circle cx="76.3459" cy="49.347" r="134.238" stroke="#E1E8F7" stroke-opacity="0.6" stroke-width="2"/>
<circle cx="76.3457" cy="49.3462" r="146.349" stroke="#E1E8F7" stroke-opacity="0.6" stroke-width="2"/>
<circle cx="76.3466" cy="49.3466" r="158.459" stroke="#E1E8F7" stroke-opacity="0.6" stroke-width="2"/>
<circle cx="76.3464" cy="49.3458" r="170.57" stroke="#E1E8F7" stroke-opacity="0.6" stroke-width="2"/>
<circle cx="76.3462" cy="49.3462" r="182.681" stroke="#E1E8F7" stroke-opacity="0.6" stroke-width="2"/>
<circle cx="76.3464" cy="49.3454" r="194.792" stroke="#E1E8F7" stroke-opacity="0.6" stroke-width="2"/>
<circle cx="76.3464" cy="49.3458" r="206.903" stroke="#E1E8F7" stroke-opacity="0.6" stroke-width="2"/>
<circle cx="76.3462" cy="49.345" r="219.014" stroke="#E1E8F7" stroke-opacity="0.6" stroke-width="2"/>
<circle cx="76.3462" cy="49.3466" r="231.125" stroke="#E1E8F7" stroke-opacity="0.6" stroke-width="2"/>
<circle cx="76.3462" cy="49.3458" r="243.235" stroke="#E1E8F7" stroke-opacity="0.6" stroke-width="2"/>
<circle cx="76.3462" cy="49.3462" r="255.346" stroke="#E1E8F7" stroke-opacity="0.6" stroke-width="2"/>
</g>
<mask id="mask1_230_2479" style="mask-type:alpha" maskUnits="userSpaceOnUse" x="270" y="1" width="261" height="212">
<rect x="270" y="1" width="261" height="212" fill="#D9D9D9"/>
</mask>
<g mask="url(#mask1_230_2479)">
<circle cx="363.649" cy="-21.1354" r="52.6284" stroke="#E1E8F7" stroke-opacity="0.6" stroke-width="2"/>
<circle cx="363.649" cy="-21.1349" r="65.4993" stroke="#E1E8F7" stroke-opacity="0.6" stroke-width="2"/>
<circle cx="363.649" cy="-21.1358" r="78.3701" stroke="#E1E8F7" stroke-opacity="0.6" stroke-width="2"/>
<circle cx="363.649" cy="-21.1353" r="91.2409" stroke="#E1E8F7" stroke-opacity="0.6" stroke-width="2"/>
<circle cx="363.648" cy="-21.1362" r="104.112" stroke="#E1E8F7" stroke-opacity="0.6" stroke-width="2"/>
<circle cx="363.649" cy="-21.1357" r="116.983" stroke="#E1E8F7" stroke-opacity="0.6" stroke-width="2"/>
<circle cx="363.649" cy="-21.1366" r="129.853" stroke="#E1E8F7" stroke-opacity="0.6" stroke-width="2"/>
<circle cx="363.648" cy="-21.1349" r="142.724" stroke="#E1E8F7" stroke-opacity="0.6" stroke-width="2"/>
<circle cx="363.648" cy="-21.1358" r="155.595" stroke="#E1E8F7" stroke-opacity="0.6" stroke-width="2"/>
<circle cx="363.649" cy="-21.1354" r="168.466" stroke="#E1E8F7" stroke-opacity="0.6" stroke-width="2"/>
<circle cx="363.649" cy="-21.1362" r="181.337" stroke="#E1E8F7" stroke-opacity="0.6" stroke-width="2"/>
<circle cx="363.649" cy="-21.1358" r="194.207" stroke="#E1E8F7" stroke-opacity="0.6" stroke-width="2"/>
<circle cx="363.649" cy="-21.1365" r="207.078" stroke="#E1E8F7" stroke-opacity="0.6" stroke-width="2"/>
<circle cx="363.649" cy="-21.1363" r="219.949" stroke="#E1E8F7" stroke-opacity="0.6" stroke-width="2"/>
<circle cx="363.649" cy="-21.1371" r="232.82" stroke="#E1E8F7" stroke-opacity="0.6" stroke-width="2"/>
<circle cx="363.649" cy="-21.1354" r="245.691" stroke="#E1E8F7" stroke-opacity="0.6" stroke-width="2"/>
<circle cx="363.649" cy="-21.1361" r="258.562" stroke="#E1E8F7" stroke-opacity="0.6" stroke-width="2"/>
<circle cx="363.649" cy="-21.1359" r="271.432" stroke="#E1E8F7" stroke-opacity="0.6" stroke-width="2"/>
</g>
<mask id="mask2_230_2479" style="mask-type:alpha" maskUnits="userSpaceOnUse" x="531" y="2" width="226" height="211">
<rect x="531" y="2" width="226" height="211" fill="#D9D9D9"/>
</mask>
<g mask="url(#mask2_230_2479)">
<circle cx="620.784" cy="-19.2207" r="50.4152" stroke="#E1E8F7" stroke-opacity="0.6" stroke-width="2"/>
<circle cx="620.784" cy="-19.2206" r="62.7548" stroke="#E1E8F7" stroke-opacity="0.6" stroke-width="2"/>
<circle cx="620.784" cy="-19.2214" r="75.0945" stroke="#E1E8F7" stroke-opacity="0.6" stroke-width="2"/>
<circle cx="620.784" cy="-19.2213" r="87.4341" stroke="#E1E8F7" stroke-opacity="0.6" stroke-width="2"/>
<circle cx="620.783" cy="-19.2221" r="99.7738" stroke="#E1E8F7" stroke-opacity="0.6" stroke-width="2"/>
<circle cx="620.784" cy="-19.2211" r="112.113" stroke="#E1E8F7" stroke-opacity="0.6" stroke-width="2"/>
<circle cx="620.784" cy="-19.2219" r="124.453" stroke="#E1E8F7" stroke-opacity="0.6" stroke-width="2"/>
<circle cx="620.784" cy="-19.2208" r="136.793" stroke="#E1E8F7" stroke-opacity="0.6" stroke-width="2"/>
<circle cx="620.783" cy="-19.2216" r="149.132" stroke="#E1E8F7" stroke-opacity="0.6" stroke-width="2"/>
<circle cx="620.784" cy="-19.2215" r="161.472" stroke="#E1E8F7" stroke-opacity="0.6" stroke-width="2"/>
<circle cx="620.784" cy="-19.2223" r="173.812" stroke="#E1E8F7" stroke-opacity="0.6" stroke-width="2"/>
<circle cx="620.784" cy="-19.2213" r="186.151" stroke="#E1E8F7" stroke-opacity="0.6" stroke-width="2"/>
<circle cx="620.784" cy="-19.2219" r="198.491" stroke="#E1E8F7" stroke-opacity="0.6" stroke-width="2"/>
<circle cx="620.784" cy="-19.2219" r="210.831" stroke="#E1E8F7" stroke-opacity="0.6" stroke-width="2"/>
<circle cx="620.784" cy="-19.2228" r="223.17" stroke="#E1E8F7" stroke-opacity="0.6" stroke-width="2"/>
<circle cx="620.784" cy="-19.2208" r="235.51" stroke="#E1E8F7" stroke-opacity="0.6" stroke-width="2"/>
<circle cx="620.784" cy="-19.2215" r="247.85" stroke="#E1E8F7" stroke-opacity="0.6" stroke-width="2"/>
<circle cx="620.784" cy="-19.2215" r="260.189" stroke="#E1E8F7" stroke-opacity="0.6" stroke-width="2"/>
</g>
</svg>
