<svg fill="none" height="24" viewBox="0 0 24 24" width="24" xmlns="http://www.w3.org/2000/svg" xmlns:xlink="http://www.w3.org/1999/xlink"><clipPath id="a"><path d="m0 0h24v24h-24z"/></clipPath><g clip-path="url(#a)"><path d="m4.025 12c0-2.339 1.013-4.436 2.616-5.895l-1.54-1.334c-1.907 1.821-3.101 4.383-3.101 7.229s1.194 5.407 3.102 7.229l1.54-1.334c-1.604-1.459-2.617-3.556-2.617-5.895zm3.975 0c0-1.345.669-2.529 1.688-3.254l-1.537-1.332c-1.308 1.099-2.14 2.744-2.14 4.586s.833 3.486 2.14 4.586l1.537-1.332c-1.019-.725-1.688-1.908-1.688-3.254zm4-1.991c1.1 0 1.991.892 1.991 1.991s-.891 1.991-1.991 1.991-1.991-.891-1.991-1.991.891-1.991 1.991-1.991zm4 1.991c0 1.346-.669 2.529-1.688 3.254l1.537 1.333c1.308-1.099 2.141-2.745 2.141-4.587s-.833-3.488-2.141-4.586l-1.537 1.333c1.018.724 1.688 1.908 1.688 3.253zm2.898-7.229-1.539 1.334c1.604 1.459 2.615 3.556 2.615 5.895s-1.013 4.436-2.615 5.895l1.539 1.334c1.909-1.822 3.102-4.383 3.102-7.229s-1.193-5.408-3.102-7.229z" fill="#42a5f5"/><g fill="#fff"><path d="m4.025 12c0-2.339 1.013-4.436 2.616-5.895l-1.54-1.334c-1.907 1.821-3.101 4.383-3.101 7.229s1.194 5.407 3.102 7.229l1.54-1.334c-1.604-1.459-2.617-3.556-2.617-5.895zm3.975 0c0-1.345.669-2.529 1.688-3.254l-1.537-1.332c-1.308 1.099-2.14 2.744-2.14 4.586s.833 3.486 2.14 4.586l1.537-1.332c-1.019-.725-1.688-1.908-1.688-3.254z" opacity=".4"/><path d="m16 12c0 1.346-.669 2.529-1.688 3.254l1.537 1.333c1.308-1.099 2.141-2.745 2.141-4.587s-.833-3.488-2.141-4.586l-1.537 1.333c1.018.724 1.688 1.908 1.688 3.253zm2.898-7.229-1.539 1.334c1.604 1.459 2.615 3.556 2.615 5.895s-1.013 4.436-2.615 5.895l1.539 1.334c1.909-1.822 3.102-4.383 3.102-7.229s-1.193-5.408-3.102-7.229z" opacity=".2"/></g></g></svg>