<svg fill="none" height="36" viewBox="0 0 36 36" width="36" xmlns="http://www.w3.org/2000/svg"><path d="m8.325 26.4375c1.575-1.1 3.1375-1.9438 4.6875-2.5313 1.55-.5874 3.2125-.8812 4.9875-.8812s3.4438.2938 5.0062.8812c1.5625.5875 3.1313 1.4313 4.7063 2.5313 1.1-1.35 1.8813-2.7125 2.3438-4.0875s.6937-2.825.6937-4.35c0-3.625-1.2188-6.6562-3.6562-9.09375-2.4376-2.4375-5.4688-3.65625-9.0938-3.65625s-6.6562 1.21875-9.09375 3.65625c-2.4375 2.43755-3.65625 5.46875-3.65625 9.09375 0 1.525.2375 2.975.7125 4.35s1.2625 2.7375 2.3625 4.0875zm9.675-7.3125c-1.45 0-2.6687-.4938-3.6562-1.4813-.9876-.9875-1.4813-2.2062-1.4813-3.6562s.4937-2.6688 1.4813-3.6563c.9875-.98745 2.2062-1.4812 3.6562-1.4812s2.6688.49375 3.6562 1.4812c.9875.9875 1.4813 2.2063 1.4813 3.6563s-.4938 2.6687-1.4813 3.6562c-.9874.9875-2.2062 1.4813-3.6562 1.4813zm0 13.875c-2.05 0-3.9875-.3938-5.8125-1.1813s-3.41875-1.8625-4.78125-3.2249c-1.3625-1.3625-2.4375-2.9563-3.225-4.7813s-1.18125-3.7625-1.18125-5.8125c0-2.075.39375-4.0187 1.18125-5.8312s1.8625-3.40005 3.225-4.76255 2.95625-2.4375 4.78125-3.225 3.7625-1.18125 5.8125-1.18125c2.075 0 4.0187.39375 5.8312 1.18125s3.4001 1.8625 4.7626 3.225c1.3624 1.3625 2.4374 2.95005 3.2249 4.76255s1.1813 3.7562 1.1813 5.8312c0 2.05-.3938 3.9875-1.1813 5.8125s-1.8625 3.4188-3.2249 4.7813c-1.3625 1.3624-2.9501 2.4374-4.7626 3.2249s-3.7562 1.1813-5.8312 1.1813zm0-2.25c1.375 0 2.7188-.2 4.0312-.6 1.3126-.4 2.6063-1.1 3.8813-2.1-1.275-.9-2.575-1.5875-3.9-2.0625s-2.6625-.7125-4.0125-.7125-2.6875.2375-4.0125.7125-2.625 1.1625-3.9 2.0625c1.275 1 2.5687 1.7 3.8813 2.1 1.3124.4 2.6562.6 4.0312.6zm0-13.875c.85 0 1.5437-.2688 2.0812-.8063s.8063-1.2312.8063-2.0812-.2688-1.5437-.8063-2.0813c-.5375-.5375-1.2312-.8062-2.0812-.8062s-1.5437.2687-2.0812.8062c-.5375.5376-.8063 1.2313-.8063 2.0813s.2688 1.5437.8063 2.0812 1.2312.8063 2.0812.8063z" fill="#5b89f7"/></svg>