<svg fill="none" height="36" viewBox="0 0 36 36" width="36" xmlns="http://www.w3.org/2000/svg"><path d="m4.65 16.5v-3.1875l8.8125-8.8125h3.1875zm-.15-6.225v-3.1875l2.5875-2.5875h3.1875zm19.7625-.6375c-.25-.275-.5188-.54375-.8063-.80625s-.5812-.49375-.8812-.69375l3.6375-3.6375h3.1875zm-16.0125 12.825 2.8875-2.8875c.175.275.3562.525.5437.75s.3938.4375.6188.6375l-.7125.1875c-.575.175-1.1375.375-1.6875.6s-1.1.4625-1.65.7125zm17.925-8.325c-.05-.475-.1312-.9313-.2437-1.3688s-.2563-.8312-.4313-1.1812l6-6v3.225zm-8.5875-7.3875 2.25-2.25h3.1875l-2.625 2.625c-.325-.125-.7063-.21875-1.1438-.28125s-.8562-.09375-1.2562-.09375zm-13.0875 16.3125v-3.1875l5.25-5.25v.375c0 .425.03125.8625.09375 1.3125s.15625.8125.28125 1.0875zm25.125.4125c-.275-.225-.5875-.4375-.9375-.6375s-.7125-.375-1.0875-.525l3.9-3.9v3.1875zm-4.35-2.025c-.275-.075-.5437-.1563-.8062-.2438-.2626-.0875-.5313-.1687-.8063-.2437.475-.4.8937-.9125 1.2562-1.5375s.6438-1.1875.8438-1.6875l5.7375-5.7375v3.225zm-7.275-.45c-1.65 0-3.0625-.5875-4.2375-1.7625s-1.7625-2.5875-1.7625-4.2375.5875-3.0625 1.7625-4.2375 2.5875-1.7625 4.2375-1.7625 3.0625.5875 4.2375 1.7625 1.7625 2.5875 1.7625 4.2375-.5875 3.0625-1.7625 4.2375-2.5875 1.7625-4.2375 1.7625zm0-2.25c1.05 0 1.9375-.3625 2.6625-1.0875s1.0875-1.6125 1.0875-2.6625-.3625-1.9375-1.0875-2.6625-1.6125-1.0875-2.6625-1.0875-1.9375.3625-2.6625 1.0875-1.0875 1.6125-1.0875 2.6625.3625 1.9375 1.0875 2.6625 1.6125 1.0875 2.6625 1.0875zm-12 12.75v-2.6625c0-.85.2125-1.6375.6375-2.3625s1.0125-1.275 1.7625-1.65c1.275-.65 2.7188-1.2 4.3313-1.65s3.3687-.675 5.2687-.675 3.6562.225 5.2687.675c1.6126.45 3.0563 1 4.3313 1.65.75.375 1.3375.925 1.7625 1.65s.6375 1.5125.6375 2.3625v2.6625zm2.25-2.25h19.5c0-.625-.1313-1.1438-.3938-1.5563s-.5312-.6937-.8062-.8437c-.95-.475-2.1438-.9438-3.5812-1.4063-1.4376-.4625-3.0938-.6937-4.9688-.6937s-3.5312.2312-4.9688.6937c-1.4374.4625-2.6312.9313-3.5812 1.4063-.275.15-.54375.4437-.80625.8812s-.39375.9438-.39375 1.5188z" fill="#5b89f7"/></svg>