<svg xmlns="http://www.w3.org/2000/svg" xmlns:xlink="http://www.w3.org/1999/xlink" x="0" y="0" version="1.1" viewBox="0 0 48 48" xml:space="preserve" style="enable-background:new 0 0 48 48"><style type="text/css">.st0{opacity:.3}</style><rect width="7.2" height="12.6" x="20.4" y="5.6" fill="currentColor" class="st0"/><path fill="#000" d="M28.4,26.8h8.5v-2.5h-8.5V26.8z M28.4,32.4h8.5v-2.5h-8.5V32.4z M29.5,13.7h11.4c0.9,0,1.7,0.3,2.4,1c0.7,0.7,1,1.5,1,2.4	v23.8c0,0.9-0.3,1.7-1,2.4c-0.7,0.7-1.5,1-2.4,1H7.1c-0.9,0-1.7-0.3-2.4-1c-0.7-0.7-1-1.5-1-2.4V17.1c0-0.9,0.3-1.7,1-2.4	c0.7-0.7,1.5-1,2.4-1h11.4V7c0-0.9,0.3-1.6,1-2.3s1.4-1,2.3-1h4.4c0.9,0,1.6,0.3,2.3,1s1,1.4,1,2.3V13.7z M22,16.7h4.1V7.1H22V16.7z M24,29.4L24,29.4L24,29.4L24,29.4L24,29.4L24,29.4L24,29.4L24,29.4L24,29.4L24,29.4L24,29.4L24,29.4L24,29.4z M17.7,29.9	c0.8,0,1.4-0.3,1.9-0.8s0.8-1.2,0.8-1.9c0-0.7-0.3-1.4-0.8-1.9c-0.5-0.5-1.2-0.8-1.9-0.8c-0.7,0-1.4,0.3-1.9,0.8	c-0.5,0.5-0.8,1.2-0.8,1.9c0,0.8,0.3,1.4,0.8,1.9S17,29.9,17.7,29.9z M11.6,35.8h11.9V35c0-0.6-0.1-1.1-0.4-1.6s-0.7-0.8-1.1-1	c-1.1-0.4-1.9-0.6-2.5-0.7c-0.6-0.1-1.2-0.2-1.8-0.2c-0.6,0-1.3,0.1-2,0.2c-0.7,0.1-1.5,0.4-2.4,0.7c-0.5,0.2-0.9,0.5-1.2,1	c-0.3,0.5-0.4,1-0.4,1.6V35.8z M18.5,17.1H7.1l0,0l0,0v23.8l0,0l0,0h33.8l0,0l0,0V17.1l0,0l0,0H29.5c0,0.9-0.3,1.7-1,2.2	c-0.6,0.5-1.4,0.8-2.4,0.8h-4.3c-0.9,0-1.7-0.3-2.3-0.8C18.9,18.8,18.5,18,18.5,17.1z"/></svg>