<svg fill="none" height="24" viewBox="0 0 24 24" width="24" xmlns="http://www.w3.org/2000/svg"><path d="m7 12.675h10v-1.5h-10zm5 9.325c-1.3667 0-2.65833-.2625-3.875-.7875s-2.27917-1.2417-3.1875-2.15-1.625-1.9708-2.15-3.1875-.7875-2.5083-.7875-3.875c0-1.3833.2625-2.68333.7875-3.9s1.24167-2.275 2.15-3.175 1.97083-1.6125 3.1875-2.1375 2.5083-.7875 3.875-.7875c1.3833 0 2.6833.2625 3.9.7875s2.275 1.2375 3.175 2.1375 1.6125 1.95833 2.1375 3.175.7875 2.5167.7875 3.9c0 1.3667-.2625 2.6583-.7875 3.875s-1.2375 2.2792-2.1375 3.1875-1.9583 1.625-3.175 2.15-2.5167.7875-3.9.7875zm0-1.5c2.3667 0 4.375-.8292 6.025-2.4875s2.475-3.6625 2.475-6.0125c0-2.36667-.825-4.375-2.475-6.025s-3.6583-2.475-6.025-2.475c-2.35 0-4.35417.825-6.0125 2.475s-2.4875 3.65833-2.4875 6.025c0 2.35.82917 4.3542 2.4875 6.0125s3.6625 2.4875 6.0125 2.4875z" fill="currentColor"/></svg>
