<svg width="25" height="24" viewBox="0 0 25 24" fill="none" xmlns="http://www.w3.org/2000/svg">
<g clip-path="url(#clip0_2127_8215)">
<path d="M20.8555 4.15557C19.3258 3.45369 17.6854 2.93658 15.9704 2.6404C15.9391 2.63469 15.9079 2.64897 15.8918 2.67754C15.6809 3.05276 15.4472 3.54225 15.2835 3.927C13.4389 3.65083 11.6036 3.65083 9.79677 3.927C9.6331 3.5337 9.39094 3.05276 9.17903 2.67754C9.16294 2.64992 9.13174 2.63564 9.1005 2.6404C7.38636 2.93563 5.74601 3.45275 4.21539 4.15557C4.20214 4.16129 4.19078 4.17082 4.18324 4.18319C1.07184 8.83155 0.219502 13.3657 0.637632 17.8436C0.639524 17.8655 0.651822 17.8864 0.66885 17.8997C2.72166 19.4073 4.71016 20.3225 6.66173 20.9291C6.69297 20.9386 6.72606 20.9272 6.74593 20.9015C7.20758 20.2711 7.61909 19.6063 7.97193 18.9073C7.99275 18.8664 7.97287 18.8178 7.93032 18.8016C7.27758 18.554 6.65605 18.2521 6.05818 17.9093C6.01089 17.8816 6.00711 17.814 6.05061 17.7816C6.17642 17.6873 6.30227 17.5893 6.42241 17.4902C6.44414 17.4721 6.47443 17.4683 6.49998 17.4797C10.4277 19.273 14.68 19.273 18.5614 17.4797C18.587 17.4674 18.6172 17.4712 18.6399 17.4893C18.7601 17.5883 18.8859 17.6873 19.0127 17.7816C19.0562 17.814 19.0533 17.8816 19.006 17.9093C18.4082 18.2588 17.7866 18.554 17.133 18.8006C17.0904 18.8168 17.0715 18.8664 17.0923 18.9073C17.4527 19.6054 17.8642 20.2701 18.3173 20.9005C18.3363 20.9272 18.3703 20.9386 18.4016 20.9291C20.3626 20.3225 22.3511 19.4073 24.4039 17.8997C24.4219 17.8864 24.4332 17.8664 24.4351 17.8445C24.9355 12.6676 23.5969 8.17064 20.8867 4.18414C20.88 4.17082 20.8687 4.16129 20.8555 4.15557ZM8.55847 15.117C7.37595 15.117 6.40158 14.0313 6.40158 12.6981C6.40158 11.3648 7.35706 10.2791 8.55847 10.2791C9.76933 10.2791 10.7343 11.3743 10.7153 12.6981C10.7153 14.0313 9.75986 15.117 8.55847 15.117ZM16.5332 15.117C15.3507 15.117 14.3763 14.0313 14.3763 12.6981C14.3763 11.3648 15.3318 10.2791 16.5332 10.2791C17.7441 10.2791 18.709 11.3743 18.6901 12.6981C18.6901 14.0313 17.7441 15.117 16.5332 15.117Z" fill="#F2F2F2"/>
</g>
<defs>
<clipPath id="clip0_2127_8215">
<rect width="24" height="24" fill="currentColor" transform="translate(0.538452)"/>
</clipPath>
</defs>
</svg>
