<svg fill="none" height="16" viewBox="0 0 16 16" width="16" xmlns="http://www.w3.org/2000/svg"><g stroke="currentColor" stroke-linejoin="round"><path d="m15.12 7.23443c.1895.21.2944.48283.2944.76571s-.1049.55571-.2944.76571c-1.2 1.29145-3.9314 3.80575-7.12 3.80575-3.18857 0-5.92-2.5143-7.12-3.80575-.189531-.21-.294444-.48283-.294444-.76571s.104913-.55571.294444-.76571c1.2-1.29143 3.93143-3.80572 7.12-3.80572 3.1886 0 5.92 2.51429 7.12 3.80572z" stroke-linecap="round" stroke-width="1.14286"/><path d="m9.84872 9.23246c-.89263.89264-2.33986.89264-3.23249 0-.89263-.89263-.89263-2.33987 0-3.23249" stroke-linecap="round" stroke-width="1.14286"/><path d="m2.99998 2 12.00002 12"/></g></svg>
