<?xml version="1.0" encoding="utf-8"?>
<!-- Generator: Adobe Illustrator 26.3.1, SVG Export Plug-In . SVG Version: 6.00 Build 0)  -->
<svg version="1.1" id="图层_1" xmlns="http://www.w3.org/2000/svg" xmlns:xlink="http://www.w3.org/1999/xlink" x="0px" y="0px" viewBox="0 0 48 48" style="enable-background:new 0 0 48 48;" xml:space="preserve">
<style type="text/css">
	.st0{opacity:0.3;fill:#FFCF55;}
</style>
<path class="st0" d="M6.7,42.1l0-17.8c0,0,0,0,0,0c9.8,0,17.8,8,17.8,17.8H6.7z"/>
<path fill="currentColor" d="M10.7,42.1c-1.1,0-2-0.4-2.8-1.2s-1.2-1.7-1.2-2.8c0-1.1,0.4-2,1.2-2.8s1.7-1.1,2.8-1.1s2,0.4,2.8,1.1
	c0.8,0.8,1.2,1.7,1.2,2.8c0,1.1-0.4,2-1.2,2.8C12.7,41.8,11.7,42.1,10.7,42.1z M35.9,42.1c0-4-0.8-7.8-2.3-11.3
	c-1.5-3.5-3.6-6.6-6.2-9.2s-5.7-4.7-9.2-6.3S10.8,13,6.8,13V9.7c4.5,0,8.7,0.9,12.6,2.6s7.4,4,10.3,7c2.9,2.9,5.3,6.4,7,10.3
	s2.6,8.1,2.6,12.6H35.9z M24,42.1c0-5-1.6-9.2-4.8-12.5c-3.2-3.3-7.3-5-12.4-5v-3.4c3,0,5.7,0.5,8.2,1.6s4.7,2.5,6.5,4.4
	c1.8,1.9,3.2,4.1,4.3,6.6s1.5,5.3,1.5,8.2H24z"/>
</svg>
