<svg xmlns="http://www.w3.org/2000/svg" width="25" height="24" fill="none" viewBox="0 0 25 24"><g clip-path="url(#clip0_2127_8226)"><path fill="#F2F2F2" fill-rule="evenodd" d="M12.5387 0.5C9.68995 0.501478 6.93458 1.51046 4.76532 3.34652C2.59606 5.18259 1.15436 7.72601 0.697997 10.522C0.241638 13.318 0.800379 16.1842 2.27432 18.6082C3.74827 21.0321 6.04129 22.8558 8.74338 23.753C9.33951 23.8636 9.56405 23.4941 9.56405 23.18C9.56405 22.8658 9.55212 21.955 9.54815 20.9592C6.20985 21.6804 5.50444 19.5505 5.50444 19.5505C4.95998 18.1674 4.17309 17.8039 4.17309 17.8039C3.08417 17.065 4.25457 17.0788 4.25457 17.0788C5.46073 17.1637 6.09461 18.3097 6.09461 18.3097C7.16366 20.1333 8.90235 19.6058 9.5859 19.2976C9.69321 18.5251 10.0052 17.9995 10.3489 17.7012C7.68228 17.4008 4.88049 16.3774 4.88049 11.8054C4.86396 10.6197 5.30647 9.47305 6.11646 8.60268C5.99326 8.30236 5.58193 7.08923 6.23369 5.44143C6.23369 5.44143 7.24115 5.12136 9.53425 6.66444C11.5011 6.12962 13.5763 6.12962 15.5432 6.66444C17.8343 5.12136 18.8398 5.44143 18.8398 5.44143C19.4935 7.08528 19.0822 8.29841 18.959 8.60268C19.7715 9.47319 20.215 10.6218 20.1969 11.8094C20.1969 16.3912 17.3892 17.4008 14.7185 17.6952C15.1478 18.0667 15.5313 18.7918 15.5313 19.9061C15.5313 21.5026 15.5174 22.7868 15.5174 23.18C15.5174 23.4981 15.7339 23.8695 16.342 23.753C19.0444 22.8557 21.3377 21.0317 22.8116 18.6073C24.2855 16.183 24.8439 13.3163 24.3871 10.5201C23.9302 7.7238 22.4878 5.18035 20.3178 3.34461C18.1478 1.50886 15.3918 0.500541 12.5427 0.5H12.5387Z" clip-rule="evenodd"/><path fill="#F2F2F2" d="M5.08289 17.6321C5.05706 17.6914 4.96168 17.7092 4.88418 17.6677C4.80668 17.6262 4.74906 17.5491 4.77688 17.4879C4.8047 17.4266 4.89809 17.4108 4.97559 17.4523C5.05309 17.4938 5.11269 17.5729 5.08289 17.6321Z"/><path fill="#F2F2F2" d="M5.56974 18.1714C5.52859 18.192 5.48151 18.1978 5.43656 18.1877C5.39161 18.1776 5.35159 18.1523 5.32335 18.1161C5.24585 18.0331 5.22994 17.9185 5.28956 17.8671C5.34917 17.8157 5.45648 17.8395 5.53398 17.9224C5.61147 18.0054 5.62935 18.12 5.56974 18.1714Z"/><path fill="#F2F2F2" d="M6.0427 18.857C5.96918 18.9084 5.84398 18.857 5.77443 18.7543C5.7552 18.7359 5.73991 18.7138 5.72946 18.6893C5.71901 18.6649 5.71362 18.6386 5.71362 18.612C5.71362 18.5855 5.71901 18.5592 5.72946 18.5347C5.73991 18.5103 5.7552 18.4882 5.77443 18.4698C5.84796 18.4204 5.97315 18.4698 6.0427 18.5705C6.11225 18.6713 6.11423 18.8057 6.0427 18.857Z"/><path fill="#F2F2F2" d="M6.68451 19.5207C6.61893 19.5939 6.4858 19.5741 6.37651 19.4753C6.26722 19.3765 6.24138 19.2422 6.30696 19.171C6.37253 19.0999 6.50567 19.1197 6.61893 19.2165C6.73219 19.3133 6.75405 19.4496 6.68451 19.5207Z"/><path fill="#F2F2F2" d="M7.58463 19.9081C7.55482 20.001 7.4197 20.0425 7.28457 20.003C7.14945 19.9635 7.06003 19.8528 7.08587 19.758C7.1117 19.6631 7.24881 19.6197 7.38592 19.6631C7.52303 19.7066 7.61046 19.8113 7.58463 19.9081Z"/><path fill="#F2F2F2" d="M8.56628 19.9752C8.56628 20.072 8.45501 20.155 8.31194 20.1569C8.16887 20.1589 8.05164 20.0799 8.05164 19.9831C8.05164 19.8863 8.16291 19.8033 8.30598 19.8013C8.44905 19.7993 8.56628 19.8764 8.56628 19.9752Z"/><path fill="#F2F2F2" d="M9.48035 19.8232C9.49823 19.92 9.39888 20.0207 9.25581 20.0445C9.11274 20.0682 8.98755 20.0109 8.96967 19.916C8.95178 19.8212 9.05511 19.7185 9.19421 19.6928C9.3333 19.6671 9.46246 19.7264 9.48035 19.8232Z"/></g><defs><clipPath id="clip0_2127_8226"><rect width="24" height="24" fill="currentColor" transform="translate(0.538452)"/></clipPath></defs></svg>