<svg xmlns="http://www.w3.org/2000/svg" width="18" height="18" fill="none" viewBox="0 0 18 18"><path fill="currentColor" d="M9 15.7311L8.23125 15.0373C6.90625 13.8248 5.8125 12.7779 4.95 11.8967C4.0875 11.0154 3.4 10.2279 2.8875 9.53418C2.375 8.84043 2.01562 8.2123 1.80937 7.6498C1.60312 7.0873 1.5 6.51855 1.5 5.94355C1.5 4.81855 1.87813 3.87793 2.63438 3.12168C3.39062 2.36543 4.325 1.9873 5.4375 1.9873C6.15 1.9873 6.80937 2.15605 7.41562 2.49355C8.02187 2.83105 8.55 3.31855 9 3.95605C9.525 3.28105 10.0813 2.78418 10.6688 2.46543C11.2563 2.14668 11.8875 1.9873 12.5625 1.9873C13.675 1.9873 14.6094 2.36543 15.3656 3.12168C16.1219 3.87793 16.5 4.81855 16.5 5.94355C16.5 6.51855 16.3969 7.0873 16.1906 7.6498C15.9844 8.2123 15.625 8.84043 15.1125 9.53418C14.6 10.2279 13.9125 11.0154 13.05 11.8967C12.1875 12.7779 11.0938 13.8248 9.76875 15.0373L9 15.7311Z"/></svg>