<svg xmlns="http://www.w3.org/2000/svg" xmlns:xlink="http://www.w3.org/1999/xlink" id="图层_1" x="0" y="0" version="1.1" viewBox="0 0 48 48" xml:space="preserve" style="enable-background:new 0 0 48 48"><path fill="currentColor" d="M24,28.8l2.5-5.4l5.3-2.4l-5.4-2.5L24,13.2l-2.5,5.3L16.2,21l5.4,2.5L24,28.8z M7,36c-0.8,0-1.5-0.3-2.1-0.9	C4.3,34.5,4,33.8,4,33V9c0-0.8,0.3-1.5,0.9-2.1S6.2,6,7,6h34c0.8,0,1.5,0.3,2.1,0.9C43.7,7.5,44,8.2,44,9v24c0,0.8-0.3,1.5-0.9,2.1	C42.5,35.7,41.8,36,41,36H7z M7,33h34V9H7V33z M2,42v-3h44v3H2z M7,33V9V33z"/></svg>