<svg fill="none" height="36" viewBox="0 0 36 36" width="36" xmlns="http://www.w3.org/2000/svg"><path d="m24.3 15.6754v-2.25h8.7v2.25zm-10.8 2.2875c-1.65 0-3-.525-4.05-1.575s-1.575-2.4-1.575-4.05.525-3.00001 1.575-4.05001 2.4-1.575 4.05-1.575 3 .525 4.05 1.575 1.575 2.40001 1.575 4.05001-.525 3-1.575 4.05-2.4 1.575-4.05 1.575zm-12 12.0375v-3.525c0-.875.21875-1.6688.65625-2.3813s1.06875-1.2437 1.89375-1.5937c1.875-.825 3.54375-1.4063 5.00625-1.7438 1.46255-.3375 2.94375-.5062 4.44375-.5062s2.975.1687 4.425.5062 3.1125.9188 4.9875 1.7438c.825.375 1.4625.9125 1.9125 1.6125s.675 1.4875.675 2.3625v3.525zm2.25-2.25h19.5v-1.275c0-.4-.1125-.7813-.3375-1.1438s-.525-.6312-.9-.8062c-1.775-.825-3.275-1.3688-4.5-1.6313s-2.5625-.3937-4.0125-.3937-2.7937.1312-4.03125.3937c-1.2375.2625-2.74375.8063-4.51875 1.6313-.375.175-.66875.4437-.88125.8062s-.31875.7438-.31875 1.1438zm9.75-12.0375c.975 0 1.7812-.3188 2.4188-.9563.6375-.6375.9562-1.4437.9562-2.4187s-.3187-1.7813-.9562-2.41876c-.6376-.6375-1.4438-.95625-2.4188-.95625s-1.7812.31875-2.4188.95625c-.6375.63746-.9562 1.44376-.9562 2.41876s.3187 1.7812.9562 2.4187c.6376.6375 1.4438.9563 2.4188.9563z" fill="currentColor"/></svg>
