<svg xmlns="http://www.w3.org/2000/svg" xmlns:xlink="http://www.w3.org/1999/xlink" id="图层_1" x="0" y="0" version="1.1" viewBox="0 0 48 48" xml:space="preserve" style="enable-background:new 0 0 48 48"><path fill="currentColor" d="M39.5,41.1l-13-12.9c-1,0.9-2.2,1.5-3.5,2s-2.7,0.7-4.1,0.7c-3.4,0-6.3-1.2-8.6-3.5s-3.5-5.2-3.5-8.6	c0-3.3,1.2-6.2,3.5-8.5s5.2-3.5,8.6-3.5s6.2,1.2,8.6,3.5s3.5,5.2,3.5,8.5c0,1.4-0.2,2.8-0.7,4.1c-0.5,1.3-1.2,2.5-2.1,3.6l13,13	L39.5,41.1z M19,28.6c2.7,0,5-1,6.9-2.9c1.9-1.9,2.9-4.2,2.9-7c0-2.7-1-5-2.9-6.9C23.9,9.9,21.6,9,19,9c-2.8,0-5.1,0.9-7,2.9	s-2.8,4.2-2.8,6.9s0.9,5.1,2.8,7S16.2,28.6,19,28.6z"/></svg>