<svg xmlns="http://www.w3.org/2000/svg" xmlns:xlink="http://www.w3.org/1999/xlink" x="0" y="0" version="1.1" viewBox="0 0 48 48" xml:space="preserve" style="enable-background:new 0 0 48 48"><style type="text/css">.st0{opacity:.3}</style><rect width="31.7" height="13.8" x="7.9" y="13.8" fill="currentColor" class="st0"/><path fill="#000" d="M38.1,43H9.9c-0.8,0-1.5-0.3-2-0.8C7.3,41.6,7,40.9,7,40.1V15.5c0-0.8,0.3-1.4,0.8-2s1.2-0.9,2-0.9h5.5	c0-2.4,0.8-4.4,2.4-6.1c1.6-1.7,3.6-2.5,6-2.5s4.5,0.8,6.2,2.5c1.8,1.7,2.6,3.7,2.6,6.1h5.4c0.8,0,1.5,0.3,2.1,0.9	c0.6,0.6,0.8,1.2,0.8,2v24.6c0,0.8-0.3,1.5-0.8,2.1C39.6,42.7,38.9,43,38.1,43z M17.6,12.6h12.7c0-1.8-0.6-3.3-1.9-4.5	S25.8,6.2,24,6.2s-3.3,0.6-4.5,1.9S17.6,10.8,17.6,12.6z M38.1,40.8c0.2,0,0.3-0.1,0.5-0.2c0.1-0.1,0.2-0.3,0.2-0.5V15.5	c0-0.1-0.1-0.3-0.2-0.4c-0.1-0.1-0.3-0.2-0.5-0.2H9.9c-0.2,0-0.3,0.1-0.4,0.2s-0.2,0.3-0.2,0.4v24.6c0,0.2,0.1,0.3,0.2,0.5	c0.1,0.1,0.3,0.2,0.4,0.2H38.1z M24,25.9c2.4,0,4.5-0.9,6.2-2.6c1.7-1.7,2.6-3.8,2.6-6.2h-2.3c0,1.8-0.6,3.3-1.9,4.6	c-1.3,1.3-2.8,1.9-4.6,1.9s-3.3-0.6-4.6-1.9c-1.3-1.3-1.9-2.8-1.9-4.6h-2.3c0,2.4,0.9,4.5,2.6,6.2S21.6,25.9,24,25.9z M9.2,14.9	c0,0,0,0.1,0,0.2s0,0.3,0,0.4v24.6c0,0.2,0,0.4,0,0.5c0,0.1,0,0.2,0,0.2s0-0.1,0-0.2c0-0.1,0-0.3,0-0.5V15.5c0-0.2,0-0.3,0-0.4	S9.2,14.9,9.2,14.9z"/></svg>