<?xml version="1.0" encoding="utf-8"?>
<!-- Generator: Adobe Illustrator 26.3.1, SVG Export Plug-In . SVG Version: 6.00 Build 0)  -->
<svg version="1.1" id="图层_1" xmlns="http://www.w3.org/2000/svg" xmlns:xlink="http://www.w3.org/1999/xlink" x="0px" y="0px" viewBox="0 0 48 48" style="enable-background:new 0 0 48 48;" xml:space="preserve">
<style type="text/css">
	.st0{opacity:0.3;fill:#5B89F7;}
</style>
<circle class="st0" cx="24.4" cy="23.6" r="11.6"/>
<path fill="currentColor" d="M7,27.5v-2.2c2.5,0,4.9-0.5,7.1-1.4s4.1-2.2,5.8-3.9s2.9-3.6,3.9-5.8s1.4-4.6,1.4-7.1h2.2c0,2.8-0.5,5.5-1.6,8
	c-1.1,2.5-2.5,4.6-4.4,6.5c-1.9,1.8-4,3.3-6.5,4.4C12.5,26.9,9.8,27.5,7,27.5z M7,21v-2.3c3.2,0,6-1.1,8.2-3.4s3.4-5,3.4-8.2H21
	c0,3.9-1.4,7.2-4.1,9.9S10.9,21,7,21z M7,14.4V7h7.4c0,2-0.7,3.8-2.2,5.2S9,14.4,7,14.4z M20.5,41c0-2.8,0.5-5.5,1.6-8
	c1.1-2.5,2.5-4.7,4.4-6.5c1.9-1.8,4-3.3,6.5-4.4c2.5-1.1,5.1-1.6,8-1.6v2.2c-2.5,0-4.9,0.5-7.1,1.4s-4.1,2.2-5.8,3.9
	s-2.9,3.6-3.9,5.8s-1.4,4.6-1.4,7.1H20.5z M27,41c0-3.9,1.4-7.2,4.1-9.9s6-4.1,9.9-4.1v2.3c-3.2,0-6,1.1-8.2,3.4s-3.4,5-3.4,8.2H27z
	 M33.6,41c0-2,0.7-3.8,2.2-5.2s3.2-2.2,5.2-2.2V41H33.6z"/>
</svg>
