<svg width="25" height="24" viewBox="0 0 25 24" fill="none" xmlns="http://www.w3.org/2000/svg">
<g clip-path="url(#clip0_2127_8222)">
<path fill-rule="evenodd" clip-rule="evenodd" d="M24.5385 12C24.5385 18.6274 19.1659 24 12.5385 24C5.91104 24 0.538452 18.6274 0.538452 12C0.538452 5.37258 5.91104 0 12.5385 0C19.1659 0 24.5385 5.37258 24.5385 12ZM12.9685 8.85893C11.8013 9.3444 9.46859 10.3492 5.97035 11.8733C5.40228 12.0992 5.10471 12.3202 5.07762 12.5363C5.03184 12.9015 5.48917 13.0453 6.11193 13.2411C6.19664 13.2678 6.28441 13.2954 6.37439 13.3246C6.98709 13.5238 7.81128 13.7568 8.23974 13.766C8.6284 13.7744 9.06218 13.6142 9.54109 13.2853C12.8096 11.079 14.4968 9.96381 14.6028 9.93977C14.6775 9.92281 14.7811 9.90148 14.8512 9.96385C14.9214 10.0262 14.9145 10.1443 14.9071 10.176C14.8617 10.3691 13.0666 12.0381 12.1376 12.9018C11.848 13.171 11.6425 13.362 11.6005 13.4056C11.5065 13.5033 11.4106 13.5958 11.3184 13.6846C10.7492 14.2333 10.3224 14.6448 11.3421 15.3168C11.8321 15.6397 12.2242 15.9067 12.6154 16.1731C13.0426 16.4641 13.4687 16.7543 14.0201 17.1157C14.1605 17.2077 14.2947 17.3034 14.4253 17.3965C14.9225 17.751 15.3692 18.0694 15.921 18.0186C16.2417 17.9891 16.5729 17.6876 16.7411 16.7884C17.1387 14.6631 17.9201 10.0585 18.1007 8.16097C18.1165 7.99473 18.0966 7.78197 18.0806 7.68857C18.0646 7.59518 18.0312 7.46211 17.9098 7.3636C17.766 7.24694 17.5441 7.22234 17.4448 7.22408C16.9935 7.23203 16.301 7.47282 12.9685 8.85893Z" fill="#F2F2F2"/>
</g>
<defs>
<clipPath id="clip0_2127_8222">
<rect width="24" height="24" fill="currentColor" transform="translate(0.538452)"/>
</clipPath>
</defs>
</svg>
