<svg xmlns="http://www.w3.org/2000/svg" xmlns:xlink="http://www.w3.org/1999/xlink" x="0" y="0" version="1.1" viewBox="0 0 48 48" xml:space="preserve" style="enable-background:new 0 0 48 48"><style type="text/css">.st0{opacity:.6;fill:url(#SVGID_1_)}</style><linearGradient id="SVGID_1_" x1="7.809" x2="25.027" y1="23.95" y2="23.95" gradientUnits="userSpaceOnUse"><stop offset="0" style="stop-color:currentColor"/><stop offset=".334" style="stop-color:currentColor"/><stop offset=".67" style="stop-color:currentColor"/><stop offset="1" style="stop-color:currentColor"/></linearGradient><polygon fill="currentColor" points="16.3 15.3 13.5 21 7.8 23.9 13.1 26.8 16.3 32.6 19.4 26.7 25 23.9 19.3 21" class="st0"/><path fill="#000" d="M38.6,16.2l-2.2-5l-5.2-2.3l5.2-2.2l2.2-4.8l2.2,4.8L46,8.9l-5.2,2.3L38.6,16.2z M38.6,46l-2.2-4.8L31.2,39l5.2-2.2l2.2-5	l2.2,5L46,39l-5.2,2.2L38.6,46z M16.6,38.3L12,28.4L2,24l10.1-4.5l4.6-9.8l4.6,9.8l10,4.5l-10,4.5L16.6,38.3z M16.6,30.9l2.4-4.8	l4.9-2.1L19,21.8L16.6,17l-2.4,4.8l-4.9,2.1l4.9,2.1L16.6,30.9z"/></svg>