<?xml version="1.0" encoding="utf-8"?>
<!-- Generator: Adobe Illustrator 26.3.1, SVG Export Plug-In . SVG Version: 6.00 Build 0)  -->
<svg version="1.1" id="图层_1" xmlns="http://www.w3.org/2000/svg" xmlns:xlink="http://www.w3.org/1999/xlink" x="0px" y="0px" viewBox="0 0 48 48" style="enable-background:new 0 0 48 48;" xml:space="preserve">
<path fill="currentColor" d="M20,43l-0.9-6c-0.7-0.2-1.4-0.6-2.2-1c-0.8-0.5-1.5-0.9-2-1.4l-5.6,2.5l-4-7l5.1-3.8c-0.1-0.3-0.1-0.7-0.2-1.1
	c0-0.4-0.1-0.8-0.1-1.2c0-0.3,0-0.7,0.1-1.1c0-0.4,0.1-0.8,0.2-1.2L5.3,18l4-7l5.6,2.5c0.6-0.5,1.3-1,2-1.4c0.8-0.4,1.5-0.8,2.2-1
	L20,5H28l0.9,6.1c0.7,0.3,1.5,0.6,2.2,1c0.8,0.4,1.4,0.9,2,1.4l5.7-2.5l4,7l-5.1,3.7c0.1,0.4,0.1,0.8,0.2,1.2c0,0.4,0,0.8,0,1.1
	c0,0.3,0,0.7,0,1.1c0,0.4-0.1,0.8-0.2,1.2l5.1,3.7l-4,7L33,34.5c-0.6,0.5-1.3,1-2,1.4c-0.7,0.5-1.5,0.8-2.2,1L28,43H20z M24,29.6
	c1.6,0,2.9-0.5,4-1.6s1.6-2.4,1.6-4s-0.5-2.9-1.6-4s-2.4-1.6-4-1.6s-2.9,0.5-4,1.6s-1.7,2.4-1.7,4s0.6,2.9,1.7,4S22.4,29.6,24,29.6z
	"/>
</svg>
