<svg width="25" height="24" viewBox="0 0 25 24" fill="none" xmlns="http://www.w3.org/2000/svg">
<g clip-path="url(#clip0_2127_8219)">
<path d="M24.2994 7.20005C24.2994 7.20005 24.065 5.54536 23.3431 4.8188C22.4291 3.86255 21.4072 3.85786 20.9385 3.80161C17.5822 3.55786 12.5431 3.55786 12.5431 3.55786H12.5338C12.5338 3.55786 7.4947 3.55786 4.13845 3.80161C3.6697 3.85786 2.64783 3.86255 1.73376 4.8188C1.01189 5.54536 0.782202 7.20005 0.782202 7.20005C0.782202 7.20005 0.538452 9.14536 0.538452 11.086V12.9047C0.538452 14.8454 0.777515 16.7907 0.777515 16.7907C0.777515 16.7907 1.01189 18.4454 1.72908 19.1719C2.64314 20.1282 3.84314 20.0954 4.37751 20.1985C6.29939 20.3813 12.5385 20.4375 12.5385 20.4375C12.5385 20.4375 17.5822 20.4282 20.9385 20.1891C21.4072 20.1329 22.4291 20.1282 23.3431 19.1719C24.065 18.4454 24.2994 16.7907 24.2994 16.7907C24.2994 16.7907 24.5385 14.85 24.5385 12.9047V11.086C24.5385 9.14536 24.2994 7.20005 24.2994 7.20005ZM10.0588 15.1125V8.36724L16.5416 11.7516L10.0588 15.1125Z" fill="#F2F2F2"/>
</g>
<defs>
<clipPath id="clip0_2127_8219">
<rect width="24" height="24" fill="currentColor" transform="translate(0.538452)"/>
</clipPath>
</defs>
</svg>
