<svg xmlns="http://www.w3.org/2000/svg" width="16" height="16" fill="none" viewBox="0 0 16 16"><path stroke="currentColor" stroke-linecap="round" stroke-linejoin="round" stroke-width="1.143" d="M10.857 12.0008V14.2866C10.857 14.5897 10.7366 14.8803 10.5223 15.0947C10.3079 15.309 10.0173 15.4294 9.71415 15.4294H1.71415C1.41104 15.4294 1.12035 15.309 0.906024 15.0947C0.691697 14.8803 0.571289 14.5897 0.571289 14.2866V1.71512C0.571289 1.41202 0.691697 1.12133 0.906024 0.907001C1.12035 0.692673 1.41104 0.572266 1.71415 0.572266H9.71415C10.0173 0.572266 10.3079 0.692673 10.5223 0.907001C10.7366 1.12133 10.857 1.41202 10.857 1.71512V4.00084"/><path stroke="currentColor" stroke-linecap="round" stroke-linejoin="round" stroke-width="1.143" d="M7.42822 8H15.4282"/><path stroke="currentColor" stroke-linecap="round" stroke-linejoin="round" stroke-width="1.143" d="M13.1426 5.71484L15.4283 8.00056L13.1426 10.2863"/></svg>