<svg width="12" height="12" viewBox="0 0 12 12" fill="none" xmlns="http://www.w3.org/2000/svg">
<path d="M6.76872 5.91385C6.76872 7.79921 5.25347 9.32759 3.38442 9.32759C1.51536 9.32759 0 7.79886 0 5.91385C0 4.02884 1.51525 2.5 3.38442 2.5C5.25359 2.5 6.76872 4.02849 6.76872 5.91385Z" fill="currentColor"/>
<path d="M10.4813 5.91309C10.4813 7.68775 9.72372 9.12697 8.78913 9.12697C7.85455 9.12697 7.09692 7.68775 7.09692 5.91309C7.09692 4.13844 7.85443 2.69922 8.78902 2.69922C9.7236 2.69922 10.4812 4.13798 10.4812 5.91309" fill="currentColor"/>
<path d="M12 5.91428C12 7.50394 11.7336 8.79341 11.4049 8.79341C11.0761 8.79341 10.8098 7.50429 10.8098 5.91428C10.8098 4.32428 11.0762 3.03516 11.4049 3.03516C11.7335 3.03516 12 4.32416 12 5.91428Z" fill="currentColor"/>
</svg>
