<svg xmlns="http://www.w3.org/2000/svg" width="32" height="32" viewBox="0 0 32 32"><path fill="currentColor" stroke="currentColor" stroke-width="2" d="M7.53332 17.2C7.17777 17.2 6.88332 17.0833 6.64999 16.85C6.41665 16.6167 6.29999 16.3333 6.29999 16C6.29999 15.6667 6.42221 15.3833 6.66665 15.15C6.9111 14.9167 7.19999 14.8 7.53332 14.8C7.86665 14.8 8.15554 14.9167 8.39999 15.15C8.64443 15.3833 8.76665 15.6667 8.76665 16C8.76665 16.3333 8.64443 16.6167 8.39999 16.85C8.15554 17.0833 7.86665 17.2 7.53332 17.2ZM16 17.2C15.6667 17.2 15.3833 17.0833 15.15 16.85C14.9167 16.6167 14.8 16.3333 14.8 16C14.8 15.6667 14.9167 15.3833 15.15 15.15C15.3833 14.9167 15.6667 14.8 16 14.8C16.3333 14.8 16.6167 14.9167 16.85 15.15C17.0833 15.3833 17.2 15.6667 17.2 16C17.2 16.3333 17.0833 16.6167 16.85 16.85C16.6167 17.0833 16.3333 17.2 16 17.2ZM24.4667 17.2C24.1333 17.2 23.8444 17.0833 23.6 16.85C23.3555 16.6167 23.2333 16.3333 23.2333 16C23.2333 15.6667 23.3555 15.3833 23.6 15.15C23.8444 14.9167 24.1333 14.8 24.4667 14.8C24.8222 14.8 25.1167 14.9167 25.35 15.15C25.5833 15.3833 25.7 15.6667 25.7 16C25.7 16.3333 25.5778 16.6167 25.3333 16.85C25.0889 17.0833 24.8 17.2 24.4667 17.2Z"/></svg>