<svg xmlns="http://www.w3.org/2000/svg" xmlns:xlink="http://www.w3.org/1999/xlink" width="32" height="32" fill="none" viewBox="0 0 32 32"><clipPath id="a"><path d="m0 0h32v32h-32z"/></clipPath><g clip-path="url(#a)"><path fill="#e53935" d="m26.6667 5.33366c0-1.472-1.1947-2.66667-2.6667-2.66667h-15.99996c-1.472 0-2.66667 1.19467-2.66667 2.66667v21.33334c0 1.472 1.19467 2.6667 2.66667 2.6667h15.99996c1.472 0 2.6667-1.1947 2.6667-2.6667z"/><path fill="#fff" d="m10.6667 7.99967h-2.6667v-2.66666h2.6667zm13.3333-2.66666h-10.6667v2.66666h10.6667zm-8 5.33329-8 14.6667h16zm1.3333 13.3334h-2.6666v-2.6667h2.6666zm-2.6666-4v-4h2.6666v4z" opacity=".6"/></g></svg>