<svg width="24" height="24" viewBox="0 0 24 24" fill="none" xmlns="http://www.w3.org/2000/svg">
<path d="M21 19.0715C21 20.1367 20.1366 21.0001 19.0714 21.0001H15.2143C14.1491 21.0001 13.2857 20.1367 13.2857 19.0715V15.2143C13.2857 14.1491 14.1491 13.2858 15.2143 13.2858H19.0714C20.1366 13.2858 21 14.1491 21 15.2143V19.0715ZM10.7143 15.2143C10.7143 14.1491 9.85093 13.2858 8.78571 13.2858H4.92857C3.864 13.2858 3 14.1491 3 15.2143V19.0715C3 20.1367 3.864 21.0001 4.92857 21.0001H8.78571C9.85093 21.0001 10.7143 20.1367 10.7143 19.0715V15.2143ZM21 4.92863C21 3.86342 20.1366 3.00006 19.0714 3.00006H15.2143C14.1491 3.00006 13.2857 3.86342 13.2857 4.92863V8.78577C13.2857 9.85099 14.1491 10.7143 15.2143 10.7143H19.0714C20.1366 10.7143 21 9.85099 21 8.78577V4.92863ZM10.7143 4.92863C10.7143 3.86342 9.85093 3.00006 8.78571 3.00006H4.92857C3.864 3.00006 3 3.86342 3 4.92863V8.78577C3 9.85099 3.864 10.7143 4.92857 10.7143H8.78571C9.85093 10.7143 10.7143 9.85099 10.7143 8.78577V4.92863Z" fill="#687792"/>
</svg>
