<svg fill="none" height="26" viewBox="0 0 98 26" width="98" xmlns="http://www.w3.org/2000/svg" xmlns:xlink="http://www.w3.org/1999/xlink"><clipPath id="a"><path d="m0 .416016h98v25h-98z"/></clipPath><g clip-path="url(#a)"><path d="m22.0567 15.3119c-.3314 1.7529-2.967 3.671-5.9943 4.0427-1.5786.194-3.1327.3718-4.79.2937-2.71051-.1276-4.84914-.6654-4.84914-.6654 0 .2714.01631.5298.04877.7714.35237 2.7508 2.65243 2.9158 4.83107 2.9926 2.1989.0774 4.1567-.5577 4.1567-.5577l.0905 2.0447s-1.5381.8494-4.2779 1.0055c-1.51102.0855-3.38692-.0391-5.5721-.6337-4.738858-1.2901-5.553853-6.4852-5.6785242-11.7565-.0381225-1.5651-.01459643-3.04104-.01459643-4.27517 0-5.39041 3.43394063-6.97033 3.43394063-6.97033 1.73148-.817869 4.70263-1.161723 7.79138-1.187684h.0759c3.0888.025961 6.0618.369815 7.7933 1.187684 0 0 3.434 1.57992 3.434 6.97033 0 0 .0429 3.97687-.479 6.73787z" fill="#3088d4"/><path d="m4.76123 7.26754c0-.78466.61855-1.42062 1.38134-1.42062.76296 0 1.38134.63596 1.38134 1.42062 0 .78449-.61838 1.42063-1.38134 1.42063-.76279 0-1.38134-.63614-1.38134-1.42063zm19.81097 1.7245v6.52666h-2.5142v-6.33486c0-1.33551-.5464-2.01315-1.6393-2.01315-1.2081 0-1.8137.80409-1.8137 2.39391v3.4673h-2.4995v-3.4673c0-1.58982-.6056-2.39391-1.8137-2.39391-1.0928 0-1.6393.67764-1.6393 2.01315v6.33486h-2.5141v-6.52666c0-1.33391.3302-2.39391.9935-3.17822.6842-.78414 1.5801-1.18609 2.692-1.18609 1.2867 0 2.261.50845 2.905 1.5257l.6264 1.07978.6263-1.07978c.6441-1.01725 1.6183-1.5257 2.9052-1.5257 1.1119 0 2.0076.40195 2.6918 1.18609.6633.78431.9936 1.84431.9936 3.17822zm8.6614 3.24446c.5188-.5637.7686-1.2737.7686-2.1299 0-.85617-.2498-1.56613-.7686-2.10902-.4996-.5639-1.1339-.83517-1.9025-.83517-.7688 0-1.403.27127-1.9025.83517-.4998.54289-.7496 1.25285-.7496 2.10902 0 .8562.2498 1.5662.7496 2.1299.4995.5429 1.1337.8143 1.9025.8143.7686 0 1.4029-.2714 1.9025-.8143zm.7686-7.35038h2.4792v10.44098h-2.4792v-1.2322c-.7494 1.0233-1.7873 1.5245-3.1324 1.5245-1.2876 0-2.383-.522-3.3055-1.5872-.9031-1.0649-1.3643-2.3804-1.3643-3.9256 0-1.52427.4612-2.83999 1.3643-3.90493.9225-1.06494 2.0179-1.60783 3.3055-1.60783 1.3451 0 2.383.50121 3.1324 1.52429zm10.8202 5.03259c.7301.56369 1.0954 1.35719 1.0762 2.35949 0 1.0651-.3653 1.9003-1.1147 2.485-.7496.5639-1.6527.8562-2.7481.8562-1.9794 0-3.3247-.8353-4.0358-2.485l2.1525-1.3154c.2882.8977.9224 1.3572 1.8833 1.3572.8839 0 1.3261-.2924 1.3261-.898 0-.4385-.5767-.8352-1.7489-1.1483-.4421-.1254-.8072-.2506-1.0954-.3552-.4035-.1669-.7494-.355-1.0377-.5845-.7111-.56377-1.0762-1.31576-1.0762-2.27615 0-1.02326.3459-1.8376 1.0377-2.42234.7111-.60559 1.5758-.89787 2.6137-.89787 1.6526 0 2.8634.7308 3.6511 2.21341l-2.1137 1.25285c-.3076-.70978-.8263-1.06476-1.5374-1.06476-.7496 0-1.1147.29228-1.1147.85601 0 .43852.5765.83518 1.7488 1.14848.9033.20875 1.6142.52205 2.1332.91888zm7.8796-2.44318h-2.1716v4.34347c0 .5221.1923.8352.5574.9812.2691.1046.8071.1254 1.6142.0836v2.4433c-1.6717.2088-2.8825.0417-3.5937-.5222-.7109-.5429-1.0569-1.5451-1.0569-2.9859v-4.34347h-1.6719v-2.58941h1.6719v-2.10904l2.479-.81434v2.92338h2.1716zm7.899 4.69837c.4997-.5431.7494-1.2322.7494-2.0674 0-.83514-.2497-1.52426-.7494-2.06715-.4997-.54307-1.1147-.81433-1.8642-.81433-.7494 0-1.3644.27126-1.8641.81433-.4805.56373-.7303 1.25285-.7303 2.06715 0 .8145.2498 1.5037.7303 2.0674.4997.5429 1.1147.8143 1.8641.8143.7495 0 1.3645-.2714 1.8642-.8143zm-5.4771 1.8584c-.98-1.0649-1.4605-2.3596-1.4605-3.9258 0-1.54527.4805-2.8398 1.4605-3.90475.98-1.06494 2.1908-1.60783 3.6129-1.60783 1.4222 0 2.6328.54289 3.613 1.60783.9802 1.06495 1.4798 2.38049 1.4798 3.90475 0 1.5453-.4996 2.8609-1.4798 3.9258-.9802 1.0652-2.1716 1.587-3.613 1.587-1.4413 0-2.6329-.5218-3.6129-1.587zm16.9889-1.7958c.4997-.5637.7494-1.2737.7494-2.1299 0-.85617-.2497-1.56613-.7494-2.10902-.4995-.5639-1.1339-.83517-1.9025-.83517-.7688 0-1.403.27127-1.9218.83517-.4995.54289-.7495 1.25285-.7495 2.10902 0 .8562.25 1.5662.7495 2.1299.5188.5429 1.1722.8143 1.9218.8143.7686 0 1.403-.2714 1.9025-.8143zm.7494-11.526783h2.4791v14.617383h-2.4791v-1.2322c-.7302 1.0233-1.7681 1.5245-3.1132 1.5245-1.2876 0-2.402-.522-3.3245-1.5872-.9033-1.0649-1.3645-2.3804-1.3645-3.9256 0-1.52427.4612-2.83999 1.3645-3.90493.9225-1.06494 2.0369-1.60783 3.3245-1.60783 1.3451 0 2.383.50121 3.1132 1.52429zm11.1853 11.464183c.4996-.5431.7494-1.2322.7494-2.0674 0-.83514-.2498-1.52426-.7494-2.06715-.4997-.54307-1.1146-.81433-1.8642-.81433-.7494 0-1.3645.27126-1.8641.81433-.4806.56373-.7303 1.25285-.7303 2.06715 0 .8145.2497 1.5037.7303 2.0674.4996.5429 1.1147.8143 1.8641.8143.7496 0 1.3645-.2714 1.8642-.8143zm-5.4771 1.8584c-.9802-1.0649-1.4605-2.3596-1.4605-3.9258 0-1.54527.4803-2.8398 1.4605-3.90475.9802-1.06494 2.1909-1.60783 3.6129-1.60783 1.4222 0 2.6329.54289 3.613 1.60783.9802 1.06495 1.4798 2.38049 1.4798 3.90475 0 1.5453-.4996 2.8609-1.4798 3.9258-.9801 1.0652-2.1716 1.587-3.613 1.587-1.4413 0-2.6327-.5218-3.6129-1.587zm19.4296-5.11597v6.41067h-2.4792v-6.07653c0-.68912-.1729-1.21117-.5187-1.60783-.3268-.35498-.7881-.54307-1.3838-.54307-1.403 0-2.1139.85619-2.1139 2.58941v5.63802h-2.4791v-10.44084h2.4791v1.16931c.5957-.9814 1.5373-1.4616 2.8635-1.4616 1.0569 0 1.9217.37582 2.5944 1.14848.6917.77265 1.0377 1.81675 1.0377 3.17398z" fill="#fff"/></g></svg>