<svg width="23" height="23" viewBox="0 0 23 23" fill="none" xmlns="http://www.w3.org/2000/svg">
<g clip-path="url(#clip0_6897_24765)">
<path d="M5.83977 0.416016C2.83499 0.416016 0.416016 2.83499 0.416016 5.83977V16.8803C0.416016 19.885 2.83499 22.304 5.83977 22.304H16.8803C19.885 22.304 22.304 19.885 22.304 16.8803V5.83977C22.304 2.83499 19.885 0.416016 16.8803 0.416016L5.83977 0.416016ZM6.24805 11.9926C6.39688 11.9926 6.5456 12.0001 6.69368 12.015C6.84176 12.0298 6.98901 12.0521 7.13487 12.0817C7.28073 12.1112 7.42502 12.148 7.5672 12.192C7.7094 12.236 7.84931 12.2871 7.9864 12.3451C8.12348 12.4031 8.25759 12.4679 8.3882 12.5392C8.51883 12.6105 8.64582 12.6883 8.76868 12.7724C8.89152 12.8564 9.01009 12.9466 9.12392 13.0425C9.23773 13.1384 9.34667 13.2398 9.45035 13.3466C9.55405 13.4534 9.65235 13.5653 9.74487 13.6819C9.83739 13.7984 9.92402 13.9195 10.0044 14.0448C10.0849 14.17 10.159 14.2992 10.2265 14.4319C10.294 14.5645 10.3549 14.7005 10.4088 14.8392C10.4627 14.9779 10.5097 15.1192 10.5495 15.2626C10.5893 15.406 10.6219 15.5513 10.6472 15.698C10.6725 15.8447 10.6904 15.9925 10.7009 16.1409C10.7084 16.246 10.7122 16.3514 10.7122 16.4568C10.7122 16.6056 10.7047 16.7543 10.6899 16.9024C10.675 17.0505 10.6527 17.1977 10.6232 17.3436C10.5936 17.4894 10.5567 17.6337 10.5127 17.7759C10.4687 17.9181 10.4176 18.058 10.3597 18.1951C10.3017 18.3322 10.237 18.4663 10.1656 18.5969C10.0943 18.7275 10.0165 18.8545 9.93247 18.9774C9.8484 19.1002 9.75824 19.2188 9.66233 19.3326C9.56647 19.4464 9.46499 19.5554 9.35825 19.6591C9.25147 19.7628 9.13957 19.8611 9.02297 19.9536C8.9064 20.0461 8.78528 20.1327 8.66006 20.2131C8.53479 20.2936 8.40559 20.3677 8.27292 20.4352C8.14029 20.5027 8.00437 20.5636 7.86566 20.6175C7.72694 20.6714 7.58562 20.7184 7.44221 20.7582C7.29879 20.798 7.15348 20.8306 7.00681 20.8559C6.86017 20.8812 6.71235 20.8991 6.56391 20.9096C6.45879 20.9171 6.35344 20.9208 6.24806 20.9207C6.09924 20.9208 5.95052 20.9134 5.80244 20.8986C5.65435 20.8837 5.5071 20.8614 5.36124 20.8319C5.21538 20.8023 5.07109 20.7654 4.92891 20.7214C4.78672 20.6774 4.64681 20.6263 4.50972 20.5684C4.37263 20.5104 4.23853 20.4457 4.10792 20.3743C3.97728 20.3029 3.85029 20.2251 3.72744 20.141C3.6046 20.057 3.48603 19.9669 3.37219 19.871C3.25839 19.7752 3.14944 19.6737 3.04577 19.5669C2.94207 19.4602 2.84377 19.3483 2.75125 19.2317C2.65873 19.1151 2.5721 18.994 2.49168 18.8687C2.41125 18.7435 2.33714 18.6143 2.26963 18.4816C2.20211 18.349 2.14126 18.2131 2.08732 18.0744C2.03339 17.9356 1.98643 17.7943 1.94662 17.6509C1.90681 17.5075 1.8742 17.3622 1.8489 17.2155C1.82362 17.0688 1.80569 16.9209 1.79518 16.7724C1.78771 16.6674 1.78395 16.5621 1.78393 16.4568C1.78394 16.3079 1.7914 16.1592 1.80627 16.0111C1.82113 15.8631 1.84338 15.7158 1.87295 15.5699C1.9025 15.424 1.93932 15.2797 1.98329 15.1374C2.02733 14.9953 2.07844 14.8555 2.13644 14.7184C2.1944 14.5813 2.25917 14.4472 2.33052 14.3166C2.40184 14.186 2.47965 14.059 2.56365 13.9361C2.64772 13.8133 2.73788 13.6947 2.8338 13.5809C2.92965 13.4671 3.03114 13.3582 3.13787 13.2545C3.24465 13.1508 3.35656 13.0525 3.47316 12.96C3.58973 12.8674 3.71085 12.7808 3.83607 12.7004C3.96133 12.62 4.09054 12.5459 4.2232 12.4783C4.35583 12.4108 4.49175 12.35 4.63046 12.296C4.76918 12.2421 4.91051 12.1951 5.05392 12.1553C5.19733 12.1155 5.34264 12.0829 5.48931 12.0576C5.63596 12.0323 5.78378 12.0144 5.93222 12.0039C6.03733 11.9964 6.14267 11.9927 6.24805 11.9926ZM16.5114 11.9926C16.6602 11.9926 16.809 12.0001 16.957 12.015C17.1051 12.0298 17.2524 12.0521 17.3982 12.0817C17.5441 12.1112 17.6885 12.148 17.8307 12.192C17.9729 12.236 18.1127 12.2871 18.2497 12.3451C18.3868 12.4031 18.5209 12.4679 18.6515 12.5392C18.7822 12.6105 18.9092 12.6883 19.032 12.7724C19.1549 12.8564 19.2734 12.9466 19.3873 13.0425C19.5011 13.1384 19.61 13.2398 19.7137 13.3466C19.8174 13.4534 19.9157 13.5653 20.0082 13.6819C20.1007 13.7984 20.1874 13.9195 20.2678 14.0448C20.3482 14.17 20.4223 14.2992 20.4898 14.4319C20.5574 14.5645 20.6182 14.7005 20.6721 14.8392C20.7261 14.9779 20.773 15.1192 20.8128 15.2626C20.8527 15.406 20.8853 15.5513 20.9106 15.698C20.9358 15.8447 20.9538 15.9925 20.9643 16.1409C20.9718 16.246 20.9755 16.3514 20.9755 16.4568C20.9755 16.6056 20.9681 16.7543 20.9532 16.9024C20.9383 17.0505 20.9161 17.1977 20.8865 17.3436C20.857 17.4894 20.8201 17.6337 20.7762 17.7759C20.7321 17.9181 20.681 18.058 20.623 18.1951C20.5651 18.3322 20.5003 18.4663 20.4289 18.5969C20.3576 18.7275 20.2798 18.8545 20.1958 18.9774C20.1117 19.1002 20.0216 19.2188 19.9257 19.3326C19.8298 19.4464 19.7283 19.5554 19.6216 19.6591C19.5148 19.7628 19.4029 19.8611 19.2863 19.9536C19.1697 20.0461 19.0486 20.1327 18.9234 20.2131C18.7981 20.2936 18.6689 20.3677 18.5363 20.4352C18.4036 20.5027 18.2677 20.5636 18.129 20.6175C17.9903 20.6714 17.8489 20.7184 17.7055 20.7582C17.5621 20.798 17.4168 20.8306 17.2701 20.8559C17.1235 20.8812 16.9757 20.8991 16.8272 20.9096C16.7221 20.9171 16.6168 20.9208 16.5114 20.9207C16.3626 20.9208 16.2138 20.9134 16.0658 20.8986C15.9177 20.8837 15.7704 20.8614 15.6246 20.8319C15.4787 20.8023 15.3344 20.7654 15.1922 20.7214C15.0501 20.6774 14.9101 20.6263 14.773 20.5684C14.636 20.5104 14.5019 20.4457 14.3712 20.3743C14.2406 20.3029 14.1136 20.2251 13.9908 20.141C13.8679 20.057 13.7494 19.9669 13.6355 19.871C13.5217 19.7752 13.4128 19.6737 13.3091 19.5669C13.2054 19.4602 13.1071 19.3483 13.0146 19.2317C12.9221 19.1151 12.8354 18.994 12.755 18.8687C12.6746 18.7435 12.6005 18.6143 12.533 18.4816C12.4654 18.349 12.4046 18.2131 12.3507 18.0744C12.2967 17.9356 12.2498 17.7943 12.21 17.6509C12.1702 17.5075 12.1375 17.3622 12.1122 17.2155C12.087 17.0688 12.069 16.9209 12.0585 16.7724C12.0511 16.6674 12.0474 16.5621 12.0474 16.4568C12.0474 16.3079 12.0548 16.1592 12.0696 16.0111C12.0845 15.8631 12.1067 15.7158 12.1363 15.5699C12.1659 15.424 12.2028 15.2797 12.2468 15.1374C12.2908 14.9953 12.3418 14.8555 12.3998 14.7184C12.4577 14.5813 12.5225 14.4472 12.5939 14.3166C12.6652 14.186 12.7431 14.059 12.8272 13.9361C12.9112 13.8133 13.0013 13.6947 13.0971 13.5809C13.193 13.4671 13.2945 13.3582 13.4012 13.2545C13.508 13.1508 13.6199 13.0525 13.7365 12.96C13.8531 12.8674 13.9742 12.7808 14.0994 12.7004C14.2247 12.62 14.3539 12.5459 14.4865 12.4783C14.6192 12.4108 14.7551 12.35 14.8938 12.296C15.0325 12.2421 15.1738 12.1951 15.3172 12.1553C15.4607 12.1155 15.606 12.0829 15.7526 12.0576C15.8993 12.0323 16.0472 12.0144 16.1957 12.0039C16.3008 11.9964 16.4061 11.9927 16.5114 11.9926Z" fill="white"/>
</g>
<defs>
<clipPath id="clip0_6897_24765">
<rect width="21.888" height="21.888" fill="white" transform="translate(0.416016 0.416016)"/>
</clipPath>
</defs>
</svg>
