<svg xmlns="http://www.w3.org/2000/svg" width="75" height="81" fill="none" viewBox="0 0 75 81"><g clip-path="url(#clip0_3559_26068)"><path fill="#000" d="M48.7998 74.5938C48.7998 78.1314 43.7405 80.9991 37.5 80.9991C31.2594 80.9991 26.1973 78.1314 26.1973 74.5938H48.7998Z"/><path fill="#000" d="M28.5343 31.7005L10.1724 35.2556C10.1724 15.7853 21.4099 0 35.2734 0L35.1601 25.6042L28.5343 31.7005Z"/><path fill="#000" d="M34.2367 44.6528L33.248 55.2572L31.9053 69.6707C31.7948 69.688 31.6815 69.6996 31.5682 69.7111C27.0613 70.1905 20.7386 68.7293 14.4272 65.4111C6.79861 61.394 1.3144 55.7885 0 51.1968C1.92578 51.0469 3.79085 50.4418 5.44738 49.4294C7.73625 48.0807 9.43024 46.2527 10.2206 44.4968C10.3328 44.249 10.4275 43.9932 10.5038 43.7315C10.7067 43.1136 10.763 42.4555 10.6681 41.8111L28.5145 38.8105L34.2367 44.6528Z"/><path fill="#000" d="M46.4572 31.7005L64.8191 35.2556C64.8276 15.7853 53.5872 0 39.7266 0L39.8399 25.6042L46.4572 31.7005Z"/><path fill="#000" d="M40.7633 44.6528L41.7519 55.2572L43.0947 69.6707C43.2051 69.688 43.3185 69.6996 43.4318 69.7111C47.9387 70.1905 54.2614 68.7293 60.5728 65.4111C68.207 61.394 73.6856 55.7885 75 51.1968C73.0742 51.0469 71.2091 50.4418 69.5526 49.4294C67.2637 48.0807 65.5697 46.2527 64.7794 44.4968C64.6672 44.249 64.5725 43.9932 64.4961 43.7315C64.2933 43.1136 64.237 42.4555 64.3318 41.8111L46.4855 38.8105L40.7633 44.6528Z"/></g><defs><clipPath id="clip0_3559_26068"><rect width="75" height="81" fill="#fff" rx="6"/></clipPath></defs></svg>