<svg xmlns="http://www.w3.org/2000/svg" width="1825" height="1825" fill="none" viewBox="0 0 1825 1825"><path fill="#F4F6F6" d="M1731.65 922.389L1732.3 913.58L1800.85 918.614L1800.2 927.422L1770.81 925.264L1768.29 959.54L1797.68 961.698L1797.04 970.506L1728.49 965.473L1729.13 956.664L1760.06 958.935L1762.57 924.659L1731.65 922.389Z"/><path fill="#F4F6F6" d="M1791.6 1026.27L1783.23 1025.14L1787.43 994.127L1765.84 991.198L1762.04 1019.17L1753.86 1018.06L1757.66 990.088L1736.06 987.158L1731.86 1018.17L1723.49 1017.03L1728.88 977.271L1796.99 986.511L1791.6 1026.27Z"/><path fill="#F4F6F6" d="M1715.51 1066.72L1722.88 1028.84L1790.35 1041.97L1788.66 1050.64L1729.49 1039.12L1723.8 1068.33L1715.51 1066.72Z"/><path fill="#F4F6F6" d="M1705.44 1112.07L1714.97 1074.67L1781.58 1091.64L1779.4 1100.2L1720.98 1085.31L1713.63 1114.15L1705.44 1112.07Z"/><path fill="#F4F6F6" d="M1716.18 1195.32C1706.6 1191.89 1699.73 1185.83 1695.57 1177.13C1691.37 1168.35 1690.94 1159.3 1694.29 1149.96C1697.65 1140.56 1703.73 1133.83 1712.53 1129.77C1721.26 1125.7 1730.42 1125.37 1740 1128.8C1749.58 1132.24 1756.45 1138.3 1760.61 1147C1764.83 1155.71 1765.26 1164.77 1761.89 1174.17C1758.52 1183.57 1752.41 1190.29 1743.56 1194.32C1734.82 1198.4 1725.7 1198.73 1716.18 1195.32ZM1736.96 1137.3C1729.49 1134.62 1722.47 1134.76 1715.91 1137.71C1709.32 1140.73 1704.77 1145.76 1702.24 1152.81C1699.72 1159.86 1700.05 1166.6 1703.25 1173.05C1706.36 1179.54 1711.69 1184.13 1719.22 1186.83C1726.75 1189.52 1733.78 1189.36 1740.3 1186.32C1746.87 1183.37 1751.41 1178.37 1753.94 1171.32C1756.46 1164.27 1756.14 1157.49 1752.96 1150.99C1749.76 1144.54 1744.43 1139.98 1736.96 1137.3Z"/><path fill="#F4F6F6" d="M1670.77 1222.41L1674.63 1214.46L1736.46 1244.5L1731.76 1254.17L1669.06 1260.85L1668.89 1261.2L1680.98 1266.64L1717.16 1284.22L1713.3 1292.17L1651.47 1262.13L1655.5 1253.84L1721.2 1246.91L1721.37 1246.56L1709.28 1241.12L1670.77 1222.41Z"/><path fill="#F4F6F6" d="M1687.36 1342.4L1680.01 1338.24L1695.43 1311.01L1676.46 1300.27L1662.56 1324.83L1655.37 1320.77L1669.28 1296.2L1650.32 1285.47L1634.9 1312.7L1627.55 1308.54L1647.32 1273.62L1707.13 1307.48L1687.36 1342.4Z"/><path fill="#F4F6F6" d="M1641.55 1415.97L1636.21 1423.48L1590.81 1368.72L1596.04 1361.36L1641.54 1375.56L1641.76 1375.25L1613.39 1336.95L1618.62 1329.59L1685.71 1353.84L1680.37 1361.36L1627.92 1341.86L1627.7 1342.17L1655.62 1380.27L1650.84 1387L1605.67 1373.16L1605.45 1373.47L1641.55 1415.97Z"/><path fill="#F4F6F6" d="M1567.25 1509.14L1560.95 1515.87L1523.32 1455.5L1529.49 1448.91L1572.67 1469.1L1572.93 1468.82L1549.97 1427.05L1556.13 1420.47L1619.36 1453.51L1613.06 1460.24L1563.7 1433.87L1563.44 1434.15L1585.99 1475.66L1580.35 1481.68L1537.45 1461.9L1537.19 1462.18L1567.25 1509.14Z"/><path fill="#F4F6F6" d="M1481.47 1545.75C1474.71 1538.15 1471.58 1529.54 1472.1 1519.91C1472.62 1510.2 1476.58 1502.04 1483.99 1495.45C1491.45 1488.81 1500.01 1485.82 1509.68 1486.47C1519.3 1487.07 1527.49 1491.18 1534.25 1498.78C1541.02 1506.38 1544.14 1514.99 1543.63 1524.62C1543.16 1534.29 1539.19 1542.45 1531.73 1549.09C1524.28 1555.72 1515.69 1558.69 1505.99 1557.99C1496.37 1557.39 1488.2 1553.31 1481.47 1545.75ZM1527.51 1504.78C1522.24 1498.85 1516.01 1495.61 1508.84 1495.06C1501.61 1494.54 1495.2 1496.78 1489.61 1501.76C1484.02 1506.73 1481.08 1512.82 1480.8 1520.01C1480.42 1527.2 1482.9 1533.78 1488.22 1539.75C1493.53 1545.73 1499.78 1548.95 1506.96 1549.41C1514.14 1549.97 1520.52 1547.75 1526.12 1542.78C1531.71 1537.8 1534.67 1531.69 1535 1524.46C1535.29 1517.27 1532.79 1510.71 1527.51 1504.78Z"/><path fill="#F4F6F6" d="M1483.26 1579.84L1468.39 1560.76L1457.18 1569.49C1454.35 1571.69 1452.66 1574.47 1452.11 1577.82C1451.6 1581.22 1452.4 1584.28 1454.52 1587.01C1456.49 1589.54 1459.14 1591 1462.46 1591.42C1465.77 1591.92 1468.82 1591.09 1471.59 1588.93L1483.26 1579.84ZM1446.21 1532.28L1453.18 1526.85L1495.41 1581.08L1476.94 1595.47C1472.24 1599.13 1467.03 1600.67 1461.31 1600.1C1455.58 1599.62 1450.94 1597.1 1447.4 1592.56C1444.49 1588.82 1443.14 1584.52 1443.33 1579.67C1443.51 1574.9 1445.16 1570.66 1448.26 1566.94L1448.24 1566.6L1415.85 1556.42L1415.61 1556.11L1423.87 1549.68L1455.59 1560.26L1463.32 1554.24L1446.21 1532.28Z"/><path fill="#F4F6F6" d="M1379.49 1582.78L1411.19 1560.77L1450.39 1617.23L1443.14 1622.26L1408.75 1572.74L1384.31 1589.72L1379.49 1582.78Z"/><path fill="#F4F6F6" d="M1375.07 1588.3L1409.81 1647.61L1391.67 1658.23C1382.62 1663.54 1373.75 1665.06 1365.08 1662.79C1356.36 1660.56 1349.41 1655.03 1344.23 1646.19C1339.02 1637.3 1337.58 1628.5 1339.9 1619.8C1342.2 1611.19 1347.87 1604.23 1356.93 1598.92L1375.07 1588.3ZM1397.92 1644.78L1371.72 1600.05L1361.2 1606.21C1354.3 1610.26 1350.01 1615.4 1348.33 1621.65C1346.68 1627.96 1347.91 1634.62 1352.02 1641.63C1356.09 1648.59 1361.28 1652.89 1367.59 1654.54C1373.9 1656.18 1380.5 1654.99 1387.4 1650.94L1397.92 1644.78Z"/><path fill="#F4F6F6" d="M1291.22 1637.93L1299.27 1634.3L1327.46 1697L1319.4 1700.62L1307.32 1673.74L1275.97 1687.83L1288.06 1714.71L1280 1718.33L1251.82 1655.64L1259.87 1652.02L1272.59 1680.3L1303.93 1666.21L1291.22 1637.93Z"/><path fill="#F4F6F6" d="M1227.96 1740.08L1224.99 1732.17L1254.29 1721.17L1246.63 1700.77L1220.21 1710.69L1217.31 1702.96L1243.73 1693.04L1236.08 1672.64L1206.78 1683.63L1203.81 1675.72L1241.38 1661.63L1265.53 1725.98L1227.96 1740.08Z"/><path fill="#F4F6F6" d="M1156.98 1691.94L1193.82 1680.44L1214.3 1746.06L1205.87 1748.69L1187.91 1691.14L1159.5 1700L1156.98 1691.94Z"/><path fill="#F4F6F6" d="M1112.61 1704.44L1150.05 1695.06L1166.76 1761.73L1158.2 1763.88L1143.53 1705.4L1114.67 1712.64L1112.61 1704.44Z"/><path fill="#F4F6F6" d="M1045.77 1753.09C1044.21 1743.03 1046.25 1734.1 1051.91 1726.29C1057.61 1718.41 1065.37 1713.71 1075.17 1712.19C1085.04 1710.66 1093.85 1712.79 1101.61 1718.57C1109.37 1724.3 1114.03 1732.19 1115.59 1742.25C1117.15 1752.3 1115.1 1761.23 1109.45 1769.04C1103.81 1776.91 1096.05 1781.61 1086.19 1783.15C1076.32 1784.68 1067.5 1782.52 1059.73 1776.66C1051.97 1770.94 1047.32 1763.08 1045.77 1753.09ZM1106.67 1743.63C1105.45 1735.79 1101.98 1729.69 1096.25 1725.33C1090.46 1720.99 1083.87 1719.39 1076.47 1720.54C1069.07 1721.68 1063.3 1725.2 1059.16 1731.09C1054.95 1736.93 1053.46 1743.8 1054.69 1751.7C1055.91 1759.61 1059.42 1765.7 1065.2 1769.99C1070.93 1774.34 1077.49 1775.95 1084.89 1774.8C1092.29 1773.65 1098.09 1770.13 1102.29 1764.23C1106.43 1758.34 1107.89 1751.47 1106.67 1743.63Z"/><path fill="#F4F6F6" d="M1000.04 1725.9L1008.87 1725.49L1012.05 1794.15L1001.31 1794.65L965.46 1742.78L965.076 1742.8L966.073 1756.01L967.935 1796.19L959.113 1796.6L955.931 1727.94L965.137 1727.51L1002.64 1781.9L1003.02 1781.88L1002.03 1768.67L1000.04 1725.9Z"/><path fill="#F4F6F6" d="M899.359 1797.7L899.522 1789.25L930.812 1789.86L931.232 1768.07L903.014 1767.52L903.173 1759.27L931.392 1759.81L931.812 1738.02L900.522 1737.42L900.685 1728.97L940.806 1729.75L939.479 1798.47L899.359 1797.7Z"/><path fill="#F4F6F6" d="M812.241 1792.21L803.095 1791.07L829.747 1725.11L838.702 1726.22L847.801 1773.01L848.182 1773.06L868.427 1729.91L877.382 1731.02L887.887 1801.58L878.741 1800.45L871.003 1745.03L870.622 1744.98L850.34 1787.64L842.147 1786.63L832.894 1740.3L832.513 1740.26L812.241 1792.21Z"/><path fill="#F4F6F6" d="M750.205 1711.97C760.094 1714.37 767.558 1719.7 772.598 1727.97C777.576 1736.23 778.858 1745.33 776.443 1755.28C774.029 1765.23 768.725 1772.7 760.533 1777.7C752.31 1782.81 743.223 1784.17 733.272 1781.75C723.196 1779.31 715.9 1773.68 711.384 1764.88L718.991 1760.41C722.376 1767.35 727.801 1771.73 735.264 1773.54C742.665 1775.34 749.457 1774.35 755.64 1770.58C761.746 1766.86 765.757 1761.05 767.674 1753.15C769.59 1745.25 768.688 1738.25 764.967 1732.15C761.199 1725.96 755.614 1721.97 748.213 1720.18C740.438 1718.29 732.898 1719.92 725.591 1725.06L720.812 1717.48C724.904 1714.46 729.508 1712.45 734.624 1711.45C739.724 1710.51 744.918 1710.69 750.205 1711.97Z"/><path fill="#F4F6F6" d="M687.712 1761.11L694.919 1738.02L681.356 1733.79C677.935 1732.72 674.69 1732.91 671.621 1734.37C668.533 1735.89 666.474 1738.29 665.444 1741.59C664.491 1744.65 664.792 1747.66 666.347 1750.62C667.822 1753.63 670.239 1755.66 673.6 1756.71L687.712 1761.11ZM705.672 1703.56L714.103 1706.19L693.627 1771.81L671.266 1764.83C665.584 1763.06 661.349 1759.66 658.56 1754.63C655.691 1749.65 655.114 1744.4 656.83 1738.91C658.241 1734.38 660.996 1730.82 665.095 1728.21C669.115 1725.64 673.537 1724.58 678.363 1725.01L678.632 1724.79L668.535 1692.38L668.649 1692.01L678.638 1695.13L688.031 1727.22L697.379 1730.14L705.672 1703.56Z"/><path fill="#F4F6F6" d="M587.197 1699.03C591.126 1689.64 597.542 1683.1 606.444 1679.4C615.429 1675.67 624.498 1675.72 633.648 1679.55C642.858 1683.4 649.258 1689.83 652.847 1698.82C656.461 1707.76 656.303 1716.92 652.374 1726.31C648.445 1735.69 642.029 1742.24 633.127 1745.93C624.201 1749.69 615.132 1749.64 605.923 1745.79C596.713 1741.93 590.326 1735.48 586.761 1726.42C583.148 1717.49 583.293 1708.35 587.197 1699.03ZM644.05 1722.82C647.114 1715.5 647.344 1708.49 644.741 1701.78C642.079 1695.04 637.294 1690.23 630.387 1687.34C623.479 1684.45 616.722 1684.43 610.116 1687.29C603.475 1690.06 598.61 1695.13 595.521 1702.51C592.432 1709.89 592.232 1716.92 594.919 1723.59C597.522 1730.3 602.277 1735.1 609.184 1737.99C616.092 1740.89 622.878 1740.92 629.544 1738.09C636.15 1735.23 640.986 1730.14 644.05 1722.82Z"/><path fill="#F4F6F6" d="M545.905 1662.83C548.574 1657.44 552.697 1654.09 558.273 1652.78C563.878 1651.55 569.548 1652.36 575.284 1655.2C580.389 1657.73 584.153 1661.45 586.577 1666.36C589 1671.27 589.68 1676.68 588.616 1682.58L579.511 1681.93C579.904 1679.84 580.01 1677.82 579.831 1675.88C579.651 1673.93 579.229 1672.11 578.564 1670.43C577.813 1668.77 576.849 1667.26 575.67 1665.89C574.462 1664.58 573.027 1663.51 571.364 1662.69C567.75 1660.9 564.342 1660.35 561.139 1661.05C557.908 1661.81 555.526 1663.74 553.992 1666.83C552.715 1669.41 552.568 1672.09 553.552 1674.86C554.45 1677.52 556.925 1680.89 560.976 1684.97C565.029 1689.19 567.501 1691.91 568.393 1693.14C573.285 1699.7 574.126 1706.22 570.918 1712.7C568.674 1717.23 564.951 1720.21 559.748 1721.64C554.487 1723.03 549.189 1722.41 543.855 1719.77C539.152 1717.44 535.676 1714.22 533.427 1710.1C531.15 1706.05 530.318 1701.96 530.931 1697.84L539.864 1698.4C539.416 1701.04 539.856 1703.61 541.182 1706.12C542.423 1708.67 544.506 1710.66 547.431 1712.11C550.528 1713.64 553.564 1714.07 556.538 1713.4C559.455 1712.85 561.553 1711.28 562.83 1708.7C563.881 1706.58 563.958 1704.33 563.061 1701.96C561.993 1699.5 558.915 1695.69 553.829 1690.53C548.627 1685.31 545.474 1680.5 544.369 1676.1C543.178 1671.73 543.69 1667.3 545.905 1662.83Z"/><path fill="#F4F6F6" d="M499.149 1638.08C502.152 1632.87 506.476 1629.79 512.124 1628.83C517.795 1627.96 523.403 1629.12 528.949 1632.32C533.885 1635.16 537.408 1639.11 539.518 1644.16C541.629 1649.22 541.967 1654.66 540.535 1660.48L531.489 1659.26C532.012 1657.2 532.245 1655.19 532.188 1653.24C532.131 1651.28 531.824 1649.44 531.266 1647.72C530.621 1646.02 529.753 1644.45 528.663 1643.01C527.54 1641.62 526.175 1640.47 524.566 1639.54C521.072 1637.53 517.705 1636.77 514.465 1637.27C511.192 1637.82 508.694 1639.59 506.969 1642.59C505.531 1645.08 505.217 1647.75 506.025 1650.57C506.754 1653.28 509.012 1656.8 512.8 1661.12C516.58 1665.59 518.876 1668.46 519.689 1669.74C524.159 1676.6 524.589 1683.16 520.98 1689.43C518.457 1693.81 514.554 1696.55 509.271 1697.64C503.933 1698.71 498.685 1697.75 493.527 1694.78C488.979 1692.16 485.713 1688.73 483.726 1684.48C481.708 1680.29 481.135 1676.16 482.006 1672.08L490.885 1673.21C490.273 1675.81 490.55 1678.41 491.716 1681C492.795 1683.61 494.748 1685.73 497.577 1687.36C500.572 1689.09 503.574 1689.71 506.585 1689.23C509.531 1688.86 511.723 1687.42 513.16 1684.93C514.342 1682.88 514.56 1680.64 513.814 1678.21C512.902 1675.69 510.069 1671.7 505.317 1666.23C500.454 1660.7 497.609 1655.7 496.783 1651.23C495.869 1646.79 496.658 1642.41 499.149 1638.08Z"/><path fill="#F4F6F6" d="M499.748 1618.9L461.582 1676.07L440.903 1662.26C436.379 1659.24 433.488 1655.16 432.231 1650.01C430.939 1644.92 431.785 1640.13 434.77 1635.66C438.537 1630.02 443.766 1627.78 450.457 1628.94L450.67 1628.62C448.382 1625.7 447.16 1622.46 447.002 1618.89C446.809 1615.38 447.726 1612.11 449.751 1609.07C452.878 1604.39 457.176 1601.64 462.643 1600.83C468.004 1599.94 473.107 1601.12 477.951 1604.35L499.748 1618.9ZM458.927 1664.14L470.601 1646.65L457.267 1637.75C454.659 1636.01 451.89 1635.43 448.961 1636.02C445.996 1636.65 443.75 1638.12 442.222 1640.41C440.73 1642.64 440.231 1645.23 440.726 1648.18C441.257 1651.07 442.773 1653.35 445.274 1655.02L458.927 1664.14ZM475.185 1639.79L487.711 1621.03L472.941 1611.16C470.279 1609.39 467.395 1608.81 464.288 1609.43C461.235 1610.08 458.855 1611.69 457.15 1614.24C455.479 1616.74 454.954 1619.55 455.573 1622.65C456.192 1625.76 457.913 1628.26 460.734 1630.14L475.185 1639.79Z"/><path fill="#F4F6F6" d="M379.112 1619.21L384.23 1612.49L409.129 1631.45L422.331 1614.11L399.876 1597.02L404.877 1590.45L427.332 1607.55L440.534 1590.21L415.635 1571.25L420.753 1564.53L452.679 1588.84L411.038 1643.52L379.112 1619.21Z"/><path fill="#F4F6F6" d="M381.921 1533.33L411.212 1558.46L366.456 1610.62L359.753 1604.87L399.008 1559.12L376.421 1539.74L381.921 1533.33Z"/><path fill="#F4F6F6" d="M347.991 1502.65L375.868 1529.34L328.335 1578.99L321.955 1572.89L363.646 1529.34L342.149 1508.76L347.991 1502.65Z"/><path fill="#F4F6F6" d="M318.462 1475.2L324.139 1481.96L271.485 1526.15L265.808 1519.38L288.385 1500.44L266.293 1474.11L243.716 1493.05L238.039 1486.29L290.693 1442.1L296.37 1448.87L272.617 1468.8L294.709 1495.13L318.462 1475.2Z"/><path fill="#F4F6F6" d="M202.928 1442.36L209.723 1437.34L228.317 1462.51L245.846 1449.56L229.077 1426.86L235.717 1421.96L252.486 1444.66L270.015 1431.71L251.421 1406.54L258.216 1401.52L282.058 1433.8L226.769 1474.64L202.928 1442.36Z"/><path fill="#F4F6F6" d="M229.985 1361.39L251.177 1393.64L193.732 1431.39L188.882 1424.01L239.267 1390.9L222.924 1366.03L229.985 1361.39Z"/><path fill="#F4F6F6" d="M205.963 1322.71L225.347 1356.08L165.91 1390.6L161.474 1382.96L213.606 1352.68L198.658 1326.95L205.963 1322.71Z"/><path fill="#F4F6F6" d="M140.579 1271.9C149.812 1267.63 158.962 1267.13 168.027 1270.41C177.176 1273.72 183.836 1279.87 188.004 1288.87C192.2 1297.93 192.587 1306.99 189.165 1316.05C185.802 1325.09 179.504 1331.74 170.27 1336.02C161.036 1340.29 151.886 1340.79 142.822 1337.51C133.699 1334.26 127.04 1328.11 122.844 1319.05C118.649 1309.99 118.291 1300.91 121.77 1291.83C125.133 1282.79 131.403 1276.15 140.579 1271.9ZM166.478 1327.83C173.679 1324.49 178.583 1319.47 181.189 1312.76C183.769 1306 183.485 1299.22 180.338 1292.42C177.192 1285.63 172.217 1281.05 165.416 1278.7C158.645 1276.27 151.63 1276.73 144.371 1280.09C137.111 1283.45 132.221 1288.5 129.7 1295.24C127.093 1301.95 127.363 1308.7 130.51 1315.5C133.657 1322.29 138.644 1326.89 145.473 1329.3C152.275 1331.66 159.276 1331.16 166.478 1327.83Z"/><path fill="#F4F6F6" d="M154.026 1220.85L156.847 1229.22L91.712 1251.17L88.2775 1240.98L128.277 1192.25L128.154 1191.88L115.723 1196.48L77.6061 1209.33L74.7849 1200.96L139.92 1179L142.864 1187.73L100.899 1238.76L101.022 1239.12L113.453 1234.52L154.026 1220.85Z"/><path fill="#F4F6F6" d="M57.8824 1146.3L66.0446 1144.12L74.1158 1174.36L95.1706 1168.74L87.8917 1141.47L95.8685 1139.34L103.147 1166.61L124.202 1160.99L116.131 1130.75L124.293 1128.57L134.642 1167.34L68.2313 1185.07L57.8824 1146.3Z"/><path fill="#F4F6F6" d="M39.2374 1062.65L37.7887 1053.55L108.552 1060.85L109.971 1069.76L67.5464 1091.49L67.6068 1091.86L114.679 1099.34L116.098 1108.25L51.2197 1137.93L49.771 1128.82L100.868 1106.01L100.808 1105.63L54.1942 1097.99L52.8963 1089.83L94.8318 1068.09L94.7715 1067.71L39.2374 1062.65Z"/><path fill="#F4F6F6" d="M26.9715 943.671L26.7581 934.458L95.9002 951.197L96.1092 960.219L51.1517 976.048L51.1606 976.432L96.8028 990.163L97.0118 999.184L28.7366 1019.87L28.5232 1010.66L82.221 994.918L82.2121 994.534L37.0476 980.696L36.8564 972.442L81.3318 956.528L81.3229 956.144L26.9715 943.671Z"/><path fill="#F4F6F6" d="M62.642 855.518C72.7935 856.224 81.0496 860.199 87.4104 867.442C93.8306 874.753 96.6965 883.356 96.0082 893.252C95.3155 903.212 91.2861 911.336 83.9201 917.624C76.6179 923.917 67.891 926.71 57.7396 926.004C47.5881 925.298 39.3319 921.324 32.9712 914.081C26.5465 906.834 23.6806 898.23 24.3733 888.27C25.066 878.31 29.1273 870.188 36.5572 863.905C43.8594 857.612 52.5544 854.817 62.642 855.518ZM58.3657 917.002C66.2826 917.553 72.9999 915.518 78.5178 910.897C84.0401 906.213 87.0611 900.136 87.5806 892.666C88.1002 885.196 85.9474 878.792 81.1222 873.452C76.3654 868.053 69.9966 865.076 62.0159 864.521C54.0351 863.966 47.3155 866.032 41.8571 870.721C36.3392 875.341 33.3205 881.386 32.8009 888.856C32.2814 896.326 34.432 902.763 39.2527 908.166C44.0778 913.506 50.4488 916.451 58.3657 917.002Z"/><path fill="#F4F6F6" d="M37.4743 832.685L61.4468 835.938L63.3567 821.858C63.8385 818.307 63.1057 815.14 61.1581 812.357C59.1471 809.565 56.4293 807.937 53.0047 807.472C49.8338 807.042 46.9159 807.841 44.251 809.869C41.5314 811.825 39.935 814.548 39.4618 818.036L37.4743 832.685ZM97.2151 840.79L96.0278 849.542L27.9157 840.302L31.0646 817.09C31.8648 811.192 34.5104 806.449 39.0016 802.86C43.438 799.199 48.5101 797.756 54.2178 798.53C58.9108 799.167 62.8857 801.288 66.1424 804.895C69.3443 808.43 71.1343 812.612 71.5124 817.443L71.7719 817.672L102.048 802.306L102.429 802.358L101.022 812.727L70.9442 827.344L69.6278 837.047L97.2151 840.79Z"/><path fill="#F4F6F6" d="M109.759 757.126L102.384 795.007L34.9147 781.87L36.6026 773.201L95.7793 784.723L101.467 755.511L109.759 757.126Z"/><path fill="#F4F6F6" d="M108.998 749.378L42.7929 730.896L48.4457 710.647C51.2677 700.537 56.5819 693.283 64.3881 688.884C72.2116 684.423 81.0548 683.569 90.9177 686.322C100.842 689.093 107.996 694.412 112.377 702.28C116.715 710.069 117.473 719.018 114.651 729.128L108.998 749.378ZM53.3045 724.661L103.236 738.599L106.514 726.856C108.665 719.151 108.171 712.468 105.034 706.808C101.834 701.131 96.3201 697.199 88.4914 695.014C80.7244 692.846 74.0022 693.362 68.3249 696.561C62.6477 699.76 58.7335 705.213 56.5826 712.918L53.3045 724.661Z"/><path fill="#F4F6F6" d="M133.604 657.904L130.346 666.113L66.4555 640.764L69.7127 632.555L97.1073 643.424L109.782 611.478L82.3873 600.609L85.6445 592.4L149.535 617.749L146.278 625.959L117.456 614.523L104.781 646.468L133.604 657.904Z"/><path fill="#F4F6F6" d="M107.94 539.827L115.579 543.434L102.217 571.735L121.923 581.039L133.974 555.517L141.439 559.042L129.389 584.564L149.095 593.868L162.457 565.568L170.096 569.175L152.963 605.462L90.807 576.114L107.94 539.827Z"/><path fill="#F4F6F6" d="M191.62 526.022L173.23 559.95L112.8 527.195L117.009 519.43L170.012 548.16L184.193 521.996L191.62 526.022Z"/><path fill="#F4F6F6" d="M216.106 483.463L195.749 516.249L137.354 479.991L142.013 472.488L193.231 504.289L208.929 479.006L216.106 483.463Z"/><path fill="#F4F6F6" d="M230.08 401.84C238.199 407.975 242.945 415.813 244.318 425.354C245.704 434.985 243.406 443.758 237.425 451.672C231.406 459.637 223.594 464.242 213.989 465.487C204.436 466.771 195.6 464.345 187.481 458.21C179.362 452.075 174.617 444.237 173.243 434.696C171.819 425.116 174.117 416.343 180.136 408.378C186.156 400.413 193.993 395.827 203.649 394.62C213.202 393.337 222.013 395.743 230.08 401.84ZM192.922 451.011C199.253 455.795 205.992 457.759 213.137 456.902C220.321 455.994 226.171 452.552 230.685 446.578C235.2 440.604 236.894 434.063 235.768 426.955C234.732 419.835 231.022 413.863 224.64 409.039C218.257 404.216 211.499 402.278 204.366 403.225C197.221 404.082 191.391 407.497 186.876 413.471C182.361 419.445 180.648 426.012 181.735 433.171C182.861 440.279 186.59 446.226 192.922 451.011Z"/><path fill="#F4F6F6" d="M279.755 391.45L273.718 397.896L223.551 350.908L230.901 343.06L292.766 355.231L293.028 354.951L283.097 346.175L253.739 318.678L259.777 312.231L309.944 359.22L303.643 365.946L238.837 353.124L238.575 353.405L248.506 362.181L279.755 391.45Z"/><path fill="#F4F6F6" d="M298.966 272.175L304.763 278.32L282 299.797L296.955 315.647L317.484 296.278L323.149 302.283L302.62 321.652L317.575 337.503L340.339 316.026L346.136 322.171L316.949 349.709L269.778 299.713L298.966 272.175Z"/><path fill="#F4F6F6" d="M366.602 213.412L373.935 207.829L400.988 273.624L393.808 279.091L354.595 251.997L354.29 252.23L369.979 297.236L362.799 302.703L305.958 259.59L313.291 254.007L357.567 288.226L357.872 287.993L342.551 243.31L349.12 238.308L388.118 264.962L388.424 264.73L366.602 213.412Z"/><path fill="#F4F6F6" d="M468.236 226.404C459.493 231.612 450.428 233.026 441.04 230.648C431.707 228.237 424.421 222.632 419.18 213.835C413.939 205.038 412.497 195.989 414.853 186.689C417.144 177.279 422.688 169.953 431.485 164.713C440.393 159.406 449.539 158.316 458.925 161.44L456.626 169.962C449.346 167.37 442.407 168.04 435.809 171.97C429.266 175.868 425.105 181.327 423.327 188.346C421.571 195.277 422.773 202.234 426.933 209.217C431.092 216.2 436.638 220.569 443.569 222.325C450.588 224.103 457.369 223.044 463.912 219.146C470.785 215.052 475.031 208.611 476.65 199.824L485.37 201.894C484.564 206.918 482.683 211.577 479.728 215.87C476.74 220.108 472.909 223.62 468.236 226.404Z"/><path fill="#F4F6F6" d="M474.004 149.874L485.057 171.393L497.695 164.901C500.883 163.264 503.061 160.85 504.229 157.66C505.367 154.413 505.147 151.253 503.568 148.179C502.105 145.332 499.78 143.397 496.592 142.373C493.431 141.262 490.285 141.511 487.154 143.119L474.004 149.874ZM501.55 203.501L493.694 207.536L462.288 146.395L483.124 135.692C488.418 132.973 493.822 132.427 499.335 134.056C504.876 135.599 508.963 138.932 511.594 144.056C513.758 148.268 514.294 152.742 513.2 157.477C512.134 162.125 509.729 165.987 505.984 169.062L505.945 169.406L535.873 185.439L536.049 185.78L526.741 190.561L497.54 174.263L488.829 178.737L501.55 203.501Z"/><path fill="#F4F6F6" d="M590.38 122.753C594.168 132.198 594.189 141.361 590.441 150.242C586.659 159.206 580.164 165.535 570.957 169.228C561.69 172.945 552.623 172.858 543.753 168.968C534.907 165.138 528.59 158.501 524.802 149.056C521.014 139.611 520.993 130.449 524.74 121.567C528.464 112.627 534.959 106.298 544.225 102.581C553.491 98.8644 562.571 98.9806 571.465 102.93C580.31 106.76 586.615 113.368 590.38 122.753ZM533.178 145.697C536.132 153.062 540.891 158.222 547.454 161.175C554.076 164.104 560.862 164.175 567.812 161.387C574.762 158.6 579.588 153.871 582.292 147.201C585.078 140.567 584.982 133.537 582.004 126.112C579.026 118.687 574.238 113.54 567.639 110.67C561.076 107.717 554.32 107.634 547.37 110.422C540.42 113.21 535.564 117.95 532.801 124.644C530.098 131.313 530.223 138.331 533.178 145.697Z"/><path fill="#F4F6F6" d="M645.1 119.438C646.979 125.154 646.39 130.433 643.334 135.278C640.197 140.082 635.589 143.483 629.509 145.482C624.098 147.26 618.806 147.248 613.632 145.446C608.458 143.643 604.182 140.266 600.802 135.313L607.749 129.392C608.935 131.158 610.275 132.671 611.767 133.932C613.26 135.193 614.834 136.192 616.491 136.927C618.188 137.582 619.937 137.984 621.738 138.133C623.518 138.221 625.29 137.976 627.053 137.396C630.884 136.137 633.695 134.135 635.488 131.39C637.26 128.584 637.607 125.54 636.527 122.256C635.628 119.52 633.855 117.509 631.21 116.223C628.705 114.958 624.579 114.293 618.832 114.229C612.983 114.063 609.311 113.855 607.814 113.606C599.724 112.358 594.55 108.299 592.291 101.429C590.712 96.6256 591.279 91.8921 593.99 87.2282C596.762 82.5443 600.975 79.2731 606.629 77.4144C611.615 75.7756 616.351 75.6334 620.839 76.9878C625.306 78.2815 628.767 80.6132 631.222 83.9831L624.458 89.8444C622.929 87.6522 620.811 86.1255 618.102 85.2642C615.435 84.3221 612.55 84.3607 609.45 85.38C606.167 86.4592 603.7 88.2805 602.05 90.844C600.36 93.2859 599.965 95.8748 600.864 98.6107C601.603 100.86 603.125 102.516 605.427 103.578C607.913 104.58 612.778 105.137 620.023 105.248C627.389 105.319 633.011 106.536 636.887 108.9C640.803 111.183 643.541 114.696 645.1 119.438Z"/><path fill="#F4F6F6" d="M696.454 103.93C697.962 109.754 697.035 114.985 693.674 119.623C690.235 124.215 685.417 127.313 679.221 128.916C673.707 130.344 668.426 129.991 663.379 127.86C658.332 125.729 654.282 122.083 651.228 116.924L658.54 111.461C659.611 113.3 660.85 114.896 662.259 116.25C663.667 117.605 665.174 118.702 666.78 119.543C668.431 120.305 670.151 120.819 671.938 121.083C673.71 121.286 675.494 121.155 677.29 120.69C681.194 119.68 684.128 117.862 686.093 115.238C688.042 112.552 688.584 109.536 687.718 106.191C686.997 103.402 685.357 101.282 682.799 99.8281C680.381 98.4045 676.307 97.4758 670.575 97.042C664.75 96.5003 661.098 96.0571 659.621 95.7123C651.627 93.9467 646.725 89.5633 644.913 82.5619C643.646 77.6672 644.515 72.9799 647.521 68.5C650.588 64.004 655.003 61.0104 660.765 59.5191C665.845 58.2042 670.581 58.3668 674.972 60.007C679.347 61.5852 682.651 64.1346 684.885 67.6554L677.758 73.0697C676.373 70.7838 674.357 69.124 671.709 68.0903C669.108 66.9787 666.227 66.8318 663.067 67.6496C659.722 68.5155 657.143 70.1745 655.332 72.6265C653.488 74.9547 652.927 77.5128 653.649 80.301C654.242 82.5934 655.654 84.3436 657.883 85.5514C660.299 86.7112 665.118 87.5794 672.341 88.1561C679.688 88.7007 685.219 90.2771 688.935 92.8852C692.697 95.4154 695.204 99.0968 696.454 103.93Z"/><path fill="#F4F6F6" d="M709.719 117.671L697.099 50.1034L721.541 45.5383C726.888 44.5395 731.81 45.4432 736.305 48.2495C740.789 50.9929 743.525 55.0069 744.512 60.2915C745.757 66.9602 743.582 72.217 737.984 76.062L738.055 76.4395C741.727 76.9257 744.865 78.3904 747.47 80.8336C750.063 83.214 751.694 86.1972 752.364 89.7832C753.398 95.3194 752.243 100.288 748.898 104.689C745.679 109.066 741.207 111.79 735.482 112.859L709.719 117.671ZM707.332 56.7862L711.192 77.4528L726.952 74.5093C730.034 73.9335 732.42 72.4137 734.108 69.9498C735.785 67.423 736.37 64.807 735.865 62.1018C735.372 59.4595 733.919 57.2569 731.506 55.4939C729.105 53.7938 726.426 53.2199 723.469 53.7722L707.332 56.7862ZM712.708 85.5684L716.85 107.745L734.308 104.484C737.454 103.897 739.922 102.296 741.713 99.6831C743.44 97.0816 744.022 94.271 743.458 91.2512C742.906 88.2944 741.323 85.9206 738.71 84.13C736.097 82.3393 733.123 81.7554 729.789 82.3782L712.708 85.5684Z"/><path fill="#F4F6F6" d="M794.114 33.1411L795.153 41.5249L764.095 45.3744L766.775 67.001L794.785 63.5293L795.801 71.7226L767.791 75.1943L770.471 96.8208L801.53 92.9712L802.569 101.355L762.746 106.291L754.291 38.077L794.114 33.1411Z"/><path fill="#F4F6F6" d="M854.558 96.0777L816.049 98.607L811.545 30.0188L820.358 29.4399L824.309 89.5983L854.005 87.6479L854.558 96.0777Z"/><path fill="#F4F6F6" d="M897.922 94.1642L859.332 94.6111L858.536 25.8797L867.368 25.7774L868.066 86.0613L897.824 85.7167L897.922 94.1642Z"/><path fill="#F4F6F6" d="M945.022 93.1138L936.234 92.2299L943.113 23.8389L951.901 24.7228L948.951 54.0469L983.147 57.4864L986.096 28.1624L994.884 29.0462L988.005 97.4372L979.217 96.5533L982.32 65.7009L948.125 62.2614L945.022 93.1138Z"/><path fill="#F4F6F6" d="M1049.37 35.7636L1048.01 44.1014L1017.12 39.0634L1013.61 60.5711L1041.47 65.1147L1040.14 73.263L1012.28 68.7194L1008.78 90.2272L1039.66 95.2653L1038.3 103.603L998.699 97.1433L1009.76 29.3037L1049.37 35.7636Z"/><path fill="#F4F6F6" d="M1088.12 112.904L1050.45 104.519L1065.38 37.4249L1074 39.3437L1060.9 98.1916L1089.95 104.657L1088.12 112.904Z"/><path fill="#F4F6F6" d="M1133.18 124.114L1096.05 113.597L1114.78 47.4624L1123.28 49.8693L1106.85 107.875L1135.48 115.986L1133.18 124.114Z"/><path fill="#F4F6F6" d="M1212.59 113.944C1208.94 123.445 1202.72 130.176 1193.94 134.138C1185.07 138.138 1176 138.36 1166.74 134.805C1157.42 131.228 1150.83 124.997 1146.97 116.113C1143.09 107.289 1142.98 98.127 1146.62 88.6267C1150.27 79.1264 1156.49 72.3951 1165.27 68.4326C1174.08 64.4104 1183.15 64.1881 1192.47 67.7656C1201.79 71.343 1208.37 77.6036 1212.2 86.5472C1216.08 95.3713 1216.21 104.504 1212.59 113.944ZM1155.05 91.8602C1152.2 99.2693 1152.18 106.288 1154.99 112.917C1157.85 119.568 1162.78 124.235 1169.77 126.918C1176.76 129.601 1183.51 129.418 1190.03 126.366C1196.59 123.398 1201.3 118.18 1204.16 110.711C1207.03 103.242 1207.02 96.2117 1204.13 89.62C1201.33 82.9915 1196.43 78.3357 1189.44 75.6526C1182.45 72.9695 1175.67 73.142 1169.09 76.1701C1162.57 79.2211 1157.89 84.4512 1155.05 91.8602Z"/><path fill="#F4F6F6" d="M1238.13 159.466L1230.28 155.431L1261.68 94.2893L1271.25 99.202L1276.53 162.03L1276.87 162.206L1282.59 150.246L1300.96 114.466L1308.82 118.502L1277.41 179.643L1269.22 175.433L1263.75 109.597L1263.41 109.421L1257.7 121.381L1238.13 159.466Z"/><path fill="#F4F6F6" d="M1358.93 145.651L1354.61 152.908L1327.72 136.892L1316.57 155.613L1340.82 170.058L1336.59 177.151L1312.35 162.706L1301.19 181.428L1328.08 197.445L1323.76 204.703L1289.28 184.166L1324.46 125.114L1358.93 145.651Z"/><path fill="#F4F6F6" d="M1434.61 195.124L1441.98 200.654L1386.07 244.641L1378.86 239.227L1394.22 194.107L1393.91 193.877L1354.89 221.256L1347.67 215.842L1373.63 149.39L1381.01 154.92L1360.17 206.856L1360.48 207.086L1399.28 180.149L1405.89 185.102L1390.89 229.896L1391.2 230.126L1434.61 195.124Z"/><path fill="#F4F6F6" d="M1523.21 268.997L1529.79 275.442L1468.62 311.749L1462.17 305.438L1483.29 262.711L1483.01 262.443L1440.76 284.491L1434.31 278.18L1468.72 215.689L1475.31 222.134L1447.87 270.904L1448.15 271.173L1490.14 249.535L1496.04 255.308L1475.32 297.759L1475.6 298.028L1523.21 268.997Z"/><path fill="#F4F6F6" d="M1558.01 355.389C1550.26 361.986 1541.58 364.923 1531.97 364.198C1522.27 363.466 1514.2 359.324 1507.77 351.771C1501.3 344.17 1498.49 335.546 1499.36 325.9C1500.17 316.295 1504.45 308.194 1512.2 301.596C1519.95 294.998 1528.63 292.062 1538.24 292.787C1547.9 293.47 1555.97 297.612 1562.44 305.214C1568.91 312.815 1571.69 321.459 1570.78 331.147C1569.97 340.752 1565.71 348.833 1558.01 355.389ZM1518.05 308.466C1512.01 313.612 1508.63 319.765 1507.92 326.927C1507.25 334.137 1509.35 340.593 1514.2 346.294C1519.06 351.995 1525.08 355.065 1532.26 355.504C1539.44 356.034 1546.07 353.705 1552.16 348.518C1558.25 343.332 1561.61 337.154 1562.23 329.985C1562.94 322.823 1560.86 316.392 1556.01 310.691C1551.15 304.99 1545.11 301.896 1537.89 301.407C1530.7 300.968 1524.09 303.321 1518.05 308.466Z"/><path fill="#F4F6F6" d="M1592.39 354.488L1572.98 368.932L1581.47 380.33C1583.61 383.205 1586.35 384.956 1589.69 385.582C1593.08 386.171 1596.16 385.433 1598.93 383.37C1601.5 381.459 1603.02 378.847 1603.51 375.533C1604.08 372.233 1603.32 369.171 1601.22 366.347L1592.39 354.488ZM1544.03 390.484L1538.76 383.399L1593.89 342.359L1607.88 361.149C1611.43 365.924 1612.86 371.164 1612.16 376.871C1611.55 382.59 1608.94 387.169 1604.32 390.608C1600.52 393.436 1596.19 394.7 1591.34 394.401C1586.58 394.115 1582.38 392.378 1578.73 389.19L1578.38 389.208L1567.49 421.367L1567.19 421.596L1560.94 413.202L1572.21 381.717L1566.36 373.862L1544.03 390.484Z"/><path fill="#F4F6F6" d="M1594.91 460.933L1573.72 428.68L1631.17 390.935L1636.02 398.316L1585.63 431.422L1601.97 456.293L1594.91 460.933Z"/><path fill="#F4F6F6" d="M1599.6 463.933L1659.78 430.732L1669.94 449.141C1675.01 458.332 1676.3 467.231 1673.81 475.839C1671.36 484.504 1665.65 491.309 1656.68 496.255C1647.66 501.232 1638.83 502.449 1630.19 499.905C1621.63 497.387 1614.82 491.532 1609.75 482.342L1599.6 463.933ZM1656.65 442.546L1611.26 467.586L1617.15 478.261C1621.02 485.266 1626.05 489.689 1632.25 491.529C1638.51 493.338 1645.2 492.279 1652.32 488.353C1659.38 484.458 1663.82 479.381 1665.63 473.12C1667.43 466.859 1666.41 460.227 1662.54 453.222L1656.65 442.546Z"/></svg>