<svg fill="none" height="1024" viewBox="0 0 1024 1024" width="1024" xmlns="http://www.w3.org/2000/svg"><g stroke="#e1e8f7" stroke-opacity=".5"><circle cx="512" cy="512" opacity=".041667" r="493.598"/><circle cx="512" cy="512" opacity=".083333" r="475.696"/><circle cx="512" cy="512" opacity=".125" r="457.794"/><circle cx="512" cy="512" opacity=".166667" r="439.892"/><circle cx="512" cy="512" opacity=".208333" r="421.99"/><circle cx="512" cy="512" opacity=".25" r="404.087"/><circle cx="512" cy="512" opacity=".291667" r="386.185"/><circle cx="512" cy="512" opacity=".333333" r="368.283"/><circle cx="512" cy="512" opacity=".375" r="350.381"/><circle cx="512" cy="512" opacity=".416667" r="332.479"/><circle cx="512" cy="512" opacity=".458333" r="314.577"/><circle cx="512" cy="512" opacity=".5" r="296.675"/><circle cx="512" cy="512" opacity=".541667" r="278.773"/><circle cx="512" cy="512" opacity=".583333" r="260.871"/><circle cx="512" cy="512" opacity=".625" r="242.969"/><circle cx="512" cy="512" opacity=".666667" r="225.066"/><circle cx="512" cy="512" opacity=".708333" r="207.164"/><circle cx="512" cy="512" opacity=".75" r="189.262"/><circle cx="512" cy="512" opacity=".791667" r="171.36"/><circle cx="512" cy="512" opacity=".833333" r="153.458"/><circle cx="512" cy="512" opacity=".875" r="135.556"/><circle cx="512" cy="512" opacity=".916667" r="117.654"/><circle cx="512" cy="512" opacity=".958333" r="99.7517"/><circle cx="512" cy="512" r="81.8496"/></g></svg>