<svg fill="none" height="111" viewBox="0 0 111 111" width="111" xmlns="http://www.w3.org/2000/svg" xmlns:xlink="http://www.w3.org/1999/xlink"><clipPath id="a"><path d="m0 0h90v90h-90z" transform="matrix(.96592583 .25881905 -.25881905 .96592583 23.2937 0)"/></clipPath><g clip-path="url(#a)"><path d="m24.6759 23.8193s2.1055-7.278 9.2775-5.3563 57.8831 15.5097 57.8831 15.5097 7.2082 1.9315 5.2767 9.1397l-11.6371 43.4304s-1.9363 7.2264-9.1626 5.2901c0 0-57.9326-15.5424-57.9375-15.5243-.0048.0181-7.2381-1.9356-5.2989-9.1728z" fill="#ffb74d"/><path d="m97.1132 43.1124-41.0291 8.3789-31.3331-27.8072c.3177-1.0407 2.6461-6.9778 9.2024-5.2211 3.5497.9512 57.8831 15.5097 57.8831 15.5097s7.2082 1.9315 5.2767 9.1397zm-42.9702 15.6233-31.3694-27.8168-9.7057 36.2222c-1.9412 7.2444 5.3033 9.1856 5.3033 9.1856.0097-.0362 57.9555 15.5291 57.9555 15.5291 7.2083 1.9315 9.1494-5.313 9.1494-5.313l9.696-36.186z" fill="#fff" opacity=".4"/></g></svg>