<svg xmlns="http://www.w3.org/2000/svg" width="876" height="1055" fill="none" xmlns:v="https://vecta.io/nano"><style><![CDATA[.B{stroke-opacity:.8}]]></style><g stroke="#e1e8f7" class="B"><circle opacity=".042" cx="362.777" cy="342.273" r="247" transform="rotate(245 362.777 342.273)"/><circle opacity=".083" cx="385.988" cy="348.959" r="247" transform="rotate(250 385.988 348.959)"/><circle opacity=".125" cx="408.073" cy="358.058" r="247" transform="rotate(255 408.073 358.058)"/><circle opacity=".167" cx="428.826" cy="369.465" r="247" transform="rotate(260 428.826 369.465)"/><circle opacity=".208" cx="448.051" cy="383.053" r="247" transform="rotate(265 448.051 383.053)"/><circle opacity=".25" cx="465.564" cy="398.683" r="247" transform="rotate(270 465.564 398.683)"/><circle opacity=".292" cx="481.193" cy="416.195" r="247" transform="rotate(275 481.193 416.195)"/><circle opacity=".333" cx="494.782" cy="435.421" r="247" transform="rotate(280 494.782 435.421)"/><circle opacity=".375" cx="506.188" cy="456.174" r="247" transform="rotate(285 506.188 456.174)"/><circle opacity=".417" cx="515.288" cy="478.259" r="247" transform="rotate(290 515.288 478.259)"/><circle opacity=".458" cx="521.973" cy="501.469" r="247" transform="rotate(295 521.973 501.469)"/><circle opacity=".5" cx="526.155" cy="525.591" r="247" transform="rotate(300 526.155 525.591)"/><circle opacity=".542" cx="527.764" cy="550.403" r="247" transform="rotate(305 527.764 550.403)"/><circle opacity=".583" cx="526.75" cy="575.677" r="247" transform="rotate(310 526.75 575.677)"/><circle opacity=".625" cx="523.082" cy="601.182" r="247" transform="rotate(315 523.082 601.182)"/><circle opacity=".667" cx="516.75" cy="626.689" r="247" transform="rotate(320 516.75 626.689)"/><circle opacity=".708" cx="507.764" cy="651.962" r="247" transform="rotate(325 507.764 651.962)"/><circle opacity=".75" cx="496.155" cy="676.774" r="247" transform="rotate(330 496.155 676.774)"/><circle opacity=".792" cx="481.973" cy="700.896" r="247" transform="rotate(335 481.973 700.896)"/><circle opacity=".833" cx="465.288" cy="724.107" r="247" transform="rotate(340 465.288 724.107)"/><circle opacity=".875" cx="446.188" cy="746.192" r="247" transform="rotate(345 446.188 746.192)"/><circle opacity=".917" cx="424.782" cy="766.945" r="247" transform="rotate(350 424.782 766.945)"/><circle opacity=".958" cx="401.193" cy="786.17" r="247" transform="rotate(355 401.193 786.17)"/><circle cx="375.564" cy="803.683" r="247"/></g></svg>