<svg xmlns="http://www.w3.org/2000/svg" width="876" height="1055" fill="none" xmlns:v="https://vecta.io/nano"><style><![CDATA[.B{stroke-opacity:.8}]]></style><g stroke="#e1e8f7" class="B"><circle opacity=".042" cx="513.223" cy="712.026" r="247" transform="rotate(65 513.223 712.026)"/><circle opacity=".083" cx="490.012" cy="705.341" r="247" transform="rotate(70 490.012 705.341)"/><circle opacity=".125" cx="467.927" cy="696.241" r="247" transform="rotate(75 467.927 696.241)"/><circle opacity=".167" cx="447.174" cy="684.834" r="247" transform="rotate(80 447.174 684.834)"/><circle opacity=".208" cx="427.949" cy="671.246" r="247" transform="rotate(85 427.949 671.246)"/><circle opacity=".25" cx="410.436" cy="655.616" r="247" transform="rotate(90 410.436 655.616)"/><circle opacity=".292" cx="394.807" cy="638.104" r="247" transform="rotate(95 394.807 638.104)"/><circle opacity=".333" cx="381.218" cy="618.878" r="247" transform="rotate(100 381.218 618.878)"/><circle opacity=".375" cx="369.812" cy="598.125" r="247" transform="rotate(105 369.812 598.125)"/><circle opacity=".417" cx="360.712" cy="576.04" r="247" transform="rotate(110 360.712 576.04)"/><circle opacity=".458" cx="354.027" cy="552.83" r="247" transform="rotate(115 354.027 552.83)"/><circle opacity=".5" cx="349.845" cy="528.708" r="247" transform="rotate(120 349.845 528.708)"/><circle opacity=".542" cx="348.236" cy="503.896" r="247" transform="rotate(125 348.236 503.896)"/><circle opacity=".583" cx="349.25" cy="478.623" r="247" transform="rotate(130 349.25 478.623)"/><circle opacity=".625" cx="352.918" cy="453.117" r="247" transform="rotate(135 352.918 453.117)"/><circle opacity=".667" cx="359.25" cy="427.611" r="247" transform="rotate(140 359.25 427.611)"/><circle opacity=".708" cx="368.236" cy="402.337" r="247" transform="rotate(145 368.236 402.337)"/><circle opacity=".75" cx="379.845" cy="377.525" r="247" transform="rotate(150 379.845 377.525)"/><circle opacity=".792" cx="394.027" cy="353.404" r="247" transform="rotate(155 394.027 353.404)"/><circle opacity=".833" cx="410.712" cy="330.193" r="247" transform="rotate(160 410.712 330.193)"/><circle opacity=".875" cx="429.812" cy="308.108" r="247" transform="rotate(165 429.812 308.108)"/><circle opacity=".917" cx="451.218" cy="287.354" r="247" transform="rotate(170 451.218 287.354)"/><circle opacity=".958" cx="474.807" cy="268.129" r="247" transform="rotate(175 474.807 268.129)"/><circle cx="500.436" cy="250.616" r="247" transform="rotate(180 500.436 250.616)"/></g></svg>