<svg fill="none" height="109" viewBox="0 0 109 109" width="109" xmlns="http://www.w3.org/2000/svg" xmlns:xlink="http://www.w3.org/1999/xlink"><clipPath id="a"><path d="m0 0h90v90h-90z" transform="matrix(.97365895 -.22800931 .22800931 .97365895 0 20.521)"/></clipPath><g clip-path="url(#a)"><path d="m92.2974 52.8275 6.8402 29.2097-62.0708 14.5356c-6.0391 1.4142-12.1045-2.3494-13.5187-8.3886l-5.1302-21.9073c-1.4142-6.0391 2.3494-12.1045 8.3885-13.5188l58.4196-13.6805 3.4201 14.6049z" fill="#6d4c41"/><path d="m28.5165 60.0605 18.2561-4.2752 40.1634-9.4053 1.7101 7.3024-58.4196 13.6805c-2.0118.4712-4.0351-.7843-4.5062-2.7962-.4712-2.0118.7843-4.0351 2.7962-4.5062z" fill="#000" opacity=".2"/><path d="m67.9404 39.2739c-7.0468 1.6503-14.1217-2.7398-15.7719-9.7866-1.6502-7.0469 2.7398-14.1217 9.7867-15.7719 7.0468-1.6502 14.1217 2.7398 15.7719 9.7867 1.6502 7.0468-2.7398 14.1216-9.7867 15.7718z" fill="#fbc02d"/><path d="m28.7027 60.0168c-.2288-.5819-.4676-1.1576-.6138-1.782-1.6502-7.0468 2.7398-14.1216 9.7867-15.7718 7.0468-1.6503 14.1217 2.7398 15.7719 9.7866.1462.6244.1878 1.2463.2413 1.8692z" fill="#fbc02d"/><path d="m66.2303 31.9715c-3.0232.7079-6.0514-1.1711-6.7593-4.1943-.708-3.0232 1.171-6.0514 4.1942-6.7594 3.0233-.708 6.0515 1.1711 6.7594 4.1943.708 3.0232-1.171 6.0514-4.1943 6.7594zm-19.7936 23.8925c.0702-.6212.0588-1.2617-.0917-1.9043-.7079-3.0232-3.7361-4.9023-6.7593-4.1943s-4.9023 3.7362-4.1943 6.7594c.1505.6426.4247 1.2216.7634 1.7469z" fill="#000" opacity=".2"/></g></svg>