<svg width="815" height="316" viewBox="0 0 815 316" fill="none" xmlns="http://www.w3.org/2000/svg">
<mask id="mask0_5218_20404" style="mask-type:alpha" maskUnits="userSpaceOnUse" x="0" y="0" width="271" height="200">
<rect width="271" height="200" fill="#D9D9D9"/>
</mask>
<g mask="url(#mask0_5218_20404)">
<path d="M121.619 68.3466C121.619 95.6612 99.4165 117.808 72.0234 117.808C44.6302 117.808 22.4282 95.6612 22.4282 68.3466C22.4282 41.0321 44.6302 18.8848 72.0234 18.8848C99.4165 18.8848 121.619 41.0321 121.619 68.3466Z" stroke="#E1E8F7" stroke-opacity="0.6" stroke-width="2"/>
<path d="M133.762 68.3471C133.762 102.35 106.123 129.92 72.0237 129.92C37.9242 129.92 10.2856 102.35 10.2856 68.3471C10.2856 34.3439 37.9242 6.77441 72.0237 6.77441C106.123 6.77441 133.762 34.3439 133.762 68.3471Z" stroke="#E1E8F7" stroke-opacity="0.6" stroke-width="2"/>
<path d="M145.904 68.3461C145.904 109.038 112.829 142.03 72.0234 142.03C31.2177 142.03 -1.85742 109.038 -1.85742 68.3461C-1.85742 27.6543 31.2177 -5.3374 72.0234 -5.3374C112.829 -5.3374 145.904 27.6543 145.904 68.3461Z" stroke="#E1E8F7" stroke-opacity="0.6" stroke-width="2"/>
<path d="M158.047 68.3466C158.047 115.727 119.535 154.141 72.0232 154.141C24.5111 154.141 -14.0005 115.727 -14.0005 68.3466C-14.0005 20.9662 24.5111 -17.4478 72.0232 -17.4478C119.535 -17.4478 158.047 20.9662 158.047 68.3466Z" stroke="#E1E8F7" stroke-opacity="0.6" stroke-width="2"/>
<path d="M170.19 68.3459C170.19 122.415 126.241 166.251 72.023 166.251C17.8046 166.251 -26.1436 122.415 -26.1436 68.3459C-26.1436 14.2768 17.8046 -29.5593 72.023 -29.5593C126.241 -29.5593 170.19 14.2768 170.19 68.3459Z" stroke="#E1E8F7" stroke-opacity="0.6" stroke-width="2"/>
<path d="M182.333 68.3461C182.333 129.104 132.948 178.362 72.0235 178.362C11.0988 178.362 -38.2859 129.104 -38.2859 68.3461C-38.2859 7.58843 11.0988 -41.6699 72.0235 -41.6699C132.948 -41.6699 182.333 7.58843 182.333 68.3461Z" stroke="#E1E8F7" stroke-opacity="0.6" stroke-width="2"/>
<path d="M194.475 68.3454C194.475 135.792 139.654 190.472 72.0233 190.472C4.39228 190.472 -50.429 135.792 -50.429 68.3454C-50.429 0.899075 4.39228 -53.7815 72.0233 -53.7815C139.654 -53.7815 194.475 0.899075 194.475 68.3454Z" stroke="#E1E8F7" stroke-opacity="0.6" stroke-width="2"/>
<path d="M206.618 68.3471C206.618 142.482 146.36 202.585 72.023 202.585C-2.31425 202.585 -62.572 142.482 -62.572 68.3471C-62.572 -5.78785 -2.31425 -65.8906 72.023 -65.8906C146.36 -65.8906 206.618 -5.78785 206.618 68.3471Z" stroke="#E1E8F7" stroke-opacity="0.6" stroke-width="2"/>
<path d="M218.761 68.3462C218.761 149.17 153.066 214.695 72.0228 214.695C-9.02078 214.695 -74.7151 149.17 -74.7151 68.3462C-74.7151 -12.4775 -9.02078 -78.0024 72.0228 -78.0024C153.066 -78.0024 218.761 -12.4775 218.761 68.3462Z" stroke="#E1E8F7" stroke-opacity="0.6" stroke-width="2"/>
<path d="M230.905 68.3466C230.905 155.859 159.774 226.806 72.0238 226.806C-15.7261 226.806 -86.8569 155.859 -86.8569 68.3466C-86.8569 -19.1656 -15.7261 -90.1128 72.0238 -90.1128C159.774 -90.1128 230.905 -19.1656 230.905 68.3466Z" stroke="#E1E8F7" stroke-opacity="0.6" stroke-width="2"/>
<path d="M243.047 68.3457C243.047 162.547 166.48 238.916 72.0236 238.916C-22.4326 238.916 -99 162.547 -99 68.3457C-99 -25.8552 -22.4326 -102.225 72.0236 -102.225C166.48 -102.225 243.047 -25.8552 243.047 68.3457Z" stroke="#E1E8F7" stroke-opacity="0.6" stroke-width="2"/>
<path d="M255.19 68.3462C255.19 169.236 173.186 251.027 72.0233 251.027C-29.1392 251.027 -111.143 169.236 -111.143 68.3462C-111.143 -32.5434 -29.1392 -114.335 72.0233 -114.335C173.186 -114.335 255.19 -32.5434 255.19 68.3462Z" stroke="#E1E8F7" stroke-opacity="0.6" stroke-width="2"/>
<path d="M267.333 68.3454C267.333 175.924 179.892 263.137 72.0236 263.137C-35.8452 263.137 -123.286 175.924 -123.286 68.3454C-123.286 -39.2327 -35.8452 -126.447 72.0236 -126.447C179.892 -126.447 267.333 -39.2327 267.333 68.3454Z" stroke="#E1E8F7" stroke-opacity="0.6" stroke-width="2"/>
<path d="M279.476 68.3457C279.476 182.612 186.599 275.249 72.0236 275.249C-42.5515 275.249 -135.428 182.612 -135.428 68.3457C-135.428 -45.9211 -42.5515 -138.557 72.0236 -138.557C186.599 -138.557 279.476 -45.9211 279.476 68.3457Z" stroke="#E1E8F7" stroke-opacity="0.6" stroke-width="2"/>
<path d="M291.618 68.345C291.618 189.3 193.305 287.359 72.0234 287.359C-49.258 287.359 -147.572 189.3 -147.572 68.345C-147.572 -52.6105 -49.258 -150.669 72.0234 -150.669C193.305 -150.669 291.618 -52.6105 291.618 68.345Z" stroke="#E1E8F7" stroke-opacity="0.6" stroke-width="2"/>
<path d="M303.761 68.3467C303.761 195.991 200.011 299.471 72.0237 299.471C-55.9641 299.471 -159.714 195.991 -159.714 68.3467C-159.714 -59.2974 -55.9641 -162.778 72.0237 -162.778C200.011 -162.778 303.761 -59.2974 303.761 68.3467Z" stroke="#E1E8F7" stroke-opacity="0.6" stroke-width="2"/>
<path d="M315.904 68.3457C315.904 202.678 206.717 311.581 72.0235 311.581C-62.6706 311.581 -171.857 202.678 -171.857 68.3457C-171.857 -65.987 -62.6706 -174.89 72.0235 -174.89C206.717 -174.89 315.904 -65.987 315.904 68.3457Z" stroke="#E1E8F7" stroke-opacity="0.6" stroke-width="2"/>
<path d="M328.047 68.3462C328.047 209.368 213.424 323.692 72.0234 323.692C-69.3769 323.692 -184 209.368 -184 68.3462C-184 -72.6751 -69.3769 -187 72.0234 -187C213.424 -187 328.047 -72.6751 328.047 68.3462Z" stroke="#E1E8F7" stroke-opacity="0.6" stroke-width="2"/>
</g>
<mask id="mask1_5218_20404" style="mask-type:alpha" maskUnits="userSpaceOnUse" x="271" y="0" width="279" height="200">
<rect x="271" width="279" height="200" fill="#D9D9D9"/>
</mask>
<g mask="url(#mask1_5218_20404)">
<path d="M446.922 -33.5669C446.922 -4.50349 423.299 19.0615 394.152 19.0615C365.006 19.0615 341.382 -4.50349 341.382 -33.5669C341.382 -62.6303 365.006 -86.1953 394.152 -86.1953C423.299 -86.1953 446.922 -62.6303 446.922 -33.5669Z" stroke="#E1E8F7" stroke-opacity="0.6" stroke-width="2"/>
<path d="M459.827 -33.5667C459.827 2.60509 430.426 31.9326 394.152 31.9326C357.879 31.9326 328.478 2.60509 328.478 -33.5667C328.478 -69.7384 357.879 -99.0659 394.152 -99.0659C430.426 -99.0659 459.827 -69.7384 459.827 -33.5667Z" stroke="#E1E8F7" stroke-opacity="0.6" stroke-width="2"/>
<path d="M472.732 -33.5674C472.732 9.71269 437.553 44.8027 394.152 44.8027C350.751 44.8027 315.573 9.71269 315.573 -33.5674C315.573 -76.8475 350.751 -111.938 394.152 -111.938C437.553 -111.938 472.732 -76.8475 472.732 -33.5674Z" stroke="#E1E8F7" stroke-opacity="0.6" stroke-width="2"/>
<path d="M485.637 -33.567C485.637 16.8215 444.68 57.6739 394.152 57.6739C343.624 57.6739 302.667 16.8215 302.667 -33.567C302.667 -83.9554 343.624 -124.808 394.152 -124.808C444.68 -124.808 485.637 -83.9554 485.637 -33.567Z" stroke="#E1E8F7" stroke-opacity="0.6" stroke-width="2"/>
<path d="M498.541 -33.568C498.541 23.9289 451.807 70.5438 394.152 70.5438C336.497 70.5438 289.762 23.9289 289.762 -33.568C289.762 -91.0648 336.497 -137.68 394.152 -137.68C451.807 -137.68 498.541 -91.0648 498.541 -33.568Z" stroke="#E1E8F7" stroke-opacity="0.6" stroke-width="2"/>
<path d="M511.447 -33.5675C511.447 31.0377 458.935 83.415 394.152 83.415C329.37 83.415 276.858 31.0377 276.858 -33.5675C276.858 -98.1727 329.37 -150.55 394.152 -150.55C458.935 -150.55 511.447 -98.1727 511.447 -33.5675Z" stroke="#E1E8F7" stroke-opacity="0.6" stroke-width="2"/>
<path d="M524.351 -33.5683C524.351 38.1453 466.062 96.2851 394.152 96.2851C322.243 96.2851 263.953 38.1453 263.953 -33.5683C263.953 -105.282 322.243 -163.422 394.152 -163.422C466.062 -163.422 524.351 -105.282 524.351 -33.5683Z" stroke="#E1E8F7" stroke-opacity="0.6" stroke-width="2"/>
<path d="M537.256 -33.5666C537.256 45.2553 473.188 109.158 394.152 109.158C315.115 109.158 251.048 45.2553 251.048 -33.5666C251.048 -112.388 315.115 -176.291 394.152 -176.291C473.188 -176.291 537.256 -112.388 537.256 -33.5666Z" stroke="#E1E8F7" stroke-opacity="0.6" stroke-width="2"/>
<path d="M550.16 -33.5673C550.16 52.3629 480.315 122.028 394.152 122.028C307.988 122.028 238.143 52.3629 238.143 -33.5673C238.143 -119.498 307.988 -189.162 394.152 -189.162C480.315 -189.162 550.16 -119.498 550.16 -33.5673Z" stroke="#E1E8F7" stroke-opacity="0.6" stroke-width="2"/>
<path d="M563.066 -33.5669C563.066 59.4717 487.444 134.899 394.153 134.899C300.862 134.899 225.239 59.4717 225.239 -33.5669C225.239 -126.606 300.862 -202.033 394.153 -202.033C487.444 -202.033 563.066 -126.606 563.066 -33.5669Z" stroke="#E1E8F7" stroke-opacity="0.6" stroke-width="2"/>
<path d="M575.971 -33.5679C575.971 66.5791 494.571 147.769 394.153 147.769C293.735 147.769 212.334 66.5791 212.334 -33.5679C212.334 -133.715 293.735 -214.905 394.153 -214.905C494.571 -214.905 575.971 -133.715 575.971 -33.5679Z" stroke="#E1E8F7" stroke-opacity="0.6" stroke-width="2"/>
<path d="M588.876 -33.5674C588.876 73.6879 501.698 160.64 394.152 160.64C286.607 160.64 199.429 73.6879 199.429 -33.5674C199.429 -140.823 286.607 -227.775 394.152 -227.775C501.698 -227.775 588.876 -140.823 588.876 -33.5674Z" stroke="#E1E8F7" stroke-opacity="0.6" stroke-width="2"/>
<path d="M601.781 -33.5682C601.781 80.7956 508.825 173.51 394.153 173.51C279.48 173.51 186.525 80.7956 186.525 -33.5682C186.525 -147.932 279.48 -240.646 394.153 -240.646C508.825 -240.646 601.781 -147.932 601.781 -33.5682Z" stroke="#E1E8F7" stroke-opacity="0.6" stroke-width="2"/>
<path d="M614.685 -33.5679C614.685 87.9041 515.952 186.381 394.153 186.381C272.353 186.381 173.62 87.9041 173.62 -33.5679C173.62 -155.04 272.353 -253.517 394.153 -253.517C515.952 -253.517 614.685 -155.04 614.685 -33.5679Z" stroke="#E1E8F7" stroke-opacity="0.6" stroke-width="2"/>
<path d="M627.59 -33.5687C627.59 95.0117 523.079 199.251 394.152 199.251C265.226 199.251 160.715 95.0117 160.715 -33.5687C160.715 -162.149 265.226 -266.389 394.152 -266.389C523.079 -266.389 627.59 -162.149 627.59 -33.5687Z" stroke="#E1E8F7" stroke-opacity="0.6" stroke-width="2"/>
<path d="M640.495 -33.567C640.495 102.122 530.206 212.124 394.152 212.124C258.098 212.124 147.81 102.122 147.81 -33.567C147.81 -169.256 258.098 -279.258 394.152 -279.258C530.206 -279.258 640.495 -169.256 640.495 -33.567Z" stroke="#E1E8F7" stroke-opacity="0.6" stroke-width="2"/>
<path d="M653.4 -33.5678C653.4 109.229 537.333 224.994 394.152 224.994C250.972 224.994 134.905 109.229 134.905 -33.5678C134.905 -176.365 250.972 -292.129 394.152 -292.129C537.333 -292.129 653.4 -176.365 653.4 -33.5678Z" stroke="#E1E8F7" stroke-opacity="0.6" stroke-width="2"/>
<path d="M666.304 -33.5676C666.304 116.338 544.46 237.865 394.152 237.865C243.844 237.865 122 116.338 122 -33.5676C122 -183.473 243.844 -305 394.152 -305C544.46 -305 666.304 -183.473 666.304 -33.5676Z" stroke="#E1E8F7" stroke-opacity="0.6" stroke-width="2"/>
</g>
<mask id="mask2_5218_20404" style="mask-type:alpha" maskUnits="userSpaceOnUse" x="550" y="0" width="262" height="200">
<rect x="550" width="262" height="200" fill="#D9D9D9"/>
</mask>
<g mask="url(#mask2_5218_20404)">
<path d="M758.922 124.433C758.922 153.497 735.299 177.062 706.152 177.062C677.006 177.062 653.382 153.497 653.382 124.433C653.382 95.3697 677.006 71.8047 706.152 71.8047C735.299 71.8047 758.922 95.3697 758.922 124.433Z" stroke="#E1E8F7" stroke-opacity="0.6" stroke-width="2"/>
<path d="M771.827 124.433C771.827 160.605 742.426 189.933 706.152 189.933C669.879 189.933 640.478 160.605 640.478 124.433C640.478 88.2616 669.879 58.9341 706.152 58.9341C742.426 58.9341 771.827 88.2616 771.827 124.433Z" stroke="#E1E8F7" stroke-opacity="0.6" stroke-width="2"/>
<path d="M784.732 124.433C784.732 167.713 749.553 202.803 706.152 202.803C662.751 202.803 627.573 167.713 627.573 124.433C627.573 81.1525 662.751 46.0625 706.152 46.0625C749.553 46.0625 784.732 81.1525 784.732 124.433Z" stroke="#E1E8F7" stroke-opacity="0.6" stroke-width="2"/>
<path d="M797.637 124.433C797.637 174.822 756.68 215.674 706.152 215.674C655.624 215.674 614.667 174.822 614.667 124.433C614.667 74.0446 655.624 33.1921 706.152 33.1921C756.68 33.1921 797.637 74.0446 797.637 124.433Z" stroke="#E1E8F7" stroke-opacity="0.6" stroke-width="2"/>
<path d="M810.541 124.432C810.541 181.929 763.807 228.544 706.152 228.544C648.497 228.544 601.762 181.929 601.762 124.432C601.762 66.9352 648.497 20.3203 706.152 20.3203C763.807 20.3203 810.541 66.9352 810.541 124.432Z" stroke="#E1E8F7" stroke-opacity="0.6" stroke-width="2"/>
<path d="M823.447 124.432C823.447 189.038 770.935 241.415 706.152 241.415C641.37 241.415 588.858 189.038 588.858 124.432C588.858 59.8273 641.37 7.44995 706.152 7.44995C770.935 7.44995 823.447 59.8273 823.447 124.432Z" stroke="#E1E8F7" stroke-opacity="0.6" stroke-width="2"/>
<path d="M836.351 124.432C836.351 196.145 778.062 254.285 706.152 254.285C634.243 254.285 575.953 196.145 575.953 124.432C575.953 52.7182 634.243 -5.42163 706.152 -5.42163C778.062 -5.42163 836.351 52.7182 836.351 124.432Z" stroke="#E1E8F7" stroke-opacity="0.6" stroke-width="2"/>
<path d="M849.256 124.433C849.256 203.255 785.188 267.158 706.152 267.158C627.115 267.158 563.048 203.255 563.048 124.433C563.048 45.6115 627.115 -18.2908 706.152 -18.2908C785.188 -18.2908 849.256 45.6115 849.256 124.433Z" stroke="#E1E8F7" stroke-opacity="0.6" stroke-width="2"/>
<path d="M862.16 124.433C862.16 210.363 792.315 280.028 706.152 280.028C619.988 280.028 550.143 210.363 550.143 124.433C550.143 38.5024 619.988 -31.1624 706.152 -31.1624C792.315 -31.1624 862.16 38.5024 862.16 124.433Z" stroke="#E1E8F7" stroke-opacity="0.6" stroke-width="2"/>
<path d="M875.066 124.433C875.066 217.472 799.444 292.899 706.153 292.899C612.862 292.899 537.239 217.472 537.239 124.433C537.239 31.3945 612.862 -44.0327 706.153 -44.0327C799.444 -44.0327 875.066 31.3945 875.066 124.433Z" stroke="#E1E8F7" stroke-opacity="0.6" stroke-width="2"/>
<path d="M887.971 124.432C887.971 224.579 806.571 305.769 706.153 305.769C605.735 305.769 524.334 224.579 524.334 124.432C524.334 24.2851 605.735 -56.9045 706.153 -56.9045C806.571 -56.9045 887.971 24.2851 887.971 124.432Z" stroke="#E1E8F7" stroke-opacity="0.6" stroke-width="2"/>
<path d="M900.876 124.433C900.876 231.688 813.698 318.64 706.152 318.64C598.607 318.64 511.429 231.688 511.429 124.433C511.429 17.1772 598.607 -69.7749 706.152 -69.7749C813.698 -69.7749 900.876 17.1772 900.876 124.433Z" stroke="#E1E8F7" stroke-opacity="0.6" stroke-width="2"/>
<path d="M913.781 124.432C913.781 238.796 820.825 331.51 706.153 331.51C591.48 331.51 498.525 238.796 498.525 124.432C498.525 10.0681 591.48 -82.6465 706.153 -82.6465C820.825 -82.6465 913.781 10.0681 913.781 124.432Z" stroke="#E1E8F7" stroke-opacity="0.6" stroke-width="2"/>
<path d="M926.685 124.432C926.685 245.904 827.952 344.381 706.153 344.381C584.353 344.381 485.62 245.904 485.62 124.432C485.62 2.95998 584.353 -95.5171 706.153 -95.5171C827.952 -95.5171 926.685 2.95998 926.685 124.432Z" stroke="#E1E8F7" stroke-opacity="0.6" stroke-width="2"/>
<path d="M939.59 124.431C939.59 253.012 835.079 357.251 706.152 357.251C577.226 357.251 472.715 253.012 472.715 124.431C472.715 -4.14914 577.226 -108.389 706.152 -108.389C835.079 -108.389 939.59 -4.14914 939.59 124.431Z" stroke="#E1E8F7" stroke-opacity="0.6" stroke-width="2"/>
<path d="M952.495 124.433C952.495 260.122 842.206 370.124 706.152 370.124C570.098 370.124 459.81 260.122 459.81 124.433C459.81 -11.2558 570.098 -121.258 706.152 -121.258C842.206 -121.258 952.495 -11.2558 952.495 124.433Z" stroke="#E1E8F7" stroke-opacity="0.6" stroke-width="2"/>
<path d="M965.4 124.432C965.4 267.229 849.333 382.994 706.152 382.994C562.972 382.994 446.905 267.229 446.905 124.432C446.905 -18.3649 562.972 -134.129 706.152 -134.129C849.333 -134.129 965.4 -18.3649 965.4 124.432Z" stroke="#E1E8F7" stroke-opacity="0.6" stroke-width="2"/>
<path d="M978.304 124.432C978.304 274.338 856.46 395.865 706.152 395.865C555.844 395.865 434 274.338 434 124.432C434 -25.4731 555.844 -147 706.152 -147C856.46 -147 978.304 -25.4731 978.304 124.432Z" stroke="#E1E8F7" stroke-opacity="0.6" stroke-width="2"/>
</g>
</svg>
