<svg fill="none" height="2113" viewBox="0 0 2112 2113" width="2112" xmlns="http://www.w3.org/2000/svg"><g fill="#3d3d3d" font-family="sans-serif" font-size="96" letter-spacing=".15"><text transform="matrix(-.07322775 .99731524 -.99731524 -.07322775 2112 1057.33)"><tspan x="0" y="101.073">H</tspan></text><text transform="matrix(-.13443068 .990923 -.990923 -.13443068 2107.85 1137.62)"><tspan x="0" y="101.073">E</tspan></text><text transform="matrix(-.19111737 .98156719 -.98156719 -.19111737 2100.37 1203.42)"><tspan x="0" y="101.073">L</tspan></text><text transform="matrix(-.24688062 .9690459 -.9690459 -.24688062 2090.33 1262.51)"><tspan x="0" y="101.073">L</tspan></text><text transform="matrix(-.33719385 .94143524 -.94143524 -.33719385 2078.32 1325.26)"><tspan x="0" y="101.073">O</tspan></text><text transform="matrix(-.43700588 .89945865 -.89945865 -.43700588 2037.74 1445.14)"><tspan x="0" y="101.073">N</tspan></text><text transform="matrix(-.49268178 .87020955 -.87020955 -.49268178 2003.45 1519.78)"><tspan x="0" y="101.073">E</tspan></text><text transform="matrix(-.5793523 .81507724 -.81507724 -.5793523 1974.26 1581.29)"><tspan x="0" y="101.073">W</tspan></text><text transform="matrix(-.68360504 .72985214 -.72985214 -.68360504 1895.35 1699.61)"><tspan x="0" y="101.073">W</tspan></text><text transform="matrix(-.7470096 .66481325 -.66481325 -.7470096 1823.39 1782)"><tspan x="0" y="101.073">O</tspan></text><text transform="matrix(-.78893396 .61447799 -.61447799 -.78893396 1753.87 1846.5)"><tspan x="0" y="101.073">R</tspan></text><text transform="matrix(-.8213882 .57036956 -.57036956 -.8213882 1700.82 1889.56)"><tspan x="0" y="101.073">L</tspan></text><text transform="matrix(-.86285792 .50544655 -.50544655 -.86285792 1652.43 1926.37)"><tspan x="0" y="101.073">D</tspan></text><text transform="matrix(-.91205571 .4100663 -.4100663 -.91205571 1554.93 1985.62)"><tspan x="0" y="101.073">H</tspan></text><text transform="matrix(-.93626203 .35130246 -.35130246 -.93626203 1481.85 2020.3)"><tspan x="0" y="101.073">E</tspan></text><text transform="matrix(-.95459976 .29789141 -.29789141 -.95459976 1421.26 2044.46)"><tspan x="0" y="101.073">L</tspan></text><text transform="matrix(-.96997822 .2431918 -.2431918 -.96997822 1364.89 2063.45)"><tspan x="0" y="101.073">L</tspan></text><text transform="matrix(-.98816153 .15341702 -.15341702 -.98816153 1305.64 2082.02)"><tspan x="0" y="101.073">O</tspan></text><text transform="matrix(-.99892818 .04628704 -.04628704 -.99892818 1180.73 2103.34)"><tspan x="0" y="101.073">N</tspan></text><text transform="matrix(-.9998137 -.01930214 .01930214 -.9998137 1094.97 2108.89)"><tspan x="0" y="101.073">E</tspan></text><text transform="matrix(-.99240511 -.12301259 .12301259 -.99240511 1026.22 2112.35)"><tspan x="0" y="101.073">W</tspan></text><text transform="matrix(-.97180072 -.23580365 .23580365 -.97180072 887.031 2097.61)"><tspan x="0" y="101.073">C</tspan></text><text transform="matrix(-.95459976 -.29789141 .29789141 -.95459976 802.518 2079.04)"><tspan x="0" y="101.073">R</tspan></text><text transform="matrix(-.92245051 -.38611535 .38611535 -.92245051 733.186 2061.4)"><tspan x="0" y="101.073">O</tspan></text><text transform="matrix(-.89619238 -.44366567 .44366567 -.89619238 645.266 2026.55)"><tspan x="0" y="101.073">S</tspan></text><text transform="matrix(-.86655724 -.4990777 .4990777 -.86655724 584.726 1998.55)"><tspan x="0" y="101.073">S</tspan></text><text transform="matrix(-.83168287 -.55525093 .55525093 -.83168287 526.003 1966.96)"><tspan x="0" y="101.073">B</tspan></text><text transform="matrix(-.79560038 -.60582178 .60582178 -.79560038 465.845 1928.72)"><tspan x="0" y="101.073">E</tspan></text><text transform="matrix(-.75896455 -.65113194 .65113194 -.75896455 412.727 1890.01)"><tspan x="0" y="101.073">L</tspan></text><text transform="matrix(-.72235189 -.69152566 .69152566 -.72235189 367.219 1852.74)"><tspan x="0" y="101.073">L</tspan></text><text transform="matrix(-.64280098 -.76603322 .76603322 -.64280098 298.771 1790.02)"><tspan x="0" y="101.073">H</tspan></text><text transform="matrix(-.5941351 -.80436527 .80436527 -.5941351 245.588 1729.39)"><tspan x="0" y="101.073">E</tspan></text><text transform="matrix(-.54913951 -.8357307 .8357307 -.54913951 206.141 1678.37)"><tspan x="0" y="101.073">L</tspan></text><text transform="matrix(-.50226553 -.86471344 .86471344 -.50226553 172.781 1630.13)"><tspan x="0" y="101.073">L</tspan></text><text transform="matrix(-.42022827 -.90741843 .90741843 -.42022827 138.287 1578.26)"><tspan x="0" y="101.073">O</tspan></text><text transform="matrix(-.31942244 -.94761242 .94761242 -.31942244 83.1982 1464.47)"><tspan x="0" y="101.073">N</tspan></text><text transform="matrix(-.2578917 -.96617383 .96617383 -.2578917 55.0259 1386.44)"><tspan x="0" y="101.073">E</tspan></text><text transform="matrix(-.15719808 -.98756709 .98756709 -.15719808 32.9741 1323.19)"><tspan x="0" y="101.073">W</tspan></text><text transform="matrix(-.0231567 -.99973185 .99973185 -.0231567 6.3833 1182.95)"><tspan x="0" y="101.073">W</tspan></text><text transform="matrix(.06938388 -.99759003 .99759003 .06938388 0 1071.36)"><tspan x="0" y="101.073">O</tspan></text><text transform="matrix(.13443068 -.990923 .990923 .13443068 4.55322 976.992)"><tspan x="0" y="101.073">R</tspan></text><text transform="matrix(.19111223 -.98156819 .98156819 .19111223 12.4536 907.755)"><tspan x="0" y="101.073">L</tspan></text><text transform="matrix(.26887107 -.96317618 .96317618 .26887107 21.4458 846.509)"><tspan x="0" y="101.073">D</tspan></text><text transform="matrix(.36879141 -.92951218 .92951218 .36879141 48.9434 739.217)"><tspan x="0" y="101.073">H</tspan></text><text transform="matrix(.42695861 -.90427117 .90427117 .42695861 77.3457 662.614)"><tspan x="0" y="101.073">E</tspan></text><text transform="matrix(.47653437 -.87915584 .87915584 .47653437 103.083 604.452)"><tspan x="0" y="101.073">L</tspan></text><text transform="matrix(.52749266 -.84955959 .84955959 .52749266 131.895 548.204)"><tspan x="0" y="101.073">L</tspan></text><text transform="matrix(.60291005 -.79780917 .79780917 .60291005 161.315 493.457)"><tspan x="0" y="101.073">O</tspan></text><text transform="matrix(.68360886 -.72984856 .72984856 .68360886 233.646 393.62)"><tspan x="0" y="101.073">N</tspan></text><text transform="matrix(.72735847 -.68625772 .68625772 .72735847 287.98 332.834)"><tspan x="0" y="101.073">E</tspan></text><text transform="matrix(.79560461 -.60581623 .60581623 .79560461 336.431 280.138)"><tspan x="0" y="101.073">W</tspan></text><text transform="matrix(.85911179 -.51178798 .51178798 .85911179 447.544 192.314)"><tspan x="0" y="101.073">C</tspan></text><text transform="matrix(.88951368 -.45690853 .45690853 .88951368 515.697 149.159)"><tspan x="0" y="101.073">R</tspan></text><text transform="matrix(.92812501 -.37226867 .37226867 .92812501 578.83 112.152)"><tspan x="0" y="101.073">O</tspan></text><text transform="matrix(.94999167 -.31227523 .31227523 .94999167 665.842 75.0859)"><tspan x="0" y="101.073">S</tspan></text><text transform="matrix(.96810305 -.25055235 .25055235 .96810305 729.516 52.0645)"><tspan x="0" y="101.073">S</tspan></text><text transform="matrix(.98300046 -.18360308 .18360308 .98300046 794.113 32.9951)"><tspan x="0" y="101.073">B</tspan></text><text transform="matrix(.99240614 -.12300428 .12300428 .99240614 861.871 18.3354)"><tspan x="0" y="101.073">E</tspan></text><text transform="matrix(.99784999 -.06553932 .06553932 .99784999 929.649 8.40137)"><tspan x="0" y="101.073">L</tspan></text><text transform="matrix(.99993295 -.01158007 .01158007 .99993295 985.48 3.12207)"><tspan x="0" y="101.073">L</tspan></text><text transform="matrix(.99497951 .10007883 -.10007883 .99497951 1086.43 0)"><tspan x="0" y="101.073">H</tspan></text><text transform="matrix(.98695743 .16098149 -.16098149 .98695743 1165.28 6.05518)"><tspan x="0" y="101.073">E</tspan></text><text transform="matrix(.9761132 .21726255 -.21726255 .9761132 1231.26 15.2964)"><tspan x="0" y="101.073">L</tspan></text><text transform="matrix(.96215048 .27251871 -.27251871 .96215048 1290.04 26.8491)"><tspan x="0" y="101.073">L</tspan></text><text transform="matrix(.93359856 .3583207 -.3583207 .93359856 1347.33 38.834)"><tspan x="0" y="101.073">O</tspan></text><text transform="matrix(.88951368 .45690853 -.45690853 .88951368 1465.64 81.5337)"><tspan x="0" y="101.073">N</tspan></text><text transform="matrix(.85911179 .51178798 -.51178798 .85911179 1540.03 117.595)"><tspan x="0" y="101.073">E</tspan></text><text transform="matrix(.80000312 .59999584 -.59999584 .80000312 1604.77 150.316)"><tspan x="0" y="101.073">W</tspan></text><text transform="matrix(.71477179 .69935776 -.69935776 .71477179 1717.67 229.178)"><tspan x="0" y="101.073">W</tspan></text><text transform="matrix(.64836177 .76133239 -.76133239 .64836177 1798.56 302.726)"><tspan x="0" y="101.073">O</tspan></text><text transform="matrix(.59707226 .80218746 -.80218746 .59707226 1861.83 373.799)"><tspan x="0" y="101.073">R</tspan></text><text transform="matrix(.5491366 .83573261 -.83573261 .5491366 1906.26 431.049)"><tspan x="0" y="101.073">L</tspan></text><text transform="matrix(.48301497 .8756121 -.8756121 .48301497 1940.99 478.58)"><tspan x="0" y="101.073">D</tspan></text></g></svg>