<svg fill="none" height="700" width="390" xmlns="http://www.w3.org/2000/svg">
    <clipPath id="a">
        <rect height="700" rx="48" width="390"/>
    </clipPath>
    <clipPath id="b">
        <path d="M0 0h260.31v260.31H0z" transform="rotate(22.943 -1319.358 -67.098)"/>
    </clipPath>
    <clipPath id="c">
        <path d="M0 0h291.946v291.946H0z" transform="rotate(-23.117 1516.201 340.648)"/>
    </clipPath>
    <clipPath id="d">
        <path d="M0 0h312v312H0z" transform="rotate(14.824 811.443 198.62)"/>
    </clipPath>
    <g clip-path="url(#a)">
        <rect fill="#141414" height="700" rx="48" width="390"/>
        <g clip-path="url(#b)">
            <path d="M63.845 661.947s8.456-19.976-11.52-28.432l-159.812-67.649c-19.976-8.456-28.432 11.52-28.432 11.52l-50.737 119.859c-8.456 19.976 11.52 28.432 11.52 28.432l159.812 67.649c19.977 8.456 28.433-11.52 28.433-11.52z" fill="#ffb74d"/>
            <path d="M-135.919 577.386s8.456-19.976 28.432-11.52l159.812 67.649s19.977 8.456 11.52 28.432l-121.022 7.661zm-50.737 119.859c-8.456 19.976 11.52 28.432 11.52 28.432l159.812 67.649c19.977 8.456 28.433-11.52 28.433-11.52l42.28-99.882-121.022 7.66-78.742-92.221z" fill="#fff" opacity=".4"/>
        </g>
        <g clip-path="url(#c)">
            <path d="m253.233 562.303 57.31 134.252-22.376 9.552 9.552 22.375-22.376 9.552 9.552 22.375-179.003 76.413-57.31-134.252 22.375-9.552-9.551-22.375 22.375-9.552-9.551-22.375z" fill="#3949ab"/>
            <g fill="#fff">
                <path d="m240.409 594.23 57.31 134.252-22.376 9.552-47.758-111.877-156.628 66.861-9.551-22.375z" opacity=".2"/>
                <path d="m253.233 562.303 57.31 134.252-22.376 9.552-47.758-111.877-156.628 66.861-9.551-22.375z" opacity=".4"/>
            </g>
        </g>
        <path d="M425.445 756.998 308.242 648.68c-17.886 22.453-32.167 46.906-38.589 63.426-1.355-24.364-.281-54.403 19.81-80.784l-14.812-13.688 11.932-13.724 15.546 12.707c23.395-24.232 52.991-29.107 77.215-30.771-15.392 8.559-37.605 26.091-57.375 47.007l123.934 101.321z" fill="#fbc02d"/>
        <path d="m289.463 631.322-14.812-13.688 11.932-13.724 15.546 12.707c-2.065 2.15-4.097 4.389-6.059 6.832-2.428 2.576-4.586 5.216-6.607 7.873zm32.506 1.531c-2.081 2.196-4.16 4.402-6.171 6.675l-1.594 1.844c-2.039 2.394-4.009 4.856-5.962 7.308l117.212 108.317 20.458-22.814z" fill="#000" opacity=".2"/>
        <path d="m412.362 601.772 10.022 12.975-8.121 14.241-10.022-12.974zm-32.802 52.429 10.022 12.975 8.121-14.242-10.022-12.974zM276.4 743.45l10.022 12.974 8.121-14.241-10.022-12.974zm12.905-32.808 13.36 17.3 10.825-18.989-13.359-17.299z" fill="#fbc02d"/>
        <path d="M489.667-18.5c-11.642 0-21.167 9.525-21.167 21.167 0 2.116 0 3.175 1.058 5.291l-28.575 14.817C432.517 10.075 419.817 2.667 405 2.667c-9.525 0-17.992 3.175-25.4 9.525L348.908-18.5c6.35-10.583 3.175-23.283-7.408-28.575s-23.283-3.175-28.575 7.408c-5.292 10.584-3.175 23.284 7.408 28.575 6.35 4.234 14.817 4.234 21.167 0l30.692 29.634c-6.35 8.466-9.525 16.933-9.525 26.458s3.175 19.05 9.525 26.458l-31.75 30.692c-4.234-2.117-9.525-4.233-14.817-4.233-14.817 0-26.458 11.641-26.458 26.458s11.641 26.458 26.458 26.458c13.758 0 26.458-11.641 26.458-26.458 0-5.292-1.058-10.583-4.233-14.817l31.75-30.691c14.817 10.583 34.925 10.583 49.742 0l29.633 28.575c-1.058 2.116-1.058 4.233-1.058 6.35 0 8.466 7.408 15.875 15.875 14.816 8.466 0 15.875-7.408 14.816-15.875 0-8.466-7.408-14.816-15.875-14.816-2.116 0-4.233 1.058-6.35 2.116L436.75 71.458c9.525-10.583 11.642-25.4 7.408-39.158l28.575-14.817c5.292 4.234 10.584 6.35 16.934 6.35 11.641 0 21.166-9.525 21.166-21.166 0-11.642-9.525-21.167-21.166-21.167z" fill="#00aeef"/>
        <path d="M473.792 17.483c-2.117-2.116-4.234-5.291-5.292-9.525l-27.517 14.817c2.117 3.175 3.175 6.35 4.234 9.525zM430.4 78.867l29.633 28.575c1.059-3.175 4.234-6.35 7.409-7.409l-29.634-27.516c-2.116 2.116-5.291 4.233-7.408 6.35zm-58.208-7.409-31.75 30.692c3.175 2.117 5.291 4.233 7.408 7.408l31.75-30.691c-3.175-2.117-5.292-4.234-7.408-7.409zm7.408-60.325L348.908-18.5c-2.116 3.175-4.233 5.292-7.408 7.408l29.633 29.634c2.117-2.117 5.292-5.292 8.467-7.409z" fill="#231f20" opacity=".5"/>
        <g clip-path="url(#d)">
            <path d="M58.616 49.42c10.418 2.757 16.615 13.434 13.861 23.84-2.754 10.406-13.421 16.62-23.84 13.862-10.418-2.758-16.615-13.435-13.861-23.84 2.754-10.406 13.421-16.62 23.84-13.862zm56.921-11.83c10.418 2.757 16.616 13.434 13.862 23.84-2.754 10.406-13.422 16.619-23.84 13.862-10.418-2.758-16.616-13.435-13.862-23.84 2.754-10.406 13.422-16.62 23.84-13.862zm29.198-59.51c10.418 2.757 16.616 13.434 13.862 23.84-2.754 10.405-13.422 16.619-23.84 13.861-10.419-2.757-16.616-13.434-13.862-23.84 2.754-10.406 13.422-16.619 23.84-13.862zm114.58-77.256c10.406 2.754 16.619 13.422 13.862 23.84-2.758 10.418-13.435 16.616-23.84 13.862-10.406-2.754-16.62-13.422-13.862-23.84 2.757-10.419 13.434-16.616 23.84-13.862zm69.489-8.504c10.405 2.754 16.619 13.422 13.861 23.84-2.757 10.418-13.434 16.616-23.84 13.862-10.405-2.754-16.619-13.422-13.861-23.84 2.757-10.419 13.434-16.616 23.84-13.862zM178.742 27.423c13.874 3.672 22.155 17.912 18.483 31.787s-17.913 22.154-31.787 18.482c-13.875-3.672-22.155-17.913-18.483-31.787s17.913-22.154 31.787-18.482zm29.198-59.51c13.874 3.671 22.154 17.912 18.482 31.786-3.672 13.874-17.912 22.155-31.786 18.483-13.875-3.673-22.155-17.913-18.483-31.787 3.672-13.875 17.913-22.155 31.787-18.483zm52.858 54.332c13.874 3.672 22.155 17.912 18.483 31.787s-17.913 22.154-31.787 18.482c-13.875-3.672-22.155-17.913-18.483-31.787s17.913-22.154 31.787-18.482zm19.957-75.404c13.874 3.672 22.154 17.912 18.482 31.787C295.565-7.498 281.325.782 267.45-2.89c-13.874-3.672-22.154-17.912-18.482-31.787s17.913-22.154 31.787-18.482z" fill="#66bb6a"/>
            <path d="M115.537 37.59c10.418 2.757 16.616 13.434 13.862 23.84-2.754 10.406-13.422 16.62-23.84 13.862-10.419-2.757-16.616-13.434-13.862-23.84 2.754-10.406 13.422-16.62 23.84-13.862zm29.198-59.51c10.418 2.757 16.616 13.434 13.862 23.84-2.754 10.406-13.422 16.619-23.84 13.862-10.419-2.758-16.616-13.435-13.862-23.84 2.754-10.406 13.422-16.62 23.84-13.862zm114.58-77.256c10.406 2.754 16.619 13.422 13.862 23.84-2.758 10.418-13.435 16.616-23.84 13.862-10.406-2.754-16.62-13.422-13.862-23.84 2.757-10.418 13.434-16.616 23.84-13.862zm1.483 121.421c13.874 3.672 22.155 17.913 18.483 31.787-3.673 13.874-17.913 22.154-31.787 18.482-13.875-3.672-22.155-17.912-18.483-31.786s17.913-22.155 31.787-18.483z" fill="#fff" opacity=".2"/>
        </g>
        <path d="M-60 157.5C2.132 157.5 52.5 107.132 52.5 45S2.132-67.5-60-67.5-172.5-17.132-172.5 45-122.132 157.5-60 157.5z" fill="#7986cb"/>
        <path d="M-60-22.5c-6.21 0-11.25-5.04-11.25-11.25S-66.21-45-60-45s11.25 5.04 11.25 11.25S-53.79-22.5-60-22.5zM-127.5 45c0-6.21-5.04-11.25-11.25-11.25S-150 38.79-150 45s5.04 11.25 11.25 11.25S-127.5 51.21-127.5 45zM30 45c0-6.21-5.029-11.25-11.25-11.25S7.5 38.79 7.5 45s5.029 11.25 11.25 11.25S30 51.21 30 45zM3.641-18.641a11.238 11.238 0 0 0-15.907 0c-4.41 4.398-4.399 11.508 0 15.907 4.399 4.399 11.497 4.399 15.907 0 4.399-4.387 4.399-11.508 0-15.907zm-127.282-.012c-4.399 4.388-4.399 11.52 0 15.897 4.398 4.421 11.52 4.399 15.919 0 4.387-4.388 4.387-11.486-.012-15.896-4.387-4.388-11.509-4.4-15.907 0z" fill="#fff" opacity=".4"/>
    </g>
    <rect height="699" rx="47.5" stroke="#e1e8f7" stroke-opacity=".4" width="389" x=".5" y=".5"/>
</svg>
