<svg xmlns="http://www.w3.org/2000/svg" fill="none" height="770" width="1500" xmlns:v="https://vecta.io/nano"><clipPath id="A"><rect height="770" rx="72" width="1500"/></clipPath><clipPath id="B"><path d="m1003-77h296v296h-296z"/></clipPath><clipPath id="C"><path d="M1280 199.449L1525.939 153l46.449 245.939-245.939 46.449z"/></clipPath><clipPath id="D"><path d="M1408.43 306l232.589 135.429-135.429 232.589-232.589-135.429z"/></clipPath><clipPath id="E"><path d="m1293 561h248v248h-248z"/></clipPath><clipPath id="F"><path d="m1086 574h260v260h-260z"/></clipPath><clipPath id="G"><path d="m1299-41h285v285h-285z"/></clipPath><clipPath id="H"><path d="m1220-60h233v233h-233z"/></clipPath><clipPath id="I"><path d="M908 616h200v200H908z"/></clipPath><clipPath id="J"><path d="M355.473 545L595.19 646.473 493.717 886.191 254 784.717z"/></clipPath><clipPath id="K"><path d="M619.827-171l301.615 79.826-79.826 301.615-301.615-79.826z"/></clipPath><clipPath id="L"><path d="M474 658.619l268.505-114.62 114.62 268.505-268.505 114.62z"/></clipPath><clipPath id="M"><path d="M130 593h205v205H130z"/></clipPath><clipPath id="N"><path d="M-49 365h199v199H-49z"/></clipPath><clipPath id="O"><path d="M-27.381 139l224.285 87.618-87.618 224.285L-115 363.285z"/></clipPath><clipPath id="P"><path d="M-29-48h272v272H-29z"/></clipPath><g clip-path="url(#A)"><rect fill="#141414" height="770" rx="72" width="1500"/><path d="M1031.67 11.5c-11.65 0-21.17 9.525-21.17 21.167 0 2.117 0 3.175 1.06 5.292l-28.577 14.817c-8.466-12.7-21.166-20.108-35.983-20.108-9.525 0-17.992 3.175-25.4 9.525L890.908 11.5c6.35-10.583 3.175-23.283-7.408-28.575s-23.283-3.175-28.575 7.408-3.175 23.283 7.408 28.575c6.35 4.233 14.817 4.233 21.167 0l30.692 29.633c-6.35 8.467-9.525 16.933-9.525 26.458s3.175 19.05 9.525 26.458l-31.75 30.692c-4.234-2.117-9.525-4.233-14.817-4.233-14.817 0-26.458 11.641-26.458 26.458s11.641 26.458 26.458 26.458c13.758 0 26.458-11.641 26.458-26.458 0-5.292-1.058-10.583-4.233-14.817l31.75-30.691c14.817 10.583 34.925 10.583 49.742 0l29.628 28.575c-1.053 2.116-1.053 4.233-1.053 6.35 0 8.466 7.403 15.875 15.873 14.816 8.47 0 15.88-7.408 14.82-15.875 0-8.466-7.41-14.816-15.88-14.816-2.11 0-4.23 1.058-6.35 2.116l-29.63-28.575c9.525-10.583 11.642-25.4 7.408-39.158l28.572-14.817c5.29 4.233 10.59 6.35 16.94 6.35 11.64 0 21.16-9.525 21.16-21.167s-9.52-21.167-21.16-21.167z" fill="#00aeef"/><path d="M1015.79 47.483c-2.11-2.117-4.23-5.292-5.29-9.525l-27.516 14.817c2.116 3.175 3.175 6.35 4.233 9.525zm-43.39 61.384l29.63 28.575c1.06-3.175 4.24-6.35 7.41-7.409l-29.631-27.516c-2.117 2.116-5.292 4.233-7.409 6.35zm-58.208-7.409l-31.75 30.692c3.175 2.117 5.292 4.233 7.408 7.408l31.75-30.691c-3.175-2.117-5.291-4.234-7.408-7.409zm7.408-60.325L890.909 11.5c-2.117 3.175-4.234 5.292-7.409 7.408l29.634 29.633c2.116-2.117 5.291-5.292 8.466-7.408z" fill="#231f20" opacity=".5"/><g clip-path="url(#B)"><path d="M1262.2-1v74h-24.67V41.18l-88.3 88.183-47.98-72.026-63.52 84.73-19.73-14.8 84.48-112.604 50.69 75.973 66.85-66.97h-31.82V-1z" fill="#00897b"/></g><g clip-path="url(#C)"><path d="m1548.02 382.315-204.95 38.707-38.7-204.949 204.95-38.708z" fill="#3949ab"/><path d="M1344.1 229.794c8.5-1.604 16.67 3.973 18.28 12.468 1.6 8.496-3.98 16.67-12.47 18.275-8.5 1.604-16.67-3.973-18.28-12.469-1.6-8.495 3.98-16.669 12.47-18.274zm133.22-25.16c8.48-1.602 16.67 3.973 18.27 12.469a15.64 15.64 0 0 1-12.46 18.274 15.65 15.65 0 0 1-18.28-12.468c-1.6-8.495 3.98-16.672 12.47-18.275zm25.16 133.218a15.65 15.65 0 0 1 18.27 12.468c1.61 8.485-3.98 16.672-12.46 18.274-8.49 1.603-16.68-3.983-18.28-12.468a15.65 15.65 0 0 1 12.47-18.274zm-133.22 25.159c8.5-1.604 16.67 3.984 18.28 12.469 1.6 8.485-3.98 16.669-12.47 18.274-8.5 1.604-16.67-3.983-18.28-12.468-1.6-8.485 3.98-16.67 12.47-18.275z" fill="#fff" opacity=".2"/><path d="m1385.77 253.763 13.55 71.732 20.5-3.871 9.67 51.238 27.45-79.474-24.6 4.645 14.92-55.882z" fill="#ffd600"/><path d="m1416.52 247.957-30.75 5.806 13.55 71.732z" fill="#ffc107"/></g><g clip-path="url(#D)"><path d="m1464.98 364.883-67.71 116.294 29.07 16.929-45.14 77.529 135.55-76.794-38.76-22.572 83.9-54.958z" fill="#ffd600"/></g><g clip-path="url(#E)"><path d="m1479 695.333c0-34.234-27.77-62-62-62s-62 27.766-62 62c0 22.94 12.48 42.904 31 53.63v39.37h62v-39.37c18.52-10.726 31-30.69 31-53.63z" fill="#546e7a"/><path d="M1417 633.333c34.23 0 62 27.766 62 62s-27.77 62-62 62-62-27.765-62-62 27.77-62 62-62zm-86.9 10.334l14.57-14.57-18.5-18.6-14.57 14.57zm76.57-62h20.66v31h-20.66zM1303.33 685h31v20.667h-31zm196.34 0h31v20.667h-31zm-6.2-41.333l18.59-18.497-14.57-14.57-18.49 18.6z" fill="#ffca28"/><path d="M1330.1 643.667l14.57-14.57-18.5-18.6-14.57 14.57zm76.57-62h20.66v31h-20.66zM1303.33 685h31v20.667h-31zm196.34 0h31v20.667h-31zm-6.2-41.333l18.59-18.497-14.57-14.57-18.49 18.6z" fill="#fff" opacity=".4"/></g><g clip-path="url(#F)"><path d="M1324.33 747.333c0 29.9-24.26 54.167-54.16 54.167S1216 777.233 1216 747.333c0-12.241 4.01-23.508 10.83-32.5-3.68 0-7.36-.433-10.94-1.083.11.325.11.758.11 1.083 0 29.9-24.27 54.167-54.17 54.167s-54.16-24.267-54.16-54.167 24.26-54.166 54.16-54.166c3.69 0 7.37.433 10.94 1.083-.1-.325-.1-.758-.1-1.083 0-29.9 24.26-54.167 54.16-54.167s54.17 24.267 54.17 54.167c0 12.241-4.01 23.508-10.83 32.5 29.9 0 54.16 24.266 54.16 54.166z" fill="#283593"/><path d="M1215.89 713.75c-.43-25.675-18.85-47.017-43.12-52-3.57-.65-7.25-1.083-10.94-1.083-29.9 0-54.16 24.266-54.16 54.166S1131.93 769 1161.83 769s54.17-24.267 54.17-54.167c0-.325 0-.758-.11-1.083zM1151 747.333c-11.92 0-21.67-9.75-21.67-21.666S1139.08 704 1151 704s21.67 9.75 21.67 21.667-9.75 21.666-21.67 21.666zm119.17-54.166c-17.66 0-33.48 8.558-43.34 21.666-6.82 8.992-10.83 20.259-10.83 32.5 0 29.9 24.27 54.167 54.17 54.167s54.16-24.267 54.16-54.167-24.26-54.166-54.16-54.166zm10.83 86.666c-11.92 0-21.67-9.75-21.67-21.666s9.75-21.667 21.67-21.667 21.67 9.75 21.67 21.667-9.75 21.666-21.67 21.666z" fill="#fff" opacity=".15"/></g><g clip-path="url(#G)"><path d="M1349.47 26.331l167.2 167.2c-20.43 16.625-46.67 26.719-75.17 26.719-65.55 0-118.75-53.2-118.75-118.75 0-28.5 10.09-54.744 26.72-75.169z" fill="#f06292"/><path d="M1366.33 9.469c17.58-14.25 39.43-23.75 63.29-26.125v89.419zm87.04-26.125V96.513l80.16 80.156c16.63-20.425 26.72-46.669 26.72-75.169 0-61.512-46.91-112.219-106.88-118.156z" fill="#ab47bc"/><path d="M1366.33 9.469c17.58-14.25 39.43-23.75 63.29-26.125v89.419z" fill="#fff" opacity=".4"/></g><g clip-path="url(#H)"><path d="M1346.21 49.316V-1.75h44.56l-12.62 12.524 13.78 13.786 35.93-36.018-35.93-36.018-13.78 13.786 12.62 12.524h-44.56v-19.417h-19.42v20.096c-20.68 2.524-48.54 13.397-48.54 43.008 0 24.271 24.56 33.785 48.54 41.163v51.066h-44.56l12.62-12.524-13.78-13.785-35.93 36.018 35.93 36.017 13.78-13.785-12.62-12.524h44.56v19.417h19.42v-20.097c20.68-2.524 48.54-13.397 48.54-43.008 0-24.271-24.56-33.785-48.54-41.163zm-19.42-6.116c-17.57-5.631-29.12-11.359-29.12-20.679 0-16.31 17.67-21.65 29.12-23.494zm19.42 70.774V69.801c17.57 5.631 29.12 11.359 29.12 20.679 0 16.407-17.67 21.747-29.12 23.495z" fill="#43a047"/><path d="M1346.21-40.583h-19.42v194.167h19.42z" fill="#fff" opacity=".2"/></g><g clip-path="url(#I)"><path d="m958 757.667c0 9.2-7.467 16.666-16.667 16.666s-16.666-7.466-16.666-16.666v-58.334c0-9.2 7.466-16.666 16.666-16.666s16.667 7.466 16.667 16.666zm50-108.334c0-9.2-7.47-16.666-16.667-16.666-9.2 0-16.666 7.466-16.666 16.666v50c0 9.2 7.466 16.667 16.666 16.667 9.197 0 16.667-7.467 16.667-16.667zm83.33 75c0-9.2-7.46-16.666-16.66-16.666s-16.67 7.466-16.67 16.666v58.334c0 9.2 7.47 16.666 16.67 16.666s16.66-7.466 16.66-16.666zm-66.66 25c0-9.2-7.47-16.666-16.67-16.666s-16.667 7.466-16.667 16.666v33.334c0 9.2 7.467 16.666 16.667 16.666s16.67-7.466 16.67-16.666zm33.33-91.666c0-9.2-7.47-16.667-16.67-16.667s-16.66 7.467-16.66 16.667v33.333c0 9.2 7.46 16.667 16.66 16.667s16.67-7.467 16.67-16.667z" fill="#7cb342"/><path d="m958 757.667c0 9.2-7.467 16.666-16.667 16.666s-16.666-7.466-16.666-16.666v-58.334c0-9.2 7.466-16.666 16.666-16.666s16.667 7.466 16.667 16.666zm66.67-8.334c0-9.2-7.47-16.666-16.67-16.666s-16.667 7.466-16.667 16.666v33.334c0 9.2 7.467 16.666 16.667 16.666s16.67-7.466 16.67-16.666zm33.33-91.666c0-9.2-7.47-16.667-16.67-16.667s-16.66 7.467-16.66 16.667v33.333c0 9.2 7.46 16.667 16.66 16.667s16.67-7.467 16.67-16.667z" fill="#fff" opacity=".4"/></g><g clip-path="url(#J)"><path d="m549.846 697.946s8.456-19.976-11.52-28.432l-159.812-67.649c-19.976-8.456-28.433 11.52-28.433 11.52l-50.736 119.859c-8.456 19.977 11.52 28.433 11.52 28.433l159.812 67.649c19.976 8.456 28.432-11.521 28.432-11.521z" fill="#ffb74d"/><path d="m350.081 613.385s8.457-19.976 28.433-11.52l159.812 67.649s19.976 8.456 11.52 28.432l-121.022 7.661zm-50.736 119.859c-8.456 19.977 11.52 28.433 11.52 28.433l159.812 67.649c19.976 8.456 28.432-11.521 28.432-11.521l42.281-99.882-121.023 7.661-78.742-92.222z" fill="#fff" opacity=".4"/><path d="m446.869 725.024 17.481 20.473-16.515 13.974-20.101-23.467-10.063 23.772-19.976-8.456 10.063-23.772-30.84 1.904-1.463-21.585 26.867-1.7-17.481-20.473 16.515-13.974 20.058 23.566 10.105-23.872 19.977 8.457-10.105 23.871 30.882-2.003 1.463 21.584z" fill="#ec407a"/></g><g clip-path="url(#K)"><path d="M600.616 79.42c10.418 2.757 16.616 13.434 13.862 23.84s-13.422 16.619-23.84 13.862-16.616-13.435-13.862-23.84 13.422-16.619 23.84-13.862zm56.922-11.83c10.418 2.757 16.615 13.434 13.861 23.84s-13.421 16.619-23.84 13.862-16.616-13.435-13.862-23.841 13.422-16.619 23.841-13.862zm29.197-59.51c10.419 2.757 16.616 13.434 13.862 23.84s-13.422 16.619-23.84 13.862-16.616-13.434-13.862-23.84 13.422-16.619 23.84-13.862zm114.58-77.256c10.406 2.754 16.62 13.422 13.862 23.84s-13.434 16.616-23.84 13.862-16.619-13.422-13.862-23.84 13.435-16.616 23.84-13.862zm69.489-8.504c10.406 2.754 16.619 13.422 13.862 23.84s-13.434 16.616-23.84 13.862-16.619-13.422-13.862-23.84 13.434-16.616 23.84-13.862zM720.743 57.423c13.874 3.672 22.154 17.913 18.482 31.787s-17.912 22.155-31.787 18.483-22.154-17.913-18.482-31.787 17.912-22.154 31.787-18.482zm29.197-59.51c13.875 3.672 22.155 17.913 18.483 31.787s-17.913 22.154-31.787 18.482-22.154-17.913-18.482-31.787S736.066-5.76 749.94-2.088zm52.859 54.332c13.874 3.672 22.154 17.913 18.482 31.787s-17.912 22.155-31.787 18.483-22.154-17.913-18.482-31.787 17.912-22.154 31.787-18.482zm19.956-75.404c13.875 3.672 22.155 17.913 18.483 31.787s-17.913 22.154-31.787 18.482-22.155-17.913-18.482-31.787 17.912-22.154 31.786-18.482z" fill="#66bb6a"/><path d="M657.537 67.59c10.419 2.757 16.616 13.434 13.862 23.84s-13.422 16.619-23.84 13.862-16.616-13.434-13.862-23.84 13.422-16.619 23.84-13.862zm29.198-59.51c10.418 2.757 16.616 13.434 13.862 23.84s-13.422 16.619-23.84 13.862-16.616-13.434-13.862-23.84 13.422-16.619 23.84-13.862zm114.58-77.256c10.406 2.754 16.619 13.422 13.862 23.84s-13.434 16.616-23.84 13.862-16.619-13.422-13.862-23.84 13.434-16.616 23.84-13.862zm1.483 121.421c13.875 3.672 22.155 17.913 18.483 31.787s-17.913 22.154-31.787 18.482-22.154-17.912-18.482-31.787 17.912-22.154 31.786-18.482z" fill="#fff" opacity=".2"/></g><path d="M72.5 779.75c61.442 0 111.25-49.808 111.25-111.25S133.942 557.25 72.5 557.25-38.75 607.058-38.75 668.5 11.058 779.75 72.5 779.75z" fill="#7986cb"/><path d="M72.5 601.75a11.13 11.13 0 0 1-11.125-11.125A11.13 11.13 0 0 1 72.5 579.5a11.13 11.13 0 0 1 11.125 11.125A11.13 11.13 0 0 1 72.5 601.75zM5.75 668.5a11.13 11.13 0 0 0-11.125-11.125A11.13 11.13 0 0 0-16.5 668.5a11.13 11.13 0 0 0 11.125 11.125A11.13 11.13 0 0 0 5.75 668.5zm155.75 0c0-6.141-4.973-11.125-11.125-11.125s-11.125 4.984-11.125 11.125 4.973 11.125 11.125 11.125S161.5 674.641 161.5 668.5zm-26.066-62.934c-4.35-4.35-11.381-4.35-15.731 0-4.361 4.35-4.349 11.381 0 15.731s11.37 4.349 15.731 0c4.35-4.339 4.35-11.381 0-15.731zm-125.868-.011c-4.35 4.338-4.35 11.392 0 15.719 4.35 4.372 11.392 4.35 15.742 0 4.339-4.338 4.339-11.358-.011-15.719-4.339-4.339-11.381-4.35-15.731 0z" fill="#fff" opacity=".4"/><path d="M88.231 652.769c7.865 7.866 8.644 22.818 0 31.462-8.655 8.644-23.596 7.865-31.461 0s-15.742-47.204-15.742-47.204 39.338 7.877 47.203 15.742z" fill="#000" opacity=".6"/><g clip-path="url(#L)"><path d="m739.233 598.302 57.31 134.253-22.376 9.552 9.552 22.375-22.376 9.552 9.552 22.375-179.003 76.413-57.31-134.253 22.375-9.551-9.551-22.376 22.375-9.551-9.552-22.376z" fill="#3949ab"/><g fill="#fff"><path d="m726.409 630.229 57.31 134.253-22.376 9.552-47.758-111.878-156.628 66.862-9.551-22.376z" opacity=".2"/><path d="m739.233 598.302 57.31 134.253-22.376 9.552-47.758-111.878-156.628 66.862-9.552-22.376z" opacity=".4"/></g></g><g clip-path="url(#M)"><path d="m300.833 627.167c0-9.43-7.653-17.084-17.083-17.084h-102.5c-9.43 0-17.083 7.654-17.083 17.084v136.666c0 9.43 7.653 17.084 17.083 17.084h102.5c9.43 0 17.083-7.654 17.083-17.084z" fill="#cfd8dc"/><path d="M198.333 644.25H181.25v-17.083h17.083zm85.417-17.083h-68.333v17.083h68.333zm-85.417 34.166H181.25v17.084h17.083zm85.417 0h-68.333v17.084h68.333z" fill="#263238" opacity=".8"/><path d="m281.273 701.565-57.315 57.229-31.689-31.604 12.129-12.129 19.56 19.645 45.186-45.27z" fill="#388e3c"/><path d="m223.958 734.706v24.088l-31.689-31.605 12.129-12.129z" fill="#fff" opacity=".2"/></g><g clip-path="url(#N)"><path d="M116.833 398.167c0-9.154-7.429-16.584-16.583-16.584H.75c-9.154 0-16.583 7.43-16.583 16.584v132.666c0 9.154 7.429 16.584 16.583 16.584h99.5c9.154 0 16.583-7.43 16.583-16.584z" fill="#263238"/><path d="M17.333 414.75H.75v-16.583h16.583zm82.917-16.583H33.917v16.583h66.333zm-82.917 33.166H.75v16.584h16.583zm82.917 0H33.917v16.584h66.333z" fill="#fff" opacity=".4"/><path d="M62.274 497.667l18.988 18.988-11.774 11.774L50.5 509.441l-18.988 18.988-11.774-11.774 18.988-18.988-18.988-18.988 11.774-11.774L50.5 485.892l18.988-18.987 11.774 11.774z" fill="#e53935"/></g><g clip-path="url(#O)"><path d="M57.599 279.912l37.381 14.603-109.226 86.587 32.857-84.107-28.036-10.952 40.159-102.797 93.452 36.507z" fill="#fbc02d"/><path d="M57.599 279.912l37.381 14.603-109.226 86.587 32.857-84.107-28.036-10.952 91.557-82.718 42.053 16.428z" fill="#fff" opacity=".2"/></g><g clip-path="url(#P)"><path d="M231.667 20A22.68 22.68 0 0 0 209-2.666H5C-7.512-2.666-17.667 7.488-17.667 20v136A22.68 22.68 0 0 0 5 178.667h204A22.68 22.68 0 0 0 231.667 156z" fill="#cfd8dc"/><path d="M50.333 99.334c-18.779 0-34-15.221-34-34s15.221-34 34-34 34 15.221 34 34-15.221 34-34 34zM5 156h90.667v-22.667c0-11.333-22.667-22.666-45.333-22.666S5 122 5 133.333z" fill="#1976d2"/><path d="M118.333 65.333c0-6.256 5.066-11.333 11.334-11.333h68C203.934 54 209 59.077 209 65.333s-5.066 11.333-11.333 11.333h-68c-6.268 0-11.334-5.077-11.334-11.333zm0 45.334c0 6.267 5.066 11.333 11.334 11.333h68c6.267 0 11.333-5.066 11.333-11.333s-5.066-11.334-11.333-11.334h-68c-6.268 0-11.334 5.066-11.334 11.334z" fill="#455a64"/></g><path d="M482 187.5c62.132 0 112.5-50.368 112.5-112.5S544.132-37.5 482-37.5 369.5 12.868 369.5 75 419.868 187.5 482 187.5z" fill="#7986cb"/><path d="M482 7.5c-6.21 0-11.25-5.04-11.25-11.25S475.79-15 482-15s11.25 5.04 11.25 11.25S488.21 7.5 482 7.5zM414.5 75c0-6.21-5.04-11.25-11.25-11.25S392 68.79 392 75s5.04 11.25 11.25 11.25S414.5 81.21 414.5 75zM572 75a11.25 11.25 0 1 0-22.5 0 11.25 11.25 0 1 0 22.5 0zm-26.359-63.641a11.24 11.24 0 0 0-15.907 0 11.23 11.23 0 0 0 0 15.908c4.399 4.399 11.497 4.399 15.907 0a11.24 11.24 0 0 0 0-15.908zm-127.282-.011c-4.399 4.388-4.399 11.52 0 15.896 4.398 4.421 11.52 4.399 15.919 0 4.387-4.387 4.387-11.486-.012-15.896a11.25 11.25 0 0 0-15.907 0z" fill="#fff" opacity=".4"/><path d="M497.908 90.919c-7.954 7.942-23.074 8.73-31.815 0-8.753-8.764-7.965-23.873-.012-31.815 7.965-7.965 47.734-15.93 47.734-15.93s-7.954 39.78-15.907 47.745z" fill="#000" opacity=".6"/><path d="m911.445 792.998-117.203-108.319c-17.886 22.453-32.167 46.906-38.589 63.426-1.355-24.363-.281-54.403 19.81-80.784l-14.812-13.688 11.932-13.723 15.546 12.707c23.395-24.233 52.991-29.107 77.215-30.772-15.392 8.56-37.605 26.091-57.375 47.008l123.934 101.321z" fill="#fbc02d"/><path d="M775.463 667.321l-14.812-13.688 11.932-13.723 15.546 12.707-6.059 6.831c-2.428 2.577-4.586 5.216-6.607 7.873zm32.506 1.532l-6.171 6.675-1.594 1.843c-2.039 2.394-4.009 4.857-5.962 7.308l117.212 108.318 20.459-22.815z" fill="#000" opacity=".2"/><path d="m898.362 637.772 10.022 12.974-8.121 14.241-10.022-12.974zm-32.803 52.429 10.022 12.974 8.122-14.241-10.022-12.975zm-103.16 89.248 10.023 12.974 8.121-14.241-10.022-12.974zm12.906-32.807 13.36 17.299 10.825-18.988-13.36-17.299z" fill="#fbc02d"/><path d="M367.127 76L423 108.262l-28.507 49.476-55.986-32.262V190h-57.014v-64.524l-55.986 32.262L197 108.262 252.873 76 197 43.738l28.507-49.476 55.986 32.262V-38h57.014v64.524l55.986-32.262L423 43.738z" fill="#1e88e5"/></g><rect height="769" rx="71.5" stroke="#e1e8f7" stroke-opacity=".4" width="1499" x=".5" y=".5"/></svg>