<svg fill="none" height="75" viewBox="0 0 138 75" width="138" xmlns="http://www.w3.org/2000/svg"><path d="m-.00000328 37.5001c.04241938-.4983.18011428-.9836.40548728-1.4292l.473053-.8167.540653-1.089.87854-1.157.81097-1.0889c0-.4083.67581-.8167 1.01372-1.225 9.66408-11.2976 34.39858-30.69416923 54.06468-30.69417095 19.8147-.02233295 39.5126 3.05424095 58.3899 9.11976095h21.423v50.36291h-21.22s-1.149 15.5172-26.5596 15.5172h-53.051c-1.0439-.0668-2.0633-.347-2.9962-.8234-.9329-.4765-1.7596-1.1393-2.4299-1.948-.6702-.8087-1.17-1.7464-1.4687-2.756-.2987-1.0095-.3901-2.0697-.2687-3.116 0-6.8058 4.0548-8.8475 7.1635-8.8475h31.8306c1.0387-.0088 2.0523-.3225 2.9165-.9028.8643-.5802 1.5418-1.4018 1.9493-2.364.2928-.6654.4535-1.3822.4731-2.1098 0-9.2559-5.5417-19.941-26.5593-19.941-1.9598 0-3.9197 0-5.8119 0h-.5407l-5.5416.6806h-.6758l-5.3389.9528-5.1361 1.2251h-.4731l-4.5955 1.3611h-.6082c-5.0295 1.553-9.95113 3.4401-14.73264 5.6489-1.15426-.0841-2.23625-.5974-3.03563-1.4401-.799375-.8428-1.2590003-1.9548-1.28953328-3.1198z" fill="#fe917a"/></svg>