<?xml version="1.0" standalone="no"?>
<!DOCTYPE svg PUBLIC "-//W3C//DTD SVG 20010904//EN"
 "http://www.w3.org/TR/2001/REC-SVG-20010904/DTD/svg10.dtd">
<svg version="1.0" xmlns="http://www.w3.org/2000/svg"
 width="700.000000pt" height="700.000000pt" viewBox="0 0 700.000000 700.000000"
 preserveAspectRatio="xMidYMid meet">
<metadata>
Created by potrace 1.14, written by Peter Selinger 2001-2017
</metadata>
<g transform="translate(0.000000,700.000000) scale(0.100000,-0.100000)"
fill="#000000" stroke="none">
<path d="M3450 6633 c-213 -28 -443 -100 -628 -199 -76 -40 -247 -147 -262
-163 -3 -3 -27 -24 -55 -45 -84 -67 -236 -226 -311 -326 -88 -118 -130 -189
-195 -324 -50 -106 -51 -106 -87 -107 -60 -2 -127 -11 -272 -35 -61 -10 -203
-54 -295 -92 -239 -96 -490 -278 -651 -471 -82 -97 -83 -98 -122 -160 -147
-227 -241 -482 -268 -727 -10 -90 -10 -310 0 -399 13 -122 68 -331 113 -435
56 -130 150 -293 225 -389 76 -99 252 -268 358 -343 228 -161 500 -267 785
-306 68 -9 3556 -9 3625 0 86 12 109 17 205 45 231 67 401 169 581 348 171
170 283 361 343 580 41 151 42 159 46 335 4 137 0 186 -18 280 -54 270 -177
501 -372 695 -153 154 -339 268 -542 333 l-83 27 -1 75 c-1 80 -2 93 -13 185
-25 204 -80 393 -171 580 -190 394 -511 706 -915 889 -307 139 -679 194 -1020
149z"/>
<path d="M2806 1743 c-42 -11 -96 -54 -121 -97 -60 -103 -43 -225 41 -301 47
-42 262 -123 374 -139 19 -3 46 -8 60 -10 123 -22 327 -22 430 -1 14 2 41 7
60 10 59 9 171 42 259 76 140 53 195 121 195 239 0 100 -50 179 -136 214 -56
24 -98 20 -200 -18 -160 -59 -243 -76 -384 -78 -132 -1 -254 22 -395 77 -85
33 -135 40 -183 28z"/>
<path d="M2305 1167 c-54 -22 -95 -60 -122 -114 -22 -46 -25 -63 -21 -116 8
-102 52 -161 154 -211 113 -56 183 -86 196 -86 8 0 18 -4 23 -9 18 -16 217
-78 340 -107 88 -20 89 -20 155 -29 30 -4 63 -9 74 -11 75 -14 411 -21 476
-10 14 2 52 7 85 11 32 4 68 9 80 11 11 2 34 6 50 9 125 19 350 84 480 140
121 52 233 109 259 133 47 44 75 116 71 181 -4 72 -16 101 -60 150 -76 84
-164 90 -303 21 -163 -80 -380 -152 -529 -175 -70 -10 -103 -15 -153 -21 -67
-8 -300 -8 -355 0 -22 3 -60 8 -85 11 -99 12 -250 49 -384 95 -70 25 -99 37
-216 93 -93 44 -164 55 -215 34z"/>
</g>
</svg>
