<svg xmlns="http://www.w3.org/2000/svg" width="24" height="24" fill="none" viewBox="0 0 24 24"><g clip-path="url(#clip0_2288_8862)"><path fill="#fff" d="M0.532083 8.68021C-1.70712 3.52501 3.52488 -1.70699 8.68008 0.532213L9.53208 0.902413C10.3108 1.24062 11.1506 1.41514 11.9996 1.41514C12.8485 1.41514 13.6884 1.24062 14.4671 0.902413L15.3191 0.532213C20.4749 -1.70699 25.7069 3.52501 23.4677 8.68021L23.0975 9.53221C22.7593 10.3109 22.5848 11.1508 22.5848 11.9997C22.5848 12.8487 22.7593 13.6885 23.0975 14.4672L23.4677 15.3192C25.7069 20.475 20.4743 25.707 15.3197 23.4678L14.4677 23.0976C13.689 22.7594 12.8491 22.5849 12.0002 22.5849C11.1512 22.5849 10.3114 22.7594 9.53268 23.0976L8.68068 23.4678C3.52428 25.707 -1.70772 20.475 0.531483 15.3198L0.901684 14.4678C1.23989 13.6891 1.41441 12.8493 1.41441 12.0003C1.41441 11.1514 1.23989 10.3115 0.901684 9.53281L0.531483 8.68081L0.532083 8.68021Z"/><path fill="#5B89F7" d="M10.3333 5.80001L16.5333 12L10.3333 18.2L9.61666 17.5L15.1167 12L9.61666 6.50001L10.3333 5.80001Z"/></g><defs><clipPath id="clip0_2288_8862"><rect width="24" height="24" fill="#fff"/></clipPath></defs></svg>