<svg fill="none" height="40" viewBox="0 0 40 40" width="40" xmlns="http://www.w3.org/2000/svg" xmlns:xlink="http://www.w3.org/1999/xlink"><clipPath id="a"><path d="m4 4h32v32h-32z"/></clipPath><path d="m0 0h40v40h-40z" fill="#e60019"/><g clip-path="url(#a)"><path d="m20 36c8.8366 0 14.5-7.1634 14.5-16s-5.6634-13.5-14.5-13.5-14 5.6634-14 14.5 5.1634 15 14 15z" fill="#fff"/><path d="m20 4c-8.8362 0-16 7.1638-16 16 0 6.7819 4.04774 12.6691 10 15-.1449-1.2642-.0971-3.3062.2189-4.6889.2897-1.251 1.87-7.9539 1.87-7.9539s-.4741-.9613-.4741-2.3704c0-2.2255 1.2905-3.8847 2.8971-3.8847 1.3696 0 2.028 1.0271 2.028 2.2518 0 1.3696-.8691 3.4239-1.33 5.3333-.3819 1.5935.8033 2.8972 2.3703 2.8972 2.8445 0 5.0305-3.0025 5.0305-7.3218 0-3.8321-2.7523-6.5054-6.6897-6.5054-4.5564 0-7.2296 3.4107-7.2296 6.9399 0 1.3696.5267 2.8445 1.1851 3.6478.1317.158.1449.3028.1054.4609-.1185.5004-.3951 1.5934-.4477 1.8172-.0659.2898-.2371.3556-.54.2107-2.0016-.9349-3.25264-3.8452-3.25264-6.2024 0-5.0436 3.66094-9.67904 10.57444-9.67904 5.5441 0 9.8634 3.95064 9.8634 9.24444 0 5.5177-3.4765 9.9556-8.2963 9.9556-1.6197 0-3.1473-.8428-3.6609-1.8437 0 0-.8033 3.0552-1.0008 3.8058-.3556 1.3959-1.33 3.1342-1.9885 4.2008 1.5013.4609 3.0815.7111 4.7408.7111 8.8362 0 16-7.1637 16-16 .0263-8.8625-7.1375-16.0263-15.9737-16.0263z" fill="#e60019"/></g></svg>