<svg fill="none" height="40" viewBox="0 0 40 40" width="40" xmlns="http://www.w3.org/2000/svg"><path d="m0 0h40v40h-40z" fill="#000"/><path d="m25.1765 16.6635c1.5433 1.1071 3.434 1.7586 5.476 1.7586v-3.9435c-.3864.0001-.7719-.0403-1.15-.1207v3.104c-2.0419 0-3.9323-.6514-5.476-1.7585v8.0475c0 4.0257-3.252 7.289-7.2632 7.289-1.4966 0-2.8877-.4541-4.0433-1.2329 1.3189 1.3534 3.1582 2.193 5.1931 2.193 4.0114 0 7.2635-3.2633 7.2635-7.2892v-8.0473zm1.4186-3.9785c-.7887-.8648-1.3066-1.9823-1.4186-3.21783v-.50721h-1.0898c.2743 1.57034 1.2099 2.91194 2.5084 3.72504zm-11.338 14.0328c-.4407-.5799-.6789-1.2892-.6778-2.0186 0-1.8412 1.4874-3.3341 3.3225-3.3341.342-.0001.6819.0525 1.0078.1563v-4.0316c-.3809-.0524-.7653-.0747-1.1495-.0665v3.138c-.3262-.1038-.6663-.1565-1.0083-.1562-1.8351 0-3.3224 1.4928-3.3224 3.3342 0 1.3021.7434 2.4294 1.8277 2.9785z" fill="#ff004f"/><path d="m24.0265 15.7033c1.5437 1.1071 3.4342 1.7585 5.476 1.7585v-3.104c-1.1397-.2437-2.1487-.8414-2.9074-1.6728-1.2985-.8132-2.2341-2.1548-2.5084-3.72504h-2.8626v15.75064c-.0065 1.8362-1.4914 3.323-3.3225 3.323-1.079 0-2.0377-.5162-2.6448-1.3158-1.0841-.5491-1.8276-1.6765-1.8276-2.9784 0-1.8413 1.4874-3.3342 3.3224-3.3342.3516 0 .6905.055 1.0084.1562v-3.138c-3.9408.0817-7.1101 3.3131-7.1101 7.2873 0 1.9839.7892 3.7824 2.0702 5.0964 1.1555.7787 2.5466 1.2329 4.0433 1.2329 4.0113 0 7.2631-3.2635 7.2631-7.2891z" fill="#fff"/><path d="m29.5025 14.3578v-.8393c-1.0277.0015-2.0353-.2873-2.9073-.8336.7719.8482 1.7883 1.433 2.9073 1.6729zm-5.4158-5.39782c-.0262-.15007-.0463-.30113-.0602-.45277v-.50721h-3.9525v15.7508c-.0063 1.836-1.4911 3.3228-3.3224 3.3228-.5376 0-1.0452-.1281-1.4948-.3557.6072.7995 1.5658 1.3157 2.6448 1.3157 1.831 0 3.3161-1.4867 3.3225-3.3229v-15.75072zm-6.3266 8.46342v-.8935c-.3302-.0453-.6632-.068-.9966-.0679-4.0116-.0001-7.2635 3.2634-7.2635 7.2888 0 2.5237 1.2781 4.7479 3.2202 6.0562-1.281-1.314-2.0702-3.1126-2.0702-5.0964 0-3.9741 3.1692-7.2055 7.1101-7.2872z" fill="#00f2ea"/></svg>