<svg fill="none" height="40" viewBox="0 0 40 40" width="40" xmlns="http://www.w3.org/2000/svg" xmlns:xlink="http://www.w3.org/1999/xlink"><clipPath id="a"><path d="m8 8h24v24h-24z"/></clipPath><path d="m0 0h40v40h-40z" fill="#1d9bf0"/><g clip-path="url(#a)"><path d="m15.5502 29.7497c9.0543 0 14.0081-7.5032 14.0081-14.0081 0-.2109-.0047-.4265-.0141-.6375.9637-.6969 1.7953-1.5601 2.4558-2.549-.8975.3993-1.8504.66-2.8261.7734 1.0274-.6158 1.7966-1.5833 2.1652-2.723-.9665.5728-2.0235.9769-3.1257 1.1949-.7426-.7891-1.7244-1.3115-2.7937-1.4866s-2.1665.007-3.122.5181c-.9554.511-1.7159 1.3226-2.1639 2.3092-.4479.9866-.5584 2.0933-.3143 3.149-1.957-.0983-3.8716-.6066-5.6195-1.4922-1.748-.8857-3.2903-2.1287-4.52703-3.6486-.62857 1.0837-.82091 2.3661-.53794 3.5865.28297 1.2205 1.02007 2.2874 2.06137 2.9839-.7818-.0248-1.54642-.2353-2.23077-.614v.0609c-.00071 1.1373.39247 2.2397 1.11267 3.1199s1.723 1.4838 2.8379 1.7082c-.7241.1982-1.4842.2271-2.2214.0844.3147.9781.9268 1.8335 1.751 2.447.8242.6134 1.8193.9543 2.8465.9749-1.7439 1.3699-3.8981 2.1129-6.11574 2.1094-.39327-.0006-.78616-.0247-1.17656-.0722 2.2529 1.4453 4.8735 2.2129 7.5502 2.2115z" fill="#fff"/></g></svg>