<svg fill="none" height="419" viewBox="0 0 461 419" width="461" xmlns="http://www.w3.org/2000/svg"><path d="m0 0h461v371h-461z" fill="#fff"/><path d="m83.6756 100.903h-15.3908s1.5347-3.8109 13.5073-2.5378c0 0 5.9644-6.8364 14.6583-6.8364.1674-1.6143.8707-3.1261 1.9976-4.2941 1.1269-1.1679 2.612-1.9249 4.22-2.15 5.938-1.1511 7.089 4.142 7.089 4.142 1.622-.6987 3.37-1.059 5.136-1.059s3.514.3603 5.136 1.059c5.886 2.3282 4.692 9.1211 4.692 9.1211s16.986-.5581 19.907 2.5552h-8.676" stroke="#263238" stroke-linecap="round" stroke-linejoin="round"/><path d="m348.441 187.684h-67.144s2.782-6.863 24.338-4.569c0 0 10.734-12.313 26.395-12.313 0 0 .523-9.592 11.214-11.624s12.766 7.482 12.766 7.482 7.9-4.186 18.504 0c10.603 4.185 8.458 16.42 8.458 16.42s30.599-1.003 35.839 4.604h-15.512" stroke="#263238" stroke-linecap="round" stroke-linejoin="round"/><path d="m305.181 270.759h53.55s-2.206-5.467-19.402-3.644c0 0-8.572-9.819-21.059-9.819 0 0-.419-7.63-8.938-9.27-8.52-1.639-10.185 5.965-10.185 5.965s-6.305-3.34-14.754 0c-8.45 3.34-6.75 13.08-6.75 13.08s-24.416-.802-28.592 3.671h16.21" stroke="#263238" stroke-linecap="round" stroke-linejoin="round"/><path d="m111.937 245.724h-56.1305c4.1943-4.473 28.5929-3.671 28.5929-3.671s-1.744-9.757 6.7493-13.08c8.4933-3.322 14.7543 0 14.7543 0s1.657-7.603 10.185-5.964 8.938 9.269 8.938 9.269c12.496 0 21.059 9.819 21.059 9.819 17.196-1.823 19.41 3.645 19.41 3.645h-6.269" stroke="#263238" stroke-linecap="round" stroke-linejoin="round"/><path d="m184.174 161.9h-22.515s1.316-3.253 11.527-2.163c0 0 5.084-5.834 12.505-5.834.146-1.377.747-2.667 1.709-3.664s2.23-1.644 3.601-1.838c5.067-.977 6.052 3.54 6.052 3.54 1.383-.598 2.875-.907 4.382-.907s2.998.309 4.382.907c5.022 1.98 4.002 7.779 4.002 7.779s14.501-.48 16.987 2.18h-5.398" stroke="#263238" stroke-linecap="round" stroke-linejoin="round"/><path d="m86.3615 100.903h2.5636" stroke="#263238" stroke-linecap="round" stroke-linejoin="round"/><path d="m103.104 100.868h23.518" stroke="#263238" stroke-linecap="round" stroke-linejoin="round"/><path d="m189.484 161.733h3.218" stroke="#263238" stroke-linecap="round" stroke-linejoin="round"/><path d="m182.578 52.9864h-22.515s1.317-3.2525 11.528-2.1625c0 0 5.083-5.8337 12.504-5.8337.146-1.3777.747-2.6673 1.709-3.6641.963-.9969 2.23-1.6438 3.602-1.8382 5.066-.9767 6.051 3.5403 6.051 3.5403 1.378-.5926 2.861-.8982 4.36-.8982 1.5 0 2.983.3056 4.36.8982 5.023 1.9794 4.003 7.7782 4.003 7.7782s14.501-.4708 16.986 2.18h-5.45" stroke="#263238" stroke-linecap="round" stroke-linejoin="round"/><path d="m187.88 52.8291h3.226" stroke="#263238" stroke-linecap="round" stroke-linejoin="round"/><path d="m154.526 245.725h-2.381" stroke="#263238" stroke-linecap="round" stroke-linejoin="round"/><path d="m121.651 245.725h8.197" stroke="#263238" stroke-linecap="round" stroke-linejoin="round"/><path d="m269.621 270.795h7.9" stroke="#263238" stroke-linecap="round" stroke-linejoin="round"/><path d="m354.859 187.685h6.243" stroke="#263238" stroke-linecap="round" stroke-linejoin="round"/><path d="m126.77 166.792s-17.85 10.751-22.751 11.24c-4.9003.488-16.524 0-16.524 0s-2.3457.715-3.9153 1.334c-1.744.698-5.232 1.596-4.4647-.366.7674-1.962 4.36-5.154 6.4354-5.128.5145 0 1.744 1.029 1.744 1.029l12.5742-1.029 7.1944-3.374s-1.622-.314-3.898-.733h-.053c-4.7171-.872-12.2075-2.241-13.8556-2.311-2.5026-.104-11.7371-10.132-12.705-11.336-.968-1.203-5.8948.218-7.1156-.27s-.4185-1.639-.4185-1.639c2.141-1.424 4.5408-2.414 7.0632-2.913 3.3049-.636 3.0345 1.945 3.0345 1.945s9.592 7.046 11.5453 7.046 19.7767-.567 22.2007-1.544c2.05-.872 10.578 5.494 13.159 7.464.48.367.75.585.75.585z" fill="#757575" stroke="#263238" stroke-linecap="round" stroke-linejoin="round"/><path d="m76.5688 156.127c-.9766-1.177-5.8947.218-7.1155-.27s-.4186-1.64-.4186-1.64c2.1351-1.424 4.5289-2.417 7.0458-2.921 3.3049-.636 3.0346 1.945 3.0346 1.945s-2.7381.549-2.5463 2.886z" fill="#263238"/><path d="m126.77 166.791s-17.85 10.752-22.751 11.24c-4.9003.489-16.5241 0-16.5241 0s-2.3456.715-3.9152 1.335c-1.744.697-5.2321 1.595-4.4647-.367s4.36-5.153 6.4354-5.127c.5144 0 1.744 1.029 1.744 1.029l12.5742-1.029 7.1944-3.375s-1.622-.314-3.898-.732h.078l7.761.401s-3.863-1.177-3.488-1.866 5.232 1.84 11.789-.637c2.119-.871 4.374-1.364 6.663-1.456.531.366.802.584.802.584z" fill="#263238"/><path d="m130.938 149.971 8.118 10.847 12.906 9.531s4.316 1.143 4.857 2.25c.105.201.872 2.703.462 2.616-1.883-.357-2.747-1.221-3.261-.95-1.657.872.584 2.467 0 2.616-1.622.287-3.636-4.448-3.636-4.448s-11.022-6.871-13.403-8.257c-2.381-1.387-10.769-7.848-10.769-7.848s2.302-5.136 4.726-6.357z" fill="#bfbfbf" stroke="#263238" stroke-miterlimit="10"/><path d="m142.527 158.447 1.552 3.217s.916-.872.916 0-5.869 6.488-7.936 5.982c-2.066-.505-2.406-1.674-2.406-1.674s2.93-6.209 4.133-6.897c1.203-.689 3.741-.628 3.741-.628z" fill="#5b89f7" stroke="#263238" stroke-linecap="round" stroke-linejoin="round"/><path d="m111.021 152.926s19.464 10.115 18.844 13.507c-.619 3.393-1.142 3.741-1.142 3.741s7.072-2.371 8.057-6.906c.986-4.534-11.292-16.498-25.759-10.342z" fill="#263238"/><path d="m118.242 142.184c5.349.472 10.456 2.442 14.736 5.685 5.695 4.36 9.235 9.147 8.799 11.205-.689 3.279-11.99 7.508-19.228 9.4-7.237 1.893-15.068-3.488-14.981-6.915.088-3.427 4.107-3.086 4.107-3.086s3.637-13.534 6.567-16.289z" fill="#263238"/><path d="m128.802 147.355c-1.031-.335-2.141-.334-3.171.003s-1.926.992-2.558 1.872c-2.156 3.129-5.376 5.367-9.06 6.296-7.936 1.909-19.7513-.62-19.7513-.62.8338-2.832 1.8712-5.601 3.1043-8.284 2.1539-4.796 7.325-7.987 12.845-8.72 2.345-.322 13.376 3.89 13.376 3.89 16.882-4.762 19.821 13.777 19.821 13.777h-1.596c.535 1.006.774 2.143.689 3.279l-4.875 4.36c-3.645 8.17-11.998 8.72-12.931 7.325 0 0 10.795-.114 13.585-17.205.419-2.598-5.624-4.744-9.478-5.973z" fill="#5b89f7" stroke="#263238" stroke-linecap="round" stroke-linejoin="round"/><path d="m118.242 142.184-13.316-2.486-14.257-7.359s-2.9387-3.358-4.1682-3.358c-.2267 0-2.7991.436-2.5637.742 1.1598 1.517 2.3108 1.927 2.3108 2.502 0 1.866-2.4764.576-2.3195 1.125.4535 1.578 5.5983 1.291 5.5983 1.291s11.0393 6.845 13.3333 8.371c2.293 1.526 11.78 6.191 11.78 6.191s3.584-4.308 3.602-7.019z" fill="#bfbfbf" stroke="#263238" stroke-miterlimit="10"/><path d="m119.872 147.694c-1.953 3.157-7.133 3.488-7.133 3.488l-4.246-4.037-1.962-.541c.811-1.465 1.037-7.534 1.037-7.534s9.767 2.224 11.267 1.875 1.962 3.68 1.962 3.68" fill="#5b89f7"/><path d="m119.872 147.694c-1.953 3.157-7.133 3.488-7.133 3.488l-4.246-4.037-1.962-.541c.811-1.465 1.037-7.534 1.037-7.534s9.767 2.224 11.267 1.875 1.962 3.68 1.962 3.68" stroke="#263238" stroke-linecap="round" stroke-linejoin="round"/><path d="m122.549 147.695s1.98-3.375 0-5.511c0 0 5.04-2.799 11.415.506 6.374 3.305 8.606 7.734 9.444 12.835 0 0-3.645-1.334-5.232 3.148" stroke="#263238" stroke-linecap="round" stroke-linejoin="round"/><path d="m143.155 141.486c1.439.41 3.278 2.616 1.787 3.279-1.491.662-.732 1.604-.628 1.953.105.349.166 1.151-1.159 1.264-1.326.114-1.43-.462-1.954.34-.523.803.332.323-.95.872-1.282.55-1.055.602-2.041.637-.985.035-2.118.61-2.72-.994-.602-1.605 5.084-8.101 7.665-7.351z" fill="#263238"/><path d="m132.194 136.995c-6.427-.357-7.936 10.264-2.869 16.734 5.066 6.47 20.117-15.749 2.869-16.734z" fill="#bfbfbf" stroke="#263238" stroke-miterlimit="10"/><path d="m130.275 143.448c.707-1.081 3.227 2.18 3.488 1.378.262-.802 1.491.942 2.015 1.133.825.123 1.668-.011 2.415-.383.689-.349 3.218 1.194 4.02.453.226-.167.393-.401.476-.669.083-.269.078-.557-.014-.822 0 0 1.901-.288 2.241-1.09s-1.151.366-.401-1.256 2.616-2.616 1.256-3.287c-1.361-.671-2.346-1.439-1.831-2.703.514-1.265.174-3.166-.977-3.166s-4.081.811-3.968-.627c.114-1.439-4.595-1.901-5.293-.977-.697.924-2.616-.497-3.619-.48-1.002.018-3.906 2.084-3.488 3.41.419 1.325-.566 1.36-.976 2.616-.17.468-.232.968-.183 1.463.05.495.211.972.471 1.397.348.314-1.744-.314-.977 1.465s.802 2.572 1.09 2.686c.288.113.41-1.997 1.613-2.459 1.204-.462.802 2.991.802 2.991s.986.244 1.84-1.073z" fill="#263238"/><path d="m129.848 145.907c.469-.16.966-.219 1.459-.173.493.047.971.198 1.401.444" stroke="#263238" stroke-linecap="round" stroke-linejoin="round"/><path d="m136.257 146.831c.223-.114.466-.181.715-.199.249-.017.499.016.735.097.236.082.453.21.639.377.185.167.335.37.44.597" stroke="#263238" stroke-linecap="round" stroke-linejoin="round"/><path d="m134.653 148.897c-.175 1.84.575 3.166-1.378 2.765" stroke="#263238" stroke-linecap="round" stroke-linejoin="round"/><path d="m131.592 148.383c-.078.331-.314.549-.532.506-.218-.044-.34-.358-.27-.68.07-.323.314-.55.532-.497.218.052.27.348.27.671z" fill="#263238"/><path d="m137.173 149.299c-.07.323-.305.541-.532.497s-.34-.357-.262-.68c.079-.323.314-.549.532-.497s.34.349.262.68z" fill="#263238"/><path d="m360.823 145.061c-.525.187-1.091.233-1.639.131-2.145-.27-5.162-1.866-5.747-4.151-.039-.157-.088-.311-.148-.462-.18-.691-.539-1.323-1.041-1.831-.503-.509-1.13-.875-1.819-1.064 0 0-1.413-1.151-1.413-1.91 0-.758.933-2.494.707-3.836-.227-1.343.444-3.733 1.5-4.308.819-.395 1.736-.542 2.637-.423.902.12 1.749.5 2.438 1.094 1.744 1.526 3.357 6.976 4.987 9.767 1.631 2.79 1.265 6.252-.462 6.993z" fill="#5b89f7"/><path d="m359.184 145.192c-2.145-.271-5.162-1.866-5.747-4.151-.038-.157-.088-.312-.148-.462 1.422-.114 3.915-.872 4.308-4.36.017-.018 4.264 5.223 1.587 8.973z" fill="#000" fill-opacity=".7" opacity=".3"/><path d="m360.823 145.061c-.525.187-1.091.233-1.639.131-2.145-.27-5.162-1.866-5.747-4.151-.039-.157-.088-.311-.148-.462-.18-.691-.539-1.323-1.041-1.831-.503-.509-1.13-.875-1.819-1.064 0 0-1.413-1.151-1.413-1.91 0-.758.933-2.494.707-3.836-.227-1.343.444-3.733 1.5-4.308.819-.395 1.736-.542 2.637-.423.902.12 1.749.5 2.438 1.094 1.744 1.526 3.357 6.976 4.987 9.767 1.631 2.79 1.265 6.252-.462 6.993z" stroke="#263238" stroke-linecap="round" stroke-linejoin="round"/><path d="m357.614 135.242s-.209 4.465-2.005 4.674" stroke="#263238" stroke-linecap="round" stroke-linejoin="round"/><path d="m356.394 185.155-8.546-22.846c-.079-.227-.157-.454-.218-.689-1.326-4.735.436-11.109 1.561-15.077.35-1.306.61-2.634.776-3.976.283-2.202.455-4.417.514-6.636 2.939-2.171 5.232 1.456 5.232 1.456s-.767 2.886 1.343 15.775c2.11 12.888 5.014 29.081-.662 31.993z" fill="#fff"/><path d="m354.161 165.422-6.496-3.801c-1.326-4.735.436-11.11 1.561-15.077.35-1.306.609-2.635.776-3.977 5.275 6.715 4.159 22.855 4.159 22.855z" fill="#5b89f7" opacity=".4"/><path d="m356.394 185.155-8.546-22.846c-.079-.227-.157-.454-.218-.689-1.326-4.735.436-11.109 1.561-15.077.35-1.306.61-2.634.776-3.976.283-2.202.455-4.417.514-6.636 2.939-2.171 5.232 1.456 5.232 1.456s-.767 2.886 1.343 15.775c2.11 12.888 5.014 29.081-.662 31.993z" stroke="#263238" stroke-linecap="round" stroke-linejoin="round"/><path d="m339.267 173.619c-12.844 5.362-51.744-20.126-52.703-20.327 0 0 31.043-5.485 35.656-6.566.196-.033.386-.091.567-.174.139.139 1.569 1.238 3.61 2.921 7.386 6.113 22.724 20.021 12.87 24.146z" fill="#fff"/><path d="m339.267 173.619c-12.844 5.363-51.744-20.126-52.703-20.326 0 0 31.043-5.485 35.656-6.566 1.383.866 2.776 1.781 4.177 2.746 7.386 6.113 22.724 20.021 12.87 24.146z" fill="#5b89f7" opacity=".4"/><path d="m339.267 173.619c-12.844 5.362-51.744-20.126-52.703-20.327 0 0 31.043-5.485 35.656-6.566.196-.033.386-.091.567-.174.139.139 1.569 1.238 3.61 2.921 7.386 6.113 22.724 20.021 12.87 24.146z" stroke="#263238" stroke-linecap="round" stroke-linejoin="round"/><path d="m359.132 175.363c.941 7.465-1.954 11.65-7.892 10.517l-.671-.14c-10.403-2.223-11.738-8.327-25.062-19.184-4.613-3.776-9.13-6.793-12.984-9.487-6.104-4.299-10.612-7.796-11.205-12.208-.959-7.229-9.862-17.711 6.758-23.971 12.487-4.692 33.825 19.402 43.164 34.757 1.657 2.707 3.142 5.514 4.447 8.407" fill="#fff"/><path d="m350.569 185.74c-10.403-2.224-11.738-8.328-25.062-19.184-4.613-3.776-9.13-6.793-12.984-9.487l5.415-1.57 3.314 1.212c5.893 5.485 11.378 11.392 16.411 17.676 3.476 4.63 7.869 8.495 12.906 11.353z" fill="#5b89f7" opacity=".4"/><path d="m359.132 175.363c.941 7.465-1.954 11.65-7.892 10.517l-.671-.14c-10.403-2.223-11.738-8.327-25.062-19.184-4.613-3.776-9.13-6.793-12.984-9.487-6.104-4.299-10.612-7.796-11.205-12.208-.959-7.229-9.862-17.711 6.758-23.971 12.487-4.692 33.825 19.402 43.164 34.757 1.657 2.707 3.142 5.514 4.447 8.407" stroke="#263238" stroke-linecap="round" stroke-linejoin="round"/><path d="m321.252 121.368c5.938 1.081 19.184 13.298 19.733 14.563.55 1.264 2.111 3.958 2.111 3.958h1.534s-2.686 11.118-7.089 15.33c-4.404 4.212-22.541 4.787-24.303 4.221-1.348-.553-2.593-1.331-3.68-2.302l-13.219-3.846z" fill="#263238"/><path d="m243.853 144.625c-1.386 2.852-8.24 5.11-8.72 6.479-.508 1.062-1.294 1.966-2.276 2.616-.302-.331-.47-.763-.47-1.212 0-.448.168-.881.47-1.212 1.108-1.247 1.23-3.915 1.23-3.915-.943-.434-1.913-.807-2.904-1.116-.331-.079-1.038-.21-1.866-.349-1.657-.288-3.802-.628-4.36-.776-.66-.237-1.256-.622-1.744-1.125-1.116.087-2.825-2.241-1.805-2.084 2.732.32 5.491.32 8.223 0-7.098-1.744-6.427-3.488-6.427-3.488 2.224 1.16 8.528 1.526 8.528 1.526s-3.802-1.64-4.464-2.503c-.142-.209-.227-.452-.248-.703-.022-.252.022-.505.126-.736 1.768.98 3.648 1.744 5.598 2.276 3.407.695 6.916.722 10.333.079z" fill="#fff"/><path d="m243.853 144.625c-1.386 2.852-8.24 5.11-8.72 6.479-.508 1.062-1.294 1.966-2.276 2.616-.302-.331-.47-.763-.47-1.212 0-.448.168-.881.47-1.212 1.108-1.247 1.23-3.915 1.23-3.915-.943-.434-1.913-.807-2.904-1.116-.331-.079-1.038-.21-1.866-.349 3.383-.061 7.63-.288 8.833-1.073 0 0-1.7-3.34-1.377-5.999.034-.474.168-.935.394-1.353.225-.417.537-.783.914-1.071 1.046-.768 2.895.279 4.874 1.988h.044z" fill="#5b89f7" opacity=".4"/><path d="m243.853 144.625c-1.386 2.852-8.24 5.11-8.72 6.479-.508 1.062-1.294 1.966-2.276 2.616-.302-.331-.47-.763-.47-1.212 0-.448.168-.881.47-1.212 1.108-1.247 1.23-3.915 1.23-3.915-.943-.434-1.913-.807-2.904-1.116-.331-.079-1.038-.21-1.866-.349-1.657-.288-3.802-.628-4.36-.776-.66-.237-1.256-.622-1.744-1.125-1.116.087-2.825-2.241-1.805-2.084 2.732.32 5.491.32 8.223 0-7.098-1.744-6.427-3.488-6.427-3.488 2.224 1.16 8.528 1.526 8.528 1.526s-3.802-1.64-4.464-2.503c-.142-.209-.227-.452-.248-.703-.022-.252.022-.505.126-.736 1.768.98 3.648 1.744 5.598 2.276 3.407.695 6.916.722 10.333.079z" stroke="#263238" stroke-linecap="round" stroke-linejoin="round"/><path d="m223.3 143.988s-.75-.131 2.616-.244c1.475-.024 2.948-.126 4.412-.306" stroke="#263238" stroke-linecap="round" stroke-linejoin="round"/><path d="m376.293 104.304c1.63-.384 6.609-3.837 8.432-6.043 1.232-1.5687 2.274-3.2782 3.104-5.0925.218.1287.4.3106.528.5288.128.2181.198.4653.205.7182-.044 1.09-2.207 4.6129-2.207 4.6129s4.936-3.9327 6.104-6.1563c0 0 1.579 1.0725-3.208 6.5923 2.417-1.3077 4.674-2.8939 6.723-4.7263.75-.715.689 2.1713-.271 2.7468-.106.687-.368 1.3404-.767 1.9097-.567.6714-3.776 3.7584-4.447 4.5254-.638.833-1.221 1.707-1.744 2.616 0 0 1.622 2.111 3.252 2.494.441.087.833.336 1.099.697.267.362.388.81.34 1.257-1.171.04-2.331-.237-3.357-.803-1.142-.872-8.04 1.247-10.822-.287" fill="#fff"/><path d="m376.293 104.304c1.63-.384 6.609-3.837 8.432-6.043 1.232-1.5687 2.274-3.2782 3.104-5.0925.218.1287.4.3106.528.5288.128.2181.198.4653.205.7182-.044 1.09-2.207 4.6129-2.207 4.6129s4.936-3.9327 6.104-6.1563c0 0 1.579 1.0725-3.208 6.5923 2.417-1.3077 4.674-2.8939 6.723-4.7263.75-.715.689 2.1713-.271 2.7468-.106.687-.368 1.3404-.767 1.9097-.567.6714-3.776 3.7584-4.447 4.5254-.638.833-1.221 1.707-1.744 2.616 0 0 1.622 2.111 3.252 2.494.441.087.833.336 1.099.697.267.362.388.81.34 1.257-1.171.04-2.331-.237-3.357-.803-1.142-.872-8.04 1.247-10.822-.287" stroke="#263238" stroke-linecap="round" stroke-linejoin="round"/><path d="m381.228 109.762s-22.044 11.606-26.823 11.606c-6.418 0-25.488 11.241-25.488 11.241l-7.665-18.478s16.681-2.677 21.268-2.546c5.171.139 9.008-4.631 17.44-5.433 11.493-1.099 18.207-2.136 18.207-2.136" fill="#fff"/><path d="m381.228 109.762s-22.044 11.607-26.823 11.607c-6.418 0-25.488 11.24-25.488 11.24l-7.665-18.478s5.825-.933 11.537-1.674c3.422 2.558 5.983 6.099 7.342 10.15 0 0 8.72-3.34 10.124-4.29 1.404-.951 0-4.456 0-4.456 1.329-.24 2.69-.24 4.02 0 2.302.392.688 4.028.688 4.028 9.02-1.759 17.821-4.496 26.248-8.161z" fill="#5b89f7" opacity=".4"/><path d="m381.228 109.762s-22.044 11.606-26.823 11.606c-6.418 0-25.488 11.241-25.488 11.241l-7.665-18.478s16.681-2.677 21.268-2.546c5.171.139 9.008-4.631 17.44-5.433 11.493-1.099 18.207-2.136 18.207-2.136" stroke="#263238" stroke-linecap="round" stroke-linejoin="round"/><path d="m334.088 132.608-2.616 1.012-11.197 4.36s-4.412 9.391-8.432 13.804c-4.02 4.412-18.931 6.487-26.622 4.97s-19.35 4.787-24.756 0c-5.407-4.787-18.548-10.734-23.719-18.783-1.578-2.459-1.046-5.04.463-7.438 3.444-5.467 11.929-9.993 11.929-9.993 11.023-4.878 22.764-7.937 34.766-9.06 9.253-.785 18.571-.198 27.651 1.744 2.948.593 4.692.985 5.093.636 1.552-1.351 4.499-.941 5.075-.872h.105s-.349-2.197 1.159-2.616c1.003-.296 2.826.192 6.104 2.616 8.293 6.148 4.997 19.62 4.997 19.62z" fill="#5b89f7"/><path d="m331.489 133.62-11.196 4.36s-4.413 9.392-8.432 13.804c-4.02 4.412-18.949 6.488-26.64 4.97-7.691-1.517-19.35 4.788-24.756 0-5.407-4.787-18.548-10.734-23.719-18.783-1.578-2.459-1.046-5.04.463-7.438 0 0-.463 9.863 7.595 13.167 8.057 3.305 8.72 3.166 8.72 3.166s7.586 8.197 10.002 9.348c2.415 1.151 18.739-3.715 20.239-3.061s6.897 4.901 15.748 2.023 17.37-10.926 17.248-16.21c-.076-3.077.041-6.155.349-9.218 0 0 3.488 3.488 5.406 3.811 0 0 3.436-4.909 3.907-6.906 0 0 1.866.959.532 5.947s4.299-4.561 4.299-8.467c.026-2.799 1.77 2.747.235 9.487z" fill="#000" fill-opacity=".7" opacity=".3"/><path d="m311.555 113.224c-1.36 2.154-5.188 5.319-15.975 5.624-16.507.462-17.44-3.81-17.44-3.81l5.747-3.558c9.258-.787 18.582-.199 27.668 1.744z" fill="#000" fill-opacity=".7" opacity=".3"/><path d="m321.688 113.014h.105s-.349-2.197 1.159-2.616c2.146 1.282 4.875 3.34 4.866 5.494-1.943-1.159-3.997-2.123-6.13-2.878z" fill="#000" fill-opacity=".7" opacity=".3"/><path d="m334.088 132.608-2.616 1.012-11.197 4.36s-4.412 9.391-8.432 13.804c-4.02 4.412-18.931 6.487-26.622 4.97s-19.35 4.787-24.756 0c-5.407-4.787-18.548-10.734-23.719-18.783-1.578-2.459-1.046-5.04.463-7.438 3.444-5.467 11.929-9.993 11.929-9.993 11.023-4.878 22.764-7.937 34.766-9.06 9.253-.785 18.571-.198 27.651 1.744 2.948.593 4.692.985 5.093.636 1.552-1.351 4.499-.941 5.075-.872h.105s-.349-2.197 1.159-2.616c1.003-.296 2.826.192 6.104 2.616 8.293 6.148 4.997 19.62 4.997 19.62z" stroke="#263238" stroke-linecap="round" stroke-linejoin="round"/><path d="m294.708 141.024c-.738.587-1.51 1.132-2.31 1.63-1.386.891-2.862 1.634-4.404 2.215-7.752 2.887-21.521 1.927-30.258-2.04-.876-.389-1.726-.832-2.547-1.326-1.126-.662-2.166-1.462-3.095-2.38-6.75-6.898-3.837-12.566 0-15.199 1.047-.703 2.15-1.321 3.296-1.849.872-.436 1.901-.872 2.938-1.229 9.654-3.567 24.181-5.232 34.113-4.064 1.108.122 2.154.279 3.139.488 3.872.776 6.662 2.119 7.543 4.099 2.773 6.165-1.779 14.44-8.415 19.655z" fill="#fff" stroke="#263238" stroke-linecap="round" stroke-linejoin="round"/><path d="m294.708 141.024c-.738.587-1.51 1.132-2.311 1.63-3.119-8.342-3.119-17.53 0-25.872 1.108.122 2.154.279 3.14.489-4.369 8.85-2.145 19.201-.829 23.753z" fill="#263238"/><path d="m257.735 142.829c-.875-.389-1.725-.832-2.546-1.326-.511-6.469-.444-12.971.201-19.428.872-.436 1.901-.872 2.938-1.229-2.11 8.502-1.229 17.614-.593 21.983z" fill="#263238"/><path d="m395.686 97.4841s.541-.5406-2.241 1.2819c-1.219.8324-2.483 1.598-3.785 2.293" stroke="#263238" stroke-linecap="round" stroke-linejoin="round"/><path d="m321.828 113.032c2.023.406 3.9 1.349 5.434 2.73s2.669 3.148 3.286 5.118c2.18 6.863 1.151 8.912 1.151 8.912" stroke="#263238" stroke-linecap="round" stroke-linejoin="round"/><path d="m316.648 113.86s-2.337 5.45-2.128 9.47 3.418 9.017 3.418 9.017" stroke="#263238" stroke-linecap="round" stroke-linejoin="round"/><path d="m304.832 131.476s-10.002 20.056-27.485 18.076" stroke="#263238" stroke-linecap="round" stroke-linejoin="round"/><path d="m246.739 132.347s-.784 9.592 14.624 15.138" stroke="#263238" stroke-linecap="round" stroke-linejoin="round"/><path d="m320.293 137.971s7.499-10.612 6.627-14.867" stroke="#263238" stroke-linecap="round" stroke-linejoin="round"/><g opacity=".2" stroke="#fff" stroke-linecap="round" stroke-linejoin="round"><path d="m342.468 140.578s-5.442 12.618-11.188 12.583"/><path d="m329.789 136.663s1.84 12.435-4.142 17.03"/></g><path d="m271.426 137.972c-1.683-3.558-5.651-5.049-9.418-5.625-2.803-.398-5.645-.439-8.458-.122l.331-.68 6.584-13.655s17.196-4.64 20.544 3.488" fill="#fff"/><path d="m271.426 137.972c-1.683-3.558-5.651-5.049-9.418-5.625-2.803-.398-5.645-.439-8.458-.122l.331-.68 6.584-13.655s17.196-4.64 20.544 3.488" stroke="#263238" stroke-linecap="round" stroke-linejoin="round"/><path d="m262.008 132.347c-2.803-.398-5.645-.439-8.458-.122l.331-.68c1.517-1.631 4.212-3.244 8.52-4.36.284.842.396 1.734.328 2.621-.067.886-.312 1.751-.721 2.541z" fill="#263238"/><path d="m238.168 109.937s-1.866 4.848-8.537.384c-6.671-4.465-2.189-7.683-2.189-7.683s-2.18 2.738 3.567 5.049c0 0-4.36-1.744-2.616-7.577 1.744-5.8341 9.775 9.827 9.775 9.827z" fill="#263238"/><path d="m263.552 126.383c-.733 4.281-8.842 10.882-14.728 10.237-2.739-.305-13.508-7.682-13.176-17.859.235-7.342-5.703-14.431-1.273-25.8195 5.38-13.8299 24.634-19.9601 36.057-7.4469 6.522 7.1417 4.316 23.0384-1.936 35.2284" fill="#fff"/><path d="m263.552 126.383c-.733 4.281-8.842 10.882-14.728 10.237-2.739-.305-13.508-7.682-13.176-17.859.235-7.342-5.703-14.431-1.273-25.8195 5.38-13.8299 24.634-19.9601 36.057-7.4469 6.522 7.1417 4.316 23.0384-1.936 35.2284" stroke="#263238" stroke-linecap="round" stroke-linejoin="round"/><path d="m246.74 105.585s5.031-1.953 8.109 1.657" stroke="#263238" stroke-linecap="round" stroke-linejoin="round"/><path d="m250.184 113.869c0 .95-.462 1.744-1.02 1.744s-1.003-.785-.994-1.744c.008-.959.47-1.744 1.02-1.744.549 0 .994.802.994 1.744z" fill="#263238"/><path d="m239.171 113.041c0 .959-.463 1.744-1.021 1.744s-.994-.776-.994-1.744.471-1.744 1.029-1.744.994.759.986 1.744z" fill="#263238"/><path d="m238.238 106.117s-3.602-2.616-5.006.244" stroke="#263238" stroke-linecap="round" stroke-linejoin="round"/><path d="m241.638 114.131c-.139 1.282-3.653 4.36-2.415 5.659.675.744 1.54 1.289 2.502 1.578" stroke="#263238" stroke-linecap="round" stroke-linejoin="round"/><path d="m240.592 124.656c3.552.589 7.192.338 10.63-.732" stroke="#263238" stroke-linecap="round" stroke-linejoin="round"/><path d="m251.204 123.924s-1.456 4.761-5.066 4.726-4.072-3.793-4.072-3.793" stroke="#263238" stroke-linecap="round" stroke-linejoin="round"/><path d="m258.686 100.799s2.058 7.952 5.485 10.158c2.014 1.26 3.582 3.121 4.482 5.32l1.046 5.502s8.241 5.563 12.845 1.744 7.185-3.349 7.185-3.349-.384-2.11-4.36-1.438c0 0 8.72.872 7.377-6.976s-29.561-22.8381-34.06-10.961z" fill="#263238"/><path d="m249.138 94.3802s-4.727-.9592-10.177 5.4588c-3.566 4.203-8.781 3.741-11.798.724-3.017-3.0174-2.729-12.5048-6.897-12.7925 0 0 4.307-2.3021 7.324 1.0028 0 0 2.015-2.0144-.139-4.5955s1.046-9.592 8.284-8.3363c0 0-3.558.872-1.038 2.8602 0 0 4.683-5.5895 10.578-5.014 5.894.5755 20.666-6.261 24.416 5.5982 0 0 5.607-2.3108 8.911-.5842 3.305 1.7265 5.756 11.2226 9.348 13.5247 3.593 2.3021 7.901-1.8748 10.918-1.1511 3.017.7238 5.319 3.7322 5.319 3.7322s-2.878-1.151-4.883.2878c0 0 5.886 4.3164 8.763 1.744 0 0-1.29 12.7927-12.504 14.2307 0 0 4.604 2.006 11.214 0-4.998 3.533-10.763 5.829-16.821 6.697-9.592 1.204-7.613-5.354-23.038-8.135-4.814-.872-4.892-7.848-4.892-7.848-.43 1.794-.56 3.647-.384 5.484.288 3.087 2.878 5.764 5.031 5.79 0 0-6.217 1.099-8.911-2.554-4.613-6.261-2.154-14.6588-2.154-14.6588s-4.822-2.398-10.63 3.8804c-4.717 5.0924-8.336 3.4444-8.336 3.4444 1.946-.251 3.742-1.177 5.075-2.616 1.971-2.2934 4.177-6.1738 7.421-6.1738z" fill="#263238"/><path d="m264.816 114.131s3.532-6.104 6.217-3.584c2.686 2.52 2.983 4.142 2.215 5.773-.952 1.96-2.144 3.793-3.549 5.459-.217.257-.489.464-.794.605-.306.142-.639.215-.976.215s-.67-.073-.975-.215c-.306-.141-.577-.348-.795-.605" fill="#fff"/><path d="m264.816 114.131s3.532-6.104 6.217-3.584c2.686 2.52 2.983 4.142 2.215 5.773-.952 1.96-2.144 3.793-3.549 5.459-.217.257-.489.464-.794.605-.306.142-.639.215-.976.215s-.67-.073-.975-.215c-.306-.141-.577-.348-.795-.605" stroke="#263238" stroke-linecap="round" stroke-linejoin="round"/><g opacity=".2" stroke="#fff" stroke-linecap="round" stroke-linejoin="round"><path d="m257.683 91.3625s.619-5.9732-5.633-5.3976c-7.473.6888-12.112 12.7399-18.818 12.8271-6.104.0784-3.601-7.848-3.601-7.848"/><path d="m261.363 91.4854s-3.636 2.1102-2.677 7.3771c.959 5.2665 5.668 10.6475 13.377 8.8245 7.708-1.822 10.577-2.407 14.606 1.744 4.028 4.151 14.135.488 12.068-4.412"/><path d="m262.976 88.0322s3.331 12.7658 14.031 11.3883c10.699-1.3777 17.911-8.624 22.009-6.2173"/><path d="m265.74 84.2906s.803-3.8455 6.209.5232c5.407 4.3687 8.049 7.473 11.729 5.4064"/><path d="m262.392 85.8957s2.878-2.7207-.689-6.1651c-3.566-3.4444-14.144 4.02-22.079 3.6799s-1.395-5.7552-1.395-5.7552"/><path d="m265.74 79.9834s1.605-5.4064-5.406-6.7842"/></g><path d="m221.051 216.862c.931-.76 2.015-1.309 3.179-1.61 1.163-.301 2.378-.347 3.561-.134.52.039 1.025.195 1.477.455.453.26.841.618 1.136 1.049.295.43.491.921.571 1.436.081.515.044 1.042-.106 1.542 0 0 7.316 6.209 12.984 18.312s9.462 33.72 9.462 33.72l-88.997-4.36s13.848-22.105 16.751-26.247c2.904-4.142 8.72-9.278 8.72-9.278.304-.811.814-1.529 1.481-2.081.667-.553 1.468-.92 2.321-1.067 3.105-.689 5.546-.349 6.226.689.186.383.282.804.282 1.23 0 .425-.096.846-.282 1.229 0 0 .236 17.013 1.84 17.283 1.605.27 19.35-1.456 19.35-1.456s2.023-9.252 2.485-11.005l-1.212-14.187s-3.924-4.072-1.229-5.52z" fill="#263238"/><path d="m220.536 218.187s-2.45-3.776-1.875-4.683c.576-.906 5.982-2.52 7.421-2.162 1.439.357 2.947 6.304 1.474 6.845-1.474.541-7.02 0-7.02 0z" stroke="#263238" stroke-linecap="round" stroke-linejoin="round"/><path d="m198.902 230.124s1.997-3.095 1.526-3.828c-.471-.732-4.892-2.066-6.104-1.744-1.212.323-2.416 5.154-1.204 5.599 1.212.444 5.782-.027 5.782-.027z" stroke="#263238" stroke-linecap="round" stroke-linejoin="round"/><path d="m226.065 234.912s2.066-7.429 5.633-7.508" opacity=".4" stroke="#fff" stroke-linecap="round" stroke-linejoin="round"/><path d="m231.698 232.61s7.961 1.858 10.464 8.406" opacity=".4" stroke="#fff" stroke-linecap="round" stroke-linejoin="round"/><path d="m182.247 243.335s6.33-6.583 13.001-5.432" opacity=".4" stroke="#fff" stroke-linecap="round" stroke-linejoin="round"/><path d="m193.155 230.125s3.855-1.421 5.346 2.485" opacity=".4" stroke="#fff" stroke-linecap="round" stroke-linejoin="round"/><path d="m223.344 219.504s2.407-3.34 5.537-1.072" opacity=".4" stroke="#fff" stroke-linecap="round" stroke-linejoin="round"/><path d="m355.757 340.381-6.976 10.507c.202.562.435 1.113.698 1.649.933 1.953 2.834 5.101 5.886 6.531 4.246 1.997 5.31 4.412 7.778 3.645.207-.057.408-.133.602-.227 2.912-1.378.706-3.68 1.656-5.52.951-1.84 5.163-2.372 6.697-3.837 1.535-1.464.628-3.488 1.43-5.371.803-1.884-1.255-3.628-2.345-4.072-1.09-.445-.959-3.959-3.288-3.488-2.328.471-2.712-1.622-3.209-2.128s-7.752 1.692-8.929 2.311z" fill="#fff"/><path d="m349.47 352.536c.933 1.953 2.834 5.101 5.886 6.531 4.247 1.997 5.31 4.413 7.778 3.645-2.084-1.325-3.793-3.2-4.307-4.595-.724-1.901-5.416-4.421-9.357-5.581z" fill="#5b89f7" opacity=".4"/><path d="m355.757 340.381-6.976 10.507c.202.562.435 1.113.698 1.649.933 1.953 2.834 5.101 5.886 6.531 4.246 1.997 5.31 4.412 7.778 3.645.207-.057.408-.133.602-.227 2.912-1.378.706-3.68 1.656-5.52.951-1.84 5.163-2.372 6.697-3.837 1.535-1.464.628-3.488 1.43-5.371.803-1.884-1.255-3.628-2.345-4.072-1.09-.445-.959-3.959-3.288-3.488-2.328.471-2.712-1.622-3.209-2.128s-7.752 1.692-8.929 2.311z" stroke="#263238" stroke-linecap="round" stroke-linejoin="round"/><path d="m358.312 341.637-18.765-9.156c-4.692-2.294-14.554-6.776-19.498-9.235-1.432-.766-3.004-1.234-4.622-1.378-1.918-.122-3.191.401-4.604.227-2.293-.288-19.324-.828-19.324-.828l-2.947 10.795-5.973 21.931 6.278-2.102 24.111-8.083s9.287 4.098 18.469 3.994c7.281-.088 16.306 3.845 19.742 5.484.872.428 1.413.698 1.413.698" fill="#fff"/><path d="m291.508 321.267-2.956 10.795.305 19.829 24.111-8.083s9.287 4.098 18.469 3.994c7.281-.088 16.306 3.845 19.742 5.484-5.651-4.299-15.644-7.961-19.672-8.083-6.305-.183-13.577-6.383-13.577-6.383-3.052 3.357-8.528 3.174-8.528 3.174 7.603-8.668 7.281-15.958 6.025-20.126-1.918-.122-3.191.401-4.604.227-2.285-.288-19.315-.828-19.315-.828z" fill="#5b89f7" opacity=".4"/><path d="m358.312 341.637-18.765-9.156c-4.692-2.294-14.554-6.776-19.498-9.235-1.432-.766-3.004-1.234-4.622-1.378-1.918-.122-3.191.401-4.604.227-2.293-.288-19.324-.828-19.324-.828l-2.947 10.795-5.973 21.931 6.278-2.102 24.111-8.083s9.287 4.098 18.469 3.994c7.281-.088 16.306 3.845 19.742 5.484.872.428 1.413.698 1.413.698" stroke="#263238" stroke-linecap="round" stroke-linejoin="round"/><path d="m74.0401 255.875v12.618c-.4772.357-.9751.686-1.4912.985-1.8573 1.108-5.232 2.677-8.5194 2.18-4.639-.689-6.8626.733-8.4933-1.264-.138-.165-.2633-.34-.3749-.523-1.6656-2.765 1.4475-3.488 1.6742-5.52s-2.991-4.831-3.488-6.898c-.497-2.066 1.3865-3.226 1.744-5.232.3575-2.005 3.052-2.328 4.203-2.093 1.1511.236 2.991-2.764 4.6652-1.072 1.6743 1.692 3.1567.148 3.8456 0 .6888-.148 5.5633 5.65 6.2348 6.819z" fill="#fff"/><path d="m72.5141 269.478c-1.8574 1.107-5.232 2.677-8.5195 2.18-4.639-.689-6.8626.732-8.4933-1.265 2.4678.044 4.9268-.566 6.104-1.447 1.7004-1.212 6.9848-.689 10.9088.532z" fill="#5b89f7" opacity=".4"/><path d="m74.0401 255.875v12.618c-.4772.357-.9751.686-1.4912.985-1.8573 1.108-5.232 2.677-8.5194 2.18-4.639-.689-6.8626.733-8.4933-1.264-.138-.165-.2633-.34-.3749-.523-1.6656-2.765 1.4475-3.488 1.6742-5.52s-2.991-4.831-3.488-6.898c-.497-2.066 1.3865-3.226 1.744-5.232.3575-2.005 3.052-2.328 4.203-2.093 1.1511.236 2.991-2.764 4.6652-1.072 1.6743 1.692 3.1567.148 3.8456 0 .6888-.148 5.5633 5.65 6.2348 6.819z" stroke="#263238" stroke-linecap="round" stroke-linejoin="round"/><path d="m71.1712 255.5 20.7013 2.756c5.1709.688 15.8705 2.415 21.3465 3.104 1.617.152 3.186.629 4.613 1.404 1.665.959 2.442 2.101 3.706 2.738 2.075 1.029 16.568 10.002 16.568 10.002l-3.532 10.621-7.159 21.573-4.063-5.232-15.6-20.056s-10.0022-1.744-17.5974-6.898c-6.0168-4.098-15.696-5.816-19.4804-6.356-.9854-.14-1.5609-.201-1.5609-.201" fill="#fff"/><path d="m138.097 275.504-3.531 10.621-11.223 16.35-15.6-20.056s-10.002-1.744-17.5971-6.898c-6.0168-4.098-15.696-5.816-19.4805-6.357 7.0894-.453 17.44 2.032 20.8583 4.16 5.354 3.331 14.8243 2.197 14.8243 2.197.689 4.482 5.345 7.36 5.345 7.36-1.535-11.432 2.773-17.318 6.104-20.1 1.666.959 2.442 2.102 3.706 2.738 2.11 1.012 16.594 9.985 16.594 9.985z" fill="#5b89f7" opacity=".4"/><path d="m71.1712 255.5 20.7013 2.756c5.1709.688 15.8705 2.415 21.3465 3.104 1.617.152 3.186.629 4.613 1.404 1.665.959 2.442 2.101 3.706 2.738 2.075 1.029 16.568 10.002 16.568 10.002l-3.532 10.621-7.159 21.573-4.063-5.232-15.6-20.056s-10.0022-1.744-17.5974-6.898c-6.0168-4.098-15.696-5.816-19.4804-6.356-.9854-.14-1.5609-.201-1.5609-.201" stroke="#263238" stroke-linecap="round" stroke-linejoin="round"/><path d="m152.459 277.396-6.863 52.32-.331 2.555s-17.161-13.664-27.904-31.322c-.584-.968-1.107-1.91-1.561-2.843-7.848-16.071 3.854-26.692 14.292-29.909 11.031-3.401 6.523 3.444 6.523 3.444 7.909-1.072 15.844 5.755 15.844 5.755z" fill="#757575"/><path d="m145.596 329.733-.331 2.555s-17.161-13.664-27.904-31.322c-.584-.968-1.107-1.909-1.561-2.843-.82-4.272-1.256-8.153-.567-9.592 1.84-3.915 7.587-5.641 7.587-5.641s2.206 24.948 7.586 32.36c3.735 4.943 8.011 9.453 12.749 13.446z" fill="#000" fill-opacity=".7" opacity=".3"/><path d="m152.459 277.396-6.863 52.32-.331 2.555s-17.161-13.664-27.904-31.322c-.584-.968-1.107-1.91-1.561-2.843-7.848-16.071 3.854-26.692 14.292-29.909 11.031-3.401 6.523 3.444 6.523 3.444 7.909-1.072 15.844 5.755 15.844 5.755z" stroke="#263238" stroke-linecap="round" stroke-linejoin="round"/><path d="m306.751 345.351c-3.161 2.675-6.813 4.707-10.752 5.982-13.847 4.665-47.829 8.371-47.829 8.371l1.944-3.732 22.977-44.159s27.591 2.433 33.049 7.735c0 0-.689-8.144 5.503 3.671 4.316 8.241 1.744 16.376-4.892 22.132z" fill="#757575"/><path d="m306.751 345.351c-3.161 2.675-6.813 4.707-10.752 5.982-13.847 4.665-47.829 8.371-47.829 8.371l1.944-3.732c11.903-1.927 29.212-5.686 33.485-9.383 6.104-5.232 4.36.549 4.36.549s10.804-8.501 13.333-14.946c2.529-6.444 4.656-7.333 5.432-3.086.517 2.838.407 5.754-.322 8.546-.729 2.791-2.06 5.389-3.898 7.612-2.18 2.616.628 2.119 4.247.087z" fill="#000" fill-opacity=".7" opacity=".3"/><path d="m306.751 345.351c-3.161 2.675-6.813 4.707-10.752 5.982-13.847 4.665-47.829 8.371-47.829 8.371l1.944-3.732 22.977-44.159s27.591 2.433 33.049 7.735c0 0-.689-8.144 5.503 3.671 4.316 8.241 1.744 16.376-4.892 22.132z" stroke="#263238" stroke-linecap="round" stroke-linejoin="round"/><path d="m131.714 311.814c-7.848-17.257 16.315-37.409 16.315-37.409l9.723-1.605c.994-16.271 34.767-30.581 46.068-31.697 17.98-1.744 53.82 22.411 62.522 34.95 8.703 12.539 5.285 27.904 5.285 27.904s21.224 17.065 22.515 28.314c1.29 11.249-35.752 36.737-76.736 24.843s-67.572-5.659-85.692-45.3z" fill="#757575"/><path d="m215.478 260.61c-22.541-4.421-45.466 11.719-45.466 11.719-3.584-.078-10.158.419-13.864.733l1.569-.262c.349-5.729 4.761-11.214 10.822-15.957 12.059-4.831 27.677-9.226 28.915-8.363 1.744 1.195-11.083 7.717-14.519 9.435 16.568-7.97 28.48-3.183 32.543-.697 4.064 2.485 0 3.392 0 3.392z" fill="#000" fill-opacity=".7" opacity=".3"/><path d="m271.6 303.948c-2.389-1.936-5.79-4.456-8.65-5.616 0 0-2.965-12.591-27.808-26.003 0 0-2.834-3.401-2.389-4.996 1.055-3.811 21.338 6.819 21.878 7.098-.314-.314-7.054-7.107-2.206-7.404 3.488-.209 12.208 8.494 17.684 16.49 2.21 6.576 2.723 13.604 1.491 20.431z" fill="#000" fill-opacity=".7" opacity=".3"/><path d="m200.48 275.504s24.076 3.61 43.295 13.219c0 0-14.467-14.17-25.611-16.969s-20.928-2.511-21.538-.13c-.611 2.38 3.854 3.88 3.854 3.88z" fill="#000" fill-opacity=".7" opacity=".3"/><path d="m239.301 357.262c5.32 0 34.723-4.831 43.069-9.819-13.952 9.54-38.648 17.335-64.964 9.688-35.526-10.316-60.273-6.976-78.036-31.837 2.206 2.093 3.767 3.375 3.767 3.375l21.181 9.112s-12.339-22.741 10.9-20.256 44.219 33.005 44.219 33.005 10.307-.776 8.72 1.369-5.851 2.878-5.851 2.878 11.371 2.485 16.995 2.485z" fill="#000" fill-opacity=".7" opacity=".3"/><path d="m285.631 345.037c-.628.506-1.282 1.003-1.971 1.5.616-.552 1.275-1.053 1.971-1.5z" fill="#000" fill-opacity=".7" opacity=".3"/><g stroke="#263238"><path d="m131.714 311.814c-7.848-17.257 16.315-37.409 16.315-37.409l9.723-1.605c.994-16.271 34.767-30.581 46.068-31.697 17.98-1.744 53.82 22.411 62.522 34.95 8.703 12.539 5.285 27.904 5.285 27.904s21.224 17.065 22.515 28.314c1.29 11.249-35.752 36.737-76.736 24.843s-67.572-5.659-85.692-45.3z" stroke-linecap="round" stroke-linejoin="round"/><path d="m206.227 354.201s16.698 2.712 23.788-3.671" stroke-linecap="round" stroke-linejoin="round"/><path d="m271.592 303.974s-6.889-6.74-19.306-9.156" stroke-linecap="round" stroke-linejoin="round"/><path d="m234.148 258.325c6.725 3.949 13.139 8.406 19.184 13.333" stroke-linecap="round" stroke-linejoin="round"/><path d="m178.296 260.523c16.08-9.819 37.008-15.923 52.8-3.933" stroke-linecap="round" stroke-linejoin="round"/><path d="m170.832 264.978c1.448-.872 2.895-1.744 4.36-2.616" stroke-linecap="round" stroke-linejoin="round"/><path d="m242.179 276.393c9.653 5.999 19.934 13.69 24.922 24.224" stroke-linecap="round" stroke-linejoin="round"/><path d="m231.698 270.586c2.616 1.238 5.118 2.616 7.603 4.072" stroke-linecap="round" stroke-linejoin="round"/><path d="m265.627 280.509s5.956 11.065 5.965 23.465" stroke-linecap="round" stroke-linejoin="round"/><path d="m180.703 273.559c2.369.481 4.7 1.131 6.976 1.944" stroke-linecap="round" stroke-linejoin="round"/><path d="m148.029 274.405c9.381-2.254 19.096-2.768 28.663-1.518" stroke-linecap="round" stroke-linejoin="round"/><path d="m194.481 261.168c-8.803 2.123-17.111 5.928-24.469 11.205" stroke-linecap="round" stroke-linejoin="round"/><path d="m218.661 261.534c-6.479-2.319-14.03-2.171-20.71-1.081" stroke-linecap="round" stroke-linejoin="round"/><path d="m303.856 334.86c-6 10.116-15.871 17.196-26.963 20.815" stroke-linecap="round" stroke-linejoin="round"/><path d="m307.736 326.01c-.577 2.141-1.384 4.214-2.407 6.182" stroke-linecap="round" stroke-linejoin="round"/><path d="m281.219 312.747s12.687 2.198 16.829 9.592" stroke-linecap="round" stroke-linejoin="round"/><path d="m136.597 271.632s-9.191-.811-12.408 5.598" stroke-linecap="round" stroke-linejoin="round"/><path d="m124.878 292.726c-.628 13.847 5.685 26.535 16.446 35.141" stroke-linecap="round" stroke-linejoin="round"/><path d="m126.482 282.968c-.68 2.211-1.142 4.483-1.378 6.784" stroke-linecap="round" stroke-linejoin="round"/><path d="m232.744 322.522c-8.72-11.65-24.416-15.138-38.368-14.824" stroke-linecap="round" stroke-linejoin="round"/><path d="m238.482 332.288c-.965-2.566-2.255-4.998-3.837-7.237" stroke-linecap="round" stroke-linejoin="round"/><path d="m207.456 352.571c-5.529-.259-11.019-1.056-16.394-2.381-1.505-.354-2.938-.729-4.299-1.125-32.673-9.417-24.886-28.209-14.885-33.833 16.656-9.357 40.487-.454 53.053 11.406 13.211 12.461 6.941 26.796-17.475 25.933z" fill="#fff" stroke-linecap="round" stroke-linejoin="round"/></g><path d="m207.456 352.571c-5.529-.258-11.019-1.056-16.393-2.38-1.506-.355-2.939-.73-4.299-1.125 2.481-4.01 5.321-7.787 8.484-11.284.637.506 13.534 6.008 12.208 14.789z" fill="#263238"/><path d="m206.279 344.287c0 6.88-10.464 21.042-27.747 20.928-9.592-.052-19.027-15.425-19.856-36.51-.654-16.568-8.528-35.561 11.868-49.425 20.536-13.952 48.117-3.035 48.117 27.468 0 9.897-.994 18.931-3.383 26.814" fill="#fff"/><path d="m206.279 344.287c0 6.88-10.464 21.042-27.747 20.928-9.592-.052-19.027-15.425-19.856-36.51-.654-16.568-8.528-35.561 11.868-49.425 20.536-13.952 48.117-3.035 48.117 27.468 0 9.897-.994 18.931-3.383 26.814" stroke="#263238" stroke-linecap="round" stroke-linejoin="round"/><path d="m177.625 316.54s9.06-2.746 15.007 2.738" stroke="#263238" stroke-linecap="round" stroke-linejoin="round"/><path d="m165.731 315.851s-3.828-3.488-8.563-1.822" stroke="#263238" stroke-linecap="round" stroke-linejoin="round"/><path d="m185.133 327.885c0 1.622-.794 2.93-1.744 2.921-.951-.009-1.744-1.325-1.692-2.947s.794-2.93 1.744-2.921c.951.008 1.701 1.325 1.692 2.947z" fill="#263238"/><path d="m164.876 326.027c0 1.614-.793 2.922-1.744 2.913-.95-.009-1.7-1.326-1.683-2.947.018-1.622.794-2.93 1.744-2.922.951.009 1.692 1.335 1.683 2.956z" fill="#263238"/><path d="m167.431 319.278c.197 3.238.197 6.485 0 9.723-.601 5.633-3.252 9.592-2.258 10.83 1.299 1.666 7.604 2.233 7.604 2.233" stroke="#263238" stroke-linecap="round" stroke-linejoin="round"/><path d="m168.861 346.31s11.458 2.232 20.274-1.168c0 0 2.015 2.764-3.488 5.633-5.502 2.869-14.021 2.973-14.553-3.488" stroke="#263238" stroke-linecap="round" stroke-linejoin="round"/><path d="m192.632 306.634s3.968 11.205 8.781 15.286l1.744 5.947s3.68-6.226 7.927-3.113c4.246 3.113 2.816 13.028 2.816 13.028s13.08-6.226 13.324-13.307c.112-4.102 1.062-8.138 2.791-11.859 0 0-2.834 1.142-3.968 3.244 0 0 6.235-13.464 2.267-16.865-3.967-3.401-35.682 7.639-35.682 7.639z" fill="#5b89f7"/><path d="m192.632 306.634s3.968 11.205 8.781 15.286l1.744 5.947s3.68-6.226 7.927-3.113c4.246 3.113 2.816 13.028 2.816 13.028s13.08-6.226 13.324-13.307c.112-4.102 1.062-8.138 2.791-11.859 0 0-2.834 1.142-3.968 3.244 0 0 6.235-13.464 2.267-16.865-3.967-3.401-35.682 7.639-35.682 7.639z" fill="#000" fill-opacity=".7" opacity=".3"/><path d="m192.632 306.634s3.968 11.205 8.781 15.286l1.744 5.947s3.68-6.226 7.927-3.113c4.246 3.113 2.816 13.028 2.816 13.028s13.08-6.226 13.324-13.307c.112-4.102 1.062-8.138 2.791-11.859 0 0-2.834 1.142-3.968 3.244 0 0 6.235-13.464 2.267-16.865-3.967-3.401-35.682 7.639-35.682 7.639z" stroke="#263238" stroke-linecap="round" stroke-linejoin="round"/><path d="m226.902 306.913-14.214 4.91c-7.647 1.682-15.581 1.554-23.169-.375-12.208-3.349-18.966-9.435-20.361-10.778l-.271-.271c.872 3.401 3.916 7.648 3.916 7.648-8.816-.872-13.272-9.592-13.272-9.592-3.113 3.968-2.616 12.749-2.616 12.749-5.154-12.653-.253-19.263-.253-19.263-2.014-10.464 1.744-14.44 1.744-14.44l3.078 1.979c5.625-12.461 21.966-12.112 21.966-12.112l-2.389 2.764c13.594-6.226 41.908 0 41.908 0l1.421 11.894 4.526-1.412c.131.331.253.68.357 1.029 1.263 4.319 1.998 8.776 2.189 13.272v.139l1.64-1.125 2.886-1.988s.244 8.467-9.086 14.972z" fill="#5b89f7"/><path d="m197.454 298.333c24.416 2.869 31.584-16.167 31.785-16.725 1.263 4.32 1.998 8.776 2.188 13.272-16.69 9.418-33.973 3.453-33.973 3.453z" fill="#000" fill-opacity=".7" opacity=".3"/><path d="m226.902 306.913-14.214 4.91c-7.647 1.682-15.581 1.554-23.169-.375-12.208-3.349-18.966-9.435-20.361-10.778-.517-.727-.969-1.497-1.352-2.302.358.636 5.86 9.792 29.648 12.958 24.669 3.278 38.508-19.42 38.508-19.42s.27 8.502-9.06 15.007z" fill="#000" fill-opacity=".7" opacity=".3"/><path d="m172.777 280.509s2.729-6.662 13.952-9.923c0 0-10.133.436-14.964 7.56 0 0-.209-3.183.986-4.839 0 0-7.116-.367-8.459 9.688 0 0-3.967.749-5.537-1.396 0 0-1.744 5.529 4.36 7.125 0 0-3.933 4.979 1.796 11.963 0 0-.75-6.322 1.744-10.516 0 0 .515 7.089 12.444 9.723 0 0-10.351-5.337-8.31-14.257 0 0 3.296 8.476 17.884 7.961 0 0-13.324-3.907-15.103-10.734 3.297-1.487 6.97-1.928 10.525-1.265 0 0-6.418-2.415-11.318-1.09z" fill="#000" fill-opacity=".7" opacity=".3"/><path d="m226.902 306.913-14.214 4.91c-7.647 1.682-15.581 1.554-23.169-.375-12.208-3.349-18.966-9.435-20.361-10.778l-.271-.271c.872 3.401 3.916 7.648 3.916 7.648-8.816-.872-13.272-9.592-13.272-9.592-3.113 3.968-2.616 12.749-2.616 12.749-5.154-12.653-.253-19.263-.253-19.263-2.014-10.464 1.744-14.44 1.744-14.44l3.078 1.979c5.625-12.461 21.966-12.112 21.966-12.112l-2.389 2.764c13.594-6.226 41.908 0 41.908 0l1.421 11.894 4.526-1.412c.131.331.253.68.357 1.029 1.263 4.319 1.998 8.776 2.189 13.272v.139l1.64-1.125 2.886-1.988s.244 8.467-9.086 14.972z" stroke="#263238" stroke-linecap="round" stroke-linejoin="round"/><path d="m206.227 326.01s4.534-9.67 9.347-6.732c4.814 2.939 4.195 8.529 3.087 11.389-1.107 2.86-6.2 16.175-10.734 8.528" fill="#fff"/><path d="m206.227 326.01s4.534-9.67 9.347-6.732c4.814 2.939 4.195 8.529 3.087 11.389-1.107 2.86-6.2 16.175-10.734 8.528" stroke="#263238" stroke-linecap="round" stroke-linejoin="round"/><path d="m164.955 288.724c-2.459 1.421-3.488 8.929 1.744 14.143" stroke="#263238" stroke-linecap="round" stroke-linejoin="round"/><path d="m168.861 287.581c0 9.923 17.362 18.452 37.366 16.725 20.003-1.727 21.904-6.653 21.904-6.653" stroke="#263238" stroke-linecap="round" stroke-linejoin="round"/><path d="m175.009 285.854c6.209 9.941 40.513 12.417 46.042-5.345" stroke="#263238" stroke-linecap="round" stroke-linejoin="round"/><path d="m168.861 282.863c-2.433-.767-.872-7.935 5.11-11.205" stroke="#263238" stroke-linecap="round" stroke-linejoin="round"/><path d="m158.912 279.297c-.872 2.354.994 8.45 5.703 7.246" stroke="#263238" stroke-linecap="round" stroke-linejoin="round"/><path d="m233.075 293.894 2.887-1.988c-.959.724-1.919 1.387-2.887 1.988z" fill="#000" fill-opacity=".7" opacity=".3"/></svg>