<svg fill="none" height="399" viewBox="0 0 399 399" width="399" xmlns="http://www.w3.org/2000/svg" xmlns:xlink="http://www.w3.org/1999/xlink"><clipPath id="a"><path d="m0 0h399v399h-399z"/></clipPath><g clip-path="url(#a)"><g stroke="#263238" stroke-miterlimit="10"><path d="m319.902 81.8905c1.182-2.4631 2.957-4.5939 5.166-6.2013s4.783-2.6409 7.49-3.0077c9.576-1.5321 13.048 4.2215 16.12 9.975 3.072 5.7536 3.072 1.1332 10.741 1.1332s7.294 6.1446 9.209 8.8259.798-1.1491 7.677 0 6.136 6.1446 7.669 6.9107c1.532.7657 3.072-1.5402 4.987-.798 1.915.7421 3.072 3.0647 3.072 3.0647h-112.039s1.54-9.5764 7.294-12.2737c5.753-2.6972 7.669 3.8304 11.507.3831 3.838-3.4474 2.689-7.2937 7.294-8.4429 4.604-1.1491 10.358 3.5033 13.813.431z"/><path d="m204.001 25.1685c.633-1.3203 1.585-2.4627 2.769-3.3249 1.183-.8621 2.563-1.4169 4.014-1.6148 5.139-.798 6.99 2.2664 8.634 5.3466 1.644 3.0803 1.652.6225 5.762.6225 4.109 0 3.91 3.2877 4.931 4.7241 1.022 1.4364.415-.6144 4.118 0 3.703.6145 3.288 3.2958 4.11 3.7028.822.4069 1.643-.798 2.673-.407.708.3605 1.283.936 1.644 1.6439h-60.042s.798-5.1392 3.902-6.5835c3.105-1.4444 4.118 2.0588 6.169.2074 2.051-1.8513 1.444-3.9102 3.91-4.5246 2.466-.6145 5.554 1.8513 7.406.2075z"/><path d="m200.705 212.428c.632-1.321 1.582-2.464 2.764-3.328 1.182-.863 2.561-1.42 4.011-1.62 5.139-.798 6.99 2.258 8.642 5.347 1.652 3.088 1.644.614 5.754.614s3.91 3.296 4.94 4.732c1.029 1.437.407-.614 4.109 0 3.703.615 3.288 3.288 4.11 3.703s1.652-.798 2.673-.415c.725.361 1.317.942 1.692 1.66h-60.081s.798-5.139 3.902-6.576c3.104-1.436 4.117 2.051 6.168.208 2.051-1.844 1.445-3.91 3.911-4.525 2.465-.614 5.554 1.852 7.405.2z"/><path d="m367.514 59.3047c11.176-2.607 18.123-13.7806 15.516-24.9571-2.607-11.1764-13.781-18.1232-24.957-15.5162-11.177 2.607-18.123 13.7806-15.516 24.957s13.78 18.1233 24.957 15.5163z"/><path d="m362.188 6.65039v7.34161"/><path d="m362.188 65.335v7.3336"/><path d="m395.193 39.6641h-7.333"/><path d="m336.509 39.6641h-7.334"/><path d="m338.847 16.3223 5.187 5.187"/><path d="m380.335 57.8105 5.187 5.187"/><path d="m385.522 16.3223-5.187 5.187"/><path d="m344.034 57.8105-5.187 5.187"/><path d="m395.193 39.6641h-7.333"/><path d="m336.509 39.6641h-7.334"/></g><path d="m18.2981 248.88 64.7816-10.981-41.7194-230.58162" fill="#fff"/><path d="m18.2981 248.88 64.7816-10.981-41.7194-230.58162" stroke="#263238" stroke-miterlimit="10"/><path d="m79.0977 233.391s-16.5026 1.947-51.4311-27.651z" fill="#c9c9c9"/><path d="m79.0977 233.391s-16.5026 1.947-51.4311-27.651" stroke="#263238" stroke-miterlimit="10"/><path d="m73.2723 224.661s-13.566-3.815-20.3809-19.894z" fill="#c9c9c9"/><path d="m73.2723 224.661s-13.566-3.815-20.3809-19.894" stroke="#263238" stroke-miterlimit="10"/><path d="m155.027 21.9609c47.593 75.7223 160.526 134.5591 160.526 134.5591-6.496-2.163-9.52 1.731-9.52 1.731-9.089-3.024-17.74 4.333-17.74 4.333-7.788-3.463-16.007 3.025-16.007 3.025-2.729-1.279-5.765-1.755-8.754-1.372-2.988.383-5.806 1.609-8.124 3.534-8.65-2.162-16.008 4.326-16.008 4.326-5.626-3.456-17.484 2.944-17.484 2.944-10.27-3.487-20.541 4.397-20.541 4.397-12.353-2.761-22.982 3.91-22.982 3.91-9.089-3.463-19.902 4.326-19.902 4.326-9.951-5.187-22.065 4.325-22.065 4.325-15.162-3.456-23.365 5.195-23.365 5.195-13.8457-3.464-27.2521 5.993-27.2521 5.993l-32.0237-159.1614" fill="#fff"/><path d="m155.027 21.9609c47.593 75.7222 160.526 134.5591 160.526 134.5591-6.496-2.163-9.52 1.731-9.52 1.731-9.089-3.024-17.74 4.333-17.74 4.333-7.788-3.463-16.007 3.025-16.007 3.025-2.729-1.279-5.765-1.755-8.754-1.372-2.988.383-5.806 1.609-8.124 3.534-8.65-2.162-16.008 4.326-16.008 4.326-5.626-3.456-17.484 2.944-17.484 2.944-10.27-3.487-20.541 4.397-20.541 4.397-12.353-2.761-22.982 3.91-22.982 3.91-9.089-3.463-19.902 4.326-19.902 4.326-9.951-5.187-22.065 4.325-22.065 4.325-15.162-3.456-23.365 5.195-23.365 5.195-13.8457-3.464-27.2521 5.993-27.2521 5.993l-32.0237-159.1614" stroke="#263238" stroke-miterlimit="10"/><path d="m89.2882 194.576s20.3728-28.138 22.3438-61.622z" fill="#c9c9c9"/><path d="m89.2882 194.576s20.3728-28.138 22.3438-61.622" stroke="#263238" stroke-miterlimit="10"/><path d="m89.767 181.473s10.1904-35.91 6.7989-80.055z" fill="#c9c9c9"/><path d="m89.767 181.473s10.1904-35.91 6.7989-80.055" stroke="#263238" stroke-miterlimit="10"/><path d="m12.8079 249.973 70.2719-12.074 1.6438 9.329-67.8858 11.555" fill="#c9c9c9"/><path d="m12.8079 249.973 70.2718-12.074 1.6439 9.329-67.8858 11.555" stroke="#263238" stroke-miterlimit="10"/><path d="m85.8088 203.186 234.2772-47.425c.779-.158 1.589-.025 2.277.374.688.398 1.206 1.034 1.457 1.789.145.433.197.891.153 1.346-.044.454-.184.894-.41 1.291s-.533.742-.901 1.012-.789.46-1.236.556l-232.3374 52.133z" fill="#c9c9c9" stroke="#263238" stroke-miterlimit="10"/><path d="m42.7089 13.1112 46.7947 258.9908 11.4834 1.229-49.548-262.1669" fill="#c9c9c9"/><path d="m42.7089 13.1112 46.7947 258.9908 11.4834 1.229-49.548-262.1669" stroke="#263238" stroke-miterlimit="10"/><path d="m230.566 97.2203s5.865-1.5481 2.067 4.3087c-3.799 5.858-8.706 8.236-19.471 13.614-10.765 5.379-33.556 11.739-47.178 12.345-13.622.607-24.06.639-24.06.639s19.631-1.429 37.674-11.874c18.043-10.446 21.37-12.505 29.127-15.833 7.756-3.3274 21.841-3.1997 21.841-3.1997z" fill="#c9c9c9" stroke="#263238" stroke-miterlimit="10"/><path d="m202.07 110.171s5.713 3.073 4.445 7.821c-1.269 4.748-.798 7.756 1.268 9.025 2.067 1.269 3.32-2.059 12.665.471 9.344 2.53 9.655 9.815 8.227 13.295-1.428 3.479-2.689 6.966.16 7.605 2.848.638 3.479-.16 3.99-1.429.51-1.269 2.394 1.429.47 5.698-1.923 4.269-7.756 11.084-12.185 5.227-4.429-5.858-2.689-9.816-6.177-9.496-3.487.319-4.588 9.807-10.916 10.916s-11.244-1.42-12.194-4.907c-.586-2.182-1.007-4.404-1.261-6.648 0 0 6.488-1.596 7.909-9.815 1.42-8.22.949-18.833.949-18.833l.319-9.185z" fill="#263238" stroke="#263238" stroke-miterlimit="10"/><path d="m202.07 110.172s1.747 5.259 1.093 8.546c-.655 3.288-1.971 5.698-.878 8.778 1.093 3.081.223 7.238-1.971 11.404-2.195 4.165-3.727 8.778-6.384 10.525-2.657 1.748-4.389 2.394-7.453 2.394-3.065 0-8.331-1.532-10.311-5.697-1.979-4.166.439-6.799-2.186-11.843-1.473-2.718-2.65-5.585-3.511-8.554 0 0 21.729-13.806 31.601-15.553z" fill="#fff" stroke="#263238" stroke-miterlimit="10"/><path d="m198.12 116.747s-2.195 2.633-1.756 5.043" stroke="#263238" stroke-miterlimit="10"/><path d="m198.128 128.757s2.058 2.689.47 3.99-4.429 1.261-4.429 1.261" stroke="#263238" stroke-miterlimit="10"/><path d="m194.64 138.253s-6.168 1.268-9.496-2.219" stroke="#263238" stroke-miterlimit="10"/><path d="m189.262 123.298c0 1.261-.495 2.291-1.11 2.291-.614 0-1.109-1.03-1.109-2.291s.495-2.298 1.109-2.298c.615 0 1.11 1.029 1.11 2.298z" fill="#263238"/><path d="m200.186 122.421c0 1.269-.503 2.298-1.109 2.298s-1.109-1.029-1.109-2.298.495-2.29 1.109-2.29 1.109 1.029 1.109 2.29z" fill="#263238"/><path d="m190.842 117.673s-3.192-.631-6.169 3.192" stroke="#263238" stroke-miterlimit="10"/><path d="m199.077 115.614s3.743.192 4.086 3.104" stroke="#263238" stroke-miterlimit="10"/><path d="m202.277 168.082 32.662 12.696s12.529-10.837 20.988-17.268c6.735-5.304 12.766-11.445 17.947-18.275 2.194-3.048 7.445-12.696 8.626-16.422 1.181-3.727 2.881-6.6 6.943-10.829 4.061-4.23 6.096-4.573 5.586-2.881-.511 1.692-2.881 4.596-3.759 5.929s-1.859 5.41-1.859 5.41 3.559-3.718 5.586-6.088 4.74-4.23 6.767-4.74c2.027-.511 1.867 1.524.854 2.394-1.014.869-4.573 3.383-5.251 4.061-.679.679-3.049 7.278-3.049 7.278s5.93-4.907 8.467-5.753c2.538-.846 6.6-2.394 5.586-.511-1.013 1.883-4.405 2.881-5.753 3.894-1.349 1.014-4.573 5.243-4.573 5.243s4.229-1.516 5.586-1.859 4.74-1.525 3.719.343c-1.022 1.867-3.192 2.537-4.732 2.873-1.541.335-7.111 3.726-7.98 4.907-.87 1.181-1.525 4.573-5.084 5.586-2.011.563-3.988 1.243-5.921 2.035 0 0-22.511 35.032-27.587 40.451-5.075 5.418-13.885 13.566-16.758 14.045-2.872.478-17.939-2.394-26.741-3.719s-12.193-2.035-12.193-2.035-6.935-9.648-9.648-19.296c-2.713-9.647 11.571-7.469 11.571-7.469z" fill="#fff" stroke="#263238" stroke-miterlimit="10"/><path d="m283.689 133.385c2.97-1.185 5.549-3.178 7.445-5.753 3.049-4.23 4.062-4.23 4.062-1.692 0 2.537-3.048 5.921-3.894 6.767s.678 5.586-4.229 7.445c-4.908 1.86-5.922 2.546-5.922 2.546" stroke="#263238" stroke-miterlimit="10"/><path d="m158.85 158.682s-8.451.215-8.882 15.162c-.431 14.946 4.118 46.38 4.118 47.249 0 .87-7.589 11.268-14.524 24.922-6.934 13.654-1.516 27.092-1.516 27.092l188.328 18.641s8.02-15.824 4.333-23.844-18.202-5.634-22.974-11.922-1.947-6.28-.647-18.202c1.301-11.923-5.857-14.301-23.628-10.622-17.772 3.679-29.255 17.125-49.413 21.674-20.157 4.549-32.287 3.479-36.141 1.74-3.854-1.74-6.504-3.679-3.04-15.386 3.463-11.707 10.836-19.503 11.491-33.372.654-13.87-4.557-23.406-4.557-23.406s-8.881-9.32-17.117-14.092c-8.235-4.772-18.027-6.935-25.831-5.634z" fill="#5b89f7"/><g fill="#fff" opacity=".49"><path d="m176.055 232.593c-2.594-3.088-4.693-.99-1.596 1.596-3.089 2.593-.99 4.692 1.596 1.596 2.593 3.088 4.7.989 1.596-1.596 3.104-2.586.997-4.684-1.596-1.596z"/><path d="m200.521 197.943c-3.096 2.594-.989 4.701 1.596 1.596 2.594 3.089 4.693.982 1.596-1.596 3.089-2.593.99-4.692-1.596-1.596-2.617-3.096-4.692-.997-1.596 1.596z"/><path d="m176.055 264.385c.886 0 1.604-.718 1.604-1.604s-.718-1.604-1.604-1.604-1.604.718-1.604 1.604.718 1.604 1.604 1.604z"/><path d="m183.644 196.308c-2.594-3.089-4.692-.99-1.596 1.596-3.088 2.593-.99 4.7 1.596 1.596 2.593 3.088 4.692.981 1.596-1.596 3.088-2.554.997-4.653-1.596-1.596z"/><path d="m183.644 219.321c-2.594-3.088-4.692-.981-1.596 1.596-3.088 2.594-.99 4.693 1.596 1.596 2.593 3.089 4.692.99 1.596-1.596 3.088-2.577.997-4.66-1.596-1.596z"/><path d="m183.644 250.747c-2.594-3.088-4.692-.989-1.596 1.596-3.088 2.594-.99 4.7 1.596 1.596 2.593 3.088 4.692.982 1.596-1.596 3.088-2.569.997-4.684-1.596-1.596z"/><path d="m163.303 252.415c.886 0 1.604-.718 1.604-1.604s-.718-1.604-1.604-1.604-1.604.718-1.604 1.604.718 1.604 1.604 1.604z"/><path d="m161.691 220.934c-3.088 2.594-.982 4.692 1.596 1.596 2.593 3.088 4.692.99 1.596-1.596 3.088-2.593.989-4.7-1.596-1.596-2.578-3.08-4.684-.997-1.596 1.596z"/><path d="m172.248 187.905c2.594 3.088 4.692.981 1.596-1.596 3.088-2.594.99-4.693-1.596-1.596-2.593-3.089-4.7-.99-1.596 1.596-3.072 2.577-.997 4.684 1.596 1.596z"/><path d="m174.451 210.504c.886 0 1.604-.718 1.604-1.604s-.718-1.604-1.604-1.604-1.604.718-1.604 1.604.718 1.604 1.604 1.604z"/><path d="m193.116 235.801c.35.435.764.815 1.229 1.125.151-.559.311-1.133.487-1.74.071-.231.151-.454.223-.686-.104-.096-.207-.199-.335-.303.225-.183.436-.383.63-.599.25-.75.516-1.484.798-2.202-.375-.623-1.596-.471-3.024 1.197-2.594-3.088-4.692-.99-1.596 1.596-3.112 2.601-1.014 4.7 1.588 1.612z"/><path d="m221.788 251.099c-1.771.244-3.45.439-5.035.582.209.243.438.467.686.67-3.088 2.594-.989 4.701 1.596 1.596 2.594 3.089 4.7.982 1.596-1.596.45-.353.84-.776 1.157-1.252z"/><path d="m228.507 263.292c.886 0 1.604-.718 1.604-1.604s-.718-1.604-1.604-1.604-1.604.718-1.604 1.604.718 1.604 1.604 1.604z"/><path d="m144.821 251.122c.886 0 1.604-.718 1.604-1.604s-.718-1.604-1.604-1.604-1.604.718-1.604 1.604.718 1.604 1.604 1.604z"/><path d="m153.894 260.467c-2.593-3.088-4.692-.99-1.596 1.596-3.088 2.593-.989 4.7 1.596 1.596 2.594 3.088 4.701.981 1.596-1.596 3.105-2.586.998-4.684-1.596-1.596z"/><path d="m152.29 234.196c-3.088 2.594-.989 4.693 1.596 1.596 2.594 3.089 4.701.99 1.596-1.596 3.089-2.593.982-4.692-1.596-1.596-2.585-3.096-4.66-.997-1.596 1.596z"/><path d="m288.238 228.978c-3.089 2.593-.982 4.7 1.596 1.596 2.593 3.088 4.692.981 1.596-1.596 3.088-2.586.989-4.693-1.596-1.596-.361-.442-.786-.827-1.261-1.142l-1.876.312c-.031.582.399 1.468 1.541 2.426z"/><path d="m200.522 220.934c-1.74 1.46-1.836 2.761-1.126 3.072.798-1.676 1.596-3.352 2.394-5.051-2.434-2.522-4.221-.503-1.268 1.979z"/><path d="m193.116 210.512c2.594 3.088 4.692.982 1.596-1.596 3.088-2.593.99-4.692-1.596-1.596-2.593-3.088-4.692-.989-1.596 1.596-3.104 2.554-1.005 4.684 1.596 1.596z"/><path d="m193.116 260.084c-2.593-3.088-4.692-.989-1.596 1.596-3.088 2.594-.99 4.692 1.596 1.596 2.594 3.088 4.692.99 1.596-1.596 3.088-2.585.99-4.684-1.596-1.596z"/><path d="m209.874 262.781c-3.088 2.594-.982 4.701 1.596 1.596 2.593 3.089 4.692.982 1.596-1.596 3.088-2.593.99-4.692-1.596-1.596-2.601-3.096-4.708-.997-1.596 1.596z"/><path d="m328.5 265.044c-.102-.094-.212-.181-.323-.268z"/><path d="m246.861 264.385c.886 0 1.604-.718 1.604-1.604s-.718-1.604-1.604-1.604-1.604.718-1.604 1.604.718 1.604 1.604 1.604z"/><path d="m306.488 272.828c-2.586-3.089-4.692-.982-1.596 1.596-3.088 2.593-.982 4.7 1.596 1.596 2.593 3.088 4.7.981 1.596-1.596 3.136-2.578.997-4.701-1.596-1.596z"/><path d="m306.655 231.164c-.249-.768-.621-1.49-1.101-2.139-2.809 2.394-1.205 4.334 1.101 2.139z"/><path d="m314.843 260.052c-.535-.16-1.061-.335-1.596-.511-.616.323-1.159.768-1.596 1.309-2.594-3.089-4.692-.982-1.596 1.596-3.088 2.593-.99 4.692 1.596 1.596 2.593 3.088 4.692.989 1.596-1.596 1.165-.934 1.628-1.812 1.596-2.394z"/><path d="m240.11 253.963c2.594 3.088 4.693.982 1.596-1.596 3.089-2.593.99-4.692-1.596-1.596-2.593-3.088-4.7-.989-1.596 1.596-3.104 2.578-.997 4.684 1.596 1.596z"/><path d="m305.387 228.794c-.219-.271-.459-.525-.719-.758.218.273.458.526.719.758z"/><path d="m299.314 242.24c.886 0 1.604-.718 1.604-1.604s-.718-1.604-1.604-1.604-1.604.718-1.604 1.604.718 1.604 1.604 1.604z"/><path d="m322.272 272.828c-2.593-3.089-4.7-.982-1.596 1.596-3.088 2.593-.981 4.7 1.596 1.596 2.594 3.088 4.693.981 1.596-1.596 3.097-2.578.998-4.701-1.596-1.596z"/><path d="m327.364 264.201c-.679-.429-1.392-.802-2.131-1.117-2.043 2.234-.2 3.751 2.131 1.117z"/><path d="m289.85 250.747c-2.594-3.088-4.701-.989-1.596 1.596-3.089 2.594-.982 4.7 1.596 1.596 2.593 3.088 4.692.982 1.596-1.596 3.096-2.569.997-4.684-1.596-1.596z"/><path d="m299.314 263.292c.886 0 1.604-.718 1.604-1.604s-.718-1.604-1.604-1.604-1.604.718-1.604 1.604.718 1.604 1.604 1.604z"/><path d="m282.261 261.177c-2.594-3.088-4.693-.99-1.596 1.596-3.089 2.593-.99 4.7 1.596 1.596 2.593 3.088 4.7.981 1.596-1.596 3.104-2.586 1.029-4.684-1.596-1.596z"/><path d="m272.629 231.491c-3.088 2.594-.99 4.701 1.596 1.596 2.593 3.089 4.7.982 1.596-1.596 1.261-1.061 1.644-2.035 1.492-2.609-1.795.622-3.535 1.34-5.243 2.123.184.159.359.319.559.486z"/><path d="m282.261 239.025c-2.594-3.089-4.693-.982-1.596 1.596-3.089 2.593-.99 4.692 1.596 1.596 2.593 3.088 4.7.989 1.596-1.596 3.104-2.578 1.029-4.685-1.596-1.596z"/><path d="m289.85 271.088c-2.594-3.088-4.701-.982-1.596 1.596-3.089 2.594-.982 4.692 1.596 1.596 2.593 3.088 4.692.99 1.596-1.596 3.096-2.578.997-4.684-1.596-1.596z"/><path d="m274.233 250.747c-2.594-3.088-4.693-.989-1.596 1.596-3.089 2.594-.99 4.7 1.596 1.596 2.593 3.088 4.7.982 1.596-1.596 3.104-2.569.997-4.684-1.596-1.596z"/><path d="m254.45 250.747c-2.593-3.088-4.7-.989-1.596 1.596-3.088 2.594-.981 4.7 1.596 1.596 2.594 3.088 4.693.982 1.596-1.596 3.097-2.569.998-4.684-1.596-1.596z"/><path d="m274.233 271.088c-2.594-3.088-4.693-.982-1.596 1.596-3.089 2.594-.99 4.692 1.596 1.596 2.593 3.088 4.7.99 1.596-1.596 3.104-2.578.997-4.684-1.596-1.596z"/><path d="m254.45 271.088c-2.593-3.088-4.7-.982-1.596 1.596-3.088 2.594-.981 4.692 1.596 1.596 2.594 3.088 4.693.99 1.596-1.596 3.097-2.578.998-4.684-1.596-1.596z"/><path d="m263.914 260.084c-2.593-3.088-4.7-.989-1.596 1.596-3.088 2.594-.981 4.692 1.596 1.596 2.594 3.088 4.693.99 1.596-1.596 3.097-2.585 1.022-4.684-1.596-1.596z"/><path d="m263.914 240.381c-2.593-3.088-4.7-.99-1.596 1.596-3.088 2.593-.981 4.692 1.596 1.596 2.594 3.088 4.693.989 1.596-1.596 3.097-2.578 1.022-4.684-1.596-1.596z"/></g><path d="m158.85 158.682s-8.451.215-8.882 15.162c-.431 14.946 4.118 46.38 4.118 47.249 0 .87-7.589 11.268-14.524 24.922-6.934 13.654-1.516 27.092-1.516 27.092l188.328 18.641s8.02-15.824 4.333-23.844-18.202-5.634-22.974-11.922-1.947-6.28-.647-18.202c1.301-11.923-5.857-14.301-23.628-10.622-17.772 3.679-29.255 17.125-49.413 21.674-20.157 4.549-32.287 3.479-36.141 1.74-3.854-1.74-6.504-3.679-3.04-15.386 3.463-11.707 10.836-19.503 11.491-33.372.654-13.87-4.557-23.406-4.557-23.406s-8.881-9.32-17.117-14.092c-8.235-4.772-18.027-6.935-25.831-5.634z" stroke="#263238" stroke-miterlimit="10"/><path d="m162.321 208.318c7.581-3.472 9.097-8.236 8.882-18.211-.192-8.714-7.836-27.212-9.752-31.72-.885.064-1.755.159-2.601.295 0 0-8.451.215-8.882 15.162-.271 9.161 1.333 24.491 2.618 35.2 3.238.818 6.654.563 9.735-.726z" fill="#fff" stroke="#263238" stroke-miterlimit="10"/><path d="m164.843 158.339c1.723 4.939 5.809 16.758 7.661 23.533 2.394 8.674 4.987 12.568 14.523 17.556 9.536 4.987 15.817-2.394 16.255-8.882.304-4.54-1.508-10.238-2.625-13.263-2.633-2.625-9.528-9.209-16.016-12.967-6.032-3.534-12.818-5.583-19.798-5.977z" fill="#fff" stroke="#263238" stroke-miterlimit="10"/><path d="m160.135 159.257s-15.114 1.995-17.868 10.964c-2.753 8.97 1.596 37.036 3.99 50.617 2.394 13.582 3.137 17.03 4.701 18.498s20.333 12.154 27.77 14.308c7.437 2.155 31.545 11.372 31.545 11.372s4.948 3.367 9.576 4.141 11.731-.111 11.731-.111 7.884 3.615 8.546 2.585c.663-1.029-.598-2.753-.598-2.753s5.322 3.056 5.115 1.101c-.208-1.955-1.812-4.261-7.182-9.743-5.371-5.483-5.419-3.48-12.09-3.583-6.671-.104-11.092 0-13.023-.718-1.931-.719-12.473-7.51-21.546-14.364-9.073-6.855-23.262-15.53-23.262-15.53l-6.855-45.749" fill="#fff"/><path d="m160.135 159.257s-15.114 1.995-17.868 10.964c-2.753 8.97 1.596 37.036 3.99 50.617 2.394 13.582 3.137 17.03 4.701 18.498s20.333 12.154 27.77 14.308c7.437 2.155 31.545 11.372 31.545 11.372s4.948 3.367 9.576 4.141 11.731-.111 11.731-.111 7.884 3.615 8.546 2.585c.663-1.029-.598-2.753-.598-2.753s5.322 3.056 5.115 1.101c-.208-1.955-1.812-4.261-7.182-9.743-5.371-5.483-5.419-3.48-12.09-3.583-6.671-.104-11.092 0-13.023-.718-1.931-.719-12.473-7.51-21.546-14.364-9.073-6.855-23.262-15.53-23.262-15.53l-6.855-45.749" stroke="#263238" stroke-miterlimit="10"/><path d="m225.882 264.576s6.575 0 7.541.216c.966.215 6.065 4.085 6.065 4.085" fill="#fff"/><path d="m225.882 264.576s6.575 0 7.541.216c.966.215 6.065 4.085 6.065 4.085" stroke="#263238" stroke-miterlimit="10"/><path d="m230.111 260.89s5.738 1.316 7.549 2.569c1.812 1.253 6.504 5.371 6.504 5.371" fill="#fff"/><path d="m230.111 260.89s5.738 1.316 7.549 2.569c1.812 1.253 6.504 5.371 6.504 5.371" stroke="#263238" stroke-miterlimit="10"/><path d="m233.176 258.887c2.238.763 4.328 1.908 6.176 3.383z" fill="#fff"/><path d="m233.176 258.887c2.238.763 4.328 1.908 6.176 3.383" stroke="#263238" stroke-miterlimit="10"/><path d="m171.219 122.094s9.177 6.328 7.908 10.765-3 11.555 2.059 13.294c5.059 1.74 12.034-.478 15.042 4.589 3.009 5.067-1.428 13.773 3.639 14.404 5.067.63 4.118-6.967 10.765-3.799 6.648 3.168 6.169 7.597 7.118 9.026.95 1.428 3.192.63 3.807-1.74.614-2.37 1.101-.638 1.42 5.379s-6.966 9.177-9.975 6.017c-3.008-3.161-2.529-5.698-4.748-2.059-2.218 3.639-3.639 9.025-12.664 8.546-9.026-.479-7.908-2.689-12.026-11.236-4.118-8.546-4.748 1.74-11.555 1.11-6.807-.631-8.706-3.807-10.605-11.085-1.9-7.277-1.74-3.008-10.765-2.689-9.026.319-19.312-8.546-15.162-17.412 4.149-8.866 6.958-8.866 7.756-12.824s.471-5.067.471-5.067 17.859 2.553 27.515-5.219z" fill="#263238" stroke="#263238" stroke-miterlimit="10"/><path d="m124.664 125.94s19.734 8.778 36.181 3.727c16.447-5.052 42.094-19.95 54.376-26.526 12.281-6.5754 15.345-5.9211 15.345-5.9211-7.597.3646-15.209.2927-22.799-.2154-10.302-.8778-12.935-.8778-12.935-.8778s-1.971-6.5835-3.288-9.8713-12.058-7.6688-21.49-6.1366c-9.433 1.5321-20.613 12.7121-20.613 15.7844s.878 11.6188.439 15.1618-19.511 13.558-25.216 14.875z" fill="#fff" stroke="#263238" stroke-miterlimit="10"/><path d="m194.832 96.1263s-1.062-4.2294-2.346-7.6927c-6.967.0479-26.805 1.4923-42.701 15.1624.238 2.832.27 5.677.095 8.514 0 0 19.296-15.3293 44.952-15.9837z" fill="#5b89f7" stroke="#263238" stroke-miterlimit="10"/><path d="m365.979 290.967-4.597 9.257-1.484 3.064-1.596 3.232-3.822 7.701-18.354 37.051s-17.644 3.687-44.305-.415-38.56-15.96-65.636-15.96-32.486 9.839-56.69 11.036c-11.403.583-18.992-3.152-29.358-6.679-25.193-8.563-48.0956-3.679-73.6077-.702-20.6123 2.394-55.5328-3.192-66.345706-5.084v-79.864z" fill="#263238" stroke="#263238" stroke-miterlimit="10"/><path d="m.183594 268.335v8.044c58.868506 6.911 235.226406 27.276 354.248406 37.841l3.822-7.701c-119.468-10.557-300.2234-31.409-358.070406-38.184zm0-6.615v3.192c56.099406 6.567 238.881406 27.682 359.674406 38.352l1.524-3.065c-120.905-10.629-305.3623-31.944-361.198406-38.455z" fill="#5b89f7"/><path d="m.734214 244.483 368.739786 42.398c.94.107 1.803.569 2.413 1.291.609.723.92 1.651.867 2.595-.029.502-.159.992-.383 1.441-.223.45-.536.849-.919 1.173-.383.325-.828.569-1.308.716s-.985.196-1.484.142l-368.476406-40.634" fill="#fff"/><path d="m.734214 244.483 368.739786 42.398c.94.107 1.803.569 2.413 1.291.609.723.92 1.651.867 2.595-.029.502-.159.992-.383 1.441-.223.45-.536.849-.919 1.173-.383.325-.828.569-1.308.716s-.985.196-1.484.142l-368.476406-40.634" stroke="#263238" stroke-miterlimit="10"/><path d="m112.518 356.268c9.416 1.651 18.179 3.615 27.603 3.447" stroke="#263238" stroke-miterlimit="10"/><path d="m48.0796 359.443c5.586.096 12.768-.607 21.953-2.809 15.3295-3.687 27.531-2.785 38.6234-1.021" stroke="#263238" stroke-miterlimit="10"/><path d="m30.739 354.703s3.3835 3.535 13.1431 4.501" stroke="#263238" stroke-miterlimit="10"/><path d="m274.448 361.494c25.345-3.606 41.959 5.108 61.382 4.788" stroke="#263238" stroke-miterlimit="10"/><path d="m226.425 361.255s8.865 9.249 39.293 1.923c1.277-.303 2.53-.582 3.767-.798" stroke="#263238" stroke-miterlimit="10"/><path d="m344.522 379.392c3.464.641 6.98.959 10.502.949" stroke="#263238" stroke-miterlimit="10"/><path d="m285.863 378.202s5.522 5.762 24.482 1.205c11.38-2.737 19.99-1.412 27.97 0" stroke="#263238" stroke-miterlimit="10"/><path d="m336.038 351.272s4.309-1.596 28.433-6.711c20.588-4.389 29.031 1.013 32.063 5.067" stroke="#263238" stroke-miterlimit="10"/><path d="m74.4199 375.612s8.8578 9.248 39.2931 1.923c22.799-5.482 38.679-.798 54.264 1.731" stroke="#263238" stroke-miterlimit="10"/></g><path d="m188.157 378.354c.915 0 1.662.294 2.24.882v-.196c0-.364.145-.546.434-.546.318 0 .476.201.476.602v.084c0 .019-.014.159-.042.42s-.042.574-.042.938c0 .047.01.196.028.448l.042.56c.01.047.014.112.014.196 0 .448-.172.672-.518.672-.364 0-.546-.187-.546-.56 0-.047 0-.07 0-.07l.028-.378c.01-.131.014-.233.014-.308 0-.56-.191-.999-.574-1.316-.373-.317-.891-.476-1.554-.476-.606 0-1.092.149-1.456.448-.354.299-.532.7-.532 1.204 0 .588.266 1.022.798 1.302.299.149.822.285 1.568.406 1.111.177 1.872.42 2.282.728.616.457.924 1.106.924 1.946 0 .877-.317 1.591-.952 2.142-.625.551-1.437.826-2.436.826-1.064 0-1.946-.336-2.646-1.008 0 .037.005.079.014.126v.084c.019.149.028.247.028.294 0 .345-.163.518-.49.518-.354 0-.532-.196-.532-.588 0-.047.005-.084.014-.112l.056-.728c.028-.364.042-.597.042-.7 0-.187-.023-.467-.07-.84-.046-.373-.07-.653-.07-.84 0-.42.178-.63.532-.63.364 0 .546.21.546.63v.252c-.009.075-.014.182-.014.322 0 .7.224 1.255.672 1.666s1.055.616 1.82.616c.71 0 1.274-.168 1.694-.504s.63-.793.63-1.372c0-.887-.56-1.428-1.68-1.624l-.798-.14c-.793-.14-1.409-.303-1.848-.49-.401-.177-.723-.453-.966-.826-.233-.383-.35-.812-.35-1.288 0-.821.299-1.489.896-2.002.598-.513 1.372-.77 2.324-.77zm11.772 5.53c0 .355-.023.574-.07.658-.046.075-.182.112-.406.112h-4.452c-.121 0-.2.019-.238.056-.037.028-.056.079-.056.154 0 .7.21 1.283.63 1.75s.943.7 1.568.7c.411 0 .784-.112 1.12-.336.346-.224.57-.509.672-.854l.126-.406c.066-.224.22-.336.462-.336.346 0 .518.177.518.532 0 .607-.308 1.148-.924 1.624-.616.467-1.316.7-2.1.7-.98 0-1.759-.327-2.338-.98-.578-.663-.868-1.549-.868-2.66 0-1.139.308-2.063.924-2.772s1.419-1.064 2.408-1.064c.878 0 1.601.294 2.17.882.57.588.854 1.335.854 2.24zm-5.082-.364c0 .131.103.196.308.196h3.346c.196 0 .294-.065.294-.196 0-.495-.186-.924-.56-1.288-.373-.364-.812-.546-1.316-.546-.522 0-.998.191-1.428.574-.429.373-.644.793-.644 1.26zm12.979.364c0 .355-.024.574-.07.658-.047.075-.182.112-.406.112h-4.452c-.122 0-.201.019-.238.056-.038.028-.056.079-.056.154 0 .7.21 1.283.63 1.75s.942.7 1.568.7c.41 0 .784-.112 1.12-.336.345-.224.569-.509.672-.854l.126-.406c.065-.224.219-.336.462-.336.345 0 .518.177.518.532 0 .607-.308 1.148-.924 1.624-.616.467-1.316.7-2.1.7-.98 0-1.76-.327-2.338-.98-.579-.663-.868-1.549-.868-2.66 0-1.139.308-2.063.924-2.772s1.418-1.064 2.408-1.064c.877 0 1.6.294 2.17.882.569.588.854 1.335.854 2.24zm-5.082-.364c0 .131.102.196.308.196h3.346c.196 0 .294-.065.294-.196 0-.495-.187-.924-.56-1.288-.374-.364-.812-.546-1.316-.546-.523 0-.999.191-1.428.574-.43.373-.644.793-.644 1.26zm12.82-1.176 1.61 4.732 1.708-4.662c.047-.131.07-.233.07-.308 0-.159-.107-.238-.322-.238-.112 0-.2.009-.266.028-.149.019-.247.028-.294.028-.308 0-.462-.149-.462-.448 0-.317.201-.476.602-.476.056 0 .15.009.28.028l.504.07c.131.019.271.028.42.028.159 0 .392-.019.7-.056s.542-.056.7-.056c.402 0 .602.154.602.462 0 .299-.154.448-.462.448-.093 0-.163-.009-.21-.028-.121-.028-.205-.042-.252-.042-.177 0-.359.238-.546.714l-1.904 4.76c-.42 1.055-.816 1.82-1.19 2.296-.634.812-1.428 1.218-2.38 1.218-.569 0-1.05-.145-1.442-.434-.382-.289-.574-.639-.574-1.05 0-.289.084-.527.252-.714.168-.177.388-.266.658-.266.215 0 .392.061.532.182.14.131.21.289.21.476 0 .299-.135.49-.406.574.14.205.406.308.798.308.495 0 .938-.187 1.33-.56.402-.364.602-.775.602-1.232 0-.233-.126-.667-.378-1.302l-1.54-3.892s-.056-.149-.168-.448c-.158-.42-.34-.63-.546-.63-.056 0-.158.014-.308.042-.14.028-.233.042-.28.042-.326 0-.49-.149-.49-.448 0-.317.215-.476.644-.476.14 0 .248.005.322.014l.56.07h.112c.066.009.122.014.168.014.336 0 .696-.019 1.078-.056.29-.028.481-.042.574-.042.392 0 .588.154.588.462s-.177.462-.532.462c-.056 0-.144-.009-.266-.028-.121-.028-.21-.042-.266-.042-.13 0-.196.065-.196.196 0 .075.019.168.056.28zm9.931 5.894c-.98 0-1.764-.336-2.352-1.008-.588-.681-.882-1.591-.882-2.73s.294-2.044.882-2.716c.597-.681 1.395-1.022 2.394-1.022 1.017 0 1.82.331 2.408.994s.882 1.563.882 2.702-.304 2.053-.91 2.744c-.607.691-1.414 1.036-2.422 1.036zm.07-6.552c-.654 0-1.167.229-1.54.686-.374.457-.579 1.106-.616 1.946v.182c0 .877.182 1.568.546 2.072.373.495.891.742 1.554.742.681 0 1.213-.247 1.596-.742.392-.504.588-1.199.588-2.086 0-1.867-.71-2.8-2.128-2.8zm10.564 5.964v-.434c-.495.681-1.227 1.022-2.198 1.022-1.101 0-1.867-.341-2.296-1.022-.187-.299-.289-.649-.308-1.05-.009-.196-.014-.607-.014-1.232v-1.162c0-1.279-.135-1.918-.406-1.918-.056 0-.145.014-.266.042-.121.019-.215.028-.28.028-.327 0-.49-.154-.49-.462 0-.299.201-.448.602-.448.093 0 .229.009.406.028.187.019.327.028.42.028.084 0 .229-.014.434-.042.14-.019.219-.028.238-.028.289 0 .434.177.434.532v.294l-.014.91-.042 1.036v.91c0 .812.065 1.395.196 1.75.215.588.728.882 1.54.882.401 0 .756-.089 1.064-.266.308-.187.523-.429.644-.728.149-.364.224-1.055.224-2.072v-.77c0-.56 0-.863 0-.91-.047-.448-.168-.672-.364-.672-.103 0-.187.009-.252.028h-.168c-.327 0-.49-.145-.49-.434 0-.327.182-.49.546-.49.084 0 .21.009.378.028.177.019.308.028.392.028.075 0 .187-.005.336-.014.149-.019.261-.028.336-.028.28 0 .42.149.42.448 0 .131-.009.233-.028.308-.047.355-.07.877-.07 1.568v2.156c0 .569.005.887.014.952.047.495.177.742.392.742.065 0 .159-.009.28-.028.121-.028.215-.042.28-.042.317 0 .476.154.476.462 0 .317-.196.476-.588.476-.084 0-.205-.009-.364-.028-.233-.028-.378-.042-.434-.042-.028 0-.126.009-.294.028-.112.028-.21.042-.294.042-.261 0-.392-.135-.392-.406zm9.64-5.502.014 4.354c.009.476.135.714.378.714.056 0 .173-.023.35-.07.112-.019.187-.028.224-.028.308 0 .462.159.462.476 0 .308-.191.462-.574.462-.149 0-.387-.019-.714-.056s-.579-.056-.756-.056c-.149 0-.373.019-.672.056s-.518.056-.658.056h-.07c-.392 0-.588-.168-.588-.504 0-.289.159-.434.476-.434h.098c.056.009.098.014.126.014.233.037.369.056.406.056.168 0 .271-.07.308-.21.047-.149.075-.527.084-1.134l.014-.98.042-2.17-.014-2.492c-.009-.28-.023-.467-.042-.56-.065-.215-.196-.322-.392-.322-.028 0-.149.019-.364.056-.103.019-.187.028-.252.028-.317 0-.476-.149-.476-.448 0-.308.187-.462.56-.462.103 0 .191.005.266.014l.336.042c.149.019.275.028.378.028.093 0 .233-.014.42-.042.187-.037.327-.056.42-.056.215 0 .322.135.322.406 0 .093-.005.163-.014.21-.065.719-.098 1.736-.098 3.052zm8.656 6.034c-.765 0-1.236-.331-1.414-.994-.476.7-1.222 1.05-2.24 1.05-.756 0-1.362-.187-1.82-.56-.448-.373-.672-.873-.672-1.498 0-.775.332-1.344.994-1.708.252-.14.467-.229.644-.266.187-.047.556-.103 1.106-.168.784-.084 1.293-.201 1.526-.35.243-.149.364-.425.364-.826 0-.383-.135-.681-.406-.896-.261-.224-.63-.336-1.106-.336-.42 0-.812.117-1.176.35-.14.093-.21.191-.21.294 0 .037.042.084.126.14.131.093.196.252.196.476 0 .187-.07.341-.21.462-.13.121-.298.182-.504.182-.242 0-.448-.084-.616-.252-.158-.168-.238-.373-.238-.616 0-.523.257-.971.77-1.344.523-.373 1.153-.56 1.89-.56 1.699 0 2.548.817 2.548 2.45v2.828c0 .448.01.714.028.798.056.327.215.49.476.49.327 0 .49-.299.49-.896v-.686c0-.299.145-.448.434-.448.308 0 .462.224.462.672v.07l-.014.798c-.018.896-.494 1.344-1.428 1.344zm-1.554-2.786.014-.994c-.205.187-.424.317-.658.392-.224.075-.63.14-1.218.196-1.064.103-1.596.495-1.596 1.176 0 .355.126.635.378.84.262.205.612.308 1.05.308.626 0 1.116-.168 1.47-.504.364-.345.551-.817.56-1.414zm7.787.672.028-.896c.009-.383.177-.574.504-.574.326 0 .49.215.49.644 0 1.017-.131 1.727-.392 2.128-.355.541-.938.812-1.75.812-.747 0-1.279-.238-1.596-.714-.234-.345-.35-.933-.35-1.764v-3.36c0-.196-.089-.294-.266-.294h-.448c-.15 0-.276-.047-.378-.14-.094-.103-.14-.224-.14-.364 0-.131.046-.247.14-.35.102-.103.214-.154.336-.154h.546c.158 0 .238-.089.238-.266v-1.442c0-.355.182-.532.546-.532.336 0 .504.177.504.532v1.498c0 .14.084.21.252.21h1.526c.354 0 .532.163.532.49 0 .345-.192.518-.574.518h-1.54c-.131 0-.196.098-.196.294v3.444c0 .98.322 1.47.966 1.47.653 0 .994-.397 1.022-1.19zm8.611-2.184c0 .355-.023.574-.07.658-.046.075-.182.112-.406.112h-4.452c-.121 0-.2.019-.238.056-.037.028-.056.079-.056.154 0 .7.21 1.283.63 1.75s.943.7 1.568.7c.411 0 .784-.112 1.12-.336.346-.224.57-.509.672-.854l.126-.406c.066-.224.22-.336.462-.336.346 0 .518.177.518.532 0 .607-.308 1.148-.924 1.624-.616.467-1.316.7-2.1.7-.98 0-1.759-.327-2.338-.98-.578-.663-.868-1.549-.868-2.66 0-1.139.308-2.063.924-2.772s1.419-1.064 2.408-1.064c.878 0 1.601.294 2.17.882.57.588.854 1.335.854 2.24zm-5.082-.364c0 .131.103.196.308.196h3.346c.196 0 .294-.065.294-.196 0-.495-.186-.924-.56-1.288-.373-.364-.812-.546-1.316-.546-.522 0-.998.191-1.428.574-.429.373-.644.793-.644 1.26zm8.737-2.114v.378c.485-.681 1.134-1.022 1.946-1.022.653 0 1.18.187 1.582.56.41.364.616.835.616 1.414 0 .411-.103.747-.308 1.008-.206.252-.476.378-.812.378-.215 0-.397-.065-.546-.196-.15-.131-.224-.289-.224-.476 0-.149.056-.28.168-.392.112-.121.242-.182.392-.182.028 0 .088.014.182.042.056-.112.084-.215.084-.308 0-.271-.122-.499-.364-.686-.234-.187-.528-.28-.882-.28-.728 0-1.214.327-1.456.98-.15.401-.224 1.008-.224 1.82v.924c0 .625.004.975.014 1.05.046.532.191.798.434.798.121 0 .247-.019.378-.056.102-.028.191-.042.266-.042.298 0 .448.149.448.448 0 .327-.192.49-.574.49h-.056c-.14 0-.355-.019-.644-.056-.28-.028-.49-.042-.63-.042-.374 0-.668.009-.882.028l-.784.07c-.383 0-.574-.163-.574-.49 0-.289.177-.434.532-.434.093 0 .163.005.21.014l.21.042c.093.019.158.028.196.028.233 0 .359-.215.378-.644l.028-.714-.042-3.178c-.028-.551-.168-.826-.42-.826-.075 0-.178.014-.308.042-.131.028-.234.042-.308.042-.308 0-.462-.149-.462-.448 0-.327.2-.49.602-.49.093 0 .233.014.42.042.186.019.326.028.42.028.074 0 .196-.009.364-.028.074-.019.163-.028.266-.028.242 0 .364.131.364.392z" fill="#49454f"/></svg>