<svg fill="none" height="64" viewBox="0 0 64 64" width="64" xmlns="http://www.w3.org/2000/svg" xmlns:xlink="http://www.w3.org/1999/xlink"><clipPath id="a"><path d="m0 0h64v64h-64z"/></clipPath><g clip-path="url(#a)"><path d="m42.6666 34.6667c-8 0-16 5.3333-16 10.6667v5.3333h32v-5.3333c0-5.3334-8-10.6667-16-10.6667zm8-13.3333c0-4.4187-3.584-8-8-8s-8 3.5813-8 8c0 4.4186 3.584 8 8 8s8-3.5814 8-8z" fill="#26c6da"/><path d="m21.3334 34.6667c-8 0-16.00003 5.3333-16.00003 10.6667v5.3333h32.00003v-5.3333c0-5.3334-8-10.6667-16-10.6667zm8-13.3333c0-4.4187-3.5814-8-8-8-4.4187 0-8 3.5813-8 8 0 4.4186 3.5813 8 8 8 4.4186 0 8-3.5814 8-8z" fill="#1e88e5"/></g></svg>