<svg fill="none" height="64" viewBox="0 0 64 64" width="64" xmlns="http://www.w3.org/2000/svg" xmlns:xlink="http://www.w3.org/1999/xlink"><clipPath id="a"><path d="m0 0h64v64h-64z"/></clipPath><g clip-path="url(#a)"><path d="m53.3333 53.3334c0 2.944-2.3893 5.3333-5.3333 5.3333h-32c-2.944 0-5.3334-2.3893-5.3334-5.3333v-42.6667c0-2.94399 2.3894-5.33333 5.3334-5.33333h21.3333l16 16.00003z" fill="#263238"/><path d="m53.3333 21.3334v32c0 2.9333-2.4 5.3333-5.3333 5.3333h-32c-2.9334 0-5.3334-2.4-5.3334-5.3333v-42.6667c0-2.93333 2.4-5.33333 5.3334-5.33333h21.3333l.0267 10.66663c0 2.9334 2.376 5.3334 5.3066 5.3334z" fill="#fff" opacity=".1"/><path d="m21.3333 34.6667h-5.3333v-5.3333h5.3333zm26.6667-5.3333h-21.3333v5.3333h21.3333zm-32 16h16v-5.3334h-16zm32-5.3334h-10.6667v5.3334h10.6667z" fill="#76ff03"/></g></svg>