<svg fill="none" height="64" viewBox="0 0 64 64" width="64" xmlns="http://www.w3.org/2000/svg" xmlns:xlink="http://www.w3.org/1999/xlink"><clipPath id="a"><path d="m0 0h64v64h-64z"/></clipPath><g clip-path="url(#a)"><path d="m58.6667 34.6667c0 4.4267-3.5733 8-8 8v10.6667c0 2.9333-2.4 5.3333-5.3333 5.3333h-8c0-4.4267-3.5734-8-8-8-4.4267 0-8 3.5733-8 8h-10.6667c-2.93333 0-5.33333-2.4-5.33333-5.3333v-10.6667c4.42667 0 8.00003-3.5733 8.00003-8s-3.57336-8-8.00003-8v-8c0-2.9333 2.4-5.3333 5.33333-5.3333h10.6667c0-4.42669 3.5733-8.00003 8-8.00003 4.4266 0 8 3.57334 8 8.00003h8c2.9333 0 5.3333 2.4 5.3333 5.3333v8c4.4267 0 8 3.5733 8 8z" fill="#d32f2f"/><path d="m58.6667 34.6667h-29.3333v-29.33333c4.4266 0 8 3.57334 8 8.00003h8c2.9333 0 5.3333 2.4 5.3333 5.3333v8c4.4267 0 8 3.5733 8 8zm-45.3333 0c0 4.4267-3.57336 8-8.00003 8v10.6667c0 2.9333 2.4 5.3333 5.33333 5.3333h10.6667c0-4.4267 3.5733-8 8-8v-16z" fill="#ececec" opacity=".2"/></g></svg>