<svg xmlns="http://www.w3.org/2000/svg" width="374" height="374" fill="none" viewBox="0 0 374 374"><path fill="#F5F5F5" d="M187 319.815C267.098 319.815 332.03 316.024 332.03 311.347C332.03 306.671 267.098 302.88 187 302.88C106.903 302.88 41.9707 306.671 41.9707 311.347C41.9707 316.024 106.903 319.815 187 319.815Z"/><path fill="#263238" d="M276.123 194.198H275.845C255.253 192.513 241.061 174.873 240.489 174.162C239.961 173.441 239.734 172.544 239.853 171.659C239.973 170.774 240.431 169.97 241.131 169.415C241.831 168.86 242.718 168.598 243.607 168.683C244.496 168.768 245.318 169.194 245.899 169.872C246.062 170.081 258.19 185.031 274.987 187.164C280.398 181.753 285.036 167.468 284.518 163.147V163.024C284.41 161.632 284.147 156.84 285.515 154.018C285.966 153.293 286.669 152.76 287.49 152.523C288.31 152.285 289.189 152.36 289.958 152.733C290.726 153.106 291.329 153.75 291.651 154.541C291.972 155.332 291.99 156.214 291.699 157.017C291.359 157.729 291.197 160.287 291.359 162.428C292.132 169.54 285.948 187.489 278.218 193.495C277.615 193.951 276.88 194.198 276.123 194.198Z"/><path fill="#263238" d="M112.42 175.469C105.307 175.382 98.2917 173.804 91.8263 170.838C85.3608 167.871 79.5892 163.582 74.8841 158.247C74.3514 157.655 74.0403 156.898 74.0037 156.103C73.967 155.308 74.2071 154.525 74.6831 153.887C80.2641 146.381 90.1429 128.657 91.6889 122.882C90.9554 121.49 89.8468 120.331 88.4887 119.535C87.9455 119.282 87.4779 118.892 87.1322 118.402C86.7865 117.913 86.5746 117.341 86.5176 116.745L85.961 111.087C85.9071 110.195 86.2008 109.317 86.7804 108.637C87.36 107.957 88.1805 107.528 89.0696 107.44C89.9588 107.352 90.8475 107.611 91.5491 108.165C92.2508 108.718 92.7109 109.521 92.8329 110.406L93.2194 114.341C95.5065 116.094 97.3166 118.393 98.4835 121.027C98.7154 121.578 98.8006 122.18 98.7308 122.774C98.0197 128.904 88.0713 146.66 81.9492 155.634C96.2418 169.88 113.333 168.582 114.106 168.512C115.006 168.45 115.896 168.742 116.583 169.327C117.271 169.912 117.702 170.743 117.785 171.642C117.868 172.541 117.596 173.437 117.026 174.138C116.457 174.838 115.636 175.288 114.739 175.392C114.508 175.407 113.711 175.469 112.42 175.469Z"/><path fill="#263238" d="M223.769 312.496H214.493C214.039 312.496 213.59 312.407 213.171 312.233C212.751 312.06 212.371 311.805 212.05 311.484C211.729 311.163 211.474 310.783 211.301 310.363C211.127 309.944 211.038 309.495 211.038 309.041C211.036 308.73 211.078 308.421 211.161 308.121C213.581 299.433 214.771 292.36 215.66 281.291C212.383 265.831 209.298 251.755 209.268 251.616C209.1 250.732 209.284 249.817 209.78 249.067C210.276 248.316 211.045 247.789 211.924 247.596C212.803 247.404 213.722 247.562 214.486 248.037C215.25 248.512 215.799 249.266 216.016 250.139C216.016 250.278 219.2 264.718 222.517 280.348C222.587 280.672 222.608 281.006 222.578 281.337C221.805 291.278 220.793 298.15 218.969 305.594H223.746C224.633 305.636 225.47 306.017 226.083 306.66C226.696 307.303 227.038 308.157 227.038 309.045C227.038 309.933 226.696 310.787 226.083 311.43C225.47 312.072 224.633 312.454 223.746 312.496H223.769Z"/><path fill="#263238" d="M152.229 312.497H147.004C146.552 312.499 146.104 312.412 145.686 312.24C145.268 312.069 144.887 311.816 144.567 311.497C144.247 311.179 143.993 310.799 143.819 310.382C143.646 309.965 143.556 309.517 143.556 309.065C143.541 308.901 143.541 308.735 143.556 308.57C144.445 302.232 148.967 290.691 153.837 279.089C155.561 263.783 156.968 250.642 156.983 250.488C157.059 249.575 157.495 248.729 158.194 248.137C158.894 247.544 159.8 247.254 160.713 247.33C161.626 247.406 162.472 247.842 163.064 248.541C163.656 249.241 163.946 250.147 163.871 251.06V251.261C163.871 251.392 162.417 264.835 160.663 280.364C160.627 280.689 160.544 281.006 160.415 281.307C156.991 289.524 153.08 299.202 151.294 305.61H152.222C152.676 305.586 153.131 305.652 153.56 305.805C153.989 305.957 154.384 306.193 154.721 306.499C155.059 306.804 155.333 307.174 155.527 307.585C155.721 307.997 155.833 308.443 155.854 308.898C155.875 309.353 155.807 309.807 155.652 310.236C155.497 310.664 155.259 311.057 154.952 311.393C154.644 311.729 154.273 312.001 153.861 312.193C153.448 312.385 153.001 312.494 152.546 312.513H152.222L152.229 312.497Z"/><path fill="#fff" d="M155.236 76.665L114.994 116.915C112.969 161.524 113.131 208.383 114.994 256.965H248.072C245.436 194.275 245.189 133.928 248.072 76.665H155.236Z"/><path fill="#263238" d="M248.073 257.645H114.995C114.815 257.646 114.643 257.577 114.513 257.453C114.384 257.329 114.307 257.16 114.299 256.981C112.374 206.528 112.374 159.375 114.299 116.861C114.309 116.688 114.384 116.525 114.508 116.405L154.75 76.1551C154.813 76.0909 154.889 76.0401 154.973 76.0055C155.056 75.971 155.146 75.9536 155.237 75.9541H248.073C248.167 75.9535 248.26 75.9723 248.347 76.0096C248.433 76.0469 248.511 76.1017 248.575 76.1706C248.64 76.2378 248.69 76.3179 248.722 76.4058C248.754 76.4938 248.767 76.5874 248.761 76.6807C245.986 131.826 245.986 190.782 248.761 256.919C248.765 257.106 248.695 257.288 248.566 257.424C248.437 257.56 248.26 257.639 248.073 257.645ZM115.652 256.262H247.354C244.617 190.666 244.61 132.127 247.354 77.3378H155.523L115.652 117.193C113.758 159.429 113.758 206.211 115.652 256.262Z"/><path fill="#263238" d="M154.186 213.021L155.639 212.897C155.706 213.413 155.894 213.906 156.188 214.335C156.505 214.742 156.927 215.055 157.409 215.24C157.979 215.478 158.592 215.596 159.21 215.587C159.737 215.597 160.262 215.508 160.756 215.325C161.143 215.188 161.48 214.937 161.722 214.606C161.923 214.313 162.023 213.963 162.008 213.609C162 213.257 161.871 212.919 161.645 212.65C161.354 212.326 160.98 212.087 160.563 211.962C159.87 211.734 159.166 211.543 158.452 211.39C157.656 211.232 156.878 210.988 156.133 210.664C155.616 210.415 155.169 210.04 154.835 209.574C154.539 209.145 154.373 208.641 154.356 208.12C154.322 207.517 154.481 206.919 154.811 206.413C155.14 205.907 155.623 205.52 156.188 205.307C156.858 205.027 157.579 204.891 158.306 204.905C159.099 204.887 159.887 205.029 160.625 205.322C161.247 205.575 161.784 206.002 162.171 206.551C162.555 207.093 162.785 207.729 162.835 208.391L161.359 208.507C161.291 207.854 160.972 207.252 160.47 206.83C159.866 206.419 159.143 206.22 158.414 206.265C157.702 206.199 156.989 206.382 156.396 206.783C156.207 206.927 156.055 207.115 155.954 207.33C155.853 207.545 155.806 207.782 155.817 208.02C155.821 208.218 155.868 208.414 155.955 208.593C156.042 208.771 156.166 208.929 156.319 209.056C157.044 209.487 157.849 209.768 158.684 209.883C159.579 210.063 160.456 210.321 161.305 210.656C161.915 210.907 162.448 211.315 162.851 211.838C163.199 212.335 163.396 212.923 163.416 213.53C163.437 214.136 163.281 214.736 162.967 215.255C162.615 215.822 162.101 216.269 161.49 216.538C160.791 216.854 160.031 217.01 159.264 216.994C158.364 217.026 157.467 216.885 156.62 216.577C155.919 216.286 155.314 215.804 154.874 215.186C154.449 214.541 154.211 213.792 154.186 213.021Z"/><path fill="#263238" d="M171.236 214.049L172.728 214.234C172.58 215.027 172.152 215.74 171.522 216.244C170.833 216.747 169.993 217 169.141 216.963C168.59 216.987 168.039 216.898 167.523 216.701C167.007 216.504 166.537 216.204 166.142 215.819C165.336 214.949 164.893 213.804 164.905 212.619C164.768 211.436 165.104 210.246 165.841 209.31C166.19 208.917 166.622 208.607 167.106 208.403C167.59 208.198 168.114 208.104 168.639 208.128C169.164 208.114 169.686 208.21 170.172 208.409C170.658 208.609 171.097 208.908 171.46 209.287C172.264 210.176 172.703 211.335 172.689 212.534V212.912H166.382C166.431 213.701 166.75 214.449 167.286 215.03C167.518 215.275 167.797 215.47 168.107 215.603C168.416 215.736 168.75 215.804 169.087 215.803C169.565 215.819 170.034 215.672 170.417 215.386C170.825 215.038 171.112 214.57 171.236 214.049ZM166.42 211.73H171.143C171.092 211.149 170.878 210.594 170.525 210.13C170.303 209.865 170.024 209.654 169.71 209.511C169.396 209.367 169.054 209.296 168.708 209.302C168.406 209.293 168.105 209.347 167.824 209.46C167.543 209.573 167.289 209.743 167.077 209.96C166.635 210.444 166.4 211.082 166.42 211.737V211.73Z"/><path fill="#263238" d="M174.632 216.77L174.23 208.321H175.514L175.575 209.604C175.768 209.148 176.061 208.741 176.433 208.414C176.698 208.226 177.014 208.126 177.338 208.128C177.868 208.144 178.384 208.305 178.83 208.592L178.405 209.921C178.082 209.727 177.714 209.621 177.338 209.612C177.038 209.605 176.745 209.703 176.511 209.89C176.261 210.083 176.086 210.356 176.016 210.663C175.873 211.208 175.818 211.771 175.854 212.333L176.062 216.755L174.632 216.77Z"/><path fill="#263238" d="M182.422 216.769L178.805 208.32H180.351L182.407 213.383C182.631 213.932 182.84 214.497 183.033 215.084C183.141 214.643 183.288 214.102 183.489 213.476L185.12 208.32H186.596L183.798 216.769H182.422Z"/><path fill="#263238" d="M187.755 206.752L187.67 205.105H189.084L189.162 206.752H187.755ZM188.234 216.801L187.825 208.352H189.262L189.664 216.801H188.234Z"/><path fill="#263238" d="M197.21 213.678L198.632 213.863C198.574 214.731 198.19 215.545 197.558 216.143C196.921 216.707 196.089 217.001 195.239 216.963C194.712 216.981 194.187 216.889 193.698 216.693C193.208 216.498 192.764 216.202 192.394 215.827C191.598 214.934 191.165 213.776 191.181 212.58C191.127 211.766 191.243 210.95 191.521 210.184C191.763 209.532 192.225 208.985 192.827 208.638C193.434 208.29 194.123 208.112 194.822 208.12C195.651 208.083 196.469 208.328 197.141 208.816C197.765 209.312 198.194 210.013 198.354 210.794L196.978 211.011C196.854 210.516 196.585 210.069 196.205 209.728C195.853 209.445 195.413 209.294 194.961 209.303C194.633 209.287 194.306 209.349 194.006 209.483C193.707 209.617 193.443 209.82 193.237 210.076C192.76 210.801 192.562 211.674 192.68 212.534C192.657 213.421 192.929 214.291 193.453 215.007C193.671 215.256 193.94 215.453 194.241 215.587C194.543 215.72 194.87 215.786 195.2 215.78C195.712 215.795 196.208 215.609 196.584 215.262C196.976 214.826 197.198 214.264 197.21 213.678Z"/><path fill="#263238" d="M205.65 214.049L207.142 214.234C206.994 215.027 206.566 215.74 205.936 216.244C205.247 216.747 204.407 217 203.555 216.963C203.004 216.987 202.453 216.898 201.937 216.701C201.421 216.504 200.951 216.204 200.556 215.819C199.753 214.947 199.311 213.803 199.319 212.619C199.251 212.032 199.299 211.438 199.461 210.87C199.623 210.303 199.895 209.772 200.262 209.31C200.61 208.917 201.041 208.607 201.524 208.403C202.006 208.198 202.529 208.104 203.053 208.128C203.578 208.114 204.1 208.21 204.586 208.409C205.072 208.609 205.511 208.908 205.874 209.287C206.678 210.176 207.117 211.335 207.103 212.534V212.912H200.796C200.839 213.7 201.153 214.448 201.685 215.03C201.918 215.275 202.199 215.469 202.51 215.602C202.821 215.735 203.155 215.803 203.493 215.803C203.969 215.819 204.435 215.672 204.815 215.386C205.227 215.039 205.519 214.571 205.65 214.049ZM200.834 211.73H205.557C205.51 211.148 205.295 210.592 204.939 210.13C204.717 209.865 204.438 209.654 204.124 209.511C203.81 209.367 203.468 209.296 203.122 209.302C202.821 209.291 202.52 209.344 202.24 209.457C201.961 209.571 201.708 209.742 201.499 209.959C201.051 210.441 200.812 211.08 200.834 211.737V211.73Z"/><path fill="#263238" d="M146.973 233.072L146.911 231.827C146.644 232.279 146.261 232.651 145.802 232.904C145.342 233.156 144.823 233.281 144.299 233.265C143.813 233.267 143.331 233.17 142.884 232.979C142.498 232.824 142.156 232.577 141.887 232.26C141.652 231.942 141.487 231.579 141.4 231.193C141.306 230.754 141.254 230.306 141.245 229.856L140.99 224.623H142.428L142.652 229.307C142.66 229.827 142.714 230.344 142.814 230.853C142.908 231.212 143.124 231.526 143.425 231.742C143.75 231.957 144.133 232.068 144.523 232.059C144.945 232.063 145.361 231.948 145.721 231.727C146.075 231.527 146.348 231.21 146.494 230.83C146.642 230.292 146.694 229.732 146.649 229.176L146.432 224.654H147.862L148.264 233.103L146.973 233.072Z"/><path fill="#263238" d="M150.498 233.071L150.088 224.622H151.379L151.441 225.821C151.709 225.372 152.095 225.005 152.557 224.76C153.019 224.514 153.539 224.4 154.061 224.429C154.546 224.426 155.026 224.517 155.476 224.7C155.868 224.847 156.212 225.099 156.473 225.426C156.71 225.741 156.878 226.102 156.967 226.485C157.059 226.944 157.108 227.409 157.114 227.877L157.362 233.071H155.932L155.684 227.931C155.685 227.485 155.607 227.043 155.452 226.625C155.327 226.33 155.106 226.085 154.826 225.929C154.522 225.75 154.174 225.659 153.821 225.666C153.25 225.657 152.697 225.867 152.275 226.253C152.032 226.56 151.855 226.915 151.758 227.295C151.661 227.674 151.645 228.07 151.711 228.457L151.935 233.094L150.498 233.071Z"/><path fill="#263238" d="M165.029 232.036C164.595 232.445 164.089 232.77 163.537 232.994C163.043 233.179 162.519 233.273 161.991 233.273C161.206 233.321 160.43 233.079 159.811 232.593C159.557 232.379 159.351 232.113 159.209 231.813C159.066 231.513 158.99 231.186 158.984 230.853C158.962 230.462 159.039 230.071 159.208 229.717C159.374 229.39 159.615 229.106 159.912 228.89C160.22 228.683 160.559 228.526 160.917 228.426C161.334 228.327 161.758 228.255 162.184 228.21C163.042 228.134 163.889 227.968 164.712 227.715V227.344C164.723 227.117 164.687 226.891 164.607 226.678C164.527 226.465 164.405 226.271 164.248 226.107C163.784 225.814 163.25 225.647 162.701 225.624C162.151 225.601 161.606 225.722 161.118 225.976C160.761 226.304 160.531 226.747 160.468 227.228L159.054 227.042C159.123 226.52 159.316 226.021 159.618 225.589C159.932 225.189 160.357 224.891 160.839 224.731C161.452 224.525 162.095 224.426 162.741 224.437C163.341 224.421 163.94 224.507 164.511 224.693C164.893 224.792 165.24 224.996 165.513 225.282C165.786 225.567 165.974 225.922 166.057 226.308C166.136 226.745 166.18 227.187 166.189 227.63L166.281 229.539C166.297 230.385 166.367 231.23 166.49 232.067C166.575 232.424 166.716 232.766 166.907 233.08H165.408C165.217 232.758 165.089 232.404 165.029 232.036ZM164.751 228.836C164.002 229.107 163.224 229.289 162.432 229.377C162.01 229.425 161.595 229.521 161.195 229.663C160.969 229.758 160.779 229.923 160.654 230.134C160.528 230.338 160.469 230.576 160.484 230.815C160.492 230.998 160.539 231.178 160.622 231.341C160.704 231.505 160.821 231.65 160.963 231.765C161.333 232.045 161.791 232.182 162.254 232.152C162.762 232.161 163.263 232.036 163.707 231.789C164.108 231.565 164.425 231.218 164.612 230.799C164.758 230.335 164.813 229.847 164.774 229.361L164.751 228.836Z"/><path fill="#263238" d="M170.975 233.072L167.357 224.623H168.903L170.921 229.717C171.145 230.266 171.354 230.838 171.547 231.425C171.655 230.977 171.802 230.444 172.003 229.818L173.634 224.662H175.103L172.312 233.11L170.975 233.072Z"/><path fill="#263238" d="M182.246 232.036C181.812 232.445 181.306 232.77 180.754 232.994C180.26 233.179 179.736 233.273 179.208 233.273C178.425 233.32 177.652 233.078 177.036 232.593C176.78 232.38 176.573 232.114 176.429 231.814C176.285 231.514 176.207 231.186 176.201 230.853C176.179 230.462 176.256 230.071 176.425 229.717C176.591 229.39 176.832 229.106 177.129 228.89C177.439 228.681 177.781 228.525 178.141 228.426C178.556 228.327 178.977 228.255 179.401 228.21C180.259 228.134 181.106 227.968 181.929 227.715V227.344C181.939 227.117 181.904 226.891 181.824 226.678C181.744 226.465 181.622 226.271 181.465 226.107C181.005 225.821 180.478 225.658 179.936 225.635C179.395 225.612 178.856 225.729 178.373 225.976C178.016 226.304 177.787 226.747 177.724 227.228L176.309 227.042C176.378 226.52 176.572 226.021 176.874 225.589C177.187 225.189 177.612 224.891 178.095 224.731C178.707 224.525 179.351 224.426 179.996 224.437C180.597 224.421 181.195 224.507 181.767 224.693C182.149 224.792 182.495 224.996 182.768 225.282C183.041 225.567 183.23 225.922 183.313 226.308C183.391 226.745 183.435 227.187 183.444 227.63L183.537 229.539C183.533 230.373 183.579 231.207 183.676 232.036C183.754 232.394 183.892 232.737 184.086 233.049H182.586C182.416 232.733 182.301 232.39 182.246 232.036ZM181.968 228.836C181.219 229.107 180.44 229.289 179.649 229.377C179.227 229.425 178.812 229.521 178.412 229.663C178.186 229.758 177.996 229.923 177.871 230.134C177.745 230.338 177.686 230.576 177.701 230.815C177.709 230.998 177.756 231.178 177.838 231.341C177.921 231.505 178.037 231.65 178.18 231.765C178.55 232.045 179.008 232.182 179.471 232.152C179.979 232.161 180.48 232.036 180.924 231.789C181.325 231.565 181.642 231.218 181.828 230.799C181.983 230.337 182.038 229.847 181.991 229.361L181.968 228.836Z"/><path fill="#263238" d="M185.366 223.054L185.289 221.407H186.719L186.804 223.054H185.366ZM185.846 233.103L185.444 224.654H186.874L187.283 233.103H185.846Z"/><path fill="#263238" d="M189.433 233.072L188.869 221.407H190.307L190.863 233.072H189.433Z"/><path fill="#263238" d="M198.546 232.036C198.115 232.445 197.612 232.77 197.062 232.994C196.568 233.179 196.044 233.273 195.516 233.273C194.734 233.316 193.962 233.075 193.344 232.593C193.09 232.379 192.884 232.113 192.741 231.813C192.599 231.513 192.522 231.186 192.517 230.853C192.491 230.474 192.563 230.095 192.725 229.751C192.887 229.407 193.135 229.111 193.444 228.89C193.753 228.683 194.092 228.526 194.449 228.426C194.867 228.327 195.29 228.255 195.717 228.21C196.574 228.13 197.421 227.964 198.245 227.715V227.344C198.255 227.117 198.219 226.891 198.14 226.678C198.06 226.465 197.938 226.271 197.781 226.107C197.316 225.813 196.783 225.646 196.233 225.623C195.684 225.6 195.138 225.721 194.65 225.976C194.295 226.306 194.064 226.748 193.993 227.228L192.586 227.042C192.654 226.521 192.845 226.023 193.143 225.589C193.46 225.189 193.887 224.891 194.372 224.731C194.984 224.525 195.628 224.426 196.274 224.437C196.874 224.421 197.473 224.507 198.044 224.693C198.426 224.792 198.772 224.996 199.045 225.282C199.318 225.567 199.507 225.922 199.59 226.308C199.668 226.745 199.712 227.187 199.721 227.63L199.814 229.539C199.829 230.385 199.899 231.23 200.023 232.067C200.105 232.424 200.243 232.766 200.432 233.08H198.94C198.748 232.758 198.615 232.404 198.546 232.036ZM198.276 228.836C197.527 229.107 196.748 229.289 195.957 229.377C195.535 229.425 195.12 229.521 194.72 229.663C194.494 229.758 194.304 229.923 194.179 230.134C194.053 230.338 193.994 230.576 194.009 230.815C194.015 230.998 194.062 231.178 194.144 231.342C194.227 231.507 194.344 231.651 194.488 231.765C194.858 232.045 195.316 232.182 195.779 232.152C196.287 232.161 196.788 232.036 197.232 231.789C197.632 231.567 197.948 231.219 198.129 230.799C198.283 230.337 198.338 229.847 198.291 229.361L198.276 228.836Z"/><path fill="#263238" d="M203.47 233.072H202.141L201.584 221.407H202.999L203.2 225.566C203.453 225.205 203.792 224.913 204.185 224.714C204.579 224.516 205.016 224.418 205.457 224.43C205.971 224.422 206.481 224.53 206.949 224.747C207.411 224.94 207.819 225.242 208.139 225.628C208.472 226.037 208.733 226.5 208.912 226.996C209.111 227.55 209.223 228.131 209.244 228.72C209.387 229.914 209.06 231.117 208.332 232.074C208.031 232.453 207.648 232.757 207.211 232.963C206.774 233.17 206.295 233.273 205.812 233.265C205.338 233.273 204.869 233.162 204.448 232.944C204.027 232.725 203.667 232.405 203.4 232.013L203.47 233.072ZM203.246 228.782C203.238 229.544 203.416 230.298 203.764 230.977C203.952 231.311 204.226 231.59 204.558 231.784C204.889 231.978 205.266 232.081 205.65 232.082C205.959 232.082 206.264 232.008 206.54 231.867C206.815 231.726 207.053 231.522 207.235 231.271C207.709 230.553 207.911 229.689 207.807 228.836C207.823 227.959 207.551 227.101 207.034 226.393C206.835 226.152 206.586 225.958 206.305 225.824C206.023 225.69 205.715 225.621 205.403 225.62C205.093 225.624 204.788 225.7 204.513 225.842C204.238 225.984 204 226.189 203.818 226.439C203.36 227.121 203.158 227.942 203.246 228.758V228.782Z"/><path fill="#263238" d="M211.185 233.072L210.621 221.407H212.059L212.615 233.072H211.185Z"/><path fill="#263238" d="M220.493 230.351L221.985 230.537C221.83 231.327 221.403 232.038 220.779 232.546C220.09 233.049 219.25 233.303 218.398 233.265C217.847 233.287 217.297 233.196 216.782 233C216.266 232.803 215.796 232.504 215.399 232.121C214.593 231.252 214.15 230.107 214.162 228.921C214.093 228.334 214.139 227.739 214.3 227.17C214.46 226.601 214.731 226.069 215.097 225.605C215.449 225.215 215.882 224.908 216.365 224.705C216.849 224.502 217.372 224.408 217.896 224.43C218.42 224.417 218.941 224.513 219.427 224.711C219.912 224.909 220.352 225.206 220.717 225.582C221.521 226.47 221.96 227.63 221.946 228.828V229.215H215.639C215.678 230.008 215.992 230.762 216.528 231.348C216.762 231.587 217.043 231.775 217.352 231.901C217.662 232.027 217.994 232.089 218.329 232.083C218.805 232.097 219.273 231.953 219.658 231.673C220.063 231.326 220.353 230.865 220.493 230.351ZM215.677 228.032H220.4C220.349 227.451 220.135 226.896 219.782 226.432C219.56 226.168 219.281 225.956 218.967 225.813C218.653 225.67 218.311 225.599 217.965 225.605C217.662 225.597 217.361 225.652 217.08 225.767C216.799 225.881 216.546 226.052 216.334 226.27C215.895 226.75 215.66 227.382 215.677 228.032Z"/><path fill="#FFCF55" d="M224.21 237.802H209.694C209.556 237.802 209.425 237.748 209.327 237.651C209.23 237.554 209.176 237.422 209.176 237.285C209.178 237.15 209.232 237.021 209.327 236.926C209.423 236.831 209.551 236.776 209.686 236.774H224.21C224.345 236.774 224.475 236.827 224.571 236.921C224.668 237.014 224.724 237.142 224.728 237.277C224.728 237.414 224.674 237.546 224.577 237.643C224.48 237.74 224.348 237.795 224.21 237.795V237.802Z"/><path fill="#FFCF55" d="M203.681 237.802H138.842C138.705 237.802 138.573 237.748 138.476 237.651C138.379 237.554 138.324 237.422 138.324 237.285C138.326 237.15 138.381 237.021 138.476 236.926C138.571 236.831 138.7 236.776 138.834 236.774H203.665C203.8 236.774 203.929 236.827 204.026 236.921C204.123 237.014 204.179 237.142 204.183 237.277C204.185 237.413 204.134 237.544 204.039 237.643C203.945 237.741 203.817 237.798 203.681 237.802Z"/><path fill="#FFCF55" d="M163.02 160.294C162.866 156.924 160.956 154.265 158.746 154.342C156.535 154.42 154.881 157.21 155.02 160.58C155.159 163.951 157.084 166.61 159.295 166.525C161.505 166.44 163.175 163.657 163.02 160.294Z"/><path fill="#FFCF55" d="M209.686 159.236C209.532 155.873 207.622 153.214 205.412 153.292C203.201 153.369 201.547 156.159 201.686 159.53C201.825 162.9 203.758 165.559 205.961 165.474C208.164 165.389 209.841 162.606 209.686 159.236Z"/><path fill="#FFCF55" d="M174.67 174.063C178.239 172.729 182.04 172.131 185.846 172.303C189.651 172.476 193.383 173.416 196.816 175.067C197.044 175.195 197.212 175.406 197.284 175.657C197.357 175.907 197.327 176.176 197.203 176.405C197.071 176.632 196.856 176.799 196.603 176.87C196.351 176.941 196.08 176.91 195.85 176.783C195.734 176.722 184.719 170.785 171.57 177.556C171.336 177.675 171.064 177.698 170.813 177.62C170.562 177.542 170.351 177.37 170.225 177.139C170.106 176.908 170.083 176.64 170.161 176.392C170.239 176.144 170.412 175.937 170.643 175.817C171.945 175.145 173.29 174.559 174.67 174.063Z"/><path fill="#FFCF55" d="M156.342 128.718C156.685 128.728 157.02 128.824 157.316 128.996C157.768 129.264 158.096 129.699 158.229 130.207C158.362 130.715 158.29 131.255 158.027 131.71C156.488 134.451 154.311 136.781 151.681 138.502C149.05 140.223 146.043 141.284 142.915 141.596C142.389 141.619 141.875 141.433 141.485 141.078C141.095 140.723 140.862 140.229 140.836 139.702C140.824 139.444 140.864 139.185 140.953 138.941C141.042 138.698 141.177 138.474 141.353 138.283C141.528 138.092 141.739 137.938 141.974 137.828C142.209 137.719 142.463 137.657 142.722 137.646C143.023 137.646 150.158 137.198 154.595 129.708C154.77 129.401 155.025 129.147 155.333 128.973C155.64 128.799 155.989 128.711 156.342 128.718Z"/><path fill="#FFCF55" d="M203.038 127.582C203.361 127.518 203.694 127.535 204.009 127.632C204.323 127.729 204.609 127.903 204.839 128.139C211.023 134.323 218.088 133.078 218.382 133.024C218.893 132.932 219.42 133.041 219.853 133.33C220.285 133.618 220.589 134.062 220.701 134.57C220.803 135.082 220.698 135.615 220.408 136.05C220.118 136.484 219.667 136.786 219.155 136.889C218.768 136.958 209.77 138.675 201.986 130.898C201.732 130.647 201.552 130.33 201.464 129.984C201.376 129.637 201.385 129.273 201.49 128.931C201.594 128.589 201.789 128.281 202.055 128.042C202.321 127.803 202.648 127.642 202.999 127.574L203.038 127.582Z"/><path fill="#000" d="M246.072 149.218L240.421 149.743C239.443 149.835 238.466 149.566 237.672 148.988C236.878 148.411 236.322 147.563 236.108 146.605L228.278 111.527C228.051 110.508 228.229 109.442 228.772 108.551C229.315 107.66 230.183 107.015 231.192 106.75L246.335 102.776L246.072 149.218Z" opacity=".2"/><path fill="#000" d="M158.938 120.486C155.004 109.749 151.069 92.5653 155.22 76.6494L114.979 116.899C126.365 120.725 144.499 122.356 158.938 120.486Z" opacity=".2"/><path fill="#fff" d="M155.236 116.899C150.822 103.866 152.623 86.1495 155.236 76.6494L114.994 116.899C127.176 119.117 140.789 118.762 155.236 116.899Z"/><path fill="#263238" d="M133.431 119.117C127.213 119.163 121.004 118.646 114.879 117.571C114.703 117.541 114.546 117.443 114.441 117.299C114.336 117.155 114.291 116.975 114.315 116.798C114.337 116.653 114.408 116.519 114.516 116.419L154.758 76.1698C154.822 76.1058 154.898 76.0549 154.981 76.0203C155.065 75.9856 155.155 75.9678 155.245 75.9678C155.335 75.9678 155.425 75.9856 155.509 76.0203C155.592 76.0549 155.668 76.1058 155.732 76.1698C155.819 76.2572 155.882 76.3662 155.913 76.4858C155.944 76.6054 155.943 76.7311 155.91 76.85C153.483 85.693 151.465 103.595 155.91 116.69C155.941 116.787 155.95 116.89 155.938 116.991C155.926 117.092 155.893 117.19 155.84 117.277C155.787 117.364 155.715 117.438 155.629 117.493C155.544 117.548 155.447 117.582 155.346 117.594C148.081 118.569 140.761 119.078 133.431 119.117ZM116.425 116.443C127.124 118.213 139.546 118.174 154.302 116.319C150.661 104.77 151.488 89.4884 153.931 78.9062L116.425 116.443Z"/><path fill="#263238" d="M293.517 175.693C293.263 175.693 293.016 175.609 292.815 175.454C292.613 175.299 292.469 175.081 292.404 174.835L278.227 120.819C278.189 120.672 278.18 120.519 278.2 120.369C278.221 120.219 278.27 120.074 278.347 119.943C278.423 119.812 278.525 119.697 278.646 119.606C278.766 119.514 278.904 119.447 279.051 119.408C279.197 119.37 279.35 119.36 279.5 119.381C279.651 119.401 279.796 119.451 279.927 119.528C280.058 119.604 280.172 119.705 280.264 119.826C280.356 119.947 280.423 120.085 280.461 120.231L294.638 174.248C294.716 174.543 294.673 174.857 294.519 175.121C294.366 175.385 294.114 175.577 293.819 175.655C293.721 175.684 293.619 175.697 293.517 175.693Z"/><path fill="#FFCF55" d="M319.918 98.1186L319.17 98.3115L320.235 102.443L320.983 102.251L319.918 98.1186Z"/><path fill="#FFCF55" d="M317.486 92.1944L314.51 80.8546C314.107 79.3183 313.11 78.0049 311.739 77.2033C310.368 76.4017 308.734 76.1775 307.198 76.58L299.414 78.6207L299.221 77.8477L307.005 75.7993C308.738 75.3494 310.579 75.6043 312.124 76.5082C313.67 77.4122 314.795 78.8916 315.253 80.6227L318.236 91.9702L317.486 92.1944Z"/><path fill="#FFCF55" d="M307.7 78.4695L234 97.8042C231.836 98.3718 230.542 100.586 231.11 102.75L240.437 138.302C241.005 140.466 243.219 141.76 245.383 141.193L319.082 121.858C321.246 121.29 322.54 119.076 321.972 116.912L312.645 81.3595C312.078 79.1957 309.863 77.9018 307.7 78.4695Z"/><path fill="#FFCF55" d="M304.03 119.885L257.531 132.083C255.367 132.651 254.073 134.865 254.641 137.029L257.556 148.14C258.124 150.304 260.338 151.598 262.502 151.03L309 138.831C311.164 138.264 312.458 136.049 311.89 133.885L308.976 122.775C308.408 120.611 306.194 119.317 304.03 119.885Z"/><path fill="#fff" d="M261.863 136.139L268.225 134.484L268.65 136.123L264.669 137.159L264.986 138.38L268.704 137.422L269.114 138.968L265.419 139.934L265.813 141.48L269.91 140.421L270.358 142.16L263.889 143.845L261.863 136.139Z"/><path fill="#fff" d="M271.649 141.797L269.646 134.113L273.604 133.085C274.166 132.918 274.75 132.835 275.336 132.838C275.75 132.86 276.144 133.021 276.457 133.294C276.764 133.587 276.99 133.955 277.112 134.361C277.234 134.768 277.248 135.199 277.152 135.613C277.052 135.973 276.86 136.3 276.596 136.564C276.369 136.779 276.108 136.954 275.823 137.082C276.037 137.072 276.252 137.105 276.454 137.18C276.656 137.254 276.84 137.368 276.998 137.515C277.161 137.633 277.316 137.762 277.461 137.901L279.185 139.826L276.503 140.529L274.64 138.504C274.484 138.304 274.286 138.14 274.06 138.025C273.855 137.955 273.632 137.955 273.426 138.025L273.218 138.079L274.029 141.171L271.649 141.797ZM272.839 136.602L273.844 136.347C274.053 136.276 274.255 136.186 274.447 136.077C274.593 136.009 274.706 135.887 274.764 135.737C274.843 135.557 274.851 135.355 274.787 135.169C274.722 134.984 274.589 134.831 274.416 134.74C274.111 134.647 273.785 134.647 273.481 134.74L272.437 135.01L272.839 136.602Z"/><path fill="#fff" d="M279.99 139.626L277.98 131.942L281.938 130.914C282.501 130.751 283.084 130.668 283.67 130.667C284.081 130.691 284.473 130.852 284.783 131.123C285.128 131.424 285.366 131.828 285.463 132.275C285.567 132.645 285.571 133.036 285.475 133.408C285.378 133.78 285.185 134.12 284.914 134.393C284.681 134.602 284.421 134.779 284.141 134.918C284.375 134.919 284.608 134.958 284.829 135.034C285.003 135.118 285.166 135.222 285.316 135.344C285.478 135.46 285.631 135.589 285.772 135.73L287.504 137.663L284.821 138.358L282.943 136.341C282.786 136.139 282.585 135.975 282.356 135.861C282.151 135.8 281.934 135.8 281.729 135.861L281.521 135.916L282.332 139.008L279.99 139.626ZM281.188 134.439L282.193 134.176C282.399 134.102 282.598 134.012 282.788 133.906C282.862 133.873 282.929 133.827 282.985 133.768C283.041 133.71 283.084 133.641 283.113 133.566C283.19 133.387 283.197 133.186 283.133 133.003C283.068 132.82 282.937 132.667 282.765 132.576C282.459 132.478 282.129 132.478 281.822 132.576L280.786 132.847L281.188 134.439Z"/><path fill="#fff" d="M286.831 133.75C286.487 132.816 286.528 131.782 286.945 130.878C287.363 129.973 288.123 129.271 289.057 128.927C289.285 128.842 289.521 128.78 289.761 128.741C290.289 128.569 290.845 128.503 291.399 128.548C291.952 128.593 292.491 128.748 292.984 129.004C293.442 129.298 293.836 129.68 294.143 130.129C294.449 130.578 294.663 131.084 294.77 131.617C294.992 132.37 295.034 133.164 294.893 133.936C294.745 134.581 294.409 135.167 293.927 135.621C293.356 136.131 292.664 136.488 291.917 136.657C291.185 136.873 290.414 136.92 289.66 136.796C289.003 136.663 288.402 136.335 287.937 135.853C287.388 135.263 287.006 134.537 286.831 133.75ZM289.204 133.147C289.306 133.747 289.612 134.293 290.07 134.693C290.449 134.928 290.905 135.003 291.339 134.903C291.773 134.803 292.15 134.536 292.389 134.16C292.399 134.135 292.412 134.112 292.428 134.091C292.621 133.471 292.605 132.806 292.381 132.197C292.28 131.622 291.979 131.102 291.531 130.728C291.34 130.6 291.123 130.517 290.896 130.483C290.668 130.45 290.436 130.467 290.217 130.535C289.996 130.584 289.79 130.683 289.613 130.823C289.437 130.964 289.294 131.143 289.196 131.346C288.988 131.929 288.988 132.565 289.196 133.147H289.204Z"/><path fill="#fff" d="M297.096 135.172L295.094 127.497L299.051 126.468C299.613 126.298 300.197 126.214 300.783 126.221C301.198 126.241 301.593 126.401 301.904 126.677C302.212 126.969 302.438 127.337 302.558 127.744C302.679 128.152 302.691 128.583 302.592 128.996C302.493 129.355 302.304 129.682 302.043 129.947C301.816 130.162 301.555 130.337 301.27 130.465C301.507 130.47 301.741 130.512 301.966 130.588C302.137 130.67 302.298 130.771 302.445 130.89C302.609 131.006 302.762 131.138 302.901 131.284L304.632 133.209L301.95 133.912L300.072 131.895C299.909 131.696 299.71 131.531 299.484 131.408C299.28 131.346 299.062 131.346 298.858 131.408L298.649 131.462L299.461 134.554L297.096 135.172ZM298.286 129.986L299.291 129.73C299.499 129.656 299.7 129.566 299.894 129.46C300.038 129.39 300.151 129.268 300.211 129.12C300.29 128.94 300.298 128.738 300.234 128.553C300.169 128.367 300.037 128.214 299.863 128.123C299.559 128.022 299.231 128.022 298.928 128.123L297.884 128.393L298.286 129.986Z"/><path fill="#fff" d="M243.768 105.451L259.768 101.246L261.175 106.657L250.353 109.502L250.732 113.297C251.354 112.766 252.03 112.302 252.75 111.913C253.418 111.559 254.123 111.279 254.852 111.079C255.922 110.751 257.047 110.639 258.16 110.751C259.274 110.862 260.354 111.194 261.338 111.728C262.269 112.249 263.081 112.959 263.723 113.812C264.365 114.666 264.821 115.643 265.063 116.683C265.465 118.265 265.465 119.923 265.063 121.506C264.686 123.111 263.835 124.565 262.621 125.68C261.128 126.95 259.347 127.837 257.434 128.262C256.057 128.648 254.636 128.858 253.206 128.888C251.086 128.932 249.03 128.166 247.455 126.747C246.675 126.007 246.006 125.158 245.468 124.227L252.093 121.692C252.43 122.605 253.068 123.376 253.901 123.879C254.63 124.281 255.488 124.381 256.29 124.158C256.736 124.051 257.152 123.845 257.507 123.554C257.862 123.264 258.146 122.897 258.338 122.48C258.776 121.386 258.806 120.171 258.423 119.056C258.221 117.892 257.593 116.845 256.661 116.118C256.259 115.866 255.807 115.703 255.336 115.642C254.865 115.581 254.386 115.622 253.932 115.763C253.275 115.941 252.67 116.275 252.17 116.737C251.683 117.207 251.289 117.766 251.01 118.383L245.051 119.064L243.768 105.451Z"/><path fill="#fff" d="M266.795 112.261C265.579 107.654 265.561 104.209 266.741 101.926C267.921 99.643 270.209 98.0583 273.605 97.172C274.961 96.7726 276.377 96.6207 277.787 96.7236C278.829 96.8179 279.842 97.123 280.763 97.6203C281.542 98.0521 282.248 98.6024 282.858 99.2513C283.467 99.9318 283.987 100.688 284.404 101.501C285.348 103.231 286.072 105.072 286.56 106.981C287.72 111.377 287.823 114.794 286.87 117.231C285.916 119.669 283.618 121.361 279.974 122.31C278.29 122.827 276.507 122.936 274.772 122.627C273.323 122.303 271.988 121.595 270.907 120.578C269.939 119.626 269.153 118.505 268.588 117.27C267.823 115.665 267.222 113.987 266.795 112.261ZM273.481 110.522C274.29 113.613 275.118 115.652 275.963 116.636C276.266 117.074 276.695 117.411 277.193 117.602C277.69 117.794 278.234 117.832 278.753 117.71C279.403 117.533 279.958 117.108 280.299 116.528C280.715 115.74 280.894 114.849 280.817 113.961C280.677 112.286 280.369 110.628 279.897 109.014C279.055 105.799 278.22 103.704 277.377 102.738C277.053 102.295 276.603 101.961 276.086 101.779C275.568 101.597 275.008 101.575 274.479 101.717C273.949 101.849 273.474 102.144 273.12 102.56C272.767 102.976 272.553 103.492 272.507 104.036C272.384 105.312 272.677 107.468 273.481 110.522Z"/><path fill="#fff" d="M289.969 105.266C288.747 100.659 288.729 97.214 289.915 94.9311C291.1 92.6482 293.388 91.0636 296.779 90.1772C298.135 89.7811 299.551 89.6293 300.961 89.7289C302.002 89.8292 303.013 90.1339 303.937 90.6255C304.714 91.0593 305.42 91.6093 306.032 92.2565C306.633 92.9437 307.151 93.6986 307.578 94.506C308.521 96.2361 309.246 98.0771 309.734 99.9864C310.894 104.382 310.997 107.799 310.043 110.236C309.09 112.674 306.792 114.367 303.148 115.315C301.464 115.832 299.681 115.941 297.946 115.632C296.495 115.313 295.159 114.605 294.081 113.583C293.11 112.633 292.324 111.512 291.762 110.275C290.994 108.671 290.393 106.993 289.969 105.266ZM296.655 103.527C297.459 106.619 298.286 108.657 299.136 109.641C299.439 110.081 299.867 110.419 300.365 110.611C300.863 110.803 301.408 110.839 301.927 110.716C302.25 110.63 302.553 110.482 302.818 110.279C303.084 110.076 303.306 109.822 303.473 109.533C303.888 108.745 304.068 107.854 303.991 106.967C303.85 105.291 303.542 103.634 303.071 102.019C302.228 98.8038 301.386 96.7167 300.551 95.7427C300.226 95.3012 299.776 94.9677 299.259 94.7857C298.742 94.6037 298.182 94.5816 297.652 94.7224C297.122 94.8524 296.645 95.1466 296.291 95.5629C295.938 95.9793 295.724 96.4966 295.681 97.0414C295.557 98.3091 295.851 100.497 296.655 103.55V103.527Z"/></svg>