<svg xmlns="http://www.w3.org/2000/svg" width="374" height="374" fill="none" viewBox="0 0 374 374"><path fill="#F6C549" d="M259.429 54.9482C259.429 54.9482 212.993 30.0473 161.157 50.7445C109.32 71.4416 77.418 123.233 50.4526 164.508C23.4872 205.782 29.1944 252.772 62.9517 278.87C96.7089 304.967 125.821 278.368 177.396 284.629C228.97 290.89 241.724 300.389 288.444 277.516C335.164 254.642 352.435 186.619 325.919 130.369C299.402 74.1195 259.429 54.9482 259.429 54.9482Z"/><path fill="#fff" d="M259.429 54.9482C259.429 54.9482 212.993 30.0473 161.157 50.7445C109.32 71.4416 77.418 123.233 50.4526 164.508C23.4872 205.782 29.1944 252.772 62.9517 278.87C96.7089 304.967 125.821 278.368 177.396 284.629C228.97 290.89 241.724 300.389 288.444 277.516C335.164 254.642 352.435 186.619 325.919 130.369C299.402 74.1195 259.429 54.9482 259.429 54.9482Z" opacity=".7"/><path fill="#263238" stroke="#263238" stroke-linecap="round" stroke-linejoin="round" d="M293.68 178.922C292.573 174.868 292.932 170.08 292.82 168.734C292.707 167.388 290.733 165.66 288.646 167.627C287.079 169.058 285.442 170.408 283.739 171.674L282.512 171.307C282.512 171.307 282.751 170.694 283.26 169.22C283.769 167.747 285.841 164.68 287.187 162.346C288.534 160.012 289.768 158.786 290.748 156.085C291.727 153.385 292.244 150.932 291.608 149.705C290.972 148.478 290.254 150.318 289.401 152.158C288.548 153.998 286.08 157.073 284.12 159.773C282.161 162.473 279.333 166.767 278.136 168.854C276.94 170.941 276.049 172.414 276.169 177.201C276.289 181.988 274.673 190.83 273.716 195.617C272.758 200.404 267.208 211.078 263.528 216.606C259.848 222.134 256.287 238.335 256.287 238.335L238.073 217.391C238.388 214.332 238.432 210.188 236.764 207.667C233.9 203.344 225.896 203.456 215.117 198.22C204.339 192.984 198.661 189.506 198.661 189.506H191.668C191.668 189.506 186.02 192.947 175.212 198.22C164.403 203.493 156.429 203.374 153.602 207.675C150.774 211.976 152.854 220.929 152.854 221.296C152.854 221.662 147.453 260.828 147.453 260.828L156.534 272.242L162.428 232.718C162.428 232.718 163.924 241.432 167.096 246.339C169.271 249.544 171.919 252.401 174.95 254.814V292.468H215.342V254.784C218.372 252.371 221.02 249.514 223.196 246.309C226.39 241.402 227.863 232.688 227.863 232.688L230.017 229.913C230.915 231.177 232.359 233.159 234.61 236.121C239.278 242.262 247.132 248.643 249.346 250.73C251.56 252.817 252.166 256.624 256.467 256.011C260.768 255.397 262.234 248.531 266.041 242.749C269.848 236.966 271.808 231.581 273.521 225.2C275.234 218.82 276.461 206.538 278.062 201.878C279.662 197.218 282.602 186.529 282.602 186.529C284.279 185.825 285.665 184.569 286.529 182.968C288.025 180.268 288.616 172.496 288.616 172.496C288.616 172.496 289.364 176.67 289.97 178.757C290.576 180.844 292.176 184.405 293.156 185.489C294.136 186.574 294.757 186.469 295.49 185.856C296.223 185.242 294.787 182.968 293.68 178.922Z"/><path fill="#fff" stroke="#263238" stroke-linecap="round" stroke-linejoin="round" d="M292.82 168.734C292.7 167.38 290.733 165.66 288.646 167.627C287.079 169.058 285.442 170.408 283.739 171.674L282.512 171.307C282.512 171.307 282.752 170.694 283.26 169.22C283.769 167.747 285.841 164.68 287.187 162.346C288.534 160.012 289.768 158.786 290.748 156.085C291.728 153.385 292.244 150.932 291.608 149.705C290.972 148.478 290.254 150.318 289.401 152.158C288.548 153.998 286.08 157.073 284.12 159.773C282.161 162.473 279.333 166.767 278.136 168.854C276.94 170.941 276.049 172.414 276.169 177.201C276.289 181.988 274.673 190.83 273.716 195.617C272.758 200.404 267.208 211.078 263.528 216.606C262.353 218.558 261.395 220.632 260.671 222.792C262.182 224.513 264.088 225.842 266.226 226.664C268.364 227.486 270.67 227.777 272.945 227.512C273.165 226.754 273.382 225.983 273.596 225.2C275.309 218.813 276.536 206.538 278.136 201.878C279.737 197.218 282.677 186.529 282.677 186.529C284.354 185.825 285.74 184.569 286.604 182.968C288.1 180.268 288.691 172.496 288.691 172.496C288.691 172.496 289.439 176.67 290.045 178.757C290.65 180.844 292.251 184.405 293.231 185.489C294.211 186.574 294.832 186.469 295.565 185.856C296.298 185.242 294.817 182.909 293.725 178.862C292.633 174.815 292.939 170.08 292.82 168.734Z"/><path fill="#fff" d="M277.845 177.321C277.845 177.321 284.225 172.781 287.052 172.534C289.88 172.287 300.307 172.908 301.167 172.661C302.027 172.414 301.915 174.007 301.048 175.234C300.18 176.461 298.1 176.341 295.886 176.221C293.672 176.102 287.658 175.847 287.658 175.847C287.658 175.847 282.131 185.055 278.57 185.669"/><path stroke="#263238" stroke-linecap="round" stroke-linejoin="round" d="M277.845 177.321C277.845 177.321 284.225 172.781 287.052 172.534C289.88 172.287 300.307 172.908 301.167 172.661C302.027 172.414 301.915 174.007 301.048 175.234C300.18 176.461 298.1 176.341 295.886 176.221C293.672 176.102 287.658 175.847 287.658 175.847C287.658 175.847 282.131 185.055 278.57 185.669"/><path fill="#fff" d="M156.444 265.832C156.444 265.832 156.078 263.745 148.83 259.324C141.581 254.904 137.168 251.956 135.942 250.483C135.249 249.689 134.708 248.773 134.348 247.783C134.348 247.783 135.455 246.189 135.096 241.799C134.737 237.408 133.383 235.171 134.116 231.73C134.849 228.29 136.45 224.49 135.223 224.37C133.997 224.25 132.029 224.617 130.683 227.684C129.337 230.751 130.436 233.945 130.683 235.291C130.93 236.637 128.439 242.412 128.439 242.412C128.439 242.412 128.319 242.778 122.792 238.979C117.264 235.179 114.077 234.805 112.604 235.785C111.13 236.765 102.169 242.517 102.169 242.517C102.169 242.517 99.2222 252.099 97.1353 254.672C95.0484 257.245 97.2624 257.738 99.469 256.639C101.676 255.539 103.149 250.864 104.256 247.925C104.924 245.915 106.013 244.072 107.45 242.517C108.064 242.03 111.377 241.664 112.484 241.17C113.225 240.875 114.032 240.789 114.818 240.923C114.818 240.923 119.231 245.097 120.458 248.044C121.685 250.991 122.792 253.811 124.512 254.552C126.232 255.293 128.806 254.425 128.806 254.425C128.806 254.425 138.013 262.653 140.961 265.966C143.908 269.28 144.641 270.873 148.695 272.96C152.749 275.047 154.956 276.648 156.429 273.948C157.903 271.247 157.177 267.807 157.177 267.807"/><path stroke="#263238" stroke-linecap="round" stroke-linejoin="round" d="M156.444 265.832C156.444 265.832 156.078 263.745 148.83 259.324C141.581 254.904 137.168 251.956 135.942 250.483C135.249 249.689 134.708 248.773 134.348 247.783C134.348 247.783 135.455 246.189 135.096 241.799C134.737 237.408 133.383 235.171 134.116 231.73C134.849 228.29 136.45 224.49 135.223 224.37C133.997 224.25 132.029 224.617 130.683 227.684C129.337 230.751 130.436 233.945 130.683 235.291C130.93 236.637 128.439 242.412 128.439 242.412C128.439 242.412 128.319 242.778 122.792 238.979C117.264 235.179 114.077 234.805 112.604 235.785C111.13 236.765 102.169 242.517 102.169 242.517C102.169 242.517 99.2222 252.099 97.1353 254.672C95.0484 257.245 97.2624 257.738 99.469 256.639C101.676 255.539 103.149 250.864 104.256 247.925C104.924 245.915 106.013 244.072 107.45 242.517C108.064 242.03 111.377 241.664 112.484 241.17C113.225 240.875 114.032 240.789 114.818 240.923C114.818 240.923 119.231 245.097 120.458 248.044C121.685 250.991 122.792 253.811 124.512 254.552C126.232 255.293 128.806 254.425 128.806 254.425C128.806 254.425 138.013 262.653 140.961 265.966C143.908 269.28 144.641 270.873 148.695 272.96C152.749 275.047 154.956 276.648 156.429 273.948C157.903 271.247 157.177 267.807 157.177 267.807"/><path fill="#fff" d="M127.227 241.888C124.883 238.943 122.826 235.779 121.086 232.441C118.386 227.16 117.406 226.18 116.179 226.457C114.953 226.734 113.973 226.704 113.359 228.701C112.746 230.698 111.115 234.842 111.272 237.415C111.43 239.988 112.02 244.147 112.02 246.391C112.02 248.635 114.721 248.231 115.087 247.618C115.454 247.004 115.334 243.691 115.334 240.257V236.203L116.314 233.009C117.742 234.846 118.824 236.927 119.508 239.15C120.488 242.584 121.348 244.057 122.089 244.184"/><path stroke="#263238" stroke-linecap="round" stroke-linejoin="round" d="M127.227 241.888C124.883 238.943 122.826 235.779 121.086 232.441C118.386 227.16 117.406 226.18 116.179 226.457C114.953 226.734 113.973 226.704 113.359 228.701C112.746 230.698 111.115 234.842 111.272 237.415C111.43 239.988 112.02 244.147 112.02 246.391C112.02 248.635 114.721 248.231 115.087 247.618C115.454 247.004 115.334 243.691 115.334 240.257V236.203L116.314 233.009C117.742 234.846 118.824 236.927 119.508 239.15C120.488 242.584 121.348 244.057 122.089 244.184"/><path fill="#fff" d="M128.454 242.352C127.627 243.743 126.97 245.227 126.494 246.773C125.873 248.979 128.948 252.293 131.035 252.54"/><path stroke="#263238" stroke-linecap="round" stroke-linejoin="round" d="M128.454 242.352C127.627 243.743 126.97 245.227 126.494 246.773C125.873 248.979 128.948 252.293 131.035 252.54"/><path fill="#fff" d="M215.117 198.22C204.316 192.984 198.661 189.506 198.661 189.506H191.668C191.668 189.506 186.02 192.947 175.212 198.22C174.576 198.527 173.962 198.818 173.349 199.088L192.288 217.593C192.79 218.084 193.386 218.466 194.041 218.717C194.696 218.968 195.396 219.082 196.096 219.053C196.797 219.023 197.484 218.851 198.116 218.546C198.747 218.241 199.31 217.81 199.768 217.279L215.903 198.579L215.117 198.22Z"/><path fill="#000" d="M198.669 189.476H191.675C191.675 189.476 186.028 192.917 175.219 198.19C174.583 198.497 173.97 198.789 173.356 199.058L175.436 201.085C179.774 199.021 187.007 195.849 191.481 195.161C195.954 194.473 206.022 199.178 212.529 202.499L215.918 198.572L215.11 198.19C204.316 192.917 198.669 189.476 198.669 189.476Z" opacity=".3"/><path stroke="#263238" stroke-linecap="round" stroke-linejoin="round" d="M215.117 198.22C204.316 192.984 198.661 189.506 198.661 189.506H191.668C191.668 189.506 186.02 192.947 175.212 198.22C174.576 198.527 173.962 198.818 173.349 199.088L192.288 217.593C192.79 218.084 193.386 218.466 194.041 218.717C194.696 218.968 195.396 219.082 196.096 219.053C196.797 219.023 197.484 218.851 198.116 218.546C198.747 218.241 199.31 217.81 199.768 217.279L215.903 198.579L215.117 198.22Z"/><path fill="#fff" d="M228.746 220.533C226.285 223.113 225.305 229 221.012 230.967C216.718 232.935 202.596 232.561 202.596 232.561C202.596 232.561 175.84 233.668 171.292 231.581C166.744 229.494 164.665 221.266 161.964 220.039C159.264 218.813 157.424 221.146 157.424 223.233C157.424 225.32 155.09 242.262 155.09 242.262C155.09 242.262 158.277 244.551 160.468 246.047L162.458 232.688C162.458 232.688 163.954 241.402 167.126 246.309C169.301 249.514 171.949 252.371 174.98 254.784V270.985H215.372V254.784C218.402 252.371 221.05 249.514 223.226 246.309C226.42 241.402 227.893 232.688 227.893 232.688L230.047 229.913C230.945 231.177 232.389 233.159 234.64 236.121C236.578 238.591 238.692 240.916 240.968 243.078L244.461 238.821C244.461 238.821 235.867 227.04 234.124 224.213C232.381 221.386 231.199 217.952 228.746 220.533Z"/><g opacity=".3"><path fill="#000" d="M220.361 235.254C220.311 235.232 220.258 235.219 220.204 235.216C219.86 235.216 219.964 235.284 220.361 235.254Z"/><path fill="#000" d="M231.132 226.764C229.688 224.288 227.833 229.24 224.946 232.538C223.039 234.723 221.131 235.186 220.361 235.254C221.49 235.598 224.101 239.48 223.091 242.434C222.059 245.524 215.671 250.266 213.195 252.331C211.43 253.827 211.863 264.785 212.26 270.986H215.364V254.784C218.395 252.372 221.043 249.514 223.218 246.309C226.412 241.402 227.886 232.688 227.886 232.688L230.04 229.913C230.937 231.177 232.381 233.159 234.633 236.121C236.57 238.591 238.685 240.916 240.961 243.078L242.397 241.327C239.794 238.104 232.321 228.798 231.132 226.764Z"/><path fill="#000" d="M178.772 270.986C178.428 265.428 177.725 253.939 177.725 252.533C177.725 250.678 172.781 246.766 168.861 241.814C164.941 236.862 163.909 231.095 162.675 228.828C161.441 226.562 160.431 233.773 159.578 237.692C159.107 239.936 158.77 242.764 158.569 244.731L160.461 246.047L162.451 232.688C162.451 232.688 163.947 241.402 167.118 246.309C169.293 249.514 171.941 252.372 174.972 254.784V270.986H178.772Z"/></g><path stroke="#263238" stroke-linecap="round" stroke-linejoin="round" d="M228.746 220.533C226.285 223.113 225.305 229 221.012 230.967C216.718 232.935 202.596 232.561 202.596 232.561C202.596 232.561 175.84 233.668 171.292 231.581C166.744 229.494 164.665 221.266 161.964 220.039C159.264 218.813 157.424 221.146 157.424 223.233C157.424 225.32 155.09 242.262 155.09 242.262C155.09 242.262 158.277 244.551 160.468 246.047L162.458 232.688C162.458 232.688 163.954 241.402 167.126 246.309C169.301 249.514 171.949 252.371 174.98 254.784V270.985H215.372V254.784C218.402 252.371 221.05 249.514 223.226 246.309C226.42 241.402 227.893 232.688 227.893 232.688L230.047 229.913C230.945 231.177 232.389 233.159 234.64 236.121C236.578 238.591 238.692 240.916 240.968 243.078L244.461 238.821C244.461 238.821 235.867 227.04 234.124 224.213C232.381 221.386 231.199 217.952 228.746 220.533Z"/><path fill="#263238" stroke="#263238" stroke-linecap="round" stroke-linejoin="round" d="M206.156 232.583C204.047 232.583 202.596 232.583 202.596 232.583C202.596 232.583 194.211 232.927 186.028 232.867V271.015H206.156V232.583Z"/><path fill="#fff" d="M166.752 223.652C166.752 223.652 168.248 226.173 173.297 228.185C178.346 230.197 189.394 230.197 190.905 227.684C192.416 225.17 187.381 221.894 177.822 219.628C168.263 217.361 164.74 219.388 166.752 223.652Z" opacity=".07"/><path fill="#fff" d="M224.086 223.652C224.086 223.652 222.59 226.173 217.541 228.185C212.492 230.197 201.444 230.197 199.933 227.684C198.422 225.17 203.456 221.894 213.015 219.628C222.575 217.361 226.098 219.388 224.086 223.652Z" opacity=".07"/><path fill="#fff" d="M204.578 237.498C204.578 237.498 202.394 233.975 196.35 233.473C190.306 232.972 186.895 238.754 186.895 241.776C186.895 244.798 191.742 244.544 195.871 244.544C200 244.544 208.946 245.554 204.578 237.498Z" opacity=".07"/><path fill="#CCC" stroke="#263238" stroke-linecap="round" stroke-linejoin="round" d="M182.467 164.927C182.467 164.927 188.115 170.208 189.094 175.608C190.074 181.009 188.115 191.81 188.975 194.016C189.835 196.223 195.235 197.091 198.916 196.35C202.596 195.61 201.249 194.144 201.249 189.229C201.249 184.315 201.736 179.169 201.736 179.169C199.932 174.974 197.001 171.362 193.268 168.734C187.254 164.68 183.447 162.593 182.467 164.927Z"/><path fill="#263238" stroke="#263238" stroke-linecap="round" stroke-linejoin="round" d="M189.139 185.115C188.87 189.117 188.511 192.827 188.975 194.016C189.827 196.26 195.235 197.091 198.916 196.35C202.596 195.61 201.249 194.144 201.249 189.229C201.249 188.16 201.249 187.09 201.309 186.05C197.268 187.166 192.963 186.836 189.139 185.115Z"/><path fill="#CCC" d="M183.2 165.659C179.338 165.503 175.597 164.27 172.399 162.099C167.365 158.546 169.205 141.357 174.852 135.59C180.5 129.823 190.56 126.748 199.896 129.449C209.231 132.149 213.277 142.95 214.01 145.411C214.743 147.872 216.097 148.478 215.858 150.071C215.704 151.049 215.415 152.001 214.998 152.898C214.998 152.898 215.117 160.872 214.25 162.839C213.382 164.807 213.023 164.926 212.043 167.38C211.063 169.833 210.547 175.114 209.709 178.547C208.871 181.981 207.742 183.581 202.977 183.709C198.212 183.836 195.497 184.322 192.303 178.428C189.109 172.533 188.496 167.133 183.2 165.659Z"/><path fill="#000" d="M187.172 147.057C191.937 143.481 199.088 145.561 202.962 145.561C206.837 145.561 208.325 143.474 212.492 144.364C212.933 144.46 213.367 144.582 213.793 144.731C212.656 141.409 208.557 131.947 199.896 129.441C190.568 126.741 180.5 129.808 174.852 135.582C169.205 141.357 167.372 158.539 172.399 162.092C175.597 164.262 179.338 165.496 183.2 165.652C188.481 167.148 189.094 172.526 192.288 178.42C193.657 180.956 194.944 182.303 196.335 183.013C196.193 181.218 195.811 178.952 195.811 176.535C195.811 171.771 193.134 172.661 189.259 169.385C185.384 166.108 187.471 163.131 185.684 159.257C183.896 155.382 182.407 150.632 187.172 147.057Z" opacity=".3"/><path stroke="#263238" stroke-linecap="round" stroke-linejoin="round" d="M183.2 165.659C179.338 165.503 175.597 164.27 172.399 162.099C167.365 158.546 169.205 141.357 174.852 135.59C180.5 129.823 190.56 126.748 199.896 129.449C209.231 132.149 213.277 142.95 214.01 145.411C214.743 147.872 216.097 148.478 215.858 150.071C215.704 151.049 215.415 152.001 214.998 152.898C214.998 152.898 215.117 160.872 214.25 162.839C213.382 164.807 213.023 164.926 212.043 167.38C211.063 169.833 210.547 175.114 209.709 178.547C208.871 181.981 207.742 183.581 202.977 183.709C198.212 183.836 195.497 184.322 192.303 178.428C189.109 172.533 188.496 167.133 183.2 165.659Z"/><path stroke="#263238" stroke-linecap="round" stroke-linejoin="round" d="M204.197 173.027H207.263"/><path stroke="#263238" stroke-linecap="round" stroke-linejoin="round" d="M205.663 165.173L204.683 167.133"/><path stroke="#263238" stroke-linecap="round" stroke-linejoin="round" d="M206.65 165.173L207.75 167.013"/><path stroke="#263238" stroke-linecap="round" stroke-linejoin="round" d="M198.055 146.511C198.055 146.511 204.787 144.917 208.243 145.531"/><path stroke="#263238" stroke-linecap="round" stroke-linejoin="round" d="M200.142 144.551C200.142 144.551 204.316 143.444 207.016 143.691"/><path stroke="#263238" stroke-linecap="round" stroke-linejoin="round" d="M203.456 161.732C203.456 161.732 202.962 164.926 200.756 166.4C198.549 167.874 196.829 167.38 196.829 167.38"/><path stroke="#263238" stroke-linecap="round" stroke-linejoin="round" d="M208.49 162.099C208.444 162.802 208.621 163.501 208.995 164.098C209.37 164.694 209.924 165.157 210.577 165.42"/><path fill="#263238" stroke="#263238" stroke-linecap="round" stroke-linejoin="round" d="M201.04 164.164C202.029 163.755 202.83 162.991 203.285 162.022C203.74 161.054 203.817 159.95 203.501 158.928C202.895 156.886 201.84 154.275 200.142 152.779C197.076 150.079 192.042 150.939 189.708 154.619C187.374 158.299 187.374 161.254 192.775 163.707C194.049 164.341 195.439 164.708 196.86 164.787C198.281 164.865 199.704 164.653 201.04 164.164Z"/><path fill="#fff" d="M196.081 156.788C196.081 157.108 195.986 157.421 195.808 157.686C195.63 157.952 195.377 158.159 195.082 158.281C194.786 158.404 194.461 158.435 194.147 158.372C193.833 158.309 193.546 158.155 193.32 157.928C193.094 157.701 192.941 157.413 192.88 157.099C192.818 156.785 192.851 156.46 192.975 156.165C193.098 155.869 193.306 155.618 193.573 155.441C193.84 155.264 194.153 155.171 194.473 155.172C194.684 155.172 194.894 155.214 195.09 155.296C195.285 155.377 195.463 155.496 195.612 155.646C195.762 155.796 195.88 155.974 195.96 156.17C196.041 156.366 196.082 156.576 196.081 156.788Z"/><path fill="#fff" d="M196.245 161.299C196.691 161.299 197.053 160.937 197.053 160.491C197.053 160.045 196.691 159.683 196.245 159.683C195.799 159.683 195.437 160.045 195.437 160.491C195.437 160.937 195.799 161.299 196.245 161.299Z"/><path fill="#263238" stroke="#263238" stroke-linecap="round" stroke-linejoin="round" d="M214.871 151.672C214.871 151.672 213.644 150.438 211.31 152.652C208.976 154.866 207.51 160.386 208.49 162.099C209.47 163.812 213.158 163.595 215.731 161.351C218.304 159.107 216.224 152.772 214.871 151.672Z"/><path fill="#fff" d="M212.372 156.788C212.372 157.108 212.277 157.42 212.1 157.686C211.922 157.951 211.67 158.158 211.375 158.281C211.08 158.403 210.755 158.435 210.441 158.373C210.128 158.31 209.84 158.156 209.614 157.93C209.388 157.705 209.234 157.417 209.172 157.103C209.11 156.79 209.142 156.465 209.264 156.17C209.386 155.875 209.593 155.622 209.859 155.445C210.125 155.267 210.437 155.172 210.756 155.172C211.185 155.172 211.596 155.343 211.899 155.646C212.202 155.949 212.372 156.36 212.372 156.788Z"/><path fill="#fff" d="M212.537 161.299C212.983 161.299 213.345 160.937 213.345 160.491C213.345 160.045 212.983 159.683 212.537 159.683C212.091 159.683 211.729 160.045 211.729 160.491C211.729 160.937 212.091 161.299 212.537 161.299Z"/><path stroke="#919191" stroke-miterlimit="10" d="M117.032 189.528C116.112 193.994 113.936 198.103 110.76 201.374C107.584 204.645 103.54 206.94 99.1039 207.991C94.6676 209.041 90.0235 208.803 85.718 207.304C81.4125 205.805 77.6246 203.108 74.8 199.529"/><path stroke="#919191" stroke-miterlimit="10" d="M72.1446 195.325C70.6468 192.301 69.8054 188.995 69.6756 185.623C69.5457 182.251 70.1304 178.889 71.3912 175.759C72.6519 172.629 74.5604 169.8 76.9912 167.46C79.422 165.119 82.3203 163.319 85.4959 162.177C88.6715 161.035 92.0526 160.578 95.4173 160.835C98.7821 161.092 102.055 162.058 105.02 163.669C107.985 165.28 110.576 167.499 112.623 170.182C114.67 172.865 116.127 175.95 116.897 179.236C117.325 181.062 117.539 182.932 117.533 184.808"/><path stroke="#919191" stroke-miterlimit="10" d="M114.324 172.736C114.586 173.192 114.833 173.656 115.072 174.134C123.891 173.386 129.823 174.03 130.324 176.191C131.207 179.931 115.484 186.828 95.2054 191.578C74.9272 196.328 57.8054 197.128 56.9078 193.38C56.4067 191.211 61.4332 188.002 69.6687 184.763C69.6687 184.232 69.6687 183.709 69.7136 183.185C54.604 188.346 44.708 193.919 45.5457 197.472C46.7425 202.573 69.3695 201.638 96.0956 195.385C122.822 189.132 143.511 179.924 142.322 174.823C141.484 171.292 130.152 170.649 114.324 172.736Z"/><path stroke="#919191" stroke-miterlimit="10" d="M100.322 161.747L104.81 150.782H113.165"/><path stroke="#919191" stroke-miterlimit="10" d="M114.16 141.17H120.63"/><path stroke="#919191" stroke-miterlimit="10" d="M114.16 143.908H120.63"/><path stroke="#919191" stroke-miterlimit="10" d="M119.134 145.897L115.401 149.877"/><path stroke="#919191" stroke-miterlimit="10" d="M119.134 150.872L115.401 154.858"/><path stroke="#919191" stroke-miterlimit="10" d="M119.441 131.221C119.439 130.829 119.322 130.445 119.103 130.12C118.884 129.794 118.573 129.54 118.211 129.39C117.848 129.24 117.449 129.201 117.064 129.277C116.679 129.354 116.325 129.542 116.047 129.819C115.769 130.096 115.579 130.45 115.501 130.834C115.423 131.219 115.461 131.618 115.609 131.982C115.758 132.345 116.01 132.656 116.335 132.877C116.661 133.097 117.043 133.216 117.436 133.219C117.699 133.221 117.96 133.17 118.204 133.071C118.447 132.971 118.669 132.824 118.855 132.638C119.042 132.453 119.189 132.232 119.29 131.989C119.39 131.745 119.442 131.485 119.441 131.221V131.221Z"/><path stroke="#919191" stroke-miterlimit="10" d="M118.319 131.222C118.319 131.05 118.268 130.882 118.172 130.74C118.077 130.597 117.942 130.486 117.783 130.42C117.624 130.354 117.45 130.337 117.282 130.371C117.113 130.404 116.959 130.487 116.837 130.608C116.716 130.729 116.633 130.884 116.6 131.052C116.566 131.221 116.584 131.395 116.649 131.554C116.715 131.712 116.826 131.848 116.969 131.943C117.112 132.038 117.279 132.089 117.451 132.089C117.565 132.09 117.678 132.069 117.784 132.025C117.89 131.982 117.986 131.918 118.067 131.837C118.147 131.757 118.211 131.661 118.255 131.555C118.298 131.449 118.32 131.336 118.319 131.222Z"/><path stroke="#919191" stroke-miterlimit="10" d="M119.441 136.442C119.441 136.049 119.324 135.664 119.105 135.337C118.887 135.01 118.576 134.755 118.212 134.604C117.849 134.453 117.449 134.414 117.063 134.491C116.677 134.568 116.322 134.757 116.044 135.035C115.766 135.314 115.576 135.668 115.5 136.054C115.423 136.44 115.462 136.84 115.613 137.204C115.763 137.567 116.018 137.878 116.346 138.097C116.673 138.315 117.057 138.432 117.451 138.432C117.978 138.43 118.483 138.22 118.856 137.847C119.228 137.474 119.439 136.969 119.441 136.442V136.442Z"/><path stroke="#919191" stroke-miterlimit="10" d="M118.319 136.443C118.32 136.271 118.27 136.102 118.176 135.958C118.082 135.815 117.947 135.702 117.788 135.636C117.63 135.569 117.455 135.551 117.286 135.583C117.118 135.616 116.962 135.698 116.84 135.819C116.718 135.94 116.635 136.095 116.601 136.263C116.566 136.432 116.583 136.606 116.649 136.765C116.714 136.924 116.825 137.06 116.968 137.156C117.111 137.252 117.279 137.303 117.451 137.303C117.68 137.303 117.899 137.212 118.062 137.051C118.224 136.89 118.317 136.671 118.319 136.443V136.443Z"/><path stroke="#919191" stroke-miterlimit="10" d="M119.441 158.576C119.441 158.182 119.324 157.797 119.105 157.47C118.887 157.143 118.576 156.888 118.212 156.737C117.849 156.587 117.449 156.547 117.063 156.624C116.677 156.701 116.322 156.89 116.044 157.169C115.766 157.447 115.576 157.801 115.5 158.187C115.423 158.573 115.462 158.973 115.613 159.337C115.763 159.701 116.018 160.011 116.346 160.23C116.673 160.449 117.057 160.565 117.451 160.565C117.979 160.565 118.485 160.356 118.858 159.983C119.231 159.609 119.441 159.103 119.441 158.576V158.576Z"/><path stroke="#919191" stroke-miterlimit="10" d="M118.319 158.576C118.33 158.455 118.316 158.334 118.277 158.22C118.239 158.105 118.177 158 118.096 157.911C118.015 157.821 117.916 157.75 117.805 157.701C117.695 157.653 117.575 157.627 117.455 157.627C117.334 157.627 117.215 157.653 117.104 157.701C116.994 157.75 116.895 157.821 116.813 157.911C116.732 158 116.67 158.105 116.632 158.22C116.594 158.334 116.58 158.455 116.591 158.576C116.611 158.791 116.71 158.991 116.87 159.136C117.03 159.282 117.238 159.363 117.455 159.363C117.671 159.363 117.879 159.282 118.039 159.136C118.199 158.991 118.299 158.791 118.319 158.576Z"/><path stroke="#919191" stroke-miterlimit="10" d="M119.441 163.767C119.441 163.374 119.324 162.99 119.106 162.663C118.888 162.336 118.578 162.081 118.216 161.93C117.853 161.779 117.454 161.739 117.068 161.814C116.683 161.89 116.328 162.078 116.049 162.355C115.77 162.632 115.58 162.985 115.501 163.37C115.423 163.755 115.46 164.154 115.608 164.518C115.757 164.882 116.009 165.194 116.335 165.414C116.66 165.634 117.043 165.754 117.436 165.757C117.699 165.759 117.959 165.709 118.202 165.61C118.445 165.51 118.666 165.364 118.853 165.179C119.039 164.994 119.187 164.774 119.288 164.532C119.389 164.289 119.441 164.03 119.441 163.767Z"/><path stroke="#919191" stroke-miterlimit="10" d="M118.319 163.767C118.319 163.596 118.268 163.429 118.173 163.287C118.079 163.144 117.944 163.033 117.786 162.967C117.629 162.901 117.455 162.883 117.287 162.915C117.119 162.947 116.965 163.028 116.843 163.148C116.721 163.268 116.637 163.421 116.602 163.589C116.567 163.756 116.582 163.93 116.645 164.089C116.708 164.248 116.817 164.384 116.958 164.481C117.099 164.578 117.265 164.632 117.436 164.635C117.551 164.637 117.666 164.616 117.773 164.573C117.88 164.53 117.977 164.467 118.059 164.386C118.141 164.305 118.207 164.209 118.251 164.103C118.296 163.996 118.319 163.882 118.319 163.767V163.767Z"/><path stroke="#919191" stroke-miterlimit="10" d="M285.093 187.591C308.694 187.591 327.826 168.459 327.826 144.858C327.826 121.257 308.694 102.125 285.093 102.125C261.492 102.125 242.359 121.257 242.359 144.858C242.359 168.459 261.492 187.591 285.093 187.591Z" opacity=".18"/><path stroke="#919191" stroke-miterlimit="10" d="M283.559 125.073L287.614 126.898L288.728 128.723L290.553 129.434L290.763 131.363L290.052 132.478L288.631 132.785L285.586 131.565V131.161L287.314 130.451L286.701 128.319L283.963 127.302L282.744 125.686L283.559 125.073Z"/><path stroke="#919191" stroke-miterlimit="10" d="M309.118 171.935L305.872 170.618L301.915 169.197H298.774L295.834 168.584L292.588 169.332L290.763 169.437H289.641L287.516 170.656L285.489 171.464L282.744 169.743L283.455 166.901L281.734 166.153H279.707L279.4 165.24L279.602 163.415L278.892 162.398L277.471 162.6L277.067 163.617L275.346 163.714L273.85 161.889L273.244 159.458L274.74 156.616L277.68 156.818L278.495 157.528H279.715L281.211 156.616L282.527 157.027L284.352 160.169L285.063 160.064L284.861 157.73L284.255 156.519L284.457 154.589L288.197 152.966L288.698 149.226L290.321 147.909L291.645 145.575L292.655 145.373L294.989 143.877L295.093 143.062L293.47 143.167L293.164 142.351H292.049L290.321 142.763L291.137 141.439L294.682 140.429L295.497 139.517L296.919 141.761L297.831 142.673L299.252 142.269L298.639 140.945L296.515 139.449L294.076 136.712L291.54 134.984L289.109 134.58L287.89 133.361L286.267 132.957L286.065 133.361L285.863 136.308L286.267 137.317L285.355 140.564L283.327 138.941L283.627 137.519L281.502 136.51L280.59 135.395L281.091 132.859L284.038 130.728L284.24 128.289L283.125 128.394L282.415 127.481L282.108 125.985L281.398 125.881L280.994 127.504L279.879 127.706L279.371 124.16L278.555 123.651L277.141 123.038L275.518 123.853L277.545 125.776L277.949 127.504L274.299 124.766L271.793 121.924L271.591 119.186L268.951 118.371L266.924 119.68C266.44 119.978 265.941 120.25 265.428 120.495C264.626 120.688 263.811 120.823 262.989 120.899L262.548 122.672L260.214 122.769L260.416 123.883L264.156 124.497L266.086 126.629V130.152L264.964 133.293L265.173 136.644L262.331 141.611L261.725 149.016L262.638 153.28L263.954 156.526L265.45 156.728L264.942 155.105L264.134 153.886L263.625 151.642L264.538 151.44L265.959 155.09L266.976 158.336V160.969L268.899 163.303L272.347 165.839L277.62 167.26L279.243 168.756L280.463 170.379L282.288 171.501L284.532 172.107L286.776 172.002C286.776 172.002 286.671 173.019 286.671 173.498C286.671 173.977 285.25 175.742 285.25 175.742L284.135 177.769L284.951 180.013L287.195 180.926L290.336 184.172L291.757 184.778V186.274L291.937 186.985C299.828 185.71 307.2 182.239 313.21 176.969L313.262 176.221L316 171.247L314.684 170.334L309.118 171.935Z"/><path stroke="#919191" stroke-miterlimit="10" d="M319.665 131.872L318.551 129.942L317.13 127.698L316.726 124.654L318.551 124.961L318.655 123.943L317.332 123.839L318.454 123.337L319.665 122.627V121.625L318.454 120.001L318.192 117.817C312.294 110.607 304.203 105.519 295.15 103.327C286.096 101.134 276.574 101.957 268.031 105.67L270.372 107.323L268.951 109.148L267.029 109.552L266.827 112.297L266.011 112.596L264.994 113.696L265.099 115.521L266.827 115.73L266.079 117.451H267.799L270.739 113.711L271.045 112.088L273.888 111.886L274.636 110.674L277.575 110.367L277.882 108.639L280.006 108.542C280.588 108.215 281.199 107.942 281.831 107.727C282.419 107.854 282.997 108.024 283.559 108.235L285.055 109.455H287.232L289.057 108.34L291.391 108.542C291.724 108.764 292.107 108.903 292.505 108.946C293.209 108.78 293.89 108.529 294.532 108.198L297.48 110.023L298.691 110.936V112.432L300.187 112.634L300.696 111.721L302.012 112.327L301.908 113.142L298.863 113.95L300.591 116.194L304.242 118.229L305.738 120.256L307.982 120.458L308.49 119.44L309.298 119.238L306.68 117.264L305.057 117.062L306.373 116.658L305.184 114.93L306.912 114.833L309.156 116.044L309.665 118.483L310.779 119.799L311.692 122.739L313.936 124.362V127.713L316.269 129.209L316.172 130.324L315.865 131.648L316.471 133.473L316.673 134.385L318.401 134.685L319.209 132.964L319.665 131.872Z"/><path stroke="#919191" stroke-miterlimit="10" d="M320.989 121.655V122.231L320.481 123.854L320.78 125.275L321.902 125.679V127.609L320.683 127.1L320.376 132.583L319.157 134.827L319.972 137.669L321.288 138.881V144.364L322.605 148.62L324.026 151.867L326.36 152.472L327.175 150.445L327.504 150.191C327.724 148.427 327.834 146.651 327.833 144.873C327.847 136.634 325.47 128.569 320.989 121.655V121.655Z"/><path stroke="#919191" stroke-miterlimit="10" d="M297.554 121.019L290.86 118.072L287.92 118.176L287.21 120.106L285.99 118.782L283.761 119.291L283.559 122.642L285.384 123.959L286.701 122.029L288.227 123.555L291.368 126.292L291.974 129.232L294.615 132.583L298.871 131.872L298.774 130.346L297.861 128.626L297.659 124.564L298.669 122.844L297.554 121.019Z"/><path stroke="#919191" stroke-miterlimit="10" d="M303.03 123.248L301.511 122.844L300.195 123.958L300.905 126.898H302.222L303.03 123.248Z"/><path stroke="#919191" stroke-miterlimit="10" d="M312.469 125.178L309.014 123.353L308.311 122.133L307.495 122.44L308.206 124.467L308.812 127.1L310.338 127.713L310.637 127.302L309.724 125.784L312.365 126.801L312.469 125.178Z"/><path stroke="#919191" stroke-miterlimit="10" d="M282.849 161.792L282.445 162.196L285.489 163.109L286.701 164.53L288.631 164.732L289.341 163.618L287.008 163.214L282.849 161.792Z"/><path stroke="#919191" stroke-miterlimit="10" d="M291.877 163.722L289.745 164.328L290.052 165.136H292.685L293.194 164.328L292.281 164.425L291.877 163.722Z"/><path stroke="#919191" stroke-miterlimit="10" d="M285.093 187.591C308.694 187.591 327.826 168.459 327.826 144.858C327.826 121.257 308.694 102.125 285.093 102.125C261.492 102.125 242.359 121.257 242.359 144.858C242.359 168.459 261.492 187.591 285.093 187.591Z"/><path stroke="#919191" stroke-miterlimit="10" d="M225.83 130.795C231.397 125.227 231.397 116.2 225.83 110.633C220.262 105.065 211.235 105.065 205.667 110.633C200.1 116.2 200.1 125.227 205.667 130.795C211.235 136.363 220.262 136.363 225.83 130.795Z"/><path stroke="#919191" stroke-miterlimit="10" d="M317.399 116.389C336.248 125.522 347.753 138.477 345.688 150.737C342.591 169.168 310.009 179.049 272.915 172.81C235.822 166.572 208.266 146.608 211.37 128.147C211.724 126.074 212.446 124.08 213.502 122.26"/><path stroke="#919191" stroke-miterlimit="10" d="M225.896 111.452C236.907 105.872 253.123 103.224 271.262 104.526"/><path stroke="#919191" stroke-miterlimit="10" d="M189.087 103.755C190.186 103.755 191.077 102.864 191.077 101.765C191.077 100.666 190.186 99.7754 189.087 99.7754C187.988 99.7754 187.097 100.666 187.097 101.765C187.097 102.864 187.988 103.755 189.087 103.755Z"/><path stroke="#919191" stroke-miterlimit="10" d="M189.087 102.633C189.566 102.633 189.955 102.244 189.955 101.765C189.955 101.286 189.566 100.897 189.087 100.897C188.608 100.897 188.219 101.286 188.219 101.765C188.219 102.244 188.608 102.633 189.087 102.633Z"/><path stroke="#919191" stroke-miterlimit="10" d="M189.087 119.111C190.186 119.111 191.077 118.22 191.077 117.122C191.077 116.023 190.186 115.132 189.087 115.132C187.988 115.132 187.097 116.023 187.097 117.122C187.097 118.22 187.988 119.111 189.087 119.111Z"/><path stroke="#919191" stroke-miterlimit="10" d="M189.087 117.989C189.566 117.989 189.955 117.601 189.955 117.122C189.955 116.642 189.566 116.254 189.087 116.254C188.608 116.254 188.219 116.642 188.219 117.122C188.219 117.601 188.608 117.989 189.087 117.989Z"/><path stroke="#919191" stroke-miterlimit="10" d="M191.077 122.335C191.078 121.94 190.962 121.552 190.743 121.223C190.524 120.893 190.212 120.636 189.847 120.484C189.482 120.332 189.08 120.292 188.692 120.369C188.304 120.445 187.947 120.636 187.667 120.916C187.387 121.195 187.197 121.552 187.12 121.94C187.043 122.328 187.084 122.73 187.236 123.095C187.388 123.461 187.645 123.773 187.975 123.991C188.304 124.21 188.691 124.326 189.087 124.325C189.615 124.325 190.121 124.115 190.494 123.742C190.867 123.369 191.077 122.863 191.077 122.335V122.335Z"/><path stroke="#919191" stroke-miterlimit="10" d="M189.087 123.203C189.566 123.203 189.955 122.815 189.955 122.335C189.955 121.856 189.566 121.468 189.087 121.468C188.608 121.468 188.219 121.856 188.219 122.335C188.219 122.815 188.608 123.203 189.087 123.203Z"/><path stroke="#919191" stroke-miterlimit="10" d="M189.087 109.17C190.186 109.17 191.077 108.279 191.077 107.181C191.077 106.082 190.186 105.191 189.087 105.191C187.988 105.191 187.097 106.082 187.097 107.181C187.097 108.279 187.988 109.17 189.087 109.17Z"/><path stroke="#919191" stroke-miterlimit="10" d="M189.087 108.048C189.566 108.048 189.955 107.66 189.955 107.181C189.955 106.701 189.566 106.313 189.087 106.313C188.608 106.313 188.219 106.701 188.219 107.181C188.219 107.66 188.608 108.048 189.087 108.048Z"/><path stroke="#919191" stroke-miterlimit="10" d="M189.087 109.5V114.997"/><path stroke="#919191" stroke-miterlimit="10" d="M189.453 112.753H195.819L202.177 114.623"/><path stroke="#919191" stroke-miterlimit="10" d="M283.342 208.625H289.813"/><path stroke="#919191" stroke-miterlimit="10" d="M283.342 211.362H289.813"/><path stroke="#919191" stroke-miterlimit="10" d="M288.324 213.352L284.584 217.339"/><path stroke="#919191" stroke-miterlimit="10" d="M288.324 218.333L284.584 222.313"/><path stroke="#919191" stroke-miterlimit="10" d="M288.631 198.684C288.632 198.289 288.516 197.902 288.298 197.572C288.079 197.243 287.768 196.986 287.403 196.833C287.038 196.681 286.637 196.64 286.249 196.717C285.861 196.793 285.504 196.982 285.224 197.262C284.944 197.541 284.753 197.896 284.675 198.284C284.598 198.672 284.637 199.074 284.788 199.439C284.939 199.804 285.195 200.117 285.523 200.336C285.852 200.556 286.238 200.674 286.634 200.674C287.162 200.674 287.669 200.464 288.043 200.091C288.418 199.718 288.629 199.212 288.631 198.684V198.684Z"/><path stroke="#919191" stroke-miterlimit="10" d="M286.634 199.551C287.113 199.551 287.501 199.163 287.501 198.684C287.501 198.204 287.113 197.816 286.634 197.816C286.154 197.816 285.766 198.204 285.766 198.684C285.766 199.163 286.154 199.551 286.634 199.551Z"/><path stroke="#919191" stroke-miterlimit="10" d="M288.631 203.897C288.632 203.502 288.516 203.115 288.298 202.786C288.079 202.456 287.768 202.199 287.403 202.047C287.038 201.894 286.637 201.854 286.249 201.93C285.861 202.006 285.504 202.196 285.224 202.475C284.944 202.754 284.753 203.11 284.675 203.497C284.598 203.885 284.637 204.287 284.788 204.652C284.939 205.018 285.195 205.33 285.523 205.55C285.852 205.77 286.238 205.887 286.634 205.887C287.162 205.887 287.669 205.678 288.043 205.305C288.418 204.932 288.629 204.426 288.631 203.897V203.897Z"/><path stroke="#919191" stroke-miterlimit="10" d="M286.634 204.765C287.113 204.765 287.501 204.376 287.501 203.897C287.501 203.418 287.113 203.029 286.634 203.029C286.154 203.029 285.766 203.418 285.766 203.897C285.766 204.376 286.154 204.765 286.634 204.765Z"/><path stroke="#919191" stroke-miterlimit="10" d="M288.631 226.008C288.632 225.613 288.516 225.226 288.298 224.896C288.079 224.567 287.768 224.31 287.403 224.158C287.038 224.005 286.637 223.965 286.249 224.041C285.861 224.117 285.504 224.307 285.224 224.586C284.944 224.865 284.753 225.221 284.675 225.608C284.598 225.996 284.637 226.398 284.788 226.763C284.939 227.129 285.195 227.441 285.523 227.661C285.852 227.88 286.238 227.998 286.634 227.998C287.162 227.998 287.669 227.788 288.043 227.415C288.418 227.043 288.629 226.536 288.631 226.008V226.008Z"/><path stroke="#919191" stroke-miterlimit="10" d="M286.634 226.876C287.113 226.876 287.501 226.487 287.501 226.008C287.501 225.529 287.113 225.14 286.634 225.14C286.154 225.14 285.766 225.529 285.766 226.008C285.766 226.487 286.154 226.876 286.634 226.876Z"/><path stroke="#919191" stroke-miterlimit="10" d="M288.631 231.222C288.631 230.827 288.514 230.441 288.294 230.112C288.075 229.784 287.763 229.528 287.398 229.377C287.033 229.225 286.631 229.186 286.244 229.263C285.857 229.34 285.501 229.53 285.221 229.81C284.942 230.089 284.752 230.445 284.675 230.832C284.598 231.22 284.637 231.621 284.788 231.986C284.94 232.351 285.196 232.663 285.524 232.882C285.852 233.102 286.239 233.219 286.634 233.219C287.163 233.219 287.671 233.009 288.046 232.634C288.42 232.259 288.631 231.751 288.631 231.222V231.222Z"/><path stroke="#919191" stroke-miterlimit="10" d="M286.634 232.089C287.113 232.089 287.501 231.701 287.501 231.222C287.501 230.742 287.113 230.354 286.634 230.354C286.154 230.354 285.766 230.742 285.766 231.222C285.766 231.701 286.154 232.089 286.634 232.089Z"/><path stroke="#919191" stroke-miterlimit="10" d="M293.306 205.132H302.282L297.794 185.684"/><path stroke="#919191" stroke-miterlimit="10" d="M314.556 91.2334H69.5266C61.8758 91.2334 55.6736 97.4356 55.6736 105.086V229.726C55.6736 237.376 61.8758 243.579 69.5266 243.579H314.556C322.207 243.579 328.409 237.376 328.409 229.726V105.086C328.409 97.4356 322.207 91.2334 314.556 91.2334Z"/><path stroke="#919191" stroke-miterlimit="10" d="M64.0811 218.595H80.036"/><path stroke="#919191" stroke-miterlimit="10" d="M64.0811 223.584H80.036"/><path stroke="#919191" stroke-miterlimit="10" d="M64.0811 228.574H80.036"/><path stroke="#919191" stroke-miterlimit="10" d="M252.577 98.4217H202.207C201.81 98.4217 201.43 98.2641 201.149 97.9835C200.868 97.703 200.711 97.3225 200.711 96.9257C200.711 96.5289 200.868 96.1484 201.149 95.8679C201.43 95.5873 201.81 95.4297 202.207 95.4297H252.577C252.974 95.4297 253.354 95.5873 253.635 95.8679C253.916 96.1484 254.073 96.5289 254.073 96.9257C254.073 97.3225 253.916 97.703 253.635 97.9835C253.354 98.2641 252.974 98.4217 252.577 98.4217Z"/><path stroke="#919191" stroke-miterlimit="10" d="M176.775 98.4217H126.412C126.015 98.4217 125.635 98.2641 125.354 97.9835C125.074 97.703 124.916 97.3225 124.916 96.9257C124.916 96.5289 125.074 96.1484 125.354 95.8679C125.635 95.5873 126.015 95.4297 126.412 95.4297H176.775C177.172 95.4297 177.552 95.5873 177.833 95.8679C178.113 96.1484 178.271 96.5289 178.271 96.9257C178.271 97.3225 178.113 97.703 177.833 97.9835C177.552 98.2641 177.172 98.4217 176.775 98.4217Z"/><path stroke="#919191" stroke-miterlimit="10" d="M118.431 98.4217H68.068C67.6712 98.4217 67.2907 98.2641 67.0102 97.9835C66.7296 97.703 66.572 97.3225 66.572 96.9257C66.572 96.5289 66.7296 96.1484 67.0102 95.8679C67.2907 95.5873 67.6712 95.4297 68.068 95.4297H118.431C118.828 95.4297 119.208 95.5873 119.489 95.8679C119.769 96.1484 119.927 96.5289 119.927 96.9257C119.927 97.3225 119.769 97.703 119.489 97.9835C119.208 98.2641 118.828 98.4217 118.431 98.4217Z"/><path stroke="#919191" stroke-miterlimit="10" d="M312.417 98.4217H262.047C261.65 98.4217 261.27 98.2641 260.989 97.9835C260.708 97.703 260.551 97.3225 260.551 96.9257C260.551 96.5289 260.708 96.1484 260.989 95.8679C261.27 95.5873 261.65 95.4297 262.047 95.4297H312.417C312.814 95.4297 313.194 95.5873 313.475 95.8679C313.756 96.1484 313.913 96.5289 313.913 96.9257C313.913 97.3225 313.756 97.703 313.475 97.9835C313.194 98.2641 312.814 98.4217 312.417 98.4217Z"/><path stroke="#919191" stroke-miterlimit="10" d="M312.417 239.046H262.047C261.65 239.046 261.27 238.888 260.989 238.608C260.708 238.327 260.551 237.946 260.551 237.55C260.551 237.153 260.708 236.772 260.989 236.492C261.27 236.211 261.65 236.054 262.047 236.054H312.417C312.814 236.054 313.194 236.211 313.475 236.492C313.756 236.772 313.913 237.153 313.913 237.55C313.913 237.946 313.756 238.327 313.475 238.608C313.194 238.888 312.814 239.046 312.417 239.046Z"/><path stroke="#919191" stroke-miterlimit="10" d="M115.94 239.046H65.5771C65.1804 239.046 64.7999 238.888 64.5193 238.608C64.2388 238.327 64.0811 237.946 64.0811 237.55C64.0811 237.153 64.2388 236.772 64.5193 236.492C64.7999 236.211 65.1804 236.054 65.5771 236.054H115.94C116.337 236.054 116.717 236.211 116.998 236.492C117.278 236.772 117.436 237.153 117.436 237.55C117.436 237.946 117.278 238.327 116.998 238.608C116.717 238.888 116.337 239.046 115.94 239.046Z"/><path stroke="#919191" stroke-miterlimit="10" d="M78.0463 107.892H67.0732V120.854H78.0463V107.892Z"/><path stroke="#919191" stroke-miterlimit="10" d="M93.0063 107.892H82.0331V120.854H93.0063V107.892Z"/><path stroke="#919191" stroke-miterlimit="10" d="M102.902 113.875H96.9932V120.854H102.902V113.875Z"/><path fill="#F6C549" stroke="#263238" stroke-linecap="round" stroke-linejoin="round" d="M108.46 301.541H95.6767C94.6848 301.541 93.7335 301.147 93.0321 300.445C92.3307 299.744 91.9367 298.793 91.9367 297.801V294.569C91.9367 293.577 92.3307 292.626 93.0321 291.925C93.7335 291.223 94.6848 290.829 95.6767 290.829H124.849C125.841 290.829 126.792 290.435 127.493 289.734C128.195 289.033 128.589 288.081 128.589 287.089V285.13C128.589 284.138 128.983 283.186 129.684 282.485C130.385 281.784 131.337 281.39 132.329 281.39H256.923C257.915 281.39 258.866 281.784 259.568 282.485C260.269 283.186 260.663 284.138 260.663 285.13C260.663 286.122 261.057 287.073 261.758 287.774C262.46 288.476 263.411 288.87 264.403 288.87H291.331C292.323 288.87 293.274 289.264 293.976 289.965C294.677 290.666 295.071 291.618 295.071 292.61V296.836C295.071 297.828 294.677 298.779 293.976 299.48C293.274 300.182 292.323 300.576 291.331 300.576L108.46 301.541Z"/><path fill="#F6C549" stroke="#263238" stroke-linecap="round" stroke-linejoin="round" d="M152.659 294.712H146.675C145.71 294.712 144.932 293.029 144.932 290.972V289.984C144.932 287.912 145.68 286.244 146.675 286.244H160.304C161.269 286.244 162.047 284.554 162.047 282.504V280.5C162.047 278.428 162.832 276.76 163.79 276.76H221.969C222.934 276.76 223.712 278.443 223.712 280.5C223.712 282.579 224.497 284.24 225.455 284.24H238.029C238.993 284.24 239.771 285.923 239.771 287.98V292.206C239.771 294.293 238.986 295.983 238.021 295.946L152.659 294.712Z"/><path fill="#F6C549" stroke="#263238" stroke-linecap="round" stroke-linejoin="round" d="M332.86 322.268H58.5684L104.383 295.34C105.707 294.568 107.212 294.16 108.744 294.158H282.677C284.212 294.159 285.719 294.567 287.045 295.34L332.86 322.268Z"/><path fill="#F6C549" stroke="#263238" stroke-linecap="round" stroke-linejoin="round" d="M282.392 322.268H109.036L138.679 289.625C140.262 287.88 142.192 286.485 144.346 285.53C146.5 284.576 148.83 284.083 151.186 284.083H240.235C242.592 284.082 244.923 284.576 247.078 285.53C249.234 286.485 251.165 287.88 252.749 289.625L282.392 322.268Z"/><path fill="#263238" stroke="#263238" stroke-linecap="round" stroke-linejoin="round" d="M277.044 305.64H293.179L276.753 298.31L277.044 305.64Z"/><path fill="#263238" stroke="#263238" stroke-linecap="round" stroke-linejoin="round" d="M279.984 310.629H295.819L298.168 318.543L279.984 310.629Z"/><path fill="#263238" stroke="#263238" stroke-linecap="round" stroke-linejoin="round" d="M113.546 305.64H97.412L113.838 298.31L113.546 305.64Z"/><path fill="#263238" stroke="#263238" stroke-linecap="round" stroke-linejoin="round" d="M110.614 310.629H94.7716L92.4304 318.543L110.614 310.629Z"/><path fill="#fff" stroke="#263238" stroke-linecap="round" stroke-linejoin="round" d="M232.867 315.05C232.867 316.164 231.065 317.062 228.843 317.062C226.622 317.062 224.819 316.164 224.819 315.05C224.819 313.935 226.622 313.038 228.843 313.038C231.065 313.038 232.867 313.943 232.867 315.05Z"/><path fill="#263238" stroke="#263238" stroke-linecap="round" stroke-linejoin="round" d="M215.095 315.05C215.095 316.164 213.292 317.062 211.071 317.062C208.849 317.062 207.046 316.164 207.046 315.05C207.046 313.935 208.849 313.038 211.071 313.038C213.292 313.038 215.095 313.943 215.095 315.05Z"/><path fill="#fff" stroke="#263238" stroke-linecap="round" stroke-linejoin="round" d="M197.322 315.05C197.322 316.164 195.52 317.062 193.298 317.062C191.077 317.062 189.274 316.164 189.274 315.05C189.274 313.935 191.077 313.038 193.298 313.038C195.52 313.038 197.322 313.943 197.322 315.05Z"/><path fill="#263238" stroke="#263238" stroke-linecap="round" stroke-linejoin="round" d="M179.52 315.05C179.52 316.164 177.717 317.062 175.496 317.062C173.274 317.062 171.471 316.164 171.471 315.05C171.471 313.935 173.274 313.038 175.496 313.038C177.717 313.038 179.52 313.943 179.52 315.05Z"/><path fill="#fff" stroke="#263238" stroke-linecap="round" stroke-linejoin="round" d="M161.777 315.05C161.777 316.164 159.975 317.062 157.753 317.062C155.532 317.062 153.729 316.164 153.729 315.05C153.729 313.935 155.524 313.038 157.753 313.038C159.982 313.038 161.777 313.943 161.777 315.05Z"/><path fill="#263238" stroke="#263238" stroke-linecap="round" stroke-linejoin="round" d="M229.135 293.867H225.268C223.659 293.867 222.178 293.081 221.954 292.116C221.73 291.174 220.293 290.418 218.73 290.418H170.791C169.235 290.418 167.799 291.166 167.574 292.116C167.35 293.081 165.862 293.867 164.261 293.867H160.386C158.785 293.867 157.23 294.667 156.915 295.669L155.719 299.447C155.375 300.531 156.467 301.422 158.187 301.422H162.316C164.021 301.422 165.196 302.327 164.927 303.464C164.657 304.623 165.862 305.573 167.627 305.573H221.917C223.674 305.573 224.909 304.623 224.609 303.464C224.348 302.327 225.522 301.422 227.227 301.422H231.349C233.054 301.422 234.154 300.531 233.817 299.447L232.621 295.669C232.299 294.667 230.743 293.867 229.135 293.867Z"/><path stroke="#263238" stroke-linecap="round" stroke-linejoin="round" d="M245.755 290.762C245.328 290.213 244.756 289.794 244.103 289.552C243.45 289.31 242.743 289.255 242.06 289.393C240.714 289.7 240.183 290.807 240.886 291.862C241.316 292.411 241.892 292.829 242.548 293.068C243.203 293.308 243.913 293.359 244.596 293.216C245.935 292.924 246.458 291.817 245.755 290.762Z"/><path stroke="#263238" stroke-linecap="round" stroke-linejoin="round" d="M244.379 291.069C244.193 290.83 243.943 290.648 243.659 290.544C243.375 290.44 243.067 290.417 242.771 290.478C242.187 290.613 241.963 291.091 242.262 291.555C242.449 291.794 242.698 291.976 242.982 292.08C243.266 292.184 243.574 292.207 243.87 292.146C244.454 292.011 244.686 291.533 244.379 291.069Z"/><path stroke="#263238" stroke-linecap="round" stroke-linejoin="round" d="M255.509 305.535C255.08 304.986 254.506 304.567 253.852 304.327C253.198 304.086 252.489 304.033 251.807 304.174C250.46 304.481 249.937 305.588 250.632 306.643C251.061 307.192 251.635 307.611 252.29 307.851C252.944 308.092 253.652 308.145 254.335 308.004C255.681 307.705 256.205 306.598 255.509 305.535Z"/><path stroke="#263238" stroke-linecap="round" stroke-linejoin="round" d="M254.133 305.85C253.947 305.611 253.697 305.429 253.413 305.325C253.129 305.22 252.821 305.197 252.525 305.259C251.934 305.393 251.709 305.872 252.016 306.328C252.201 306.569 252.45 306.753 252.734 306.859C253.019 306.965 253.327 306.988 253.624 306.927C254.208 306.792 254.432 306.313 254.133 305.85Z"/><path stroke="#263238" stroke-linecap="round" stroke-linejoin="round" d="M258.808 310.555C258.379 310.005 257.805 309.587 257.151 309.346C256.497 309.105 255.788 309.052 255.105 309.193C253.759 309.5 253.235 310.607 253.931 311.662C254.36 312.211 254.934 312.63 255.588 312.87C256.243 313.111 256.951 313.164 257.634 313.023C258.995 312.724 259.556 311.617 258.808 310.555Z"/><path stroke="#263238" stroke-linecap="round" stroke-linejoin="round" d="M257.439 310.868C257.253 310.629 257.004 310.447 256.72 310.342C256.435 310.238 256.127 310.215 255.831 310.278C255.247 310.412 255.023 310.891 255.322 311.347C255.508 311.587 255.757 311.769 256.041 311.875C256.325 311.981 256.633 312.005 256.93 311.946C257.514 311.811 257.746 311.332 257.439 310.868Z"/><path stroke="#263238" stroke-linecap="round" stroke-linejoin="round" d="M249.196 295.969C248.767 295.419 248.193 295.001 247.539 294.76C246.885 294.519 246.176 294.467 245.494 294.607C244.147 294.906 243.624 296.013 244.319 297.076C244.748 297.625 245.322 298.044 245.976 298.284C246.631 298.525 247.339 298.578 248.022 298.437C249.368 298.13 249.892 297.031 249.196 295.969Z"/><path stroke="#263238" stroke-linecap="round" stroke-linejoin="round" d="M247.82 296.282C247.635 296.042 247.386 295.859 247.101 295.755C246.816 295.65 246.508 295.628 246.212 295.691C245.621 295.819 245.396 296.305 245.696 296.761C245.883 297 246.134 297.183 246.419 297.287C246.705 297.391 247.014 297.414 247.311 297.352C247.895 297.217 248.119 296.739 247.82 296.282Z"/><path stroke="#263238" stroke-linecap="round" stroke-linejoin="round" d="M248.231 298.751L251.724 304.047"/><path stroke="#fff" stroke-linecap="round" stroke-linejoin="round" d="M179.277 300.087C180.749 299.938 181.851 298.925 181.74 297.823C181.629 296.722 180.346 295.949 178.875 296.097C177.403 296.246 176.3 297.259 176.412 298.361C176.523 299.462 177.806 300.235 179.277 300.087Z"/><path stroke="#fff" stroke-linecap="round" stroke-linejoin="round" d="M179.153 297.21C178.879 297.184 178.604 297.259 178.38 297.42C178.156 297.581 177.998 297.817 177.934 298.085C177.934 298.564 178.383 298.96 179.019 298.96C179.294 298.986 179.57 298.912 179.795 298.751C180.02 298.59 180.18 298.354 180.246 298.085C180.268 297.599 179.797 297.21 179.153 297.21Z"/><path stroke="#fff" stroke-linecap="round" stroke-linejoin="round" d="M199.832 300.081C201.304 299.932 202.407 298.919 202.295 297.817C202.184 296.716 200.901 295.943 199.43 296.092C197.959 296.24 196.856 297.253 196.967 298.355C197.078 299.456 198.361 300.229 199.832 300.081Z"/><path stroke="#fff" stroke-linecap="round" stroke-linejoin="round" d="M199.716 297.203C199.441 297.177 199.165 297.251 198.94 297.412C198.714 297.573 198.555 297.809 198.489 298.078C198.452 298.564 198.946 298.953 199.581 298.953C199.857 298.98 200.133 298.907 200.359 298.746C200.585 298.585 200.744 298.348 200.808 298.078C200.838 297.592 200.352 297.203 199.716 297.203Z"/><path stroke="#fff" stroke-linecap="round" stroke-linejoin="round" d="M206.777 296.065C205.281 296.065 204.047 296.963 203.957 298.078C203.867 299.192 204.997 300.09 206.47 300.09C207.944 300.09 209.201 299.185 209.29 298.078C209.38 296.971 208.251 296.058 206.777 296.065Z"/><path stroke="#fff" stroke-linecap="round" stroke-linejoin="round" d="M206.687 297.203C206.413 297.177 206.138 297.252 205.914 297.412C205.69 297.573 205.532 297.81 205.468 298.078C205.431 298.557 205.917 298.953 206.553 298.953C206.828 298.979 207.104 298.905 207.329 298.744C207.554 298.583 207.714 298.347 207.779 298.078C207.817 297.592 207.331 297.203 206.687 297.203Z"/><path stroke="#fff" stroke-linecap="round" stroke-linejoin="round" d="M186.491 296.065C184.995 296.065 183.754 296.971 183.671 298.085C183.589 299.2 184.704 300.097 186.177 300.097C187.651 300.097 188.915 299.192 188.997 298.078C189.079 296.963 187.957 296.065 186.491 296.065Z"/><path stroke="#fff" stroke-linecap="round" stroke-linejoin="round" d="M186.402 297.203C186.126 297.177 185.851 297.251 185.625 297.412C185.4 297.573 185.24 297.809 185.175 298.078C185.137 298.564 185.624 298.953 186.267 298.953C186.542 298.979 186.818 298.905 187.043 298.744C187.269 298.583 187.428 298.347 187.494 298.078C187.531 297.599 187.037 297.203 186.402 297.203Z"/><path stroke="#fff" stroke-linecap="round" stroke-linejoin="round" d="M189.438 298.078H196.806"/><path stroke="#263238" stroke-linecap="round" stroke-linejoin="round" d="M149.107 293.157C150.595 292.742 151.572 291.58 151.287 290.561C151.003 289.542 149.567 289.053 148.078 289.468C146.59 289.883 145.614 291.045 145.898 292.064C146.182 293.082 147.619 293.572 149.107 293.157Z"/><path stroke="#263238" stroke-linecap="round" stroke-linejoin="round" d="M148.808 292.12C149.457 291.939 149.883 291.434 149.76 290.992C149.637 290.551 149.011 290.339 148.362 290.52C147.714 290.701 147.288 291.206 147.411 291.647C147.534 292.089 148.16 292.301 148.808 292.12Z"/><path stroke="#263238" stroke-linecap="round" stroke-linejoin="round" d="M136.398 305.535C136.83 304.979 137.41 304.557 138.072 304.316C138.733 304.075 139.449 304.026 140.138 304.174C141.484 304.481 142.008 305.588 141.312 306.642C140.88 307.198 140.3 307.621 139.638 307.862C138.977 308.103 138.26 308.152 137.572 308.004C136.226 307.705 135.702 306.598 136.398 305.535Z"/><path stroke="#263238" stroke-linecap="round" stroke-linejoin="round" d="M137.782 305.849C137.967 305.61 138.217 305.428 138.501 305.323C138.785 305.219 139.093 305.196 139.39 305.259C139.973 305.393 140.198 305.872 139.898 306.328C139.712 306.568 139.463 306.75 139.179 306.856C138.895 306.962 138.587 306.986 138.29 306.927C137.699 306.792 137.475 306.313 137.782 305.849Z"/><path stroke="#263238" stroke-linecap="round" stroke-linejoin="round" d="M133.092 310.554C133.52 310.006 134.093 309.588 134.745 309.348C135.398 309.107 136.105 309.054 136.787 309.193C138.133 309.499 138.664 310.607 137.961 311.661C137.532 312.211 136.958 312.629 136.304 312.87C135.65 313.11 134.941 313.163 134.259 313.023C132.912 312.723 132.396 311.616 133.092 310.554Z"/><path stroke="#263238" stroke-linecap="round" stroke-linejoin="round" d="M134.468 310.869C134.654 310.63 134.904 310.448 135.188 310.344C135.472 310.239 135.78 310.216 136.076 310.278C136.66 310.412 136.891 310.891 136.585 311.347C136.399 311.587 136.15 311.77 135.866 311.875C135.582 311.981 135.274 312.005 134.977 311.946C134.393 311.811 134.161 311.332 134.468 310.869Z"/><path stroke="#263238" stroke-linecap="round" stroke-linejoin="round" d="M142.711 295.969C143.143 295.413 143.723 294.99 144.385 294.749C145.046 294.508 145.763 294.459 146.451 294.607C147.797 294.906 148.321 296.013 147.625 297.076C147.196 297.625 146.622 298.044 145.968 298.284C145.314 298.525 144.605 298.578 143.923 298.437C142.539 298.13 142.015 297.031 142.711 295.969Z"/><path stroke="#263238" stroke-linecap="round" stroke-linejoin="round" d="M144.095 296.283C144.279 296.042 144.528 295.859 144.813 295.754C145.098 295.649 145.406 295.628 145.703 295.692C145.824 295.698 145.941 295.737 146.042 295.804C146.143 295.872 146.224 295.965 146.276 296.075C146.328 296.185 146.35 296.306 146.338 296.427C146.327 296.548 146.283 296.663 146.212 296.761C146.025 297 145.776 297.182 145.492 297.286C145.208 297.391 144.9 297.414 144.603 297.352C144.012 297.218 143.788 296.739 144.095 296.283Z"/><path stroke="#263238" stroke-linecap="round" stroke-linejoin="round" d="M143.676 298.751L140.183 304.047"/></svg>