<svg xmlns="http://www.w3.org/2000/svg" width="374" height="374" fill="none" viewBox="0 0 374 374"><path fill="#E0E0E0" d="M374 286.035H0V286.222H374V286.035Z"/><path fill="#E0E0E0" d="M294.099 291.72H281.487V291.907H294.099V291.72Z"/><path fill="#E0E0E0" d="M335.523 291.63H302.192V291.817H335.523V291.63Z"/><path fill="#E0E0E0" d="M239.906 292.887H198.414V293.074H239.906V292.887Z"/><path fill="#E0E0E0" d="M194.106 292.887H178.607V293.074H194.106V292.887Z"/><path fill="#E0E0E0" d="M113.367 291.443H106.56V291.63H113.367V291.443Z"/><path fill="#E0E0E0" d="M128.768 291.443H117.518V291.63H128.768V291.443Z"/><path fill="#E0E0E0" d="M99.8206 294.817H50.0337V295.004H99.8206V294.817Z"/><path fill="#E0E0E0" d="M177.276 252.674H32.8447C31.7132 252.672 30.6288 252.222 29.8294 251.421C29.03 250.62 28.5811 249.535 28.5811 248.403V45.3737C28.5909 44.2487 29.0442 43.1731 29.8425 42.3804C30.6408 41.5877 31.7197 41.1419 32.8447 41.14H177.276C178.409 41.14 179.495 41.59 180.296 42.391C181.097 43.192 181.547 44.2783 181.547 45.4111V248.403C181.547 249.536 181.097 250.622 180.296 251.423C179.495 252.224 178.409 252.674 177.276 252.674ZM32.8447 41.2896C31.7628 41.2916 30.7259 41.7228 29.9616 42.4885C29.1973 43.2542 28.7681 44.2918 28.7681 45.3737V248.403C28.7681 249.485 29.1973 250.523 29.9616 251.289C30.7259 252.054 31.7628 252.485 32.8447 252.487H177.276C178.359 252.485 179.396 252.055 180.162 251.289C180.927 250.524 181.358 249.486 181.36 248.403V45.3737C181.358 44.2911 180.927 43.2535 180.162 42.488C179.396 41.7225 178.359 41.2916 177.276 41.2896H32.8447Z"/><path fill="#E0E0E0" d="M339.076 252.674H194.637C193.505 252.672 192.42 252.222 191.619 251.421C190.819 250.621 190.368 249.535 190.366 248.403V45.3737C190.378 44.248 190.833 43.1724 191.632 42.3799C192.432 41.5874 193.511 41.1419 194.637 41.14H339.076C340.2 41.1439 341.277 41.5905 342.073 42.383C342.87 43.1755 343.322 44.25 343.332 45.3737V248.403C343.332 249.534 342.884 250.618 342.086 251.418C341.289 252.219 340.206 252.67 339.076 252.674ZM194.637 41.2896C193.555 41.2916 192.517 41.7225 191.751 42.488C190.986 43.2535 190.555 44.2911 190.553 45.3737V248.403C190.555 249.486 190.986 250.524 191.751 251.289C192.517 252.055 193.555 252.485 194.637 252.487H339.076C340.158 252.485 341.196 252.055 341.962 251.289C342.727 250.524 343.158 249.486 343.16 248.403V45.3737C343.158 44.2911 342.727 43.2535 341.962 42.488C341.196 41.7225 340.158 41.2916 339.076 41.2896H194.637Z"/><path fill="#E0E0E0" d="M237.707 194.884H202.282V286.035H237.707V194.884Z"/><path fill="#F0F0F0" d="M230.975 286.035H237.707V266.894H223.921L230.975 286.035Z"/><path fill="#E0E0E0" d="M105.311 194.884H69.8857V286.035H105.311V194.884Z"/><path fill="#F0F0F0" d="M237.699 194.884H99.4391V274.292H237.699V194.884Z"/><path fill="#E0E0E0" d="M170.828 200.651V250.363H232.486V200.651H170.828Z"/><path fill="#E0E0E0" d="M104.66 200.659V250.371H166.318V200.659H104.66Z"/><path fill="#E0E0E0" d="M232.486 266.894V263.236H170.828V266.894H232.486Z"/><path fill="#E0E0E0" d="M166.318 266.894V263.236H104.66V266.894H166.318Z"/><path fill="#E0E0E0" d="M232.478 259.825V256.168H170.821V259.825H232.478Z"/><path fill="#E0E0E0" d="M166.31 259.833V256.175H104.653V259.833H166.31Z"/><path fill="#F0F0F0" d="M141.589 206.007H129.404C126.782 206.007 124.188 205.473 121.779 204.438C119.371 203.403 117.198 201.888 115.394 199.985H155.584C153.782 201.887 151.612 203.401 149.206 204.436C146.8 205.471 144.208 206.006 141.589 206.007Z"/><path fill="#F0F0F0" d="M208.378 206.007H196.185C193.564 206.008 190.969 205.474 188.56 204.439C186.151 203.404 183.979 201.888 182.175 199.985H222.388C220.584 201.888 218.412 203.404 216.003 204.439C213.594 205.474 211 206.008 208.378 206.007Z"/><path fill="#F0F0F0" d="M106.171 286.035H99.4391V266.894H113.225L106.171 286.035Z"/><path fill="#E0E0E0" d="M236.944 55.3445H51.1258V161.486H236.944V55.3445Z"/><path fill="#E0E0E0" d="M247.221 52.0683H44.88C44.6281 52.0683 44.3864 52.1684 44.2083 52.3465C44.0301 52.5247 43.93 52.7663 43.93 53.0183C43.9291 53.1436 43.9529 53.268 44.0002 53.3841C44.0475 53.5002 44.1173 53.6058 44.2056 53.6948C44.2939 53.7838 44.399 53.8545 44.5147 53.9027C44.6305 53.9509 44.7546 53.9757 44.88 53.9757H247.221C247.347 53.9757 247.471 53.9509 247.587 53.9027C247.702 53.8545 247.808 53.7838 247.896 53.6948C247.984 53.6058 248.054 53.5002 248.101 53.3841C248.149 53.268 248.172 53.1436 248.171 53.0183C248.171 52.7663 248.071 52.5247 247.893 52.3465C247.715 52.1684 247.473 52.0683 247.221 52.0683Z"/><path fill="#E6E6E6" d="M241.013 55.3445H53.0257V161.486H241.013V55.3445Z"/><path fill="#E0E0E0" d="M236.944 161.486H51.1258V169.048H236.944V161.486Z"/><path fill="#E6E6E6" d="M247.79 161.486H59.8026V169.048H247.79V161.486Z"/><path fill="#F5F5F5" d="M235.306 155.786V61.0443L58.718 61.0443V155.786H235.306Z"/><path fill="#FAFAFA" d="M146.114 155.786L179.557 61.0443H195.34L161.897 155.786H146.114Z"/><path fill="#FAFAFA" d="M165.293 155.786L198.736 61.0443H204.885L171.449 155.786H165.293Z"/><path fill="#E0E0E0" d="M235.306 155.786V61.0443H234.58V155.786H235.306Z"/><path fill="#EBEBEB" d="M58.7853 50.3629H48.979V141.783H58.7853V50.3629Z"/><path fill="#E0E0E0" d="M62.6076 50.3629H54.9705V141.783H62.6076V50.3629Z"/><path fill="#EBEBEB" d="M68.5916 50.3629H58.7853V141.783H68.5916V50.3629Z"/><path fill="#E0E0E0" d="M72.4139 50.3629H64.7768V141.783H72.4139V50.3629Z"/><path fill="#EBEBEB" d="M78.3979 50.3629H68.5916V141.783H78.3979V50.3629Z"/><path fill="#EBEBEB" d="M231.656 50.3629H226.008V141.783H231.656V50.3629Z"/><path fill="#E0E0E0" d="M233.87 50.3629H229.464V141.783H233.87V50.3629Z"/><path fill="#EBEBEB" d="M237.31 50.3629H231.663V141.783H237.31V50.3629Z"/><path fill="#E0E0E0" d="M239.517 50.3629H235.111V141.783H239.517V50.3629Z"/><path fill="#EBEBEB" d="M242.958 50.3629H237.31V141.783H242.958V50.3629Z"/><path fill="#E6E6E6" d="M294.36 90.0218H281.824V124.228H294.36V90.0218Z"/><path fill="#F0F0F0" d="M277.059 129.935L274.157 137.841H277.059L294.809 129.935H277.059Z"/><path fill="#E0E0E0" d="M274.157 129.935V137.841L291.914 129.935H274.157Z"/><path fill="#F0F0F0" d="M307.421 129.935L304.518 137.841H307.421L325.171 129.935H307.421Z"/><path fill="#E0E0E0" d="M304.518 129.935V137.841L322.276 129.935H304.518Z"/><path fill="#E0E0E0" d="M261.134 130.302H280.44V124.28H261.134V130.302Z"/><path fill="#F0F0F0" d="M335.523 124.28H280.433V130.302H335.523V124.28Z"/><path fill="#E0E0E0" d="M315.245 124.228H284.734L280.956 82.7812H311.467L315.245 124.228Z"/><path fill="#F0F0F0" d="M316.823 124.228H286.312L282.542 82.7812H313.053L316.823 124.228Z"/><path fill="#FAFAFA" d="M290.486 119.643L287.546 87.3664H308.879L311.819 119.643H290.486Z"/><path fill="#E0E0E0" d="M117.743 181.577C117.743 181.577 104.585 158.905 122.837 140.856C122.837 140.856 127.601 143.96 127.527 148.134C127.452 152.308 122.425 153.37 123.51 156.841C124.594 160.311 129.337 163.745 126.218 166.624C123.098 169.504 126.719 172.062 126.509 175.6C126.3 179.139 117.743 181.577 117.743 181.577Z"/><path fill="#E0E0E0" d="M118.738 183.649C118.738 183.649 124.071 157.985 101.062 146.608C101.062 146.608 97.5242 151.059 98.908 154.993C100.292 158.928 105.393 158.352 105.468 161.994C105.543 165.637 102.117 170.379 105.977 172.13C109.836 173.88 107.218 177.456 108.535 180.732C109.851 184.008 118.738 183.649 118.738 183.649Z"/><path fill="#F0F0F0" d="M98.5864 177.964C98.5864 177.964 99.0202 194.884 115.79 194.884C132.561 194.884 132.994 177.964 132.994 177.964H98.5864Z"/><path fill="#EBEBEB" d="M296.47 286.035H298.183L303.06 261.98L303.92 257.768L309.238 231.588H329.651L340.714 286.035H342.427L331.155 230.549C331.115 230.36 331.012 230.191 330.862 230.069C330.712 229.948 330.525 229.882 330.332 229.883H308.558C308.365 229.881 308.178 229.947 308.029 230.068C307.881 230.19 307.779 230.36 307.742 230.549L303.067 253.572L302.192 257.783L296.47 286.035Z"/><path fill="#EBEBEB" d="M263.7 286.035H265.413L276.476 231.558H296.889L302.192 257.783L303.045 261.979L307.929 286.035H309.672L303.935 257.768L303.067 253.572L298.392 230.549C298.353 230.36 298.249 230.191 298.099 230.069C297.949 229.948 297.762 229.882 297.569 229.883H275.795C275.602 229.882 275.415 229.948 275.265 230.069C275.115 230.191 275.012 230.36 274.972 230.549L263.7 286.035Z"/><path fill="#E6E6E6" d="M314.018 230.721H276.513C273.071 230.719 269.767 229.369 267.308 226.96C264.85 224.551 263.434 221.274 263.363 217.833L261.965 160.82C261.946 159.552 262.179 158.292 262.651 157.115C263.122 155.937 263.823 154.865 264.712 153.961C265.602 153.056 266.662 152.337 267.831 151.845C269 151.354 270.256 151.099 271.524 151.096H295.034C297.387 151.096 299.659 151.962 301.415 153.529C303.171 155.096 304.289 157.255 304.556 159.593L314.018 230.721Z"/><path fill="#E6E6E6" d="M293.56 223.532H330.264C331.627 223.532 332.934 224.074 333.898 225.037C334.862 226.001 335.403 227.308 335.403 228.671V228.851C335.403 229.347 335.206 229.822 334.855 230.173C334.505 230.524 334.029 230.721 333.533 230.721H293.56V223.532Z"/><path fill="#F5F5F5" d="M187 319.815C267.098 319.815 332.03 316.024 332.03 311.347C332.03 306.671 267.098 302.88 187 302.88C106.902 302.88 41.9703 306.671 41.9703 311.347C41.9703 316.024 106.902 319.815 187 319.815Z"/><path fill="#FFCF55" d="M139.539 95.9534C139.542 94.5602 139.43 93.1692 139.203 91.7945C138.2 85.7189 135.088 80.191 130.414 76.1827C125.739 72.1743 119.801 69.942 113.644 69.8781H113.419C109.288 69.8806 105.217 70.8654 101.542 72.7513C97.8663 74.6371 94.692 77.3699 92.2808 80.7241C91.8843 81.2702 91.5328 81.8312 91.1737 82.3922C91.1445 82.4292 91.1194 82.4693 91.0989 82.5119C88.6435 86.573 87.3498 91.2301 87.3589 95.9759V96.0282C87.3743 101.544 89.1374 106.913 92.3948 111.364C95.6523 115.815 100.237 119.119 105.489 120.802C110.742 122.484 116.393 122.459 121.63 120.73C126.868 119 131.422 115.655 134.64 111.175C135.029 110.629 135.388 110.076 135.74 109.507C135.769 109.47 135.794 109.43 135.814 109.388C138.267 105.337 139.556 100.689 139.539 95.9534ZM88.4735 95.3625C88.5599 91.0917 89.7532 86.9164 91.9367 83.2449H100.097C98.8503 87.1647 98.1973 91.2492 98.1601 95.3625H88.4735ZM101.242 83.2449H112.881V95.3625H99.2821C99.3068 91.2464 99.9679 87.1589 101.242 83.2449ZM114.003 82.1229V70.9627C115.62 71.1094 117.17 71.6852 118.491 72.6308C121.266 74.5307 123.592 77.8668 125.223 82.1229H114.003ZM125.627 83.2449C126.552 86.047 127.154 88.9455 127.422 91.8843C127.534 93.0512 127.586 94.2106 127.601 95.3625H114.003V83.2449H125.627ZM111.235 71.2769C111.772 71.1243 112.324 71.0291 112.881 70.9927V82.1453H101.661C103.755 76.5054 107.151 72.4064 111.235 71.2545V71.2769ZM112.881 96.5069V108.625H101.264C100.339 105.816 99.7413 102.909 99.484 99.9627C99.3793 98.7958 99.3195 97.6364 99.3045 96.4845L112.881 96.5069ZM112.881 109.747V120.907C111.263 120.759 109.714 120.183 108.393 119.239C105.625 117.339 103.299 114.003 101.661 109.747H112.881ZM115.648 120.615C115.111 120.768 114.56 120.864 114.003 120.899V109.724H125.223C123.128 115.342 119.732 119.448 115.648 120.593V120.615ZM114.003 108.647V96.492H127.601C127.58 100.608 126.919 104.696 125.642 108.61L114.003 108.647ZM128.723 96.492H138.447C138.357 100.762 137.164 104.936 134.984 108.61H126.786C128.033 104.69 128.686 100.605 128.723 96.492ZM138.447 95.37H128.723C128.723 94.1881 128.649 92.9913 128.536 91.7871C128.281 88.8878 127.707 86.0256 126.823 83.2524H134.969C136.543 85.9251 137.606 88.8675 138.103 91.9292C138.281 93.0657 138.386 94.2125 138.417 95.3625L138.447 95.37ZM128.073 75.6751C130.517 77.4362 132.625 79.6228 134.296 82.1304H126.412C124.736 77.5003 122.216 73.8351 119.126 71.7107L118.887 71.5537C122.186 72.2923 125.3 73.6918 128.043 75.6677L128.073 75.6751ZM107.974 71.5686C104.825 73.6406 102.237 77.4105 100.494 82.1304H92.6398L93.1859 81.33C96.738 76.3713 101.991 72.8938 107.944 71.5611L107.974 71.5686ZM88.5258 96.492H98.2124C98.2124 97.6738 98.2872 98.8706 98.3994 100.075C98.6584 102.974 99.2327 105.835 100.112 108.61H91.9217C90.3444 105.938 89.2814 102.995 88.7876 99.9328C88.6014 98.7948 88.4964 97.6449 88.4735 96.492H88.5258ZM92.6697 109.732H100.494C102.169 114.362 104.69 118.027 107.779 120.151L108.026 120.308C101.741 118.881 96.2441 115.095 92.6697 109.732ZM118.932 120.286C122.074 118.221 124.662 114.444 126.412 109.724H134.251C134.072 109.993 133.892 110.263 133.705 110.524C130.15 115.485 124.89 118.961 118.932 120.286Z"/><path fill="#FAFAFA" d="M139.539 95.9534C139.542 94.5602 139.43 93.1692 139.203 91.7945C138.2 85.7189 135.088 80.191 130.414 76.1827C125.739 72.1743 119.801 69.942 113.644 69.8781H113.419C109.288 69.8806 105.217 70.8654 101.542 72.7513C97.8663 74.6371 94.692 77.3699 92.2808 80.7241C91.8843 81.2702 91.5328 81.8312 91.1737 82.3922C91.1445 82.4292 91.1194 82.4693 91.0989 82.5119C88.6435 86.573 87.3498 91.2301 87.3589 95.9759V96.0282C87.3743 101.544 89.1374 106.913 92.3948 111.364C95.6523 115.815 100.237 119.119 105.489 120.802C110.742 122.484 116.393 122.459 121.63 120.73C126.868 119 131.422 115.655 134.64 111.175C135.029 110.629 135.388 110.076 135.74 109.507C135.769 109.47 135.794 109.43 135.814 109.388C138.267 105.337 139.556 100.689 139.539 95.9534ZM88.4735 95.3625C88.5599 91.0917 89.7532 86.9164 91.9367 83.2449H100.097C98.8503 87.1647 98.1973 91.2492 98.1601 95.3625H88.4735ZM101.242 83.2449H112.881V95.3625H99.2821C99.3068 91.2464 99.9679 87.1589 101.242 83.2449ZM114.003 82.1229V70.9627C115.62 71.1094 117.17 71.6852 118.491 72.6308C121.266 74.5307 123.592 77.8668 125.223 82.1229H114.003ZM125.627 83.2449C126.552 86.047 127.154 88.9455 127.422 91.8843C127.534 93.0512 127.586 94.2106 127.601 95.3625H114.003V83.2449H125.627ZM111.235 71.2769C111.772 71.1243 112.324 71.0291 112.881 70.9927V82.1453H101.661C103.755 76.5054 107.151 72.4064 111.235 71.2545V71.2769ZM112.881 96.5069V108.625H101.264C100.339 105.816 99.7413 102.909 99.484 99.9627C99.3793 98.7958 99.3195 97.6364 99.3045 96.4845L112.881 96.5069ZM112.881 109.747V120.907C111.263 120.759 109.714 120.183 108.393 119.239C105.625 117.339 103.299 114.003 101.661 109.747H112.881ZM115.648 120.615C115.111 120.768 114.56 120.864 114.003 120.899V109.724H125.223C123.128 115.342 119.732 119.448 115.648 120.593V120.615ZM114.003 108.647V96.492H127.601C127.58 100.608 126.919 104.696 125.642 108.61L114.003 108.647ZM128.723 96.492H138.447C138.357 100.762 137.164 104.936 134.984 108.61H126.786C128.033 104.69 128.686 100.605 128.723 96.492ZM138.447 95.37H128.723C128.723 94.1881 128.649 92.9913 128.536 91.7871C128.281 88.8878 127.707 86.0256 126.823 83.2524H134.969C136.543 85.9251 137.606 88.8675 138.103 91.9292C138.281 93.0657 138.386 94.2125 138.417 95.3625L138.447 95.37ZM128.073 75.6751C130.517 77.4362 132.625 79.6228 134.296 82.1304H126.412C124.736 77.5003 122.216 73.8351 119.126 71.7107L118.887 71.5537C122.186 72.2923 125.3 73.6918 128.043 75.6677L128.073 75.6751ZM107.974 71.5686C104.825 73.6406 102.237 77.4105 100.494 82.1304H92.6398L93.1859 81.33C96.738 76.3713 101.991 72.8938 107.944 71.5611L107.974 71.5686ZM88.5258 96.492H98.2124C98.2124 97.6738 98.2872 98.8706 98.3994 100.075C98.6584 102.974 99.2327 105.835 100.112 108.61H91.9217C90.3444 105.938 89.2814 102.995 88.7876 99.9328C88.6014 98.7948 88.4964 97.6449 88.4735 96.492H88.5258ZM92.6697 109.732H100.494C102.169 114.362 104.69 118.027 107.779 120.151L108.026 120.308C101.741 118.881 96.2441 115.095 92.6697 109.732ZM118.932 120.286C122.074 118.221 124.662 114.444 126.412 109.724H134.251C134.072 109.993 133.892 110.263 133.705 110.524C130.15 115.485 124.89 118.961 118.932 120.286Z" opacity=".8"/><path fill="#FFCF55" d="M309.889 108.385H74.7177V165.368H309.889V108.385Z"/><path fill="#FAFAFA" d="M309.889 108.385H74.7177V165.368H309.889V108.385Z" opacity=".6"/><path fill="#FFCF55" d="M304.586 113.689H69.4144V170.671H304.586V113.689Z"/><path fill="#000" d="M304.586 113.689H69.4144V170.671H304.586V113.689Z" opacity=".3"/><path fill="#FFCF55" d="M299.282 118.992H64.1111V175.974H299.282V118.992Z"/><path fill="#FAFAFA" d="M299.282 118.992H64.1111V175.974H299.282V118.992Z" opacity=".1"/><path fill="#FFCF55" d="M288.062 164.754V130.212H75.3311V164.754H288.062Z"/><path fill="#FAFAFA" d="M288.062 164.754V130.212H75.3311V164.754H288.062Z" opacity=".9"/><path fill="#FFCF55" d="M252.278 130.212V164.754H253.527V130.212H252.278Z"/><path fill="#FAFAFA" d="M252.278 130.212V164.754H253.527V130.212H252.278Z" opacity=".6"/><path fill="#FFCF55" d="M80.6344 134.977V159.99H81.8836V134.977H80.6344Z"/><path fill="#FAFAFA" d="M80.6344 134.977V159.99H81.8836V134.977H80.6344Z" opacity=".6"/><path fill="#FFCF55" d="M269.602 151.844C268.694 151.844 267.8 151.619 267 151.191C266.2 150.763 265.517 150.144 265.013 149.39C264.509 148.635 264.199 147.767 264.11 146.864C264.021 145.961 264.157 145.049 264.504 144.211C264.851 143.372 265.4 142.632 266.102 142.057C266.803 141.481 267.636 141.087 268.526 140.91C269.417 140.733 270.337 140.778 271.205 141.041C272.074 141.304 272.864 141.778 273.506 142.419C274.279 143.191 274.805 144.175 275.018 145.246C275.231 146.317 275.122 147.428 274.704 148.437C274.286 149.446 273.578 150.308 272.67 150.914C271.762 151.521 270.694 151.844 269.602 151.844ZM269.602 142.307C268.67 142.307 267.768 142.63 267.048 143.222C266.329 143.813 265.837 144.635 265.655 145.548C265.474 146.462 265.616 147.41 266.055 148.231C266.495 149.052 267.205 149.695 268.066 150.051C268.927 150.406 269.884 150.452 270.775 150.181C271.666 149.91 272.435 149.338 272.952 148.563C273.468 147.788 273.7 146.858 273.607 145.931C273.515 145.005 273.104 144.139 272.444 143.481C272.075 143.1 271.633 142.797 271.145 142.589C270.657 142.381 270.132 142.272 269.602 142.27V142.307Z"/><path fill="#FFCF55" d="M276.76 154.193C276.661 154.192 276.563 154.172 276.472 154.134C276.381 154.095 276.298 154.039 276.229 153.968L272.452 150.191C272.373 150.124 272.31 150.041 272.265 149.949C272.22 149.856 272.195 149.755 272.191 149.652C272.187 149.549 272.204 149.446 272.242 149.35C272.279 149.254 272.336 149.167 272.409 149.094C272.482 149.021 272.569 148.964 272.665 148.926C272.761 148.889 272.864 148.871 272.967 148.875C273.07 148.879 273.171 148.905 273.264 148.949C273.357 148.994 273.439 149.058 273.506 149.136L277.284 152.914C277.423 153.054 277.501 153.243 277.501 153.441C277.501 153.639 277.423 153.828 277.284 153.968C277.146 154.109 276.957 154.19 276.76 154.193Z"/><g opacity=".6"><path fill="#FAFAFA" d="M269.602 151.844C268.694 151.844 267.8 151.619 267 151.191C266.2 150.763 265.517 150.144 265.013 149.39C264.509 148.635 264.199 147.767 264.11 146.864C264.021 145.961 264.157 145.049 264.504 144.211C264.851 143.372 265.4 142.632 266.102 142.057C266.803 141.481 267.636 141.087 268.526 140.91C269.417 140.733 270.337 140.778 271.205 141.041C272.074 141.304 272.864 141.778 273.506 142.419C274.279 143.191 274.805 144.175 275.018 145.246C275.231 146.317 275.122 147.428 274.704 148.437C274.286 149.446 273.578 150.308 272.67 150.914C271.762 151.521 270.694 151.844 269.602 151.844ZM269.602 142.307C268.67 142.307 267.768 142.63 267.048 143.222C266.329 143.813 265.837 144.635 265.655 145.548C265.474 146.462 265.616 147.41 266.055 148.231C266.495 149.052 267.205 149.695 268.066 150.051C268.927 150.406 269.884 150.452 270.775 150.181C271.666 149.91 272.435 149.338 272.952 148.563C273.468 147.788 273.7 146.858 273.607 145.931C273.515 145.005 273.104 144.139 272.444 143.481C272.075 143.1 271.633 142.797 271.145 142.589C270.657 142.381 270.132 142.272 269.602 142.27V142.307Z"/><path fill="#FAFAFA" d="M276.76 154.193C276.661 154.192 276.563 154.172 276.472 154.134C276.381 154.095 276.298 154.039 276.229 153.968L272.452 150.191C272.373 150.124 272.31 150.041 272.265 149.949C272.22 149.856 272.195 149.755 272.191 149.652C272.187 149.549 272.204 149.446 272.242 149.35C272.279 149.254 272.336 149.167 272.409 149.094C272.482 149.021 272.569 148.964 272.665 148.926C272.761 148.889 272.864 148.871 272.967 148.875C273.07 148.879 273.171 148.905 273.264 148.949C273.357 148.994 273.439 149.058 273.506 149.136L277.284 152.914C277.423 153.054 277.501 153.243 277.501 153.441C277.501 153.639 277.423 153.828 277.284 153.968C277.146 154.109 276.957 154.19 276.76 154.193Z"/></g><path fill="#FFCF55" d="M218.857 73.9398H195.34V74.5232H218.857V73.9398Z"/><path fill="#FFCF55" d="M218.857 76.4157H195.34V76.9991H218.857V76.4157Z"/><path fill="#FFCF55" d="M218.857 78.899H195.34V79.4825H218.857V78.899Z"/><path fill="#FFCF55" d="M218.857 81.3749H195.34V81.9583H218.857V81.3749Z"/><path fill="#FFCF55" d="M218.857 83.8508H195.34V84.4342H218.857V83.8508Z"/><path fill="#FFCF55" d="M210.674 86.3341H195.34V86.9176H210.674V86.3341Z"/><g opacity=".5"><path fill="#FAFAFA" d="M218.857 73.9398H195.34V74.5232H218.857V73.9398Z"/><path fill="#FAFAFA" d="M218.857 76.4157H195.34V76.9991H218.857V76.4157Z"/><path fill="#FAFAFA" d="M218.857 78.899H195.34V79.4825H218.857V78.899Z"/><path fill="#FAFAFA" d="M218.857 81.3749H195.34V81.9583H218.857V81.3749Z"/><path fill="#FAFAFA" d="M218.857 83.8508H195.34V84.4342H218.857V83.8508Z"/><path fill="#FAFAFA" d="M210.674 86.3341H195.34V86.9176H210.674V86.3341Z"/></g><path fill="#FFCF55" d="M77.3058 180.896H52.2478V181.27H77.3058V180.896Z"/><path fill="#FFCF55" d="M77.3058 182.482H52.2478V182.856H77.3058V182.482Z"/><path fill="#FFCF55" d="M77.3058 184.068H52.2478V184.442H77.3058V184.068Z"/><path fill="#FFCF55" d="M77.3058 185.654H52.2478V186.028H77.3058V185.654Z"/><path fill="#FFCF55" d="M77.3058 187.239H52.2478V187.613H77.3058V187.239Z"/><path fill="#FFCF55" d="M68.0007 188.833H52.2478V189.207H68.0007V188.833Z"/><g opacity=".4"><path fill="#FAFAFA" d="M77.3058 180.896H52.2478V181.27H77.3058V180.896Z"/><path fill="#FAFAFA" d="M77.3058 182.482H52.2478V182.856H77.3058V182.482Z"/><path fill="#FAFAFA" d="M77.3058 184.068H52.2478V184.442H77.3058V184.068Z"/><path fill="#FAFAFA" d="M77.3058 185.654H52.2478V186.028H77.3058V185.654Z"/><path fill="#FAFAFA" d="M77.3058 187.239H52.2478V187.613H77.3058V187.239Z"/><path fill="#FAFAFA" d="M68.0007 188.833H52.2478V189.207H68.0007V188.833Z"/></g><path fill="#FFCF55" d="M159.661 77.6125C158.407 77.6125 157.204 78.1105 156.318 78.9971C155.431 79.8836 154.933 81.086 154.933 82.3398V97.9356C154.933 99.1894 155.431 100.392 156.318 101.278C157.204 102.165 158.407 102.663 159.661 102.663C160.914 102.663 162.117 102.165 163.003 101.278C163.89 100.392 164.388 99.1894 164.388 97.9356V82.3398C164.388 81.086 163.89 79.8836 163.003 78.9971C162.117 78.1105 160.914 77.6125 159.661 77.6125Z"/><path fill="#FAFAFA" d="M159.661 77.6125C158.407 77.6125 157.204 78.1105 156.318 78.9971C155.431 79.8836 154.933 81.086 154.933 82.3398V97.9356C154.933 99.1894 155.431 100.392 156.318 101.278C157.204 102.165 158.407 102.663 159.661 102.663C160.914 102.663 162.117 102.165 163.003 101.278C163.89 100.392 164.388 99.1894 164.388 97.9356V82.3398C164.388 81.086 163.89 79.8836 163.003 78.9971C162.117 78.1105 160.914 77.6125 159.661 77.6125Z" opacity=".2"/><path fill="#FFCF55" d="M171.509 68.3148C170.259 68.3208 169.062 68.8215 168.181 69.7074C167.299 70.5933 166.804 71.7923 166.804 73.0422V97.9356C166.804 99.1894 167.302 100.392 168.189 101.278C169.075 102.165 170.278 102.663 171.531 102.663C172.785 102.663 173.988 102.165 174.874 101.278C175.761 100.392 176.259 99.1894 176.259 97.9356V73.0422C176.259 72.4195 176.136 71.8029 175.897 71.2279C175.658 70.6529 175.308 70.1308 174.866 69.6915C174.425 69.2522 173.901 68.9045 173.325 68.6682C172.749 68.432 172.132 68.3119 171.509 68.3148Z"/><path fill="#000" d="M171.509 68.3148C170.259 68.3208 169.062 68.8215 168.181 69.7074C167.299 70.5933 166.804 71.7923 166.804 73.0422V97.9356C166.804 99.1894 167.302 100.392 168.189 101.278C169.075 102.165 170.278 102.663 171.531 102.663C172.785 102.663 173.988 102.165 174.874 101.278C175.761 100.392 176.259 99.1894 176.259 97.9356V73.0422C176.259 72.4195 176.136 71.8029 175.897 71.2279C175.658 70.6529 175.308 70.1308 174.866 69.6915C174.425 69.2522 173.901 68.9045 173.325 68.6682C172.749 68.432 172.132 68.3119 171.509 68.3148Z" opacity=".3"/><path fill="#FFCF55" d="M183.35 86.9101C182.096 86.9101 180.894 87.4082 180.007 88.2947C179.12 89.1813 178.622 90.3837 178.622 91.6375V97.9356C178.622 99.1894 179.12 100.392 180.007 101.278C180.894 102.165 182.096 102.663 183.35 102.663C183.971 102.664 184.587 102.542 185.161 102.305C185.736 102.068 186.258 101.72 186.697 101.281C187.137 100.842 187.486 100.32 187.724 99.7464C187.962 99.1724 188.085 98.557 188.085 97.9356V91.6375C188.085 91.016 187.962 90.4007 187.724 89.8266C187.486 89.2526 187.137 88.7311 186.697 88.2921C186.258 87.853 185.736 87.5049 185.161 87.2678C184.587 87.0307 183.971 86.9091 183.35 86.9101Z"/><path fill="#FAFAFA" d="M183.35 86.9101C182.096 86.9101 180.894 87.4082 180.007 88.2947C179.12 89.1813 178.622 90.3837 178.622 91.6375V97.9356C178.622 99.1894 179.12 100.392 180.007 101.278C180.894 102.165 182.096 102.663 183.35 102.663C183.971 102.664 184.587 102.542 185.161 102.305C185.736 102.068 186.258 101.72 186.697 101.281C187.137 100.842 187.486 100.32 187.724 99.7464C187.962 99.1724 188.085 98.557 188.085 97.9356V91.6375C188.085 91.016 187.962 90.4007 187.724 89.8266C187.486 89.2526 187.137 88.7311 186.697 88.2921C186.258 87.853 185.736 87.5049 185.161 87.2678C184.587 87.0307 183.971 86.9091 183.35 86.9101Z" opacity=".6"/><path fill="#FFCF55" d="M283.2 193.829H302.312L269.684 159.99L283.2 193.829Z"/><g opacity=".1"><path fill="#000" d="M283.2 193.829H302.312L269.684 159.99L283.2 193.829Z"/></g><g style="mix-blend-mode:multiply"><path fill="#FFCF55" d="M264.829 175.967L269.684 159.99L272.437 175.967H264.829Z"/></g><path fill="#FFCF55" d="M269.684 159.99V207.338L273.065 203.965L283.2 193.829L269.684 159.99Z"/><path fill="#FAFAFA" d="M269.684 159.99V207.338L273.065 203.965L283.2 193.829L269.684 159.99Z" opacity=".3"/><path fill="#FFCF55" d="M303.479 58.4263H261.591C259.468 58.4341 257.434 59.2804 255.932 60.7809C254.43 62.2814 253.582 64.3144 253.572 66.4373V88.0695C253.582 90.1911 254.429 92.2231 255.929 93.7233C257.43 95.2236 259.461 96.0708 261.583 96.0806H292.318L292.094 103.643L299.851 96.0806H303.464C305.587 96.0727 307.62 95.2264 309.122 93.726C310.624 92.2255 311.472 90.1924 311.482 88.0695V66.4373C311.472 64.317 310.626 62.2862 309.128 60.7861C307.629 59.2861 305.599 58.4381 303.479 58.4263ZM260.648 67.6416C260.648 67.0465 260.884 66.4757 261.305 66.0549C261.726 65.634 262.297 65.3976 262.892 65.3976H272.534C273.129 65.3976 273.7 65.634 274.121 66.0549C274.541 66.4757 274.778 67.0465 274.778 67.6416C274.778 68.2368 274.541 68.8075 274.121 69.2284C273.7 69.6492 273.129 69.8856 272.534 69.8856H262.885C262.291 69.8836 261.722 69.6464 261.303 69.2257C260.883 68.8051 260.648 68.2355 260.648 67.6416ZM301.1 88.5856H284.434C284.112 88.6421 283.781 88.6274 283.465 88.5423C283.148 88.4573 282.855 88.3041 282.604 88.0935C282.353 87.8829 282.152 87.6199 282.013 87.3231C281.875 87.0263 281.803 86.7028 281.803 86.3753C281.803 86.0478 281.875 85.7243 282.013 85.4275C282.152 85.1307 282.353 84.8677 282.604 84.6571C282.855 84.4465 283.148 84.2933 283.465 84.2082C283.781 84.1232 284.112 84.1084 284.434 84.1649H301.1C301.422 84.1084 301.753 84.1232 302.07 84.2082C302.386 84.2933 302.68 84.4465 302.93 84.6571C303.181 84.8677 303.383 85.1307 303.521 85.4275C303.659 85.7243 303.731 86.0478 303.731 86.3753C303.731 86.7028 303.659 87.0263 303.521 87.3231C303.383 87.6199 303.181 87.8829 302.93 88.0935C302.68 88.3041 302.386 88.4573 302.07 88.5423C301.753 88.6274 301.422 88.6421 301.1 88.5856ZM301.1 79.2281H265.129C264.806 79.2847 264.475 79.2699 264.159 79.1849C263.843 79.0998 263.549 78.9466 263.298 78.736C263.047 78.5254 262.846 78.2624 262.707 77.9656C262.569 77.6688 262.497 77.3453 262.497 77.0178C262.497 76.6903 262.569 76.3668 262.707 76.07C262.846 75.7732 263.047 75.5102 263.298 75.2996C263.549 75.089 263.843 74.9358 264.159 74.8508C264.475 74.7657 264.806 74.751 265.129 74.8075H301.1C301.422 74.751 301.753 74.7657 302.07 74.8508C302.386 74.9358 302.68 75.089 302.93 75.2996C303.181 75.5102 303.383 75.7732 303.521 76.07C303.659 76.3668 303.731 76.6903 303.731 77.0178C303.731 77.3453 303.659 77.6688 303.521 77.9656C303.383 78.2624 303.181 78.5254 302.93 78.736C302.68 78.9466 302.386 79.0998 302.07 79.1849C301.753 79.2699 301.422 79.2847 301.1 79.2281ZM301.1 69.8707H279.804C279.209 69.8707 278.638 69.6342 278.218 69.2134C277.797 68.7926 277.56 68.2218 277.56 67.6267C277.56 67.0315 277.797 66.4608 278.218 66.0399C278.638 65.6191 279.209 65.3827 279.804 65.3827H301.1C301.695 65.3827 302.266 65.6191 302.687 66.0399C303.107 66.4608 303.344 67.0315 303.344 67.6267C303.344 68.2218 303.107 68.7926 302.687 69.2134C302.266 69.6342 301.695 69.8707 301.1 69.8707Z"/><path fill="#FFCF55" d="M237.969 126.995C236.18 122.081 233.448 117.563 229.928 113.696H170.454C166.934 117.563 164.202 122.081 162.413 126.995L170.641 167.956C176.936 174.779 185.398 179.214 194.592 180.505C203.785 181.796 213.142 179.865 221.072 175.04C229.003 170.214 235.019 162.792 238.098 154.034C241.176 145.276 241.128 135.722 237.961 126.995H237.969Z"/><path fill="#FAFAFA" d="M237.969 126.995C236.18 122.081 233.448 117.563 229.928 113.696H170.454C166.934 117.563 164.202 122.081 162.413 126.995L170.641 167.956C176.936 174.779 185.398 179.214 194.592 180.505C203.785 181.796 213.142 179.865 221.072 175.04C229.003 170.214 235.019 162.792 238.098 154.034C241.176 145.276 241.128 135.722 237.961 126.995H237.969Z" opacity=".1"/><path fill="#FFCF55" d="M240.34 142.576C239.915 152.021 236.163 161.011 229.748 167.956H170.656C165.668 162.535 162.262 155.849 160.812 148.627C159.361 141.404 159.92 133.922 162.428 126.995H237.976C239.791 131.981 240.594 137.277 240.34 142.576Z"/><path fill="#FAFAFA" d="M240.34 142.576C239.915 152.021 236.163 161.011 229.748 167.956H170.656C165.668 162.535 162.262 155.849 160.812 148.627C159.361 141.404 159.92 133.922 162.428 126.995H237.976C239.791 131.981 240.594 137.277 240.34 142.576Z" opacity=".9"/><path fill="#fff" d="M240.34 142.576C239.875 152.515 235.731 161.926 228.714 168.981C221.698 176.035 212.309 180.229 202.373 180.747C192.437 181.266 182.662 178.072 174.95 171.786C167.237 165.5 162.137 156.571 160.64 146.735C159.143 136.898 161.356 126.856 166.85 118.561C172.343 110.265 180.725 104.308 190.365 101.847C200.006 99.3861 210.217 100.597 219.015 105.245C227.812 109.893 234.568 117.645 237.969 126.995C239.783 131.981 240.589 137.277 240.34 142.576Z" opacity=".3"/><path fill="#fff" d="M222.844 107.532L165.054 160.237C164.764 159.703 164.48 159.164 164.201 158.621C162.434 155.083 161.206 151.302 160.558 147.401L210.472 101.878C214.889 103.042 219.074 104.954 222.844 107.532Z" opacity=".4"/><path fill="#fff" d="M238.305 127.96L184.008 177.508C178.376 175.023 173.39 171.276 169.437 166.557L228.768 112.447C233.092 116.821 236.355 122.128 238.305 127.96Z" opacity=".4"/><path fill="#FFCF55" d="M240.325 117.548C235.741 109.6 228.903 103.19 220.675 99.1299C212.448 95.0694 203.201 93.5406 194.104 94.737C185.007 95.9334 176.47 99.8011 169.572 105.851C162.674 111.901 157.726 119.861 155.353 128.724C152.98 137.586 153.289 146.954 156.242 155.641C159.195 164.328 164.657 171.944 171.94 177.525C179.222 183.107 187.996 186.403 197.152 186.996C206.307 187.589 215.434 185.454 223.375 180.859C234.012 174.705 241.771 164.581 244.949 152.711C248.127 140.84 246.464 128.193 240.325 117.548ZM168.517 159.017C164.9 152.754 163.222 145.559 163.695 138.341C164.168 131.124 166.77 124.209 171.172 118.471C175.575 112.733 181.58 108.429 188.429 106.103C195.278 103.778 202.662 103.535 209.648 105.407C216.635 107.278 222.909 111.179 227.679 116.616C232.448 122.054 235.498 128.783 236.443 135.954C237.388 143.125 236.185 150.414 232.987 156.902C229.789 163.389 224.739 168.782 218.476 172.399C214.317 174.801 209.727 176.36 204.966 176.987C200.205 177.615 195.367 177.298 190.728 176.055C186.09 174.813 181.741 172.668 177.932 169.745C174.122 166.822 170.925 163.176 168.524 159.017H168.517Z"/><path fill="#000" d="M240.325 117.548C235.741 109.6 228.903 103.19 220.675 99.1299C212.448 95.0694 203.201 93.5406 194.104 94.737C185.007 95.9334 176.47 99.8011 169.572 105.851C162.674 111.901 157.726 119.861 155.353 128.724C152.98 137.586 153.289 146.954 156.242 155.641C159.195 164.328 164.657 171.944 171.94 177.525C179.222 183.107 187.996 186.403 197.152 186.996C206.307 187.589 215.434 185.454 223.375 180.859C234.012 174.705 241.771 164.581 244.949 152.711C248.127 140.84 246.464 128.193 240.325 117.548ZM168.517 159.017C164.9 152.754 163.222 145.559 163.695 138.341C164.168 131.124 166.77 124.209 171.172 118.471C175.575 112.733 181.58 108.429 188.429 106.103C195.278 103.778 202.662 103.535 209.648 105.407C216.635 107.278 222.909 111.179 227.679 116.616C232.448 122.054 235.498 128.783 236.443 135.954C237.388 143.125 236.185 150.414 232.987 156.902C229.789 163.389 224.739 168.782 218.476 172.399C214.317 174.801 209.727 176.36 204.966 176.987C200.205 177.615 195.367 177.298 190.728 176.055C186.09 174.813 181.741 172.668 177.932 169.745C174.122 166.822 170.925 163.176 168.524 159.017H168.517Z" opacity=".1"/><path fill="#E4897B" d="M93.5449 188.414L99.2746 189.745L94.5248 193.291C94.5248 193.291 91.1214 191.75 90.9643 189.334L93.5449 188.414Z"/><path fill="#E4897B" d="M102.341 193.56L98.2124 196.313L94.5248 193.291L99.2746 189.753L102.341 193.56Z"/><path fill="#FFCF55" d="M167.156 165.143C161.067 169.631 154.821 173.895 148.545 178.061C142.27 182.228 135.912 186.289 129.524 190.276C123.136 194.263 116.688 198.168 110.218 201.96C106.986 203.89 103.725 205.76 100.494 207.66C98.8886 208.682 97.1386 209.456 95.3027 209.956C94.3231 210.216 93.3214 210.384 92.3107 210.457C91.1885 210.549 90.0591 210.491 88.9522 210.285C88.1611 210.129 87.4086 209.818 86.7378 209.37C86.067 208.923 85.4911 208.347 85.043 207.677C84.5949 207.006 84.2834 206.254 84.1263 205.463C83.9692 204.672 83.9696 203.858 84.1276 203.067C84.1788 202.813 84.2488 202.563 84.337 202.319C84.6981 201.259 85.2013 200.252 85.833 199.327C86.3965 198.495 87.0376 197.719 87.7479 197.008C89.1006 195.669 90.6462 194.539 92.3331 193.657C95.6019 191.795 98.8482 189.917 102.139 188.07C108.692 184.367 115.304 180.762 121.931 177.201C128.559 173.641 135.268 170.192 142.015 166.826C148.762 163.46 155.562 160.184 162.503 157.162C163.551 156.699 164.732 156.639 165.821 156.994C166.91 157.349 167.83 158.094 168.403 159.086C168.976 160.077 169.163 161.246 168.927 162.367C168.691 163.488 168.05 164.482 167.126 165.158L167.156 165.143Z"/><path fill="#000" d="M167.156 165.143C161.067 169.631 154.821 173.895 148.545 178.061C142.27 182.228 135.912 186.289 129.524 190.276C123.136 194.263 116.688 198.168 110.218 201.96C106.986 203.89 103.725 205.76 100.494 207.66C98.8886 208.682 97.1386 209.456 95.3027 209.956C94.3231 210.216 93.3214 210.384 92.3107 210.457C91.1885 210.549 90.0591 210.491 88.9522 210.285C88.1611 210.129 87.4086 209.818 86.7378 209.37C86.067 208.923 85.4911 208.347 85.043 207.677C84.5949 207.006 84.2834 206.254 84.1263 205.463C83.9692 204.672 83.9696 203.858 84.1276 203.067C84.1788 202.813 84.2488 202.563 84.337 202.319C84.6981 201.259 85.2013 200.252 85.833 199.327C86.3965 198.495 87.0376 197.719 87.7479 197.008C89.1006 195.669 90.6462 194.539 92.3331 193.657C95.6019 191.795 98.8482 189.917 102.139 188.07C108.692 184.367 115.304 180.762 121.931 177.201C128.559 173.641 135.268 170.192 142.015 166.826C148.762 163.46 155.562 160.184 162.503 157.162C163.551 156.699 164.732 156.639 165.821 156.994C166.91 157.349 167.83 158.094 168.403 159.086C168.976 160.077 169.163 161.246 168.927 162.367C168.691 163.488 168.05 164.482 167.126 165.158L167.156 165.143Z" opacity=".1"/><path fill="#E4897B" d="M101.848 152.981C101.474 153.587 101.047 154.32 100.643 155.008C100.239 155.696 99.843 156.414 99.469 157.14C98.721 158.569 97.973 160.02 97.225 161.493C96.477 162.967 95.8712 164.485 95.2578 165.981C94.9586 166.729 94.6444 167.477 94.3677 168.225L93.9488 169.37C93.8665 169.587 93.8516 169.676 93.7992 169.833C93.7468 169.991 93.7244 170.14 93.6795 170.29C93.3876 171.768 93.2398 173.271 93.2382 174.778C93.2008 176.386 93.2382 178.024 93.328 179.677C93.4177 181.33 93.5075 182.991 93.6571 184.651C93.8067 186.312 93.9563 188.002 94.1134 189.648L91.2261 190.239C90.7174 188.571 90.321 186.91 89.9246 185.227C89.5281 183.544 89.2289 181.854 88.9372 180.133C88.6455 178.413 88.451 176.685 88.3238 174.897C88.1683 173.025 88.2159 171.142 88.466 169.28C88.5108 169.018 88.5482 168.771 88.6156 168.532C88.6829 168.293 88.7502 167.956 88.81 167.784L89.1766 166.512C89.4159 165.667 89.6927 164.829 89.9769 163.999C90.5529 162.331 91.1812 160.693 91.8843 159.077C92.5874 157.462 93.3354 155.883 94.1283 154.327C94.5397 153.579 94.9736 152.779 95.4149 152.009C95.8562 151.238 96.2975 150.513 96.851 149.697L101.848 152.981Z"/><path fill="#FFCF55" d="M98.6537 307.428C98.149 307.412 97.6474 307.342 97.1577 307.219C97.1315 307.214 97.1073 307.202 97.0885 307.183C97.0698 307.164 97.0573 307.14 97.053 307.114C97.0482 307.087 97.0514 307.059 97.062 307.034C97.0726 307.009 97.0902 306.987 97.1128 306.972C97.3148 306.837 99.0801 305.7 99.7608 306.007C99.8364 306.042 99.9013 306.096 99.9487 306.164C99.9961 306.233 100.024 306.313 100.03 306.396C100.065 306.529 100.063 306.669 100.023 306.801C99.9836 306.933 99.9083 307.052 99.8056 307.144C99.4686 307.375 99.0594 307.476 98.6537 307.428ZM97.5093 307.024C98.5266 307.226 99.2895 307.189 99.5812 306.919C99.6453 306.858 99.6922 306.781 99.7171 306.695C99.7421 306.61 99.7442 306.52 99.7234 306.433C99.7224 306.395 99.7107 306.358 99.6895 306.326C99.6683 306.294 99.6386 306.269 99.6037 306.254C99.2521 306.097 98.2274 306.59 97.5093 307.024Z"/><path fill="#FFCF55" d="M97.1502 307.226C97.1283 307.232 97.1049 307.232 97.0829 307.226C97.0614 307.215 97.0436 307.197 97.0317 307.176C97.0198 307.155 97.0142 307.131 97.0156 307.106C97.0156 307.039 97.0156 305.364 97.6514 304.803C97.7299 304.732 97.8225 304.679 97.9231 304.647C98.0236 304.614 98.1299 304.604 98.2348 304.616C98.3451 304.617 98.4515 304.657 98.536 304.727C98.6205 304.798 98.6779 304.896 98.6986 305.004C98.8332 305.655 97.7711 306.912 97.2026 307.248C97.1836 307.245 97.1656 307.238 97.1502 307.226ZM98.1451 304.862C98.0317 304.863 97.9226 304.906 97.8384 304.982C97.4706 305.524 97.2822 306.167 97.2998 306.822C97.8534 306.373 98.5116 305.431 98.4293 305.034C98.4293 304.967 98.377 304.892 98.2049 304.87L98.1451 304.862Z"/><path fill="#FFCF55" d="M125.148 307.428C124.532 307.419 123.918 307.349 123.315 307.219C123.287 307.215 123.26 307.203 123.24 307.182C123.219 307.162 123.206 307.135 123.203 307.106C123.2 307.078 123.205 307.049 123.218 307.024C123.232 306.998 123.253 306.978 123.278 306.964C123.54 306.83 125.858 305.648 126.569 306.037C126.637 306.072 126.695 306.124 126.737 306.188C126.779 306.253 126.804 306.327 126.808 306.403C126.825 306.527 126.81 306.652 126.766 306.768C126.721 306.885 126.649 306.988 126.554 307.069C126.141 307.347 125.644 307.473 125.148 307.428ZM123.772 307.024C125.066 307.241 126.016 307.181 126.375 306.867C126.434 306.811 126.48 306.742 126.507 306.666C126.534 306.589 126.543 306.506 126.532 306.426C126.531 306.395 126.523 306.365 126.507 306.339C126.491 306.312 126.469 306.291 126.442 306.276C126.053 306.067 124.722 306.568 123.772 307.024Z"/><path fill="#FFCF55" d="M123.338 307.226C123.326 307.231 123.313 307.234 123.3 307.234C123.287 307.234 123.275 307.231 123.263 307.226C123.241 307.215 123.224 307.198 123.213 307.176C123.202 307.155 123.199 307.13 123.203 307.106C123.203 307.039 123.345 305.468 124.071 304.862C124.279 304.688 124.548 304.602 124.819 304.623C125.2 304.66 125.305 304.855 125.335 305.012C125.44 305.67 124.071 306.927 123.375 307.256L123.338 307.226ZM124.729 304.862C124.553 304.864 124.384 304.928 124.25 305.042C123.821 305.548 123.56 306.176 123.502 306.837C124.205 306.411 125.14 305.423 125.073 305.027C125.073 305.027 125.073 304.892 124.804 304.87L124.729 304.862Z"/><path fill="#E4897B" d="M110.704 130.519C111.16 134.012 112.2 141.095 109.672 143.235C109.672 143.235 110.42 146.795 116.793 147.206C123.839 147.663 120.383 143.93 120.383 143.93C116.598 142.763 116.882 139.913 117.728 137.28L110.704 130.519Z"/><path fill="#263238" d="M123.772 123.42C123.727 123.419 123.683 123.406 123.644 123.383C123.612 123.366 123.583 123.343 123.559 123.315C123.536 123.287 123.519 123.255 123.508 123.22C123.498 123.185 123.494 123.148 123.498 123.112C123.503 123.075 123.514 123.04 123.532 123.009C123.727 122.613 124.014 122.27 124.369 122.01C124.725 121.749 125.138 121.579 125.574 121.513C125.641 121.515 125.705 121.542 125.754 121.588C125.802 121.634 125.833 121.696 125.839 121.763C125.845 121.829 125.827 121.896 125.788 121.951C125.749 122.005 125.692 122.043 125.627 122.059C125.286 122.118 124.963 122.256 124.684 122.461C124.405 122.666 124.177 122.933 124.018 123.241C123.997 123.29 123.963 123.333 123.92 123.364C123.876 123.396 123.825 123.415 123.772 123.42Z"/><path fill="#DE5753" d="M125.784 126.487C126.299 127.514 126.953 128.466 127.728 129.314C127.506 129.507 127.245 129.65 126.962 129.731C126.679 129.813 126.381 129.831 126.09 129.785L125.784 126.487Z"/><path fill="#263238" d="M125.29 125.724C125.335 126.195 125.619 126.547 125.918 126.517C126.218 126.487 126.442 126.09 126.397 125.619C126.352 125.148 126.068 124.796 125.761 124.826C125.455 124.856 125.245 125.26 125.29 125.724Z"/><path fill="#263238" d="M125.664 124.864L126.756 124.437C126.756 124.437 126.232 125.365 125.664 124.864Z"/><path fill="#E4897B" d="M116.935 307.084H122.762L123.151 293.605H117.324L116.935 307.084Z"/><path fill="#E4897B" d="M90.4781 307.084H96.305L98.175 293.605H92.3556L90.4781 307.084Z"/><path fill="#263238" d="M96.664 306.411H90.119C90.0069 306.41 89.8981 306.449 89.8128 306.522C89.7275 306.595 89.6716 306.696 89.6553 306.807L88.9073 311.983C88.8926 312.114 88.9056 312.246 88.9454 312.372C88.9853 312.497 89.0511 312.612 89.1387 312.71C89.2262 312.809 89.3335 312.887 89.4534 312.941C89.5734 312.995 89.7033 313.023 89.8348 313.023C92.0788 312.986 93.2158 312.851 96.0956 312.851C97.8608 312.851 100.449 313.031 102.895 313.031C105.341 313.031 105.468 310.614 104.451 310.398C99.8879 309.418 99.1698 308.064 97.629 306.77C97.3599 306.54 97.018 306.412 96.664 306.411Z"/><path fill="#263238" d="M122.956 306.411H116.419C116.306 306.408 116.196 306.447 116.111 306.52C116.025 306.593 115.97 306.695 115.955 306.807L115.207 311.983C115.193 312.114 115.207 312.247 115.248 312.372C115.289 312.497 115.356 312.613 115.444 312.711C115.532 312.809 115.639 312.887 115.76 312.941C115.88 312.995 116.01 313.023 116.142 313.023C118.386 312.986 119.523 312.851 122.395 312.851C124.168 312.851 127.826 313.031 130.272 313.031C132.718 313.031 132.845 310.614 131.828 310.398C127.265 309.418 125.47 308.064 123.929 306.77C123.658 306.538 123.313 306.411 122.956 306.411Z"/><path fill="#CE6F64" d="M123.143 293.605L122.949 300.554H117.122L117.324 293.605H123.143Z"/><path fill="#CE6F64" d="M92.3481 293.605H98.175L97.2101 300.554H91.3832L92.3481 293.605Z"/><path fill="#FFCF55" d="M104.331 153.879C103.225 155.606 101.944 157.216 100.509 158.681L99.843 158.239L92.4678 153.34C92.4678 153.34 96.492 144.364 99.5214 143.908C102.416 143.444 104.526 146.436 105.505 149.637C105.879 150.797 105.259 152.368 104.331 153.879Z"/><path fill="#FAFAFA" d="M104.331 153.879C103.225 155.606 101.944 157.216 100.509 158.681L99.843 158.239L92.4678 153.34C92.4678 153.34 96.492 144.364 99.5214 143.908C102.416 143.444 104.526 146.436 105.505 149.637C105.879 150.797 105.259 152.368 104.331 153.879Z" opacity=".6"/><path fill="#FFCF55" d="M104.331 153.879C103.225 155.606 101.944 157.215 100.509 158.681L99.843 158.239C100.172 155.547 101.219 152.876 102.416 152.031C103.149 152.106 103.8 152.884 104.331 153.879Z"/><path fill="#FAFAFA" d="M104.331 153.879C103.225 155.606 101.944 157.215 100.509 158.681L99.843 158.239C100.172 155.547 101.219 152.876 102.416 152.031C103.149 152.106 103.8 152.884 104.331 153.879Z" opacity=".4"/><path fill="#FFCF55" d="M129.561 158.359C129.21 160.603 128.753 163.244 128.14 166.378C127.392 170.387 126.345 175.197 125.021 180.949L101.421 179.453C102.439 169.871 102.835 163.947 99.5214 143.938C102.872 143.47 106.252 143.247 109.634 143.272C113.217 143.248 116.796 143.481 120.346 143.968C124.923 144.716 130.07 146.092 130.07 146.092C130.07 146.092 131.386 146.608 129.561 158.359Z"/><path fill="#FAFAFA" d="M129.561 158.359C129.21 160.603 128.753 163.244 128.14 166.378C127.392 170.387 126.345 175.197 125.021 180.949L101.421 179.453C102.439 169.871 102.835 163.947 99.5214 143.938C102.872 143.47 106.252 143.247 109.634 143.272C113.217 143.248 116.796 143.481 120.346 143.968C124.923 144.716 130.07 146.092 130.07 146.092C130.07 146.092 131.386 146.608 129.561 158.359Z" opacity=".6"/><path fill="#FFCF55" d="M129.561 158.359C129.21 160.603 128.753 163.244 128.14 166.378C126.842 163.617 125.764 160.758 124.916 157.828H129.299L129.561 158.359Z"/><path fill="#FAFAFA" d="M129.561 158.359C129.21 160.603 128.753 163.244 128.14 166.378C126.842 163.617 125.764 160.758 124.916 157.828H129.299L129.561 158.359Z" opacity=".4"/><path fill="#E4897B" d="M109.417 125.604C110.308 131.311 110.569 133.75 113.748 136.42C118.528 140.444 125.342 138.096 126.173 132.231C126.921 126.958 125.335 118.506 119.493 116.755C118.208 116.361 116.844 116.302 115.529 116.584C114.215 116.867 112.995 117.48 111.985 118.367C110.975 119.254 110.209 120.385 109.76 121.652C109.31 122.918 109.192 124.279 109.417 125.604Z"/><path fill="#FFCF55" d="M118.782 180.545C118.782 180.545 118.408 190.934 117.511 204.039C116.763 215.035 115.633 227.931 114.055 238.208L114.01 238.492C111.175 256.684 98.6163 299.2 98.6163 299.2H90.6726C90.6726 299.2 97.2176 258.135 98.6537 240.108C102.296 194.577 93.1709 189.424 101.421 179.385L118.782 180.545Z"/><path fill="#000" d="M118.782 180.545C118.782 180.545 118.408 190.934 117.511 204.039C116.763 215.035 115.633 227.931 114.055 238.208L114.01 238.492C111.175 256.684 98.6163 299.2 98.6163 299.2H90.6726C90.6726 299.2 97.2176 258.135 98.6537 240.108C102.296 194.577 93.1709 189.424 101.421 179.385L118.782 180.545Z" opacity=".3"/><path fill="#FFCF55" d="M117.511 204.039C116.763 215.035 115.633 227.931 114.055 238.208C111.37 224.856 106.957 205.356 112.881 192.58C114.294 196.208 115.94 200.307 117.511 204.039Z"/><path fill="#000" d="M117.511 204.039C116.763 215.035 115.633 227.931 114.055 238.208C111.37 224.856 106.957 205.356 112.881 192.58C114.294 196.208 115.94 200.307 117.511 204.039Z" opacity=".4"/><path fill="#FFCF55" d="M125.021 180.956C125.021 180.956 131.753 220.854 131.349 238.612C130.952 257.088 124.183 299.2 124.183 299.2H116.314C116.314 299.2 117.556 258.157 116.86 240.018C116.112 220.241 107.734 179.827 107.734 179.827L125.021 180.956Z"/><path fill="#000" d="M125.021 180.956C125.021 180.956 131.753 220.854 131.349 238.612C130.952 257.088 124.183 299.2 124.183 299.2H116.314C116.314 299.2 117.556 258.157 116.86 240.018C116.112 220.241 107.734 179.827 107.734 179.827L125.021 180.956Z" opacity=".3"/><path fill="#263238" d="M114.968 299.574H125.522L126.345 296.036L114.594 296.118L114.968 299.574Z"/><path fill="#263238" d="M89.5206 299.574H100.075L100.898 296.036L89.5954 296.118L89.5206 299.574Z"/><path fill="#263238" d="M101.152 178.024L99.9552 180.074C99.858 180.231 100.045 180.41 100.314 180.425L125.066 182.033C125.275 182.033 125.462 181.959 125.484 181.824L125.836 179.722C125.836 179.58 125.679 179.445 125.447 179.43L101.511 177.874C101.444 177.871 101.377 177.883 101.315 177.909C101.253 177.935 101.197 177.974 101.152 178.024Z"/><path fill="#FFCF55" d="M104.189 180.896L103.553 180.851C103.426 180.851 103.329 180.769 103.344 180.694L103.822 177.964C103.822 177.889 103.95 177.83 104.077 177.837L104.72 177.874C104.847 177.874 104.937 177.957 104.929 178.039L104.451 180.762C104.436 180.844 104.316 180.904 104.189 180.896Z"/><path fill="#000" d="M104.189 180.896L103.553 180.851C103.426 180.851 103.329 180.769 103.344 180.694L103.822 177.964C103.822 177.889 103.95 177.83 104.077 177.837L104.72 177.874C104.847 177.874 104.937 177.957 104.929 178.039L104.451 180.762C104.436 180.844 104.316 180.904 104.189 180.896Z" opacity=".3"/><path fill="#FFCF55" d="M119.68 181.899L119.044 181.861C118.917 181.861 118.82 181.779 118.835 181.697L119.313 178.974C119.313 178.892 119.441 178.839 119.575 178.847L120.211 178.884C120.338 178.884 120.435 178.967 120.421 179.049L119.942 181.772C119.949 181.854 119.83 181.906 119.68 181.899Z"/><path fill="#000" d="M119.68 181.899L119.044 181.861C118.917 181.861 118.82 181.779 118.835 181.697L119.313 178.974C119.313 178.892 119.441 178.839 119.575 178.847L120.211 178.884C120.338 178.884 120.435 178.967 120.421 179.049L119.942 181.772C119.949 181.854 119.83 181.906 119.68 181.899Z" opacity=".3"/><path fill="#E4897B" d="M131.409 152.076C132.306 155.068 133.159 158.097 133.989 161.119L136.495 170.163L136.809 171.285L136.891 171.561L136.929 171.703V171.778C136.956 171.877 136.988 171.975 137.026 172.07C137.21 172.525 137.462 172.948 137.774 173.327C138.667 174.269 139.702 175.067 140.841 175.69C143.45 177.102 146.21 178.216 149.069 179.011L148.635 181.929C145.281 181.756 141.977 181.041 138.851 179.812C137.122 179.134 135.528 178.151 134.146 176.909C133.355 176.176 132.697 175.31 132.202 174.351C132.068 174.092 131.95 173.825 131.85 173.551L131.768 173.349L131.715 173.207L131.618 172.93L131.222 171.801C130.174 168.809 129.202 165.817 128.282 162.78C127.362 159.743 126.457 156.751 125.634 153.699L131.409 152.076Z"/><path fill="#FFCF55" d="M130.07 146.062C133.062 147.042 136.203 156.826 136.203 156.826L125.402 161.478C125.402 161.478 120.914 150.498 122.904 148.014C124.894 145.531 126.636 144.94 130.07 146.062Z"/><path fill="#FAFAFA" d="M130.07 146.062C133.062 147.042 136.203 156.826 136.203 156.826L125.402 161.478C125.402 161.478 120.914 150.498 122.904 148.014C124.894 145.531 126.636 144.94 130.07 146.062Z" opacity=".6"/><path fill="#263238" d="M124.295 116.426C122.388 114.07 107.652 112.387 106.867 118.805C101.631 122.47 106.597 131.94 107.345 134.348C103.733 135.351 92.0937 139.33 100.613 147.064C109.133 154.799 121.909 153.482 124.407 145.479C126.158 139.883 120.6 130.519 120.72 127.242C120.839 123.966 127.564 120.428 124.295 116.426Z"/><path fill="#263238" d="M108.378 135.53C108.35 135.531 108.323 135.525 108.299 135.514C108.274 135.502 108.252 135.485 108.236 135.463C106.882 133.817 102.169 125.17 103.822 121.056C104.079 120.418 104.513 119.867 105.074 119.469C105.636 119.071 106.299 118.843 106.986 118.812C107.011 118.809 107.035 118.811 107.059 118.818C107.082 118.824 107.104 118.836 107.123 118.851C107.142 118.867 107.157 118.886 107.169 118.907C107.18 118.929 107.187 118.953 107.188 118.977C107.195 119.025 107.182 119.075 107.153 119.114C107.123 119.153 107.08 119.179 107.031 119.186C106.413 119.209 105.815 119.409 105.307 119.761C104.8 120.114 104.404 120.605 104.166 121.176C102.573 125.155 107.196 133.6 108.52 135.216C108.543 135.242 108.559 135.275 108.564 135.31C108.569 135.345 108.564 135.381 108.548 135.413C108.533 135.445 108.509 135.472 108.479 135.49C108.448 135.508 108.413 135.517 108.378 135.515V135.53Z"/><path fill="#E4897B" d="M119.553 126.891C119.72 127.983 120.246 128.989 121.049 129.748C122.111 130.765 123.113 130.07 123.211 128.776C123.3 127.616 122.852 125.694 121.595 125.155C120.338 124.617 119.396 125.597 119.553 126.891Z"/><path fill="#E4897B" d="M145.404 178.204L149.652 176.76L148.987 181.869C148.987 181.869 147.311 182.617 145.142 180.732L143.07 179.408L144.701 178.518C144.924 178.39 145.16 178.285 145.404 178.204Z"/><path fill="#E4897B" d="M152.622 176.745L151.32 181.21L148.987 181.861L149.652 176.76L152.622 176.745Z"/></svg>