<svg xmlns="http://www.w3.org/2000/svg" width="307" height="307" fill="none" viewBox="0 0 307 307"><g clip-path="url(#clip0_1766_7959)"><path stroke="#263238" stroke-miterlimit="10" d="M246.14 63.0088C247.05 61.1137 248.416 59.4742 250.115 58.2374C251.815 57.0007 253.795 56.2055 255.878 55.9233C263.246 54.7444 265.917 59.1713 268.281 63.5983C270.645 68.0252 270.645 64.4701 276.546 64.4701C282.446 64.4701 282.157 69.1979 283.631 71.261C285.105 73.324 284.245 70.3768 289.538 71.261C294.83 72.1451 294.259 75.9888 295.438 76.5782C296.617 77.1677 297.802 75.3932 299.276 75.9642C300.749 76.5352 301.64 78.322 301.64 78.322H215.434C215.434 78.322 216.619 70.954 221.046 68.8787C225.473 66.8033 226.947 71.8259 229.9 69.1734C232.853 66.5209 231.969 63.5614 235.512 62.6773C239.055 61.7931 243.482 65.3727 246.14 63.0088Z"/><path stroke="#263238" stroke-miterlimit="10" d="M156.963 19.3657C157.451 18.3498 158.183 17.4708 159.093 16.8075C160.004 16.1441 161.066 15.7172 162.182 15.565C166.136 14.951 167.561 17.3088 168.825 19.6788C170.09 22.0488 170.096 20.1577 173.259 20.1577C176.421 20.1577 176.267 22.6874 177.053 23.7926C177.839 24.8978 177.372 23.3198 180.221 23.7926C183.07 24.2654 182.751 26.3284 183.383 26.6416C184.016 26.9547 184.648 26.0276 185.44 26.3284C185.985 26.6058 186.428 27.0486 186.705 27.5933H140.508C140.508 27.5933 141.122 23.6391 143.51 22.5278C145.899 21.4164 146.679 24.1119 148.256 22.6874C149.834 21.2629 149.368 19.6788 151.265 19.206C153.162 18.7332 155.539 20.6305 156.963 19.3657Z"/><path stroke="#263238" stroke-miterlimit="10" d="M154.427 163.447C154.913 162.431 155.644 161.551 156.554 160.887C157.464 160.222 158.524 159.794 159.64 159.64C163.594 159.026 165.019 161.378 166.29 163.754C167.561 166.13 167.554 164.227 170.717 164.227C173.879 164.227 173.725 166.763 174.517 167.868C175.309 168.973 174.83 167.395 177.679 167.868C180.528 168.341 180.209 170.397 180.841 170.717C181.474 171.036 182.112 170.103 182.898 170.397C183.456 170.675 183.912 171.122 184.2 171.675H137.972C137.972 171.675 138.586 167.72 140.974 166.615C143.363 165.51 144.143 168.193 145.721 166.775C147.299 165.356 146.832 163.766 148.729 163.293C150.626 162.821 153.003 164.718 154.427 163.447Z"/><path stroke="#263238" stroke-miterlimit="10" d="M234.022 46.0946C242.621 44.0887 247.967 35.4915 245.961 26.8921C243.955 18.2927 235.357 12.9476 226.758 14.9535C218.159 16.9594 212.814 25.5566 214.819 34.156C216.825 42.7554 225.423 48.1005 234.022 46.0946Z"/><path stroke="#263238" stroke-miterlimit="10" d="M229.925 5.5813V11.2301"/><path stroke="#263238" stroke-miterlimit="10" d="M229.925 50.7349V56.3775"/><path stroke="#263238" stroke-miterlimit="10" d="M255.32 30.9824H249.677"/><path stroke="#263238" stroke-miterlimit="10" d="M210.166 30.9824H204.523"/><path stroke="#263238" stroke-miterlimit="10" d="M211.965 13.0229L215.956 17.0139"/><path stroke="#263238" stroke-miterlimit="10" d="M243.887 44.9448L247.878 48.9358"/><path stroke="#263238" stroke-miterlimit="10" d="M247.878 13.0229L243.887 17.0139"/><path stroke="#263238" stroke-miterlimit="10" d="M215.956 44.9448L211.965 48.9358"/><path stroke="#263238" stroke-miterlimit="10" d="M255.32 30.9824H249.677"/><path stroke="#263238" stroke-miterlimit="10" d="M210.166 30.9824H204.523"/><path fill="#fff" d="M14.0791 191.494L63.9236 183.046L31.8237 5.63037"/><path stroke="#263238" stroke-miterlimit="10" d="M14.0791 191.494L63.9236 183.046L31.8237 5.63037"/><path fill="#C9C9C9" d="M60.8597 179.577C60.8597 179.577 48.1621 181.075 21.2874 158.302L60.8597 179.577Z"/><path stroke="#263238" stroke-miterlimit="10" d="M60.8597 179.577C60.8597 179.577 48.1621 181.075 21.2874 158.302"/><path fill="#C9C9C9" d="M56.3776 172.86C56.3776 172.86 45.9396 169.925 40.696 157.552L56.3776 172.86Z"/><path stroke="#263238" stroke-miterlimit="10" d="M56.3776 172.86C56.3776 172.86 45.9396 169.925 40.696 157.552"/><path fill="#fff" d="M119.282 16.8972C155.901 75.1597 242.794 120.43 242.794 120.43C237.796 118.766 235.469 121.762 235.469 121.762C228.475 119.435 221.82 125.096 221.82 125.096C215.827 122.432 209.503 127.423 209.503 127.423C207.404 126.439 205.068 126.073 202.768 126.368C200.468 126.663 198.3 127.606 196.517 129.087C189.861 127.423 184.2 132.415 184.2 132.415C179.871 129.757 170.747 134.681 170.747 134.681C162.845 131.998 154.943 138.064 154.943 138.064C145.438 135.94 137.26 141.073 137.26 141.073C130.266 138.408 121.946 144.4 121.946 144.4C114.29 140.409 104.969 147.728 104.969 147.728C93.3034 145.07 86.9915 151.725 86.9915 151.725C76.3386 149.061 66.0234 156.337 66.0234 156.337L41.3835 33.8743"/><path stroke="#263238" stroke-miterlimit="10" d="M119.282 16.8972C155.901 75.1597 242.794 120.43 242.794 120.43C237.796 118.766 235.469 121.762 235.469 121.762C228.475 119.435 221.82 125.096 221.82 125.096C215.827 122.432 209.503 127.423 209.503 127.423C207.404 126.439 205.068 126.073 202.768 126.368C200.468 126.663 198.3 127.606 196.517 129.087C189.861 127.423 184.2 132.415 184.2 132.415C179.871 129.757 170.747 134.681 170.747 134.681C162.845 131.998 154.943 138.064 154.943 138.064C145.438 135.94 137.26 141.073 137.26 141.073C130.266 138.408 121.946 144.4 121.946 144.4C114.29 140.409 104.969 147.728 104.969 147.728C93.3034 145.07 86.9915 151.725 86.9915 151.725C76.3386 149.061 66.0234 156.337 66.0234 156.337L41.3835 33.8743"/><path fill="#C9C9C9" d="M68.7004 149.712C68.7004 149.712 84.3759 128.062 85.8924 102.299L68.7004 149.712Z"/><path stroke="#263238" stroke-miterlimit="10" d="M68.7004 149.712C68.7004 149.712 84.3759 128.062 85.8924 102.299"/><path fill="#C9C9C9" d="M69.0688 139.63C69.0688 139.63 76.9096 112 74.3001 78.0332L69.0688 139.63Z"/><path stroke="#263238" stroke-miterlimit="10" d="M69.0688 139.63C69.0688 139.63 76.9096 112 74.3001 78.0332"/><path fill="#C9C9C9" d="M9.85474 192.335L63.9236 183.046L65.1884 190.223L12.9554 199.114"/><path stroke="#263238" stroke-miterlimit="10" d="M9.85474 192.335L63.9236 183.046L65.1884 190.223L12.9554 199.114"/><path fill="#C9C9C9" stroke="#263238" stroke-miterlimit="10" d="M66.0234 156.337L246.282 119.847C246.881 119.725 247.504 119.828 248.034 120.134C248.563 120.441 248.962 120.93 249.155 121.511C249.267 121.844 249.307 122.197 249.272 122.546C249.238 122.896 249.131 123.235 248.957 123.54C248.783 123.845 248.547 124.111 248.264 124.318C247.98 124.526 247.657 124.672 247.313 124.746L68.547 164.859L66.0234 156.337Z"/><path fill="#C9C9C9" d="M32.8613 10.088L68.8663 209.362L77.7017 210.307L39.5785 8.58984"/><path stroke="#263238" stroke-miterlimit="10" d="M32.8613 10.088L68.8663 209.362L77.7017 210.307L39.5785 8.58984"/><path fill="#C9C9C9" stroke="#263238" stroke-miterlimit="10" d="M177.403 74.8036C177.403 74.8036 181.916 73.6124 178.993 78.1192C176.071 82.6259 172.295 84.4557 164.012 88.594C155.729 92.7324 138.193 97.626 127.712 98.0926C117.231 98.5592 109.2 98.5838 109.2 98.5838C109.2 98.5838 124.304 97.4847 138.187 89.4475C152.069 81.4102 154.63 79.8261 160.598 77.2657C166.566 74.7053 177.403 74.8036 177.403 74.8036Z"/><path fill="#263238" stroke="#263238" stroke-miterlimit="10" d="M155.477 84.7687C155.477 84.7687 159.873 87.1326 158.897 90.7859C157.921 94.4392 158.283 96.754 159.873 97.7303C161.464 98.7065 162.428 96.1462 169.618 98.0925C176.808 100.039 177.047 105.645 175.948 108.322C174.849 110.999 173.879 113.682 176.071 114.173C178.263 114.664 178.748 114.05 179.141 113.074C179.534 112.098 180.983 114.173 179.503 117.458C178.023 120.743 173.535 125.987 170.127 121.48C166.72 116.973 168.058 113.928 165.375 114.173C162.692 114.419 161.844 121.719 156.975 122.573C152.106 123.426 148.324 121.48 147.593 118.797C147.143 117.118 146.818 115.409 146.623 113.682C146.623 113.682 151.615 112.454 152.708 106.13C153.801 99.8056 153.439 91.6394 153.439 91.6394L153.684 84.5723L155.477 84.7687Z"/><path fill="#fff" stroke="#263238" stroke-miterlimit="10" d="M155.477 84.7688C155.477 84.7688 156.822 88.8151 156.318 91.3447C155.815 93.8744 154.802 95.7287 155.643 98.0987C156.484 100.469 155.815 103.668 154.126 106.873C152.438 110.078 151.259 113.627 149.214 114.971C147.17 116.316 145.837 116.813 143.48 116.813C141.122 116.813 137.07 115.635 135.547 112.43C134.024 109.224 135.885 107.198 133.864 103.318C132.732 101.226 131.826 99.0198 131.163 96.7357C131.163 96.7357 147.882 86.1135 155.477 84.7688Z"/><path stroke="#263238" stroke-miterlimit="10" d="M152.438 89.8281C152.438 89.8281 150.749 91.8543 151.087 93.7086"/><path stroke="#263238" stroke-miterlimit="10" d="M152.444 99.0688C152.444 99.0688 154.028 101.138 152.806 102.139C151.585 103.14 149.399 103.109 149.399 103.109"/><path stroke="#263238" stroke-miterlimit="10" d="M149.761 106.375C149.761 106.375 145.015 107.352 142.454 104.668"/><path fill="#263238" d="M145.622 94.8691C145.622 95.8393 145.242 96.6313 144.769 96.6313C144.296 96.6313 143.916 95.8393 143.916 94.8691C143.916 93.899 144.296 93.1008 144.769 93.1008C145.242 93.1008 145.622 93.8929 145.622 94.8691Z"/><path fill="#263238" d="M154.028 94.1936C154.028 95.1698 153.641 95.9619 153.175 95.9619C152.708 95.9619 152.321 95.1698 152.321 94.1936C152.321 93.2173 152.702 92.4314 153.175 92.4314C153.648 92.4314 154.028 93.2235 154.028 94.1936Z"/><path stroke="#263238" stroke-miterlimit="10" d="M146.838 90.5403C146.838 90.5403 144.382 90.0553 142.092 92.9963"/><path stroke="#263238" stroke-miterlimit="10" d="M153.175 88.9563C153.175 88.9563 156.054 89.1037 156.318 91.3448"/><path fill="#fff" stroke="#263238" stroke-miterlimit="10" d="M155.637 129.327L180.768 139.095C180.768 139.095 190.408 130.757 196.916 125.808C202.098 121.728 206.739 117.003 210.725 111.748C212.413 109.402 216.453 101.979 217.362 99.1117C218.271 96.2443 219.579 94.0339 222.704 90.7797C225.829 87.5255 227.395 87.2615 227.002 88.5632C226.609 89.8648 224.785 92.0998 224.11 93.1252C223.435 94.1506 222.679 97.2881 222.679 97.2881C222.679 97.2881 225.418 94.4269 226.977 92.6033C228.537 90.7797 230.625 89.3491 232.184 88.9561C233.744 88.5632 233.621 90.1289 232.841 90.7981C232.061 91.4674 229.323 93.4015 228.801 93.9234C228.279 94.4453 226.455 99.5231 226.455 99.5231C226.455 99.5231 231.018 95.747 232.97 95.0961C234.923 94.4453 238.048 93.2541 237.268 94.7032C236.488 96.1522 233.879 96.9197 232.841 97.6995C231.803 98.4793 229.323 101.733 229.323 101.733C229.323 101.733 232.577 100.567 233.621 100.303C234.665 100.039 237.268 99.1301 236.482 100.567C235.696 102.004 234.026 102.519 232.841 102.777C231.656 103.035 227.37 105.645 226.701 106.553C226.032 107.462 225.528 110.072 222.79 110.851C221.242 111.284 219.721 111.807 218.234 112.417C218.234 112.417 200.913 139.372 197.008 143.541C193.103 147.71 186.324 153.979 184.114 154.347C181.904 154.716 170.311 152.505 163.539 151.486C156.766 150.467 154.157 149.92 154.157 149.92C154.157 149.92 148.821 142.497 146.734 135.074C144.646 127.65 155.637 129.327 155.637 129.327Z"/><path stroke="#263238" stroke-miterlimit="10" d="M218.277 102.63C220.563 101.718 222.547 100.185 224.006 98.203C226.351 94.9488 227.131 94.9488 227.131 96.9014C227.131 98.8539 224.786 101.457 224.135 102.108C223.484 102.759 224.657 106.406 220.881 107.837C217.104 109.267 216.325 109.795 216.325 109.795"/><path fill="#5B89F7" d="M122.223 122.094C122.223 122.094 115.721 122.26 115.389 133.76C115.058 145.26 118.557 169.445 118.557 170.115C118.557 170.784 112.718 178.784 107.383 189.29C102.047 199.796 106.216 210.135 106.216 210.135L251.12 224.478C251.12 224.478 257.291 212.303 254.454 206.132C251.617 199.961 240.449 201.797 236.777 196.959C233.105 192.12 235.279 192.127 236.28 182.953C237.28 173.78 231.773 171.951 218.099 174.781C204.425 177.612 195.59 187.958 180.08 191.457C164.571 194.957 155.238 194.134 152.272 192.796C149.307 191.457 147.268 189.965 149.933 180.958C152.598 171.951 158.271 165.952 158.774 155.28C159.278 144.609 155.268 137.272 155.268 137.272C155.268 137.272 148.435 130.1 142.098 126.429C135.762 122.757 128.228 121.093 122.223 122.094Z"/><g opacity=".49"><path fill="#fff" d="M135.461 178.963C133.465 176.586 131.85 178.201 134.233 180.191C131.856 182.186 133.471 183.801 135.461 181.419C137.456 183.795 139.077 182.18 136.689 180.191C139.077 178.201 137.456 176.586 135.461 178.963Z"/><path fill="#fff" d="M154.286 152.303C151.904 154.298 153.525 155.919 155.514 153.531C157.51 155.907 159.124 154.286 156.742 152.303C159.118 150.307 157.503 148.692 155.514 151.075C153.5 148.692 151.904 150.307 154.286 152.303Z"/><path fill="#fff" d="M135.461 203.424C136.142 203.424 136.695 202.872 136.695 202.19C136.695 201.509 136.142 200.956 135.461 200.956C134.779 200.956 134.227 201.509 134.227 202.19C134.227 202.872 134.779 203.424 135.461 203.424Z"/><path fill="#fff" d="M141.3 151.044C139.304 148.668 137.689 150.283 140.072 152.272C137.696 154.267 139.31 155.888 141.3 153.5C143.295 155.876 144.91 154.255 142.528 152.272C144.904 150.307 143.295 148.692 141.3 151.044Z"/><path fill="#fff" d="M141.3 168.752C139.304 166.376 137.689 167.997 140.072 169.98C137.696 171.975 139.31 173.59 141.3 171.208C143.295 173.584 144.91 171.969 142.528 169.98C144.904 167.997 143.295 166.394 141.3 168.752Z"/><path fill="#fff" d="M141.3 192.931C139.304 190.555 137.689 192.17 140.072 194.159C137.696 196.155 139.31 197.776 141.3 195.387C143.295 197.763 144.91 196.142 142.528 194.159C144.904 192.182 143.295 190.555 141.3 192.931Z"/><path fill="#fff" d="M125.649 194.214C126.331 194.214 126.883 193.662 126.883 192.98C126.883 192.299 126.331 191.746 125.649 191.746C124.967 191.746 124.415 192.299 124.415 192.98C124.415 193.662 124.967 194.214 125.649 194.214Z"/><path fill="#fff" d="M124.409 169.992C122.032 171.987 123.653 173.602 125.637 171.22C127.632 173.596 129.247 171.981 126.865 169.992C129.241 167.996 127.626 166.375 125.637 168.764C123.653 166.394 122.032 167.996 124.409 169.992Z"/><path fill="#fff" d="M132.532 144.579C134.527 146.955 136.142 145.334 133.76 143.351C136.136 141.355 134.521 139.74 132.532 142.123C130.536 139.746 128.916 141.361 131.304 143.351C128.94 145.334 130.536 146.955 132.532 144.579Z"/><path fill="#fff" d="M134.227 161.967C134.908 161.967 135.461 161.415 135.461 160.733C135.461 160.051 134.908 159.499 134.227 159.499C133.545 159.499 132.992 160.051 132.992 160.733C132.992 161.415 133.545 161.967 134.227 161.967Z"/><path fill="#fff" d="M148.588 181.431C148.857 181.766 149.176 182.058 149.534 182.297C149.65 181.867 149.773 181.425 149.908 180.958C149.963 180.78 150.025 180.608 150.08 180.43C150 180.356 149.92 180.277 149.822 180.197C149.995 180.056 150.157 179.902 150.307 179.736C150.5 179.159 150.704 178.594 150.921 178.042C150.633 177.563 149.693 177.679 148.594 178.963C146.599 176.586 144.984 178.201 147.366 180.191C144.972 182.192 146.586 183.807 148.588 181.431Z"/><path fill="#fff" d="M170.649 193.201C169.286 193.389 167.994 193.539 166.775 193.649C166.935 193.836 167.112 194.009 167.303 194.165C164.926 196.161 166.541 197.782 168.531 195.393C170.526 197.769 172.147 196.148 169.759 194.165C170.104 193.893 170.405 193.567 170.649 193.201Z"/><path fill="#fff" d="M175.819 202.583C176.5 202.583 177.053 202.031 177.053 201.349C177.053 200.668 176.5 200.115 175.819 200.115C175.137 200.115 174.585 200.668 174.585 201.349C174.585 202.031 175.137 202.583 175.819 202.583Z"/><path fill="#fff" d="M111.429 193.22C112.11 193.22 112.663 192.667 112.663 191.986C112.663 191.304 112.11 190.751 111.429 190.751C110.747 190.751 110.195 191.304 110.195 191.986C110.195 192.667 110.747 193.22 111.429 193.22Z"/><path fill="#fff" d="M118.41 200.41C116.414 198.033 114.8 199.648 117.182 201.638C114.806 203.633 116.421 205.254 118.41 202.866C120.405 205.242 122.026 203.621 119.638 201.638C122.026 199.648 120.405 198.033 118.41 200.41Z"/><path fill="#fff" d="M117.176 180.197C114.8 182.192 116.414 183.807 118.404 181.425C120.399 183.801 122.02 182.186 119.632 180.197C122.008 178.201 120.387 176.586 118.404 178.969C116.414 176.586 114.818 178.201 117.176 180.197Z"/><path fill="#fff" d="M221.777 176.181C219.401 178.177 221.022 179.798 223.005 177.409C225 179.785 226.615 178.164 224.233 176.181C226.609 174.192 224.994 172.571 223.005 174.953C222.728 174.613 222.401 174.317 222.035 174.075L220.592 174.315C220.567 174.763 220.899 175.444 221.777 176.181Z"/><path fill="#fff" d="M154.286 169.992C152.947 171.116 152.874 172.116 153.42 172.356C154.034 171.067 154.648 169.777 155.262 168.469C153.389 166.529 152.014 168.082 154.286 169.992Z"/><path fill="#fff" d="M148.588 161.973C150.583 164.349 152.198 162.728 149.816 160.745C152.192 158.75 150.577 157.135 148.588 159.517C146.592 157.141 144.978 158.756 147.36 160.745C144.971 162.71 146.586 164.349 148.588 161.973Z"/><path fill="#fff" d="M148.588 200.115C146.593 197.739 144.978 199.354 147.36 201.343C144.984 203.338 146.599 204.953 148.588 202.571C150.584 204.947 152.198 203.332 149.816 201.343C152.192 199.354 150.577 197.739 148.588 200.115Z"/><path fill="#fff" d="M161.482 202.19C159.106 204.186 160.727 205.807 162.71 203.418C164.706 205.794 166.32 204.173 163.938 202.19C166.314 200.195 164.699 198.58 162.71 200.962C160.708 198.58 159.087 200.195 161.482 202.19Z"/><path fill="#fff" d="M252.759 203.934C252.679 203.86 252.594 203.793 252.508 203.725L252.759 203.934Z"/><path fill="#fff" d="M189.941 203.424C190.623 203.424 191.175 202.872 191.175 202.19C191.175 201.509 190.623 200.956 189.941 200.956C189.259 200.956 188.707 201.509 188.707 202.19C188.707 202.872 189.259 203.424 189.941 203.424Z"/><path fill="#fff" d="M235.819 209.92C233.83 207.544 232.209 209.165 234.591 211.148C232.215 213.144 233.836 214.765 235.819 212.376C237.815 214.753 239.435 213.132 237.047 211.148C239.46 209.165 237.815 207.532 235.819 209.92Z"/><path fill="#fff" d="M235.948 177.864C235.756 177.273 235.47 176.717 235.101 176.218C232.939 178.06 234.173 179.552 235.948 177.864Z"/><path fill="#fff" d="M242.247 200.09C241.836 199.967 241.431 199.832 241.019 199.697C240.546 199.946 240.128 200.288 239.791 200.704C237.796 198.328 236.181 199.949 238.563 201.932C236.187 203.928 237.802 205.543 239.791 203.16C241.787 205.536 243.402 203.922 241.019 201.932C241.916 201.214 242.272 200.538 242.247 200.09Z"/><path fill="#fff" d="M184.747 195.405C186.742 197.782 188.357 196.161 185.975 194.177C188.351 192.182 186.736 190.567 184.747 192.949C182.751 190.573 181.13 192.188 183.519 194.177C181.13 196.161 182.751 197.782 184.747 195.405Z"/><path fill="#fff" d="M234.972 176.04C234.803 175.831 234.619 175.636 234.419 175.457C234.586 175.666 234.771 175.861 234.972 176.04Z"/><path fill="#fff" d="M230.299 186.386C230.981 186.386 231.533 185.833 231.533 185.152C231.533 184.47 230.981 183.917 230.299 183.917C229.617 183.917 229.065 184.47 229.065 185.152C229.065 185.833 229.617 186.386 230.299 186.386Z"/><path fill="#fff" d="M247.964 209.92C245.968 207.544 244.347 209.165 246.736 211.148C244.36 213.144 245.981 214.765 247.964 212.376C249.959 214.753 251.574 213.132 249.192 211.148C251.574 209.165 249.959 207.532 247.964 209.92Z"/><path fill="#fff" d="M251.881 203.283C251.359 202.953 250.811 202.666 250.242 202.424C248.67 204.143 250.088 205.309 251.881 203.283Z"/><path fill="#fff" d="M223.017 192.931C221.022 190.555 219.401 192.17 221.789 194.159C219.413 196.155 221.034 197.776 223.017 195.387C225.013 197.763 226.627 196.142 224.245 194.159C226.627 192.182 225.013 190.555 223.017 192.931Z"/><path fill="#fff" d="M230.299 202.583C230.981 202.583 231.533 202.031 231.533 201.349C231.533 200.668 230.981 200.115 230.299 200.115C229.617 200.115 229.065 200.668 229.065 201.349C229.065 202.031 229.617 202.583 230.299 202.583Z"/><path fill="#fff" d="M217.178 200.956C215.182 198.58 213.568 200.195 215.95 202.184C213.574 204.179 215.189 205.8 217.178 203.412C219.173 205.788 220.794 204.167 218.406 202.184C220.794 200.195 219.198 198.58 217.178 200.956Z"/><path fill="#fff" d="M209.767 178.115C207.391 180.111 209.006 181.732 210.995 179.343C212.991 181.719 214.611 180.098 212.223 178.115C213.193 177.299 213.488 176.55 213.371 176.107C211.99 176.586 210.651 177.139 209.337 177.741C209.478 177.863 209.614 177.986 209.767 178.115Z"/><path fill="#fff" d="M217.178 183.911C215.182 181.535 213.568 183.156 215.95 185.139C213.574 187.135 215.189 188.75 217.178 186.367C219.173 188.743 220.794 187.129 218.406 185.139C220.794 183.156 219.198 181.535 217.178 183.911Z"/><path fill="#fff" d="M223.017 208.582C221.022 206.206 219.401 207.827 221.789 209.81C219.413 211.805 221.034 213.42 223.017 211.038C225.013 213.414 226.627 211.799 224.245 209.81C226.627 207.827 225.013 206.206 223.017 208.582Z"/><path fill="#fff" d="M211.001 192.931C209.006 190.555 207.391 192.17 209.773 194.159C207.397 196.155 209.012 197.776 211.001 195.387C212.997 197.763 214.618 196.142 212.229 194.159C214.618 192.182 212.997 190.555 211.001 192.931Z"/><path fill="#fff" d="M195.78 192.931C193.785 190.555 192.164 192.17 194.552 194.159C192.176 196.155 193.797 197.776 195.78 195.387C197.776 197.763 199.39 196.142 197.008 194.159C199.39 192.182 197.776 190.555 195.78 192.931Z"/><path fill="#fff" d="M211.001 208.582C209.006 206.206 207.391 207.827 209.773 209.81C207.397 211.805 209.012 213.42 211.001 211.038C212.997 213.414 214.618 211.799 212.229 209.81C214.618 207.827 212.997 206.206 211.001 208.582Z"/><path fill="#fff" d="M195.78 208.582C193.785 206.206 192.164 207.827 194.552 209.81C192.176 211.805 193.797 213.42 195.78 211.038C197.776 213.414 199.39 211.799 197.008 209.81C199.39 207.827 197.776 206.206 195.78 208.582Z"/><path fill="#fff" d="M203.062 200.115C201.067 197.739 199.446 199.354 201.834 201.343C199.458 203.338 201.079 204.953 203.062 202.571C205.058 204.947 206.672 203.332 204.29 201.343C206.672 199.354 205.076 197.739 203.062 200.115Z"/><path fill="#fff" d="M203.062 184.955C201.067 182.579 199.446 184.194 201.834 186.183C199.458 188.179 201.079 189.794 203.062 187.411C205.058 189.787 206.672 188.173 204.29 186.183C206.672 184.2 205.076 182.579 203.062 184.955Z"/></g><path stroke="#263238" stroke-miterlimit="10" d="M122.223 122.094C122.223 122.094 115.721 122.26 115.389 133.76C115.058 145.26 118.557 169.445 118.557 170.115C118.557 170.784 112.718 178.784 107.383 189.29C102.047 199.795 106.216 210.135 106.216 210.135L251.12 224.478C251.12 224.478 257.291 212.303 254.454 206.132C251.617 199.961 240.449 201.797 236.777 196.959C233.105 192.12 235.279 192.127 236.28 182.953C237.28 173.78 231.773 171.951 218.099 174.781C204.425 177.612 195.59 187.958 180.08 191.457C164.571 194.957 155.238 194.134 152.272 192.796C149.307 191.457 147.268 189.965 149.933 180.958C152.598 171.951 158.271 165.952 158.774 155.28C159.278 144.609 155.268 137.272 155.268 137.272C155.268 137.272 148.435 130.1 142.098 126.429C135.762 122.757 128.228 121.093 122.223 122.094Z"/><path fill="#fff" stroke="#263238" stroke-miterlimit="10" d="M124.894 160.285C130.727 157.614 131.893 153.948 131.728 146.273C131.58 139.568 125.698 125.336 124.225 121.867C123.543 121.916 122.874 121.99 122.223 122.094C122.223 122.094 115.721 122.26 115.389 133.76C115.18 140.809 116.414 152.604 117.403 160.843C119.895 161.473 122.523 161.277 124.894 160.285Z"/><path fill="#fff" stroke="#263238" stroke-miterlimit="10" d="M126.834 121.83C128.16 125.63 131.304 134.724 132.728 139.937C134.57 146.611 136.566 149.607 143.903 153.445C151.24 157.282 156.073 151.603 156.41 146.611C156.644 143.117 155.25 138.733 154.39 136.406C152.364 134.386 147.059 129.321 142.067 126.429C137.426 123.709 132.205 122.133 126.834 121.83Z"/><path fill="#fff" d="M123.211 122.536C123.211 122.536 111.582 124.071 109.464 130.972C107.346 137.874 110.692 159.468 112.534 169.918C114.376 180.369 114.947 183.021 116.15 184.151C117.354 185.281 131.795 193.502 137.518 195.16C143.24 196.818 161.789 203.909 161.789 203.909C161.789 203.909 165.596 206.5 169.157 207.096C172.718 207.692 178.183 207.01 178.183 207.01C178.183 207.01 184.249 209.791 184.759 208.999C185.268 208.207 184.298 206.881 184.298 206.881C184.298 206.881 188.394 209.233 188.234 207.728C188.074 206.224 186.84 204.45 182.708 200.231C178.576 196.013 178.539 197.554 173.406 197.475C168.273 197.395 164.871 197.475 163.385 196.922C161.9 196.369 153.789 191.144 146.807 185.87C139.826 180.596 128.909 173.922 128.909 173.922L123.635 138.721"/><path stroke="#263238" stroke-miterlimit="10" d="M123.211 122.536C123.211 122.536 111.582 124.071 109.464 130.972C107.346 137.874 110.692 159.468 112.534 169.918C114.376 180.369 114.947 183.021 116.15 184.151C117.354 185.281 131.795 193.502 137.518 195.16C143.24 196.818 161.789 203.909 161.789 203.909C161.789 203.909 165.596 206.5 169.157 207.096C172.718 207.692 178.183 207.01 178.183 207.01C178.183 207.01 184.249 209.791 184.759 208.999C185.268 208.207 184.298 206.881 184.298 206.881C184.298 206.881 188.394 209.233 188.234 207.728C188.074 206.224 186.84 204.45 182.708 200.231C178.576 196.013 178.539 197.554 173.406 197.475C168.273 197.395 164.871 197.475 163.385 196.922C161.9 196.369 153.789 191.144 146.807 185.87C139.826 180.596 128.909 173.922 128.909 173.922L123.635 138.721"/><path fill="#fff" d="M173.799 203.572C173.799 203.572 178.858 203.572 179.601 203.737C180.344 203.903 184.268 206.881 184.268 206.881"/><path stroke="#263238" stroke-miterlimit="10" d="M173.799 203.572C173.799 203.572 178.858 203.572 179.601 203.737C180.344 203.903 184.268 206.881 184.268 206.881"/><path fill="#fff" d="M177.053 200.735C177.053 200.735 181.468 201.748 182.862 202.712C184.255 203.676 187.866 206.844 187.866 206.844"/><path stroke="#263238" stroke-miterlimit="10" d="M177.053 200.735C177.053 200.735 181.468 201.748 182.862 202.712C184.255 203.676 187.866 206.844 187.866 206.844"/><path fill="#fff" d="M179.411 199.194C181.133 199.781 182.741 200.662 184.163 201.797L179.411 199.194Z"/><path stroke="#263238" stroke-miterlimit="10" d="M179.411 199.194C181.133 199.781 182.741 200.662 184.163 201.797"/><path fill="#263238" stroke="#263238" stroke-miterlimit="10" d="M131.74 93.9419C131.74 93.9419 138.801 98.8109 137.825 102.225C136.849 105.639 135.516 111.115 139.409 112.454C143.302 113.793 148.668 112.086 150.983 115.984C153.298 119.883 149.884 126.582 153.783 127.067C157.682 127.552 156.951 121.707 162.065 124.145C167.18 126.582 166.812 129.99 167.542 131.089C168.273 132.188 169.998 131.574 170.471 129.75C170.944 127.927 171.318 129.259 171.564 133.889C171.81 138.518 166.204 140.95 163.889 138.518C161.574 136.087 161.943 134.134 160.236 136.934C158.529 139.734 157.436 143.879 150.492 143.51C143.547 143.142 144.407 141.441 141.239 134.865C138.07 128.289 137.585 136.204 132.348 135.718C127.11 135.233 125.649 132.79 124.188 127.19C122.726 121.59 122.849 124.875 115.905 125.121C108.961 125.366 101.046 118.545 104.239 111.723C107.432 104.902 109.593 104.902 110.207 101.856C110.821 98.8109 110.569 97.9575 110.569 97.9575C110.569 97.9575 124.311 99.9223 131.74 93.9419Z"/><path fill="#fff" stroke="#263238" stroke-miterlimit="10" d="M95.9192 96.9014C95.9192 96.9014 111.103 103.655 123.758 99.7688C136.412 95.8821 156.146 84.4188 165.596 79.3594C175.045 74.3 177.403 74.8035 177.403 74.8035C171.557 75.0841 165.7 75.0287 159.861 74.6377C151.934 73.9623 149.908 73.9623 149.908 73.9623C149.908 73.9623 148.392 68.8968 147.379 66.3672C146.365 63.8375 138.101 60.4666 130.844 61.6455C123.586 62.8244 114.984 71.4265 114.984 73.7904C114.984 76.1543 115.659 82.7302 115.322 85.4564C114.984 88.1826 100.309 95.8883 95.9192 96.9014Z"/><path fill="#5B89F7" stroke="#263238" stroke-miterlimit="10" d="M149.908 73.9624C149.908 73.9624 149.091 70.7082 148.103 68.0435C142.743 68.0803 127.479 69.1916 115.248 79.7095C115.432 81.8886 115.456 84.0782 115.321 86.2608C115.321 86.2608 130.168 74.4659 149.908 73.9624Z"/><path fill="#263238" stroke="#263238" stroke-miterlimit="10" d="M281.593 223.877L278.056 230.999L276.914 233.357L275.686 235.843L272.745 241.769L258.623 270.277C258.623 270.277 245.047 273.113 224.534 269.957C204.02 266.801 194.865 257.677 174.032 257.677C153.199 257.677 149.036 265.248 130.413 266.169C121.639 266.617 115.8 263.744 107.824 261.03C88.4405 254.442 70.8186 258.199 51.1891 260.489C35.3295 262.331 8.46081 258.033 0.141113 256.578V195.129L281.593 223.877Z"/><path fill="#5B89F7" d="M0.141113 206.464V212.653C45.4359 217.97 181.13 233.639 272.708 241.769L275.649 235.843C183.727 227.72 44.65 211.676 0.141113 206.464ZM0.141113 201.374V203.83C43.3053 208.883 183.942 225.129 276.883 233.338L278.056 230.981C185.029 222.802 43.1027 206.402 0.141113 201.392V201.374Z"/><path fill="#fff" d="M0.564773 188.111L284.282 220.733C285.005 220.815 285.669 221.17 286.138 221.726C286.607 222.282 286.846 222.997 286.805 223.723C286.784 224.109 286.683 224.486 286.511 224.832C286.339 225.177 286.098 225.485 285.804 225.734C285.509 225.984 285.167 226.172 284.797 226.285C284.428 226.398 284.04 226.435 283.656 226.394L0.141113 195.129"/><path stroke="#263238" stroke-miterlimit="10" d="M0.564773 188.111L284.282 220.733C285.005 220.815 285.669 221.17 286.138 221.726C286.607 222.282 286.846 222.997 286.805 223.723V223.723C286.784 224.109 286.683 224.486 286.511 224.832C286.339 225.177 286.098 225.485 285.804 225.734C285.509 225.984 285.167 226.172 284.797 226.285C284.428 226.398 284.04 226.435 283.656 226.394L0.141113 195.129"/><path stroke="#263238" stroke-miterlimit="10" d="M86.574 274.12C93.8192 275.391 100.561 276.902 107.812 276.773"/><path stroke="#263238" stroke-miterlimit="10" d="M36.9937 276.564C41.2917 276.638 46.8177 276.097 53.8848 274.403C65.6797 271.566 75.0678 272.26 83.6024 273.617"/><path stroke="#263238" stroke-miterlimit="10" d="M23.6514 272.917C23.6514 272.917 26.2547 275.637 33.7639 276.38"/><path stroke="#263238" stroke-miterlimit="10" d="M211.167 278.142C230.668 275.367 243.451 282.072 258.396 281.826"/><path stroke="#263238" stroke-miterlimit="10" d="M174.216 277.958C174.216 277.958 181.038 285.074 204.45 279.438C205.432 279.204 206.396 278.99 207.348 278.824"/><path stroke="#263238" stroke-miterlimit="10" d="M276.398 291.159C279.063 291.653 281.768 291.897 284.479 291.89"/><path stroke="#263238" stroke-miterlimit="10" d="M232.018 289.489C232.018 289.489 236.267 293.922 250.856 290.416C259.611 288.31 266.237 289.329 272.377 290.416"/><path stroke="#263238" stroke-miterlimit="10" d="M258.555 270.277C258.555 270.277 261.871 269.049 280.432 265.113C296.273 261.736 302.77 265.893 305.103 269.012"/><path stroke="#263238" stroke-miterlimit="10" d="M143.75 288.021C145.993 288.259 148.248 288.364 150.504 288.335"/><path stroke="#263238" stroke-miterlimit="10" d="M66.312 284.479C66.312 284.479 73.1274 291.595 96.5454 285.958C114.087 281.74 126.306 285.344 138.297 287.291"/></g><defs><clipPath id="clip0_1766_7959"><rect width="307" height="307" fill="#fff"/></clipPath></defs></svg>